/* XPM */
static char *AlignVCenter_xpm[]={
"48 48 3 1",
". c None",
"# c #000000",
"a c #00ff00",
"................................................",
"................................................",
"................................................",
"........................................#.......",
".......................................#a#......",
"......................................#aaa#.....",
".....................................#aaaaa#....",
"....................................#aaaaaaa#...",
"...................................#aaaaaaaaa#..",
"..................................#####aaa#####.",
"......................................#aaa#.....",
"......................................#aaa#.....",
"......................................#aaa#.....",
"..###################.................#aaa#.....",
"..###################.................#aaa#.....",
"..###################.................#aaa#.....",
"...aaaaaaaaaaaaaaaaaa.................#aaa#.....",
"......................................#aaa#.....",
"......................................#aaa#.....",
"..###########################.........#aaa#.....",
"..###########################.........#aaa#.....",
"..###########################.........#aaa#.....",
"...aaaaaaaaaaaaaaaaaaaaaaaaaa.........#aaa#.....",
"......................................#aaa#.....",
"......................................#aaa#.....",
"..########################............#aaa#.....",
"..########################............#aaa#.....",
"..########################............#aaa#.....",
"...aaaaaaaaaaaaaaaaaaaaaaa............#aaa#.....",
"......................................#aaa#.....",
"......................................#aaa#.....",
"..##############################......#aaa#.....",
"..##############################......#aaa#.....",
"..##############################......#aaa#.....",
"...aaaaaaaaaaaaaaaaaaaaaaaaaaaaa......#aaa#.....",
"......................................#aaa#.....",
"......................................#aaa#.....",
"......................................#aaa#.....",
"......................................#aaa#.....",
"......................................#aaa#.....",
"..................................#####aaa#####.",
"...................................#aaaaaaaaa#..",
"....................................#aaaaaaa#...",
".....................................#aaaaa#....",
"......................................#aaa#.....",
".......................................#a#......",
"........................................#.......",
"................................................"};
