/* XPM */
static char *AlignBottom_xpm[]={
"48 48 3 1",
". c None",
"# c #000000",
"a c #00ff00",
"................................................",
"................................................",
"................................................",
"......................................#####.....",
"......................................#aaa#.....",
"......................................#aaa#.....",
"......................................#aaa#.....",
"......................................#aaa#.....",
"......................................#aaa#.....",
"......................................#aaa#.....",
"......................................#aaa#.....",
"......................................#aaa#.....",
"......................................#aaa#.....",
"......................................#aaa#.....",
"......................................#aaa#.....",
"......................................#aaa#.....",
"......................................#aaa#.....",
"......................................#aaa#.....",
"......................................#aaa#.....",
"......................................#aaa#.....",
"......................................#aaa#.....",
"..###################.................#aaa#.....",
"..###################a................#aaa#.....",
"..###################a................#aaa#.....",
"...aaaaaaaaaaaaaaaaaaa................#aaa#.....",
"......................................#aaa#.....",
"......................................#aaa#.....",
"..###########################.........#aaa#.....",
"..###########################a........#aaa#.....",
"..###########################a........#aaa#.....",
"...aaaaaaaaaaaaaaaaaaaaaaaaaaa........#aaa#.....",
"......................................#aaa#.....",
"......................................#aaa#.....",
"..########################............#aaa#.....",
"..########################a...........#aaa#.....",
"..########################a...........#aaa#.....",
"...aaaaaaaaaaaaaaaaaaaaaaaa...........#aaa#.....",
"......................................#aaa#.....",
"......................................#aaa#.....",
"..##############################..#####aaa#####.",
"..##############################...#aaaaaaaaa#..",
"..##############################a...#aaaaaaa#...",
"...aaaaaaaaaaaaaaaaaaaaaaaaaaaaaa....#aaaaa#....",
"......................................#aaa#.....",
".......................................#a#......",
"........................................#.......",
"................................................",
"................................................"};
