/* XPM */
static char *AlignTop_xpm[]={
"48 48 3 1",
". c None",
"# c #000000",
"a c #00ff00",
"................................................",
"................................................",
"................................................",
"........................................#.......",
"..###################..................#a#......",
"..###################a................#aaa#.....",
"..###################a...............#aaaaa#....",
"...aaaaaaaaaaaaaaaaaaa..............#aaaaaaa#...",
"...................................#aaaaaaaaa#..",
"..................................#####aaa#####.",
"..###########################.........#aaa#.....",
"..###########################a........#aaa#.....",
"..###########################a........#aaa#.....",
"...aaaaaaaaaaaaaaaaaaaaaaaaaaa........#aaa#.....",
"......................................#aaa#.....",
"......................................#aaa#.....",
"..########################............#aaa#.....",
"..########################a...........#aaa#.....",
"..########################a...........#aaa#.....",
"...aaaaaaaaaaaaaaaaaaaaaaaa...........#aaa#.....",
"......................................#aaa#.....",
"......................................#aaa#.....",
"..##############################......#aaa#.....",
"..##############################......#aaa#.....",
"..##############################a.....#aaa#.....",
"...aaaaaaaaaaaaaaaaaaaaaaaaaaaaaa.....#aaa#.....",
"......................................#aaa#.....",
"......................................#aaa#.....",
"......................................#aaa#.....",
"......................................#aaa#.....",
"......................................#aaa#.....",
"......................................#aaa#.....",
"......................................#aaa#.....",
"......................................#aaa#.....",
"......................................#aaa#.....",
"......................................#aaa#.....",
"......................................#aaa#.....",
"......................................#aaa#.....",
"......................................#aaa#.....",
"......................................#aaa#.....",
"......................................#aaa#.....",
"......................................#aaa#.....",
"......................................#aaa#.....",
"......................................#aaa#.....",
"......................................#aaa#.....",
"......................................#####.....",
"................................................",
"................................................"};
