/* XPM */
static char *AlignHCenter_xpm[]={
"48 48 3 1",
". c None",
"# c #000000",
"a c #00ff00",
"................................................",
"................................................",
"................................................",
"......####################################......",
"......####################################a.....",
"......####################################a.....",
".......aaaaaaaaaaaaaaaaaaaaaaaaaaaaaaaaaaaa.....",
"................................................",
"................................................",
".........##############################.........",
".........##############################a........",
".........##############################a........",
"..........aaaaaaaaaaaaaaaaaaaaaaaaaaaaaa........",
"................................................",
"................................................",
".......#################################........",
".......#################################a.......",
".......#################################a.......",
".........aaaaaaaaaaaaaaaaaaaaaaaaaaaaaaaa.......",
"................................................",
"................................................",
"............########################............",
"............########################a...........",
"............########################a...........",
".............aaaaaaaaaaaaaaaaaaaaaaaa...........",
"................................................",
"................................................",
"................................................",
"................................................",
"................................................",
"................................................",
"................................................",
"........#..............................#........",
".......##..............................##.......",
"......#a#..............................#a#......",
".....#aa#..............................#aa#.....",
"....#aaa################################aaa#....",
"...#aaaaaaaaaaaaaaaaaaaaaaaaaaaaaaaaaaaaaaaa#...",
"..#aaaaaaaaaaaaaaaaaaaaaaaaaaaaaaaaaaaaaaaaaa#..",
"...#aaaaaaaaaaaaaaaaaaaaaaaaaaaaaaaaaaaaaaaa#...",
"....#aaa################################aaa#....",
".....#aa#..............................#aa#.....",
"......#a#..............................#a#......",
".......##..............................##.......",
"........#..............................#........",
"................................................",
"................................................",
"................................................"};
