/* XPM */
static char *AlignLeft_xpm[]={
"48 48 3 1",
". c None",
"# c #000000",
"a c #00ff00",
"................................................",
"................................................",
"................................................",
"...##################################...........",
"...##################################a..........",
"...##################################a..........",
"....aaaaaaaaaaaaaaaaaaaaaaaaaaaaaaaaaa..........",
"................................................",
"................................................",
"...##############################...............",
"...##############################a..............",
"...##############################a..............",
"....aaaaaaaaaaaaaaaaaaaaaaaaaaaaaa..............",
"................................................",
"................................................",
"...##################################...........",
"...##################################a..........",
"...##################################a..........",
"....aaaaaaaaaaaaaaaaaaaaaaaaaaaaaaaaaa..........",
"................................................",
"................................................",
"...#########################....................",
"...#########################a...................",
"...#########################a...................",
"....aaaaaaaaaaaaaaaaaaaaaaaaa...................",
"................................................",
"................................................",
"................................................",
"................................................",
"................................................",
"................................................",
"................................................",
"........#.......................................",
".......##.......................................",
"......#a#.......................................",
".....#aa#.......................................",
"....#aaa#####################################...",
"...#aaaaaaaaaaaaaaaaaaaaaaaaaaaaaaaaaaaaaaaa#...",
"..#aaaaaaaaaaaaaaaaaaaaaaaaaaaaaaaaaaaaaaaaa#...",
"...#aaaaaaaaaaaaaaaaaaaaaaaaaaaaaaaaaaaaaaaa#...",
"....#aaa#####################################...",
".....#aa#.......................................",
"......#a#.......................................",
".......##.......................................",
"........#.......................................",
"................................................",
"................................................",
"................................................"};
