/* XPM */
static const char *xpmAlignTop16x16[]={
"16 16 5 1",
". c None",
"a c #000000",
"c c #000101",
"b c #00ff00",
"# c #019401",
"................",
"............#...",
"..aaaaaa...#b#..",
"..........#b#b#.",
"..aaaaaaa...#...",
"............#...",
"..aaaaaca...#...",
"............#...",
"..aaaaaa....#...",
"............#...",
"............#...",
"............#...",
"............#...",
"............#...",
"............#...",
"................"};

