/* XPM */
static const char *xpmAlignJustify16x16[]={
"16 16 7 1",
". c None",
"# c #000000",
"a c #000001",
"b c #000100",
"e c #00ff00",
"c c #010000",
"d c #019401",
"................",
"................",
".#############..",
"................",
".#############..",
"................",
".#############..",
"................",
".#############..",
"................",
".#############..",
"................",
".#############..",
"................",
".######.........",
"................"};

