/* XPM */
static const char *xpmAlignBottom16x16[]={
"16 16 6 1",
". c None",
"a c #000000",
"c c #000100",
"b c #00ff00",
"d c #010000",
"# c #019401",
"................",
"............#...",
"............#...",
"............#...",
"............#...",
"............#...",
"............#...",
"..aaaaaa....#...",
"............#...",
"..aaaaaaa...#...",
"............#...",
"..aaaaaaa...#...",
"..........#b#b#.",
"..caadaa...#b#..",
"............#...",
"................"};

