/* XPM */
static const char *xpmAlignRight16x16[]={
"16 16 4 1",
". c None",
"# c #000000",
"b c #00ff00",
"a c #019401",
"................",
"................",
".......########.",
"................",
"..........#####.",
"................",
".........######.",
"................",
".......########.",
"................",
"............a...",
"............ba..",
"..aaaaaaaaaaaba.",
"............ba..",
"............a...",
"................"};

