/* XPM */
static const char *xpmAlignVCenter16x16[]={
"16 16 4 1",
". c None",
"b c #000000",
"a c #00ff00",
"# c #019401",
"................",
"............#...",
"...........#a#..",
"..........#a#a#.",
"..bbbbbb....#...",
"............#...",
"..bbbbbbb...#...",
"............#...",
"..bbbbbbb...#...",
"............#...",
"..bbbbbb....#...",
"............#...",
"..........#a#a#.",
"...........#a#..",
"............#...",
"................"};

