/* XPM */
static char *Arrow_xpm[]={
"48 48 33 1",
". c None",
"y c #000000",
"E c #010101",
"w c #040404",
"B c #080808",
"i c #0a0a0a",
"t c #0b0b0b",
"m c #101010",
"q c #121212",
"z c #161616",
"x c #181818",
"v c #191919",
"s c #1e1e1e",
"p c #282828",
"D c #292929",
"e c #2b2b2b",
"h c #313131",
"l c #323232",
"A c #343434",
"u c #353535",
"r c #373737",
"C c #3b3b3b",
"o c #3d3d3d",
"n c #3e3e3e",
"j c #454545",
"k c #4d4d4d",
"f c #585858",
"g c #626262",
"b c #656565",
"d c #6c6c6c",
"c c #747474",
"# c #7d7d7d",
"a c #868686",
"................................................",
"................................................",
"................................................",
"................................................",
"................................................",
"................................................",
"................................................",
"................................................",
"................................................",
"................................................",
"................................................",
".................#..............................",
".................ab.............................",
".................cde............................",
".................fghi...........................",
".................jklmi..........................",
".................nopqmi.........................",
".................orstqmi........................",
".................ouvwtqmi.......................",
".................ouxywtqmi......................",
".................ouxyywtqmi.....................",
".................ouxyyywtqmi....................",
".................ouxyyyywtqmi...................",
".................ouxyyyyyyyyyy..................",
".................ouxyyyyyyyyyyy.................",
".................ouzyyyyyyyyyyyy................",
".................oAByyyyy.......................",
".................CDyyyyyyy......................",
".................Atyyy..yy......................",
".................syyy...yyy.....................",
".................yyy.....yy.....................",
".................yy......yyy....................",
".................y........Ey....................",
"..........................yyy...................",
"...........................Ey...................",
"...........................yyy..................",
"............................Ey..................",
"............................yyy.................",
".............................yy.................",
".............................yyy................",
"..............................yy................",
"................................................",
"................................................",
"................................................",
"................................................",
"................................................",
"................................................",
"................................................"};
