/* XPM */
static const char * xpmAssociationLink16x16[] = {
"16 16 5 1",
" 	c none",
".	c #A0A02020F0F0",
"X	c #000000000000",
"o	c #FFFFFFFFFFFF",
"O	c #FFFF00000000",
" .XooooooooooX. ",
" .XoooXXXXoooX. ",
" .XoooXOOXoooX. ",
" .XoooXOOXoooX. ",
"  .XooXXXXooX.  ",
"  .XXooXXooXX.  ",
"   ..XXXXXX..   ",
"     ..XX..     ",
"       XX       ",
"       XX       ",
"       XX       ",
"       XX       ",
"      XXXX      ",
"      XOOX      ",
"      XOOX      ",
"      XXXX      "};
