/* XPM */
static char *Bold_xpm[]={
"48 48 4 1",
". c None",
"# c #000000",
"a c #101010",
"b c #efefef",
"................................................",
"................................................",
"................................................",
"................................................",
"................................................",
"................................................",
"................................................",
"................................................",
"................................................",
".......#####################....................",
".........#####################..................",
"..........######################................",
"...........########......########...............",
"...........########........#######..............",
"...........########.........######..............",
"...........########.........#######.............",
"...........########..........######.............",
"...........########..........######.............",
"...........########..........######.............",
"...........########..........#####..............",
"...........########.........######..............",
"...........########.......#######...............",
"...........########......#######................",
"...........###################..................",
"...........#################....................",
"...........##################a#.................",
"...........########....b.########...............",
"...........########.......a#######..............",
"...........########........########.............",
"...........########.......b########.............",
"...........########........#########............",
"...........########.........########............",
"...........########.........########............",
"...........########.........########............",
"...........########.........########............",
"...........########........#########............",
"...........########........########.............",
"...........########.......########..............",
"..........##########.....########...............",
".........#######################................",
"........######################..................",
"......######################....................",
"................................................",
"................................................",
"................................................",
"................................................",
"................................................",
"................................................"};
