/* XPM */
static const char *xpmBrush16[]={
"16 16 23 1",
". c None",
"e c #000000",
"a c #4d2500",
"u c #606060",
"d c #61360f",
"m c #613c17",
"# c #7a4b1d",
"h c #8c5b2b",
"c c #915f2f",
"b c #9e6b39",
"p c #9f6c3a",
"j c #a5733f",
"g c #aa7645",
"i c #bc8454",
"r c #c08857",
"l c #c18a5a",
"f c #c38a5a",
"q c #d09b70",
"k c #d5a57d",
"s c #e5b995",
"n c #e9be9c",
"t c #efd7c6",
"o c #ffffff",
"..........#a....",
".........#bcd...",
".......e#fgha...",
".....ee#iffjhd..",
"....ee#klefeeeee",
"...eemnneoefjpd.",
"...eeffnneqfrpd.",
"...e.dffnnnspt#d",
"...e..ddffnpt#d.",
"........dfpt#d..",
"...u.....dddd...",
"..uuu......d....",
".uuuuu..........",
"uuuuuuuuuuuuuu..",
"uuuuuuuuuuuuuuu.",
"uuuuuuuuuuuuuuuu"};
