/* XPM */
static const char *xpmCabinetClosed32x32[] = {
/* columns rows colors chars-per-pixel */
"32 32 167 2",
"   c black",
".  c #060d04",
"X  c #0b1c09",
"o  c #0c2409",
"O  c #0e290b",
"+  c #11250e",
"@  c #142c11",
"#  c #163f12",
"$  c #1b3f17",
"%  c #1d3d19",
"&  c #2a3a28",
"*  c #154111",
"=  c #194114",
"-  c #1f411b",
";  c #224f1d",
":  c #294726",
">  c #3a5038",
",  c #2a6324",
"<  c #2f6829",
"1  c #336d2d",
"2  c #35752e",
"3  c #367d2d",
"4  c #377630",
"5  c #387c31",
"6  c #567752",
"7  c #048b0d",
"8  c #0f8714",
"9  c #0b8d12",
"0  c #0c9313",
"q  c #128d16",
"w  c #1b871c",
"e  c #198c1b",
"r  c #129516",
"t  c #169318",
"y  c #109817",
"u  c #13991a",
"i  c #1a931a",
"p  c #199e1d",
"a  c #1aa01d",
"s  c #1ea123",
"d  c #2e9a2a",
"f  c #35832d",
"g  c #378c2d",
"h  c #388d2f",
"j  c #398431",
"k  c #3a8b32",
"l  c #36952c",
"z  c #359d2b",
"x  c #389c2d",
"c  c #3e9634",
"v  c #3d9b33",
"b  c #20a51e",
"n  c #22a622",
"m  c #26a32c",
"M  c #26ab25",
"N  c #25a829",
"B  c #2bae25",
"V  c #29ac2c",
"C  c #2eaa32",
"Z  c #2eb42c",
"A  c #34a42b",
"S  c #33aa29",
"D  c #39a22d",
"F  c #39ab2c",
"G  c #32ae35",
"H  c #3fac32",
"J  c #33b52b",
"K  c #36b92b",
"L  c #3ab42c",
"P  c #3abb2c",
"I  c #34b236",
"U  c #37bc31",
"Y  c #3cb73e",
"T  c #3abe30",
"R  c #3dc02f",
"E  c #3ec131",
"W  c #3bc139",
"Q  c #419639",
"!  c #429f37",
"~  c #449e3a",
"^  c #40a535",
"/  c #40ac35",
"(  c #46ac3b",
")  c #48a83e",
"_  c #45b33a",
"`  c #40bd33",
"'  c #44ba38",
"]  c #4abb3d",
"[  c #4ba641",
"{  c #43b546",
"}  c #4dbf41",
"|  c #4abc4b",
" . c #51bc46",
".. c #56bd4b",
"X. c #5cbb52",
"o. c #76a371",
"O. c #42c534",
"+. c #46c938",
"@. c #4bcd3d",
"#. c #4dd03f",
"$. c #49cd40",
"%. c #4dd245",
"&. c #53c347",
"*. c #57c24b",
"=. c #53cb46",
"-. c #5ac44f",
";. c #59cc4d",
":. c #52d544",
">. c #52d64a",
",. c #55d847",
"<. c #54d84a",
"1. c #58d74b",
"2. c #59dc4b",
"3. c #5dd450",
"4. c #58dd51",
"5. c #5de04f",
"6. c #5ee151",
"7. c #62cb56",
"8. c #64cd59",
"9. c #63db57",
"0. c #7ec676",
"q. c #77de72",
"w. c #7ada77",
"e. c #62e555",
"r. c #67ea59",
"t. c #69e45c",
"y. c #6bed5d",
"u. c #6eec62",
"i. c #6ff261",
"p. c #72e765",
"a. c #74e66a",
"s. c #70e863",
"d. c #76ee69",
"f. c #78eb6c",
"g. c #7cef70",
"h. c #72f564",
"j. c #75f867",
"k. c #77fa69",
"l. c #79fb6b",
"z. c #7ff472",
"x. c #7ffd71",
"c. c #84cd7c",
"v. c #82f675",
"b. c #84f47a",
"n. c #81fd74",
"m. c #86fd7a",
"M. c #88fd7c",
"N. c #87cd80",
"B. c #8ed187",
"V. c #98dc91",
"C. c #91e488",
"Z. c #97f08e",
"A. c #91fd85",
"S. c #95f88b",
"D. c #99fd8e",
"F. c #9af091",
"G. c #a1f598",
"H. c #a0fd96",
"J. c #a5f89c",
"K. c #a8fc9f",
"L. c #aefca5",
"P. c #b3fcac",
"I. c #bcfcb5",
"U. c #befbb8",
"Y. c #c2fcbc",
"T. c white",
"R. c None",
/* pixels */
"R.R.R.R.R.R.R.R.R.R.R.R.R.                  R.R.R.R.R.R.R.R.R.R.",
"R.R.R.R.R.R.R.R.R.R.            o.V.C.:         R.R.R.R.R.R.R.R.",
"R.R.R.R.R.R.R.            6 B.J.H.D.A.m.X.          R.R.R.R.R.R.",
"R.R.R.R.            > c.G.H.D.A.M.n.l.h.i.t.<         R.R.R.R.R.",
"R.R.R.        & 0.F.H.D.A.M.l.k.h.h.y.r.e.5.2.} X       R.R.R.R.",
"R.R.R.    c.Z.H.D.A.M.n.k.h.h.y.r.e.5.2.:.:.@.+.+.g       R.R.R.",
"R.R.R.    I.D.M.n.k.h.i.y.r.e.5.2.,.:.@.+.O.R P L ] ;       R.R.",
"R.R.R.    U.Y.z.i.y.r.e.5.2.,.#.@.+.O.P P L F ] a.n.        R.R.",
"R.R.R.    Y.Y.U.y.2.2.,.%.@.+.O.R P L F F &.f.n.l.k.        R.R.",
"R.R.R.    U.I.P.L.1.@.+.O.R P L F A D *.g.n.e.V u h.        R.R.",
"R.R.R.    P.L.K.H.S.+.P L F A z x -.v.n.4.m m w.u 6.        R.R.",
"R.R.R.    K.H.D.A.m.v.F D l v 7.v.n.<.s C q.A.x.y 2.        R.R.",
"R.R.R.    D.A.m.x.k.h.p.! 8.m.x.%.y G a.n.u...e.0 <.        R.R.",
"R.R.R.    M.x.k.h.h.y.r.v.n.W 0 I u.j.y.[ 4 ( @.0 %.        R.R.",
"R.R.R.    l.h.h.y.r.e.6.d.e.p y.y.e.[ 4 c ` B r a ,.        R.R.",
"R.R.R.    h.y.r.e.6.2.,.s.2.p 2.} 4 h L S t r T M :.        R.R.",
"R.R.R.    r.e.6.2.,.:.@.t.>.u O.F D z t 9 U M 0 { Z         R.R.",
"R.R.R.    6.2.,.:.@.@.O.9.%.r x l e 7 M M 0 | D.Y B         R.R.",
"R.R.R.    ,.:.@.@.O.O.P 1.$.0 w 7 n U u I b.m.l.Z n         R.R.",
"R.R.R.  = @.@.O.R P L F ;.2.7 p O.a n t.j.u.[ -.V n         R.R.",
"R.R.R.  # O.O.P L F F D &.:.@.b y >.y.r. .5 ) @.0 A         R.R.",
"R.R.R.  * P L F F D x l } @.0 Z e.4.=.k j ' b 7 S ,         R.R.",
"R.R.R.  o / F D x l h g ] P 0 :.%.H 2 v J 0 t c .           R.R.",
"R.R.R.    O v l h g f f _ K 0 R P x F i 7 z ;               R.R.",
"R.R.R.      X k f 3 3 2 / J 9 D z l 8 t k                   R.R.",
"R.R.R.R.      @ 5 2 2 1 ^ S 7 g w 7 z =                   R.R.R.",
"R.R.R.R.R.      + 4 1 1 v A 7 8 q f                     R.R.R.R.",
"R.R.R.R.R.R.      @ 1 1 v x q d @                   R.R.R.R.R.R.",
"R.R.R.R.R.R.R.      % 2 c v 2                     R.R.R.R.R.R.R.",
"R.R.R.R.R.R.R.R.      - Q +                   R.R.R.R.R.R.R.R.R.",
"R.R.R.R.R.R.R.R.R.                          R.R.R.R.R.R.R.R.R.R.",
"R.R.R.R.R.R.R.R.R.R.                    R.R.R.R.R.R.R.R.R.R.R.R."
};
