/* XPM */
static char * CabinetFileSave48x48_xpm[] = {
"48 48 236 2",
"  	c none",
". 	c #29243B272724",
"X 	c #32264A483025",
"o 	c #0C0114020B01",
"O 	c #000000000000",
"+ 	c #9291D9DA8B90",
"@ 	c #9B92FBFE9191",
"# 	c #9892FBFE8E91",
"$ 	c #716DCCD8676C",
"% 	c #5B4B8490564A",
"& 	c #8590CAD87F6F",
"* 	c #9D93F5FD9391",
"= 	c #9592FCFE8A90",
"- 	c #9091FCFE8490",
"; 	c #8990FCFE7E6F",
": 	c #8590FCFE796E",
"> 	c #7A6EF4FD6C6D",
", 	c #3A277D6F3226",
"< 	c #3E275C4B3B27",
"1 	c #7E6FC0D7776E",
"2 	c #7F6FFCFE716D",
"3 	c #7A6EFBFE6C6D",
"4 	c #766EF8FE686C",
"5 	c #726DF4FD646C",
"6 	c #616BD3D9554A",
"7 	c #0E0120230C01",
"8 	c #28244F492324",
"9 	c #786EBAB6726D",
"0 	c #9291F0FD8990",
"q 	c #6E6DF0FD616B",
"w 	c #6A6CECFC5C4B",
"e 	c #676CE9FC594A",
"r 	c #656CE7FC574A",
"t 	c #626BE4FB544A",
"y 	c #424892913926",
"u 	c #1B0328241A03",
"i 	c #736DB2B56C6D",
"p 	c #8C91EBFC8490",
"a 	c #5F4BE1FB5149",
"s 	c #5A4ADCDA4C49",
"d 	c #574AD9DA4948",
"f 	c #554AD7DA4748",
"g 	c #554AD2D94A48",
"h 	c #1E0345481A03",
"j 	c #6A6CAEB5636C",
"k 	c #818FFCFE746E",
"l 	c #5249D3D94448",
"z 	c #4A48CCD83C27",
"x 	c #4648C8D83826",
"c 	c #4548A9B43A27",
"v 	c #4E49776E4848",
"b 	c #9191EDFC8790",
"n 	c #6D6DEFFD5F4B",
"m 	c #4E49D1D94147",
"M 	c #4D49CFD93F27",
"N 	c #4248C4D73426",
"B 	c #3E27C1D73125",
"V 	c #3D27BFB72F25",
"C 	c #3A27BAB62D25",
"Z 	c #2E25726D2624",
"A 	c #616B8D915D4B",
"S 	c #BEB7FCFEB8B6",
"D 	c #8C91FCFE818F",
"F 	c #4548C7D83726",
"G 	c #3A27B2B52C25",
"H 	c #3926ABB42C25",
"J 	c #3726A9B42B25",
"K 	c #35267B6E2D25",
"L 	c #6B6D9992656C",
"P 	c #C3D7FCFEBCB6",
"I 	c #BAB6FCFEB3B5",
"U 	c #5D4BDFDB4F49",
"Y 	c #3726A2B32B25",
"T 	c #3D27A9B43125",
"R 	c #5F4BCAD8534A",
"E 	c #7E6FF2FD716D",
"W 	c #6A6C9592656C",
"Q 	c #B2B5FBFEABB4",
"! 	c #3926A2B32D25",
"~ 	c #3E27A1B33326",
"^ 	c #656CD2D9594A",
"/ 	c #808FF3FD766E",
"( 	c #676C9091636C",
") 	c #B0B5F4FDABB4",
"_ 	c #362699922B25",
"` 	c #4248A4B33726",
"' 	c #6A6CD1D9606B",
"] 	c #766EF5FD686C",
"[ 	c #A3B3F4FD9B92",
"{ 	c #6E6DD9DA636C",
"} 	c #3B27C0D73A27",
"| 	c #786EA3B3736D",
" .	c #B6B6FCFEAFB5",
"..	c #3A27BEB73926",
"X.	c #0C0192911302",
"o.	c #4948B5B64D49",
"O.	c #4748CBD84248",
"+.	c #756EA3B3706D",
"@.	c #ABB4FCFEA2B3",
"#.	c #A4B3FCFE9A92",
"$.	c #838FE9FC796E",
"%.	c #3626B9B63426",
"&.	c #04008B900D01",
"*.	c #4F49BBB65249",
"=.	c #5D4BC2D75E4B",
"-.	c #3926BCB63426",
";.	c #716DA2B36C6D",
":.	c #9F93FCFE9592",
">.	c #726DDFDB666C",
",.	c #362692912C25",
"<.	c #36268A902C25",
"1.	c #07008E911001",
"2.	c #5049C2D75049",
"3.	c #6D6DA2B3676C",
"4.	c #39268D912F25",
"5.	c #584ABAB64E49",
"6.	c #3226B5B63326",
"7.	c #4047C2D73E27",
"8.	c #636CE5FB584A",
"9.	c #5E4BC5D7534A",
"0.	c #838FF6FD786E",
"q.	c #2E25B2B52D25",
"w.	c #130295921A03",
"e.	c #4748C0D74748",
"r.	c #6D6DE7FC606B",
"t.	c #6D6DB2B5666C",
"y.	c #756EF7FE676C",
"u.	c #696CD4D95E4B",
"i.	c #5E4BD5D95149",
"p.	c #42488E913A27",
"a.	c #33266D6D2D25",
"s.	c #5E4BDDDA5149",
"d.	c #3125B5B62C25",
"f.	c #646CB3B55C4B",
"g.	c #2424A9B42424",
"h.	c #4948B0B53E27",
"j.	c #776EEEFC6B6D",
"k.	c #3E2795923426",
"l.	c #3726746E3025",
"z.	c #1A039D931B03",
"x.	c #5D4BBCB6534A",
"c.	c #736DEAFC666C",
"v.	c #4E49C9D84047",
"b.	c #3426746E2D25",
"n.	c #3D279A923326",
"m.	c #2924ADB52A25",
"M.	c #4248BEB73426",
"N.	c #1A0396921A03",
"B.	c #5C4BB2B5544A",
"V.	c #564AB6B64B49",
"C.	c #3626828F2D25",
"Z.	c #38269A922D25",
"A.	c #2B2592912524",
"S.	c #1C03A1B31E03",
"D.	c #564AC2D74A48",
"F.	c #5E4B9391594A",
"G.	c #9892EEFC8F91",
"H.	c #5249CCD84548",
"J.	c #554AB7B64B49",
"K.	c #656CDBDA5B4B",
"L.	c #382695922D25",
"P.	c #12028A901602",
"I.	c #584A9F934F49",
"U.	c #564A85905149",
"Y.	c #504985904B49",
"T.	c #4B4985904448",
"R.	c #160224241402",
"E.	c #534AB9B64748",
"W.	c #636CD9DA554A",
"Q.	c #170289901802",
"!.	c #5249AEB54848",
"~.	c #504989904A48",
"^.	c #424884903A27",
"/.	c #3C27828F3526",
"(.	c #7D6FECFC726D",
").	c #4E49B5B64348",
"_.	c #4F49D3D94948",
"`.	c #0A018D911102",
"'.	c #1802828F1B03",
"].	c #4E49BEB74348",
"[.	c #4B4991914348",
"{.	c #2624A7B42A25",
"}.	c #1B037D6F1B03",
"|.	c #2224A6B42224",
" X	c #47489D933D27",
".X	c #4648B1B53A27",
"XX	c #564ACDD84A48",
"oX	c #2A256F6D2224",
"OX	c #26246B6D1E03",
"+X	c #4147B5B64448",
"@X	c #4147AFB53526",
"#X	c #534AC4D74648",
"$X	c #4648B9B63A27",
"%X	c #3B278C913226",
"&X	c #1C03626B1502",
"*X	c #17026C6D1302",
"=X	c #2E25A5B43226",
"-X	c #0C011D030A01",
";X	c #4B49C5D73E27",
":X	c #2124666C1903",
">X	c #1602646C1102",
",X	c #0F01808F1302",
"<X	c #1C0399922224",
"1X	c #766EE2FB716D",
"2X	c #130237260F01",
"3X	c #8990DDDA808F",
"4X	c #17025D4B1001",
"5X	c #110285901602",
"6X	c #0F012F250B01",
"7X	c #4A48B8B63D27",
"8X	c #808FE9FC766E",
"9X	c #14025A4A0D01",
"0X	c #0C01716D0E01",
"qX	c #150239261102",
"wX	c #1402544A0D01",
"eX	c #4C49ADB54248",
"rX	c #0500828F0D01",
"tX	c #000029240300",
"yX	c #4248A9B43626",
"uX	c #404793913726",
"iX	c #0200746E0A01",
"pX	c #2A25ABB42624",
"aX	c #130295921602",
"sX	c #000032260400",
"dX	c #3E27B3B53125",
"fX	c #2324A8B41F03",
"gX	c #414799923726",
"hX	c #15029B921B03",
"jX	c #2A259A922524",
"kX	c #212495921F03",
"lX	c #23245E4B1D03",
"zX	c #21248C911F03",
"xX	c #29248D912424",
"cX	c #2E256A6C2824",
"vX	c #1D0349481802",
"bX	c #0D01796E1001",
"                                                                                                ",
"                                                    . X                                         ",
"                                              o O + @ # $                                       ",
"                                          % & * O = - ; : > ,                                   ",
"                                    < 1 * @ = O O O 2 3 4 5 5 6 7                               ",
"                              8 9 0 @ = - ; : O O O 5 5 q w e r t y                             ",
"                        u i p @ = - ; : 2 3 O O O O O e r t a s d f g h                         ",
"                  o j p @ = - ; : k 3 4 5 5 O O O O O t s d f f l z z x c                       ",
"              v b @ = - ; : 2 3 4 5 5 n n O O O O O O O f m M z x N B V C N Z                   ",
"              A S D : 2 3 4 5 5 n n e e t O O O O O O O z F N B V C C G H J H K                 ",
"              L P I 3 5 5 n n e r r U U O O O O O O O O O V C C G G H Y T R E                   ",
"              W P P Q w e r t a U d d l O O O O O O O O O G G J Y ! ~ ^ / : E                   ",
"              ( P P P ) a U d f l M M O O O O O O O O O O O Y _ ` ' : : k 2 ]                   ",
"              ( P P P S [ l m M z F N O O O O O O O O O O O c { : : k 3 } 4 5                   ",
"              | P P I  .Q 0 x F V V O O O O O O O O O O O O O k k 3 ..X.o.O.5                   ",
"              +.I  .Q Q @.#.$.C C C O O O O O O O O O O O O O 4 %.&.*.) =.-.w                   ",
"              ;.Q @.@.#.:.@ = >.J Y Y _ _ ,.<.O O O : 2 2 5 %.1.*.@.@.#.2.%.e                   ",
"              3.@.#.@ @ # - D k 6 _ ,.,.<.4.5.O O O 2 q 6.1.*.@ # = D k 7.%.8.                  ",
"              i @ @ = - ; k k 3 4 9.<.4.9.0.k O O O q.w.e.D : 2 3 ^ r.5 %.6.t                   ",
"              t.= D ; k 2 3 4 y.5 n u.0.: k 3 O O O g 3 4 y.q i.p.a.s.t q.d.s.                  ",
"              f.; k 3 3 4 y.5 n w w / 3 3 n g.O O O q w e i.y a., h.f m g.q.s                   ",
"              f.3 3 4 y.5 n w e r t j.3 5 &.m O O O s g k.a.l.` x F B z.X.l d                   ",
"              x.4 5 5 n w e r r a U c.5 r X.d d l v.k.a.b.n.-.C G z.&.m.f l l                   ",
"              5.5 n w r r t a U s d r.5 t X.z F M.b.a.,.G T H N.1.g.l B.+ m l                   ",
"              V.w r r t a s d f l m r.r.s.X.C G ! C.! Z.Z.A.X.S.m D.F.% S G.H.                  ",
"              J.r t a s d f l l m z K.e s X.! Z.L.,.<.<.P.w.x H.I.U.Y.T.Q @.0 R.                ",
"              E.U s d f l l z z x F W.8.d 1.<.C.C.C.Q.1.-.l !.~.T.^././.:.= - (.8               ",
"              ).d f l m z z x F N B i.a _.`.b.b.'.&.g.m ].[.^./././.K /.D : 4 %.{.              ",
"              h.l m z z x N N B C C i.s m 1.}.1.|.m v. X^./., K b.K Z K 3 -.&.*.1.              ",
"              .Xz x x N B V C G G H XXd f X.S.z M c /./.K K b.Z Z oXOX}.w.+X* @ &.              ",
"              @XF N B V C C G H H ! #Xf l m m $X%XK b.Z Z oXoXOX&X*XP.=Xp # - 0.&.-X            ",
"              T N C C G G H ! ! ! Z.#Xl m ;Xk.b.Z Z oXoXOX:X&X>X,X<X1X- : 2 3 5 &.2X            ",
"              J C G G H H ! ! Z.L.,.].z l 3XK oXOXOX:X:X4X>X5Xw.' : 2 3 5 R n 8.&.6X            ",
"              _ H H H ! Z.L.L.L.,.4.7Xx z = 8XK &X4X4X9X0X`.$X2 3 y.q K.y l.a d &.qX            ",
"                L.! Z.L.L.,.,.4.<.C.$XN x k 3 5 <.wX0X&.%.3 y.5 r.r eXl.l.).l B &.qX            ",
"                  ,.L.,.4.4.C.C.C.K .XV N y.5 e r `.m.c.5 w e r #X/.a.k.v.x S.rXtX              ",
"                    C.<.C.C.C.K K b.yXC M.w r t %.q.n w r U g uXa./.$XF d.&.iX                  ",
"                      /.C.K K K b.b.yXG G a d f q.pXa U d c b.b.~ N C aXrXsX                    ",
"                        , b.b.b.a.a.` H dXf l z pXg.l M z b.4.C C pX&.iX                        ",
"                          l.a.a.a.a.` ! H x F N fXS.F N V J G J aXrXtX                          ",
"                            , a.a.a.gX! ! B C G fXhXC G H ! jX&.iX                              ",
"                              l.a.a.k.Z.L.! H ! kXN.Y ! L.P.rXtX                                ",
"                                l.a.k.L.L.gXlXL.zXQ.L.xX&.iX                                    ",
"                                  l.k.n.cX    vX'.Q.,XbXtX                                      ",
"                                  o uX-X        h &.iX                                          ",
"                                                  -X                                            ",
"                                                                                                ",
"                                                                                                "};
