/* XPM */
static const char *xpmCabinetOpen16x16[] = {
/* columns rows colors chars-per-pixel */
"16 16 116 2",
"   c #0d7c0f",
".  c #0d7e10",
"X  c #1d7a1c",
"o  c #336c2d",
"O  c #32762b",
"+  c #337e2d",
"@  c #07870f",
"#  c #028a0c",
"$  c #0d8314",
"%  c #0b9312",
"&  c #148e16",
"*  c #19831b",
"=  c #1b8e1a",
"-  c #1f911e",
";  c #1e9e1f",
":  c #2f8f28",
">  c #279a28",
",  c #2b9529",
"<  c #2a9e25",
"1  c #2b9828",
"2  c #36832e",
"3  c #368b2d",
"4  c #3c8235",
"5  c #3e8e35",
"6  c #37952c",
"7  c #379a2c",
"8  c #399d2e",
"9  c #3f9636",
"0  c #25a724",
"q  c #2da529",
"w  c #2cad2b",
"e  c #2fb32c",
"r  c #36a52c",
"t  c #39a62d",
"y  c #39a82d",
"u  c #35a834",
"i  c #3bab37",
"p  c #33b62d",
"a  c #35b92e",
"s  c #3ab22c",
"d  c #3cba2e",
"f  c #34b532",
"g  c #33ba33",
"h  c #3fb133",
"j  c #38bd35",
"k  c #3dc02f",
"l  c #3fc231",
"z  c #3dc239",
"x  c #46943d",
"c  c #419c37",
"v  c #429e38",
"b  c #45a23d",
"n  c #42a836",
"m  c #42a93d",
"M  c #49a03f",
"N  c #4aae3f",
"B  c #4e9247",
"V  c #4f9048",
"C  c #5d9d56",
"Z  c #48a443",
"A  c #4eb243",
"S  c #56a84d",
"D  c #50ba45",
"F  c #54bd48",
"G  c #40c332",
"H  c #44c73f",
"J  c #46c938",
"K  c #4bc43e",
"L  c #4acc3e",
"P  c #4dd03f",
"I  c #46c743",
"U  c #46ca42",
"Y  c #49cb44",
"T  c #4ed140",
"R  c #52c046",
"E  c #52cd45",
"W  c #57cb4a",
"Q  c #5dc55b",
"!  c #5fcd53",
"~  c #51d443",
"^  c #51d64b",
"/  c #5add4c",
"(  c #5edf55",
")  c #65cb5a",
"_  c #62d456",
"`  c #67d05b",
"'  c #63dc55",
"]  c #69dc5d",
"[  c #6dcf63",
"{  c #62e554",
"}  c #67ea59",
"|  c #6be55e",
" . c #6aec5d",
".. c #6ee062",
"X. c #6ff261",
"o. c #74e667",
"O. c #70ec64",
"+. c #79ec6d",
"@. c #73f665",
"#. c #75f867",
"$. c #77fa69",
"%. c #7afd6c",
"&. c #7ffd71",
"*. c #86fc79",
"=. c #89fd7c",
"-. c #91fd85",
";. c #96fd8b",
":. c #9bfd91",
">. c #a1fd97",
",. c #a4fd9a",
"<. c #adfda5",
"1. c #b0fca7",
"2. c #b1fca8",
"3. c #bdfdb6",
"4. c #c1fdba",
"5. c None",
/* pixels */
"5.5.5.5.5.5.4.<.<.:.*.5.5.5.5.5.",
"5.5.5.2.<.<.>.-.&.@. .} } 5.5.5.",
"5.1.<.>.-.&.@. .{ / T J l K ~ 5.",
"5.3.-.@. .{ / ~ J k s y R | 5.5.",
"5.<.,.+.~ J k s r i ! ( I Y 5.5.",
"5.;.=.&.' r 7 A ] ^ z U  .j 5.5.",
"5.%.#.X.} ` O.U a z N 9 L e 5.5.",
"5.X.} { / ..z r 6 2 3 q w p 5.5.",
"} { / ~ L _ f + O , 0 Z C +.@.5.",
"/ ~ T J G W p 1 0 m B 4 5 H w 5.",
"P J G d s D a m B 4 O X   Q u # ",
"G d y t 8 N [ S O X   u o.) > # ",
"5.N 8 6 3 v W { & < E v t ; % 5.",
"5.5.M 4 + c i a = 8 2 - @ # 5.5.",
"5.5.5.x O 5 6 6 * X # # 5.5.5.5.",
"5.5.5.5.x v F o $ @ # 5.5.5.5.5."
};
