/* XPM */
static const char *xpmCabinetClosed22x22[] = {
/* columns rows colors chars-per-pixel */
"22 22 136 2",
"   c black",
".  c #081107",
"X  c #161c15",
"o  c #173913",
"O  c #1b3e17",
"+  c #1d3f19",
"@  c #1a4615",
"#  c #194e14",
"$  c #23511e",
"%  c #265321",
"&  c #324130",
"*  c #2d6a26",
"=  c #336d2d",
"-  c #34722d",
";  c #367c2e",
":  c #4b6348",
">  c #119715",
",  c #179619",
"<  c #139b16",
"1  c #169b19",
"2  c #189719",
"3  c #1a9d1b",
"4  c #1da01c",
"5  c #1fa620",
"6  c #20951e",
"7  c #259a23",
"8  c #36812e",
"9  c #358b2d",
"0  c #3d8f35",
"q  c #37932d",
"w  c #359a2c",
"e  c #38962d",
"r  c #389d2d",
"t  c #3a9431",
"y  c #3e9b34",
"u  c #20a31e",
"i  c #25a422",
"p  c #24a923",
"a  c #2da42a",
"s  c #28ad27",
"d  c #2bad29",
"f  c #2db22a",
"g  c #37a32b",
"h  c #37a92b",
"j  c #39a12d",
"k  c #39aa2c",
"l  c #3fa234",
"z  c #3fa833",
"x  c #31b52d",
"c  c #3ab22c",
"v  c #3abb2d",
"b  c #35bb33",
"n  c #3abe34",
"m  c #3bbf3a",
"M  c #3ec232",
"N  c #3dc239",
"B  c #409137",
"V  c #419937",
"C  c #459d3c",
"Z  c #42a736",
"A  c #44a43a",
"S  c #41ac36",
"D  c #46a93b",
"F  c #48a73d",
"G  c #48ad3d",
"H  c #41b734",
"J  c #46b339",
"K  c #40ba36",
"L  c #47ba3b",
"P  c #4bba3f",
"I  c #4ca442",
"U  c #50a746",
"Y  c #54aa4c",
"T  c #5da655",
"R  c #50b046",
"E  c #75b36e",
"W  c #7db977",
"Q  c #43c635",
"!  c #40c33d",
"~  c #46ca3b",
"^  c #4acd3d",
"/  c #4cce47",
"(  c #4ed140",
")  c #4ed149",
"_  c #51c445",
"`  c #55c349",
"'  c #58ce4b",
"]  c #51d443",
"[  c #50d44b",
"{  c #55d847",
"}  c #57da4a",
"|  c #5ad64d",
" . c #5add4c",
".. c #5ade52",
"X. c #5de04f",
"o. c #5de052",
"O. c #63ce58",
"+. c #60d753",
"@. c #67d25b",
"#. c #6bd65f",
"$. c #6fdc63",
"%. c #62e454",
"&. c #65e857",
"*. c #66e959",
"=. c #69e15c",
"-. c #6aed5c",
";. c #6ff161",
":. c #73e367",
">. c #70e964",
",. c #76ed6a",
"<. c #73f665",
"1. c #77f36a",
"2. c #76f968",
"3. c #79f36e",
"4. c #79fc6b",
"5. c #7df672",
"6. c #80fd72",
"7. c #85fd78",
"8. c #8afd7d",
"9. c #87c480",
"0. c #8ffd83",
"q. c #97eb8e",
"w. c #9ceb94",
"e. c #91fc85",
"r. c #94fd88",
"t. c #99fd8e",
"y. c #9cfd91",
"u. c #a1fd97",
"i. c #a6fd9c",
"p. c #a8fc9f",
"a. c #affda6",
"s. c #b7fdb0",
"d. c #befdb7",
"f. c #c3fdbd",
"g. c white",
"h. c None",
/* pixels */
"h.h.h.h.h.h.h.      : 9.q.T       h.h.h.h.h.",
"h.h.h.h.      & W w.u.r.7.4.=.%     h.h.h.h.",
"h.h.    X E w.i.t.8.4.<.-.&.X.} G       h.h.",
"h.h.  w.i.y.0.5.2.;.*.%. .] ~ Q v H 8   h.h.",
"h.h.  f.r.4.<.-.%.X.] ^ Q M c h z O.Y   h.h.",
"h.h.  f.f.,. .{ ( Q M v k g Z @.5.4.U   h.h.",
"h.h.  d.s.a.| Q M c g w A #.4.) b N I   h.h.",
"h.h.  a.i.y.e.L w q D $.1.) n [  .b I   h.h.",
"h.h.  t.e.7.4.1.R :.;./ m ..+.D M f C   h.h.",
"h.h.  7.4.<.;.-.1.) ! o.%.D 8 r a x C   h.h.",
"h.h.. <.;.-.%.X.>.N } L 8 q a s f x V   h.h.",
"h.h.+ -.%.X.} ] =.n M g w a x d p 3 t   h.h.",
"h.h.O  .} ] ^ Q +.x w a d s 3 N -.< q   h.h.",
"h.h.o ] ^ Q M v ' x p s 3 n &.` ` > 9   h.h.",
"h.h.@ Q M v c k _ ^ 4 f ..| t A s 3 8   h.h.",
"h.h.# v c k j w R p /  .A 0 K 1 i *     h.h.",
"h.h.  8 r e 9 9 J u M ( S p 2 w       h.h.h.",
"h.h.    - 9 8 ; Z 3 x v 1 7 $     h.h.h.h.h.",
"h.h.h.    = - - l 2 u , 9       h.h.h.h.h.h.",
"h.h.h.h.    = = y 6 7 O     h.h.h.h.h.h.h.h.",
"h.h.h.h.h.    - V ;       h.h.h.h.h.h.h.h.h.",
"h.h.h.h.h.h.          h.h.h.h.h.h.h.h.h.h.h."
};
