/* XPM */
static char * CabinetOpen48x48_xpm[] = {
"48 48 238 2",
"  	c none",
". 	c #29243B272724",
"X 	c #32264A483025",
"o 	c #0C0114020B01",
"O 	c #6B6D9992656C",
"+ 	c #9291D9DA8B90",
"@ 	c #9B92FBFE9191",
"# 	c #9892FBFE8E91",
"$ 	c #716DCCD8676C",
"% 	c #5B4B8490564A",
"& 	c #8590CAD87F6F",
"* 	c #9D93F5FD9391",
"= 	c #9592FCFE8A90",
"- 	c #9091FCFE8490",
"; 	c #8990FCFE7E6F",
": 	c #8590FCFE796E",
"> 	c #7A6EF4FD6C6D",
", 	c #3A277D6F3226",
"< 	c #3E275C4B3B27",
"1 	c #7E6FC0D7776E",
"2 	c #8C91FCFE818F",
"3 	c #7F6FFCFE716D",
"4 	c #7A6EFBFE6C6D",
"5 	c #766EF8FE686C",
"6 	c #726DF4FD646C",
"7 	c #616BD3D9554A",
"8 	c #0E0120230C01",
"9 	c #28244F492324",
"0 	c #786EBAB6726D",
"q 	c #9291F0FD8990",
"w 	c #6E6DF0FD616B",
"e 	c #6A6CECFC5C4B",
"r 	c #676CE9FC594A",
"t 	c #656CE7FC574A",
"y 	c #626BE4FB544A",
"u 	c #424892913926",
"i 	c #1B0328241A03",
"p 	c #736DB2B56C6D",
"a 	c #8C91EBFC8490",
"s 	c #5F4BE1FB5149",
"d 	c #5A4ADCDA4C49",
"f 	c #574AD9DA4948",
"g 	c #554AD7DA4748",
"h 	c #554AD2D94A48",
"j 	c #1E0345481A03",
"k 	c #6A6CAEB5636C",
"l 	c #818FFCFE746E",
"z 	c #6D6DEFFD5F4B",
"x 	c #5249D3D94448",
"c 	c #4A48CCD83C27",
"v 	c #4648C8D83826",
"b 	c #4548A9B43A27",
"n 	c #4E49776E4848",
"m 	c #9191EDFC8790",
"M 	c #5D4BDFDB4F49",
"N 	c #4E49D1D94147",
"B 	c #4D49CFD93F27",
"V 	c #4248C4D73426",
"C 	c #3E27C1D73125",
"Z 	c #3D27BFB72F25",
"A 	c #3A27BAB62D25",
"S 	c #2E25726D2624",
"D 	c #616B8D915D4B",
"F 	c #BEB7FCFEB8B6",
"G 	c #4548C7D83726",
"H 	c #3A27B2B52C25",
"J 	c #3926ABB42C25",
"K 	c #3726A9B42B25",
"L 	c #35267B6E2D25",
"P 	c #C3D7FCFEBCB6",
"I 	c #BAB6FCFEB3B5",
"U 	c #3726A2B32B25",
"Y 	c #3D27A9B43125",
"T 	c #5F4BCAD8534A",
"R 	c #7E6FF2FD716D",
"E 	c #6A6C9592656C",
"W 	c #B2B5FBFEABB4",
"Q 	c #3926A2B32D25",
"! 	c #3E27A1B33326",
"~ 	c #656CD2D9594A",
"^ 	c #808FF3FD766E",
"/ 	c #676C9091636C",
"( 	c #B0B5F4FDABB4",
") 	c #362699922B25",
"_ 	c #4248A4B33726",
"` 	c #6A6CD1D9606B",
"' 	c #766EF5FD686C",
"] 	c #A3B3F4FD9B92",
"[ 	c #6E6DD9DA636C",
"{ 	c #3B27C0D73A27",
"} 	c #786EA3B3736D",
"| 	c #B6B6FCFEAFB5",
" .	c #382695922D25",
"..	c #362692912C25",
"X.	c #4C49ADB54248",
"o.	c #756EE1FB6A6C",
"O.	c #3A27BEB73926",
"+.	c #0C0192911302",
"@.	c #4948B5B64D49",
"#.	c #4748CBD84248",
"$.	c #756EA3B3706D",
"%.	c #ABB4FCFEA2B3",
"&.	c #A4B3FCFE9A92",
"*.	c #838FE9FC796E",
"=.	c #36268A902C25",
"-.	c #5049B1B54548",
";.	c #786EE5FB6D6D",
":.	c #3626B9B63426",
">.	c #04008B900D01",
",.	c #4F49BBB65249",
"<.	c #5D4BC2D75E4B",
"1.	c #3926BCB63426",
"2.	c #716DA2B36C6D",
"3.	c #9F93FCFE9592",
"4.	c #726DDFDB666C",
"5.	c #564AB6B64B49",
"6.	c #7D6FECFC726D",
"7.	c #07008E911001",
"8.	c #5049C2D75049",
"9.	c #6D6DA2B3676C",
"0.	c #39268D912F25",
"q.	c #584ABAB64E49",
"w.	c #3226B5B63326",
"e.	c #4047C2D73E27",
"r.	c #636CE5FB584A",
"t.	c #5E4BC5D7534A",
"y.	c #838FF6FD786E",
"u.	c #2E25B2B52D25",
"i.	c #130295921A03",
"p.	c #4748C0D74748",
"a.	c #6D6DE7FC606B",
"s.	c #6D6DB2B5666C",
"d.	c #756EF7FE676C",
"f.	c #696CD4D95E4B",
"g.	c #2924ADB52A25",
"h.	c #5E4BD5D95149",
"j.	c #42488E913A27",
"k.	c #33266D6D2D25",
"l.	c #5E4BDDDA5149",
"z.	c #3125B5B62C25",
"x.	c #646CB3B55C4B",
"c.	c #2424A9B42424",
"v.	c #1A039D931B03",
"b.	c #4F49D3D94948",
"n.	c #4948B0B53E27",
"m.	c #776EEEFC6B6D",
"M.	c #3E2795923426",
"N.	c #3726746E3025",
"B.	c #5D4BBCB6534A",
"V.	c #736DEAFC666C",
"C.	c #4E49C9D84047",
"Z.	c #3426746E2D25",
"A.	c #3D279A923326",
"S.	c #4248BEB73426",
"D.	c #1A0396921A03",
"F.	c #5C4BB2B5544A",
"G.	c #3626828F2D25",
"H.	c #38269A922D25",
"J.	c #2B2592912524",
"K.	c #1C03A1B31E03",
"L.	c #564AC2D74A48",
"P.	c #5E4B9391594A",
"I.	c #9892EEFC8F91",
"U.	c #5249CCD84548",
"Y.	c #554AB7B64B49",
"T.	c #656CDBDA5B4B",
"R.	c #12028A901602",
"E.	c #584A9F934F49",
"W.	c #564A85905149",
"Q.	c #504985904B49",
"!.	c #4B4985904448",
"~.	c #160224241402",
"^.	c #534AB9B64748",
"/.	c #636CD9DA554A",
"(.	c #170289901802",
").	c #5249AEB54848",
"_.	c #504989904A48",
"`.	c #424884903A27",
"'.	c #3C27828F3526",
"].	c #4E49B5B64348",
"[.	c #0A018D911102",
"{.	c #1802828F1B03",
"}.	c #4E49BEB74348",
"|.	c #4B4991914348",
" X	c #2624A7B42A25",
".X	c #1B037D6F1B03",
"XX	c #2224A6B42224",
"oX	c #47489D933D27",
"OX	c #4648B1B53A27",
"+X	c #564ACDD84A48",
"@X	c #2A256F6D2224",
"#X	c #26246B6D1E03",
"$X	c #4147B5B64448",
"%X	c #4147AFB53526",
"&X	c #534AC4D74648",
"*X	c #4648B9B63A27",
"=X	c #3B278C913226",
"-X	c #1C03626B1502",
";X	c #17026C6D1302",
":X	c #2E25A5B43226",
">X	c #0C011D030A01",
",X	c #4B49C5D73E27",
"<X	c #2124666C1903",
"1X	c #1602646C1102",
"2X	c #0F01808F1302",
"3X	c #1C0399922224",
"4X	c #766EE2FB716D",
"5X	c #130237260F01",
"6X	c #8990DDDA808F",
"7X	c #17025D4B1001",
"8X	c #110285901602",
"9X	c #0F012F250B01",
"0X	c #4A48B8B63D27",
"qX	c #808FE9FC766E",
"wX	c #14025A4A0D01",
"eX	c #0C01716D0E01",
"rX	c #150239261102",
"tX	c #1402544A0D01",
"yX	c #0500828F0D01",
"uX	c #000029240300",
"iX	c #4248A9B43626",
"pX	c #404793913726",
"aX	c #0200746E0A01",
"sX	c #2A25ABB42624",
"dX	c #130295921602",
"fX	c #000032260400",
"gX	c #3E27B3B53125",
"hX	c #2324A8B41F03",
"jX	c #414799923726",
"kX	c #15029B921B03",
"lX	c #2A259A922524",
"zX	c #212495921F03",
"xX	c #23245E4B1D03",
"cX	c #21248C911F03",
"vX	c #29248D912424",
"bX	c #2E256A6C2824",
"nX	c #1D0349481802",
"mX	c #0D01796E1001",
"                                                                                                ",
"                                                    . X                                         ",
"                                              o O + @ # $                                       ",
"                                          % & * @ = - ; : > ,                                   ",
"                                    < 1 * @ = - 2 : 3 4 5 6 6 7 8                               ",
"                              9 0 q @ = - ; : 3 4 5 6 6 w e r t y u                             ",
"                        i p a @ = - ; : 3 4 5 6 6 w e r t y s d f g h j                         ",
"                  o k a @ = - ; : l 4 5 6 6 z e t t y y d f g g x c c v b                       ",
"              n m @ = - ; : 3 4 5 6 6 z z r t y s M f g g N B c v V C Z A V S                   ",
"              D F 2 : 3 4 5 6 6 z z r r y M M M g x N B c G V C Z A A H J K J L                 ",
"              O P I 4 6 6 z z r t t M M f x x B B c G V C Z A A H H J U Y T R                   ",
"              E P P W e r t y s M f f x B B c G V V Z A A H H K U Q ! ~ ^ : R                   ",
"              / P P P ( s M f g x B B c G V Z Z A A H J K U U ) _ ` : : l 3 '                   ",
"              / P P P F ] x N B c G V C Z A A H H K U U ) ) b [ : : l 4 { 5 6                   ",
"              } P P I | W q v G Z Z Z A H J K U U )  ...X.o.: l l 4 O.+.@.#.6                   ",
"              $.I | W W %.&.*.A A A J K U U ) )  .=.-.;.: l 4 5 :.>.,.( <.1.e                   ",
"              2.W %.%.&.3.@ = 4.K U U ) ) ..=...5.6.: 3 3 6 :.7.,.%.%.&.8.:.r                   ",
"              9.%.&.@ @ # - 2 l 7 ) ....=.0.q.R l l 3 w w.7.,.@ # = 2 l e.:.r.                  ",
"              p @ @ = - ; l l 4 5 t.=.0.t.y.l l 4 e u.i.p.2 : 3 4 ~ a.6 :.w.y                   ",
"              s.= 2 ; l 3 4 5 d.6 z f.y.: l 4 r.g.i.h 4 5 d.w h.j.k.l.y u.z.l.                  ",
"              x.; l 4 4 5 d.6 z e e ^ 4 4 z c.v.b.6 w e r h.u k., n.g N c.u.d                   ",
"              x.4 4 5 d.6 z e r t y m.4 6 >.N r y y d h M.k.N._ v G C v.+.x f                   ",
"              B.5 6 6 z e r t t s M V.6 t +.f f x C.M.k.Z.A.1.A H v.>.g.g x x                   ",
"              q.6 z e t t y s M d f a.6 y +.c G S.Z.k...H Y J D.7.c.x F.+ N x                   ",
"              5.e t t y s d f g x N a.a.l.+.A H Q G.Q H.H.J.+.K.N L.P.% F I.U.                  ",
"              Y.t y s d f g x x N c T.r d +.Q H. ...=.=.R.i.v U.E.W.Q.!.W %.q ~.                ",
"              ^.M d f g x x c c v G /.r.f 7.=.G.G.G.(.7.1.x )._.!.`.'.'.3.= - 6.9               ",
"              ].f g x N c c v G V C h.s b.[.Z.Z.{.>.c.N }.|.`.'.'.'.L '.2 : 5 :. X              ",
"              n.x N c c v V V C A A h.d N 7..X7.XXN C.oX`.'., L Z.L S L 4 1.>.,.7.              ",
"              OXc v v V C Z A H H J +Xf g +.K.c B b '.'.L L Z.S S @X#X.Xi.$X* @ >.              ",
"              %XG V C Z A A H J J Q &Xg x N N *X=XL Z.S S @X@X#X-X;XR.:Xa # - y.>.>X            ",
"              Y V A A H H J Q Q Q H.&Xx N ,XM.Z.S S @X@X#X<X-X1X2X3X4X- : 3 4 6 >.5X            ",
"              K A H H J J Q Q H. ...}.c x 6XL @X#X#X<X<X7X1X8Xi.` : 3 4 6 T z r.>.9X            ",
"              ) J J J Q H. . . ...0.0Xv c = qXL -X7X7XwXeX[.*X3 4 d.w T.u N.s f >.rX            ",
"                 .Q H. . .....0.=.G.*XV v l 4 6 =.tXeX>.:.4 d.6 a.t X.N.N.].x C >.rX            ",
"                  .. ...0.0.G.G.G.L OXZ V d.6 r t [.g.V.6 e r t &X'.k.M.C.v K.yXuX              ",
"                    G.=.G.G.G.L L Z.iXA S.e t y :.u.z e t M h pXk.'.*XG z.>.aX                  ",
"                      '.G.L L L Z.Z.iXH H s f g u.sXs M f b Z.Z.! V A dXyXfX                    ",
"                        , Z.Z.Z.k.k._ J gXg x c sXc.x B c Z.0.A A sX>.aX                        ",
"                          N.k.k.k.k._ Q J v G V hXK.G V Z K H K dXyXuX                          ",
"                            , k.k.k.jXQ Q C A H hXkXA H J Q lX>.aX                              ",
"                              N.k.k.M.H. .Q J Q zXD.U Q  .R.yXuX                                ",
"                                N.k.M. . .jXxX .cX(. .vX>.aX                                    ",
"                                  N.M.A.bX    nX{.(.2XmXuX                                      ",
"                                  o pX>X        j >.aX                                          ",
"                                                  >X                                            ",
"                                                                                                ",
"                                                                                                "};
