/* XPM */
static const char *xpmCabinetOpen22x22[] = {
/* columns rows colors chars-per-pixel */
"22 22 146 2",
"   c black",
".  c #081107",
"X  c #161c15",
"o  c #173913",
"O  c #1a3c16",
"+  c #1d3f19",
"@  c #1a4615",
"#  c #194e14",
"$  c #14630f",
"%  c #1e6316",
"&  c #186b14",
"*  c #137c16",
"=  c #147f18",
"-  c #20441c",
";  c #265321",
":  c #324130",
">  c #24691d",
",  c #2a6f22",
"<  c #336d2d",
"1  c #33732c",
"2  c #357b2d",
"3  c #4b6348",
"4  c #07870f",
"5  c #03890c",
"6  c #0d8513",
"7  c #168419",
"8  c #188d1a",
"9  c #189618",
"0  c #1c9d1b",
"q  c #1f8220",
"w  c #248722",
"e  c #2c8f26",
"r  c #289724",
"t  c #2c932b",
"y  c #2d9d29",
"u  c #35832d",
"i  c #358b2c",
"p  c #3c8235",
"a  c #35932b",
"s  c #309a27",
"d  c #369c2b",
"f  c #38962d",
"g  c #389c2d",
"h  c #3d9d32",
"j  c #26a925",
"k  c #2ba629",
"l  c #29ab26",
"z  c #2bad29",
"x  c #2db42d",
"c  c #37a32b",
"v  c #37a92b",
"b  c #3aab2d",
"n  c #3ca436",
"m  c #3fa833",
"M  c #31b32e",
"N  c #39b32c",
"B  c #3bbb2d",
"V  c #34ba33",
"C  c #39bf36",
"Z  c #3fc231",
"A  c #458e3d",
"S  c #409637",
"D  c #419937",
"F  c #459e3b",
"G  c #41a436",
"H  c #44a339",
"J  c #40aa34",
"K  c #48a73d",
"L  c #48ad3d",
"P  c #41b734",
"I  c #46b339",
"U  c #44bb3a",
"Y  c #4bbb3f",
"T  c #4a9342",
"R  c #4ca442",
"E  c #45b640",
"W  c #49b341",
"Q  c #4cbf40",
"!  c #50a746",
"~  c #54a94b",
"^  c #5da655",
"/  c #50b046",
"(  c #61985c",
")  c #75b36e",
"_  c #7db977",
"`  c #43c535",
"'  c #40c539",
"]  c #45c93b",
"[  c #4cc53f",
"{  c #4acc3c",
"}  c #48cd43",
"|  c #4cd144",
" . c #4dd248",
".. c #51c445",
"X. c #58ce4b",
"o. c #51d444",
"O. c #52d24d",
"+. c #55d847",
"@. c #57da49",
"#. c #5ad64d",
"$. c #59dc4b",
"%. c #55d150",
"&. c #5ed351",
"*. c #5ed952",
"=. c #5de04f",
"-. c #63ce58",
";. c #60d753",
":. c #67d25b",
">. c #6bd65f",
",. c #6fdc63",
"<. c #62e454",
"1. c #65e857",
"2. c #67ea59",
"3. c #69e35c",
"4. c #69ec5b",
"5. c #6ff161",
"6. c #73e367",
"7. c #70e964",
"8. c #76ed6a",
"9. c #73f665",
"0. c #77f36a",
"q. c #76f968",
"w. c #79f36e",
"e. c #79fc6b",
"r. c #7df672",
"t. c #80fd72",
"y. c #85fd78",
"u. c #8afd7d",
"i. c #87c480",
"p. c #8efc83",
"a. c #97eb8e",
"s. c #9ceb94",
"d. c #91fc85",
"f. c #94fd88",
"g. c #99fd8e",
"h. c #9cfd91",
"j. c #a1fd97",
"k. c #a6fd9c",
"l. c #a8fc9f",
"z. c #adf6a5",
"x. c #affda6",
"c. c #b7fdb0",
"v. c #befdb7",
"b. c #c3fdbd",
"n. c white",
"m. c None",
/* pixels */
"m.m.m.m.m.m.m.      3 u.a.(       m.m.m.m.m.",
"m.m.m.m.      : _ s.j.d.y.8.>.;     m.m.m.m.",
"m.m.    X ) s.k.g.u.e.9.4.1.$.@.L       m.m.",
"m.m.  s.l.h.p.t.q.9.2.<.$.o.{ ` B P u   m.m.",
"m.m.  b.f.e.9.4.<.$.o.{ ` Z N v J -.~   m.m.",
"m.m.  b.b.8.$.+.| ] Z B b c J :.r.e.!   m.m.",
"m.m.  v.c.x.#.` B N c d H >.w. .V C R   m.m.",
"m.m.  x.k.h.d.U c a K ,.q.| V ] | V R   m.m.",
"m.m.  h.p.y.e.0./ 6.5.} C } ] h N x F   m.m.",
"m.m.  y.e.q.5.4.w.| Z Z Z f 2 a k M F   m.m.",
"m.m.. q.5.4.<.=.7.Z N g 2 u y j E #.h   m.m.",
"m.m.@ 2.<.=.@.o.>.V s u i k M ~ ( z.~   m.m.",
"m.m.O =.$.o.{ ` *.M u y z W T 2 T p.O.F m.m.",
"m.m.o o.{ ` Z B %.M j C h 2 1 , w x O.k m.m.",
"m.m.@ ` Z B N b .. .h 1 , , & * n 9.' 0 m.m.",
"m.m.# B b b g f W -.h % $ * t 3.*.H l 8 m.m.",
"m.m.  u g f i i I [ $.r 7 *.<.H u s 5 6 m.m.",
"m.m.    1 i u 2 J b ` 9 <.Q u a 8 4 5 m.m.m.",
"m.m.m.    < 1 < n a d 8 P g t 5 5 m.m.m.m.m.",
"m.m.m.m.    < < h i 2 = a 7 4 5 m.m.m.m.m.m.",
"m.m.m.m.m.    1 D 2 - = 5 5 m.m.m.m.m.m.m.m.",
"m.m.m.m.m.m.          6 5 m.m.m.m.m.m.m.m.m."
};
