/* XPM */
static char * CabinetClosed48x48_xpm[] = {
"48 48 195 2",
"  	c none",
". 	c #29243B272724",
"X 	c #32264A483025",
"o 	c #0C0114020B01",
"O 	c #6B6D9992656C",
"+ 	c #8F91D9DA8790",
"@ 	c #9B92FBFE9191",
"# 	c #9892FBFE8E91",
"$ 	c #716DCCD8676C",
"% 	c #594A828F544A",
"& 	c #8590CAD87F6F",
"* 	c #9592FCFE8A90",
"= 	c #9091FCFE8490",
"- 	c #8C91FCFE818F",
"; 	c #8590FCFE796E",
": 	c #7A6EF4FD6C6D",
"> 	c #3A277C6F3226",
", 	c #3E275C4B3B27",
"< 	c #7E6FC0D7776E",
"1 	c #9D93F5FD9391",
"2 	c #7F6FFCFE716D",
"3 	c #7A6EFBFE6C6D",
"4 	c #766EF8FE686C",
"5 	c #726DF4FD646C",
"6 	c #616BD3D9554A",
"7 	c #0E0120230C01",
"8 	c #2A253E272824",
"9 	c #786EBAB6726D",
"0 	c #9391EFFD8A90",
"q 	c #8990FCFE7E6F",
"w 	c #818FFCFE746E",
"e 	c #6E6DF0FD616B",
"r 	c #6A6CECFC5C4B",
"t 	c #676CE9FC594A",
"y 	c #656CE7FC574A",
"u 	c #626BE4FB544A",
"i 	c #404793913726",
"p 	c #1B0328241A03",
"a 	c #6F6DAFB5686C",
"s 	c #8F91EAFC8590",
"d 	c #5F4BE1FB5149",
"f 	c #5A4ADCDA4C49",
"g 	c #574AD9DA4A48",
"h 	c #554AD2D94A48",
"j 	c #1E0345481A03",
"k 	c #6D6DB2B5666C",
"l 	c #8B90E7FC818F",
"z 	c #554AD7DA4748",
"x 	c #5249D4D94448",
"c 	c #4A48CCD83C27",
"v 	c #4648C8D83826",
"b 	c #4548A8B43A27",
"n 	c #4E49776E4848",
"m 	c #9191EDFC8790",
"M 	c #6D6DEFFD5F4B",
"N 	c #5D4BDFDB4F49",
"B 	c #4D49CFD93F27",
"V 	c #4548C7D83726",
"C 	c #4248C4D73426",
"Z 	c #3A27BAB62D25",
"A 	c #2E25706D2624",
"S 	c #616B8D915D4B",
"D 	c #BEB7FCFEB8B6",
"F 	c #4E49D1D94248",
"G 	c #3F27C1D73125",
"H 	c #3D27BFB72F25",
"J 	c #3526B8B62A25",
"K 	c #3A27B2B52C25",
"L 	c #3926ABB42C25",
"P 	c #3426746E2D25",
"I 	c #C3D7FCFEBCB6",
"U 	c #BAB6FCFEB3B5",
"Y 	c #3626A2B32B25",
"T 	c #5F4BCAD8534A",
"R 	c #808FF3FD766E",
"E 	c #6A6C9592656C",
"W 	c #B2B5FBFEABB4",
"Q 	c #3E27A1B33326",
"! 	c #656CD2D9594A",
"~ 	c #838FF6FD786E",
"^ 	c #676C9091636C",
"/ 	c #B0B5F4FDABB4",
"( 	c #342699922B25",
") 	c #4248A9B43626",
"_ 	c #696CD4D95E4B",
"` 	c #766EF5FD686C",
"' 	c #A3B3F4FD9B92",
"] 	c #6E6DD9DA636C",
"[ 	c #3B27C0D73A27",
"{ 	c #786EA3B3736D",
"} 	c #B6B6FCFEAFB5",
"| 	c #4348BDB63526",
" .	c #382695922D25",
"..	c #362692912C25",
"X.	c #4948B0B53E27",
"o.	c #756EE1FB6A6C",
"O.	c #3926BBB63926",
"+.	c #0B0191911202",
"@.	c #4948B5B64D49",
"#.	c #4748CBD84248",
"$.	c #756EA3B3706D",
"%.	c #ABB4FBFEA2B3",
"&.	c #A4B3FCFE9A92",
"*.	c #8490E9FC7C6F",
"=.	c #5049B1B54548",
"-.	c #786EE5FB6D6D",
";.	c #05008C910E01",
":.	c #4F49BBB65249",
">.	c #5D4BC2D75E4B",
",.	c #716DA2B36C6D",
"<.	c #9F93FCFE9592",
"1.	c #726DDFDB666C",
"2.	c #3025AAB42724",
"3.	c #38269A922D25",
"4.	c #36268A902C25",
"5.	c #534AB9B64748",
"6.	c #554AC4D74948",
"7.	c #3526BAB63326",
"8.	c #6D6DA2B3676C",
"9.	c #39268D912F25",
"0.	c #584ABAB64E49",
"q.	c #6D6DE7FC606B",
"w.	c #3226B5B63326",
"e.	c #5049C2D75049",
"r.	c #4348C4D73B27",
"t.	c #636CE5FB584A",
"y.	c #736DB2B56C6D",
"u.	c #5E4BC5D7534A",
"i.	c #2D25B2B52D25",
"p.	c #120295921702",
"a.	c #4748C0D74748",
"s.	c #6B6DE2FB5E4B",
"d.	c #2824ADB52724",
"f.	c #42488E913A27",
"g.	c #33266D6D2D25",
"h.	c #5D4BDEDA5249",
"j.	c #646CB3B55C4B",
"k.	c #2524AAB42524",
"l.	c #1B03A0B31D03",
"z.	c #5C4BD2D94F49",
"x.	c #424892913926",
"c.	c #736DEAFC666C",
"v.	c #4147A3B33626",
"b.	c #756EF7FE676C",
"n.	c #414799923726",
"m.	c #3E279A923426",
"M.	c #3A27BDB63326",
"N.	c #1A039D931C03",
"B.	c #2124A5B42224",
"V.	c #1E03A0B32124",
"C.	c #564AB6B64B49",
"Z.	c #3926A2B32D25",
"A.	c #3626828F2D25",
"S.	c #2B2592912524",
"D.	c #0A018C911102",
"F.	c #4C49CCD84047",
"G.	c #554AB7B64B49",
"H.	c #666CDEDA594A",
"J.	c #2F258B902824",
"K.	c #14028C911702",
"L.	c #15029A921B03",
"P.	c #4047B4B54348",
"I.	c #636CD9DA554A",
"U.	c #170289901903",
"Y.	c #2A25A6B42E25",
"T.	c #4E49B5B64348",
"R.	c #5E4BD5D95149",
"E.	c #4F49D3D94948",
"W.	c #1802828F1B03",
"Q.	c #6E6DDCDA6A6C",
"!.	c #4248BDB64248",
"~.	c #4648B1B53A27",
"^.	c #564ACDD84A48",
"/.	c #3726746E3025",
"(.	c #4248B2B53526",
").	c #120299921702",
"_.	c #4C49ADB54248",
"`.	c #3E27A9B43226",
"'.	c #534AC4D74648",
"].	c #4D49BDB64147",
"[.	c #4548B9B63926",
"{.	c #1A0395921A03",
"}.	c #35267C6F2D25",
"|.	c #4A48B8B63D27",
" X	c #2D256A6C2624",
".X	c #3E2795923426",
"XX	c #090114020700",
"oX	c #2E259B922724",
"OX	c #232452491E03",
"+X	c #05000C010400",
"@X	c #3826828F2F25",
"#X	c #14022E251202",
"$X	c #19038E911A03",
"%X	c #0D011D030B01",
"&X	c #2E256A6C2824",
"                                                                                                ",
"                                                    . X                                         ",
"                                              o O + @ # $                                       ",
"                                          % & @ @ * = - ; : >                                   ",
"                                    , < 1 @ * = - ; 2 3 4 5 5 6 7                               ",
"                              8 9 0 @ * = q ; w 3 4 5 5 e r t y u i                             ",
"                        p a s @ * = q ; 3 3 4 5 5 e r t y u d f g g h j                         ",
"                  o k l @ * = q ; w 3 4 5 5 e r y y u u f g z z x c c v b                       ",
"              n m @ * = q ; 3 3 4 5 5 M r t t u d N g z x x B c V V C Z Z C A                   ",
"              S D - ; 2 3 4 4 5 M r t y u d N f z x F B c V C G H Z J K L L L P                 ",
"              O I U 3 5 5 M M r t u d N f z B B B c V C C H Z J K L L Y L T R                   ",
"              E I I W r t y u d N f z z B B v C C C H Z J K K L Y Y Q ! ~ ; :                   ",
"              ^ I I I / d N g z B B B c C C C C Z J K L L Y Y ( ) _ ; ; w 2 `                   ",
"              ^ I I I D ' x F B c v V C C Z J K L L Y Y ( ( b ] ; w w 3 [ 4 5                   ",
"              { I I U } W 0 v C C C | J K L L Y Y (  ...X.o.; ; w 3 O.+.@.#.5                   ",
"              $.U } W W %.&.*.Z J K L L Y Y ( ( ....=.-.; w w 4 O.;.:./ >.O.r                   ",
"              ,.W W &.&.<.# * 1.2.Y Y 3.( ..4.4.5.R ; w 2 5 O.;.:.%.%.&.6.7.t                   ",
"              8.&.&.<.# * = q ; 6  ...4.4.9.0.R w w 3 q.w.+.e.@ # = - ; r.7.t.                  ",
"              y.<.# * = q ; w 3 ` u.4.9.u.~ w w w t i.p.a.- ; 2 3 ! s.5 7.w.u                   ",
"              k * = ; ; w 3 4 5 M M _ w w w 3 u d.p.h 3 4 4 e 6 f.g.h.u i.w.h.                  ",
"              j.; ; 3 3 4 5 5 M M t R w 4 M k.l.h 5 M r y z.x.g.> X.z F k.i.f                   ",
"              j.3 3 4 4 5 M r r t u c.w 5 ;.B t u u f h i P P v.v v C l.+.x g                   ",
"              j.4 5 5 M r r y u d N c.b.u p.f f x c n.g.P m.M.Z K N.;.d.z x h                   ",
"              0.e M r t y u d N f g q.5 d +.v C | P g...L L L N.;.B.x F k.V.x                   ",
"              C.r y y u d N g g x F s.M h.+.Z K Z.A.Z.3.3.S.D.l.F.x k.D.:.D.F.                  ",
"              G.y u N f g z x x F c H.t f +.Z.3. ...4.J.K.p.v x M.L.P.1 # ;.v                   ",
"              5.N f g z x B B c v V I.y g D.4.A.A.A.U.D.G x r.V.Y.*.@ = R ;.r.                  ",
"              T.g z x F B c V C C G R.d E.D.P P W.;.k.F c V.L.Q.= q 2 3 e D.C                   ",
"              X.x B c c V V C H Z Z z.f F D.W.;.B.F F k.;.!.; 2 3 ` T r u ;.|                   ",
"              ~.c v V C C Z Z K K L ^.g z D.N.c B k.D.O.2 3 4 e t.x./.u z ;.(.                  ",
"              (.V C C H Z K K L L Z.6.z F F F M.).i.e 4 5 e y _.g./.T.x G +.(.                  ",
"              `.G H Z K K L L Z.Z.3.'.F F V l.l.d e M t t.6.> g.n.c v l.+.Z.)                   ",
"              L K K K L L Z.Z.3. . .].c c ).E.M t y d h i g.> [.V J D.{.`.}.                    ",
"              ( K L Z.Z.3. . . ...4.|.v V +.g d f g b P g.Q C Z N.+.Y v.7                       ",
"                 .Z.3.3. .....4.A.A.|.C G +.B z F c P 9.Z Z d.+.{.`. X                          ",
"                  .X ...9.4.4.A.A.}.~.G H +.G V G H Z.K L {.D.( m.XX                            ",
"                    A.9.A.A.A.}.P P (.Z Z +.J Z K L Z.oXD.{.v.OX                                ",
"                    +X}.A.}.}.P P P ) K K D.Y Z.Z.3.U.D.oX.X+X                                  ",
"                      +X> P P P g.g.Q L L D.S...J.D.U.v.j                                       ",
"                          /.P g.g.g.Q L Z.D.J.U.D.oX@X                                          ",
"                            /.g.g.g.m.Z.Z.D.D.U.v.#X                                            ",
"                              /.g.g.m. . .$X( P                                                 ",
"                              +X/.g..X . .n.%X                                                  ",
"                                  /..Xm.&X                                                      ",
"                                  XXi %X                                                        ",
"                                                                                                ",
"                                                                                                ",
"                                                                                                "};
