/* XPM */
static const char *xpmCabinetOpen32x32[] = {
/* columns rows colors chars-per-pixel */
"32 32 199 2",
"   c black",
".  c #050a04",
"X  c #001702",
"o  c #001802",
"O  c #0b1c09",
"+  c #002203",
"@  c #0c2409",
"#  c #0e290b",
"$  c #11250e",
"%  c #132a11",
"&  c #163f12",
"*  c #1d3d19",
"=  c #2a3a28",
"-  c #015207",
";  c #154111",
":  c #194114",
">  c #1f411b",
",  c #047c0c",
"<  c #1c6414",
"1  c #214f1c",
"2  c #294726",
"3  c #3a5038",
"4  c #216b1a",
"5  c #21771e",
"6  c #2b6e23",
"7  c #2f6829",
"8  c #2b7124",
"9  c #2f7428",
"0  c #336d2d",
"q  c #35752e",
"w  c #357c2d",
"e  c #377630",
"r  c #3a7e32",
"t  c #567752",
"y  c #04860d",
"u  c #048b0d",
"i  c #0b8411",
"p  c #0d8c13",
"a  c #0d9314",
"s  c #128215",
"d  c #138c19",
"f  c #1a861b",
"g  c #198d1a",
"h  c #119615",
"j  c #119619",
"k  c #109817",
"l  c #149a1a",
"z  c #189119",
"x  c #199e1c",
"c  c #1d9a22",
"v  c #1aa01d",
"b  c #1ea123",
"n  c #268524",
"m  c #2a8925",
"M  c #2c9d25",
"N  c #36842d",
"B  c #378c2d",
"V  c #388d2f",
"C  c #3c8335",
"Z  c #3b8b32",
"A  c #37952d",
"S  c #369d2b",
"D  c #389c2d",
"F  c #3d9433",
"G  c #3d9b33",
"H  c #22a422",
"J  c #26a32c",
"K  c #26ab26",
"L  c #25a829",
"P  c #2eae25",
"I  c #29ac2c",
"U  c #2eaa32",
"Y  c #2eb52e",
"T  c #36a62a",
"R  c #33a829",
"E  c #39a32d",
"W  c #39ab2d",
"Q  c #31a636",
"!  c #32ae35",
"~  c #3fac32",
"^  c #30b428",
"/  c #3ab32c",
"(  c #3abb2c",
")  c #35b437",
"_  c #35ba34",
"`  c #3cb73e",
"'  c #3dbb32",
"]  c #3dc02f",
"[  c #3fc231",
"{  c #3bc139",
"}  c #418639",
"|  c #448d3c",
" . c #429439",
".. c #429f37",
"X. c #41a636",
"o. c #46a63c",
"O. c #40ac35",
"+. c #46ac3b",
"@. c #48a83e",
"#. c #46b23b",
"$. c #40bd33",
"%. c #4abb3d",
"&. c #488641",
"*. c #4f864a",
"=. c #568651",
"-. c #5d8658",
";. c #599652",
":. c #4da443",
">. c #47b54a",
",. c #4db442",
"<. c #4cbe42",
"1. c #48b84b",
"2. c #50bd44",
"3. c #56bd4b",
"4. c #5ab551",
"5. c #5bbb51",
"6. c #63865f",
"7. c #668b63",
"8. c #728670",
"9. c #66a65f",
"0. c #76a371",
"q. c #42c534",
"w. c #40c538",
"e. c #46c938",
"r. c #4ac73e",
"t. c #4acd3c",
"y. c #4dd03f",
"u. c #49cd40",
"i. c #4ed244",
"p. c #52c346",
"a. c #57c24b",
"s. c #5ac44f",
"d. c #5ace4e",
"f. c #5fcd53",
"g. c #51d444",
"h. c #52d64a",
"j. c #55d847",
"k. c #55d94a",
"l. c #58d74b",
"z. c #59dc4c",
"x. c #5dd450",
"c. c #5adb53",
"v. c #5de04f",
"b. c #5ee151",
"n. c #62cb56",
"m. c #64cd59",
"M. c #62dc56",
"N. c #6adf5e",
"B. c #7ec676",
"V. c #72d168",
"C. c #77de72",
"Z. c #7ada77",
"A. c #62e555",
"S. c #67ea59",
"D. c #69e45c",
"F. c #6bed5d",
"G. c #6feb63",
"H. c #6ff261",
"J. c #72e765",
"K. c #74e66a",
"L. c #70e863",
"P. c #76ee69",
"I. c #78eb6c",
"U. c #76e371",
"Y. c #7cef70",
"T. c #72f564",
"R. c #77f269",
"E. c #75f867",
"W. c #77fa69",
"Q. c #79fb6b",
"!. c #7ff472",
"~. c #7ffd71",
"^. c #84cd7c",
"/. c #82f675",
"(. c #81fc74",
"). c #87fd7b",
"_. c #88fd7c",
"`. c #87cd80",
"'. c #8ed187",
"]. c #98dc91",
"[. c #8efd83",
"{. c #91e488",
"}. c #96ef90",
"|. c #97f08e",
" X c #91fd85",
".X c #95f88b",
"XX c #99fd8e",
"oX c #9af091",
"OX c #a1f598",
"+X c #a1fd97",
"@X c #a4fb9a",
"#X c #a8fc9f",
"$X c #aefca5",
"%X c #b3fcac",
"&X c #bcfcb5",
"*X c #befbb8",
"=X c #c2fcbc",
"-X c white",
";X c None",
/* pixels */
";X;X;X;X;X;X;X;X;X;X;X;X;X                  ;X;X;X;X;X;X;X;X;X;X",
";X;X;X;X;X;X;X;X;X;X            0.].{.2         ;X;X;X;X;X;X;X;X",
";X;X;X;X;X;X;X            t '.@X+XXX X).5.          ;X;X;X;X;X;X",
";X;X;X;X            3 ^.OX+XXX X_.(.Q.T.H.D.7         ;X;X;X;X;X",
";X;X;X        = B.oX+XXX X).Q.W.T.H.F.S.A.v.z.<.O       ;X;X;X;X",
";X;X;X    ^.|.+XXX X).~.Q.T.T.F.S.A.v.k.j.g.t.e.e.B       ;X;X;X",
";X;X;X    &XXX_.~.Q.T.H.F.S.A.v.z.j.g.t.e.q.] ( / %.1       ;X;X",
";X;X;X    *X=X!.H.F.S.A.v.z.j.y.t.e.q.] ( / W %.K.(.        ;X;X",
";X;X;X    =X=X*XF.z.z.j.i.t.e.q.] ( / W T p.I.(.Q.W.        ;X;X",
";X;X;X    *X&X%X$Xl.t.e.[ ] ( / W T E a.Y.(.A.I l T.        ;X;X",
";X;X;X    %X$X#X+X.Xe.( / W T S D s./.(.c.L J Z.l b.        ;X;X",
";X;X;X    #X+XXX X)./.W E A G n./.(.h.b U C. X(.k z.        ;X;X",
";X;X;X    XX X).Q.W.T.J...m.).~.i.k ) K.(.G.3.A.a k.        ;X;X",
";X;X;X    _.~.W.T.T.F.S./.(.{ a ) G.E.S.:.e +.t.a i.        ;X;X",
";X;X;X    Q.T.T.F.S.A.b.P.A.x F.F.A.@.e G $.P a v j.        ;X;X",
";X;X;X    T.F.S.A.b.z.j.L.z.x z.<.e V / R h h <.V.i.        ;X;X",
";X;X;X    S.A.v.z.j.g.t.D.h.l q.E E S z a ' 9.8.$XN.        ;X;X",
";X;X;X    v.z.j.g.t.e.q.M.i.h S A g u K 4.7.7.-.[.~.:.      ;X;X",
";X;X;X    j.g.y.e.e.q.( l.t.p f u H p.;.=.*.&.| T._ a w     ;X;X",
";X;X;X  : y.t.q.q.( / W d.z.u x u.:.&.C C r w n j >.1.f     ;X;X",
";X;X;X  & q.q.( / W W E p.g.g.#.C C w w 9 5 d Q oX@X` f     ;X;X",
";X;X;X  ; ( / W W E A A 2.g.5.w q 8 6 < s c U.[./.R.^ ,     ;X;X",
";X;X;X  $ O.E E D A V B %.e.T.,.4 < i a c.Q.W.f.r f.K s     ;X;X",
";X;X;X    # D A B B N N #.q.S.A.M u _ H.F.M. .C p.K u       ;X;X",
";X;X;X      O Z N w w q O.' z.g.l i.A.z.o.q X.q.a , +       ;X;X",
";X;X;X;X      % r q q 0 X./ e.q.h q.t.F V ' x u -         ;X;X;X",
";X;X;X;X;X      $ e 0 0 X.E ( / a ^ ( W T p , X         ;X;X;X;X",
";X;X;X;X;X;X      % 0 0 G D S A p M D g y -         ;X;X;X;X;X;X",
";X;X;X;X;X;X;X      * q F G q 6 p m i , o         ;X;X;X;X;X;X;X",
";X;X;X;X;X;X;X;X      >  .$   . i y -         ;X;X;X;X;X;X;X;X;X",
";X;X;X;X;X;X;X;X;X              . .         ;X;X;X;X;X;X;X;X;X;X",
";X;X;X;X;X;X;X;X;X;X                    ;X;X;X;X;X;X;X;X;X;X;X;X"
};
