/* XPM */
static const char *xpmCBDViewer32x32[] = {
/* width height num_colors chars_per_pixel */
"    32    32       28            1",
/* colors */
". c #000000",
"# c #0c0c0c",
"a c #1c1c1c",
"b c #232323",
"c c #2b2b2b",
"d c #404040",
"e c #464646",
"f c #535353",
"g c #6c6c6c",
"h c #747474",
"i c #7d7d7d",
"j c #838383",
"k c #8d8d8d",
"l c #939393",
"m c #9c9c9c",
"n c #a4a4a4",
"o c #acacac",
"p c #b5b5b5",
"q c #bbbbbb",
"r c #c4c4c4",
"s c #cdcdcd",
"t c #d4d4d4",
"u c #dbdbdb",
"v c #e4e4e4",
"w c #ededed",
"x c #f4f4f4",
"y c #fdfdfd",
"z c none",
/* pixels */
"zzzzzzzzzzzzzzzzzzzzzzzzzzzzzzzz",
"zzzzzzzzzzzzzzzzzzzzzzzzzzzzzzzz",
"zzzzzzzzzzzzzzzzzzzzzzzzzzzzzzzz",
"zzzzzzzzzzzzzzzzzzzzzzzzzzzzzzzz",
"zzzzzzzzzzzzzzzzzzzzzzzzzzzzzzzz",
"zzzzzzzzzzzzzzzzzzzzzzzzzzzzzzzz",
"zzzzzzzzzzzzzzzzzzzzzzzzzzzzzzzz",
"zzzzzzzzzzzzzzz..wzzzzzzzzzzzzzz",
"zzzzzzzzzzzzz....ywrzzzzzzzzzzzz",
"zzzzzzzzzzz..#cb#ywsnhzzzzzzzzzz",
"zzzzzzzzzzz.aiqhdxurnjzzzzzzzzzz",
"zzzzzzzzzz.#fvxjdvtpmigzzzzzzzzz",
"zzzzzzzzzz.#fnleatqokggzzzzzzzzz",
"zzzzzzzzz...bdb#.roligggzzzzzzzz",
"zzzzzzzzz....#...omiggggzzzzzzzz",
"zzzzzzzzz........ljgggggzzzzzzzz",
"zzzzzzzzzz.......igggggzzzzzzzzz",
"zzzzzzzzzz.......ggggggzzzzzzzzz",
"zzzzzzzzzzz......gggggzzzzzzzzzz",
"zzzzzzzzzzz......gggggzzzzzzzzzz",
"zzzzzzzzzzzzz....gggzzzzzzzzzzzz",
"zzzzzzzzzzzzzzz..gzzzzzzzzzzzzzz",
"zzzzzzzzzzzzzzzzzzzzzzzzzzzzzzzz",
"zzzzzzzzzzzzzzzzzzzzzzzzzzzzzzzz",
"zzzzzzzzzzzzzzzzzzzzzzzzzzzzzzzz",
"zzzzzzzzzzzzzzzzzzzzzzzzzzzzzzzz",
"zzzzzzzzzzzzzzzzzzzzzzzzzzzzzzzz",
"zzzzzzzzzzzzzzzzzzzzzzzzzzzzzzzz",
"zzzzzzzzzzzzzzzzzzzzzzzzzzzzzzzz",
"zzzzzzzzzzzzzzzzzzzzzzzzzzzzzzzz",
"zzzzzzzzzzzzzzzzzzzzzzzzzzzzzzzz",
"zzzzzzzzzzzzzzzzzzzzzzzzzzzzzzzz"
};
