/* XPM */
static const char * xpmCheckMark[] = {
"13 16 25 1",
" 	c none",
".	c #E1F7E6F8F1FB",
"X	c #ADAABBAED9F5",
"o	c #E0F7E6F8F1FB",
"O	c #A4A8B4ACD5F4",
"+	c #CEF2D7F5E8F9",
"@	c #D9F5DFF7EDFA",
"#	c #AEAABCAED9F5",
"$	c #0000FFFF0000",
"%	c #9DA6AEAAD1F3",
"&	c #88A19DA6C7F1",
"*	c #B7ADC4F0DDF6",
"=	c #C8F1D2F3E5F8",
"-	c #0000809F0000",
";	c #A3A8B3ACD4F4",
":	c #92A4A5A8CCF2",
">	c #B1ABBFAFDBF6",
",	c #DDF6E3F8EFFB",
"<	c #DFF7E5F8F0FB",
"1	c #0000C0EF0000",
"2	c #B4ACC1EFDCF6",
"3	c #BEAEC9F1E1F7",
"4	c #B0ABBEAEDAF5",
"5	c #ACAABBAED8F5",
"6	c #8BA29FA7C9F1",
"             ",
"          .X ",
"         oO+@",
"         X#$ ",
"        %&$* ",
"       =--;  ",
"       $-$   ",
"      :--    ",
"  >, <1-2    ",
"31-1 $--     ",
"4---$--5     ",
" 6----1      ",
"  $---:      ",
"  o1--       ",
"   $-1       ",
"   *1$       "};
