/* XPM */
static const char * xpmCodeByDesign32x32[] = {
"32 35 148 2",
"  	c none",
". 	c #E0E078788080",
"X 	c #B0B078789090",
"o 	c #C0C010102020",
"O 	c #989810102020",
"+ 	c #D8D8B0B0C0C0",
"@ 	c #C8C800001010",
"# 	c #A0A008081010",
"$ 	c #D0D070708080",
"% 	c #C8C800000808",
"& 	c #C0C078788080",
"* 	c #C0C018183030",
"= 	c #A8A808081010",
"- 	c #A0A020203030",
"; 	c #D8D8B0B0B8B8",
": 	c #A0A008081818",
"> 	c #D0D0B0B0C0C0",
", 	c #C0C070708080",
"< 	c #B8B870708080",
"1 	c #C8C828283838",
"2 	c #B0B030304040",
"3 	c #B8B800001010",
"4 	c #989808081818",
"5 	c #F8F8E0E0E0E0",
"6 	c #B8B860607878",
"7 	c #D0D000000808",
"8 	c #A8A868687878",
"9 	c #F0F0E0E0E8E8",
"0 	c #989810102828",
"q 	c #C0C000000808",
"w 	c #D8D800000808",
"e 	c #B0B008081010",
"r 	c #B0B008080808",
"t 	c #B8B800000808",
"y 	c #D0D000001010",
"u 	c #B0B000000808",
"i 	c #808010102020",
"p 	c #C8C8B8B8C8C8",
"a 	c #787830304040",
"s 	c #808008081010",
"d 	c #909000000808",
"f 	c #606008081010",
"g 	c #808058585858",
"h 	c #D8D8C8C8D8D8",
"j 	c #F0F0F0F0F0F0",
"k 	c #989868687878",
"l 	c #707010101818",
"z 	c #707008081010",
"x 	c #888808080808",
"c 	c #484808081010",
"v 	c #505018181818",
"b 	c #808068687878",
"n 	c #C8C8A8A8B8B8",
"m 	c #686810102020",
"M 	c #686808081010",
"N 	c #787808081010",
"B 	c #A0A000000808",
"V 	c #505008081010",
"C 	c #404008081010",
"Z 	c #484810102020",
"A 	c #C0C0B0B0B0B0",
"S 	c #E8E8E0E0E0E0",
"D 	c #888840404848",
"F 	c #888808081010",
"G 	c #909008081010",
"H 	c #909070707070",
"J 	c #E0E0E0E0E0E0",
"K 	c #F8F8F0F0F0F0",
"L 	c #989870708080",
"P 	c #606008081818",
"I 	c #404008081818",
"U 	c #B8B8A8A8A8A8",
"Y 	c #B0B0A0A0B8B8",
"T 	c #888808081818",
"R 	c #989808081010",
"E 	c #787830303838",
"W 	c #B8B8B0B0C0C0",
"Q 	c #B0B000001818",
"! 	c #A8A800000808",
"~ 	c #B0B000001010",
"^ 	c #909000001818",
"/ 	c #C0C09898B0B0",
"( 	c #B8B89898B0B0",
") 	c #C8C850506868",
"_ 	c #D8D800001010",
"` 	c #585808081010",
"' 	c #B0B058586868",
"] 	c #A8A800001818",
"[ 	c #E0E0C8C8D0D0",
"{ 	c #585828283030",
"} 	c #C8C8C0C0C8C8",
"| 	c #D8D8B8B8C0C0",
" .	c #787820203030",
"..	c #989808080808",
"X.	c #989810103030",
"o.	c #989800000808",
"O.	c #707050506060",
"+.	c #D8D8D0D0E0E0",
"@.	c #F0F0E0E0E0E0",
"#.	c #A8A878787878",
"$.	c #C8C878788080",
"%.	c #D0D0C8C8D8D8",
"&.	c #585820202828",
"*.	c #A8A888889898",
"=.	c #B0B08888A0A0",
"-.	c #787820202020",
";.	c #D0D088889090",
":.	c #484818183030",
">.	c #D8D8D0D0D0D0",
",.	c #686818183030",
"<.	c #808008080808",
"1.	c #D0D0C8C8D0D0",
"2.	c #909010103030",
"3.	c #888868686868",
"4.	c #A0A060607070",
"5.	c #787810103838",
"6.	c #909028283838",
"7.	c #A8A89898A8A8",
"8.	c #B0B09898A8A8",
"9.	c #A0A028283030",
"0.	c #D0D0D0D0D0D0",
"q.	c #606060609090",
"w.	c #606060609898",
"e.	c #B0B0B0B0B0B0",
"r.	c #000000005050",
"t.	c #000000006060",
"y.	c #080808086868",
"u.	c #303030308080",
"i.	c #101010107070",
"p.	c #202020207878",
"a.	c #585858589898",
"s.	c #404040408888",
"d.	c #101010106868",
"f.	c #68686868A0A0",
"g.	c #505050509090",
"h.	c #282828288080",
"j.	c #78787878B0B0",
"k.	c #505050509898",
"l.	c #181818187070",
"z.	c #80808080B0B0",
"x.	c #383838388888",
"c.	c #484848489090",
"v.	c #78787878A8A8",
"b.	c #000000006868",
"n.	c #60606060A0A0",
"m.	c #88888888B8B8",
"M.	c #282828287878",
"N.	c #787878787878",
"                                                                ",
"                              . X                               ",
"                              o O                               ",
"                            + @ # +                             ",
"                            $ % # &                             ",
"                            * % = -                             ",
"                          ; @ % = : >                           ",
"                          , % % = = <                           ",
"                          1 % % = = 2                           ",
"                        > 3 % % = = 4 >                         ",
"    5 5 5 5 5 5 5 5 5 5 6 % 7 7 = = = 8 5 5 5 5 5 5 5 5 5 5     ",
"  9 0 q % 7 7 7 7 7 7 7 w 7 % % e r t % y 7 7 7 7 7 7 % u i 9   ",
"    p a s u % w w w w w w w 7 % t q % w w w w w 7 t d f g h     ",
"      j k l z x t 7 w w w w w 7 q % 7 w w w % d f c v b j       ",
"          n m M z N B q 7 w w w 7 7 w 7 t N V C C Z A           ",
"            S D M M M F e t 7 w w 7 u G z c C C H J             ",
"              K L P s B u q 7 q t # F s N c I U                 ",
"                  Y T e 7 w 7 B R u = F N E W                   ",
"                  S Q w 7 % F s s ! ~ = = ^ S                   ",
"                  / w w 7 B M z z s u r = = (                   ",
"                  ) w _ u ` c C f N F u = = '                   ",
"                K ] 7 3 ` c C I ` M N G u = ^ j                 ",
"                [ % % z C C { } |  .z s ..e = [                 ",
"                X.% o.c C O.+.    @.#.M N # = $.                ",
"              %.% ! c &.*.            =.-.z # O                 ",
"              ;.% f :.>.                [ ,.<.u 1.              ",
"              2.f 3.                        4.s 5.              ",
"              6.7.                            8.9.              ",
"        0.q.w.w.w.w.w.w.w.w.w.w.w.w.w.w.w.w.w.w.w.w.q.0.        ",
"        e.r.t.t.t.t.y.u.y.t.i.u.t.t.y.u.p.t.t.t.t.t.r.e.        ",
"        e.r.t.t.t.y.a.s.d.t.f.g.a.t.h.j.k.u.t.t.t.t.r.e.        ",
"        e.r.t.t.t.l.a.t.t.t.f.z.x.t.h.c.t.v.t.t.t.t.r.e.        ",
"        e.r.t.t.t.b.a.a.i.t.f.n.c.t.h.m.n.M.t.t.t.t.r.e.        ",
"        e.r.t.t.t.t.b.l.b.t.y.l.t.t.b.l.i.t.t.t.t.t.r.e.        ",
"        0.N.N.N.N.N.N.N.N.N.N.N.N.N.N.N.N.N.N.N.N.N.N.0.        "};
