/* XPM */
static const char *xpmCodeByDesign[]={
"68 74 21 1",
". c None",
"q c #000000",
"r c #000065",
"h c #220457",
"a c #3d0447",
"m c #470d11",
"d c #650032",
"n c #6d0b10",
"l c #870a10",
"b c #900428",
"p c #980000",
"c c #a40810",
"g c #ac0910",
"f c #b60419",
"j c #b7080f",
"k c #bd2321",
"e c #c5020e",
"# c #ce000d",
"i c #dc000e",
"o c #dc0d0c",
"s c #ffffff",
"....................................................................",
"....................................................................",
".................................#a.................................",
".................................#b.................................",
"................................b#cd................................",
"................................e#cc................................",
"................................##cc................................",
"...............................d##ccd...............................",
"...............................f##ccc...............................",
"...............................###ccc...............................",
"..............................d###ccca..............................",
"..............................f###gggb..............................",
"..............................####gggg..............................",
".............................d####gggga.............................",
".............................f####ggggb.............................",
".............................#####gggcc.............................",
"............................a#####ggggga............................",
"............................f#####gggggb............................",
"............................######gggggg............................",
"...........................h######ggggggh...........................",
"...........................b######ggggggb...........................",
"...........................####i##gggggcc...........................",
"..........................h#####i#ggggggch..........................",
"....f##eeeeee############eii######ggggggjeik###################f....",
"....dl#iiiiiiiiiiiiiiiiiiiiii#####gjjjjee#iiiiiiiiiiiiiiiii##gmm....",
".....annl#iiiiiiiiiiiiiiiiiiii#i##jjjeee#iiiiiiiiiiiiiiii#gnmma.....",
"......hnnnn##iiiiiiiiiiiiiiiiii###jjeee##iiiiiiiiiiiii##nmmmm.......",
"........dnnnnn#eiiiiiiiiiiiiii####eeee##iiiiiiiiiii##nmmmmmm........",
".........annnnnnl#jiiiiioiiiiiii##eee###i#iiiiiii#nmmmmmmmh.........",
"...........nnnnnllll#iiiiiiiiiii#ie###iiiiiiii##mmmmmmmmm...........",
"............dnnnnnnnnl###iiiiiiiiiiei#iiiii##nmmmmmmmmmm............",
".............annnnnnnnnlc###iiiiiiiiiiii###nnmmmmmmmmmh.............",
"...............nnnnnnnnnlcgg###iiiiii###lllnnmmmmmmmm...............",
"................dnnnnnnllggggg##iiii##gllllnmmmmmmm.................",
".................hnnnnnlgggpgiii####gllllllnnmmmmm..................",
"...................annggpggii##i#pggggllllllnmmma...................",
"....................hnggggiiiiii#cggggggllnnnmmh....................",
".....................hgggiiiii##plll#gggklllln......................",
".....................aiiiiieiiclllllliggggccgga.....................",
".....................biiii###enlnllllgigggggggb.....................",
".....................#iiii###nnnllllllgejjggggg.....................",
"....................hiiiii###nnnnlnnnll#jjgggggh....................",
"....................b#iiii##nnmmmmnnnllljgggggcb....................",
"....................#iiii##nmmmmmmmnnlllgegggggg....................",
"...................h###ikinnmmmmmmmnnnlllgjgggcch...................",
"...................b####immmmmmmmmmnnnnlll#gggggb...................",
"...................###ii#mmmmmmmmhdnnnnnlll#ggggg...................",
"...................#####mmmmmmmm....dnnnllllegggc...................",
"..................d###inmmmmmma......nnnnnllgjgggd..................",
".................ae###cmmmmmmh.........nnnnllgggcc..................",
".................b####mmmmmm............dnnnnn#ggg..................",
".................e###mmmmma..............annnnnjggd.................",
"................h###nmmmm..................nnnnlggc.................",
"................b##jmmmm....................dnnn#gg.................",
"................e#immmh......................annn#ca................",
"...............h##mmm..........................nnngbh...............",
"...............dimmm............................dnccd...............",
"...............inmh..............................hn#j...............",
"...............la..................................nn...............",
"....................................................................",
"..........qrrrrrrrrrrrrrrrrrrrrrrrrrrrrrrrrrrrrrrrrrrrrrrq..........",
"..........qrrrrrrrrrrrrrrrrrrrrrrrrrrrrrrrrrrrrrrrrrrrrrrq..........",
"..........qrrrrrrrrrrrrrrrrrrrrrrrrrrrrrrrrrrrrrrrrrrrrrrq..........",
"..........qrrrrrrrrrrrrsssrrrrrsssrrrrrrssssrrrrrrrrrrrrrq..........",
"..........qrrrrrrrrrrrsrrrrrrrrsrrsrrrrrsrrrsrrrrrrrrrrrrq..........",
"..........qrrrrrrrrrrsrrrrrrrrrsrrsrrrrrsrrrrsrrrrrrrrrrrq..........",
"..........qrrrrrrrrrrsrrrrrrrrrsssrrrrrrsrrrrsrrrrrrrrrrrq..........",
"..........qrrrrrrrrrrsrrrrrrrrrsrrsrrrrrsrrrrsrrrrrrrrrrrq..........",
"..........qrrrrrrrrrrrsrrrrrrrrsrrsrrrrrsrrrsrrrrrrrrrrrrq..........",
"..........qrrrrrrrrrrrrsssrrrrrsssrrrrrrssssrrrrrrrrrrrrrq..........",
"..........qrrrrrrrrrrrrrrrrrrrrrrrrrrrrrrrrrrrrrrrrrrrrrrq..........",
"..........qrrrrrrrrrrrrrrrrrrrrrrrrrrrrrrrrrrrrrrrrrrrrrrq..........",
"..........qqqqqqqqqqqqqqqqqqqqqqqqqqqqqqqqqqqqqqqqqqqqqqqq..........",
"...................................................................."};
