/* XPM */
static const char * xpmCodeByDesign64[] = {
"64 64 96 2",
"  	c None",
". 	c #D9232C",
"+ 	c #CD242E",
"@ 	c #DB232C",
"# 	c #E0232B",
"$ 	c #C3262E",
"% 	c #D8232C",
"& 	c #ED2029",
"* 	c #E9212A",
"= 	c #D3232D",
"- 	c #CD242B",
"; 	c #B0282D",
"> 	c #A92A31",
", 	c #AD2931",
"' 	c #E5222A",
") 	c #CF242E",
"! 	c #E7212A",
"~ 	c #E72129",
"{ 	c #C7252C",
"] 	c #A7292E",
"^ 	c #8D2C30",
"/ 	c #872D30",
"( 	c #EC2029",
"_ 	c #E2232B",
": 	c #E1222B",
"< 	c #BE272F",
"[ 	c #D4242C",
"} 	c #EB2129",
"| 	c #D7232C",
"1 	c #D1242D",
"2 	c #EB2029",
"3 	c #E0222A",
"4 	c #C0262C",
"5 	c #E3222B",
"6 	c #9A2B2F",
"7 	c #B62830",
"8 	c #CF242D",
"9 	c #E4212A",
"0 	c #DC232C",
"a 	c #DD222C",
"b 	c #BD272F",
"c 	c #B2282E",
"d 	c #902C30",
"e 	c #B32930",
"f 	c #C8262E",
"g 	c #D9242C",
"h 	c #AE292E",
"i 	c #B02930",
"j 	c #CB242E",
"k 	c #C0262E",
"l 	c #A6292F",
"m 	c #CA262C",
"n 	c #B92730",
"o 	c #AE282F",
"p 	c #942B30",
"q 	c #CA262D",
"r 	c #DA242B",
"s 	c #C2262F",
"t 	c #C2252E",
"u 	c #9D2B2F",
"v 	c #AB2A31",
"w 	c #C9252E",
"x 	c #B9272D",
"y 	c #B22930",
"z 	c #CF252C",
"A 	c #BB2730",
"B 	c #922C2F",
"C 	c #C4262F",
"D 	c #A8292E",
"E 	c #AE2931",
"F 	c #BF272D",
"G 	c #B42830",
"H 	c #D5242C",
"I 	c #982B2F",
"J 	c #C6252F",
"K 	c #D8242B",
"L 	c #952B2F",
"M 	c #BF262F",
"N 	c #C2262D",
"O 	c #135F9D",
"P 	c #2269A3",
"Q 	c #6C9BC2",
"R 	c #3173A9",
"S 	c #4E87B6",
"T 	c #3F7DAF",
"U 	c #F0F5F9",
"V 	c #B5CDE0",
"W 	c #A7C3DA",
"X 	c #FFFFFF",
"Y 	c #89AFCE",
"Z 	c #E2EBF3",
"` 	c #C4D7E7",
" .	c #D3E1ED",
"..	c #7AA5C8",
"+.	c #98B9D4",
"@.	c #5D91BC",
"                                                                                                                                ",
"                                                                                                                                ",
"                                                                                                                                ",
"                                                                                                                                ",
"                                                                                                                                ",
"                                                              . +                                                               ",
"                                                              @ +                                                               ",
"                                                              @ +                                                               ",
"                                                            # @ + +                                                             ",
"                                                            # @ + +                                                             ",
"                                                            # @ + +                                                             ",
"                                                          # # @ + + +                                                           ",
"                                                          # # @ + + +                                                           ",
"                                                          # # @ + + +                                                           ",
"                                                        # # # @ + + + +                                                         ",
"                                                        # # # @ + + + +                                                         ",
"                                                        # # # @ + + + +                                                         ",
"                                                      # # # # @ + + + + +                                                       ",
"                                                      # # # # @ + + + + +                                                       ",
"                                                      # # # # @ + + + + +                                                       ",
"                    $ % & & & & & & & & & & & & & & * # # # # @ + + + + = & & & & & & & & & & & & & & & - ;                     ",
"                      > , $ % & & & & & & & & & & & & ' # # # @ + + + ) ! & & & & & & & & & & & ~ { ] ^ /                       ",
"                        > > > , $ % * & & & & & & & & ( _ # # @ + + + : & & & & & & & & & ~ { ] / / / /                         ",
"                            > > > > > < [ * & & & & & & } # # @ + + | & & & & & & & ~ { ] / / / / /                             ",
"                              > > > > > > > < [ * & & & & ! # @ + 1 2 & & & & 3 4 ] / / / / / / /                               ",
"                                > > > > > > > > > < [ * & & 5 @ + ! & & 3 4 6 / / / / / / / /                                   ",
"                                    > > > > > > > > > > 7 8 9 0 a 3 4 6 / / / / / / / / / /                                     ",
"                                      > > > > > > > > > > > > b c d / / / / / / / / / / /                                       ",
"                                          > > > > > > > e f g h i j k l d / / / / / /                                           ",
"                                            > > > e f g # # m / > n + + + k o p / /                                             ",
"                                              q g # # # # r ^ / > > s + + + + + t                                               ",
"                                              # # # # # # u / / > > v w + + + + +                                               ",
"                                            # # # # # # x / / / > > > y + + + + +                                               ",
"                                            # # # # # z / / / / > > > > A + + + + +                                             ",
"                                            # # # # r B / / / / > > > > > C + + + +                                             ",
"                                            # # # # D / / / / / > > > > > E j + + +                                             ",
"                                          # # # # F / / / / / / > > > > > > G + + + +                                           ",
"                                          # # # H ^ / / / / /     > > > > > > b + + +                                           ",
"                                          # # # I / / / / /         > > > > > v J + +                                           ",
"                                        # # # h / / / /                 > > > > i j + +                                         ",
"                                        # # m / / / /                     > > > > n + +                                         ",
"                                        # r ^ / /                           > > > > s +                                         ",
"                                      # # u / /                                 > > v w +                                       ",
"                                      # x / /                                     > > y +                                       ",
"                                      z /                                             > A                                       ",
"                                    K L                                                 > M                                     ",
"                                    N                                                     E                                     ",
"                                                                                                                                ",
"O O O O O O O O O O O O O O O O O O O O O O O O O O O O O O O O O O O O O O O O O O O O O O O O O O O O O O O O O O O O O O O O ",
"O O O O O O O O O O O O O O O O O O O O O O O O O O O O O O O O O O O O O O O O O O O O O O O O O O O O O O O O O O O O O O O O ",
"O O O O P Q Q R O O O O O O O O O R R O O O O O R S S S P O O O O O P S S S R O O O O O O O O O O O R R O O O O O O O O O O O O ",
"O O O T U V W X S O O O O O O O O Y Y O O O O O Y Z ` Z  .O O O O O S U ` ` X ..O O O O O O O O O O Q Q O O O O O O O O O O O O ",
"O O O  .Y O O Y +.O ..` ..O P ..W V Y P ..V Q O Y Y O O X @.Y O O ..Q ` O O S X P R +.W T O @.W +.P S S P Y W ..S Q ..V ..O O O ",
"O O O X T O O O O Y  .S  .Y +. .@.U Y +.` @. .Q Y ` +. .Z O Z @.R U S ` O O O Z S Z Y Q U S X @.V Y Y Y W ` @.U Y `  .Q U S O O ",
"O O O X T O O P P ` @.O @.` ` S O +.Y `  .` Z W Y ` Y +.U S +.W +.W S ` O O O Z ..X ` ` U S Z Z +.R Y Y ` S O +.Y ` Y O ` S O O ",
"O O O  .Y O O Y ` ` Q O @.` ` @.O W Y ` Y S Y Q Y Y O O  .Y R U Z T S ` O O S X S X @.S V T Q @.V ` Y Y ` @.O W Y ` Y O ` S O O ",
"O O O S U V W X S @.U Y U Q Q U +.X Y Y U Y U @.Y Z `  .U R O ` Z O S U ` ` X Q O  .` W U T U +. .W Y Y Q U V X Y ` Y O ` S O O ",
"O O O O R Q ..R O O T Y T O O S ..T R O T Y T O R S S S P O O W ..O P S S S R O O P Q ..R O R ..@.O R R Q Q S ` Q T R O T P O O ",
"O O O O O O O O O O O O O O O O O O O O O O O O O O O O O O ` U P O O O O O O O O O O O O O O O O O O O ..U  .Z P O O O O O O O ",
"O O O O O O O O O O O O O O O O O O O O O O O O O O O O O O R O O O O O O O O O O O O O O O O O O O O O O R S O O O O O O O O O ",
"                                                                                                                                ",
"                                                                                                                                ",
"                                                                                                                                ",
"                                                                                                                                "};
