/* XPM */
static char *Column_xpm[]={
"48 48 63 1",
". c None",
"o c #000000",
"# c #00ff00",
"x c #0a0a0a",
"l c #0d0d0d",
"B c #0f0f0f",
"P c #141414",
"w c #1b1b1b",
"v c #2a2a2a",
"J c #303030",
"k c #393939",
"A c #3d3d3d",
"4 c #414141",
"8 c #454545",
"u c #494949",
"3 c #4c4c4c",
"X c #505050",
"j c #5a5a5a",
"7 c #606060",
"r c #616161",
"W c #626262",
"2 c #6b6b6b",
"O c #6e6e6e",
"i c #737373",
"p c #777777",
"1 c #7a7a7a",
"V c #7b7b7b",
"a c #7e7d80",
"E c #7f7f7f",
"6 c #818181",
"h c #868686",
"m c #8b8b8b",
"N c #8c8c8c",
"g c #8e8e8e",
"z c #929292",
"f c #959595",
"0 c #979797",
"U c #989898",
"b c #999999",
"e c #9f9f9f",
"D c #a2a2a2",
"c c #a3a3a3",
"d c #a4a4a4",
"T c #a5a5a5",
"5 c #a7a7a7",
"M c #afafaf",
"H c #b4b4b4",
"S c #b5b5b5",
"Z c #b6b6b6",
"t c #b8b8b8",
"y c #b9b9b9",
"G c #c1c1c1",
"F c #c5c5c5",
"C c #c8c8c8",
"L c #d1d1d1",
"R c #d2d2d2",
"Y c #d7d7d7",
"q c #e2e2e2",
"s c #e6e6e6",
"Q c #ececec",
"I c #eeeeee",
"K c #f2f2f2",
"n c #ffffff",
"................................................",
"....................#########...................",
"....................#aaaaaaa#a..................",
"........bcdefggggggg#agggggg#agggggghijkl.......",
"........mnnnnnnnnnnn#annnnnn#annnnnnnnnno.......",
"........pnnnnnnnnnnn#annnnnn#annnnnnnnnqo.......",
"........rnnnnnnnnnnn#annnnnn#annnnnnnnsto.......",
"........unnnvwwwwwww#awwwwww#awwwwwwxqyzo.......",
"........AnnnBooooooo#aoooooo#aoooooooCDEo.......",
"........AnnnFGGGGGGG#aGGGGGG#aGGGGGGHCDEo.......",
"........Annnnnnnnnnn#annnnnn#annnnnnICDEo.......",
"........Annnnnnnnnnn#annnnnn#annnnnnICDEo.......",
"........Annnnnnnnnnn#annnnnn#annnnnnICDEo.......",
"........AnnnBooooooo#aoooooo#aoooooooCDEo.......",
"........AnnnBooooooo#aoooooo#aoooooooCDEo.......",
"........AnnnFGGGGGGG#aGGGGGG#aGGGGGGHCDEo.......",
"........Annnnnnnnnnn#annnnnn#annnnnnICDEo.......",
"........Annnnnnnnnnn#annnnnn#annnnnnICDEo.......",
"........Annnnnnnnnnn#annnnnn#annnnnnICDEo.......",
"........AnnnBooooooo#aoooooo#aoooooooCDEo.......",
"........AnnnBooooooo#aoooooo#aoooooooCDEo.......",
"........AnnnFGGGGGGG#aGGGGGG#aGGGGGGHCDEo.......",
"........Annnnnnnnnnn#annnnnn#annnnnnICDEo.......",
"........Annnnnnnnnnn#annnnnn#annnnnnICDEo.......",
"........Annnnnnnnnnn#annnnnn#annnnnnICDEo.......",
"........AnnnBooooooo#aoooooo#aoooooooCDEo.......",
"........AnnnBooooooo#aoooooo#aoooooooCDEo.......",
"........AnnnFGGGGGGG#aGGGGGG#aGGGGGGHCDEo.......",
"........Annnnnnnnnnn#annnnnn#annnnnnICDEo.......",
"........Annnnnnnnnnn#annnnnn#annnnnnICDEo.......",
"........Annnnnnnnnnn#annnnnn#annnnnnICDEo.......",
"........AnnnBooooooo#aoooooo#aoooooooCDEo.......",
"........AnnnBooooooo#aoooooo#aoooooooCDEo.......",
"........AnnnFGGGGGGG#aGGGGGG#aGGGGGGHCDEo.......",
"........Annnnnnnnnnn#annnnnn#annnnnnICDEo.......",
"........Annnnnnnnnnn#annnnnn#annnnnnICDEo.......",
"........Annnnnnnnnnn#annnnnn#annnnnnICDEo.......",
"........AnnnBooooooo#aoooooo#aoooooooCDEo.......",
"........AnnnBooooooo#aoooooo#aoooooooCDEo.......",
"........AnnnFGGGGGGG#aGGGGGG#aGGGGGGHCDEo.......",
"........JnnnKqqqqqqq#aqqqqqq#aqqqqqqLMNOo.......",
"........PnQRSTTTTTTT#aTTTTTT#aTTTTTTUVWXo.......",
"........oYZ012222222#a222222#a222222r344o.......",
"........o56784444444#a444444#a4444444444o.......",
"........oooooooooooo#aoooooo#aooooooooooo.......",
"....................#########a..................",
".....................aaaaaaaaa..................",
"................................................"};
