/* XPM */
static const char *xpmConnected16x16[]={
"16 16 79 2",
"Qt c None",
".b c #000000",
"#e c #00ff00",
"#l c #013301",
"#f c #014d01",
"#m c #018d01",
"#d c #019101",
".9 c #019301",
"#k c #019601",
"#g c #019701",
".1 c #019c01",
"#. c #01a101",
".Q c #01a501",
"#j c #01a701",
"#c c #01a901",
".4 c #01aa01",
".F c #01af01",
"#h c #01b001",
"#i c #01ba01",
".8 c #01bd01",
"## c #01c001",
".0 c #01c501",
".5 c #01c601",
".P c #01c901",
"#b c #01d001",
"#a c #01dc01",
".7 c #01e301",
".Z c #01e401",
".6 c #01e501",
".W c #02b502",
".X c #02c702",
".O c #02db02",
".Y c #02e002",
".v c #03be03",
".E c #04ca04",
".N c #06d706",
".M c #09cb09",
".c c #0a4848",
".u c #0ed40e",
".D c #0edb0e",
".C c #18e118",
".a c #216565",
".2 c #2b8485",
".L c #2c8789",
".B c #2d898a",
".V c #2e8c8d",
".3 c #2e8c8e",
".R c #2e8d8e",
".t c #309293",
".G c #319697",
".n c #329a9b",
".U c #339b9d",
".K c #349d9e",
".w c #349fa0",
".i c #36a3a5",
".S c #36a4a6",
".o c #38a9ab",
".T c #39aeaf",
".A c #3ab0b1",
".H c #3bb3b5",
".e c #3cb2b3",
".s c #3cb8b9",
".x c #3db9ba",
".p c #3db9bb",
".m c #3dbbbd",
".h c #3fbcbe",
".J c #40c2c4",
".j c #43bec0",
".I c #43cdcf",
".l c #44ccce",
".k c #45c9ca",
".q c #45d1d2",
".z c #46d4d5",
".r c #46d4d6",
".y c #46d5d7",
".# c #48dadc",
".d c #4ac6c8",
".g c #4ccdce",
".f c #55d3d4",
"QtQtQtQtQtQtQtQtQtQtQtQtQtQt.#.a",
"QtQtQtQtQtQtQt.b.bQtQtQtQt.#.a.c",
"QtQtQtQtQtQt.b.d.e.bQtQt.#.a.cQt",
"QtQtQtQtQt.b.f.g.h.i.b.#.a.cQtQt",
"QtQtQtQtQt.b.j.k.l.m.n.b.cQtQtQt",
"QtQtQt.b.b.b.o.p.q.r.s.t.bQtQtQt",
"QtQt.b.u.v.b.b.w.x.y.z.A.B.bQtQt",
"Qt.b.C.D.E.F.b.b.G.H.I.J.K.L.bQt",
"Qt.b.M.N.O.P.Q.b.b.R.S.T.U.V.bQt",
"Qt.b.W.X.Y.Z.0.1.b.b.2.V.3.bQtQt",
"QtQt.b.4.5.6.7.8.9.b.b.b.bQtQtQt",
"QtQtQt.b#.###a#b#c#d.bQtQtQtQtQt",
"QtQt#e#f.b#g#h#i#j#k.bQtQtQtQtQt",
"Qt#e#f#lQt.b#m#k#g.bQtQtQtQtQtQt",
"#e#f#lQtQtQt.b.b.bQtQtQtQtQtQtQt",
"#f#lQtQtQtQtQtQtQtQtQtQtQtQtQtQt"};

