/* XPM */
static char *Copy_xpm[]={
"48 48 128 2",
"Qt c None",
".f c #000000",
".R c #1a1a1a",
".S c #262726",
".T c #2b2d2b",
".e c #303030",
".d c #333333",
".c c #3a3a3a",
".b c #434343",
".a c #4b4c4b",
".# c #545454",
".G c #585958",
"#a c #58615a",
".x c #5b5b5b",
"#r c #5b665d",
".I c #5f5f5f",
".2 c #626362",
".t c #666666",
"#V c #71bd78",
".J c #737373",
"#3 c #767e77",
".q c #777877",
"#S c #7bbf81",
".F c #7c867d",
"#m c #7d7d7d",
"#s c #7e9080",
".w c #828382",
"#K c #82be87",
".M c #869588",
".p c #888888",
"#F c #8ac08e",
"#p c #8b948d",
".4 c #8f908f",
"#0 c #8fc393",
".3 c #919291",
"#d c #93bd97",
".7 c #96b69a",
".E c #97a59a",
".k c #999999",
"#Z c #99c49e",
".1 c #9bb29d",
"#T c #a2e3a8",
".H c #a5a6a5",
"#4 c #a6aca6",
"#Y c #a6c6a9",
"#R c #aae5b1",
".r c #acacac",
".j c #acb4ad",
".z c #adb0ae",
"#O c #b0ceb4",
"#Q c #b0e7b5",
".K c #b4b4b4",
"#G c #b4e8b9",
".i c #b5bbb6",
"#X c #b5c6b7",
"#t c #b8c9bb",
"#J c #b8e9be",
"#P c #badbbe",
"#E c #bbe6c1",
"#A c #bdeac3",
".s c #bebfbe",
"#I c #bec9c0",
"#D c #c0ecc5",
".L c #c1d4c4",
"#8 c #c1ebc5",
".h c #c2c2c2",
"#1 c #c2ccc3",
"#M c #c3ecc7",
".A c #c4c5c4",
"#l c #c4e5ca",
"#u c #c4eac8",
"#N c #c5dcc8",
"#7 c #c7ebcb",
"#C c #c7edcb",
".g c #c9c9c9",
"#H c #cad0cc",
"#q c #cadccc",
"#c c #cae4cd",
"#z c #caefcf",
"#W c #cbd6cd",
"## c #cbe8cf",
"#k c #ccebd0",
".u c #cdcdcd",
".0 c #cde0d0",
"#6 c #cdeed0",
".Q c #cfdcd1",
"#y c #cff0d2",
".B c #d0d1d0",
"#5 c #d0ecd4",
".6 c #d2ead5",
"#B c #d2f0d5",
"#x c #d3f0d8",
"#o c #d4d6d4",
".P c #d5e3d6",
"#9 c #d6e9d9",
"#b c #d6edd8",
".o c #d7d7d7",
"#w c #d7f2db",
"#2 c #d8eedb",
".D c #dadcda",
"#. c #daf1dd",
".Z c #dbebdd",
"#j c #dcf3e0",
".y c #dfe0df",
"#v c #dff3e1",
".n c #e1e4e2",
"#i c #e1f3e4",
".O c #e2f0e4",
"#U c #e3ede4",
"#h c #e3f5e5",
".Y c #e4f3e6",
".9 c #e6f5e8",
"#n c #e7e8e7",
"#L c #e7f6e9",
".5 c #e8f7ea",
".X c #e9f3ea",
"#g c #eaf8ec",
".v c #ececec",
".N c #eef8ee",
"#f c #eff9f0",
".W c #f1faf2",
".m c #f3f4f3",
".V c #f5fbf5",
".8 c #f9fcf9",
".C c #fafafa",
".U c #fbfcfb",
"#e c #fdfdfd",
".l c #ffffff",
"QtQtQtQtQtQtQtQtQtQtQtQtQtQtQtQtQtQtQtQtQtQtQtQtQtQtQtQtQtQtQtQtQtQtQtQtQtQtQtQtQtQtQtQtQtQtQtQt",
"QtQtQtQtQtQtQtQtQtQtQtQtQtQtQtQtQtQtQtQtQtQtQtQtQtQtQtQtQtQtQtQtQtQtQtQtQtQtQtQtQtQtQtQtQtQtQtQt",
"QtQtQtQtQtQtQtQtQtQtQtQtQtQtQtQtQtQtQtQtQtQtQtQtQtQtQtQtQtQtQtQtQtQtQtQtQtQtQtQtQtQtQtQtQtQtQtQt",
"QtQtQtQt.#.#.#.a.a.a.b.b.c.c.c.d.d.e.fQtQtQtQtQtQtQtQtQtQtQtQtQtQtQtQtQtQtQtQtQtQtQtQtQtQtQtQtQt",
"QtQtQtQt.#.g.g.g.g.g.g.g.g.g.h.i.j.k.b.fQtQtQtQtQtQtQtQtQtQtQtQtQtQtQtQtQtQtQtQtQtQtQtQtQtQtQtQt",
"QtQtQtQt.#.g.l.l.l.l.l.l.l.l.l.m.n.o.b.p.fQtQtQtQtQtQtQtQtQtQtQtQtQtQtQtQtQtQtQtQtQtQtQtQtQtQtQt",
"QtQtQtQt.#.g.l.l.l.l.l.l.l.l.l.l.m.n.a.g.p.fQtQtQtQtQtQtQtQtQtQtQtQtQtQtQtQtQtQtQtQtQtQtQtQtQtQt",
"QtQtQtQt.#.g.l.k.d.d.k.q.r.k.s.k.t.m.a.l.g.p.fQtQtQtQtQtQtQtQtQtQtQtQtQtQtQtQtQtQtQtQtQtQtQtQtQt",
"QtQtQtQt.#.g.l.l.l.l.l.l.l.l.l.l.l.l.#.l.l.g.p.fQtQtQtQtQtQtQtQtQtQtQtQtQtQtQtQtQtQtQtQtQtQtQtQt",
"QtQtQtQt.a.g.l.k.o.u.v.v.v.o.w.c.f.l.x.y.l.l.g.p.fQtQtQtQtQtQtQtQtQtQtQtQtQtQtQtQtQtQtQtQtQtQtQt",
"QtQtQtQt.a.g.l.l.l.l.l.l.l.l.l.l.l.l.t.g.y.l.l.g.p.fQtQtQtQtQtQtQtQtQtQtQtQtQtQtQtQtQtQtQtQtQtQt",
"QtQtQtQt.a.g.l.t.t.k.z.A.A.B.t.k.t.l.t.#.a.a.b.c.c.d.fQtQtQtQtQtQtQtQtQtQtQtQtQtQtQtQtQtQtQtQtQt",
"QtQtQtQt.a.g.l.l.l.l.l.l.l.l.l.l.l.l.C.D.B.i.E.F.q.G.fQtQtQtQtQtQtQtQtQtQtQtQtQtQtQtQtQtQtQtQtQt",
"QtQtQtQt.a.g.l.o.k.t.t.t.H.t.t.k.d.d.f.q.I.J.K.j.E.q.fQtQtQtQtQtQtQtQtQtQtQtQtQtQtQtQtQtQtQtQtQt",
"QtQtQtQt.a.g.l.l.l.l.l.l.l.l.l.l.l.l.l.C.m.n.D.L.j.M.fQtQtQtQtQtQtQtQtQtQtQtQtQtQtQtQtQtQtQtQtQt",
"QtQtQtQt.a.g.l.t.t.f.f.f.f.f.f.f.f.f.f.d.N.O.P.Q.L.E.f.R.R.S.S.T.T.T.fQtQtQtQtQtQtQtQtQtQtQtQtQt",
"QtQtQtQt.b.g.l.l.l.l.l.l.l.l.l.l.l.U.V.W.X.Y.Z.0.0.1.f.a.2.q.p.3.k.4.b.fQtQtQtQtQtQtQtQtQtQtQtQt",
"QtQtQtQt.b.g.l.A.t.d.d.t.t.q.t.t.d.4.W.N.5.O.Z.6.0.7.f.x.q.3.z.s.h.A.b.p.fQtQtQtQtQtQtQtQtQtQtQt",
"QtQtQtQt.b.g.l.l.l.l.l.l.l.l.l.8.V.W.N.5.9#..Z.6##.7.f.G.J.3.r.A.B.B.a.A.p.fQtQtQtQtQtQtQtQtQtQt",
"QtQtQtQt.b.g.l.t.i.k.t.d.t.t.d.d.e.f.f.f.f#a#b.6#c#d.f.G.J.4.r.A.o.y.a.C.g.p.fQtQtQtQtQtQtQtQtQt",
"QtQtQtQt.b.g.l.l.l.l.l.l#e.8.V#f#g#g#h#i#j#..6#k#l#d.f.S.a.##m.q.##n.#.C#e.g.p.fQtQtQtQtQtQtQtQt",
"QtQtQtQt.c.g.l#n.y#o.u.k.k.2.2#p#p#q.e.f#r#s#s#t#u#d.f.G.J.4.r.A.o#n.G.D#e.l.g.p.fQtQtQtQtQtQtQt",
"QtQtQtQt.c.g.l.l.l.l.U.8.W.W#g.5#h#v#j#w#x#y#z#u#A#d.f.a.t.q.G.T.f#n.I.h.y.l.l.g.p.fQtQtQtQtQtQt",
"QtQtQtQt.c.g.l.H.t.t.k.W#f#g.5#h#v#j#w#B#y#z#C#D#E#F.f.#.J.4.r.A.o#n.I.a.a.a.b.c.c.d.fQtQtQtQtQt",
"QtQtQtQt.c.g.l.l.U.V.V#f#g.5#h#v#.#w#B#y#z#C#D#A#G#F.f.b.G.J.b.q.##n.v#o#H.i.E.F.q.G.fQtQtQtQtQt",
"QtQtQtQt.c.g.l.t.w.B#I#p#p#p#v#.#w#B#y#z#C#D#A#J#G#K.f.#.J.4.r.A.o#n.m.m.n.D.g.j.E.q.fQtQtQtQtQt",
"QtQtQtQt.c.g.l.V.W.N#g#L#i#v#.#w#B#y#z#M#D#A#J#G#G#K.f.S.a.c.b.q.T.e.f.q.I.J.s.L.j.M.fQtQtQtQtQt",
"QtQtQtQt.c.g.8.n.f.f.f.e.0.0#N#N#O#N#P#P#A#J#G#Q#R#K.f.G.J.4.r.A.o#n.v.m.X.O.P.Q.L.E.fQtQtQtQtQt",
"QtQtQtQt.d.g.V.N.5.9#i#v#.#x#B#z#z#M#D#A#J#G#Q#R#R#S.f.f.f.f.f.f.f.f.f.e.Y.Y.Z.0.0.1.fQtQtQtQtQt",
"QtQtQtQt.d.g#f.Q#p.M#j#.#x#B#z#C#M#D#A#J#G#Q#R#R#T#S.f.x.q.3.r.A#o.n#U.X.9.O.Z.6.0.7.fQtQtQtQtQt",
"QtQtQtQt.d.g#g#h#i#j#.#x#y#z#C#M#D#A#J#G#Q#R#R#T#T#V.f.S.e.b.b.a.T.w#U.O.Y#..Z.6##.7.fQtQtQtQtQt",
"QtQtQtQt.d.g.5#i#j#w#x#y#z#C#D#D#A#J#G#Q#R#R#T#T#T#V.f.t.w.k.z.A#W.y.Z#U#v#j#b.6#c#d.fQtQtQtQtQt",
"QtQtQtQt.e#t#X#Y#Y#Y#Y#Z#Z#Z#0#0#F#F#K#K#S#S#V#V#V#V.f.R.c.b.S.S.T.f.f.f.f#a.6#k#l#d.fQtQtQtQtQt",
"QtQtQtQt.e.f.f.f.f.f.f.f.f.f.f.f.f.f.f.f.f.f.f.f.f.f.f#m.3.H.i#1#q.P.Z#2#x#x#y#k#u#d.fQtQtQtQtQt",
"QtQtQtQtQtQtQtQtQtQtQtQtQtQtQtQtQtQtQtQt.R.b.x.G.x.I.2.#.I.b.a#3.F#I.T.f#r#s#s#t#A#d.fQtQtQtQtQt",
"QtQtQtQtQtQtQtQtQtQtQtQtQtQtQtQtQtQtQtQt.R.x.q.q#m.p.4.k#4.i#I.L.0.6#5#5#6#z#C#D#E#F.fQtQtQtQtQt",
"QtQtQtQtQtQtQtQtQtQtQtQtQtQtQtQtQtQtQtQt.S.J.3.2.c.b.2.z.i#t.L#N#c#k#k#6#C#C#D#A#G#F.fQtQtQtQtQt",
"QtQtQtQtQtQtQtQtQtQtQtQtQtQtQtQtQtQtQtQt.S.p.r.r.z.j.i#X#I.L#W#q#c###k#C#7#D#A#J#G#K.fQtQtQtQtQt",
"QtQtQtQtQtQtQtQtQtQtQtQtQtQtQtQtQtQtQtQt.T.k.A.a.t#4.E#3#3.F#q#c###k#7#M#D#A#J#G#G#K.fQtQtQtQtQt",
"QtQtQtQtQtQtQtQtQtQtQtQtQtQtQtQtQtQtQtQt.e.r#o#W#W#W#q#q#q#c#c###u#7#8#8#A#J#G#Q#R#K.fQtQtQtQtQt",
"QtQtQtQtQtQtQtQtQtQtQtQtQtQtQtQtQtQtQtQt.e.K.y#H.f.f.f.T.L.L.L#P#O#P#P#P#J#G#Q#R#R#S.fQtQtQtQtQt",
"QtQtQtQtQtQtQtQtQtQtQtQtQtQtQtQtQtQtQtQt.e.s#U.Z.Z#9.6.6#k#k#7#u#8#A#A#J#G#Q#R#R#T#S.fQtQtQtQtQt",
"QtQtQtQtQtQtQtQtQtQtQtQtQtQtQtQtQtQtQtQt.d.h.Y#W#s#s#b#5#k#C#M#M#A#A#J#G#Q#R#R#T#T#V.fQtQtQtQtQt",
"QtQtQtQtQtQtQtQtQtQtQtQtQtQtQtQtQtQtQtQt.d.g.Y#v#.#x#B#6#z#C#8#D#A#J#G#Q#R#R#T#T#T#V.fQtQtQtQtQt",
"QtQtQtQtQtQtQtQtQtQtQtQtQtQtQtQtQtQtQtQt.e#X#X#Y#Y#Y#Y#Z#Z#Z#0#0#F#F#K#K#S#S#V#V#V#V.fQtQtQtQtQt",
"QtQtQtQtQtQtQtQtQtQtQtQtQtQtQtQtQtQtQtQt.e.f.f.f.f.f.f.f.f.f.f.f.f.f.f.f.f.f.f.f.f.f.fQtQtQtQtQt",
"QtQtQtQtQtQtQtQtQtQtQtQtQtQtQtQtQtQtQtQtQtQtQtQtQtQtQtQtQtQtQtQtQtQtQtQtQtQtQtQtQtQtQtQtQtQtQtQt",
"QtQtQtQtQtQtQtQtQtQtQtQtQtQtQtQtQtQtQtQtQtQtQtQtQtQtQtQtQtQtQtQtQtQtQtQtQtQtQtQtQtQtQtQtQtQtQtQt"};
