/* XPM */
static const char *xpmCut16x16[]={
"16 16 5 1",
". c None",
"# c #000000",
"c c #7f7f7f",
"b c #dbdbdb",
"a c #ffffff",
"................",
".####........##.",
"##..##......#ab#",
"##...##....#ab#.",
".##...#...#ab#..",
"..######.#ab#...",
"....#####ab#....",
"......##ab#.....",
"......#ab##.....",
"....#####cb#....",
"..######.#ab#...",
".##...#...#ab#..",
"##...##....#ab#.",
"##..##......#ab#",
".####........##.",
"................"};

