/* XPM */
static char *Cut_xpm[]={
"48 48 26 1",
". c None",
"b c #000000",
"f c #010101",
"m c #050505",
"l c #080808",
"# c #0c0c0c",
"g c #111111",
"p c #141414",
"c c #191919",
"u c #1e1e1e",
"e c #222222",
"d c #242424",
"n c #282828",
"t c #313131",
"k c #363636",
"v c #3b3b3b",
"x c #414141",
"o c #434343",
"q c #464646",
"a c #6d6d6d",
"j c #9f9f9f",
"h c #c2c2c2",
"s c #dadada",
"w c #fbfbfb",
"r c #fdfdfd",
"i c #ffffff",
"................................................",
"................................................",
".....####a......................................",
"....##bbbbc.....................................",
"...#de##bb#c....................................",
"..#fb#...bb##...................................",
"..cb#.....bb##..........................bbbbbb..",
"..gb#......bb#c.......................bbhhhijjb.",
"..#df.......bb#c.....................bhhiiiihjb.",
"..#kbb.......bl#c...................fhiiiiihjb..",
"...#gb#.......blmn.................bhiiiiihjb...",
"....#bb#.......bffo...............bhiiiiihjb....",
".....#fl#.......bf##.............bhiiiiihjb.....",
"......#bl#.......bb##...........bhiiiiihjb......",
".......#bm#.......bm##.........bhiiiiihjb.......",
"........##m#.......b##........bhiiiiihjb........",
".........#bb#.......##.......bhiiiiihjb.........",
"..........##m#......g#......bhiiiiihjb..........",
"...........##ml....###.....phiiiiihjb...........",
"............####..#b###...#hiiiiihjb............",
".............###########b#hiiiiihjb.............",
"..............######bbmqbiiriiihjb..............",
"................#####bbbiiiiiihjb...............",
"....................#bbii##iiijb................",
"....................s#biibbiiig.................",
"....................##bbiiiiibjb................",
"...............######bbbbiiibjhjb...............",
".............#########bbbbbbjhhhjb..............",
"............####..#bb#btbbbjhiiihjb.............",
"...........####....bbb#...bjhiiiihjb............",
"..........#ub#......###....bjhiiiihjb...........",
".........#mm#.......###.....bjhiiiihjb..........",
"........bbg#.......b##.......bjhiiiihjb.........",
".......bmk#.......bb##........bjhiiiihjb........",
"......bbv#.......bb##..........bjhiiwihjb.......",
".....bbt#.......fb##............bjhiwiihjb......",
"....bbx#.......#b##..............bjhiiiihjb.....",
"...bbc#.......ub##................bjhiiiihjb....",
"..#bb#.......m###..................bjhiiiihjb...",
"..#b#.......g###....................bjhiiiihjb..",
"..#b#......m###......................bjhiiiihjb.",
"..#b#.....b###........................bbjhiijjb.",
"..##b#...b###...........................bbbbbb..",
"...#bb######....................................",
"....#######.....................................",
".....#####......................................",
"................................................",
"................................................"};
