/* XPM */
static const char *xpmDatabaseInfo16x16[]={
"16 16 12 1",
". c None",
"# c #000000",
"i c #006800",
"g c #006900",
"h c #009600",
"f c #009700",
"e c #00c100",
"d c #00c200",
"j c #00e500",
"c c #00e600",
"a c #00ff00",
"b c #ffff00",
"....######......",
"..##aaaaaa##....",
".#aaaaaaaaaa#...",
".###aaaaaa###...",
".#aa######bbb#..",
".#aaaacd#bb#bb#.",
".#aaaace#bb#bb#.",
".#aaaacd####bb#.",
".#aaaacefg#bb#..",
".#aaaacdhi#b#...",
".#aaaacefi###...",
".#aaaacdh#bb#...",
".#aaaaceh#bb#...",
".#aaaajehg###...",
"..##aacehi##....",
"....######......"};

