/* XPM */
static char *DatabaseModify_xpm[]={
"48 48 124 2",
"Qt c None",
".# c #000000",
".d c #003700",
".b c #003800",
".c c #003b00",
".k c #003c00",
".S c #003f00",
".j c #004000",
".z c #004400",
".i c #004500",
".h c #004900",
".y c #004a00",
".R c #004f00",
".x c #005000",
".w c #005500",
".0 c #005600",
".6 c #005b00",
".v c #005c00",
".u c #006200",
"#4 c #006300",
".t c #006900",
".Q c #007000",
"#5 c #007100",
".P c #007700",
".Z c #007800",
".O c #007f00",
".4 c #008600",
".N c #008700",
".M c #008e00",
".L c #009500",
".Y c #009600",
".7 c #009d00",
".K c #009e00",
".J c #00a500",
".X c #00ac00",
".I c #00ad00",
".H c #00b400",
".3 c #00b500",
".W c #00bb00",
".G c #00bc00",
".2 c #00c200",
".F c #00c300",
".E c #00c900",
".V c #00ca00",
".D c #00d000",
".U c #00d100",
".s c #00d700",
".1 c #00d800",
".C c #00dd00",
".r c #00de00",
".T c #00e300",
".q c #00e400",
".p c #00e900",
".B c #00ea00",
".A c #00ee00",
".o c #00ef00",
".n c #00f300",
".g c #00f400",
".m c #00f700",
".f c #00f800",
".e c #00fb00",
".l c #00fc00",
".a c #00ff00",
"#p c #0d0d0d",
"#i c #121212",
".9 c #1f1f1f",
"#j c #393939",
"#t c #3c3c3c",
"#S c #414141",
".5 c #484848",
"#o c #4f4f4f",
"#R c #5c5c5c",
"#k c #666666",
"#Q c #6b6b6b",
"#P c #6d6d6d",
"#3 c #717171",
"#O c #757575",
"#n c #7a7a7a",
"#H c #808080",
"#l c #818181",
".8 c #838383",
"#r c #858585",
"#2 c #878787",
"#m c #8b8b8b",
"#N c #8d8d8d",
"#1 c #989898",
"#Y c #9b9b9b",
"#Z c #9c9c9c",
"#. c #9d9d9d",
"#q c #9e9e9e",
"#a c #a0a0a0",
"#v c #a2a2a2",
"#X c #a3a3a3",
"#T c #b1b1b1",
"#I c #b3b3b3",
"#G c #b4b4b4",
"#V c #bbbbbb",
"#c c #bcbcbc",
"#0 c #bdbdbd",
"#e c #c5c5c5",
"#s c #c8c8c8",
"#F c #cecece",
"#E c #cfcfcf",
"#D c #d2d2d2",
"#J c #d3d3d3",
"#w c #d8d8d8",
"#b c #dadada",
"#C c #dcdcdc",
"#M c #dddddd",
"#u c #e2e2e2",
"#x c #e3e3e3",
"#W c #e4e4e4",
"#h c #e6e6e6",
"#B c #e9e9e9",
"#U c #ececec",
"#K c #eeeeee",
"#y c #f1f1f1",
"#A c #f5f5f5",
"#L c #f6f6f6",
"#g c #f9f9f9",
"#z c #fbfbfb",
"#d c #fdfdfd",
"#f c #fefefe",
"## c #ffffff",
"QtQtQtQtQtQtQtQtQtQtQtQtQtQtQtQtQtQtQtQtQtQtQtQtQtQtQtQtQtQtQtQtQtQtQtQtQtQtQtQtQtQtQtQtQtQtQtQt",
"QtQtQtQtQtQtQtQtQtQtQtQtQtQtQtQtQtQtQtQtQtQtQtQtQtQtQtQtQtQtQtQtQtQtQtQtQtQtQtQtQtQtQtQtQtQtQtQt",
"QtQtQtQtQtQtQtQtQtQtQtQtQtQtQtQtQtQtQtQtQtQtQtQtQtQtQtQtQtQtQtQtQtQtQtQtQtQtQtQtQtQtQtQtQtQtQtQt",
"QtQtQtQtQtQtQtQtQtQtQtQtQt.#.#.#.#.#.#.#.#.#.#.#.#.#.#QtQtQtQtQtQtQtQtQtQtQtQtQtQtQtQtQtQtQtQtQt",
"QtQtQtQtQtQtQtQt.#.#.#.#.#.a.a.a.a.a.a.a.a.a.a.a.a.a.a.#.#.#.#.#QtQtQtQtQtQtQtQtQtQtQtQtQtQtQtQt",
"QtQtQtQtQt.#.#.#.a.a.a.a.a.a.a.a.a.a.a.a.a.a.a.a.a.a.a.a.a.a.a.a.#.#.#QtQtQtQtQtQtQtQtQtQtQtQtQt",
"QtQtQtQt.#.a.a.a.a.a.a.a.a.a.a.a.a.a.a.a.a.a.a.a.a.a.a.a.a.a.a.a.a.a.a.#QtQtQtQtQtQtQtQtQtQtQtQt",
"QtQtQt.#.a.a.a.a.a.a.a.a.a.a.a.a.a.a.a.a.a.a.a.a.a.a.a.a.a.a.a.a.a.a.a.a.#QtQtQtQtQtQtQtQtQtQtQt",
"QtQt.#.a.a.a.a.a.a.a.a.a.a.a.a.a.a.a.a.a.a.a.a.a.a.a.a.a.a.a.a.a.a.a.a.a.a.#QtQtQtQtQtQtQtQtQtQt",
"QtQt.#.a.a.a.a.a.a.a.a.a.a.a.a.a.a.a.a.a.a.a.a.a.a.a.a.a.a.a.a.a.a.a.a.a.a.#QtQtQtQtQtQtQtQtQtQt",
"QtQt.#.#.a.a.a.a.a.a.a.a.a.a.a.a.a.a.a.a.a.a.a.a.a.a.a.a.a.a.a.a.a.a.a.a.#.#QtQtQtQtQtQtQtQtQtQt",
"QtQt.#.a.#.a.a.a.a.a.a.a.a.a.a.a.a.a.a.a.a.a.a.a.a.a.a.a.a.a.a.a.a.a.a.#.b.#QtQtQtQtQtQtQtQtQtQt",
"QtQt.#.a.a.#.#.#.a.a.a.a.a.a.a.a.a.a.a.a.a.a.a.a.a.a.a.a.a.a.a.a.#.#.#.c.d.#QtQtQtQtQtQtQtQtQtQt",
"QtQt.#.a.a.e.f.g.#.#.#.#.#.a.a.a.a.a.a.a.a.a.a.a.a.a.a.#.#.#.#.#.h.i.j.k.d.#QtQtQtQtQtQtQtQtQtQt",
"QtQt.#.a.a.l.m.n.o.p.q.r.s.#.#.#.#.#.#.#.#.#.#.#.#.#.#.t.u.v.w.x.y.z.j.c.d.#QtQtQtQtQtQtQtQtQtQt",
"QtQt.#.a.a.l.m.g.A.B.q.C.s.D.E.F.G.H.I.J.K.L.M.N.O.P.Q.t.u.v.w.R.h.z.S.k.d.#QtQtQtQtQtQtQtQtQtQt",
"QtQt.#.a.a.e.f.g.o.p.T.r.s.U.V.F.W.H.X.J.K.Y.M.N.O.Z.Q.t.u.v.0.x.h.i.j.c.d.#QtQtQtQtQtQtQtQtQtQt",
"QtQt.#.a.a.l.m.n.A.B.q.r.1.U.V.2.W.3.I.J.K.Y.M.4.O.Z.Q.t.5.6.0.R.h.z.j.c.d.#QtQtQtQtQtQtQtQtQtQt",
"QtQt.#.a.a.l.f.n.o.p.q.C.s.D.V.F.G.H.I.J.7.Y.M.4.O.Z.Q.8.9.v.w.R.h.z.S.c.d.#QtQtQtQtQtQtQtQtQtQt",
"QtQt.#.a.a.e.f.n.o.B.q.C.s.U.V.F.W.H.I.J.7.L.M.N.O.P#.##.#.6.w.R.h.i.j.c.b.#QtQtQtQtQtQtQtQtQtQt",
"QtQt.#.a.a.e.f.n.A.p.T.C.s.U.V.F.G.H.I.J.7.Y.M.N.O#a####.#.v.w.R.y.z.S.c.b.#QtQtQtQtQtQtQtQtQtQt",
"QtQt.#.a.a.e.f.n.A.p.T.r.1.U.V.F.W.3.I.J.7.L.M.4#a#####b.#.6.w.x.h.i.S.k.b.#QtQtQtQtQtQtQtQtQtQt",
"QtQt.#.a.a.e.f.g.o.p.q.C.s.U.V.F.G.H.X.J.7.L.M#a#######c.#.6.w.R.y.z.S.c.d.#QtQtQtQtQtQtQtQtQtQt",
"QtQt.#.a.a.l.f.n.o.p.q.r.s.U.V.F.G.H.I.J.K.L#a#######d#e.#.6.w.x.y.i.S.c.d.#QtQtQtQtQtQtQtQtQtQt",
"QtQt.#.a.a.l.m.g.o.p.T.r.1.U.V.F.W.H.I.J.K#a#####f###g#h.#.v.w.x.y.z.S.k.d.#QtQtQtQtQtQtQtQtQtQt",
"QtQt.#.a.a.e.m.g.A.p.T.C.s.U.V.F.W.H.X.J#a###########f###i#j#k#l#m#m#m#m#m#m#m#m#m#m#m#n#o#pQtQt",
"QtQt.#.a.a.e.f.n.o.B.q.r.s.U.V.F.W.H.I#q##################################################.#QtQt",
"QtQt.#.a.a.l.f.g.o.p.T.r.1.U.V.F.G.H#r###################################################s.#QtQt",
"QtQt.#.a.a.l.f.n.o.p.T.r.s.U.V.F.W#t###################################################u#v.#QtQt",
"QtQt.#.a.a.l.f.g.o.p.q.C.s.U.V.F.W.H.##w#x#y#z#f#####d#A#B#C#D#E#F#F#F#F#F#F#F#F#F#F#F#G#H.#QtQt",
"QtQt.#.a.a.l.f.n.o.p.q.r.1.U.V.F.W.H.X.##I#J#K#z#f###L#M#I#N#O#P#Q#Q#Q#Q#Q#Q#Q#Q#Q#Q#Q#R#S.#QtQt",
"QtQt.#.a.a.l.f.g.o.p.T.r.s.U.V.F.G.H.I.J.##T#J#K#z#f#U#V.#.#.#.#.#.#.#.#.#.#.#.#.#.#.#.#.#.#QtQt",
"QtQt.#.a.a.e.m.g.o.p.q.r.s.U.V.F.G.H.I.J.7.##T#J#K#z#W#X.#.v.w.R.y.z.S.c.b.#QtQtQtQtQtQtQtQtQtQt",
"QtQt.#.a.a.l.m.n.o.p.q.r.s.U.V.F.W.H.I.J.7.Y.##T#J#K#M#Y.#.v.w.x.h.i.j.c.d.#QtQtQtQtQtQtQtQtQtQt",
"QtQt.#.a.a.l.f.g.A.p.q.r.s.D.V.F.G.H.X.J.7.Y.M.##T#J#J#Z.#.6.w.R.y.z.S.c.d.#QtQtQtQtQtQtQtQtQtQt",
"QtQt.#.a.a.l.f.n.o.B.T.r.s.D.E.F.G.H.I.J.7.Y.M.4.##T#0#1.#.v.w.R.y.z.j.c.d.#QtQtQtQtQtQtQtQtQtQt",
"QtQt.#.a.a.l.f.n.o.p.q.r.1.U.V.F.G.H.I.J.7.Y.M.N.O.##q#2.#.v.w.R.y.z.j.c.d.#QtQtQtQtQtQtQtQtQtQt",
"QtQt.#.a.a.e.f.n.A.p.q.r.1.U.V.F.G.H.X.J.7.L.M.N.O.P.##3.#.v.w.x.y.i.j.c.d.#QtQtQtQtQtQtQtQtQtQt",
"QtQt.#.a.a.l.f.g.o.p.q.r.1.U.V.F.G.H.I.J.7.Y.M.N.O.Z.Q.#.#.v.w.x.y.z.j.c.b.#QtQtQtQtQtQtQtQtQtQt",
"QtQt.#.a.a.l.f.g.o.p.T.r.s.D.V.F.G.3.X.J.7.L.M.4.O.P.Q.t.#.6.0.R.y.z.S.c.d.#QtQtQtQtQtQtQtQtQtQt",
"QtQt.#.a.a.l.f.g.o.p.T.r.s.U.V.F.W.H.I.J.7.Y.M.N.O.Z.Q.t.u.6.w.R.y.i.S.c.b.#QtQtQtQtQtQtQtQtQtQt",
"QtQt.#.a.a.l.m.n.A.p.q.r.s.U.V.F.G.H.X.J.K.L.M.4.O.P.Q.t#4.6.w.R.y.z.S.c.d.#QtQtQtQtQtQtQtQtQtQt",
"QtQtQt.#.a.l.f.g.o.p.q.r.s.D.V.2.G.H.X.J.7.Y.M.4.O.Z#5.t.u.6.w.R.y.z.j.c.#QtQtQtQtQtQtQtQtQtQtQt",
"QtQtQtQt.#.e.f.n.o.p.T.C.1.U.E.F.W.H.I.J.K.L.M.4.O.Z.Q.t#4.v.w.R.y.z.j.#QtQtQtQtQtQtQtQtQtQtQtQt",
"QtQtQtQtQt.#.#.#.o.B.T.C.s.D.V.F.G.H.X.J.7.L.M.N.O.P.Q.t.u.v.w.R.#.#.#QtQtQtQtQtQtQtQtQtQtQtQtQt",
"QtQtQtQtQtQtQtQt.#.#.#.#.#.U.V.F.G.H.X.J.7.L.M.4.O.Z.Q.#.#.#.#.#QtQtQtQtQtQtQtQtQtQtQtQtQtQtQtQt",
"QtQtQtQtQtQtQtQtQtQtQtQtQt.#.#.#.#.#.#.#.#.#.#.#.#.#.#QtQtQtQtQtQtQtQtQtQtQtQtQtQtQtQtQtQtQtQtQt",
"QtQtQtQtQtQtQtQtQtQtQtQtQtQtQtQtQtQtQtQtQtQtQtQtQtQtQtQtQtQtQtQtQtQtQtQtQtQtQtQtQtQtQtQtQtQtQtQt"};
