/* XPM */
static const char *xpmDatabaseModify16x16[]={
"16 16 38 1",
". c None",
"# c #000000",
"c c #001900",
"h c #001a00",
"b c #003d00",
"g c #003e00",
"J c #006800",
"I c #009600",
"H c #00c100",
"e c #00c200",
"G c #00e500",
"d c #00e600",
"a c #00ff00",
"f c #010101",
"r c #020202",
"i c #0d0d0d",
"n c #111111",
"k c #232323",
"F c #bdbdbd",
"D c #c9c9c9",
"E c #cbcbcb",
"A c #d5d5d5",
"s c #dadada",
"j c #dcdcdc",
"m c #e1e1e1",
"t c #e2e2e2",
"B c #e5e5e5",
"l c #e9e9e9",
"o c #eaeaea",
"x c #ebebeb",
"C c #eeeeee",
"p c #efefef",
"y c #f0f0f0",
"z c #f1f1f1",
"q c #f2f2f2",
"u c #f4f4f4",
"w c #f6f6f6",
"v c #fefefe",
"....######......",
"..##aaaaaa##....",
".#aaaaaaaaaa#...",
".###aaaaaa###...",
".#aa######bc#...",
".#aaaadef#gh#...",
".#aaaadij#bc#...",
".#aaaaklm#gh#...",
".#aaanopq#######",
".#aarstuvwxxyzy#",
".#aaa#ABC#######",
".#aaaa#DE#gc#...",
".#aaaad#F#gh#...",
".#aaaaGH##bh#...",
"..##aadHIJ##....",
"....######......"};

