/* XPM */
static const char *xpmDatabaseCreate16x16[]={
"16 16 18 1",
". c None",
"# c #000000",
"o c #001900",
"m c #001a00",
"d c #003d00",
"j c #003e00",
"n c #006800",
"i c #006900",
"l c #009600",
"h c #009700",
"k c #00c100",
"g c #00c200",
"p c #00e500",
"f c #00e600",
"a c #00ff00",
"c c #919191",
"e c #ff0000",
"b c #ffff00",
"...######.......",
".##aaaaabb#...cb",
"#aaaaaaacbb#.cbb",
"###aaaaaacbbbbb.",
"#aa######dbeeb..",
"#aaaafghijbeeb..",
"#aaaafklibbbbbc.",
"#aaaafglbbc#.bbc",
"#aaaafkhbcm#..bb",
"#aaaafglndo#....",
"#aaaafkhnjo#....",
"#aaaafglijo#....",
"#aaaafklijm#....",
"#aaaapklidm#....",
".##aafkln##.....",
"...######......."};

