/* XPM */
static char *DatabaseInfo_xpm[]={
"48 48 241 2",
"Qt c None",
".g c #000000",
"bx c #003700",
"bT c #003800",
"#5 c #003b00",
"bw c #003c00",
"bv c #003f00",
"ae c #004000",
"aw c #004400",
"ad c #004500",
"ac c #004900",
"av c #004a00",
"aT c #004f00",
"au c #005000",
"at c #005500",
"a5 c #005600",
"bb c #005b00",
"as c #005c00",
"ar c #006200",
"bU c #006300",
"aq c #006900",
"aS c #007000",
"bj c #007100",
"aR c #007700",
"a4 c #007800",
"aQ c #007f00",
"ba c #008600",
"aP c #008700",
"aO c #008e00",
"aN c #009500",
"a3 c #009600",
"bg c #009d00",
"aM c #009e00",
"aL c #00a500",
"a2 c #00ac00",
"aK c #00ad00",
"aJ c #00b400",
"b# c #00b500",
"a1 c #00bb00",
"aI c #00bc00",
"b. c #00c200",
"aH c #00c300",
"aG c #00c900",
"a0 c #00ca00",
"aF c #00d000",
"aZ c #00d100",
"ap c #00d700",
"a9 c #00d800",
"aE c #00dd00",
"ao c #00de00",
"aY c #00e300",
"an c #00e400",
"am c #00e900",
"aD c #00ea00",
"aC c #00ee00",
"al c #00ef00",
"ak c #00f300",
"ab c #00f400",
"aj c #00f700",
"aa c #00f800",
"a# c #00fb00",
"ai c #00fc00",
".t c #00ff00",
"#s c #020200",
"#X c #030300",
"#r c #040400",
"#L c #050500",
"#A c #060600",
"#t c #070700",
"#a c #080800",
"#H c #0b0b00",
"#k c #0e0e00",
"#U c #121201",
"#M c #17170e",
".X c #1a1a0a",
"bP c #2d2d25",
".H c #3b3b34",
"#G c #414100",
"#1 c #41413a",
"#T c #444400",
"bK c #44443d",
"#q c #464600",
".G c #4f4f42",
".s c #52524c",
"a. c #545400",
"bo c #595900",
"bG c #595953",
"bu c #5a5a00",
".r c #5b5b4f",
"bp c #5b5b55",
"bS c #5c5c00",
"#0 c #5f5f00",
"#B c #62625c",
"#Y c #656500",
".f c #696964",
"bt c #6b6b00",
"#Z c #6e6e00",
"bB c #70706b",
"#6 c #737369",
"bs c #747400",
"bk c #76766c",
"bh c #797974",
"aB c #7b7b00",
"#4 c #7d7d00",
"aX c #7e7e00",
".e c #7e7e79",
"bQ c #808000",
"bC c #81817c",
"bA c #84847f",
"#p c #858500",
".d c #898985",
"#F c #8a8a00",
"#l c #8a8a82",
"#f c #8b8b00",
"by c #8b8b8b",
"#S c #8d8d00",
".c c #8f8f8b",
".b c #949490",
"af c #9a9a93",
"bz c #9a9a96",
"br c #9c9c00",
"#W c #9d9d00",
".a c #9e9e9a",
"bc c #a1a19a",
"bO c #a2a200",
".j c #a2a29b",
".Y c #a3a39c",
"#9 c #a4a400",
".# c #a5a5a2",
"#u c #a6a600",
".I c #a6a6a0",
".i c #a6a6a3",
"#e c #a7a700",
"aU c #a7a7a1",
"ax c #a9a9a3",
".u c #ababa5",
".h c #ababa8",
"#O c #b2b200",
"bn c #b3b300",
"#K c #b4b400",
"#P c #b6b600",
"bR c #b7b700",
"#R c #bcbc00",
"ah c #bebe00",
"#z c #c0c000",
"#o c #c6c600",
"#Q c #c8c800",
"#3 c #c9c900",
"#g c #cece00",
"#d c #d0d000",
"#E c #d3d300",
"#I c #d9d900",
"#v c #dbdb00",
".6 c #dddd00",
".5 c #dede00",
"#N c #e0e000",
"bq c #e1e100",
"bN c #e2e200",
"#8 c #e5e500",
".7 c #e6e600",
"#J c #e8e800",
".4 c #e9e900",
"#y c #eaea00",
"#h c #ecec00",
"#c c #efef00",
".8 c #f2f200",
".3 c #f5f500",
"## c #f6f600",
"#w c #f8f800",
".9 c #fbfb00",
".2 c #fdfd00",
"#i c #fefe00",
"bF c #fefe10",
".W c #fefe25",
".F c #fefe44",
"#C c #fefe4f",
".q c #fefe55",
"ag c #fefe76",
".Q c #ffff00",
"#x c #ffff01",
".P c #ffff02",
"#j c #ffff03",
".R c #ffff04",
"aA c #ffff06",
"#V c #ffff07",
".O c #ffff0a",
".S c #ffff0c",
"aW c #ffff0d",
"bJ c #ffff0e",
".1 c #ffff10",
"#2 c #ffff11",
"#. c #ffff12",
".N c #ffff16",
"bM c #ffff18",
".T c #ffff1a",
"bf c #ffff1c",
"bm c #ffff1f",
"#D c #ffff27",
".M c #ffff28",
".U c #ffff2b",
".B c #ffff2c",
".C c #ffff2e",
".A c #ffff32",
".V c #ffff33",
".D c #ffff34",
"bL c #ffff35",
"#n c #ffff3a",
".E c #ffff3d",
"be c #ffff3e",
".z c #ffff40",
"bI c #ffff42",
"#7 c #ffff43",
".L c #ffff46",
"bl c #ffff4f",
"bE c #ffff52",
"a8 c #ffff54",
".y c #ffff55",
"bH c #ffff57",
"az c #ffff5e",
".p c #ffff61",
"aV c #ffff64",
"bi c #ffff66",
".0 c #ffff67",
".o c #ffff68",
"#m c #ffff6a",
".n c #ffff6c",
".x c #ffff6d",
".K c #ffff70",
".m c #ffff73",
"a7 c #ffff7c",
".l c #ffff81",
".w c #ffff85",
"bD c #ffff89",
"#b c #ffff8a",
"ay c #ffff8b",
".Z c #ffff8e",
"bd c #ffff90",
".k c #ffff91",
".J c #ffff92",
"a6 c #ffff99",
".v c #ffff9b",
"QtQtQtQtQtQtQtQtQtQtQtQtQtQtQtQtQtQtQtQtQtQtQtQtQtQtQtQtQtQtQtQtQtQtQtQtQtQtQtQtQtQtQtQtQtQtQtQt",
"QtQtQtQtQtQtQtQtQtQtQtQtQtQtQtQtQtQtQtQtQtQtQtQtQtQtQtQtQtQtQtQtQtQtQtQtQtQtQtQtQtQtQtQtQtQtQtQt",
"QtQtQtQtQtQtQtQtQtQtQtQtQtQtQtQtQtQtQtQtQtQtQtQtQtQtQtQtQtQt.#.a.b.c.c.c.d.e.fQtQtQtQtQtQtQtQtQt",
"QtQtQtQtQtQtQtQtQtQtQtQtQtQt.g.g.g.g.g.g.g.g.g.g.g.g.g.h.i.j.k.l.m.n.n.n.o.p.q.r.sQtQtQtQtQtQtQt",
"QtQtQtQtQtQtQtQtQt.g.g.g.g.g.t.t.t.t.t.t.t.t.t.t.t.t.u.v.w.x.y.z.A.B.B.B.B.C.D.E.F.G.HQtQtQtQtQt",
"QtQtQtQtQtQt.g.g.g.t.t.t.t.t.t.t.t.t.t.t.t.t.t.t.t.I.J.K.L.M.N.O.P.Q.Q.Q.Q.R.S.T.U.V.W.XQtQtQtQt",
"QtQtQtQtQt.g.t.t.t.t.t.t.t.t.t.t.t.t.t.t.t.t.t.t.Y.Z.0.D.1.P.2.3.4.5.6.7.8.9.Q.R.S.N#.###aQtQtQt",
"QtQtQtQt.g.t.t.t.t.t.t.t.t.t.t.t.t.t.t.t.t.t.t.b#b.o.D.1.P.2#c#d#e#f#f#e#g#h.9#i.Q.R#j#h#kQtQtQt",
"QtQtQt.g.t.t.t.t.t.t.t.t.t.t.t.t.t.t.t.t.t.t.t#l#m#n.1.P.2#c#o#p#q#r#s#t#u#v#w#i.Q.Q#x#y#z#AQtQt",
"QtQtQt.g.t.t.t.t.t.t.t.t.t.t.t.t.t.t.t.t.t.t#B#C#D.Q.3.9.3#E#F#G#r.t.t.t#H#I.9#x.Q.Q#x#J#K#LQtQt",
"QtQtQt.g.g.t.t.t.t.t.t.t.t.t.t.t.t.t.t.t.t.t#M#N#O#u#P#Q#R#S#T#r.t.t.t.t.t#U.1#V.Q.Q#i.6#W#rQtQt",
"QtQtQt.g.t.g.t.t.t.t.t.t.t.t.t.t.t.t.t.t.t.t.g#r#X#L#Y#Z#0#G#r.t.t.t.t.t.g#1.C#2.Q.Q###3#4#XQtQt",
"QtQtQt.g.t.t.g.g.g.t.t.t.t.t.t.t.t.t.t.t.t.t.t.t.t.t#s#s#s#s.g.t.t.g.g.g#5#6#7.N.Q.2#8#9a.#sQtQt",
"QtQtQt.g.t.ta#aaab.g.g.g.g.g.t.t.t.t.t.t.t.t.t.t.t.t.t.t.g.g.g.g.gacadaeafag.z#..2#cah#Z#rQtQtQt",
"QtQtQt.g.t.taiajakalamanaoap.g.g.g.g.g.g.g.g.g.g.g.g.g.gaqarasatauavawaxayaz.MaA#c#oaB#G#sQtQtQt",
"QtQtQt.g.t.taiajabaCaDanaEapaFaGaHaIaJaKaLaMaNaOaPaQaRaSaqarasataT.haUayaV.DaW.8#oaX#G#rQtQtQtQt",
"QtQtQt.g.t.ta#aaabalamaYaoapaZa0aHa1aJa2aLaMa3aOaPaQa4aSaqarasa5axa6a7a8.UaW.8#oaX#G#rQtQtQtQtQt",
"QtQtQt.g.t.taiajakaCaDanaoa9aZa0b.a1b#aKaLaMa3aObaaQa4aSaqarbbbcbd.xbebf#V.8#oaX#G#rQtQtQtQtQtQt",
"QtQtQt.g.t.taiaaakalamanaEapaFa0aHaIaJaKaLbga3aObaaQa4aSaqar.d.w.0.D.1.Q#c#oaX#G#rQtQtQtQtQtQtQt",
"QtQtQt.g.t.ta#aaakalaDanaEapaZa0aHa1aJaKaLbgaNaOaPaQaRaSaqarbhbi#n.1.P###E#F#G#rQtQtQtQtQtQtQtQt",
"QtQtQt.g.t.ta#aaakaCamaYaEapaZa0aHaIaJaKaLbga3aOaPaQaRbjaqarbkblbm.P.Q#hbnbo#rQtQtQtQtQtQtQtQtQt",
"QtQtQt.g.t.ta#aaakaCamaYaoa9aZa0aHa1b#aKaLbgaNaObaaQaRaSaqbp.F#.bq#g#g#PaB#r.gQtQtQtQtQtQtQtQtQt",
"QtQtQt.g.t.ta#aaabalamanaEapaZa0aHaIaJa2aLbgaNaObaaQa4aSaq#M#vbrbsbtbtbu#G#s.gQtQtQtQtQtQtQtQtQt",
"QtQtQt.g.t.taiaaakalamanaoapaZa0aHaIaJaKaLaMaNaOaPaQaRaSaq.g#L#X#s#s#s#s#s.g.gQtQtQtQtQtQtQtQtQt",
"QtQtQt.g.t.taiajabalamaYaoa9aZa0aHa1aJaKaLaMaNaObaaQa4aSaqarasatauavawbvbwbx.gQtQtQtQtQtQtQtQtQt",
"QtQtQt.g.t.ta#ajabaCamaYaEapaZa0aHa1aJa2aLbgaNaObaaQa4aSaqarasa5aTavadaebwbx.gQtQtQtQtQtQtQtQtQt",
"QtQtQt.g.t.ta#aaakalaDanaoapaZa0aHa1aJaKaLbga3aObaaQaRaSaqbybz.cbAbAbAbB#1.g.gQtQtQtQtQtQtQtQtQt",
"QtQtQt.g.t.taiaaabalamaYaoa9aZa0aHaIaJaKaLaMa3aObaaQa4aSaqbCbDa7.n.n.nbEbF#t.gQtQtQtQtQtQtQtQtQt",
"QtQtQt.g.t.taiaaakalamaYaoapaZa0aHa1aJaKaLaMa3aObaaQaRaSaqbGbHbI.B.B.BbJ#Q#L.gQtQtQtQtQtQtQtQtQt",
"QtQtQt.g.t.taiaaabalamanaEapaZa0aHa1aJa2aLaMaNaObaaQaRaSaqbKbLbM.Q.Q.QbNbO#r.gQtQtQtQtQtQtQtQtQt",
"QtQtQt.g.t.taiaaakalamanaoa9aZa0aHa1aJa2aLaMa3aObaaQaRbjaqbKbLbM.Q.Q.QbNbO#r.gQtQtQtQtQtQtQtQtQt",
"QtQtQt.g.t.taiaaabalamaYaoapaZa0aHaIaJaKaLbga3aOaPaQa4aSaqbKbLbM.Q.Q.QbNbO#r.gQtQtQtQtQtQtQtQtQt",
"QtQtQt.g.t.ta#ajabalamanaoapaZa0aHaIaJaKaLbga3aObaaQaRaSaqbPbJ#J#g#g#g#KbQ#X.gQtQtQtQtQtQtQtQtQt",
"QtQtQt.g.t.taiajakalamanaoapaZa0aHa1aJaKaLbga3aOaPaQa4aSaq#abR#pbtbtbtbS#G#s.gQtQtQtQtQtQtQtQtQt",
"QtQtQt.g.t.taiaaabaCamanaoapaFa0aHaIaJa2aLbga3aObaaQa4bjaq.g#X#s#s#s#s#s#s.g.gQtQtQtQtQtQtQtQtQt",
"QtQtQt.g.t.taiaaakalaDaYaoapaFaGaHaIaJaKaLbga3aObaaQa4bjaqarasataTavawae#5bx.gQtQtQtQtQtQtQtQtQt",
"QtQtQt.g.t.taiaaakalamanaoa9aZa0aHaIaJaKaLbga3aOaPaQaRaSaqarasataTavawae#5bx.gQtQtQtQtQtQtQtQtQt",
"QtQtQt.g.t.ta#aaakaCamanaoa9aZa0aHaIaJa2aLbgaNaOaPaQaRaSaqarasatauavadae#5bx.gQtQtQtQtQtQtQtQtQt",
"QtQtQt.g.t.taiaaabalamanaoa9aZa0aHaIaJaKaLbga3aOaPaQa4aSaqarasatauavawae#5bT.gQtQtQtQtQtQtQtQtQt",
"QtQtQt.g.t.taiaaabalamaYaoapaFa0aHaIb#a2aLbgaNaObaaQaRaSaqarbba5aTavawbv#5bx.gQtQtQtQtQtQtQtQtQt",
"QtQtQt.g.t.taiaaabalamaYaoapaZa0aHa1aJaKaLbga3aOaPaQa4aSaqarbbataTavadbv#5bT.gQtQtQtQtQtQtQtQtQt",
"QtQtQt.g.t.taiajakaCamanaoapaZa0aHaIaJa2aLaMaNaObaaQaRaSaqbUbbataTavawbv#5bx.gQtQtQtQtQtQtQtQtQt",
"QtQtQtQt.g.taiaaabalamanaoapaFa0b.aIaJa2aLbga3aObaaQa4bjaqarbbataTavawae#5.gQtQtQtQtQtQtQtQtQtQt",
"QtQtQtQtQt.ga#aaakalamaYaEa9aZaGaHa1aJaKaLaMaNaObaaQa4aSaqbUasataTavawae.gQtQtQtQtQtQtQtQtQtQtQt",
"QtQtQtQtQtQt.g.g.galaDaYaEapaFa0aHaIaJa2aLbgaNaOaPaQaRaSaqarasataT.g.g.gQtQtQtQtQtQtQtQtQtQtQtQt",
"QtQtQtQtQtQtQtQtQt.g.g.g.g.gaZa0aHaIaJa2aLbgaNaObaaQa4aS.g.g.g.g.gQtQtQtQtQtQtQtQtQtQtQtQtQtQtQt",
"QtQtQtQtQtQtQtQtQtQtQtQtQtQt.g.g.g.g.g.g.g.g.g.g.g.g.g.gQtQtQtQtQtQtQtQtQtQtQtQtQtQtQtQtQtQtQtQt",
"QtQtQtQtQtQtQtQtQtQtQtQtQtQtQtQtQtQtQtQtQtQtQtQtQtQtQtQtQtQtQtQtQtQtQtQtQtQtQtQtQtQtQtQtQtQtQtQt"};
