/* XPM */
static char *DatabaseCreate_xpm[]={
"48 48 254 2",
"Qt c None",
".c c #000000",
"b1 c #003700",
"bK c #003800",
"bz c #003b00",
"bW c #003c00",
"bp c #003f00",
"b5 c #004000",
"bo c #004400",
"bx c #004500",
"bn c #004900",
"bI c #004a00",
"bm c #004f00",
"bV c #005000",
"bw c #005500",
"b4 c #005600",
"b0 c #005b00",
"b3 c #005c00",
"bS c #006200",
"b7 c #006300",
"bZ c #006900",
"bY c #007000",
"b6 c #007100",
"b2 c #007700",
"bX c #007800",
"as c #007f00",
"a4 c #008600",
"ar c #008700",
"aq c #008e00",
"ap c #009500",
"aN c #009600",
"bh c #009d00",
"ao c #009e00",
"an c #00a500",
"aM c #00ac00",
"am c #00ad00",
"al c #00b400",
"a3 c #00b500",
"aL c #00bb00",
"ak c #00bc00",
"a2 c #00c200",
"aj c #00c300",
"ai c #00c900",
"aK c #00ca00",
"ah c #00d000",
"aJ c #00d100",
"#5 c #00d700",
"a1 c #00d800",
"ag c #00dd00",
"#4 c #00de00",
"aI c #00e300",
"#3 c #00e400",
"#2 c #00e900",
"af c #00ea00",
"ae c #00ee00",
"#1 c #00ef00",
"#0 c #00f300",
"#P c #00f400",
"#Z c #00f700",
"#O c #00f800",
"#N c #00fb00",
"#Y c #00fc00",
".m c #00ff00",
"bU c #015502",
"#g c #01fd02",
"#A c #01fe02",
"bH c #025c02",
".5 c #02fd02",
"bJ c #034100",
"#r c #03fc04",
"by c #044300",
"bT c #045c04",
"at c #047900",
"#s c #05fa06",
"#6 c #080800",
".E c #0a0a00",
".T c #0efb06",
"bv c #116114",
".6 c #13f50d",
"bR c #207710",
".u c #222200",
"bG c #287121",
".x c #29f60d",
".G c #2af50d",
"bl c #357320",
".O c #36ff00",
"au c #3e9300",
".Q c #414505",
"bc c #437500",
"aO c #439b00",
"#h c #43f90b",
".P c #43ff01",
"#B c #44ff00",
"ba c #457f02",
"#t c #45ff01",
"#Q c #474700",
"bd c #478e00",
".D c #47ff00",
"bb c #487c00",
"#7 c #4c9600",
".N c #4eff00",
".t c #5e5e00",
".7 c #6ce523",
".y c #71e128",
"bu c #749057",
"bk c #76867a",
"bQ c #77a039",
"bF c #789c3e",
".H c #7ddc2e",
".U c #80cd43",
"b# c #84aa24",
"a5 c #8dc600",
".M c #91ff00",
".s c #9e9e00",
".C c #a9ff00",
"#8 c #abcb00",
"aV c #aec200",
"bO c #aed600",
".0 c #aeff00",
"b. c #b7b75f",
".n c #b7d23b",
"bP c #b9d01c",
"av c #b9d600",
"aU c #bbcd02",
".Z c #bbfe00",
".1 c #bbfe02",
"aW c #bccb00",
"aP c #bcd900",
"bj c #bfc050",
"bE c #c0c546",
"a6 c #c3df00",
".I c #c5dc30",
"bt c #c9c948",
"#M c #cad20c",
"#C c #caff0c",
"#X c #ccd912",
"#u c #ccfe12",
".V c #cdcc42",
"aZ c #cdcc43",
"aT c #cde012",
".2 c #cdfb12",
"#F c #cfd205",
"#G c #cfff05",
".z c #d0d03e",
"bC c #d3d339",
".Y c #d5ff00",
".o c #d7d735",
"ad c #d7e016",
"#i c #d7f716",
"#R c #dada00",
"bf c #dada49",
"aX c #dae300",
"aS c #dae625",
"#z c #dbdb00",
".L c #dcff00",
"bs c #e0e029",
"aR c #e3e225",
".r c #e3e300",
"a9 c #e3e325",
"aF c #e6e815",
".8 c #e6f015",
".d c #e9e91d",
"bN c #e9e946",
"#q c #ebeb00",
".p c #ebeb1b",
"#9 c #ebf200",
"bB c #ecec1a",
".J c #eded18",
"bD c #eded19",
".B c #edff00",
"aB c #eebb00",
"be c #eeed17",
".l c #eeee17",
"bM c #efef16",
"aQ c #eff600",
"#a c #efff00",
".e c #f0f014",
"aA c #f2c701",
".W c #f2f010",
".A c #f2f211",
"## c #f2fd00",
"#b c #f2fd01",
"aC c #f3c600",
"bi c #f3f311",
"bg c #f3f3db",
".X c #f3fd00",
"#e c #f4f408",
"a7 c #f4f900",
".3 c #f5f40d",
"ax c #f5f708",
"aG c #f6f6ed",
"az c #f7df06",
"#c c #f7ed06",
"aY c #f7f700",
".w c #f7f70a",
"#. c #f8ed00",
"#d c #f8ed09",
"ay c #f8f309",
"#W c #f9ed08",
".F c #f9f909",
"#v c #f9ff08",
"ac c #faeb06",
"#j c #faf306",
".K c #faf906",
"bA c #fafa06",
".q c #fafa07",
"br c #fafaed",
"#L c #fafe06",
".f c #fbfb05",
"bL c #fbfb10",
"a0 c #fbfbf3",
"#D c #fbff06",
"aD c #fcdf00",
".9 c #fdee02",
"aE c #fdf402",
"#H c #fdfe02",
"aw c #fdfe03",
"#f c #fdfe0a",
"#E c #fdff03",
"a8 c #fefe00",
".g c #fefe01",
"aH c #fefefc",
"#y c #ff0000",
"#x c #ff1700",
"#K c #ff2700",
"#J c #ff5400",
"#m c #ff7d00",
"#l c #ff9500",
"#n c #ff9600",
"#w c #ffab00",
"#I c #ffba00",
"#k c #ffc900",
"#o c #ffcc00",
"aa c #ffcf00",
"a# c #ffd300",
"ab c #ffd900",
"#V c #ffdb00",
"#U c #ffdc00",
"#T c #ffdd00",
"#S c #ffed00",
"a. c #ffef00",
"#p c #fff700",
".# c #ffff00",
".a c #ffff01",
".R c #ffff03",
"bq c #ffff04",
".b c #ffff05",
".4 c #ffff11",
".S c #ffff12",
".h c #ffff38",
".i c #ffffb0",
".j c #ffffe6",
".v c #fffffa",
".k c #fffffb",
"QtQtQtQtQtQtQtQtQtQtQtQtQtQtQtQtQtQtQtQtQtQtQtQtQtQtQtQtQtQtQtQtQtQtQtQtQtQtQtQtQtQtQtQtQtQtQtQt",
"QtQtQtQtQtQtQtQtQtQtQtQtQtQtQtQtQtQtQtQtQtQtQtQtQtQtQtQtQtQtQtQtQtQtQtQtQtQtQtQtQtQtQtQtQtQtQtQt",
"QtQtQtQtQtQtQtQtQtQtQtQtQtQtQtQtQtQtQtQtQtQtQtQtQt.#.#.a.bQtQtQtQtQtQtQtQtQtQtQtQtQt.#.#QtQtQtQt",
"QtQtQtQtQtQtQtQtQtQtQtQtQtQt.c.c.c.c.c.c.c.c.c.c.c.d.e.f.g.h.i.j.kQtQtQtQtQtQtQtQt.#.l.#QtQtQtQt",
"QtQtQtQtQtQtQtQtQt.c.c.c.c.c.m.m.m.m.m.m.m.m.m.m.m.n.o.p.q.r.s.t.u.vQtQtQtQtQtQt.#.#.w.#QtQtQtQt",
"QtQtQtQtQtQt.c.c.c.m.m.m.m.m.m.m.m.m.m.m.m.m.m.m.m.x.y.z.A.#.B.C.D.E.c.cQtQtQt.#.A.F.a.#QtQtQtQt",
"QtQtQtQtQt.c.m.m.m.m.m.m.m.m.m.m.m.m.m.m.m.m.m.m.m.m.G.H.I.J.K.L.M.N.O.P.QQt.#.#.R.S.#QtQtQtQtQt",
"QtQtQtQt.c.m.m.m.m.m.m.m.m.m.m.m.m.m.m.m.m.m.m.m.m.m.m.T.U.V.W.X.Y.Z.0.1.2.#.#.3.4.#QtQtQtQtQtQt",
"QtQtQt.c.m.m.m.m.m.m.m.m.m.m.m.m.m.m.m.m.m.m.m.m.m.m.m.5.6.7.8.9#.###a#b#c#d#e#f.#QtQtQtQtQtQtQt",
"QtQtQt.c.m.m.m.m.m.m.m.m.m.m.m.m.m.m.m.m.m.m.m.m.m.m#g#g.m#h#i#j#k#l#m#n#o#p#q.#QtQtQtQtQtQtQtQt",
"QtQtQt.c.c.m.m.m.m.m.m.m.m.m.m.m.m.m.m.m.m.m.m.m.m.m#r#s.m#t#u#v#w#x#y#x#w.##zQtQtQtQtQtQtQtQtQt",
"QtQtQt.c.m.c.m.m.m.m.m.m.m.m.m.m.m.m.m.m.m.m.m.m.m.m#A#g.m#B#C#D#w#x#y#x#w#E#FQtQtQtQtQtQtQtQtQt",
"QtQtQt.c.m.m.c.c.c.m.m.m.m.m.m.m.m.m.m.m.m.m.m.m.m.m.m.m.m#B#G#H#I#J#K#J#I#L#MQtQtQtQtQtQtQtQtQt",
"QtQtQt.c.m.m#N#O#P.c.c.c.c.c.m.m.m.m.m.m.m.m.m.m.m.m.m.m.c#Q#R#S#T#U#V#U#T#W#XQtQtQtQtQtQtQtQtQt",
"QtQtQt.c.m.m#Y#Z#0#1#2#3#4#5.c.c.c.c.c.c.c.c.c.c.c.c.c#6#7#8#9a.#Va#aaa#abacadQtQtQtQtQtQtQtQtQt",
"QtQtQt.c.m.m#Y#Z#Paeaf#3ag#5ahaiajakalamanaoapaqarasatauavawaxayazaAaBaCaDaEaFQtaGaHQtQtQtQtQtQt",
"QtQtQt.c.m.m#N#O#P#1#2aI#4#5aJaKajaLalaManaoaNaqarasaOaPaQ.3aRaSaTaUaVaWaXaY.WaZQta0QtQtQtQtQtQt",
"QtQtQt.c.m.m#Y#Z#0aeaf#3#4a1aJaKa2aLa3amanaoaNaqa4a5a6a7a8a9b.b#babbbcbd.#.#.KbebfQtbgQtQtQtQtQt",
"QtQtQt.c.m.m#Y#O#0#1#2#3ag#5ahaKajakalamanbhaNaqa4.#.a.Fbibjbkblbmbnbobpbd.#.#bq.A.zQtbrQtQtQtQt",
"QtQtQt.c.m.m#N#O#0#1af#3ag#5aJaKajaLalamanbhapaqar.#.wbsbtbubvbwbmbnbxbybzbd.#.#bAbBbCQtQtQtQtQt",
"QtQtQt.c.m.m#N#O#0ae#2aIag#5aJaKajakalamanbhaNaqara8bDbEbFbGbHbwbmbIbobJbzbKbd.#.#bLbMbNQtQtQtQt",
"QtQtQt.c.m.m#N#O#0ae#2aI#4a1aJaKajaLa3amanbhapaqa4bObPbQbRbSbTbUbVbnbxbpbWbK.c.#.#.#.#.#QtQtQtQt",
"QtQtQt.c.m.m#N#O#P#1#2#3ag#5aJaKajakalaManbhapaqa4asbXbYbZbSb0bwbmbIbobpbzb1.cQt.#.#.#QtQtQtQtQt",
"QtQtQt.c.m.m#Y#O#0#1#2#3#4#5aJaKajakalamanaoapaqarasb2bYbZbSb0bwbVbIbxbpbzb1.cQtQtQtQtQtQtQtQtQt",
"QtQtQt.c.m.m#Y#Z#P#1#2aI#4a1aJaKajaLalamanaoapaqa4asbXbYbZbSb3bwbVbIbobpbWb1.cQtQtQtQtQtQtQtQtQt",
"QtQtQt.c.m.m#N#Z#Pae#2aIag#5aJaKajaLalaManbhapaqa4asbXbYbZbSb3b4bmbIbxb5bWb1.cQtQtQtQtQtQtQtQtQt",
"QtQtQt.c.m.m#N#O#0#1af#3#4#5aJaKajaLalamanbhaNaqa4asb2bYbZbSb0bwbmbIbobpbWbK.cQtQtQtQtQtQtQtQtQt",
"QtQtQt.c.m.m#Y#O#P#1#2aI#4a1aJaKajakalamanaoaNaqa4asbXbYbZbSb3bwbmbIbxb5bWb1.cQtQtQtQtQtQtQtQtQt",
"QtQtQt.c.m.m#Y#O#0#1#2aI#4#5aJaKajaLalamanaoaNaqa4asb2bYbZbSb0b4bVbIbob5bzb1.cQtQtQtQtQtQtQtQtQt",
"QtQtQt.c.m.m#Y#O#P#1#2#3ag#5aJaKajaLalaManaoapaqa4asb2bYbZbSb0bwbmbnbob5bWb1.cQtQtQtQtQtQtQtQtQt",
"QtQtQt.c.m.m#Y#O#0#1#2#3#4a1aJaKajaLalaManaoaNaqa4asb2b6bZbSb3bwbVbnbobpbzb1.cQtQtQtQtQtQtQtQtQt",
"QtQtQt.c.m.m#Y#O#P#1#2aI#4#5aJaKajakalamanbhaNaqarasbXbYbZbSb0bwbmbIbob5bzb1.cQtQtQtQtQtQtQtQtQt",
"QtQtQt.c.m.m#N#Z#P#1#2#3#4#5aJaKajakalamanbhaNaqa4asb2bYbZbSb3bwbmbIbobpbzbK.cQtQtQtQtQtQtQtQtQt",
"QtQtQt.c.m.m#Y#Z#0#1#2#3#4#5aJaKajaLalamanbhaNaqarasbXbYbZbSb3bwbVbnbxb5bzb1.cQtQtQtQtQtQtQtQtQt",
"QtQtQt.c.m.m#Y#O#Pae#2#3#4#5ahaKajakalaManbhaNaqa4asbXb6bZbSb0bwbmbIbobpbzb1.cQtQtQtQtQtQtQtQtQt",
"QtQtQt.c.m.m#Y#O#0#1afaI#4#5ahaiajakalamanbhaNaqa4asbXb6bZbSb3bwbmbIbob5bzb1.cQtQtQtQtQtQtQtQtQt",
"QtQtQt.c.m.m#Y#O#0#1#2#3#4a1aJaKajakalamanbhaNaqarasb2bYbZbSb3bwbmbIbob5bzb1.cQtQtQtQtQtQtQtQtQt",
"QtQtQt.c.m.m#N#O#0ae#2#3#4a1aJaKajakalaManbhapaqarasb2bYbZbSb3bwbVbIbxb5bzb1.cQtQtQtQtQtQtQtQtQt",
"QtQtQt.c.m.m#Y#O#P#1#2#3#4a1aJaKajakalamanbhaNaqarasbXbYbZbSb3bwbVbIbob5bzbK.cQtQtQtQtQtQtQtQtQt",
"QtQtQt.c.m.m#Y#O#P#1#2aI#4#5ahaKajaka3aManbhapaqa4asb2bYbZbSb0b4bmbIbobpbzb1.cQtQtQtQtQtQtQtQtQt",
"QtQtQt.c.m.m#Y#O#P#1#2aI#4#5aJaKajaLalamanbhaNaqarasbXbYbZbSb0bwbmbIbxbpbzbK.cQtQtQtQtQtQtQtQtQt",
"QtQtQt.c.m.m#Y#Z#0ae#2#3#4#5aJaKajakalaManaoapaqa4asb2bYbZb7b0bwbmbIbobpbzb1.cQtQtQtQtQtQtQtQtQt",
"QtQtQtQt.c.m#Y#O#P#1#2#3#4#5ahaKa2akalaManbhaNaqa4asbXb6bZbSb0bwbmbIbob5bz.cQtQtQtQtQtQtQtQtQtQt",
"QtQtQtQtQt.c#N#O#0#1#2aIaga1aJaiajaLalamanaoapaqa4asbXbYbZb7b3bwbmbIbob5.cQtQtQtQtQtQtQtQtQtQtQt",
"QtQtQtQtQtQt.c.c.c#1afaIag#5ahaKajakalaManbhapaqarasb2bYbZbSb3bwbm.c.c.cQtQtQtQtQtQtQtQtQtQtQtQt",
"QtQtQtQtQtQtQtQtQt.c.c.c.c.caJaKajakalaManbhapaqa4asbXbY.c.c.c.c.cQtQtQtQtQtQtQtQtQtQtQtQtQtQtQt",
"QtQtQtQtQtQtQtQtQtQtQtQtQtQt.c.c.c.c.c.c.c.c.c.c.c.c.c.cQtQtQtQtQtQtQtQtQtQtQtQtQtQtQtQtQtQtQtQt",
"QtQtQtQtQtQtQtQtQtQtQtQtQtQtQtQtQtQtQtQtQtQtQtQtQtQtQtQtQtQtQtQtQtQtQtQtQtQtQtQtQtQtQtQtQtQtQtQt"};
