/* XPM */
static const char *xpmDatabaseReverse16x16[]={
"16 16 36 1",
". c None",
"# c #000000",
"c c #001900",
"b c #003d00",
"H c #006800",
"g c #006900",
"j c #009600",
"f c #009700",
"i c #00c100",
"e c #00c200",
"G c #00e500",
"d c #00e600",
"a c #00ff00",
"p c #020202",
"q c #030303",
"h c #040404",
"m c #0a0a0a",
"k c #0b0b0b",
"A c #b7b7b7",
"F c #bdbdbd",
"D c #bebebe",
"t c #cacaca",
"E c #cbcbcb",
"z c #cccccc",
"o c #d6d6d6",
"l c #dcdcdc",
"C c #dedede",
"n c #e2e2e2",
"s c #e6e6e6",
"B c #eeeeee",
"w c #f1f1f1",
"r c #f2f2f2",
"u c #f4f4f4",
"v c #f5f5f5",
"x c #f8f8f8",
"y c #fefefe",
"....######......",
"..##aaaaaa##....",
".#aaaaaaaaaa#...",
".###aaaaaa###...",
".#aa######bc#...",
".#aaaadefgh##...",
".#aaaadijgkl#...",
".#aaaadejgmno#..",
".#aa###pqhprst#.",
".#aa#uvuwwxywzA#",
".#aa#######BCD#.",
".#aaaadejg#ED#..",
".#aaaadijg#F#...",
".#aaaaGijg###...",
"..##aadijH##....",
"....######......"};

