/* XPM */
static char *DatabaseReverse_xpm[]={
"48 48 124 2",
"Qt c None",
".# c #000000",
".d c #003700",
".b c #003800",
".c c #003b00",
".k c #003c00",
".S c #003f00",
".j c #004000",
".z c #004400",
".i c #004500",
".h c #004900",
".y c #004a00",
".R c #004f00",
".x c #005000",
".w c #005500",
".0 c #005600",
".5 c #005b00",
".v c #005c00",
".u c #006200",
"#5 c #006300",
".t c #006900",
".Q c #007000",
"#b c #007100",
".P c #007700",
".Z c #007800",
".O c #007f00",
".4 c #008600",
".N c #008700",
".M c #008e00",
".L c #009500",
".Y c #009600",
".7 c #009d00",
".K c #009e00",
".J c #00a500",
".X c #00ac00",
".I c #00ad00",
".H c #00b400",
".3 c #00b500",
".W c #00bb00",
".G c #00bc00",
".2 c #00c200",
".F c #00c300",
".E c #00c900",
".V c #00ca00",
".D c #00d000",
".U c #00d100",
".s c #00d700",
".1 c #00d800",
".C c #00dd00",
".r c #00de00",
".T c #00e300",
".q c #00e400",
".p c #00e900",
".B c #00ea00",
".A c #00ee00",
".o c #00ef00",
".n c #00f300",
".g c #00f400",
".m c #00f700",
".f c #00f800",
".e c #00fb00",
".l c #00fc00",
".a c #00ff00",
"#s c #020202",
"#d c #0a0a0a",
"#X c #0e0e0e",
"#2 c #1e1e1e",
"#A c #252525",
"#a c #2b2b2b",
"#Y c #2d2d2d",
"#0 c #343434",
"#v c #3d3d3d",
"#M c #414141",
"#e c #454545",
"#4 c #4a4a4a",
"#f c #4c4c4c",
"#t c #535353",
"#c c #585858",
"#g c #646464",
".9 c #656565",
"#P c #6b6b6b",
"#q c #707070",
"#. c #747474",
"#h c #797979",
"#z c #7b7b7b",
"#r c #7c7c7c",
".6 c #7d7d7d",
"#V c #7e7e7e",
"#L c #828282",
"#O c #858585",
".8 c #868686",
"#m c #8b8b8b",
"#Q c #8c8c8c",
"#p c #909090",
"#n c #919191",
"#l c #959595",
"#o c #979797",
"#j c #989898",
"#1 c #9a9a9a",
"#y c #9f9f9f",
"#k c #a1a1a1",
"#R c #b3b3b3",
"#N c #b8b8b8",
"#U c #c6c6c6",
"#K c #c7c7c7",
"#3 c #cccccc",
"#C c #cecece",
"#D c #d1d1d1",
"#x c #d3d3d3",
"#E c #d8d8d8",
"#S c #dbdbdb",
"#Z c #dfdfdf",
"#F c #e6e6e6",
"#B c #e8e8e8",
"#u c #e9e9e9",
"#J c #efefef",
"#G c #f2f2f2",
"#w c #f3f3f3",
"#T c #f5f5f5",
"#W c #f6f6f6",
"#H c #fbfbfb",
"#I c #fdfdfd",
"#i c #fefefe",
"## c #ffffff",
"QtQtQtQtQtQtQtQtQtQtQtQtQtQtQtQtQtQtQtQtQtQtQtQtQtQtQtQtQtQtQtQtQtQtQtQtQtQtQtQtQtQtQtQtQtQtQtQt",
"QtQtQtQtQtQtQtQtQtQtQtQtQtQtQtQtQtQtQtQtQtQtQtQtQtQtQtQtQtQtQtQtQtQtQtQtQtQtQtQtQtQtQtQtQtQtQtQt",
"QtQtQtQtQtQtQtQtQtQtQtQtQtQtQtQtQtQtQtQtQtQtQtQtQtQtQtQtQtQtQtQtQtQtQtQtQtQtQtQtQtQtQtQtQtQtQtQt",
"QtQtQtQtQtQtQtQtQtQtQtQtQt.#.#.#.#.#.#.#.#.#.#.#.#.#.#QtQtQtQtQtQtQtQtQtQtQtQtQtQtQtQtQtQtQtQtQt",
"QtQtQtQtQtQtQtQt.#.#.#.#.#.a.a.a.a.a.a.a.a.a.a.a.a.a.a.#.#.#.#.#QtQtQtQtQtQtQtQtQtQtQtQtQtQtQtQt",
"QtQtQtQtQt.#.#.#.a.a.a.a.a.a.a.a.a.a.a.a.a.a.a.a.a.a.a.a.a.a.a.a.#.#.#QtQtQtQtQtQtQtQtQtQtQtQtQt",
"QtQtQtQt.#.a.a.a.a.a.a.a.a.a.a.a.a.a.a.a.a.a.a.a.a.a.a.a.a.a.a.a.a.a.a.#QtQtQtQtQtQtQtQtQtQtQtQt",
"QtQtQt.#.a.a.a.a.a.a.a.a.a.a.a.a.a.a.a.a.a.a.a.a.a.a.a.a.a.a.a.a.a.a.a.a.#QtQtQtQtQtQtQtQtQtQtQt",
"QtQt.#.a.a.a.a.a.a.a.a.a.a.a.a.a.a.a.a.a.a.a.a.a.a.a.a.a.a.a.a.a.a.a.a.a.a.#QtQtQtQtQtQtQtQtQtQt",
"QtQt.#.a.a.a.a.a.a.a.a.a.a.a.a.a.a.a.a.a.a.a.a.a.a.a.a.a.a.a.a.a.a.a.a.a.a.#QtQtQtQtQtQtQtQtQtQt",
"QtQt.#.#.a.a.a.a.a.a.a.a.a.a.a.a.a.a.a.a.a.a.a.a.a.a.a.a.a.a.a.a.a.a.a.a.#.#QtQtQtQtQtQtQtQtQtQt",
"QtQt.#.a.#.a.a.a.a.a.a.a.a.a.a.a.a.a.a.a.a.a.a.a.a.a.a.a.a.a.a.a.a.a.a.#.b.#QtQtQtQtQtQtQtQtQtQt",
"QtQt.#.a.a.#.#.#.a.a.a.a.a.a.a.a.a.a.a.a.a.a.a.a.a.a.a.a.a.a.a.a.#.#.#.c.d.#QtQtQtQtQtQtQtQtQtQt",
"QtQt.#.a.a.e.f.g.#.#.#.#.#.a.a.a.a.a.a.a.a.a.a.a.a.a.a.#.#.#.#.#.h.i.j.k.d.#QtQtQtQtQtQtQtQtQtQt",
"QtQt.#.a.a.l.m.n.o.p.q.r.s.#.#.#.#.#.#.#.#.#.#.#.#.#.#.t.u.v.w.x.y.z.j.c.d.#QtQtQtQtQtQtQtQtQtQt",
"QtQt.#.a.a.l.m.g.A.B.q.C.s.D.E.F.G.H.I.J.K.L.M.N.O.P.Q.t.u.v.w.R.h.z.S.k.d.#QtQtQtQtQtQtQtQtQtQt",
"QtQt.#.a.a.e.f.g.o.p.T.r.s.U.V.F.W.H.X.J.K.Y.M.N.O.Z.Q.t.u.v.0.x.h.i.j.c.d.#QtQtQtQtQtQtQtQtQtQt",
"QtQt.#.a.a.l.m.n.A.B.q.r.1.U.V.2.W.3.I.J.K.Y.M.4.O.Z.Q.t.u.5.0.R.h.z.6.c.d.#QtQtQtQtQtQtQtQtQtQt",
"QtQt.#.a.a.l.f.n.o.p.q.C.s.D.V.F.G.H.I.J.7.Y.M.4.O.Z.Q.t.u.v.w.R.h.z.8.9.d.#QtQtQtQtQtQtQtQtQtQt",
"QtQt.#.a.a.e.f.n.o.B.q.C.s.U.V.F.W.H.I.J.7.L.M.N.O.P.Q.t.u.5.w.R.h.i#.###a.#QtQtQtQtQtQtQtQtQtQt",
"QtQt.#.a.a.e.f.n.A.p.T.C.s.U.V.F.G.H.I.J.7.Y.M.N.O.P#b.t.u.v.w.R.y.z#c#####dQtQtQtQtQtQtQtQtQtQt",
"QtQt.#.a.a.e.f.n.A.p.T.r.1.U.V.F.W.3.I.J.7.L.M.4.O.P.Q.t.u.5.w.x.h.i#e#######dQtQtQtQtQtQtQtQtQt",
"QtQt.#.a.a.e.f.g.o.p.q.C.s.U.V.F.G.H.X.J.7.L.M.4.O.Z.Q.t.u.5.w.R.y.z#f#########dQtQtQtQtQtQtQtQt",
"QtQt.#.a.a.l.f.n.o.p.q.r.s.U.V.F.G.H.I.J.K.L.M.N.O.P.Q.t.u.5.w.x.y.i#g###########dQtQtQtQtQtQtQt",
"QtQt.#.a.a.l.m.g.o.p.T.r.1.U.V.F.W.H.I.J.K.L.M.4.O.Z.Q.t.u.v.w.x.y.z#h#######i#####dQtQtQtQtQtQt",
"QtQt.#.a.a.e.m.g.A.p.T.C.s.U.V.F.W#j#k#l#m#m#m#m#m#m#m#m#m#m#m#n#o#p#q###############dQtQtQtQtQt",
"QtQt.#.a.a.e.f.n.o.B.q.r.s.U.V.F.W#r###################################################sQtQtQtQt",
"QtQt.#.a.a.l.f.g.o.p.T.r.1.U.V.F.G#t###################################################u.#QtQtQt",
"QtQt.#.a.a.l.f.n.o.p.T.r.s.U.V.F.W#v#############################################i#w#x#y#z.#QtQt",
"QtQt.#.a.a.l.f.g.o.p.q.C.s.U.V.F.W#A###B#C#C#C#C#C#C#C#C#C#C#C#D#E#F#G#H#i#####I#J#K#L#M.#QtQtQt",
"QtQt.#.a.a.l.f.n.o.p.q.r.1.U.V.F.W.##N#O#P#P#P#P#P#P#P#P#P#P#P#.#Q#R#S#T#i###I#J#U#V#M.#QtQtQtQt",
"QtQt.#.a.a.l.f.g.o.p.T.r.s.U.V.F.G.#.#.#.#.#.#.#.#.#.#.#.#.#.#.#.#.#.##W###I#J#U#V#M.#QtQtQtQtQt",
"QtQt.#.a.a.e.m.g.o.p.q.r.s.U.V.F.G.H.I.J.7.Y.M.4.O.P.Q.t.u.v.w.R.y.z.######J#U#V#M.#QtQtQtQtQtQt",
"QtQt.#.a.a.l.m.n.o.p.q.r.s.U.V.F.W.H.I.J.7.Y.M.N.O.Z.Q.t.u.v.w.x.h.i#X#####U#V#M.#QtQtQtQtQtQtQt",
"QtQt.#.a.a.l.f.g.A.p.q.r.s.D.V.F.G.H.X.J.7.Y.M.4.O.Z#b.t.u.5.w.R.y.z#Y###Z#V#M.#QtQtQtQtQtQtQtQt",
"QtQt.#.a.a.l.f.n.o.B.T.r.s.D.E.F.G.H.I.J.7.Y.M.4.O.Z#b.t.u.v.w.R.y.z#0###1#M.#QtQtQtQtQtQtQtQtQt",
"QtQt.#.a.a.l.f.n.o.p.q.r.1.U.V.F.G.H.I.J.7.Y.M.N.O.P.Q.t.u.v.w.R.y.z#2#3#4.#QtQtQtQtQtQtQtQtQtQt",
"QtQt.#.a.a.e.f.n.A.p.q.r.1.U.V.F.G.H.X.J.7.L.M.N.O.P.Q.t.u.v.w.x.y.i.##z.#.#QtQtQtQtQtQtQtQtQtQt",
"QtQt.#.a.a.l.f.g.o.p.q.r.1.U.V.F.G.H.I.J.7.Y.M.N.O.Z.Q.t.u.v.w.x.y.z.#.#.b.#QtQtQtQtQtQtQtQtQtQt",
"QtQt.#.a.a.l.f.g.o.p.T.r.s.D.V.F.G.3.X.J.7.L.M.4.O.P.Q.t.u.5.0.R.y.z.#.c.d.#QtQtQtQtQtQtQtQtQtQt",
"QtQt.#.a.a.l.f.g.o.p.T.r.s.U.V.F.W.H.I.J.7.Y.M.N.O.Z.Q.t.u.5.w.R.y.i.S.c.b.#QtQtQtQtQtQtQtQtQtQt",
"QtQt.#.a.a.l.m.n.A.p.q.r.s.U.V.F.G.H.X.J.K.L.M.4.O.P.Q.t#5.5.w.R.y.z.S.c.d.#QtQtQtQtQtQtQtQtQtQt",
"QtQtQt.#.a.l.f.g.o.p.q.r.s.D.V.2.G.H.X.J.7.Y.M.4.O.Z#b.t.u.5.w.R.y.z.j.c.#QtQtQtQtQtQtQtQtQtQtQt",
"QtQtQtQt.#.e.f.n.o.p.T.C.1.U.E.F.W.H.I.J.K.L.M.4.O.Z.Q.t#5.v.w.R.y.z.j.#QtQtQtQtQtQtQtQtQtQtQtQt",
"QtQtQtQtQt.#.#.#.o.B.T.C.s.D.V.F.G.H.X.J.7.L.M.N.O.P.Q.t.u.v.w.R.#.#.#QtQtQtQtQtQtQtQtQtQtQtQtQt",
"QtQtQtQtQtQtQtQt.#.#.#.#.#.U.V.F.G.H.X.J.7.L.M.4.O.Z.Q.#.#.#.#.#QtQtQtQtQtQtQtQtQtQtQtQtQtQtQtQt",
"QtQtQtQtQtQtQtQtQtQtQtQtQt.#.#.#.#.#.#.#.#.#.#.#.#.#.#QtQtQtQtQtQtQtQtQtQtQtQtQtQtQtQtQtQtQtQtQt",
"QtQtQtQtQtQtQtQtQtQtQtQtQtQtQtQtQtQtQtQtQtQtQtQtQtQtQtQtQtQtQtQtQtQtQtQtQtQtQtQtQtQtQtQtQtQtQtQt"};
