/* XPM */
static char *DatabaseBrowse_xpm[]={
"32 32 166 2",
"Qt c None",
".# c #000000",
"aJ c #002e00",
".d c #002f00",
".c c #003500",
".k c #003600",
".j c #003d00",
".i c #004500",
"aI c #004600",
".h c #004f00",
"aH c #005000",
".x c #005900",
"aG c #005a00",
".w c #006400",
"aC c #006500",
".v c #007000",
".B c #007100",
".u c #007b00",
".A c #007c00",
".t c #008700",
".z c #008800",
".s c #009400",
".r c #00a000",
".Z c #00a100",
".q c #00ac00",
".I c #00ad00",
"#v c #00b700",
".p c #00b800",
"#J c #00c300",
".o c #00c400",
".n c #00ce00",
"#u c #00cf00",
".m c #00d800",
".H c #00d900",
".G c #00e200",
".g c #00e300",
".5 c #00ea00",
".f c #00eb00",
".y c #00f200",
".e c #00f300",
".l c #00f900",
".b c #00fa00",
".a c #00ff00",
"ap c #185080",
"at c #195181",
"aB c #1b5282",
"a. c #1e5585",
"ak c #205685",
"ao c #215786",
"aA c #255988",
"aF c #265b89",
"#X c #275b89",
"#9 c #295c89",
"aj c #2b5d8b",
"an c #2c5f8c",
"as c #2f618d",
"az c #31628e",
"#W c #32648f",
"#8 c #356590",
"ai c #366691",
"ar c #3a6a94",
"#I c #3b6a94",
"ay c #3d6c95",
"#V c #3f6d96",
"#7 c #416f98",
"ah c #447198",
"#t c #467399",
"#H c #48749b",
"aE c #4c789d",
"#U c #4d779d",
"#6 c #4f799f",
"ag c #517ba0",
"#s c #547da1",
"#G c #567ea2",
"ax c #5981a3",
"#T c #5a82a5",
"aD c #5b82a5",
"#5 c #5d84a6",
"#f c #5f86a7",
"af c #5f86a8",
"#r c #6287a9",
"#F c #6489aa",
"aw c #678cac",
"#S c #698dad",
".4 c #6c8fae",
"#4 c #6c8faf",
"#e c #6e91b0",
"#q c #7093b1",
"#E c #7395b2",
"av c #7696b4",
"#R c #7899b5",
".3 c #7a9bb6",
"#d c #7d9cb8",
"ae c #7d9db8",
"#p c #809eb9",
"#D c #82a0bb",
"au c #84a2bc",
".Y c #87a4bd",
".2 c #8aa6bf",
"ad c #8ca7c0",
"#c c #8ca8c0",
"#o c #8faac1",
"#C c #91abc3",
"#Q c #96b0c6",
"#3 c #98b1c7",
"#b c #9bb3c8",
"ac c #9bb3c9",
"#n c #9db5ca",
"aq c #a0b6cb",
".Q c #a2b9cc",
"#P c #a5bacd",
".X c #a5bbce",
"#2 c #a7bccf",
"#a c #aabed0",
"ab c #aabed1",
"am c #acc0d2",
"#B c #afc1d3",
".P c #b1c4d4",
".W c #b3c6d6",
"#O c #b4c6d5",
"#1 c #b6c8d6",
"aa c #b8c9d8",
"#m c #bacbd9",
"al c #bbcbd9",
"#A c #bdcddb",
".O c #bfcedc",
"#N c #c1d0de",
".V c #c2d0dd",
"#0 c #c3d2de",
"a# c #c5d3df",
"## c #c5d3e0",
"#l c #c8d5e1",
".F c #cad7e2",
".N c #ccd9e4",
"#M c #cedae4",
"#Z c #d0dbe6",
"#. c #d2dde6",
"#k c #d5dfe8",
".E c #d7e0e9",
"#z c #d7e1e9",
".U c #dae3eb",
"#L c #dbe4eb",
"#Y c #dde5ec",
".9 c #dee7ed",
"#j c #e0e8ee",
"#y c #e2e9ef",
".M c #e4eaf1",
"#K c #e6ecf1",
".T c #e6ecf2",
".8 c #e9eef3",
"#i c #ebf0f4",
".D c #edf1f4",
"#x c #edf1f5",
".L c #eef3f6",
".S c #f0f3f6",
".1 c #f1f4f7",
".7 c #f3f5f9",
"#h c #f4f6f9",
".C c #f5f7fa",
"#w c #f5f8fa",
".K c #f6f9fb",
".0 c #f9fbfc",
".6 c #fbfcfd",
"#g c #fcfdfd",
".J c #fefefe",
".R c #ffffff",
"QtQtQtQtQtQtQtQtQtQtQtQtQtQtQtQtQtQtQtQtQtQtQtQtQtQtQtQtQtQtQtQt",
"QtQtQtQtQtQtQtQtQtQtQtQtQtQtQtQtQtQtQtQtQtQtQtQtQtQtQtQtQtQtQtQt",
"QtQtQtQtQtQtQt.#.#.#.#.#.#.#.#.#.#.#.#QtQtQtQtQtQtQtQtQtQtQtQtQt",
"QtQtQtQt.#.#.#.a.a.a.a.a.a.a.a.a.a.a.a.#.#.#QtQtQtQtQtQtQtQtQtQt",
"QtQt.#.#.a.a.a.a.a.a.a.a.a.a.a.a.a.a.a.a.a.a.#.#QtQtQtQtQtQtQtQt",
"Qt.#.a.a.a.a.a.a.a.a.a.a.a.a.a.a.a.a.a.a.a.a.a.a.#QtQtQtQtQtQtQt",
"Qt.#.a.a.a.a.a.a.a.a.a.a.a.a.a.a.a.a.a.a.a.a.a.a.#QtQtQtQtQtQtQt",
"Qt.#.#.#.a.a.a.a.a.a.a.a.a.a.a.a.a.a.a.a.a.a.#.#.#QtQtQtQtQtQtQt",
"Qt.#.a.b.#.#.#.a.a.a.a.a.a.a.a.a.a.a.a.#.#.#.c.d.#QtQtQtQtQtQtQt",
"Qt.#.a.b.e.f.g.#.#.#.#.#.#.#.#.#.#.#.#.h.i.j.k.d.#QtQtQtQtQtQtQt",
"Qt.#.a.l.e.f.g.m.n.o.p.q.r.s.t.u.v.w.x.h.#.#.#.#.#QtQtQtQtQtQtQt",
"Qt.#.a.b.y.f.g.m.n.o.p.q.r.s.z.A.B.w.#.#.C.D.#.E.F.#.#QtQtQtQtQt",
"Qt.#.a.l.e.f.G.H.n.o.p.I.r.s.z.A.v.#.J.K.L.M.#.N.O.P.Q.#QtQtQtQt",
"Qt.#.a.l.e.f.G.m.n.o.p.q.r.s.z.A.#.R.#.S.T.U.#.V.W.X.#.Y.#QtQtQt",
"Qt.#.a.b.e.f.G.H.n.o.p.q.Z.s.z.#.R.0.1.#.#.#.#.#.#.#.2.3.4.#QtQt",
"Qt.#.a.b.e.5.g.m.n.o.p.q.r.s.t.#.6.7.8.9#.##.##a#b#c#d#e#f.#QtQt",
"Qt.#.a.b.e.f.g.H.n.o.p.q.Z.s.##g#h#i#j#k#l#m.##n#o#p#q#r#s#t.#Qt",
"Qt.#.a.l.e.f.G.H#u.o#v.I.r.s.##w#x#y#z.F#A#B.##C#D#E#F#G#H#I.#Qt",
"Qt.#.a.l.e.f.G.m.n#J.p.q.r.s.#.#.#.#.#.#.#.#.#.#.#.#.#.#.#.#.#Qt",
"Qt.#.a.b.e.f.g.H#u.o.p.q.r.s.##K#L#M#N#O#P#Q.##R#S#T#U#V#W#X.#Qt",
"Qt.#.a.l.e.f.g.m.n#J.p.I.r.s.##Y#Z#0#1#2#3.2.##4#5#6#7#8#9a..#Qt",
"Qt.#.a.l.e.f.G.H.n.o.p.I.r.s.z.#a#aaabacadae.#afagahaiajak.#QtQt",
"Qt.#.a.b.e.f.G.H.n.o.p.q.r.s.z.#alam#n.#.#.#.#.#.#.#anaoap.#QtQt",
"Qt.#.a.b.e.5.G.H.n#J.p.q.r.s.z.u.#aq.##D#E#F.##Haras.#at.#QtQtQt",
"Qt.#.a.b.e.f.G.m.n#J.p.q.r.s.z.A.v.#auavawax.#ayazaAaB.#QtQtQtQt",
"Qt.#.a.l.y.f.G.H.n#J.p.q.r.s.z.u.vaC.#.#aDaE.##WaF.#.#QtQtQtQtQt",
"Qt.#.a.b.e.f.G.m.n.o.p.I.r.s.z.A.v.waG.h.#.#.#.#.#QtQtQtQtQtQtQt",
"Qt.#.a.b.y.f.g.m.n.o.p.q.Z.s.z.A.vaCaGaHaI.j.caJ.#QtQtQtQtQtQtQt",
"QtQt.#.#.e.f.G.H#u.o.p.q.r.s.z.u.vaC.x.h.i.j.#.#QtQtQtQtQtQtQtQt",
"QtQtQtQt.#.#.#.H.n#J.p.I.r.s.z.A.vaCaG.#.#.#QtQtQtQtQtQtQtQtQtQt",
"QtQtQtQtQtQtQt.#.#.#.#.#.#.#.#.#.#.#.#QtQtQtQtQtQtQtQtQtQtQtQtQt",
"QtQtQtQtQtQtQtQtQtQtQtQtQtQtQtQtQtQtQtQtQtQtQtQtQtQtQtQtQtQtQtQt"};
