/* XPM */
static char *Delete_xpm[]={
"48 48 256 2",
"Qt c None",
".7 c #000000",
"bt c #030303",
".T c #040404",
"bd c #050808",
"#G c #060000",
".s c #0a0909",
"aP c #0b2a2a",
"aO c #0d0000",
".k c #0d0d0d",
"a4 c #0d1111",
"a3 c #0e0909",
"ac c #110000",
"aB c #111c1c",
"bs c #140c0c",
"#k c #151313",
"al c #151a1a",
"b. c #162323",
"#s c #190000",
"#t c #1d1818",
"aK c #1d2424",
"bw c #1d3131",
"#0 c #200101",
"as c #202e2e",
"bF c #212121",
".J c #242121",
"#e c #250101",
".e c #262626",
"an c #282828",
"b6 c #291414",
"aF c #292929",
"#I c #2a2a2a",
"#1 c #2c2c2c",
"ae c #2d0000",
"b9 c #2d1c1c",
"aG c #303030",
"bQ c #303636",
"#2 c #320202",
"aQ c #343333",
".U c #352e2e",
"#A c #353535",
"#f c #383838",
"#g c #390000",
"bm c #391414",
"bN c #3a0404",
"#K c #3c0909",
"aE c #3c3c3c",
".8 c #3e0000",
"bj c #430101",
"aW c #444444",
"bz c #480808",
"b8 c #492f2f",
"aH c #4a2626",
".6 c #4b0000",
"am c #4b4b4b",
".w c #4f4f4f",
"aA c #500808",
"#H c #515151",
"ad c #525252",
"bi c #530101",
"av c #552a2a",
"bJ c #560000",
".D c #561010",
"#u c #565757",
".S c #570f0f",
"aC c #576363",
"bT c #580a0a",
"br c #590000",
"b7 c #5a3131",
"at c #5b6b6b",
"#F c #5d0000",
".r c #5d1010",
"b2 c #5f5f5f",
".j c #622323",
"b5 c #630808",
".V c #633434",
"#J c #636363",
"#Q c #656565",
"ai c #660000",
"bA c #681212",
"aL c #696a6a",
".a c #6b6b6b",
"#r c #6c0000",
".v c #727272",
"aD c #747373",
"be c #750202",
".E c #767474",
"au c #777979",
"a8 c #7b0000",
"ao c #7b1212",
"b3 c #7d5858",
"#v c #7e0000",
"bE c #7f0707",
"ah c #7f7f7f",
"#Z c #800909",
"aw c #821010",
"bl c #821414",
"#d c #830000",
"#h c #850000",
"#R c #868686",
"bS c #870303",
"#3 c #880000",
".I c #883c3c",
"bZ c #8e0101",
"#L c #900c0c",
".F c #908484",
".d c #915e5e",
".u c #919191",
"bu c #920000",
"#Y c #960101",
".H c #965959",
".Z c #971717",
"aM c #975353",
"aR c #979797",
".t c #989898",
"ab c #990000",
".G c #997878",
".# c #9a9a9a",
"b0 c #9b8181",
"bY c #9f0000",
".l c #a0a0a0",
"aI c #a11a1a",
".f c #a1a1a1",
".9 c #a20000",
"#l c #a3a2a2",
"#a c #a40f0f",
"#P c #a53939",
".b c #a5a5a5",
"#z c #a91919",
"ar c #aa0000",
".W c #aa3232",
".R c #ac1313",
"b4 c #ae2323",
"ag c #b00101",
"bG c #b19f9f",
"#j c #b21010",
".q c #b31414",
"#S c #b58a8a",
"aj c #b60000",
"aJ c #b90101",
".K c #bb9090",
"bP c #bd0000",
".m c #be8f8f",
"#B c #be9090",
"ap c #bf0606",
".5 c #bf0d0d",
"#q c #c00000",
"aX c #c09191",
"bx c #c19090",
".g c #c29292",
"#7 c #c44040",
"bH c #c48e8e",
"a1 c #c50000",
".C c #c51717",
"#8 c #c55959",
"#m c #c69393",
"a5 c #c79090",
"a9 c #c80000",
"bK c #c80303",
"bU c #c88d8d",
"bn c #c89090",
"b# c #c98f8f",
"#T c #ca6464",
"bh c #cb0000",
"bk c #cb0b0b",
"aN c #cb2929",
"#E c #cc0303",
".i c #cc4141",
"a2 c #cd0000",
"aS c #cd8f8f",
".c c #cd9494",
"bX c #ce0000",
".L c #cf6868",
"ax c #d00505",
"bc c #d20000",
"bL c #d29b9b",
"#i c #d60000",
"bD c #d70b0b",
".Y c #d72525",
".X c #d72828",
"#n c #d96767",
"bq c #da0000",
".0 c #db6868",
"#9 c #dc4848",
"bv c #dd0e0e",
"by c #dd6767",
"#M c #df0000",
"#b c #df6767",
".n c #df6868",
"aY c #df6a6a",
"az c #e00000",
"#w c #e00404",
"a6 c #e16767",
"aT c #e25858",
".x c #e36868",
"#C c #e37070",
"#D c #e40101",
"bM c #e46868",
"#X c #e60000",
"#O c #e61c1c",
"bf c #e66666",
"bR c #e66a6a",
"ak c #e90000",
"#c c #e90404",
".Q c #e90e0e",
"#6 c #ea2525",
".1 c #ea3434",
"bB c #ea6666",
"a. c #eb2c2c",
"#U c #eb3636",
"## c #ec1111",
"bO c #ed0000",
"bI c #ed6565",
"bo c #ed6b6b",
".h c #ed7171",
"#4 c #ee0000",
"a0 c #ee0808",
"bV c #ee6363",
".M c #f13535",
"#. c #f20000",
"ba c #f46666",
"aV c #f50909",
".B c #f50d0d",
"aq c #f60000",
"#o c #f73434",
"aa c #f90000",
"aU c #f92424",
"aZ c #f93333",
"a# c #fa1212",
"#p c #fb0000",
".p c #fb1c1c",
".2 c #fc1111",
"af c #fd0000",
"bW c #fd2222",
"bC c #fd2525",
"#W c #fe0000",
".P c #fe0404",
".3 c #ff0000",
".O c #ff0101",
".N c #ff0303",
".4 c #ff0404",
"ay c #ff0505",
".A c #ff0707",
"#x c #ff0808",
"#N c #ff0a0a",
"#5 c #ff0c0c",
".z c #ff1111",
"#V c #ff1313",
"#y c #ff1515",
"b1 c #ff1c1c",
"bg c #ff2525",
"bb c #ff2626",
"bp c #ff2727",
"a7 c #ff2929",
".y c #ff3434",
".o c #ff3737",
"QtQtQtQtQtQtQtQtQtQtQtQtQtQtQtQtQtQtQtQtQtQtQtQtQtQtQtQtQtQtQtQtQtQtQtQtQtQtQtQtQtQtQtQtQtQtQtQt",
"QtQtQtQtQtQtQtQtQtQtQtQtQtQtQtQtQtQtQtQtQtQtQtQtQtQtQtQtQtQtQtQtQtQtQtQtQtQtQtQtQtQtQtQtQtQtQtQt",
"QtQtQtQtQtQtQtQtQtQtQtQtQtQtQtQtQtQtQtQtQtQtQtQtQtQtQtQtQtQtQtQtQtQtQtQtQtQtQtQtQtQtQtQtQtQtQtQt",
"QtQtQtQtQtQtQtQtQtQtQtQtQtQtQtQtQtQtQtQtQtQtQtQtQtQtQtQtQtQtQtQtQtQtQtQtQtQtQtQtQtQtQtQtQtQtQtQt",
"QtQtQtQtQtQtQtQtQtQtQtQtQtQtQtQtQtQtQtQtQtQtQtQtQtQtQtQtQtQtQtQtQtQtQtQtQtQtQtQtQtQtQtQtQtQtQtQt",
"QtQtQtQtQtQtQtQtQtQtQtQtQtQtQtQtQtQtQtQtQtQtQtQtQtQtQtQtQtQtQtQt.#.aQtQtQtQtQtQtQtQtQtQtQtQtQtQt",
"QtQtQtQtQtQtQtQtQtQtQtQtQtQtQtQtQtQtQtQtQtQtQtQtQtQtQtQtQtQtQt.b.c.d.eQtQtQtQtQtQtQtQtQtQtQtQtQt",
"QtQtQtQtQtQtQtQtQtQtQtQtQtQtQtQtQtQtQtQtQtQtQtQtQtQtQtQtQtQt.f.g.h.i.j.kQtQtQtQtQtQtQtQtQtQtQtQt",
"QtQtQtQtQtQtQtQtQtQtQtQtQtQtQtQtQtQtQtQtQtQtQtQtQtQtQtQtQt.l.m.n.o.p.q.r.sQtQtQtQtQtQtQtQtQtQtQt",
"QtQtQtQtQtQtQtQtQtQtQt.t.f.u.v.wQtQtQtQtQtQtQtQtQtQtQtQt.l.g.x.y.z.A.B.C.D.sQtQtQtQtQtQtQtQtQtQt",
"QtQtQtQtQtQtQtQtQtQtQt.E.F.G.H.I.JQtQtQtQtQtQtQtQtQtQt.f.K.L.M.z.N.O.P.Q.R.S.TQtQtQtQtQtQtQtQtQt",
"QtQtQtQtQtQtQtQtQtQtQt.U.V.W.X.Y.Z.kQtQtQtQtQtQtQtQt.l.m.0.1.2.N.3.3.O.4.B.5.6.7QtQtQtQtQtQtQtQt",
"QtQtQtQtQtQtQtQtQtQtQt.7.8.9#..A###a.sQtQtQtQtQtQt.l.K#b.y.z.N.3.3.3.3.O.P#c#d#e#fQtQtQtQtQtQtQt",
"QtQtQtQtQtQtQtQtQtQtQtQt.7#g#h#i.A###j#kQtQtQtQt#l#m#n#o.z.N.3.3.3.3.3#p#q#r#s#t#uQtQtQtQtQtQtQt",
"QtQtQtQtQtQtQtQtQtQtQtQtQt.7#e#v#w#x#y#z#AQtQt#l#B#C.y.z.N.3.3.3.3.3#D#E#F#G#H#I#JQtQtQtQtQtQtQt",
"QtQtQtQtQtQtQtQtQtQtQtQtQtQt#G#K#L#M#N#O#P#Q#R#S#T#U#V.4.3.3#W.3.3#X#Y#Z#0#H#I#1QtQtQtQtQtQtQtQt",
"QtQtQtQtQtQtQtQtQtQtQtQtQtQtQt.7#2#3#4#5#6#7#8#9a.a#.4.O.3.3aa.3.9ab#sacad#I#IQtQtQtQtQtQtQtQtQt",
"QtQtQtQtQtQtQtQtQtQtQtQtQtQtQtQt.7ae#3#i.O.z#y.z#N.N.3.3af.3.3ag#g#sah#H#I#IQtQtQtQtQtQtQtQtQtQt",
"QtQtQtQtQtQtQtQtQtQtQtQtQtQtQtQtQt#G#0aiaj#Xaa#W.3.3.3.3.3akab#0alahamananQtQtQtQtQtQtQtQtQtQtQt",
"QtQtQtQtQtQtQtQtQtQtQtQtQtQtQtQtQtQt.7#eaoap#..3.3.3#paqar#easatau#H#1#1QtQtQtQtQtQtQtQtQtQtQtQt",
"QtQtQtQtQtQtQtQtQtQtQtQtQtQtQtQtQtQtQt.7avawaxay.3#pazaraAaBaCaDaEaFaGQtQtQtQtQtQtQtQtQtQtQtQtQt",
"QtQtQtQtQtQtQtQtQtQtQtQtQtQtQtQtQtQtQtQtQtaHaI#N.O#.aJ#gaKaL#u#IaF#IQtQtQtQtQtQtQtQtQtQtQtQtQtQt",
"QtQtQtQtQtQtQtQtQtQtQtQtQtQtQtQtQtQtQtQt.aaMaN#5.3#4araOaP.aaQanQtQtQtQtQtQtQtQtQtQtQtQtQtQtQtQt",
"QtQtQtQtQtQtQtQtQtQtQtQtQtQtQtQtQtQtQtaRaSaTaUaV#p#.aJ#2aBaWaFQtQtQtQtQtQtQtQtQtQtQtQtQtQtQtQtQt",
"QtQtQtQtQtQtQtQtQtQtQtQtQtQtQtQtQtQt.laXaYaZa0a1akaaa2aia3a4QtQtQtQtQtQtQtQtQtQtQtQtQtQtQtQtQtQt",
"QtQtQtQtQtQtQtQtQtQtQtQtQtQtQtQtQt.la5a6a7#Xa8#g#d#M#.a9#racb.QtQtQtQtQtQtQtQtQtQtQtQtQtQtQtQtQt",
"QtQtQtQtQtQtQtQtQtQtQtQtQtQtQtQt.lb#babbbc#r#0bd#2#Y#X#p#XbeaO#kQtQtQtQtQtQtQtQtQtQtQtQtQtQtQtQt",
"QtQtQtQtQtQtQtQtQtQtQtQtQtQtQt.l.cbfbgbhbi#s.7Qt.7bj#Y#D#WbkblbmaKQtQtQtQtQtQtQtQtQtQtQtQtQtQtQt",
"QtQtQtQtQtQtQtQtQtQtQtQtQtQt.lbnbobpbqbracbsQtQtQtbt#2bu#4.3bvao#kbwQtQtQtQtQtQtQtQtQtQtQtQtQtQt",
"QtQtQtQtQtQtQtQtQtQtQtQtQt.lbxbybp#iai#s.sQtQtQtQtQtbtbzagak#W.5bAa3alQtQtQtQtQtQtQtQtQtQtQtQtQt",
"QtQtQtQtQtQtQtQtQtQtQtQt.lb#bBbC#ibraO.sQtQtQtQtQtQtQt.T.8.9#4aqbDbE#ebFQtQtQtQtQtQtQtQtQtQtQtQt",
"QtQtQtQtQtQtQtQtQtQtQtbGbHbIbgbhbJ#s.sQtQtQtQtQtQtQtQtQtbd#g#Y#4.3bK#g.7QtQtQtQtQtQtQtQtQtQtQtQt",
"QtQtQtQtQtQtQtQtQtQt.lbLbMbbbhbiaca3QtQtQtQtQtQtQtQtQtQtQt.7bN.9bObP.8.7bQQtQtQtQtQtQtQtQtQtQtQt",
"QtQtQtQtQtQtQtQtQt.l.gbRa7bqaiac.sQtQtQtQtQtQtQtQtQtQtQtQtQt.TbjajaJbibsa4QtQtQtQtQtQtQtQtQtQtQt",
"QtQtQtQtQtQtQtQt.lbxbybpbc#F#s.7QtQtQtQtQtQtQtQtQtQtQtQtQtQtQt.Tbi#hbSbTacQtQtQtQtQtQtQtQtQtQtQt",
"QtQtQtQtQtQtQt.#bUbVbWbX#Fac.TQtQtQtQtQtQtQtQtQtQtQtQtQtQtQtQtQt.7bjbYbZaeQtQtQtQtQtQtQtQtQtQtQt",
"QtQtQtQtQtQtahb0#Tb1bXbr#s.7QtQtQtQtQtQtQtQtQtQtQtQtQtQtQtQtQtQtQt.T.8br#0QtQtQtQtQtQtQtQtQtQtQt",
"QtQtQtQtQtQtb2b3b4a1b5b6.7QtQtQtQtQtQtQtQtQtQtQtQtQtQtQtQtQtQtQtQtQt.T#saOQtQtQtQtQtQtQtQtQtQtQt",
"QtQtQtQtQtQtaWb7#vaib8.7QtQtQtQtQtQtQtQtQtQtQtQtQtQtQtQtQtQtQtQtQtQtQt.7.7QtQtQtQtQtQtQtQtQtQtQt",
"QtQtQtQtQtQtbF#s#eb9.7QtQtQtQtQtQtQtQtQtQtQtQtQtQtQtQtQtQtQtQtQtQtQtQtQtQtQtQtQtQtQtQtQtQtQtQtQt",
"QtQtQtQtQtQt.7.7.T.7QtQtQtQtQtQtQtQtQtQtQtQtQtQtQtQtQtQtQtQtQtQtQtQtQtQtQtQtQtQtQtQtQtQtQtQtQtQt",
"QtQtQtQtQtQt.7.7.7QtQtQtQtQtQtQtQtQtQtQtQtQtQtQtQtQtQtQtQtQtQtQtQtQtQtQtQtQtQtQtQtQtQtQtQtQtQtQt",
"QtQtQtQtQtQtQtQtQtQtQtQtQtQtQtQtQtQtQtQtQtQtQtQtQtQtQtQtQtQtQtQtQtQtQtQtQtQtQtQtQtQtQtQtQtQtQtQt",
"QtQtQtQtQtQtQtQtQtQtQtQtQtQtQtQtQtQtQtQtQtQtQtQtQtQtQtQtQtQtQtQtQtQtQtQtQtQtQtQtQtQtQtQtQtQtQtQt",
"QtQtQtQtQtQtQtQtQtQtQtQtQtQtQtQtQtQtQtQtQtQtQtQtQtQtQtQtQtQtQtQtQtQtQtQtQtQtQtQtQtQtQtQtQtQtQtQt",
"QtQtQtQtQtQtQtQtQtQtQtQtQtQtQtQtQtQtQtQtQtQtQtQtQtQtQtQtQtQtQtQtQtQtQtQtQtQtQtQtQtQtQtQtQtQtQtQt",
"QtQtQtQtQtQtQtQtQtQtQtQtQtQtQtQtQtQtQtQtQtQtQtQtQtQtQtQtQtQtQtQtQtQtQtQtQtQtQtQtQtQtQtQtQtQtQtQt",
"QtQtQtQtQtQtQtQtQtQtQtQtQtQtQtQtQtQtQtQtQtQtQtQtQtQtQtQtQtQtQtQtQtQtQtQtQtQtQtQtQtQtQtQtQtQtQtQt"};
