/* XPM */
static const char *xpmDelete16x16[]={
"16 16 4 1",
". c None",
"# c #000000",
"a c #808080",
"b c #ff0000",
"................",
"................",
"...........#....",
"...##a....#b#a..",
"....##a..#bbb#a.",
".....#b##bbb##aa",
"......#bbbb#aaaa",
".......#bb#aaa..",
"......#bbb#aa...",
".....#b#a#b#a...",
"....#b#aa.#b#a..",
"...#b#aa...##a..",
"...##aa.....##a.",
"...#aa.......#a.",
"...aa........aa.",
"................"};

