/* XPM */
static const char *xpmDisconnected16x16[] = {
/* columns rows colors chars-per-pixel */
"16 16 23 1",
"  c black",
". c #013301",
"X c #014d01",
"o c #018d01",
"O c #019501",
"+ c #019c01",
"@ c #01a401",
"# c #01ab01",
"$ c #02b302",
"% c #02bc02",
"& c #01c501",
"* c #03ca03",
"= c #09cb09",
"- c #04d404",
"; c #02dc02",
": c #0ed40e",
"> c #0edb0e",
", c #01e301",
"< c green",
"1 c #18e118",
"2 c white",
"3 c None",
"4 c yellow",
/* pixels */
"3333333333333333",
"3333333333333333",
"3333333333333333",
"333333334X333333",
"33333334X.333333",
"333   4X.3333333",
"33 :%  .3334X333",
"3 1>*$  334X.333",
"3 =-;*@  4X.3333",
"3 $&,,&O  .33333",
"33 #&,,%O  33333",
"333 @&;-#O 33333",
"33<X O$%@O 33333",
"3<X.3 oOO 333333",
"<X.333   3333333",
"X.33333333333333"
};


