/* XPM */
static const char * xpmFileOpen22[] = {
"22 22 264 2",
"  	c None",
". 	c #03C600",
"+ 	c #04C600",
"@ 	c #04C700",
"# 	c #05C700",
"$ 	c #07C900",
"% 	c #06C100",
"& 	c #88E081",
"* 	c #ACEAA5",
"= 	c #ABEAA5",
"- 	c #ACECA6",
"; 	c #AFECA9",
"> 	c #8CE585",
", 	c #2DC62D",
"' 	c #00B400",
") 	c #0EBB07",
"! 	c #D6F2D4",
"~ 	c #FFFFFF",
"{ 	c #D0EFCE",
"] 	c #5AC261",
"^ 	c #50C05B",
"/ 	c #13B415",
"( 	c #13B40D",
"_ 	c #C4EBBF",
": 	c #F6FCF3",
"< 	c #ECF9E9",
"[ 	c #EEF9EA",
"} 	c #EEFAEB",
"| 	c #F4FCF1",
"1 	c #CBE6C6",
"2 	c #58D05A",
"3 	c #8DCDA1",
"4 	c #3CD043",
"5 	c #00BE00",
"6 	c #16AB10",
"7 	c #BBE6B4",
"8 	c #E7F5E0",
"9 	c #DFF4DA",
"0 	c #E0F5DA",
"a 	c #E2F6DC",
"b 	c #E4F7DE",
"c 	c #DCE6D5",
"d 	c #47CE43",
"e 	c #2CB12B",
"f 	c #3C8339",
"g 	c #51994D",
"h 	c #1DA818",
"i 	c #19A412",
"j 	c #AFDFA6",
"k 	c #D5EECB",
"l 	c #CFEDC6",
"m 	c #D0EEC8",
"n 	c #D1EFC8",
"o 	c #D4F2CB",
"p 	c #D2EAC9",
"q 	c #89C680",
"r 	c #698861",
"s 	c #6F7468",
"t 	c #919387",
"u 	c #78AB71",
"v 	c #0E7E0A",
"w 	c #129A08",
"x 	c #9FD594",
"y 	c #C2E5B5",
"z 	c #BDE4B1",
"A 	c #BFE6B3",
"B 	c #C0E7B4",
"C 	c #C5EBB7",
"D 	c #C2EAB5",
"E 	c #AAC8A6",
"F 	c #8CA790",
"G 	c #84A091",
"H 	c #99B3A6",
"I 	c #92C986",
"J 	c #117F0B",
"K 	c #1E852A",
"L 	c #89CA7A",
"M 	c #B1DDA2",
"N 	c #ADDC9E",
"O 	c #AFDEA0",
"P 	c #B0E1A0",
"Q 	c #ADDEA0",
"R 	c #7898A5",
"S 	c #6B82AF",
"T 	c #768CB7",
"U 	c #8094C2",
"V 	c #879CBB",
"W 	c #90D681",
"X 	c #108012",
"Y 	c #4B619F",
"Z 	c #4D5FA6",
"` 	c #29714F",
" .	c #5CB344",
"..	c #7FC468",
"+.	c #7EC568",
"@.	c #87CB72",
"#.	c #99D882",
"$.	c #749C90",
"%.	c #7F8DBF",
"&.	c #B4BFE0",
"*.	c #B6C0E1",
"=.	c #B9C3E5",
"-.	c #99A8C9",
";.	c #749D93",
">.	c #577D8C",
",.	c #6B7DB3",
"'.	c #7385B9",
").	c #7889BB",
"!.	c #5F72A8",
"~.	c #475A92",
"{.	c #394F90",
"].	c #41539E",
"^.	c #21624C",
"/.	c #359B17",
"(.	c #50AD33",
"_.	c #51AE35",
":.	c #58B63A",
"<.	c #60B04F",
"[.	c #617B98",
"}.	c #A5AED4",
"|.	c #ABB6D7",
"1.	c #AAB6D8",
"2.	c #AAB7DA",
"3.	c #A5B2D8",
"4.	c #9BA5D5",
"5.	c #A6B1DD",
"6.	c #AAB8DE",
"7.	c #B1BEE5",
"8.	c #AAB9E2",
"9.	c #556799",
"0.	c #415385",
"a.	c #344A87",
"b.	c #394B98",
"c.	c #1E544F",
"d.	c #2F9113",
"e.	c #4CA82E",
"f.	c #4DA931",
"g.	c #52B230",
"h.	c #47884D",
"i.	c #7A87B1",
"j.	c #9EAACF",
"k.	c #95A3CA",
"l.	c #99A7CD",
"m.	c #9EABD2",
"n.	c #9EACD4",
"o.	c #A0AED7",
"p.	c #A1B0D9",
"q.	c #A2B1DC",
"r.	c #A6B6E3",
"s.	c #6F7FAE",
"t.	c #35477A",
"u.	c #31438E",
"v.	c #1E4956",
"w.	c #298214",
"x.	c #46A228",
"y.	c #48A52B",
"z.	c #4BA62F",
"A.	c #476F65",
"B.	c #616DA8",
"C.	c #5C70A7",
"D.	c #576CA6",
"E.	c #6074AD",
"F.	c #7284B9",
"G.	c #8697C5",
"H.	c #8F9ECC",
"I.	c #8E9FCE",
"J.	c #8A9CCF",
"K.	c #798CC4",
"L.	c #3E4D79",
"M.	c #344269",
"N.	c #2B3E7E",
"O.	c #1D405E",
"P.	c #217016",
"Q.	c #3F9D21",
"R.	c #43A224",
"S.	c #439131",
"T.	c #324571",
"U.	c #2F4689",
"V.	c #32498B",
"W.	c #3A5192",
"X.	c #3F5799",
"Y.	c #485EA0",
"Z.	c #546AAA",
"`.	c #5C72B0",
" +	c #6177B5",
".+	c #677EC0",
"++	c #485A8C",
"@+	c #293764",
"#+	c #1B3764",
"$+	c #195C17",
"%+	c #39961A",
"&+	c #3E9D1F",
"*+	c #356A3C",
"=+	c #233471",
"-+	c #273F80",
";+	c #2E4585",
">+	c #344B8B",
",+	c #3B5192",
"'+	c #415798",
")+	c #465C9E",
"!+	c #4C63A4",
"~+	c #546BAE",
"{+	c #5367A4",
"]+	c #2E395A",
"^+	c #252E4B",
"/+	c #1C2F62",
"(+	c #10431B",
"_+	c #349013",
":+	c #39931B",
"<+	c #243C45",
"[+	c #1A2F73",
"}+	c #203778",
"|+	c #263D7D",
"1+	c #2C4383",
"2+	c #32498A",
"3+	c #384F8F",
"4+	c #3E5595",
"5+	c #465D9E",
"6+	c #4E66A9",
"7+	c #394976",
"8+	c #1B254D",
"9+	c #0A2D1F",
"0+	c #2D8A0E",
"a+	c #2C6F1E",
"b+	c #152550",
"c+	c #14296E",
"d+	c #193070",
"e+	c #1F3576",
"f+	c #243B7B",
"g+	c #2B4183",
"h+	c #31488B",
"i+	c #385094",
"j+	c #3C5394",
"k+	c #3C4F88",
"l+	c #1C253A",
"m+	c #0A2221",
"n+	c #23750B",
"o+	c #1E4621",
"p+	c #0A195B",
"q+	c #0D2468",
"r+	c #132A6C",
"s+	c #172F71",
"t+	c #1D3477",
"u+	c #213673",
"v+	c #223264",
"w+	c #212E54",
"x+	c #1B2740",
"y+	c #141F2B",
"z+	c #0A171A",
"A+	c #134206",
"B+	c #0E2632",
"C+	c #03175D",
"D+	c #091D5A",
"E+	c #0D1E53",
"F+	c #0E1C42",
"G+	c #0E182E",
"H+	c #0D1520",
"I+	c #0A1316",
"J+	c #051106",
"K+	c #040E29",
"L+	c #060B16",
"M+	c #070B0D",
"N+	c #070B0A",
"O+	c #010406",
"                                            ",
"        . . . + @ # $                       ",
"      % & * = * - ; > , '                   ",
"      ) ! ~ ~ ~ ~ ~ { ] ^ /                 ",
"      ( _ : < [ } | 1 2 3 4 5               ",
"      6 7 8 9 0 a b c d e f g h             ",
"      i j k l m n o p q r s t u v           ",
"      w x y z A B C D E F G H I J           ",
"      K L M N O P Q R S T U V W X           ",
"  Y Z `  ...+.@.#.$.%.&.*.=.-.;.>.,.'.).!.  ",
"~.{.].^./.(._.:.<.[.}.|.1.2.3.4.5.6.7.8.9.  ",
"0.a.b.c.d.e.f.g.h.i.j.k.l.m.n.o.p.q.r.s.    ",
"  t.u.v.w.x.y.z.A.B.C.D.E.F.G.H.I.J.K.L.    ",
"  M.N.O.P.Q.R.S.T.U.V.W.X.Y.Z.`. +.+++      ",
"    @+#+$+%+&+*+=+-+;+>+,+'+)+!+~+{+]+      ",
"    ^+/+(+_+:+<+[+}+|+1+2+3+4+5+6+7+        ",
"      8+9+0+a+b+c+d+e+f+g+h+i+j+k+l+        ",
"        m+n+o+p+q+r+s+t+u+v+w+x+y+          ",
"        z+A+B+C+D+E+F+G+H+I+                ",
"          J+K+K+L+M+N+                      ",
"          O+                                ",
"                                            "};
