/* XPM */
static const char * xpmFileSave22[] = {
"22 22 405 2",
"  	c None",
". 	c #5369A8",
"+ 	c #5D70A8",
"@ 	c #6B7DAE",
"# 	c #697BAD",
"$ 	c #6A7CAE",
"% 	c #7082B4",
"& 	c #6B7DAF",
"* 	c #6A7CAD",
"= 	c #6476AA",
"- 	c #556BA9",
"; 	c #5B72B1",
"> 	c #5268A6",
", 	c #42599C",
"' 	c #9099B4",
") 	c #EDEAE0",
"! 	c #DFDEDA",
"~ 	c #E0DFDB",
"{ 	c #DAD9D5",
"] 	c #B9B7B4",
"^ 	c #BBB9B6",
"/ 	c #B8B6B3",
"( 	c #D7D6D2",
"_ 	c #E7E5DF",
": 	c #BBBEC6",
"< 	c #586DAC",
"[ 	c #8197D8",
"} 	c #5D73B2",
"| 	c #5066A1",
"1 	c #3A5291",
"2 	c #868FA7",
"3 	c #E5E3DF",
"4 	c #D7D7D7",
"5 	c #DADADA",
"6 	c #C6C6C6",
"7 	c #606060",
"8 	c #656565",
"9 	c #5D5D5D",
"0 	c #BEBEBE",
"a 	c #E2E2E0",
"b 	c #B1B5BE",
"c 	c #4E639D",
"d 	c #89A0E2",
"e 	c #7B91D0",
"f 	c #556BA5",
"g 	c #4D629D",
"h 	c #344986",
"i 	c #81879A",
"j 	c #E6E5E1",
"k 	c #C8C8C8",
"l 	c #6A6A6A",
"m 	c #6F6F6F",
"n 	c #686868",
"o 	c #C0C0C0",
"p 	c #AFB1B8",
"q 	c #47588C",
"r 	c #859DE0",
"s 	c #849ADB",
"t 	c #5569A2",
"u 	c #495E97",
"v 	c #2C407A",
"w 	c #7A7F8D",
"x 	c #E7E6E3",
"y 	c #E3E2E1",
"z 	c #ACAEB2",
"A 	c #3E4E7C",
"B 	c #839BDE",
"C 	c #8198D9",
"D 	c #51659C",
"E 	c #465A91",
"F 	c #24386E",
"G 	c #767A82",
"H 	c #EAEAE7",
"I 	c #616161",
"J 	c #666666",
"K 	c #5E5E5E",
"L 	c #E4E4E3",
"M 	c #ACADAF",
"N 	c #33426A",
"O 	c #8098DC",
"P 	c #7E94D6",
"Q 	c #4D6196",
"R 	c #43568B",
"S 	c #1E3165",
"T 	c #63646A",
"U 	c #EDEDEB",
"V 	c #EAEAE9",
"W 	c #ECECEB",
"X 	c #E2E2E1",
"Y 	c #B1B1B0",
"Z 	c #B3B3B2",
"` 	c #AFAFAE",
" .	c #DFDFDD",
"..	c #F1F1EF",
"+.	c #98999A",
"@.	c #2D3A5D",
"#.	c #7E96DB",
"$.	c #7B91D3",
"%.	c #4A5C8E",
"&.	c #3C4E7F",
"*.	c #2D427F",
"=.	c #262E46",
"-.	c #3E3F41",
";.	c #46474A",
">.	c #444649",
",.	c #444548",
"'.	c #434548",
").	c #4C4D50",
"!.	c #4D4E51",
"~.	c #454649",
"{.	c #404143",
"].	c #313544",
"^.	c #556699",
"/.	c #758DCF",
"(.	c #778ECF",
"_.	c #455686",
":.	c #374774",
"<.	c #304789",
"[.	c #2D4380",
"}.	c #263B74",
"|.	c #283D76",
"1.	c #30437E",
"2.	c #324681",
"3.	c #354A84",
"4.	c #394D87",
"5.	c #3B5089",
"6.	c #3F538D",
"7.	c #415690",
"8.	c #455993",
"9.	c #485C96",
"0.	c #4A5F99",
"a.	c #4E619B",
"b.	c #596EAA",
"c.	c #6B83C2",
"d.	c #6D84C4",
"e.	c #7389CB",
"f.	c #41507E",
"g.	c #32426C",
"h.	c #2A4183",
"i.	c #2F4687",
"j.	c #334A8B",
"k.	c #364D8F",
"l.	c #3A5193",
"m.	c #3E5596",
"n.	c #42589A",
"o.	c #455C9E",
"p.	c #495FA1",
"q.	c #4D63A5",
"r.	c #5066A8",
"s.	c #546AAC",
"t.	c #576EAF",
"u.	c #5B71B3",
"v.	c #5E74B7",
"w.	c #6178BA",
"x.	c #647BBC",
"y.	c #677DBE",
"z.	c #6A80C1",
"A.	c #6F86C8",
"B.	c #3C4C76",
"C.	c #2D3C64",
"D.	c #263E7F",
"E.	c #283F7F",
"F.	c #223A7D",
"G.	c #1E367C",
"H.	c #203980",
"I.	c #253E85",
"J.	c #294188",
"K.	c #2C458C",
"L.	c #314990",
"M.	c #364E95",
"N.	c #395199",
"O.	c #3E559E",
"P.	c #4259A3",
"Q.	c #475EA8",
"R.	c #4B62AC",
"S.	c #5066B0",
"T.	c #546AB5",
"U.	c #5C72B9",
"V.	c #657BBD",
"W.	c #6C83C4",
"X.	c #38466E",
"Y.	c #29365B",
"Z.	c #1F3779",
"`.	c #2A407F",
" +	c #7080AA",
".+	c #AEB7D0",
"++	c #B2BAD3",
"@+	c #B2BBD3",
"#+	c #B3BCD5",
"$+	c #B4BED5",
"%+	c #B4BED3",
"&+	c #B2BDD1",
"*+	c #B1BFCF",
"=+	c #B0BECC",
"-+	c #ADBEC9",
";+	c #ABBEC5",
">+	c #A8BEC0",
",+	c #A7BEBC",
"'+	c #A3BCB8",
")+	c #839BB5",
"!+	c #6379B7",
"~+	c #667CC0",
"{+	c #344065",
"]+	c #253153",
"^+	c #0E286D",
"/+	c #6D7CA6",
"(+	c #FCFCFD",
"_+	c #FFFFFF",
":+	c #FFFFFE",
"<+	c #FFFFF9",
"[+	c #FDFFF1",
"}+	c #F8FFE9",
"|+	c #F2FFE0",
"1+	c #EBFCD7",
"2+	c #E4F9CD",
"3+	c #DDF6C4",
"4+	c #D7F3BA",
"5+	c #D1F1B0",
"6+	c #C1E4A7",
"7+	c #7E99AE",
"8+	c #5C72BD",
"9+	c #303B5D",
"0+	c #212C4A",
"a+	c #061F67",
"b+	c #8793B5",
"c+	c #FFFFFA",
"d+	c #F9FCF4",
"e+	c #F4FAED",
"f+	c #F1FAE5",
"g+	c #EAF7DD",
"h+	c #E5F4D3",
"i+	c #DDF1CB",
"j+	c #D4EEC3",
"k+	c #D0ECB8",
"l+	c #CAE9AF",
"m+	c #C5E7A6",
"n+	c #C0E59E",
"o+	c #C4EF96",
"p+	c #85A6A4",
"q+	c #566BBA",
"r+	c #2B3654",
"s+	c #1D2742",
"t+	c #021B63",
"u+	c #8590B3",
"v+	c #DFEFEE",
"w+	c #D4EAE6",
"x+	c #D1E8E3",
"y+	c #DDF0E2",
"z+	c #DDEFDE",
"A+	c #C6E4D6",
"B+	c #C5E3D1",
"C+	c #C1E1CC",
"D+	c #C3E4C3",
"E+	c #CEEBB1",
"F+	c #BCE1B5",
"G+	c #B1DBB7",
"H+	c #AFDAB1",
"I+	c #ACD9AF",
"J+	c #B5E59C",
"K+	c #80A29B",
"L+	c #5166B5",
"M+	c #26314C",
"N+	c #18213A",
"O+	c #00175F",
"P+	c #818EAF",
"Q+	c #D0E8DF",
"R+	c #C1E1D5",
"S+	c #BCDED1",
"T+	c #CDE8D1",
"U+	c #D2EBCD",
"V+	c #B2DBC3",
"W+	c #B3DBC0",
"X+	c #ACD7BE",
"Y+	c #B5DEB1",
"Z+	c #C7EA9C",
"`+	c #B0DCA7",
" @	c #A4D4AE",
".@	c #A3D4AE",
"+@	c #A3D4AB",
"@@	c #B1E49C",
"#@	c #7D9F97",
"$@	c #4D61B1",
"%@	c #222B44",
"&@	c #141B32",
"*@	c #00145D",
"=@	c #7C8BA8",
"-@	c #FFFFF7",
";@	c #C2E1D9",
">@	c #B0D8D3",
",@	c #C1E1D1",
"'@	c #CFEACC",
")@	c #A7D3CC",
"!@	c #ADD7CA",
"~@	c #ACD7C5",
"{@	c #C2E5AA",
"]@	c #A4D3C3",
"^@	c #A1D1C2",
"/@	c #A2D2BE",
"(@	c #A2D2B9",
"_@	c #AFDE8F",
":@	c #9FD1BA",
"<@	c #AFE2A5",
"[@	c #7B9D93",
"}@	c #475CAC",
"|@	c #1E253C",
"1@	c #10172B",
"2@	c #00105B",
"3@	c #75879F",
"4@	c #FCFFE8",
"5@	c #D2EBD2",
"6@	c #C8E6CA",
"7@	c #C7E6C4",
"8@	c #C7E6BD",
"9@	c #BBE0B7",
"0@	c #BAE1AC",
"a@	c #B5DEAA",
"b@	c #B5DFA1",
"c@	c #ACDBA1",
"d@	c #AAD99E",
"e@	c #AADA97",
"f@	c #AADA9A",
"g@	c #ACDB94",
"h@	c #A9D99D",
"i@	c #B5E794",
"j@	c #789993",
"k@	c #4257A6",
"l@	c #192035",
"m@	c #0C1225",
"n@	c #000E59",
"o@	c #6F8397",
"p@	c #F3FFD7",
"q@	c #B3DBC5",
"r@	c #A5D3C3",
"s@	c #A6D4C1",
"t@	c #A4D3BF",
"u@	c #A0D1C0",
"v@	c #B5DF9F",
"w@	c #A5D5B2",
"x@	c #9DD0BE",
"y@	c #A0D1B8",
"z@	c #9ED1BD",
"A@	c #ACDC95",
"B@	c #A3D4AD",
"C@	c #9FD0BC",
"D@	c #9FD1BB",
"E@	c #B0E3A6",
"F@	c #76988F",
"G@	c #3C52A1",
"H@	c #151B2E",
"I@	c #090E1F",
"J@	c #000B58",
"K@	c #68808D",
"L@	c #E6FFC5",
"M@	c #BCE0C1",
"N@	c #B1DBBA",
"O@	c #AEDAB6",
"P@	c #ACD9B2",
"Q@	c #A7D6B1",
"R@	c #A6D7AA",
"S@	c #AFDD8D",
"T@	c #A4D6AA",
"U@	c #A5D6A9",
"V@	c #A3D4AF",
"W@	c #AEDD8F",
"X@	c #A7D7A4",
"Y@	c #A4D5AC",
"Z@	c #B4E69D",
"`@	c #73958D",
" #	c #374D9D",
".#	c #121727",
"+#	c #060B19",
"@#	c #000858",
"##	c #67838D",
"$#	c #E7FFBF",
"%#	c #BCE9BA",
"&#	c #B4E5B9",
"*#	c #B2E4B4",
"=#	c #B1E4B1",
"-#	c #AFE3B0",
";#	c #B0E3B0",
">#	c #B1E4AE",
",#	c #B8EB99",
"'#	c #B0E4B2",
")#	c #B0E4B1",
"!#	c #AFE3B3",
"~#	c #B8EA9A",
"{#	c #B1E5AD",
"]#	c #AFE3B4",
"^#	c #C0F5A6",
"/#	c #789C93",
"(#	c #32489A",
"_#	c #0F1321",
":#	c #010513",
"<#	c #13181B",
"[#	c #272E23",
"}#	c #262C1F",
"|#	c #252C1D",
"1#	c #242B1C",
"2#	c #232B1B",
"3#	c #222B19",
"4#	c #212A1C",
"5#	c #222B1A",
"6#	c #242D1A",
"7#	c #161D1E",
"8#	c #0B0F1E",
"  . + @ # # # # # # # $ % % % & * = - ;     ",
"> , ' ) ! ! ! ! ! ! ~ { ] ^ / ( _ : < [ }   ",
"| 1 2 3 4 4 4 4 4 4 5 6 7 8 9 0 a b c d e f ",
"g h i j 4 4 4 4 4 4 5 k l m n o a p q r s t ",
"u v w x 4 4 4 4 4 4 5 k l m n o y z A B C D ",
"E F G H 4 4 4 4 4 4 5 6 I J K 0 L M N O P Q ",
"R S T U U V V V V V W X Y Z `  ...+.@.#.$.%.",
"&.*.=.-.;.>.,.,.,.,.'.>.).).!.~.{.].^./.(._.",
":.<.[.}.|.v 1.2.3.4.5.6.7.8.9.0.a.b.c.d.e.f.",
"g.h.i.j.k.l.m.n.o.p.q.r.s.t.u.v.w.x.y.z.A.B.",
"C.D.E.F.G.H.I.J.K.L.M.N.O.P.Q.R.S.T.U.V.W.X.",
"Y.Z.`. +.+++@+#+$+%+&+*+=+-+;+>+,+'+)+!+~+{+",
"]+^+/+(+_+_+_+_+:+<+[+}+|+1+2+3+4+5+6+7+8+9+",
"0+a+b+_+_+_+c+d+e+f+g+h+i+j+k+l+m+n+o+p+q+r+",
"s+t+u+_+v+w+x+y+z+A+B+C+D+E+F+G+H+I+J+K+L+M+",
"N+O+P+_+Q+R+S+T+U+V+W+X+Y+Z+`+ @.@+@@@#@$@%@",
"&@*@=@-@;@>@,@'@)@!@~@{@]@^@/@(@_@:@<@[@}@|@",
"1@2@3@4@5@6@7@8@9@0@a@b@c@d@e@f@g@h@i@j@k@l@",
"m@n@o@p@q@r@s@t@u@v@w@x@y@z@A@B@C@D@E@F@G@H@",
"I@J@K@L@M@W+N@O@P@Q@R@S@T@U@V@W@X@Y@Z@`@ #.#",
"+#@###$#%#&#*#=#-#;#>#,#'#)#!#~#{#]#^#/#(#_#",
"  :#<#[#}#|#1#2#3#3#3#4#3#3#3#4#5#3#6#7#8#  "};
