/* XPM */
static const char * xpmFileNew22[] = {
"22 22 267 2",
"  	c None",
". 	c #10CB05",
"+ 	c #0DCB02",
"@ 	c #0ECC04",
"# 	c #0FCC04",
"$ 	c #0FCD04",
"% 	c #10CE06",
"& 	c #11CF07",
"* 	c #10D406",
"= 	c #0AA607",
"- 	c #27CC1F",
"; 	c #B5EAAA",
"> 	c #C8F1C0",
", 	c #C4F1BD",
"' 	c #C6F1BD",
") 	c #C6F2BE",
"! 	c #C7F4BF",
"~ 	c #CEF5C5",
"{ 	c #8AE284",
"] 	c #35C13B",
"^ 	c #0D9D0E",
"/ 	c #32C92B",
"( 	c #EDF9E9",
"_ 	c #FFFFFF",
": 	c #AFE5AC",
"< 	c #61C46C",
"[ 	c #78C38A",
"} 	c #0FB20D",
"| 	c #33C42C",
"1 	c #E4F4DD",
"2 	c #F3FBF1",
"3 	c #EFFAEC",
"4 	c #F0FAED",
"5 	c #F0FBED",
"6 	c #F1FCEE",
"7 	c #F4FCF2",
"8 	c #B0DFAC",
"9 	c #5BD562",
"0 	c #D7DCF3",
"a 	c #85D295",
"b 	c #19C919",
"c 	c #32BC2B",
"d 	c #DAF0D2",
"e 	c #E8F6E2",
"f 	c #E4F6DF",
"g 	c #E5F6E0",
"h 	c #E6F7E0",
"i 	c #E7F8E2",
"j 	c #E8F9E3",
"k 	c #CAE1C5",
"l 	c #38D038",
"m 	c #5CD164",
"n 	c #32AC32",
"o 	c #33A72F",
"p 	c #13BC0D",
"q 	c #31B52B",
"r 	c #CFEBC5",
"s 	c #D8F0D1",
"t 	c #D7EFCF",
"u 	c #D8F1D0",
"v 	c #D8F2D1",
"w 	c #DAF3D2",
"x 	c #DBF5D4",
"y 	c #CDE6C7",
"z 	c #50C04B",
"A 	c #44803F",
"B 	c #575953",
"C 	c #747871",
"D 	c #839E7C",
"E 	c #30AC28",
"F 	c #2FAC28",
"G 	c #C1E4B5",
"H 	c #C8E8BE",
"I 	c #C7E9BD",
"J 	c #C8EABE",
"K 	c #C9EBBF",
"L 	c #CBEDC0",
"M 	c #CDEFC3",
"N 	c #A7C29E",
"O 	c #8B9B85",
"P 	c #8AA184",
"Q 	c #A0BA97",
"R 	c #B5CDAD",
"S 	c #57B550",
"T 	c #2AA123",
"U 	c #AEDCA0",
"V 	c #B6E0A8",
"W 	c #B6E1A8",
"X 	c #B7E3AA",
"Y 	c #B9E4AB",
"Z 	c #BBE6AE",
"` 	c #BDE8B0",
" .	c #BDE6AF",
"..	c #B4DAA7",
"+.	c #ABD19F",
"@.	c #B2D9A7",
"#.	c #BFE7B2",
"$.	c #C6EEB9",
"%.	c #58C14F",
"&.	c #22951C",
"*.	c #9BD18B",
"=.	c #A6D797",
"-.	c #A6D897",
";.	c #A8DB9A",
">.	c #AADD9A",
",.	c #ABDF9C",
"'.	c #ADE19D",
").	c #AEE19E",
"!.	c #B1E3A1",
"~.	c #B4E7A3",
"{.	c #B8EBA8",
"].	c #BCEFAB",
"^.	c #51BD48",
"/.	c #168610",
"(.	c #68B651",
"_.	c #72BE5B",
":.	c #74C05D",
"<.	c #7BC564",
"[.	c #8BCD77",
"}.	c #98D485",
"|.	c #9BD789",
"1.	c #9CD989",
"2.	c #9EDB8B",
"3.	c #A1DE8F",
"4.	c #A3E091",
"5.	c #A7E394",
"6.	c #ACE798",
"7.	c #4BAB40",
"8.	c #0D7806",
"9.	c #40A026",
"0.	c #4DA92F",
"a.	c #4EAB31",
"b.	c #53B036",
"c.	c #5BB53F",
"d.	c #68BE4E",
"e.	c #80C96A",
"f.	c #8DD078",
"g.	c #8ED379",
"h.	c #90D47A",
"i.	c #92D77E",
"j.	c #96DC82",
"k.	c #9DE087",
"l.	c #49A33C",
"m.	c #0B6B05",
"n.	c #3C9923",
"o.	c #4BA72E",
"p.	c #4DA830",
"q.	c #50AC34",
"r.	c #55B238",
"s.	c #5CB840",
"t.	c #6EC254",
"u.	c #7CC964",
"v.	c #80CD69",
"w.	c #83CF6B",
"x.	c #86D36E",
"y.	c #8EDB75",
"z.	c #479F3A",
"A.	c #065D02",
"B.	c #338E1D",
"C.	c #47A32A",
"D.	c #48A32B",
"E.	c #4BA72F",
"F.	c #4EAA32",
"G.	c #52AE36",
"H.	c #56B239",
"I.	c #58B53C",
"J.	c #61BB46",
"K.	c #6AC150",
"L.	c #72C658",
"M.	c #75C95B",
"N.	c #7FD364",
"O.	c #459B36",
"P.	c #2B8216",
"Q.	c #439F25",
"R.	c #439F27",
"S.	c #46A22A",
"T.	c #4AA52D",
"U.	c #4DA931",
"V.	c #51AD35",
"W.	c #54B038",
"X.	c #57B33A",
"Y.	c #5BB73E",
"Z.	c #60BB44",
"`.	c #65BF48",
" +	c #6FCB51",
".+	c #439932",
"++	c #237311",
"@+	c #3E9B20",
"#+	c #3E9A22",
"$+	c #419D25",
"%+	c #45A028",
"&+	c #48A42C",
"*+	c #4CA830",
"=+	c #4FAB33",
"-+	c #53AF37",
";+	c #57B23A",
">+	c #5AB63E",
",+	c #5EBA42",
"'+	c #67C54A",
")+	c #479B33",
"!+	c #19620C",
"~+	c #38951B",
"{+	c #39951D",
"]+	c #3D9820",
"^+	c #409C24",
"/+	c #47A32B",
"(+	c #4AA62E",
"_+	c #55B139",
":+	c #59B43C",
"<+	c #61BE44",
"[+	c #4CA036",
"}+	c #084105",
"|+	c #104B06",
"1+	c #318D15",
"2+	c #349119",
"3+	c #37941C",
"4+	c #3C9820",
"5+	c #429E26",
"6+	c #45A129",
"7+	c #49A42C",
"8+	c #54AF37",
"9+	c #5AB93E",
"0+	c #52AA39",
"a+	c #0F410A",
"b+	c #073102",
"c+	c #2B8510",
"d+	c #318D14",
"e+	c #348F17",
"f+	c #37921A",
"g+	c #3A961E",
"h+	c #3D9921",
"i+	c #44A028",
"j+	c #49A72C",
"k+	c #4EAF31",
"l+	c #51B134",
"m+	c #50AB34",
"n+	c #4BA032",
"o+	c #113E0B",
"p+	c #011C00",
"q+	c #25780C",
"r+	c #2E8B11",
"s+	c #2F8B13",
"t+	c #328F16",
"u+	c #369219",
"v+	c #3A981D",
"w+	c #3E9E21",
"x+	c #409E23",
"y+	c #398C20",
"z+	c #30761D",
"A+	c #235B16",
"B+	c #153F0D",
"C+	c #042103",
"D+	c #1A5F07",
"E+	c #2C8F0D",
"F+	c #2D8C0F",
"G+	c #2D8912",
"H+	c #2D8314",
"I+	c #246A11",
"J+	c #194C0C",
"K+	c #0D2D07",
"L+	c #062003",
"M+	c #0F3B03",
"N+	c #1C6407",
"O+	c #154706",
"P+	c #0C2B03",
"Q+	c #010E00",
"R+	c #010900",
"        . + @ # $ % & * =                   ",
"      - ; > , ' ) ! ~ { ] ^                 ",
"      / ( _ _ _ _ _ _ : < [ }               ",
"      | 1 2 3 4 5 6 7 8 9 0 a b             ",
"      c d e f g h i j k l m n o p           ",
"      q r s t u v w x y z A B C D E         ",
"      F G H I J K L M I N O P Q R S         ",
"      T U V W X Y Z `  ...+.@.#.$.%.        ",
"      &.*.=.-.;.>.>.,.'.).!.~.{.].^.        ",
"      /.(._.:.<.[.}.|.1.2.3.4.5.6.7.        ",
"      8.9.0.a.b.c.d.e.f.g.h.i.j.k.l.        ",
"      m.n.o.p.q.b.r.s.t.u.v.w.x.y.z.        ",
"      A.B.C.D.E.F.G.H.I.J.K.L.M.N.O.        ",
"        P.Q.R.S.T.U.V.W.X.Y.Z.`. +.+        ",
"        ++@+#+$+%+&+*+=+-+;+>+,+'+)+        ",
"        !+~+{+]+^+R./+(+F.G._+:+<+[+}+      ",
"        |+1+2+3+4+#+5+6+7+*+q.8+9+0+a+      ",
"        b+c+d+e+f+g+h+^+i+j+k+l+m+n+o+      ",
"        p+q+r+s+t+u+v+w+x+y+z+A+B+C+        ",
"          D+E+F+G+H+I+J+K+L+                ",
"          M+N+O+P+Q+                        ",
"          R+                                "};
