/* XPM */
static const char *xpmFileOpen16x16[] = {
/* width height num_colors chars_per_pixel */
"    16    16       99            2",
/* colors */
".. c #000000",
".# c #003b5c",
".a c #020202",
".b c #0b4423",
".c c #0c4926",
".d c #0d4a27",
".e c #0d4c28",
".f c #0d4e29",
".g c #141414",
".h c #1b8244",
".i c #1ead61",
".j c #22c357",
".k c #277c4f",
".l c #292929",
".m c #297e51",
".n c #2a7f52",
".o c #2a9550",
".p c #2d8655",
".q c #2e2e2e",
".r c #2f2f2f",
".s c #323232",
".t c #329359",
".u c #363636",
".v c #393939",
".w c #3a3738",
".x c #3e7f58",
".y c #3f3f3f",
".z c #40835c",
".A c #424242",
".B c #464646",
".C c #484848",
".D c #505050",
".E c #51cc7a",
".F c #585858",
".G c #606060",
".H c #625c52",
".I c #686868",
".J c #6bd28d",
".K c #6eb788",
".L c #72644f",
".M c #727272",
".N c #807055",
".O c #81c097",
".P c #837e78",
".Q c #868078",
".R c #87837e",
".S c #88785b",
".T c #8a795c",
".U c #8a8173",
".V c #928a7b",
".W c #948b7b",
".X c #948c82",
".Y c #94b1a0",
".Z c #9d9d9d",
".0 c #9e9b9b",
".1 c #a3e6bc",
".2 c #a5a3a2",
".3 c #a6d5b8",
".4 c #a7a7a7",
".5 c #aaaaaa",
".6 c #afafaf",
".7 c #b0adae",
".8 c #b0b0b0",
".9 c #b5b5b5",
"#. c #bbbbbb",
"## c #c0c0c0",
"#a c #c1bebf",
"#b c #c6c6c6",
"#c c #c9c6c7",
"#d c #cacaca",
"#e c #ccb389",
"#f c #cccccc",
"#g c #cdcccd",
"#h c #cecece",
"#i c #d0efda",
"#j c #d1d1d1",
"#k c #d2e7d9",
"#l c #d5d4d4",
"#m c #d6d6d6",
"#n c #d7c19f",
"#o c #dbdbdb",
"#p c #dedede",
"#q c #dfdfdf",
"#r c #e1e1e1",
"#s c #e1e2e2",
"#t c #e3d1b8",
"#u c #e4e4e4",
"#v c #e9e9e9",
"#w c #eae0d1",
"#x c #eaeaea",
"#y c #ede0cd",
"#z c #eeeeee",
"#A c #f2f1f1",
"#B c #f3f0ec",
"#C c #f5f2ef",
"#D c #f6f6f6",
"#E c #f9f8f8",
"#F c #fefefe",
"#G c none",
/* pixels */
"#G#G#G#G.a.C#G#G#G#G#G#G#G#G#G#G",
"#G#G#G.g#u#v.C.C.r#G#G#G#G#G#G#G",
"#G#G#G..#G#A#z#u#u.D.a.C.M.a#G#G",
"#G#G#F..#G.P.Q#u#E#E#z#u#u#c.a#G",
".f.h.f.f#G.R#B.V.T.W#u#E#E#z#c.B",
".f.1#i.3.h.f.f#C#w#y.X.T.U#u#u.y",
".f.E.J.O.3#k.3.h.f.f#w#t#n.S#l.y",
"#G.f.j.o.o.K.O.3#k.3.h.##e.N#g.y",
"#G.f.i.m.p.p.o.o.K.O.3#k.f.L#a.y",
"#G..#D#D.Y.z.n.p.p.o.o.K.f.H#a.y",
"#G#G.A#z#x#s#r.Y.z.k.p.p.x.b.7.y",
"#G#G.u#q#q#p#o#m#j#f.Y.t.m.c.2.y",
"#G#G#G.a.u.I###h#d#b###.#..e.0.y",
"#G#G#G#G#G#G.a.s.G.6#..9.8.5.d.y",
"#G#G#G#G#G#G#G#G#G.a.q.F.Z.4.f.v",
"#G#G#G#G#G#G#G#G#G#G#G#G.a.l.w#G"
};

