/* XPM */
static char *New_xpm[]={
"48 48 129 2",
"Qt c None",
".f c #000000",
".0 c #0b0b0a",
".G c #323332",
".e c #333332",
".d c #3b3b3b",
".c c #444444",
".b c #4b4b4b",
".w c #505253",
".a c #515151",
".# c #555555",
".K c #565c56",
".C c #5c5c5d",
".F c #606061",
".p c #6a6b6a",
"#4 c #71bd78",
".E c #747974",
"#0 c #7bbf81",
".J c #7d877f",
".U c #7e8e81",
"#R c #82be87",
".O c #879388",
"#i c #8aa58e",
"#J c #8abf8f",
"a. c #8fc393",
".R c #909a91",
"#j c #93bc97",
".I c #97a69a",
"#9 c #99c49e",
".k c #9d9d9d",
"#8 c #a0c5a5",
".N c #a1afa5",
"#3 c #a2e3a8",
"#7 c #a3c6a7",
"#1 c #a3e4a9",
".Q c #a5b1a6",
"#5 c #a7e4ae",
"#Z c #a9e5af",
"#6 c #aac6ac",
".j c #acb6ad",
"#X c #ace6b2",
".s c #aeaeae",
"#W c #b0e7b5",
".6 c #b3c5b5",
".i c #b4bcb7",
"#Q c #b4e8b9",
"#b c #b6cab9",
"#M c #b6e5bd",
"#P c #b8e9be",
".M c #bbc4bd",
"#I c #bbe6c1",
"#2 c #bbeac1",
".Z c #beccc3",
"#C c #beeac3",
"#Y c #bfecc4",
".h c #c0c0c1",
"#H c #c1ecc6",
"#V c #c1ecc7",
".P c #c2c7c4",
"#t c #c4e5ca",
"#y c #c4e9c9",
"#U c #c4edc8",
".5 c #c5d6ca",
"#h c #c5e0c9",
".S c #c6d2c7",
"#L c #c6edcb",
"#G c #c7eecb",
".g c #c9c9c9",
"#n c #c9e6cd",
"#K c #c9eece",
"#a c #cae0cd",
"#s c #cbebcf",
"#B c #cbefcf",
"#g c #cce7d0",
".B c #cdd1cf",
".Y c #cddcd0",
".4 c #cedfd2",
"#x c #cff0d2",
"#T c #d1f0d4",
"#F c #d1f0d6",
".r c #d2d4d2",
"## c #d2ead5",
".L c #d4dbd7",
"#w c #d4f1d8",
"#S c #d6f1da",
".x c #d7d7d7",
".T c #d7e2d8",
"#O c #d7f2d9",
"#v c #d7f2db",
".o c #d8d9d8",
"#r c #d9f2dc",
".3 c #daecdc",
"#m c #dcf3e0",
"#f c #ddf0df",
".v c #dfe2e0",
"#. c #dff2e1",
"#E c #dff4e1",
"#A c #dff4e2",
"#l c #e1f4e4",
".n c #e3e3e3",
"#q c #e3f5e5",
".X c #e4f2e5",
".q c #e5e7e6",
"#e c #e6f5e8",
"#N c #e7f6e9",
"#d c #e8f7ea",
".2 c #e9f4ea",
".9 c #e9f8ea",
"#p c #e9f8eb",
"#o c #ebf8ed",
"#D c #ebf8ee",
".u c #edeeed",
".W c #eef5ef",
".8 c #eff9f0",
"#c c #f0f9f2",
".A c #f1f2f1",
".1 c #f1faf2",
"#z c #f3faf4",
"#u c #f3faf5",
".m c #f5f5f5",
".V c #f6fbf6",
".D c #f8f9f8",
"#k c #f8fbf9",
".7 c #f9fcf9",
".z c #faf9f9",
".H c #fafafa",
".t c #fbfcfb",
".y c #fefefe",
".l c #ffffff",
"QtQtQtQtQtQtQtQtQtQtQtQtQtQtQtQtQtQtQtQtQtQtQtQtQtQtQtQtQtQtQtQtQtQtQtQtQtQtQtQtQtQtQtQtQtQtQtQt",
"QtQtQtQtQtQtQt.#.#.#.a.a.b.b.b.b.c.c.c.d.d.d.d.d.e.e.e.e.e.fQtQtQtQtQtQtQtQtQtQtQtQtQtQtQtQtQtQt",
"QtQtQtQtQtQtQt.#.g.g.g.g.g.g.g.g.g.g.g.g.g.g.h.h.i.j.j.k.k.c.fQtQtQtQtQtQtQtQtQtQtQtQtQtQtQtQtQt",
"QtQtQtQtQtQtQt.#.g.l.l.l.l.l.l.l.l.l.l.l.l.l.l.l.m.n.n.o.o.c.p.fQtQtQtQtQtQtQtQtQtQtQtQtQtQtQtQt",
"QtQtQtQtQtQtQt.#.g.l.l.l.l.l.l.l.l.l.l.l.l.l.l.l.m.q.n.o.r.c.s.p.fQtQtQtQtQtQtQtQtQtQtQtQtQtQtQt",
"QtQtQtQtQtQtQt.a.g.l.l.l.l.l.l.l.l.l.l.l.l.l.l.l.t.m.u.v.g.w.x.s.p.fQtQtQtQtQtQtQtQtQtQtQtQtQtQt",
"QtQtQtQtQtQtQt.a.g.l.l.l.l.l.l.l.l.l.l.l.l.l.l.l.y.z.m.q.h.#.l.x.s.p.fQtQtQtQtQtQtQtQtQtQtQtQtQt",
"QtQtQtQtQtQtQt.a.g.l.l.l.l.l.l.l.l.l.l.l.l.l.l.l.l.y.l.A.B.C.l.l.x.s.p.fQtQtQtQtQtQtQtQtQtQtQtQt",
"QtQtQtQtQtQtQt.a.g.l.l.l.l.l.l.l.l.l.l.l.l.l.l.l.l.l.l.D.r.E.l.l.l.x.s.p.fQtQtQtQtQtQtQtQtQtQtQt",
"QtQtQtQtQtQtQt.a.g.l.l.l.l.l.l.l.l.l.l.l.l.l.l.l.l.l.l.l.u.F.l.l.l.l.x.s.p.fQtQtQtQtQtQtQtQtQtQt",
"QtQtQtQtQtQtQt.b.g.l.l.l.l.l.l.l.l.l.l.l.l.l.l.l.l.l.l.l.l.w.x.l.l.l.l.x.s.p.fQtQtQtQtQtQtQtQtQt",
"QtQtQtQtQtQtQt.b.g.l.l.l.l.l.l.l.l.l.l.l.l.l.l.l.l.l.l.l.l.a.s.x.l.l.l.l.x.s.p.fQtQtQtQtQtQtQtQt",
"QtQtQtQtQtQtQt.b.g.l.l.l.l.l.l.l.l.l.l.l.l.l.l.l.l.l.l.l.l.a.p.s.x.l.l.l.l.x.s.p.fQtQtQtQtQtQtQt",
"QtQtQtQtQtQtQt.b.g.l.l.l.l.l.l.l.l.l.l.l.l.l.l.l.l.l.l.l.l.a.a.b.b.b.c.c.d.d.d.G.f.fQtQtQtQtQtQt",
"QtQtQtQtQtQtQt.b.g.l.l.l.l.l.l.l.l.l.l.l.l.l.l.l.l.l.l.l.H.H.o.B.B.i.I.I.J.E.E.E.K.fQtQtQtQtQtQt",
"QtQtQtQtQtQtQt.b.g.l.l.l.l.l.l.l.l.l.l.l.l.l.l.l.l.l.l.l.H.H.v.L.B.M.N.I.O.J.J.E.K.fQtQtQtQtQtQt",
"QtQtQtQtQtQtQt.b.g.l.l.l.l.l.l.l.l.l.l.l.l.l.l.l.l.l.l.l.l.l.A.q.v.r.P.i.Q.I.R.J.K.fQtQtQtQtQtQt",
"QtQtQtQtQtQtQt.b.g.l.l.l.l.l.l.l.l.l.l.l.l.l.l.l.l.l.l.l.l.l.H.A.u.v.o.S.M.j.Q.R.p.fQtQtQtQtQtQt",
"QtQtQtQtQtQtQt.b.g.l.l.l.l.l.l.l.l.l.l.l.l.l.l.l.l.l.l.l.l.l.H.A.A.q.T.L.S.M.i.Q.U.fQtQtQtQtQtQt",
"QtQtQtQtQtQtQt.b.g.l.l.l.l.l.l.l.l.l.l.l.l.l.l.l.l.l.l.l.t.t.V.W.W.X.T.T.Y.S.Z.i.O.0QtQtQtQtQtQt",
"QtQtQtQtQtQtQt.c.g.l.l.l.l.l.l.l.l.l.l.l.l.l.l.l.l.l.l.t.V.V.1.2.2.X.3.3.4.4.5.6.J.eQtQtQtQtQtQt",
"QtQtQtQtQtQtQt.c.g.l.l.l.l.l.l.l.l.l.l.l.l.l.l.l.l.l.l.t.V.V.1.2.2.X.3.3.4.4.Y.6.J.eQtQtQtQtQtQt",
"QtQtQtQtQtQtQt.c.g.l.l.l.l.l.l.l.l.l.l.l.l.l.l.l.l.7.7.V.1.1.8.9.9#..3.3###a#a#b.U.eQtQtQtQtQtQt",
"QtQtQtQtQtQtQt.c.g.l.l.l.l.l.l.l.l.l.l.l.l.l.l.l.7.V.V#c.8.8#d#e#e#f.3.3###g#g#h#i.0QtQtQtQtQtQt",
"QtQtQtQtQtQtQt.c.g.l.l.l.l.l.l.l.l.l.l.l.l.l.l.l.7.V.V#c.8.8#d#e#e#f.3.3###g#g#g#j.fQtQtQtQtQtQt",
"QtQtQtQtQtQtQt.c.g.l.l.l.l.l.l.l.l.l.l.l.l.l#k#k.V.8.8.8#d#d#e#l#l#m.3.3###n#n#n#j.fQtQtQtQtQtQt",
"QtQtQtQtQtQtQt.c.g.l.l.l.l.l.l.l.l.l.l.y.y#k.V.V.8#o#o#p#q#q#l#m#m#r#####s#t#t#t#j.fQtQtQtQtQtQt",
"QtQtQtQtQtQtQt.c.g.l.l.l.l.l.l.l.l.l.l.y.y#k.V.V.8#o#o#p#q#q#l#m#m#r#####s#t#t#t#j.fQtQtQtQtQtQt",
"QtQtQtQtQtQtQt.d.g.l.l.l.l.l.l.l.l.l.y#k#k#u#c#c#o#d#d#q#l#l#m#v#v#w#x#x#s#y#y#y#j.fQtQtQtQtQtQt",
"QtQtQtQtQtQtQt.d.g.l.l.l.l.l.l.l.t.t#k#z#z#c#o#o#d#q#q#A#m#m#v#w#w#x#B#B#y#C#C#C#j.fQtQtQtQtQtQt",
"QtQtQtQtQtQtQt.d.g.l.l.l.l.l.l.l.t.t#k#z#z#c#o#o#d#q#q#A#m#m#v#w#w#x#B#B#y#C#C#C#j.fQtQtQtQtQtQt",
"QtQtQtQtQtQtQt.d.g.l.l.l.l.l.l.t#k#k#z.8.8#D#d#d#q#E#E#m#v#v#F#x#x#B#G#G#H#I#I#I#J.fQtQtQtQtQtQt",
"QtQtQtQtQtQtQt.d.g.l.l.l.l.t.t.V#u#u.8#o#o#d#q#q#E#r#r#v#F#F#x#K#K#L#H#H#C#M#M#M#J.fQtQtQtQtQtQt",
"QtQtQtQtQtQtQt.d.g.l.l.l.l.t.t.V#u#u.8#o#o#d#q#q#E#r#r#v#F#F#x#K#K#L#H#H#C#M#M#M#J.fQtQtQtQtQtQt",
"QtQtQtQtQtQtQt.d.g.l.l.l.t.V.V#z.8.8#p#N#N#q#E#E#r#O#O#F#x#x#K#L#L#H#C#C#P#Q#Q#Q#R.fQtQtQtQtQtQt",
"QtQtQtQtQtQtQt.d.g.l.l.l.V.1.1.8#p#p#N#l#l#E#r#r#S#T#T#x#K#K#U#V#V#C#P#P#Q#Q#Q#Q#R.fQtQtQtQtQtQt",
"QtQtQtQtQtQtQt.d.g.l.l.l.V.1.1.8#p#p#N#l#l#E#r#r#S#T#T#x#K#K#U#V#V#C#P#P#Q#Q#Q#Q#R.fQtQtQtQtQtQt",
"QtQtQtQtQtQtQt.d.g.7.7.7.1.8.8.9#N#N#l#.#.#r#S#S#T#B#B#K#U#U#H#C#C#P#Q#Q#W#X#X#X#R.fQtQtQtQtQtQt",
"QtQtQtQtQtQtQt.e.g.V.V.V.8#d#d#e#l#l#.#r#r#w#F#F#B#K#K#U#Y#Y#C#P#P#Q#W#W#X#Z#Z#Z#0.fQtQtQtQtQtQt",
"QtQtQtQtQtQtQt.e.g.V.V.V.8#d#d#e#l#l#.#r#r#w#F#F#B#K#K#U#Y#Y#C#P#P#Q#W#W#X#Z#Z#Z#0.fQtQtQtQtQtQt",
"QtQtQtQtQtQtQt.e.g.8.8.8#d#e#e#l#m#m#r#w#w#F#B#B#G#U#U#Y#C#C#P#Q#Q#W#X#X#Z#1#1#1#0.fQtQtQtQtQtQt",
"QtQtQtQtQtQtQt.e.g#o#o#o#q#l#l#m#r#r#w#x#x#B#G#G#U#Y#Y#2#P#P#Q#W#W#X#Z#Z#3#3#3#3#4.fQtQtQtQtQtQt",
"QtQtQtQtQtQtQt.e.g#o#o#o#q#l#l#m#r#r#w#x#x#B#G#G#U#Y#Y#2#P#P#Q#W#W#X#Z#Z#3#3#3#3#4.fQtQtQtQtQtQt",
"QtQtQtQtQtQtQt.e.g#d#d#d#l#m#m#v#w#w#x#B#B#G#H#H#Y#2#2#P#Q#Q#W#Z#Z#5#3#3#3#3#3#3#4.fQtQtQtQtQtQt",
"QtQtQtQtQtQtQt.e.g#d#d#d#l#m#m#v#w#w#x#B#B#G#H#H#Y#2#2#P#Q#Q#W#Z#Z#5#3#3#3#3#3#3#4.fQtQtQtQtQtQt",
"QtQtQtQtQtQtQt.e#b.6.6.6#6#6#6#7#8#8#9#9#9#9a.a.a.#J#J#J#R#R#R#0#0#0#4#4#4#4#4#4#4.fQtQtQtQtQtQt",
"QtQtQtQtQtQtQt.e.e.f.f.f.f.f.f.f.f.f.f.f.f.f.f.f.f.f.f.f.f.f.f.f.f.f.f.f.f.f.f.f.f.fQtQtQtQtQtQt",
"QtQtQtQtQtQtQtQtQtQtQtQtQtQtQtQtQtQtQtQtQtQtQtQtQtQtQtQtQtQtQtQtQtQtQtQtQtQtQtQtQtQtQtQtQtQtQtQt"};
