/* XPM */
static const char *xpmFile16x16[]={
"16 16 91 2",
"Qt c None",
".# c #000000",
".a c #010101",
"#y c #030303",
".b c #050505",
"#o c #070707",
".c c #090909",
"#e c #0a0a0a",
".u c #0b0b0b",
".d c #0c0c0c",
".o c #0d0d0d",
".j c #0f0f0f",
".e c #101010",
".R c #111111",
".k c #121212",
".v c #131313",
".p c #141414",
".D c #151515",
".w c #161616",
"#x c #3ffe30",
"#w c #4ff842",
"#n c #56ff49",
"#v c #62f456",
"#m c #69fc5d",
"#d c #70ff65",
"#u c #73ef6b",
"#l c #7cf773",
"#c c #85ff7c",
"#t c #87eb7f",
".6 c #8dff84",
"#k c #8ff288",
"#s c #98e793",
"#b c #98fa91",
".5 c #a0ff9a",
"#j c #a1ed9b",
".Y c #a9ffa1",
"#r c #aae3a6",
"#a c #abf5a5",
"#i c #b2e9ae",
".4 c #b5fdb0",
"#q c #b9e0b7",
"## c #bbf0b8",
".X c #bcffb6",
"#h c #c1e5bd",
".Q c #c2ffbe",
".3 c #c5f8c2",
"#p c #c6ddc5",
"#. c #caebc7",
"#g c #cee1cb",
".W c #cfffcb",
".2 c #d2f2d0",
".P c #d4ffd1",
".9 c #d5e7d4",
"#f c #d7ded6",
".I c #daffd6",
".V c #ddfbdc",
".8 c #dee3dd",
".1 c #deeedd",
".7 c #dfdfdf",
".Z c #e0e0e0",
".S c #e2e2e2",
".J c #e4e4e4",
".0 c #e5e9e4",
".O c #e5ffe3",
".E c #e6e6e6",
".U c #e8f5e7",
".K c #e9e9e9",
".H c #e9ffe8",
".x c #eaeaea",
".F c #ececec",
".q c #ededed",
".C c #edffeb",
".L c #eeeeee",
".T c #eef0ee",
".y c #efefef",
".l c #f1f1f1",
".r c #f2f2f2",
".M c #f3f3f3",
".N c #f3fef2",
".z c #f4f4f4",
".f c #f5f5f5",
".m c #f6f6f6",
".G c #f6fff6",
".s c #f8f8f8",
".A c #f9f9f9",
".B c #f9fff8",
".g c #fafafa",
".n c #fbfbfb",
".t c #fcfcfc",
".h c #fefefe",
".i c #ffffff",
"QtQtQtQtQtQtQtQtQtQtQtQtQtQtQtQt",
"QtQt.#.#.#.a.b.c.d.eQtQtQtQtQtQt",
"QtQt.#.f.g.h.i.i.i.j.kQtQtQtQtQt",
"QtQt.#.l.m.n.i.i.i.o.i.pQtQtQtQt",
"QtQt.#.q.r.s.t.i.i.u.j.v.wQtQtQt",
"QtQt.#.x.y.z.A.h.i.i.B.C.DQtQtQt",
"QtQt.#.E.F.l.m.n.i.G.H.I.vQtQtQt",
"QtQt.#.J.K.L.M.s.N.O.P.Q.RQtQtQt",
"QtQt.#.S.E.F.T.U.V.W.X.Y.jQtQtQt",
"QtQt.#.Z.J.0.1.2.3.4.5.6.oQtQtQt",
"QtQt.#.7.8.9#.###a#b#c#d#eQtQtQt",
"QtQt.##f#g#h#i#j#k#l#m#n#oQtQtQt",
"QtQt.##p#q#r#s#t#u#v#w#x#yQtQtQt",
"QtQt.#.#.#.#.#.#.#.#.#.#.#QtQtQt",
"QtQtQtQtQtQtQtQtQtQtQtQtQtQtQtQt",
"QtQtQtQtQtQtQtQtQtQtQtQtQtQtQtQt"};



