/* XPM */
static char *Find_xpm[]={
"48 48 256 2",
"Qt c None",
".k c #000000",
"bA c #007200",
"bn c #008d00",
"bo c #009700",
"ba c #00a100",
"bm c #00aa00",
"a1 c #00b600",
"b# c #00b800",
"b. c #00d700",
"bY c #00d800",
"a9 c #00e500",
"bv c #00fd00",
"bw c #017c01",
"az c #01c701",
"bk c #01eb01",
"bl c #01f101",
"bX c #02d202",
"b9 c #044f04",
"a0 c #07d707",
".j c #080808",
"ay c #0ad80a",
"b8 c #0b6b0b",
"aL c #0dd50d",
"bG c #0fa20f",
"bW c #0fb40e",
"a8 c #11e911",
"b7 c #146b14",
"bV c #17ce17",
"bu c #19a219",
"bF c #1ae219",
"bj c #1af31a",
".h c #1c1c1c",
"b6 c #1c6b1c",
"bU c #22ce21",
"bE c #22ff22",
"b5 c #246b24",
".i c #252525",
"bz c #25e225",
"a6 c #29a229",
"bT c #2bce2b",
"bD c #2bff2b",
"b4 c #2c6b2c",
"aZ c #31fb31",
"aK c #32fc32",
"bS c #33ce33",
"by c #33ff34",
"b3 c #346b34",
"aJ c #36a237",
"bi c #36e236",
"bC c #38ff39",
"aM c #394f4d",
"b2 c #3c6b3c",
"bR c #3cce3c",
"bx c #3cff3c",
".g c #3d3d3d",
"bt c #3fff3f",
"ax c #41a241",
"a5 c #43e243",
"bs c #44ff44",
"aA c #476d69",
"b1 c #486b48",
"bQ c #48ce48",
"bh c #4aff4a",
"ac c #4ca24c",
"aW c #4de24d",
".d c #4e4e4e",
"br c #4eff4d",
"#f c #50807b",
"bP c #51ce52",
"a7 c #51ff51",
".7 c #52807c",
"a4 c #54ff53",
"bq c #55ff55",
".Y c #57807c",
"bO c #57ce58",
"aI c #57e257",
"bg c #59ff58",
"#Q c #5aa25a",
"aV c #5cff5c",
"bN c #5ece5e",
"bf c #60ff60",
"aw c #61e261",
"aY c #61ff61",
".Q c #63817e",
"b0 c #638563",
"a3 c #64ff63",
"aU c #67ff67",
"#x c #68a269",
"bM c #68ce67",
"aH c #69ff6a",
"aX c #6a6a6a",
"an c #6be26b",
"aT c #6eff6e",
".B c #708280",
"aG c #72ff72",
"bL c #74ce74",
".c c #757575",
"ab c #75e276",
"#e c #76a276",
"av c #76ff76",
"aF c #7aff7a",
".e c #7c7c7c",
"bK c #7dce7d",
"au c #7dff7d",
".6 c #7fa280",
"be c #7fff7f",
"#0 c #80e280",
"am c #82ff82",
"at c #86ff86",
"bJ c #87ce87",
".P c #88a289",
"#P c #89e289",
"al c #89ff8a",
".b c #8b8b8b",
"bZ c #8db88d",
"aa c #8dff8d",
"aP c #8fba9a",
"ak c #8fff90",
"aO c #92ba9e",
"a# c #92ff92",
".A c #93a294",
"bI c #93ce93",
"#F c #93e293",
"aq c #96baa1",
"#Z c #96ff96",
".# c #979797",
"aj c #99ff99",
"ag c #9abba6",
"bH c #9bce9b",
".q c #9ca29c",
"a. c #9cff9c",
"#w c #9de29d",
"aS c #9dff9d",
"#6 c #9ebbaa",
"#Y c #9fffa0",
"ai c #a0ff9f",
".a c #a1a2a1",
"bb c #a1baad",
"#O c #a2ffa2",
"#5 c #a3c4b3",
"#9 c #a4ffa3",
"#U c #a5bcb1",
"bd c #a6ffa5",
"#n c #a7e2a7",
"#X c #a7ffa8",
".o c #a9a9a9",
"af c #a9ccbd",
"bp c #a9ffa9",
"ap c #aad5c2",
"#I c #abc5bc",
"#N c #abffab",
"aR c #acffad",
"#E c #aeffad",
"#W c #aeffaf",
"#T c #afcdc2",
"#d c #afe2af",
"#z c #b1c8c3",
"a2 c #b1ffb0",
"#M c #b2ffb2",
"#8 c #b3ffb3",
"#4 c #b4dcd0",
"aD c #b4e5d5",
"bc c #b4ffb4",
".5 c #b6e5b6",
"#D c #b6ffb6",
"#H c #b7d7d1",
"aE c #b7ffb7",
"#q c #b8d2cf",
"#v c #b8ffb9",
"ae c #b9ebdc",
"#7 c #baffb9",
"as c #baffba",
"aQ c #bbffbb",
"#i c #bcdad7",
"aC c #bcf2e3",
"#y c #bdddd9",
"#S c #bdeae0",
"#C c #bdffbc",
"ah c #bdffbe",
".m c #bebebe",
"aN c #bfe3df",
"#u c #bfffbf",
".X c #c0e2bf",
"#p c #c0e2df",
"#L c #c0ffc0",
"#3 c #c1f3e8",
"#h c #c2e6e2",
".0 c #c2e8e3",
"ad c #c2f9ec",
"#m c #c2ffc2",
"#B c #c3ffc4",
"#G c #c4efe9",
"#R c #c6faf1",
"#t c #c6ffc5",
".O c #c7e2c8",
".Z c #c7f1ed",
"#2 c #c7fbf2",
"#o c #c8f4f0",
"ao c #c8fcf4",
"#K c #c8ffc7",
"ar c #c8ffc8",
"#g c #c9f6f1",
".T c #c9f7f2",
"aB c #caf7f3",
"#1 c #cafcf6",
"#l c #caffca",
".8 c #cbfbf6",
".S c #ccfcf7",
"#c c #cdffce",
".K c #cefcf8",
".H c #cfe2cf",
"#k c #d0ffd0",
".R c #d1fcf8",
"#V c #d2ffd1",
"#b c #d3ffd3",
"#s c #d3ffd4",
"bB c #d4ffd3",
"#J c #d4ffd4",
".J c #d5fcf9",
".I c #d6fdf9",
".4 c #d6ffd6",
"#A c #d7ffd8",
".t c #d9e2d8",
".D c #d9fdf9",
"#a c #daffda",
".C c #ddfdfa",
".3 c #ddffdd",
".W c #dfffdf",
".p c #e0e2df",
"## c #e0ffdf",
"#r c #e0ffe0",
".x c #e1fdfb",
".2 c #e1ffe2",
"#j c #e2ffe3",
".n c #e3e3e3",
".V c #e4ffe4",
".w c #e5fefb",
"#. c #e5ffe5",
".N c #e7ffe7",
".v c #e9fefc",
".U c #eaffea",
".u c #ecfefc",
".M c #ecffec",
".G c #eeffee",
".l c #efefef",
".9 c #f0ffef",
".L c #f1fff1",
".F c #f4fff4",
".z c #f5fff5",
".1 c #f6fff6",
".E c #f8fff8",
".y c #fafffa",
".s c #fcfffb",
".r c #fdfffd",
".f c #ffffff",
"QtQtQtQtQtQtQtQtQtQtQtQtQtQtQtQtQtQtQtQtQtQtQtQtQtQtQtQtQtQtQtQtQtQtQtQtQtQtQtQtQtQtQtQtQtQtQtQt",
"QtQtQtQtQtQtQtQtQtQtQtQtQtQtQtQtQtQtQtQtQtQtQtQtQtQtQtQtQtQtQtQtQtQtQtQtQtQtQtQtQtQtQtQtQtQtQtQt",
"QtQtQtQtQtQtQtQtQtQtQtQtQtQtQtQtQtQtQtQtQtQtQtQtQtQtQtQtQtQtQtQtQtQtQtQtQtQtQtQtQtQtQtQtQtQtQtQt",
"QtQtQtQtQtQtQtQtQtQtQtQtQtQtQtQtQtQtQtQtQtQtQtQtQtQtQtQtQtQtQtQtQtQtQtQtQtQtQtQtQtQtQtQtQtQtQtQt",
"QtQtQtQtQtQtQtQtQtQtQtQtQtQtQt.#.a.#.b.b.b.b.b.b.b.b.b.b.b.b.b.b.b.b.b.c.dQtQtQtQtQtQtQtQtQtQtQt",
"QtQtQtQtQtQtQtQtQtQtQtQtQtQtQt.e.f.f.f.f.f.f.f.f.f.f.f.f.f.f.f.f.f.f.f.f.g.hQtQtQtQtQtQtQtQtQtQt",
"QtQtQtQtQtQtQtQtQtQtQtQtQtQtQt.d.f.f.f.f.f.f.f.f.f.f.f.f.f.f.f.f.f.f.f.f.i.f.jQtQtQtQtQtQtQtQtQt",
"QtQtQtQtQtQtQtQtQtQtQtQtQtQtQt.g.f.f.f.f.f.f.f.f.f.f.f.f.f.f.f.f.f.f.f.f.j.f.f.jQtQtQtQtQtQtQtQt",
"QtQtQtQtQtQtQtQtQtQtQtQtQtQtQt.g.f.f.f.f.f.f.f.f.f.f.f.f.f.f.f.f.f.f.f.f.j.f.f.f.jQtQtQtQtQtQtQt",
"QtQtQtQtQtQtQtQtQtQtQtQtQtQtQt.g.f.f.f.f.f.f.f.f.f.f.f.f.f.f.f.f.f.f.f.f.k.f.f.f.f.jQtQtQtQtQtQt",
"QtQtQtQtQtQtQtQtQtQtQtQtQtQtQt.g.f.f.f.f.f.f.f.f.f.f.f.f.f.f.f.f.f.f.f.f.k.f.f.f.f.f.jQtQtQtQtQt",
"QtQtQtQtQtQtQtQtQtQtQtQtQtQtQt.g.f.f.f.f.f.f.f.f.f.f.f.f.f.f.f.f.f.f.f.f.k.f.f.f.f.f.f.kQtQtQtQt",
"QtQtQtQtQtQtQtQtQtQtQtQtQtQtQt.g.f.f.f.f.f.f.f.f.f.f.f.f.f.f.f.f.f.f.f.f.k.k.k.k.j.j.k.k.kQtQtQt",
"QtQtQtQtQtQtQtQtQtQtQtQtQtQtQt.g.f.f.f.f.f.f.f.f.f.f.f.f.f.f.f.f.f.f.f.f.f.f.f.f.f.f.l.m.kQtQtQt",
"QtQtQtQtQtQtQtQtQtQtQtQtQtQtQt.g.f.f.f.f.f.f.f.f.f.f.f.f.f.f.f.f.f.f.f.f.f.f.f.f.f.f.n.o.kQtQtQt",
"QtQtQtQtQtQtQtQtQtQtQtQtQtQtQt.g.f.f.f.f.f.f.f.f.f.f.f.f.f.f.f.f.f.f.f.f.f.f.f.f.f.f.n.a.kQtQtQt",
"QtQtQtQtQtQtQtQtQtQtQtQtQtQtQt.g.f.f.f.f.f.f.f.f.f.f.f.f.f.f.f.f.f.f.f.f.f.f.f.f.f.f.n.a.kQtQtQt",
"QtQtQtQtQtQtQtQtQtQtQtQtQtQtQt.g.f.f.f.f.f.f.f.f.f.f.f.f.f.f.f.f.f.f.f.f.f.f.f.f.f.f.p.q.kQtQtQt",
"QtQtQtQtQtQtQtQtQtQtQtQtQtQtQt.g.f.k.k.k.k.k.k.f.f.f.f.f.f.f.f.f.f.f.f.f.f.f.f.f.r.s.t.q.kQtQtQt",
"QtQtQtQtQtQtQtQtQtQtQtQtQtQtQt.k.k.u.u.v.w.w.x.k.k.f.f.f.f.f.f.f.f.f.f.f.f.f.f.r.y.z.t.A.kQtQtQt",
"QtQtQtQtQtQtQtQtQtQtQtQtQt.k.k.B.u.v.w.w.x.C.C.C.D.k.k.f.f.f.f.f.f.f.f.f.f.f.s.E.F.G.H.A.kQtQtQt",
"QtQtQtQtQtQtQtQtQtQtQtQt.k.u.u.B.w.C.D.I.J.J.I.D.D.J.K.k.f.f.f.f.f.f.f.f.r.y.z.L.M.N.O.P.kQtQtQt",
"QtQtQtQtQtQtQtQtQtQtQtQt.k.v.w.Q.I.R.K.S.S.S.K.R.J.K.T.k.f.f.f.f.f.f.f.s.E.F.G.U.V.W.X.P.kQtQtQt",
"QtQtQtQtQtQtQtQtQtQtQt.k.w.w.C.Y.K.S.S.S.S.S.S.S.K.S.Z.0.k.f.f.f.f.r.y.1.L.M.N.2.3.4.5.6.kQtQtQt",
"QtQtQtQtQtQtQtQtQtQtQt.k.w.x.J.7.S.S.S.S.S.S.S.S.S.8.Z.0.k.f.f.f.s.E.F.9.U#.###a#b#c#d#e.kQtQtQt",
"QtQtQtQtQtQtQtQtQtQt.k.x.x.C.R#f.S.S.S.S.S.S.S.S.S.S#g#h#i.k.r.y.1.L.M.N#j.3.4#k#l#m#n#e.kQtQtQt",
"QtQtQtQtQtQtQtQtQtQt.k.C.C.J.K#f.S.S.S.S.S.S.S.S.S.S#o#p#q.k.E.F.9.U.N#r#a#s#c#t#u#v#w#x.kQtQtQt",
"QtQtQtQtQtQtQtQtQtQt.k.D.D.R.S#f.S.S.S.S.S.S.S.S.S.S#o#y#z.k.L.M.N#j.3#A#k#l#B#C#D#E#F#x.kQtQtQt",
"QtQtQtQtQtQtQtQtQtQt.k.I.J.R.S#f.S.S.S.S.S.S.S.S.S.8#G#H#I.k.U#.#r#a#J#c#K#L#v#M#N#O#P#Q.kQtQtQt",
"QtQtQtQtQtQtQtQtQtQt.k.R.R.K.S#f.S.S.S.S.S.S.S.S.S#R#S#T#U.k#j.3#A#V#l#B#C#D#W#X#Y#Z#0#Q.kQtQtQt",
"QtQtQtQtQtQtQtQtQtQt.k.S.S.S.8#f.S.S.S.S.S.S.S#1#2#3#4#5#6.k#a#J#c#K#L#7#8#N#9a.a#aaabac.kQtQtQt",
"QtQtQtQtQtQtQtQtQtQtQt.k#g.8.S#f.S.S.S.S.S.S#1#2adaeafag.k#A#V#l#tah#D#W#Xaiajakalamanac.kQtQtQt",
"QtQtQtQtQtQtQtQtQtQt.k.k.Z.Z#g#f.8.S.S.S#1ao#Radaeapagaq.k#car#mas#8#N#9a.#Zaaatauavawax.kQtQtQt",
"QtQtQtQtQtQtQtQtQt.hayaz.k#h#haA.ZaB.8#1#2adaCaDapagaq.k#l#tahaE#W#X#Oaja#alamaFaGaHaIaJ.kQtQtQt",
"QtQtQtQtQtQtQtQt.daKaLaz.k#i#qaM#iaN.0#SaeaDap#5aqaOaP.k#maQ#8aR#9aS#ZaaatauavaTaUaVaWaJ.kQtQtQt",
"QtQtQtQtQtQtQtaXaYaZa0aza1.k.kaM#z#z#Taf#5#6agaOaO.k.k#uaEa2#X#Oaja#alamaFaGaHa3aVa4a5a6.kQtQtQt",
"QtQtQtQtQtQt.caua7a8a9b.b#baba.k.k#Ubb#6agaqaO.k.k#maQbcaRbdaS#ZaaatbeavaTaUbfbga7bhbia6.kQtQtQt",
"QtQtQtQtQt.cambfbjbkblb.bmbnbo.k.L.k.k.k.k.k.k#t#uaEa2bp#Oaja#alamaFaGaHa3aVbqbrbsbtbibu.kQtQtQt",
"QtQtQtQtaXaubfbjblbva9bmbwbw.k.g.M#..3.4#k#l#maQbcaRbdaS#ZakatbeavaTaUbfbga7bhbsbxbybzbu.kQtQtQt",
"QtQtQt.daYa4bjblbva9bmbwbA.kQt.g.N.3bB#c#t#L#va2bp#Oaja#alamaFavaTa3aVbqbrbsbtbCbybDbzbu.kQtQtQt",
"QtQt.haKaKa8blbva9bmbwbA.kQtQt.g.W#J#l#B#C#D#Ebdai#ZakatbeavaGaUaYbga7bhbsbxbybDbDbEbFbG.kQtQtQt",
"Qt.jaLaLa0a9bla9bmbwbA.kQtQtQt.i#k.5bHbIbIbJbJbKbLbLbMbMbNbObPbQbQbRbRbSbTbTbUbUbVbVbWbw.kQtQtQt",
"Qt.kbXazazb.bYbmbwbA.kQtQtQtQt.kbZb0b1b1b1b1b2b2b2b3b3b4b4b4b5b5b6b6b6b7b7b7b8b8b8b8b9b9.kQtQtQt",
"QtQt.kb#a1b#bmbwbA.kQtQtQtQtQt.k.k.k.k.k.k.k.k.k.k.k.k.k.k.k.k.k.k.k.k.k.k.k.k.k.k.k.k.k.kQtQtQt",
"QtQtQt.kbmbabnbw.kQtQtQtQtQtQtQtQtQtQtQtQtQtQtQtQtQtQtQtQtQtQtQtQtQtQtQtQtQtQtQtQtQtQtQtQtQtQtQt",
"QtQtQtQt.kbmbo.kQtQtQtQtQtQtQtQtQtQtQtQtQtQtQtQtQtQtQtQtQtQtQtQtQtQtQtQtQtQtQtQtQtQtQtQtQtQtQtQt",
"QtQtQtQtQt.k.kQtQtQtQtQtQtQtQtQtQtQtQtQtQtQtQtQtQtQtQtQtQtQtQtQtQtQtQtQtQtQtQtQtQtQtQtQtQtQtQtQt",
"QtQtQtQtQtQtQtQtQtQtQtQtQtQtQtQtQtQtQtQtQtQtQtQtQtQtQtQtQtQtQtQtQtQtQtQtQtQtQtQtQtQtQtQtQtQtQtQt"};
