/* XPM */
static const char *xpmFind16x16[]={
"16 16 89 2",
"Qt c None",
".# c #000000",
"#. c #00af00",
".9 c #00c600",
".8 c #00dd00",
".0 c #00de00",
".n c #1f8a93",
".2 c #65e8d9",
".V c #67e8db",
".1 c #68e8dc",
"#w c #69ff69",
".U c #6ae8de",
".N c #6ce8e0",
".T c #6ce8e1",
".M c #6ee8e2",
".S c #6fe8e3",
".G c #70e8e5",
"#v c #70ff70",
".F c #72e8e6",
".L c #73e8e7",
".z c #74e8e8",
".E c #74e8e9",
".y c #76e8ea",
"#n c #76ff76",
"#u c #77ff77",
".x c #78e8ec",
".q c #79e8ed",
".p c #7be8ef",
".o c #7ce8f0",
".w c #7de8f1",
"#m c #7eff7e",
"#t c #7fff7e",
"#e c #84ff84",
"#l c #85ff85",
"#s c #86ff86",
"#d c #8cff8b",
"#k c #8cff8c",
"#r c #8eff8e",
".7 c #92ff92",
"#c c #93ff93",
"#j c #94ff94",
"#q c #95ff94",
".6 c #9aff99",
"#b c #9aff9a",
"#i c #9bff9c",
"#p c #9dff9c",
".Z c #a0ffa0",
".5 c #a1ffa1",
"#a c #a2ffa2",
"#h c #a2ffa3",
"#o c #a4ffa4",
".Y c #a7ffa8",
".4 c #a8ffa8",
"## c #a9ffaa",
"#g c #abffaa",
".R c #aeffae",
".X c #afffaf",
".3 c #b0ffb0",
"#f c #b2ffb1",
".Q c #b5ffb5",
".W c #b7ffb7",
".K c #bbffbc",
".P c #bcffbd",
".J c #c2ffc2",
".O c #c4ffc3",
".D c #c8ffc9",
".I c #c9ffc9",
".C c #d0ffcf",
".H c #d0ffd0",
".v c #d5ffd4",
".B c #d5ffd5",
".u c #dbffdb",
".A c #dcffdb",
".m c #e0ffe0",
".t c #e1ffe0",
".l c #e5ffe6",
".s c #e6ffe7",
".h c #eaffea",
".k c #ebffeb",
".r c #ebffec",
".g c #efffef",
".j c #f0fff0",
".f c #f4fff4",
".i c #f4fff5",
".e c #f8fff8",
".d c #fcfffc",
".c c #fefffe",
".b c #feffff",
".a c #ffffff",
"QtQtQtQtQt.#.#.#.#.#.#.#.#QtQtQt",
"QtQtQtQtQt.#.a.a.a.a.a.a.#.#QtQt",
"QtQtQtQtQt.#.a.a.a.a.a.a.#.b.#Qt",
"QtQtQtQtQt.#.a.a.a.a.a.c.#.#.#.#",
"QtQtQtQtQt.#.a.a.a.a.d.e.f.g.h.#",
"QtQtQtQtQt.#.#.#.#.e.i.j.k.l.m.#",
"QtQtQtQt.#.n.o.p.q.#.r.s.t.u.v.#",
"QtQtQt.#.w.n.q.x.y.z.#.A.B.C.D.#",
"QtQtQt.#.w.n.y.E.F.G.#.H.I.J.K.#",
"QtQtQt.#.w.n.L.G.M.N.#.O.P.Q.R.#",
"QtQtQt.#.w.n.S.T.U.V.#.W.X.Y.Z.#",
"QtQt.#.0.#.n.U.1.2.#.3.4.5.6.7.#",
"Qt.#.8.9#..#.#.#.####a#b#c#d#e.#",
".#.8.9#..#.##f#g#h#i#j#k#l#m#n.#",
".#.9#..#Qt.##o#p#q#r#s#t#u#v#w.#",
".#.#.#QtQt.#.#.#.#.#.#.#.#.#.#.#"};

