/* XPM */
static const char *xpmFolderClosed22x22[] = {
/* columns rows colors chars-per-pixel */
"22 22 143 2",
"   c black",
".  c #0e3e0b",
"X  c #094604",
"o  c #0c4108",
"O  c #094c04",
"+  c #095204",
"@  c #0a5c04",
"#  c #12440e",
"$  c #134d0e",
"%  c #13540e",
"&  c #135c0e",
"*  c #0c6305",
"=  c #0f6709",
"-  c #0d6c0a",
";  c #0e720b",
":  c #14650e",
">  c #146d0d",
",  c #14760e",
"<  c #157411",
"1  c #147911",
"2  c #1c7116",
"3  c #187d14",
"4  c #5c7a5a",
"5  c #16820e",
"6  c #178d0e",
"7  c #1a8416",
"8  c #1e871a",
"9  c #1c8c17",
"0  c #1f8c1a",
"q  c #15980c",
"w  c #18990e",
"e  c #1c9217",
"r  c #1f931b",
"t  c #1f991b",
"y  c #18a50e",
"u  c #19b00e",
"i  c #1abc0e",
"p  c #26811f",
"a  c #228d1e",
"s  c #23931e",
"d  c #239a1e",
"f  c #2b8324",
"g  c #269422",
"h  c #269b22",
"j  c #2b9d25",
"k  c #22a21d",
"l  c #24a91e",
"z  c #24b11e",
"x  c #27a322",
"c  c #2ba425",
"v  c #2fa529",
"b  c #2aab24",
"n  c #2fad29",
"m  c #2bb223",
"M  c #2fb529",
"N  c #2bba24",
"B  c #33ae2d",
"V  c #34b52d",
"C  c #30bd25",
"Z  c #32bd2b",
"A  c #37b731",
"S  c #3abf33",
"D  c #1fc513",
"F  c #27cd1b",
"G  c #2dc225",
"H  c #2ed422",
"J  c #33c42b",
"K  c #36c92d",
"L  c #3bc633",
"P  c #3acb33",
"I  c #36dc2a",
"U  c #38d92d",
"Y  c #3dd035",
"T  c #3be12f",
"R  c #3de331",
"E  c #559e50",
"W  c #6f9f6b",
"Q  c #61a05c",
"!  c #42cc3a",
"~  c #44d33c",
"^  c #41da37",
"/  c #44ea38",
"(  c #4bf13f",
")  c #48cf40",
"_  c #4cd544",
"`  c #4fdc47",
"'  c #51d549",
"]  c #55dc4d",
"[  c #5bdd53",
"{  c #4be340",
"}  c #5be552",
"|  c #56f64a",
" . c #71d06a",
".. c #7bd275",
"X. c #7ed278",
"o. c #7cd975",
"O. c #7fde78",
"+. c #63e45b",
"@. c #64e85c",
"#. c #67f65c",
"$. c #6be663",
"%. c #6beb63",
"&. c #73ec6b",
"*. c #75f46d",
"=. c #77f170",
"-. c #7bf373",
";. c #83e27c",
":. c #83ec7c",
">. c #84f57c",
",. c #9acc96",
"<. c #87e680",
"1. c #8ceb85",
"2. c #8cf585",
"3. c #90ef89",
"4. c #92f58b",
"5. c #97f591",
"6. c #99f593",
"7. c #9ef599",
"8. c #9efa97",
"9. c #a1cd9d",
"0. c #a2f69d",
"q. c #a6f4a1",
"w. c #a9f4a4",
"e. c #aef7aa",
"r. c #a8faa2",
"t. c #b0f7ab",
"y. c #b3f9ad",
"u. c #b6f6b2",
"i. c #bbf7b7",
"p. c #b9fab4",
"a. c #c2f7be",
"s. c #c2fabe",
"d. c #c9f7c6",
"f. c #c8fac5",
"g. c #cffacc",
"h. c #d1f9ce",
"j. c #d6fad3",
"k. c #dafad7",
"l. c #dcfadb",
"z. c #e0fadf",
"x. c #e4fbe2",
"c. c white",
"v. c None",
/* pixels */
"v.v.v.v.v.v.v.v.v.v.v.v.v.v.v.v.v.v.v.v.v.v.",
"v.v.v.v.v.v.v.v.v.v.v.v.v.v.v.v.v.v.v.v.v.v.",
"v.v.4 W Q Q E 3 v.v.v.v.v.v.v.v.v.v.v.v.v.v.",
"v.4 9.0.:.:.=.^ 2 v.v.v.v.v.v.v.v.v.v.v.v.v.",
"4 9.w.} T T T U C f v.v.v.v.v.v.v.v.v.v.v.v.",
",.w.} R T T T T U ^  .;.X.X.X.X.X.X.X.X.X.m ",
"6.} U R T T T T U R / } } } } } } } } } } > ",
"x.x.l.k.j.g.f.s.p.y.r.8.5.4.4.1.;.;.O.o...w ",
"x.k.j.d.i.u.w.6.4.>.*.%.@.} ` ~ Y K G N z 5 ",
"j.s.u.r.7.4.>.*.#.| { / R I H F D i u y w + ",
"z.g.f.u.e.7.4.2.=.%.@.} ] _ ~ K G N m l k 1 ",
"j.e.7.4.>.*.#.| ( / R I H F D i u y w 6 5 + ",
"l.i.e.q.5.2.-.%.$.} [ _ ~ P J C m b k t e ; ",
"f.4.>.*.#.| | / R I H F D i u y w 6 5 , > O ",
"h.r.6.2.-.*.%.+.[ ] _ Y L Z M b x d r 9 7 ; ",
"p.*.#.| { / R I H F D i u y w 6 5 , > : & X ",
"f.2.>.=.%.@.} ] _ ! L S V n c h s 0 7 3 1 - ",
"r.| { / R T H F D i u y w 6 5 , > : & % $ o ",
"u.-.&.%.+.[ ' ) ! S A B v j g a 8 7 3 < < - ",
"5./ R I H F D i u y w 6 5 , > : & % $ # # . ",
"K > = = = * * @ @ @ + + + O O X X X . . . . ",
"v.v.v.v.v.v.v.v.v.v.v.v.v.v.v.v.v.v.v.v.v.v."
};
