/* XPM */
static const char *xpmFolderOpen22x22[] = {
/* columns rows colors chars-per-pixel */
"22 22 167 2",
"   c black",
".  c #0e3e0b",
"X  c #123f0f",
"o  c #094704",
"O  c #0c4408",
"+  c #094b04",
"@  c #0c4a08",
"#  c #0a5405",
"$  c #0a5d04",
"%  c #12460e",
"&  c #124f0d",
"*  c #1c4219",
"=  c #13560e",
"-  c #12580d",
";  c #125410",
":  c #0c6405",
">  c #14620e",
",  c #136c0d",
"<  c #176f11",
"1  c #186a16",
"2  c #15730e",
"3  c #157c0e",
"4  c #177614",
"5  c #157912",
"6  c #1c7617",
"7  c #197d15",
"8  c #1e7b1a",
"9  c #325b2f",
"0  c #365a33",
"q  c #207d19",
"w  c #317e2b",
"e  c #16820e",
"r  c #178c0e",
"t  c #1d851b",
"y  c #17930e",
"u  c #189c0e",
"i  c #18a50e",
"p  c #19ad0e",
"a  c #1ab50e",
"s  c #1abe0e",
"d  c #22831e",
"f  c #258c1f",
"g  c #22941e",
"h  c #289a1f",
"j  c #268c22",
"k  c #288622",
"l  c #269622",
"z  c #279b22",
"x  c #2a9325",
"c  c #2b9c25",
"v  c #2e9c29",
"b  c #27a523",
"n  c #2ba625",
"m  c #2fa329",
"M  c #2cad25",
"N  c #2fab29",
"B  c #34ab2d",
"V  c #3ba833",
"C  c #32b32b",
"Z  c #32bb2b",
"A  c #37b331",
"S  c #3abc33",
"D  c #1ec412",
"F  c #23c917",
"G  c #26cc1a",
"H  c #29cf1d",
"J  c #2dd321",
"K  c #35c52d",
"L  c #3bc333",
"P  c #3ccb34",
"I  c #30d624",
"U  c #33d927",
"Y  c #37dd2b",
"T  c #3ae02e",
"R  c #3de331",
"E  c #4ebf4c",
"W  c #51a44f",
"Q  c #59b452",
"!  c #64b55f",
"~  c #6bb566",
"^  c #6eb769",
"/  c #6cbe66",
"(  c #7eb47a",
")  c #42c739",
"_  c #44cd3b",
"`  c #43d03c",
"'  c #41e735",
"]  c #46ec3a",
"[  c #4bf13f",
"{  c #4bd443",
"}  c #54c64c",
"|  c #51d446",
" . c #50d748",
".. c #54db4d",
"X. c #5ad552",
"o. c #5ade53",
"O. c #4fe444",
"+. c #4df341",
"@. c #50e445",
"#. c #53e549",
"$. c #59e64f",
"%. c #5ee554",
"&. c #50f644",
"*. c #57f64c",
"=. c #5af64e",
"-. c #62df59",
";. c #6cc866",
":. c #6ed366",
">. c #72c46f",
",. c #71db6a",
"<. c #64e65b",
"1. c #60f655",
"2. c #67f65c",
"3. c #67eb60",
"4. c #6be762",
"5. c #6bea63",
"6. c #6df664",
"7. c #71e969",
"8. c #78ea6f",
"9. c #7be473",
"0. c #7beb73",
"q. c #70f666",
"w. c #74f26c",
"e. c #7bf473",
"r. c #84ec7c",
"t. c #83f47c",
"y. c #83b480",
"u. c #90b98d",
"i. c #95c092",
"p. c #98c195",
"a. c #8ee28b",
"s. c #8ced85",
"d. c #8fee88",
"f. c #8cf484",
"g. c #92e68f",
"h. c #94ef8d",
"j. c #97ec91",
"k. c #9aee95",
"l. c #9cee98",
"z. c #95f68e",
"x. c #91f989",
"c. c #97f391",
"v. c #9bf295",
"b. c #9ef299",
"n. c #9ff999",
"m. c #a1ef9d",
"M. c #a2f29d",
"N. c #a5efa0",
"B. c #a7f5a1",
"V. c #a9f1a4",
"C. c #aef3a9",
"Z. c #acf9a7",
"A. c #b2f5ad",
"S. c #b5f4b1",
"D. c #b9f5b5",
"F. c #bef5ba",
"G. c #b8fab3",
"H. c #c1f7bd",
"J. c #c3f9bf",
"K. c #c8f9c4",
"L. c #cefacb",
"P. c #d0f7cd",
"I. c #d6f9d3",
"U. c #ddfadc",
"Y. c #e6fbe5",
"T. c white",
"R. c None",
/* pixels */
"R.R.R.R.R.R.R.R.R.R.R.R.R.R.R.R.R.R.R.R.R.R.",
"R.R.R.R.R.R.R.R.R.R.R.R.R.R.R.R.R.R.R.R.R.R.",
"R.R.i.M.d.r.) q R.R.R.R.R.R.R.R.R.R.R.R.R.R.",
"R.p.S.0.O.#.| V f R.R.R.R.R.R.R.R.R.R.R.R.R.",
"u.S.0.O.#.$.<.X.} ! ^ ^ ^ ^ ^ ^ ^ ^ Q h R.R.",
"N.r.O.#.$.%.<.5.8.d.h.h.j.v.k.v.l.M.8.w R.R.",
"h.O.#.$.%.<.5.7.8.0.r.d.h.k.M.V.A.D.( 9 R.R.",
"d.#.$.%.<.<.7.8.0.r.d.h.v.M.V.A.S.F.y.0 R.R.",
"s.s.C.S.S.C.C.C.V.N.m.l.k.j.j.g.a.a.>.W } b ",
"s.%.U.U.I.L.K.G.Z.M.x.f.r.9.9.,.:.;./ ~ k # ",
"d.k.Y.P.H.S.B.c.f.w.<.%...{ P K Z M b g 7 5 ",
"d.s.U.A.B.c.t.q.=.[ ' Y J F s p u r e 2 + o ",
"d.F.U.D.Z.n.f.e.5.<.%. .P K Z C n z g t 2 + ",
"d.F.K.v.f.w.1.+.] R J G D a i y e 2 , - o R.",
"f.I.F.B.c.t.w.5.%...{ P L C N c l f t 4 @ R.",
"c.L.z.e.2.+.] R U G D a i u r 5 , > = O . R.",
"B.L.v.f.e.5.3.o. .{ L S B m l j k 8 4 @ . R.",
"C.G.6.*.+.R Y J F s i u r 3 < > - = % . . R.",
"S.C.t.8.4.%...{ P S A m v x j t 8 1 ; X R.R.",
"o.6 4 < < : : : $ $ # # # + o o O . . * R.R.",
"R.R.R.R.R.R.R.R.R.R.R.R.R.R.R.R.R.R.R.R.R.R.",
"R.R.R.R.R.R.R.R.R.R.R.R.R.R.R.R.R.R.R.R.R.R."
};
