/* XPM */
static const char *xpmFolderClosedConnected22x22[] = {
/* columns rows colors chars-per-pixel */
"22 22 137 2",
"   c black",
".  c #020d02",
"X  c #002600",
"o  c #012801",
"O  c #094704",
"+  c #094c04",
"@  c #095204",
"#  c #0a5c04",
"$  c #135c0e",
"%  c #0c6305",
"&  c #0f6709",
"*  c #0e720b",
"=  c #14650e",
"-  c #146c0d",
";  c #14770e",
":  c #147911",
">  c #1c7116",
",  c #187f14",
"<  c #5c7a5a",
"1  c #16820e",
"2  c #178d0e",
"3  c #188514",
"4  c #1c8c17",
"5  c #15980c",
"6  c #18990e",
"7  c #1c9217",
"8  c #1f931b",
"9  c #1f991b",
"0  c #18a50e",
"q  c #19b00e",
"w  c #1abc0e",
"e  c #26811f",
"r  c #228d1e",
"t  c #239a1e",
"y  c #2b8324",
"u  c #269422",
"i  c #269b22",
"p  c #2b9d25",
"a  c #22a21d",
"s  c #24a91e",
"d  c #24b11e",
"f  c #27a322",
"g  c #2ba425",
"h  c #2fa529",
"j  c #2aab24",
"k  c #2fad29",
"l  c #2bb223",
"z  c #2fb529",
"x  c #2bba24",
"c  c #33ae2d",
"v  c #34b52d",
"b  c #30bd25",
"n  c #32bd2b",
"m  c #37b731",
"M  c #3abf33",
"N  c #1fc513",
"B  c green",
"V  c #27cd1b",
"C  c #2dc225",
"Z  c #2ed422",
"A  c #33c42b",
"S  c #36c92d",
"D  c #3bc633",
"F  c #3acb33",
"G  c #36dc2a",
"H  c #38d92d",
"J  c #3dd035",
"K  c #3be12f",
"L  c #3de331",
"P  c #559e50",
"I  c #6f9f6b",
"U  c #61a05c",
"Y  c #42cc3a",
"T  c #44d33c",
"R  c #41da37",
"E  c #44ea38",
"W  c #4bf13f",
"Q  c #48cf40",
"!  c #4cd544",
"~  c #4fdc47",
"^  c #51d549",
"/  c #55dc4d",
"(  c #5bdd53",
")  c #4be340",
"_  c #5be552",
"`  c #56f64a",
"'  c #71d06a",
"]  c #7bd275",
"[  c #7ed278",
"{  c #7cd975",
"}  c #7fde78",
"|  c #63e45b",
" . c #64e85c",
".. c #67f65c",
"X. c #6be663",
"o. c #6beb63",
"O. c #73ec6b",
"+. c #75f46d",
"@. c #77f170",
"#. c #7bf373",
"$. c #83e27c",
"%. c #83ec7c",
"&. c #84f57c",
"*. c #9acc96",
"=. c #87e680",
"-. c #8ceb85",
";. c #8cf585",
":. c #90ef89",
">. c #92f58b",
",. c #97f591",
"<. c #99f593",
"1. c #9ef599",
"2. c #9efa97",
"3. c #a1cd9d",
"4. c #a2f69d",
"5. c #a6f4a1",
"6. c #a9f4a4",
"7. c #aef7aa",
"8. c #a8faa2",
"9. c #b0f7ab",
"0. c #b3f9ad",
"q. c #b6f6b2",
"w. c #bbf7b7",
"e. c #b9fab4",
"r. c #c2f7be",
"t. c #c2fabe",
"y. c #c9f7c6",
"u. c #c8fac5",
"i. c #cffacc",
"p. c #d1f9ce",
"a. c #d6fad3",
"s. c #dafad7",
"d. c #dcfadb",
"f. c #e0fadf",
"g. c #e4fbe2",
"h. c white",
"j. c None",
/* pixels */
"j.j.j.j.j.j.j.j.j.j.j.j.j.j.j.j.j.j.j.j.j.j.",
"j.j.j.j.j.j.j.j.j.j.j.j.j.j.j.j.j.j.j.j.j.j.",
"j.j.< I U U P , j.j.j.j.j.j.j.j.j.j.j.j.j.j.",
"j.< 3.4.%.%.@.R > j.j.j.j.j.j.j.j.j.j.j.j.j.",
"< 3.6._ K K K H b y j.j.j.j.j.j.j.j.j.j.j.j.",
"*.6._ L K K K K H R ' $.[ [ [ [ [ [ [ [ [ l ",
"<._ H L K K K K H L E _ _ _ _ _ _ _ _ _ _ - ",
"g.g.d.s.a.i.u.t.e.0.8.2.,.>.>.-.$.$.} { ] 5 ",
"g.s.a.y.w.q.6.<.>.&.+.o. ._ ~ T F S C x d , ",
"a.t.q.8.1.>.&.+...` ) E L G Z V N w q 0 6 @ ",
"f.i.u.q.7.1.>.;.@.o. ._ / ! T S A x l s a : ",
"a.7.1.>.&.+...` W E L G Z V N w q 0 6 2 1 @ ",
"d.w.7.5.,.;.#.o.X._ ( ! T F A b l j a 9 7 ; ",
"u.>.&.+...` ` E L G Z V N w q 0 6 2 1 ; - + ",
"p.8.<.;.#.+.o.| ( / ! J D n z j f t 8 4 3 * ",
"e.+...` ) E L G Z V N w q 0 6 2 1 ; ; = $ O ",
"u.;.&.@.o. ._ / ! Y D M v c g i . o o o o . ",
"8.` ) E L K Z V N w q 0 6 2 1 ; o B B B B X ",
"q.#.O.o.| ( ^ Q Y M m c h p u r o B B B B X ",
",.E L G Z V N w q 0 6 2 1 ; - = o B B B B X ",
"A - - & & % % # # # @ @ @ + + O X B B B B o ",
"j.j.j.j.j.j.j.j.j.j.j.j.j.j.j.j.  X X X X   "
};
