/* XPM */
static const char *xpmFolderOpen48x48[] = {
/* columns rows colors chars-per-pixel */
"48 48 231 2",
"   c black",
".  c #020b01",
"X  c #051503",
"o  c #051904",
"O  c #081f06",
"+  c #062204",
"@  c #062f03",
"#  c #082405",
"$  c #092e06",
"%  c #0a2e08",
"&  c #0a3707",
"*  c #0c360a",
"=  c #083d03",
"-  c #0e3e0b",
";  c #094405",
":  c #0e420a",
">  c #0a4b05",
",  c #0f4b0a",
"<  c #0b5405",
"1  c #0e5509",
"2  c #0b5c05",
"3  c #0e5a08",
"4  c #11430e",
"5  c #124c0e",
"6  c #13540e",
"7  c #135c0d",
"8  c #0c6306",
"9  c #0f6608",
"0  c #0f6c07",
"q  c #0f7407",
"w  c #0f7a07",
"e  c #14630e",
"r  c #146b0e",
"t  c #176e10",
"y  c #1b6216",
"u  c #1d6618",
"i  c #1d6917",
"p  c #1e6b19",
"a  c #15750e",
"s  c #157c0e",
"d  c #1b7114",
"f  c #1f7119",
"g  c #206e1a",
"h  c #21741a",
"j  c #227d1b",
"k  c #108207",
"l  c #16830e",
"z  c #168c0e",
"x  c #1a8d11",
"c  c #17930e",
"v  c #18960e",
"b  c #189c0e",
"n  c #1e9115",
"m  c #18a40e",
"M  c #19ac0e",
"N  c #19b40e",
"B  c #1abc0e",
"V  c #23841c",
"C  c #258c1d",
"Z  c #25941d",
"A  c #279b1e",
"S  c #289f1f",
"D  c #278621",
"F  c #298722",
"G  c #289520",
"H  c #299c21",
"J  c #339f2b",
"K  c #3c9f34",
"L  c #27a21d",
"P  c #28a31f",
"I  c #2aa321",
"U  c #2bab22",
"Y  c #2cb323",
"T  c #2ebb24",
"R  c #30bd26",
"E  c #3eb235",
"W  c #39bd30",
"Q  c #1ac00e",
"!  c #1ec412",
"~  c #21c715",
"^  c #22c816",
"/  c #25cb19",
"(  c #29cf1d",
")  c #2bd11f",
"_  c #2fc224",
"`  c #2fc924",
"'  c #2dd321",
"]  c #31c426",
"[  c #32ca26",
"{  c #35cd2a",
"}  c #38cf2d",
"|  c #3cc432",
" . c #31d725",
".. c #32d826",
"X. c #36dc2a",
"o. c #39d12e",
"O. c #39df2d",
"+. c #3dd332",
"@. c #3ae02e",
"#. c #3ee432",
"$. c #5bae55",
"%. c #52ba4b",
"&. c #62a75d",
"*. c #63ad5d",
"=. c #63bc5c",
"-. c #66a961",
";. c #6ab065",
":. c #71a46d",
">. c #76a473",
",. c #72b36d",
"<. c #71bd6c",
"1. c #77b272",
"2. c #7aba75",
"3. c #41d736",
"4. c #44d539",
"5. c #42d937",
"6. c #45db3b",
"7. c #48d43d",
"8. c #49de3e",
"9. c #41e735",
"0. c #42e836",
"q. c #45eb39",
"w. c #48ee3c",
"e. c #4bf13f",
"r. c #4bdf40",
"t. c #56d24e",
"y. c #53d849",
"u. c #58d94f",
"i. c #5fdc56",
"p. c #4de342",
"a. c #4df341",
"s. c #51e446",
"d. c #55e54b",
"f. c #55e84b",
"g. c #59e64f",
"h. c #59eb4e",
"j. c #5de653",
"k. c #5ced52",
"l. c #51f645",
"z. c #56f64a",
"x. c #5af64e",
"c. c #5df453",
"v. c #64c35e",
"b. c #66c95f",
"n. c #69ce61",
"m. c #69d361",
"M. c #6cda64",
"N. c #77c371",
"B. c #7bc375",
"V. c #7bcd75",
"C. c #70df68",
"Z. c #7bd475",
"A. c #7cdb75",
"S. c #63e75a",
"D. c #67e85e",
"F. c #69e75f",
"G. c #68e85f",
"H. c #62f357",
"J. c #65f55a",
"K. c #69f55f",
"L. c #6fe066",
"P. c #6de864",
"I. c #6cf662",
"U. c #74e26d",
"Y. c #70e967",
"T. c #74ea6c",
"R. c #78e471",
"E. c #7beb73",
"W. c #7feb78",
"Q. c #70f666",
"!. c #74f66b",
"~. c #78f66f",
"^. c #7cf674",
"/. c #84dd7e",
"(. c #82e27c",
"). c #83ec7c",
"_. c #84f67c",
"`. c #8ac386",
"'. c #8fd689",
"]. c #98c894",
"[. c #87e680",
"{. c #87ed80",
"}. c #89e482",
"|. c #8bed84",
" X c #8fee88",
".X c #87f080",
"XX c #8bf683",
"oX c #92ef8c",
"OX c #97ef91",
"+X c #98ef92",
"@X c #93f68b",
"#X c #93f88c",
"$X c #97f690",
"%X c #9cf395",
"&X c #9ff199",
"*X c #9af994",
"=X c #b7dfb4",
"-X c #b8dfb5",
";X c #a2f39d",
":X c #a3f99c",
">X c #a7eba2",
",X c #a6f3a1",
"<X c #aaf3a5",
"1X c #aef4a9",
"2X c #a9f9a4",
"3X c #aff9a9",
"4X c #b5e6b1",
"5X c #b2f4ad",
"6X c #b6f5b1",
"7X c #b5f9b0",
"8X c #baf5b5",
"9X c #bef6ba",
"0X c #bbf9b6",
"qX c #c2f6be",
"wX c #c2f9bd",
"eX c #c6f6c2",
"rX c #c5f9c2",
"tX c #caf7c6",
"yX c #ccf7c9",
"uX c #cbfac7",
"iX c #ccf9c9",
"pX c #d1face",
"aX c #d5fad3",
"sX c #d9fbd6",
"dX c #ddfadb",
"fX c #e1fbdf",
"gX c #e3fbe2",
"hX c #e8fbe6",
"jX c #edfcec",
"kX c white",
"lX c None",
/* pixels */
"lXlXlXlXlXlXlXlXlXlXlXlXlXlXlXlXlXlXlXlXlXlXlXlXlXlXlXlXlXlXlXlXlXlXlXlXlXlXlXlXlXlXlXlXlXlXlXlX",
"lXlXlXlXlXlXlXlXlXlXlXlXlXlXlXlXlXlXlXlXlXlXlXlXlXlXlXlXlXlXlXlXlXlXlXlXlXlXlXlXlXlXlXlXlXlXlXlX",
"lXlXlXlXlXlXlXlXlXlXlXlXlXlXlXlXlXlXlXlXlXlXlXlXlXlXlXlXlXlXlXlXlXlXlXlXlXlXlXlXlXlXlXlXlXlXlXlX",
"lXlXlXlXlXlXlXlXlXlXlXlXlXlXlXlXlXlXlXlXlXlXlXlXlXlXlXlXlXlXlXlXlXlXlXlXlXlXlXlXlXlXlXlXlXlXlXlX",
"lXlXlXlXlXlXlXlXlXlXlXlXlXlXlXlXlXlXlXlXlXlXlXlXlXlXlXlXlXlXlXlXlXlXlXlXlXlXlXlXlXlXlXlXlXlXlXlX",
"lXlXlXlXlXlXlXlX                      lXlXlXlXlXlXlXlXlXlXlXlXlXlXlXlXlXlXlXlXlXlXlXlXlXlXlXlXlX",
"lXlXlXlXlXlX  4X>X}./././.A.t.-         lXlXlXlXlXlXlXlXlXlXlXlXlXlXlXlXlXlXlXlXlXlXlXlXlXlXlXlX",
"lXlXlXlXlX  -XeX5XOXoXoXoX{.S.] O         lXlXlXlXlXlXlXlXlXlXlXlXlXlXlXlXlXlXlXlXlXlXlXlXlXlXlX",
"lXlXlXlX  -XyXqX+XR.T.T.T.T.S.| L X         lXlXlXlXlXlXlXlXlXlXlXlXlXlXlXlXlXlXlXlXlXlXlXlXlXlX",
"lXlXlX  -XyXqXoXj.p.p.s.s.d.d.y.W A X         lXlXlXlXlXlXlXlXlXlXlXlXlXlXlXlXlXlXlXlXlXlXlXlXlX",
"lXlX  -XyXqXoXj.q.p.s.s.d.d.g.g.u.| U X                                                     lXlX",
"lX  =XyXqXoXj.q.p.p.s.d.d.g.g.S.S.i.7.4.n././.'.}.}.}.}.}.}.}.}.}.}.}.'.}.}.}.}.M.[ 6         lX",
"lX].qXqXoXj.8.p.s.s.d.d.g.j.j.S.D.F.P.T. X&X;X;X<X<X<X<X<X<X1X1X1X5X5X5X6X6X6X6XoXV %         lX",
"lX'.;X+Xj.q.p.s.s.d.d.g.g.S.S.S.F.P.Y.E.).|.oXoXOX+X+X;X;X,X<X<X1X5X6X8X8X9XqXeX`.t +         lX",
"lXN.oX).Y.Y.T.T.R.E.E.E.E.).).).).).).|.|.|.oXoXoXoXOX+X+X+X+X&X;X;X;X>X<X<X<X1X,.F o           ",
"  <.oX).p.s.s.d.d.g.j.j.S.S.S.P.Y.Y.T.E.E.).).).|. XoXOX+X+X&X>X>X<X1X5X6X8X9X9X:.r X           ",
"  ;.oX).Y.T.T.E.T.E.E.).).).).).|.|.|. XoXoXoXoXOXOX+X&X&X&X&X>X;X<X<X<X1X5X5X5X,.D X           ",
"  ;.oX).s.d.d.g.j.j.S.S.F.P.Y.Y.T.T.E.).).).|. X XOX+X+X&X;X<X<X5X5X5X8X8X9XeXeX>.t X           ",
"  ;.oX).T.E.E.E.).).).).).).|.|.|. X XoX@X@XOXOX+X%X&X&X&X;X>X<X<X<X1X1X5X5X5X6X1.D X           ",
"  ;.oX|.d.g.<XjXfXdXdXdXfXdXsXaXpXuXrXwX0X7X3X2X:X:X$X$X@X X|.|.(.(.(.A.Z.Z.V.B.B.B.2.2.-.a 3   ",
"  ;.oX|.R.E.yXjXfXdXdXdXsXaXpXtXrXwX0X5X3X2X:X$X@X@XXX_.).).(.R.T.C.M.M.m.m.b.v.v.=.*.&.j > >   ",
"  ;.oX|.j.j.dXfXtXeXeXqX8X5X1X:X;X@XXX_.~.I.H.z.e.w.q.9.O...' ( ^ ! B N M m b c z l s a 2 > ;   ",
"  ;.oX|.W.oXhXfXpXyXtXqXwX6X5X<X:X$X@X_._.!.K.H.H.f.f.8.8.5.3.o.[ ` _ T Y P P P A Z a r < > +   ",
"  ;.oXoXS.oXhXaXeXqX9X6X5X:X:X$XXX_.~.Q.H.x.l.e.q.9.@... .) / ~ Q B M M m b c l l a a e > >     ",
"  ;.oXoX).8XhXaXtXqXwX8X5X2X:X*X@XXX_.~.I.J.H.h.d.s.8.6.3.o.} [ _ T Y P P P A Z Z C r 7 > ;     ",
"  ;.oXoXD.yXgXyXwX8X5X2X:X*X@X_.^.Q.J.x.l.e.q.9.@.X. .( / ~ Q B N M m b c z l s a r e 1 ; =     ",
"  ;.oXOX|.gXgXyXwXwX5X1X:X;X@XXX_.^.Q.J.H.h.f.s.q.8.4.3.} [ ] R Y Y U P P A Z V V V 7 > > @     ",
"  ;.oXOX).hXsX8X5X3X;X*XOXXX_.!.K.c.z.e.q.q.@.X... .( ~ ! B N M m b c z l s a r e 7 7 ; ; .     ",
"  ;.oX+X5XgXaX9X6X3X<X:X$X@X_.^.!.K.H.c.g.d.s.8.5.3.o.[ [ ] T Y U I P A Z C V V f f 1 > ;       ",
"  ;.oX+X9XfXwX5X:X;X$XXX_.~.I.H.z.e.q.q.9.O... .( / ~ B N M m b c z l s a a r e e 7 , ; &       ",
"  ;.oX&XaXdXwX5X2X;X*X@X_._.!.I.H.H.h.f.s.q.5.3.o.} [ ] R Y P P P A Z C C V V f f f , : %       ",
"  ;.oX,XfXpX2X:X$XXX_.~.Q.H.x.l.e.q.9.@... .) / ~ B B M M b b c l l a r r e 7 6 6 5 : : o       ",
"  ;.oX6XdXuX3X2X%X@XXX_.~.Q.J.H.k.f.s.r.8.4.+.} { ] T Y Y U I H G C C V j j h h p i - -         ",
"  ;.oXeXsX0X$X@X_.^.Q.K.x.l.a.q.0.#.X. .' / ~ ! B M M b v c z s s a r e 7 7 6 5 5 4 - *         ",
"  ;.oXyXaX7X:X$X@X_.^.Q.K.H.c.h.s.p.8.6.+.} { ] R Y Y U I H G Z C V V j h h g g u y - %         ",
"  ;.oXaXyX%XXX^.!.I.c.l.a.q.0.#.X. .' ( ^ ! B N M m b n z l s a r e 7 7 6 5 5 4 4 - - O         ",
"  ;.;XpXwX*X@X_.^.!.I.J.k.k.d.p.8.6.3.o.{ [ ] T Y U I H H Z C V V j h h h p g y y y -           ",
"  ;.<XpX3X_.~.I.H.z.a.q.q.9.O...' ) / ! B N M m b v z l s a a e e 7 6 6 5 4 4 4 4 - -           ",
"  ;.6XuX2XXX_.~.Q.J.k.h.g.d.r.8.3.+.} [ ] R Y Y U I H G Z V V V j h h g p u y u y e *           ",
"  $.<X$X%.K J J H H A Z Z x x x z l k w w a q 0 r 9 8 2 7 1 1 > , , : : 4 - - - - - %           ",
"  E n.h h f d d d r r r r r 9 9 9 8 8 2 2 2 2 < < < < > > > > > ; ; ; : - - - - - - #           ",
"                                                                                                ",
"lX                                                                                            lX",
"lX                                                                                            lX",
"lX                                                                                            lX",
"lX                                                                                            lX",
"lXlXlXlXlXlXlXlXlXlXlXlXlXlXlXlXlXlXlXlXlXlXlXlXlXlXlXlXlXlXlXlXlXlXlXlXlXlXlXlXlXlXlXlXlXlXlXlX",
"lXlXlXlXlXlXlXlXlXlXlXlXlXlXlXlXlXlXlXlXlXlXlXlXlXlXlXlXlXlXlXlXlXlXlXlXlXlXlXlXlXlXlXlXlXlXlXlX"
};
