/* XPM */
static const char *xpmFolderOpenConnected16x16[] = {
/* columns rows colors chars-per-pixel */
"16 16 94 2",
"   c black",
".  c #094704",
"X  c #094e04",
"o  c #0a5405",
"O  c #0a5a05",
"+  c #0d5d09",
"@  c #0c6406",
"#  c #0e680a",
"$  c #136a0c",
"%  c #13720f",
"&  c #147e0e",
"*  c #1b7914",
"=  c #198314",
"-  c #1b8c14",
";  c #1f9518",
":  c #1b9d12",
">  c #1eaf14",
",  c #1fb016",
"<  c #218b1c",
"1  c #25981f",
"2  c #20a017",
"3  c #21a319",
"4  c #24b21a",
"5  c #28b51f",
"6  c #29ad20",
"7  c #2fb727",
"8  c #35b32c",
"9  c green",
"0  c #20c215",
"q  c #25c31a",
"w  c #28c41f",
"e  c #2cc523",
"r  c #2ece24",
"t  c #34c72b",
"y  c #34cf2b",
"u  c #32c531",
"i  c #39cf30",
"p  c #39d92e",
"a  c #3bd831",
"s  c #3be12f",
"d  c #3ce130",
"f  c #47bb40",
"g  c #42d238",
"h  c #41da36",
"j  c #44da3b",
"k  c #45e33a",
"l  c #4ae43f",
"z  c #4edc45",
"x  c #5cc655",
"c  c #4de542",
"v  c #50e447",
"b  c #56e54c",
"n  c #54ee4a",
"m  c #59ef4f",
"M  c #5ee654",
"N  c #5ced52",
"B  c #52f047",
"V  c #58f04e",
"C  c #68c762",
"Z  c #72d76c",
"A  c #75d270",
"S  c #7bdc7a",
"D  c #60ee57",
"F  c #67ea5e",
"G  c #68f45e",
"H  c #6ce863",
"J  c #6df464",
"K  c #70e967",
"L  c #76ea6d",
"P  c #79e571",
"I  c #7aeb72",
"U  c #7feb78",
"Y  c #73f36a",
"T  c #83eb7c",
"R  c #82f479",
"E  c #94db90",
"W  c #8aec84",
"Q  c #8eeb88",
"!  c #8af482",
"~  c #91eb8c",
"^  c #96eb92",
"/  c #99e793",
"(  c #9aeb96",
")  c #9deb9a",
"_  c #97f591",
"`  c #9cf497",
"'  c #a0eb9d",
"]  c #a5f59f",
"[  c #aaf5a6",
"{  c #aef5aa",
"}  c #b3f1b0",
"|  c #bcf5b8",
" . c white",
".. c None",
/* pixels */
"................................",
"..s 6 6 6 ......................",
"s 6 d k j 6 ....................",
"6 s c b M F 6 6 6 6 6 6 6 6 s ..",
"6 l b M F K P H H K L I T 6 W ..",
"6 U T T W W Q ~ ~ ( ( ) ) 6 S u ",
"6 P 6 6 6 6 6 4 6 6 6 6 6 6 6 6 ",
"6 Z C | [ _ R J n c a r 0 , & # ",
"6 x E { ` R Y N v j y e 4 > $ O ",
"6 8 } _ R G B k p r 0 , : - o o ",
"6 f [ ! Y D b j i e 5 3 ; = + . ",
"6 A ! Y m c h y q 4 2           ",
"6 ^ J V c h y q 4 2 -   9 9 9   ",
"6 [ G M z g t 7 6 1 <   9 9 9   ",
"4 * $ $ @ @ O o o X X   9 9 9   ",
"6 ....................          "
};
