/* XPM */
static const char *xpmFolderClosed32x32[] = {
/* columns rows colors chars-per-pixel */
"32 32 185 2",
"   c black",
".  c #082706",
"X  c #0a3e06",
"o  c #0d3d09",
"O  c #0a4306",
"+  c #0e420a",
"@  c #0b4c06",
"#  c #0c5206",
"$  c #0e5309",
"%  c #0c5b06",
"&  c #134b0e",
"*  c #13530e",
"=  c #135c0e",
"-  c #0d6306",
";  c #0d6c06",
":  c #0d6c0b",
">  c #0e7406",
",  c #0e710b",
"<  c #0e7806",
"1  c #14640e",
"2  c #146d0e",
"3  c #14740e",
"4  c #147c0d",
"5  c #147411",
"6  c #157b12",
"7  c #1a7d15",
"8  c #1f7b19",
"9  c #207e19",
"0  c #16830e",
"q  c #168b0e",
"w  c #1a8315",
"e  c #1d8719",
"r  c #1c8b17",
"t  c #1e8a1a",
"y  c #17920e",
"u  c #18960e",
"i  c #189b0e",
"p  c #1e921a",
"a  c #1f981b",
"s  c #18a30e",
"d  c #19ab0e",
"f  c #19b30e",
"g  c #1abc0e",
"h  c #218e1c",
"j  c #22951e",
"k  c #239b1e",
"l  c #269c21",
"z  c #329f2a",
"x  c #24a21f",
"c  c #27a422",
"v  c #27ac21",
"b  c #2ba324",
"n  c #2bab25",
"m  c #2cb425",
"M  c #2fb028",
"N  c #2ebd26",
"B  c #2fb928",
"V  c #30ad2a",
"C  c #31b52b",
"Z  c #34bc2c",
"A  c #1bc10f",
"S  c #1ec412",
"D  c #21c715",
"F  c #23c917",
"G  c #25cb19",
"H  c #29cf1d",
"J  c #2bd11f",
"K  c #2ed422",
"L  c #34c32c",
"P  c #36cc2c",
"I  c #37c030",
"U  c #37c830",
"Y  c #3ac532",
"T  c #3ccb34",
"R  c #30d624",
"E  c #33d927",
"W  c #36dc2a",
"Q  c #39dd2e",
"!  c #3cd731",
"~  c #3be12f",
"^  c #3de232",
"/  c #44a83d",
"(  c #48b340",
")  c #63aa5e",
"_  c #6bb266",
"`  c #41ce39",
"'  c #44d13c",
"]  c #41e735",
"[  c #42e836",
"{  c #45eb39",
"}  c #48ee3c",
"|  c #4bf13f",
" . c #4ad443",
".. c #4dd845",
"X. c #56c951",
"o. c #5ace54",
"O. c #51d749",
"+. c #50d847",
"@. c #53db4c",
"#. c #5dd355",
"$. c #5ade52",
"%. c #4df341",
"&. c #5de255",
"*. c #51f645",
"=. c #55f649",
"-. c #5af64e",
";. c #5df652",
":. c #63d75e",
">. c #6fca68",
",. c #69da63",
"<. c #6fdd69",
"1. c #7acb74",
"2. c #7edf77",
"3. c #63e55b",
"4. c #65e95e",
"5. c #60f655",
"6. c #64f65a",
"7. c #68f65f",
"8. c #67ea60",
"9. c #6ceb64",
"0. c #6cf661",
"q. c #74e26f",
"w. c #70e967",
"e. c #72ed6a",
"r. c #7ae574",
"t. c #7fe579",
"y. c #70f666",
"u. c #74f36c",
"i. c #7cf474",
"p. c #81ce7b",
"a. c #85d77f",
"s. c #82e57b",
"d. c #84ec7d",
"f. c #83f57c",
"g. c #8cd787",
"h. c #93c68f",
"j. c #93d78e",
"k. c #98d794",
"l. c #9ed79a",
"z. c #87ea80",
"x. c #8aee84",
"c. c #8af383",
"v. c #8ff489",
"b. c #93f48c",
"n. c #96f290",
"m. c #9af394",
"M. c #9ef399",
"N. c #9bf994",
"B. c #a2cd9f",
"V. c #a3d79f",
"C. c #a7d7a4",
"Z. c #acd1a9",
"A. c #a1e19e",
"S. c #a2f59d",
"D. c #a8e3a5",
"F. c #a6f6a1",
"G. c #aaf6a5",
"H. c #aef5a9",
"J. c #a9f9a3",
"K. c #b0e4ad",
"L. c #b7e5b4",
"P. c #bde6bb",
"I. c #b2f5ae",
"U. c #b5f7b1",
"Y. c #b6f9b1",
"T. c #baf6b6",
"R. c #bff7bb",
"E. c #c1f7be",
"W. c #c2f9be",
"Q. c #c3e6c1",
"!. c #c8e7c6",
"~. c #cbe8ca",
"^. c #c7f8c5",
"/. c #c8f7c5",
"(. c #c9f8c7",
"). c #cdf8cb",
"_. c #d1ead0",
"`. c #d0f7ce",
"'. c #d4f9d1",
"]. c #d9fad7",
"[. c #dcfadb",
"{. c #e2fae1",
"}. c #eefcec",
"|. c white",
" X c None",
/* pixels */
" X X X X X X X X X X X X X X X X X X X X X X X X X X X X X X X X",
" X X X X X X X X X X X X X X X X X X X X X X X X X X X X X X X X",
" X X X X X X X X X X X X X X X X X X X X X X X X X X X X X X X X",
" X X X X X                 X X X X X X X X X X X X X X X X X X X",
" X X X X    h.p.1.1.>.b      X X X X X X X X X X X X X X X X X X",
" X X X    B.H.d.e.e.9.' 9      X X X X X X X X X X X X X X X X X",
" X X    B.I.9.~ ~ ~ ~ Q P 9                                    X",
" X    B.I.w.~ ~ ~ ~ ~ ~ Q P / ) _ _ _ _ _ _ _ _ _ _ _ _ ( 8     ",
" X  Z.`.I.M.m.m.n.n.x.x.d.d.d.m.b.b.v.v.x.z.d.d.s.s.r.2.Z 2     ",
" X  _.}.{.[.].'.)./.E.T.I.G.S.N.b.x.d.r.r.q.<.,.:.#.o.X.k @     ",
" X  C.[.E.T.I.H.S.m.v.f.u.7.;.=.| { ] ~ W R H F S g f d - @     ",
" X  ~.{.)./.E.T.H.S.S.b.c.i.u.0.4.&.$.+. .' T P L N m v e O     ",
" X  C.'.U.H.S.N.v.f.i.0.5.=.| } ] ~ W R J F S g f d s u - O     ",
" X  !.[.E.T.I.G.S.m.c.f.u.w.4.3.&.@...' ` U L L m m x x w O     ",
" X  V.).S.N.b.f.i.y.5.=.| } [ ~ W R J G D g f d s i y q % O     ",
" X  Q.'.Y.H.S.m.v.f.i.y.9.4.3.@.+. .' T L L B m v x k a 6 O     ",
" X  l.W.b.c.i.y.5.-.*.} [ ^ W E J G D A f d s i u q 0 4 # O     ",
" X  P.^.F.N.b.c.f.u.9.4.3.$.@. .' ` P L Z m n c x k p r 3 O     ",
" X  k.Y.f.u.7.-.*.} [ ] Q E K H D A g d s i y q 0 4 3 2 @ O     ",
" X  L.W.m.c.f.u.e.8.3.3.@.+. .` T L Z C m b c k j p w w 3 X     ",
" X  j.J.7.5.*.| { ] Q E R H F g g f s i u q 0 4 3 2 1 = @ X     ",
" X  K.I.f.i.y.9.4.3.@.+. .' ` I Z C C n c l j p r w w 6 , X     ",
" X  g.N.=.| { ] ~ W R H G D g f d i u q 0 4 3 2 1 1 * * O X     ",
" X  D.F.u.e.4.3.:.@.O.' ` Y Z Z C V b l k j h e w 7 6 5 : o     ",
" X  a.v.} [ ^ W K J F D g f d s i r 0 4 4 2 1 = = * & & o o     ",
" X  A.M.8.3.$.$... .` T Y Z C V b l l l h e w 7 6 5 3 2 : o     ",
" X  #.! w w w 4 4 4 < > ; ; - - - % % % # @ @ @ O + + + o o     ",
" X  b 7 $ $ # # # @ @ @ @ @ @ O @ O O O O O O O X o o o o .     ",
" X                                                              ",
" X X                                                            ",
" X X X X X X X X X X X X X X X X X X X X X X X X X X X X X X X X",
" X X X X X X X X X X X X X X X X X X X X X X X X X X X X X X X X"
};
