/* XPM */
static const char *xpmFolderClosedConnected48x48[] = {
/* columns rows colors chars-per-pixel */
"48 48 220 2",
"   c black",
".  c #051504",
"X  c #051e02",
"o  c #081f06",
"O  c #052202",
"+  c #073104",
"@  c #0a3c06",
"#  c #0e3e0a",
"$  c #094604",
"%  c #0e440a",
"&  c #0a4b05",
"*  c #0d4d08",
"=  c #0a5305",
"-  c #0d5308",
";  c #0b5a05",
":  c #0e5c08",
">  c #10400d",
",  c #124b0e",
"<  c #13540e",
"1  c #135d0e",
"2  c #0c6306",
"3  c #0e6508",
"4  c #0e6c07",
"5  c #0f6c08",
"6  c #0f7507",
"7  c #0f7a07",
"8  c #14640e",
"9  c #146b0d",
"0  c #176811",
"q  c #196514",
"w  c #1a6c14",
"e  c #1f6d19",
"r  c #15740e",
"t  c #157b0e",
"y  c #1d7217",
"u  c #1f7319",
"i  c #1f7b19",
"p  c #21751b",
"a  c #227c1c",
"s  c #108207",
"d  c #15830d",
"f  c #178b0e",
"g  c #188b0f",
"h  c #1b8e13",
"j  c #17920e",
"k  c #18960e",
"l  c #189c0e",
"z  c #1c9114",
"x  c #18a40e",
"c  c #19ac0e",
"v  c #19b30e",
"b  c #1abc0e",
"n  c #24841d",
"m  c #268b1e",
"M  c #25931d",
"N  c #269e1d",
"B  c #289b1f",
"V  c #278d20",
"C  c #288d20",
"Z  c #279320",
"A  c #299521",
"S  c #2a9c22",
"D  c #27a21d",
"F  c #2ba423",
"G  c #2dab24",
"H  c #2eb425",
"J  c #2fbb24",
"K  c #30ad27",
"L  c #30b427",
"P  c #31b428",
"I  c #31bb26",
"U  c #33bc29",
"Y  c #1ac00e",
"T  c #1dc311",
"R  c green",
"E  c #21c715",
"W  c #23c917",
"Q  c #25cb19",
"!  c #29cf1d",
"~  c #2bd11f",
"^  c #2ed422",
"/  c #32c327",
"(  c #35c32a",
")  c #32c827",
"_  c #35ca2b",
"`  c #39cd2e",
"'  c #3ac630",
"]  c #3bce31",
"[  c #30d624",
"{  c #37d42b",
"}  c #32d826",
"|  c #36dc2a",
" . c #39df2d",
".. c #3ed133",
"X. c #3be12f",
"o. c #3de331",
"O. c #41b839",
"+. c #41d436",
"@. c #44d53a",
"#. c #46d93c",
"$. c #49da3e",
"%. c #41e735",
"&. c #43e937",
"*. c #45eb39",
"=. c #48e33d",
"-. c #48ee3c",
";. c #4bf13f",
":. c #4cdd42",
">. c #57c74f",
",. c #57cb4f",
"<. c #59cf50",
"1. c #56d24e",
"2. c #50df46",
"3. c #57d94e",
"4. c #5cd552",
"5. c #4fe044",
"6. c #4df341",
"7. c #51e246",
"8. c #55e44b",
"9. c #58e64e",
"0. c #5ae84f",
"q. c #5be751",
"w. c #5deb53",
"e. c #51f645",
"r. c #56f64a",
"t. c #5af64e",
"y. c #5cf651",
"u. c #60d957",
"i. c #65dd5d",
"p. c #6bcf65",
"a. c #7dd476",
"s. c #7fd079",
"d. c #7cda75",
"f. c #63e759",
"g. c #61ed56",
"h. c #63ee59",
"j. c #68e85e",
"k. c #61f656",
"l. c #65f35b",
"z. c #69f45f",
"x. c #6de164",
"c. c #6eea66",
"v. c #6cf662",
"b. c #71e568",
"n. c #74eb6c",
"m. c #7bec72",
"M. c #71f767",
"N. c #74f66a",
"B. c #78f76f",
"V. c #7cf673",
"C. c #82d17c",
"Z. c #83dd7d",
"A. c #85e47e",
"S. c #83ec7c",
"D. c #80f777",
"F. c #83f67b",
"G. c #86f97e",
"H. c #86d181",
"J. c #8ad185",
"K. c #8fd18a",
"L. c #93d18e",
"P. c #97d192",
"I. c #9ad196",
"U. c #9dd19a",
"Y. c #87e680",
"T. c #87e880",
"R. c #89e482",
"E. c #8bec84",
"W. c #8fef88",
"Q. c #87f780",
"!. c #8bf683",
"~. c #8ff488",
"^. c #8cf984",
"/. c #92ef8b",
"(. c #93f58c",
"). c #93f98b",
"_. c #96f690",
"`. c #9af793",
"'. c #9ff799",
"]. c #9af994",
"[. c #9ffa99",
"{. c #a4daa1",
"}. c #aadda6",
"|. c #b7dfb4",
" X c #b8dfb5",
".X c #bedfbb",
"XX c #a2f79c",
"oX c #a3f99d",
"OX c #a7eba2",
"+X c #a6f6a0",
"@X c #aaf7a4",
"#X c #aef5a9",
"$X c #aaf9a4",
"%X c #aefaa8",
"&X c #b5e6b1",
"*X c #bce9b8",
"=X c #b2f7ac",
"-X c #b2f9ad",
";X c #b6f6b2",
":X c #b6fab1",
">X c #baf7b6",
",X c #bcf6b8",
"<X c #bbfab6",
"1X c #bef9ba",
"2X c #c2f6be",
"3X c #c2f9bd",
"4X c #c6f5c2",
"5X c #c5f9c1",
"6X c #ccf6c9",
"7X c #caf9c6",
"8X c #cef9ca",
"9X c #d1face",
"0X c #d4f7d1",
"qX c #d5fad3",
"wX c #d8f9d6",
"eX c #ddfadb",
"rX c #e4fbe2",
"tX c #ecfceb",
"yX c white",
"uX c None",
/* pixels */
"uXuXuXuXuXuXuXuXuXuXuXuXuXuXuXuXuXuXuXuXuXuXuXuXuXuXuXuXuXuXuXuXuXuXuXuXuXuXuXuXuXuXuXuXuXuXuXuX",
"uXuXuXuXuXuXuXuXuXuXuXuXuXuXuXuXuXuXuXuXuXuXuXuXuXuXuXuXuXuXuXuXuXuXuXuXuXuXuXuXuXuXuXuXuXuXuXuX",
"uXuXuXuXuXuXuXuXuXuXuXuXuXuXuXuXuXuXuXuXuXuXuXuXuXuXuXuXuXuXuXuXuXuXuXuXuXuXuXuXuXuXuXuXuXuXuXuX",
"uXuXuXuXuXuXuXuXuXuXuXuXuXuXuXuXuXuXuXuXuXuXuXuXuXuXuXuXuXuXuXuXuXuXuXuXuXuXuXuXuXuXuXuXuXuXuXuX",
"uXuXuXuXuXuXuXuXuXuXuXuXuXuXuXuXuXuXuXuXuXuXuXuXuXuXuXuXuXuXuXuXuXuXuXuXuXuXuXuXuXuXuXuXuXuXuXuX",
"uXuXuXuXuXuXuXuXuXuX                      uXuXuXuXuXuXuXuXuXuXuXuXuXuXuXuXuXuXuXuXuXuXuXuXuXuXuX",
"uXuXuXuXuXuXuXuX  &XOXR.Z.Z.Z.d.1.#         uXuXuXuXuXuXuXuXuXuXuXuXuXuXuXuXuXuXuXuXuXuXuXuXuXuX",
"uXuXuXuXuXuXuX   X4X=X/./././.S.8./ o         uXuXuXuXuXuXuXuXuXuXuXuXuXuXuXuXuXuXuXuXuXuXuXuXuX",
"uXuXuXuXuXuX   X6X2X/.c.j.j.j.f.=.) D .         uXuXuXuXuXuXuXuXuXuXuXuXuXuXuXuXuXuXuXuXuXuXuXuX",
"uXuXuXuXuX   X6X2XE.7.o.X.X.X.X. .{ J N .         uXuXuXuXuXuXuXuXuXuXuXuXuXuXuXuXuXuXuXuXuXuXuX",
"uXuXuXuX  |.6X2XE.5.o.o.X.X.X.X.o. .{ J G .                                                     ",
"uXuXuX  |.6X2XE.5.o.X.X.X.X.X.o. .o. .{ { @.p.Z.Z.R.R.R.R.R.R.R.R.R.R.R.R.R.R.R.R.R.x.) <       ",
"uXuXuX.X0X8X#XE.m.m.m.m.m.n.n.n.n.n.c.c.c.m.!.(.(.(.(.(.(./.E.E.E.E.E.E.T.T.T.Y.Y.Y.3.z @       ",
"uXuXuX*XtXtXeXeXeXwXqX0X9X8X7X5X3X1X<X:X-X%X$XXXXX`.`._.(././.E.E.T.Y.Y.A.A.d.d.a.a.O.6 +       ",
"uXuXuX}.rXrXeXeXwXqX0X8X7X5X1X<X;X%X%XoXXX`.(.~.G.F.F.m.m.m.n.b.x.x.i.i.4.4.4.<.,.>.F u O       ",
"uXuX  {.eXwX4X1X,X;X#X@XoX'._.(.Q.D.V.M.z.k.r.e.6.-.*.%.o. .| [ ^ ! Q E T b v v c x 6 ; O       ",
"uXuX  U.eXwX8X4X4X2X,X=X=X@XXX`._.~.G.F.V.M.v.l.k.w.q.9.7.5.$.#.+...` ` ) ) J J H D m i X       ",
"uXuX  U.eXqX,X;X=X@X+XXX`.(.Q.F.V.N.z.k.t.6.6.-.*.%.o.X.| } ^ ~ Q E Y Y b v c x l l 4 ; O       ",
"uXuX  U.eX9X4X3X>X;X=X@XoX`.`.(.Q.G.V.N.v.l.l.w.q.9.8.5.=.#.+...` ` ) / I J H H D D n y O       ",
"uXuX  U.wX8X=X@X+X'.`.(.Q.G.V.B.v.k.y.e.6.-.-.&.o.X.| } ^ ~ Q W T b b v c x x k k f 4 = O       ",
"uXuX  U.qX7X1X;X=X@X+XXX`.(.Q.G.V.B.v.z.l.g.w.0.8.7.5.#.#.+...` ) ) I I H H G F D D n y X       ",
"uXuX  I.qX7X@XXX`.(.~.G.V.B.v.k.y.r.6.;.-.&.o.X.| } ^ ~ Q W T Y b v c c x l k f f d 3 = X       ",
"uXuX  I.9X2X=X@X@XXX`.(.^.G.D.B.v.z.l.h.w.0.8.7.5.$.#.+...` ` ) / I H H G D F S S M i w X       ",
"uXuX  I.9X3X`.(.~.G.V.B.M.l.y.r.e.;.-.*.o.o.| | [ ~ ~ Q T Y b v c c x l k j f d t t 2 & X       ",
"uXuX  P.7X<X@XoX`._.(.G.D.B.M.v.l.l.w.q.9.7.7.$.#.+...` _ _ / I H H G G F S S M M m i w X       ",
"uXuX  P.7X:X(.G.D.B.M.z.k.t.6.;.-.&.%.X. .| [ ^ ~ W W Y b b v c x l k j f d d t r 9 ; & X       ",
"uXuX  L.3X-X'._.(.Q.F.V.M.v.z.l.g.w.9.8.7.:.$.@.....` ) / U L H H G F S S M M m m n u w X       ",
"uXuX  L.3X%XF.V.N.v.k.t.e.6.-.-.%.o. .| [ ^ ! Q W Y Y b v c x l k j f d d t r r 9 8 - & X       ",
"uXuX  L.<X@X(.Q.F.V.N.v.z.h.g.w.9.8.7.:.$.@.@...` _ / I I L L G F F S S Z m m n n a y 0 X       ",
"uXuX  L.<XoXB.v.k.t.e.6.-.*.%.%. .| [ [ ! Q W T Y b v c x x k j f f d t t r 9 9 8 1 * & X       ",
"uXuX  J.:XXXG.V.B.M.z.z.h.g.w.8.2.2.:.#.+...] ` / ( I L L K F F S S Z V m n n a a u w 0 X       ",
"uXuX  J.-X].k.y.r.e.-.*.&.%.X.| } [ ~ Q W E Y b v c x x k k f f d t t r 9 9 8 1 1 < * $ X       ",
"uXuX  J.%X).B.M.v.z.h.g.w.9.8.:.:.#.@.+.` ` ( ( U P P K K F S S A C m m n a a p p p w 0 X       ",
"uXuX  H.$X).r.6.;.-.*.o.o.| { [ ~ ! Q E b b v c c x l k g g d t t r 9 0 0 1 1 < < , % % X       ",
"uXuX  H.oXQ.v.z.l.h.w.q.8.2.:.$.@.+.] ` ( ( U P P K K F F S A A C n n n a p p p e e q q X       ",
"uXuX  H.XXG.-.-.*.%.o.| | ^ ^ ! Q E Y b v v c x l k j f d t t r 9 0 8 8 1 < < < , , > # o       ",
"uXuX  C.].F.h.h.g.9.9.2.:.:.#.+...` ` ( U U P L K F S S A A m m n n a                           ",
"uXuX  C.`.F.*.%.o. .{ [ ^ ! W E T b v v c x l k j f d d t r 9 0 0 8 1   R R R R R R R R         ",
"uXuX  C._.V.g.9.9.2.2.:.#.@.+.' ` ( ( U P K K F F S A A A m m n a a p   R R R R R R R R         ",
"uXuX  p.c.{ M M M h h h f d s s s 7 6 6 6 9 4 4 8 3 : : 1 - - - * * *   R R R R R R R R         ",
"uXuX  ' G 9 9 9 3 3 3 3 3 2 2 2 2 ; ; ; ; ; = = = = = = & & & & $ & $   R R R R R R R R         ",
"uXuX                                                                    R R R R R R R R         ",
"uXuXuX                                                                  R R R R R R R R         ",
"uXuXuX                                                                  R R R R R R R R         ",
"uXuXuX                                                                  R R R R R R R R         ",
"uXuXuX                                                                                          ",
"uXuXuXuXuXuXuXuXuXuXuXuXuXuXuXuXuXuXuXuXuXuXuXuXuXuXuXuXuXuXuXuXuXuXuXuXuXuXuXuXuXuXuXuXuXuXuXuX",
"uXuXuXuXuXuXuXuXuXuXuXuXuXuXuXuXuXuXuXuXuXuXuXuXuXuXuXuXuXuXuXuXuXuXuXuXuXuXuXuXuXuXuXuXuXuXuXuX"
};
