/* XPM */
static const char *xpmFolderClosedNotConnected22x22[] = {
/* columns rows colors chars-per-pixel */
"22 22 134 2",
"   c black",
".  c #094704",
"X  c #094c04",
"o  c #095204",
"O  c #0a5c04",
"+  c #135c0e",
"@  c #0c6305",
"#  c #0f6709",
"$  c #0e720b",
"%  c #14650e",
"&  c #146c0d",
"*  c #14770e",
"=  c #147911",
"-  c #1c7116",
";  c #187f14",
":  c #5c7a5a",
">  c #16820e",
",  c #178d0e",
"<  c #188514",
"1  c #1c8c17",
"2  c #15980c",
"3  c #18990e",
"4  c #1c9217",
"5  c #1f931b",
"6  c #1f991b",
"7  c #18a50e",
"8  c #19b00e",
"9  c #1abc0e",
"0  c #26811f",
"q  c #228d1e",
"w  c #239a1e",
"e  c #2b8324",
"r  c #269422",
"t  c #269b22",
"y  c #2b9d25",
"u  c #22a21d",
"i  c #24a91e",
"p  c #24b11e",
"a  c #27a322",
"s  c #2ba425",
"d  c #2fa529",
"f  c #2aab24",
"g  c #2fad29",
"h  c #2bb223",
"j  c #2fb529",
"k  c #2bba24",
"l  c #33ae2d",
"z  c #34b52d",
"x  c #30bd25",
"c  c #32bd2b",
"v  c #37b731",
"b  c #3abf33",
"n  c #1fc513",
"m  c #27cd1b",
"M  c #2dc225",
"N  c #2ed422",
"B  c #33c42b",
"V  c #36c92d",
"C  c #3bc633",
"Z  c #3acb33",
"A  c #36dc2a",
"S  c #38d92d",
"D  c #3dd035",
"F  c #3be12f",
"G  c #3de331",
"H  c #559e50",
"J  c #6f9f6b",
"K  c #61a05c",
"L  c #42cc3a",
"P  c #44d33c",
"I  c #41da37",
"U  c #44ea38",
"Y  c #4bf13f",
"T  c #48cf40",
"R  c #4cd544",
"E  c #4fdc47",
"W  c #51d549",
"Q  c #55dc4d",
"!  c #5bdd53",
"~  c #4be340",
"^  c #5be552",
"/  c #56f64a",
"(  c #71d06a",
")  c #7bd275",
"_  c #7ed278",
"`  c #7cd975",
"'  c #7fde78",
"]  c #63e45b",
"[  c #64e85c",
"{  c #67f65c",
"}  c #6be663",
"|  c #6beb63",
" . c #73ec6b",
".. c #75f46d",
"X. c #77f170",
"o. c #7bf373",
"O. c red",
"+. c #83e27c",
"@. c #83ec7c",
"#. c #84f57c",
"$. c #9acc96",
"%. c #87e680",
"&. c #8ceb85",
"*. c #8cf585",
"=. c #90ef89",
"-. c #92f58b",
";. c #97f591",
":. c #99f593",
">. c #9ef599",
",. c #9efa97",
"<. c #a1cd9d",
"1. c #a2f69d",
"2. c #a6f4a1",
"3. c #a9f4a4",
"4. c #aef7aa",
"5. c #a8faa2",
"6. c #b0f7ab",
"7. c #b3f9ad",
"8. c #b6f6b2",
"9. c #bbf7b7",
"0. c #b9fab4",
"q. c #c2f7be",
"w. c #c2fabe",
"e. c #c9f7c6",
"r. c #c8fac5",
"t. c #cffacc",
"y. c #d1f9ce",
"u. c #d6fad3",
"i. c #dafad7",
"p. c #dcfadb",
"a. c #e0fadf",
"s. c #e4fbe2",
"d. c white",
"f. c None",
/* pixels */
"f.f.f.f.f.f.f.f.f.f.f.f.f.f.f.f.f.f.f.f.f.f.",
"f.f.f.f.f.f.f.f.f.f.f.f.f.f.f.f.f.f.f.f.f.f.",
"f.f.: J K K H ; f.f.f.f.f.f.f.f.f.f.f.f.f.f.",
"f.: <.1.@.@.X.I - f.f.f.f.f.f.f.f.f.f.f.f.f.",
": <.3.^ F F F S x e f.f.f.f.f.f.f.f.f.f.f.f.",
"$.3.^ G F F F F S I ( +._ _ _ _ _ _ _ _ _ h ",
":.^ S G F F F F S G U ^ ^ ^ ^ ^ ^ ^ ^ ^ ^ & ",
"s.s.p.i.u.t.r.w.0.7.5.,.;.-.-.&.+.+.' ` ) 2 ",
"s.i.u.e.9.8.3.:.-.#...| [ ^ E P D V M k p > ",
"u.w.8.5.>.-.#...{ / ~ U G A N m n 9 8 7 2 o ",
"a.t.r.8.4.>.-.*.X.| [ ^ Q R P V B k h i u = ",
"u.4.>.-.#...{ / Y U G A N m n 9 8 7 2 , > o ",
"p.9.4.2.;.*.o.| } ^ ! R P Z B x j f u 6 4 * ",
"r.-.#...{ / / U G A N m n 9 8 7 3 , > * & X ",
"y.5.:.*.o...| ] ! Q R D C c j f a w 5 1 < $ ",
"0...{ / ~ U G A N m n 9 8 7 3 , > * & % + . ",
"r.*.#.X.| [ ^ Q R L C b z l s t             ",
"5./ ~ U G F N m n 9 8 7 3 , > *   O.O.O.O.  ",
"8.o. .| ] ! W T L b v l d y r q   O.O.O.O.  ",
";.U G A N m n 9 8 7 3 , > * & %   O.O.O.O.  ",
"B & & # # @ @ O O O o o o X X .   O.O.O.O.  ",
"f.f.f.f.f.f.f.f.f.f.f.f.f.f.f.f.            "
};
