/* XPM */
static const char *xpmFolderOpenConnected48x48[] = {
/* columns rows colors chars-per-pixel */
"48 48 230 2",
"   c black",
".  c #020b01",
"X  c #051503",
"o  c #051904",
"O  c #081f06",
"+  c #062204",
"@  c #062f03",
"#  c #092f06",
"$  c #0a2e08",
"%  c #0a3707",
"&  c #0c360a",
"*  c #083d03",
"=  c #0e3e0b",
"-  c #094405",
";  c #0d4309",
":  c #0a4b05",
">  c #0f4b0a",
",  c #0b5405",
"<  c #0e5509",
"1  c #0b5c05",
"2  c #0e5a08",
"3  c #11430d",
"4  c #124c0e",
"5  c #13550e",
"6  c #135c0d",
"7  c #0c6306",
"8  c #0f6608",
"9  c #0f6c07",
"0  c #0f7407",
"q  c #0f7a07",
"w  c #14630e",
"e  c #146b0e",
"r  c #176e10",
"t  c #1b6216",
"y  c #1d6718",
"u  c #1d6917",
"i  c #1f6d19",
"p  c #15750e",
"a  c #157c0e",
"s  c #1b7114",
"d  c #1f7119",
"f  c #21741b",
"g  c #227d1b",
"h  c #108207",
"j  c #16830e",
"k  c #168c0e",
"l  c #1a8d11",
"z  c #17930e",
"x  c #18960e",
"c  c #189c0e",
"v  c #1e9115",
"b  c #18a40e",
"n  c #19ac0e",
"m  c #19b40e",
"M  c #1abc0e",
"N  c #23841c",
"B  c #258c1d",
"V  c #25941d",
"C  c #279b1e",
"Z  c #289f1f",
"A  c #278621",
"S  c #298722",
"D  c #289520",
"F  c #299c21",
"G  c #339f2b",
"H  c #3c9f34",
"J  c #27a21d",
"K  c #28a31f",
"L  c #2aa321",
"P  c #2bab22",
"I  c #2cb323",
"U  c #2ebb24",
"Y  c #30bd26",
"T  c #3eb235",
"R  c #39bd30",
"E  c #1ac00e",
"W  c #1ec412",
"Q  c green",
"!  c #21c715",
"~  c #22c816",
"^  c #25cb19",
"/  c #29cf1d",
"(  c #2bd11f",
")  c #2fc224",
"_  c #2fc924",
"`  c #2dd321",
"'  c #31c426",
"]  c #32ca26",
"[  c #35cd2a",
"{  c #38cf2d",
"}  c #3cc432",
"|  c #31d725",
" . c #32d826",
".. c #36dc2a",
"X. c #39d12e",
"o. c #39df2d",
"O. c #3dd332",
"+. c #3ae02e",
"@. c #3ee432",
"#. c #5bae55",
"$. c #52ba4b",
"%. c #62a75d",
"&. c #63ad5d",
"*. c #63bc5c",
"=. c #66a961",
"-. c #6ab065",
";. c #71a46d",
":. c #76a473",
">. c #72b36d",
",. c #71bd6c",
"<. c #77b272",
"1. c #7aba75",
"2. c #41d736",
"3. c #44d539",
"4. c #42d937",
"5. c #45db3b",
"6. c #48d43d",
"7. c #49de3e",
"8. c #41e735",
"9. c #42e836",
"0. c #45eb39",
"q. c #48ee3c",
"w. c #4bf13f",
"e. c #4bdf40",
"r. c #56d24e",
"t. c #53d849",
"y. c #58d94f",
"u. c #5fdc56",
"i. c #4de342",
"p. c #4df341",
"a. c #51e446",
"s. c #55e54b",
"d. c #55e84b",
"f. c #59e64f",
"g. c #59eb4e",
"h. c #5de653",
"j. c #5ced52",
"k. c #51f645",
"l. c #56f64a",
"z. c #5af64e",
"x. c #5df453",
"c. c #64c35e",
"v. c #66c95f",
"b. c #69ce61",
"n. c #69d361",
"m. c #6cda64",
"M. c #77c371",
"N. c #7bc375",
"B. c #7bcd75",
"V. c #70df68",
"C. c #7bd475",
"Z. c #7cdb75",
"A. c #63e75a",
"S. c #67e85e",
"D. c #69e75f",
"F. c #68e85f",
"G. c #62f357",
"H. c #65f55a",
"J. c #69f55f",
"K. c #6fe066",
"L. c #6de864",
"P. c #6cf662",
"I. c #74e26d",
"U. c #70e967",
"Y. c #74ea6c",
"T. c #78e471",
"R. c #7beb73",
"E. c #7feb78",
"W. c #70f666",
"Q. c #74f66b",
"!. c #78f66f",
"~. c #7cf674",
"^. c #84dd7e",
"/. c #82e27c",
"(. c #83ec7c",
"). c #84f67c",
"_. c #8ac386",
"`. c #8fd689",
"'. c #98c894",
"]. c #87e680",
"[. c #87ed80",
"{. c #89e482",
"}. c #8bed84",
"|. c #8fee88",
" X c #87f080",
".X c #8bf683",
"XX c #92ef8c",
"oX c #97ef91",
"OX c #98ef92",
"+X c #93f68b",
"@X c #93f88c",
"#X c #97f690",
"$X c #9cf395",
"%X c #9ff199",
"&X c #9af994",
"*X c #b7dfb4",
"=X c #b8dfb5",
"-X c #a2f39d",
";X c #a3f99c",
":X c #a7eba2",
">X c #a6f3a1",
",X c #aaf3a5",
"<X c #aef4a9",
"1X c #a9f9a4",
"2X c #aff9a9",
"3X c #b5e6b1",
"4X c #b2f4ad",
"5X c #b6f5b1",
"6X c #b5f9b0",
"7X c #baf5b5",
"8X c #bef6ba",
"9X c #bbf9b6",
"0X c #c2f6be",
"qX c #c2f9bd",
"wX c #c6f6c2",
"eX c #c5f9c2",
"rX c #caf7c6",
"tX c #ccf7c9",
"yX c #cbfac7",
"uX c #ccf9c9",
"iX c #d1face",
"pX c #d5fad3",
"aX c #d9fbd6",
"sX c #ddfadb",
"dX c #e1fbdf",
"fX c #e3fbe2",
"gX c #e8fbe6",
"hX c #edfcec",
"jX c white",
"kX c None",
/* pixels */
"kXkXkXkXkXkXkXkXkXkXkXkXkXkXkXkXkXkXkXkXkXkXkXkXkXkXkXkXkXkXkXkXkXkXkXkXkXkXkXkXkXkXkXkXkXkXkXkX",
"kXkXkXkXkXkXkXkXkXkXkXkXkXkXkXkXkXkXkXkXkXkXkXkXkXkXkXkXkXkXkXkXkXkXkXkXkXkXkXkXkXkXkXkXkXkXkXkX",
"kXkXkXkXkXkXkXkXkXkXkXkXkXkXkXkXkXkXkXkXkXkXkXkXkXkXkXkXkXkXkXkXkXkXkXkXkXkXkXkXkXkXkXkXkXkXkXkX",
"kXkXkXkXkXkXkXkXkXkXkXkXkXkXkXkXkXkXkXkXkXkXkXkXkXkXkXkXkXkXkXkXkXkXkXkXkXkXkXkXkXkXkXkXkXkXkXkX",
"kXkXkXkXkXkXkXkXkXkXkXkXkXkXkXkXkXkXkXkXkXkXkXkXkXkXkXkXkXkXkXkXkXkXkXkXkXkXkXkXkXkXkXkXkXkXkXkX",
"kXkXkXkXkXkXkXkX                      kXkXkXkXkXkXkXkXkXkXkXkXkXkXkXkXkXkXkXkXkXkXkXkXkXkXkXkXkX",
"kXkXkXkXkXkX  3X:X{.^.^.^.Z.r.=         kXkXkXkXkXkXkXkXkXkXkXkXkXkXkXkXkXkXkXkXkXkXkXkXkXkXkXkX",
"kXkXkXkXkX  =XwX4XoXXXXXXX[.A.' O         kXkXkXkXkXkXkXkXkXkXkXkXkXkXkXkXkXkXkXkXkXkXkXkXkXkXkX",
"kXkXkXkX  =XtX0XOXT.Y.Y.Y.Y.A.} J X         kXkXkXkXkXkXkXkXkXkXkXkXkXkXkXkXkXkXkXkXkXkXkXkXkXkX",
"kXkXkX  =XtX0XXXh.i.i.a.a.s.s.t.R C X         kXkXkXkXkXkXkXkXkXkXkXkXkXkXkXkXkXkXkXkXkXkXkXkXkX",
"kXkX  =XtX0XXXh.0.i.a.a.s.s.f.f.y.} P X                                                     kXkX",
"kX  *XtX0XXXh.0.i.i.a.s.s.f.f.A.A.u.6.3.b.^.^.`.{.{.{.{.{.{.{.{.{.{.{.`.{.{.{.{.m.] 5         kX",
"kX'.0X0XXXh.7.i.a.a.s.s.f.h.h.A.S.D.L.Y.|.%X-X-X,X,X,X,X,X,X<X<X<X4X4X4X5X5X5X5XXXN $         kX",
"kX`.-XOXh.0.i.a.a.s.s.f.f.A.A.A.D.L.U.R.(.}.XXXXoXOXOX-X-X>X,X,X<X4X5X7X7X8X0XwX_.r +         kX",
"kXM.XX(.U.U.Y.Y.T.R.R.R.R.(.(.(.(.(.(.}.}.}.XXXXXXXXoXOXOXOXOX%X-X-X-X:X,X,X,X<X>.S o           ",
"  ,.XX(.i.a.a.s.s.f.h.h.A.A.A.L.U.U.Y.R.R.(.(.(.}.|.XXoXOXOX%X:X:X,X<X4X5X7X8X8X;.e X           ",
"  -.XX(.U.Y.Y.R.Y.R.R.(.(.(.(.(.}.}.}.|.XXXXXXXXoXoXOX%X%X%X%X:X-X,X,X,X<X4X4X4X>.S X           ",
"  -.XX(.a.s.s.f.h.h.A.A.D.L.U.U.Y.Y.R.(.(.(.}.|.|.oXOXOX%X-X,X,X4X4X4X7X7X0X0XwX:.r X           ",
"  -.XX(.Y.R.R.R.(.(.(.(.(.(.}.}.}.|.|.XX+X+XoXoXOX$X%X%X%X-X:X,X1X,X,X<X4X4X4X5X<.S X           ",
"  -.XX}.s.f.,XhXdXsXsXsXdXsXaXpXiXyXeXqX9X6X2X1X;X;X#X#X+X|.}.}./././.Z.C.C.B.N.N.N.1.1.=.p 2   ",
"  -.XX}.T.R.tXhXdXsXsXsXaXpXiXrXeXqX9X4X2X1X;X#X+X+X.X).(.(./.T.I.V.m.m.n.b.v.c.c.*.&.%.g , :   ",
"  -.XX}.h.h.sXdXrXwXwX0X7X4X<X;X-X+X.X).!.P.G.l.w.q.0.8.o. .` / ^ W M m n b c x k j a p 1 : -   ",
"  -.XX}.E.XXgXdXiXtXrX0XqX5X4X,X;X#X+X).).Q.J.G.G.d.d.7.7.4.2.X.[ ] ^ U I I K J C V a e , : +   ",
"  -.XXXXA.XXgXpXwX0X8X5X4X;X;X#X.X).!.W.G.z.k.w.0.8.+. .| ( ^ ! E m n b b x z j a p e w : :     ",
"  -.XXXX(.7XgXpXrX0XqX7X4X1X;X&X+X.X).!.P.H.G.g.s.a.7.5.2.X.{ ] ) U I P K K C V V B e 6 : -     ",
"  -.XXXXS.tXfXtXqX7X4X1X;X&X+X).~.W.H.z.k.w.0.8.+...| / ^ ! E M m n b c z k a a p e w < - *     ",
"  -.XXoX}.fXfXtXqXqX4X<X;X-X+X.X).~.W.H.G.g.d.a.0.7.3.2.{ ] ' Y I I P L C C V B N N 6 : : @     ",
"  -.XXoX(.gXaX7X4X2X-X&XoX.X).Q.J.x.l.w.0.0.+... .| / ! W M m n b c z k j a p e w 6 6 - - .     ",
"  -.XXOX4XfXpX8X5X2X,X;X#X+X).~.Q.J.G.x.f.s.a.7.4.2.X.] ] ' U I P L Z C V B B N d d < : ;       ",
"  -.XXOX8XdXqX4X;X-X#X.X).!.P.G.l.w.0.0.8.o. .| / ^ ! M m n b c z k j a p e e w w 6 > - %       ",
"  -.XX%XpXsXqX4X1X-X&X+X).).Q.P.G.G.g.d.a.0.4.2.X.{ ] ' Y I K K J C V B B N N d d i > ; $       ",
"  -.XX>XdXiX1X;X#X.X).!.W.G.z.k.w.0.8.+. .| ( ^ ! M M n n c c z j j a e e w 6 5 5 4 ; ; o       ",
"  -.XX5XsXyX2X1X$X+X.X).!.W.H.G.j.d.a.e.7.3.O.{ [ ' U I I P L F D B B N g g f d i u = =         ",
"  -.XXwXaX9X#X+X).~.W.J.z.k.p.0.9.@...| ` ^ ! W M n n c x z k a a p e w 6 6 5 4 4 3 = &         ",
"  -.XXtXpX6X;X#X+X).~.W.J.G.x.g.a.i.7.5.O.{ [ ' Y I I P L F D V B N N g f f f i y t = $         ",
"  -.XXpXtX$X.X~.Q.P.x.k.p.0.9.@...| ` / ~ W M m n b c v k j a p e w 6 6 5 4 4 3 3 = = +         ",
"  -.-XiXqX&X+X).~.Q.P.H.j.j.s.i.7.5.2.X.[ ] ' U I P L F F V B N N g f                           ",
"  -.,XiX2X).!.P.G.l.p.0.0.8.o. .` ( ^ W M m n b c x k j a p p w w 6 5   Q Q Q Q Q Q Q Q         ",
"  -.5XyX1X.X).!.W.H.j.g.f.s.e.7.2.O.{ ] ' Y I I P L F D V N N N g f f   Q Q Q Q Q Q Q Q         ",
"  #.,X#X$.H G G F F C V V l l l k j h q q p 0 9 e 8 7 1 6 < < : > > ;   Q Q Q Q Q Q Q Q         ",
"  T b.f f d s s s e e e e e 8 8 8 7 7 1 1 1 1 , , , , : : : : : - - ;   Q Q Q Q Q Q Q Q         ",
"                                                                        Q Q Q Q Q Q Q Q         ",
"kX                                                                      Q Q Q Q Q Q Q Q       kX",
"kX                                                                      Q Q Q Q Q Q Q Q       kX",
"kX                                                                      Q Q Q Q Q Q Q Q       kX",
"kX                                                                                            kX",
"kXkXkXkXkXkXkXkXkXkXkXkXkXkXkXkXkXkXkXkXkXkXkXkXkXkXkXkXkXkXkXkXkXkXkXkXkXkXkXkXkXkXkXkXkXkXkXkX",
"kXkXkXkXkXkXkXkXkXkXkXkXkXkXkXkXkXkXkXkXkXkXkXkXkXkXkXkXkXkXkXkXkXkXkXkXkXkXkXkXkXkXkXkXkXkXkXkX"
};
