/* XPM */
static const char *xpmFolderOpenConnected32x32[] = {
/* columns rows colors chars-per-pixel */
"32 32 197 2",
"   c black",
".  c #082a05",
"X  c #093206",
"o  c #0c3509",
"O  c #0e3e0a",
"+  c #2c352b",
"@  c #094605",
"#  c #0e400a",
"$  c #0a4c05",
"%  c #0d4c08",
"&  c #0c5306",
"*  c #0e5708",
"=  c #0c5c06",
"-  c #0f5809",
";  c #10410c",
":  c #124d0e",
">  c #13510e",
",  c #11590c",
"<  c #155511",
"1  c #0c6405",
"2  c #0e6d0c",
"3  c #14620e",
"4  c #136b0d",
"5  c #166010",
"6  c #1a6415",
"7  c #15730e",
"8  c #157d0e",
"9  c #147611",
"0  c #177814",
"q  c #197212",
"w  c #1f7318",
"e  c #197e16",
"r  c #3e4c3d",
"t  c #16840e",
"y  c #178b0e",
"u  c #198414",
"i  c #1d8519",
"p  c #1c8c17",
"a  c #1e8a1a",
"s  c #17930e",
"d  c #18960e",
"f  c #189d0e",
"g  c #1e921a",
"h  c #18a20e",
"j  c #19ab0e",
"k  c #1ab50e",
"l  c #1abb0e",
"z  c #218c1c",
"x  c #23951e",
"c  c #229b1d",
"v  c #268d21",
"b  c #2a8e25",
"n  c #269a22",
"m  c #2d9a2c",
"M  c #319729",
"N  c #349b33",
"B  c #3e9238",
"V  c #24a51e",
"C  c #26ab1f",
"Z  c #26a221",
"A  c #2aa224",
"S  c #2bab24",
"D  c #2cb324",
"F  c #2ebd26",
"G  c #2fb928",
"H  c #30b32a",
"J  c #32bc2b",
"K  c #1bc10f",
"L  c #1dc311",
"P  c green",
"I  c #21c715",
"U  c #22c816",
"Y  c #24ca18",
"T  c #29cf1d",
"R  c #2bd11f",
"E  c #2dd321",
"W  c #31c226",
"Q  c #33c42b",
"!  c #36cb2d",
"~  c #3ccc34",
"^  c #30d624",
"/  c #33d927",
"(  c #36dc2a",
")  c #39df2d",
"_  c #3fd137",
"`  c #3ae02e",
"'  c #3ee432",
"]  c #45a63e",
"[  c #5e9d58",
"{  c #57a651",
"}  c #5aaf53",
"|  c #58bd55",
" . c #64b15e",
".. c #6da568",
"X. c #64b361",
"o. c #6bb266",
"O. c #77b673",
"+. c #77b972",
"@. c #40cc36",
"#. c #45cd3a",
"$. c #44d33d",
"%. c #41e735",
"&. c #43e937",
"*. c #46ec3a",
"=. c #49ef3d",
"-. c #4af03e",
";. c #4bd644",
":. c #4cda45",
">. c #53c44b",
",. c #5bc257",
"<. c #5ec759",
"1. c #53dd4b",
"2. c #58de4e",
"3. c #4fe444",
"4. c #4df341",
"5. c #50e445",
"6. c #55e34b",
"7. c #58e54e",
"8. c #5ce453",
"9. c #51f645",
"0. c #5af64e",
"q. c #5cf652",
"w. c #61cd5c",
"e. c #64d35f",
"r. c #69d764",
"t. c #6fdb6a",
"y. c #72c86b",
"u. c #7aca74",
"i. c #75df70",
"p. c #7dd07b",
"a. c #61e757",
"s. c #63e75a",
"d. c #63ea5c",
"f. c #68e85e",
"g. c #61f656",
"h. c #68f65f",
"j. c #6ee766",
"k. c #6aeb62",
"l. c #6cf563",
"z. c #6ff168",
"x. c #73eb6a",
"c. c #7be376",
"v. c #7beb73",
"b. c #70f666",
"n. c #73f26b",
"m. c #78f66f",
"M. c #77f070",
"N. c #7cf474",
"B. c #84cb7f",
"V. c #80d67a",
"C. c #81e77c",
"Z. c #84ec7c",
"A. c #84f47d",
"S. c #8bdb85",
"D. c #8fd889",
"F. c #9ccf98",
"G. c #87ea82",
"H. c #8bed84",
"J. c #8eed88",
"K. c #8af484",
"L. c #8ef188",
"P. c #93e38d",
"I. c #92ec8c",
"U. c #96ea92",
"Y. c #98ed93",
"T. c #93f48d",
"R. c #97f491",
"E. c #9bf295",
"W. c #9ef198",
"Q. c #a5d8a1",
"!. c #a1ec9e",
"~. c #a2f29c",
"^. c #a6eaa1",
"/. c #a6f2a2",
"(. c #aaf3a5",
"). c #adf5a8",
"_. c #bce4b9",
"`. c #b1f4ad",
"'. c #b7f4b3",
"]. c #b9f4b6",
"[. c #bdf5b9",
"{. c #bdf9b9",
"}. c #c1f6be",
"|. c #c5f6c2",
" X c #c7f8c3",
".X c #c8f5c6",
"XX c #cef7cc",
"oX c #cafac6",
"OX c #cff8cd",
"+X c #d1f9cf",
"@X c #d5f7d2",
"#X c #d6fad4",
"$X c #dcf9da",
"%X c #e0fadf",
"&X c #e3fae2",
"*X c white",
"=X c None",
/* pixels */
"=X=X=X=X=X=X=X=X=X=X=X=X=X=X=X=X=X=X=X=X=X=X=X=X=X=X=X=X=X=X=X=X",
"=X=X=X=X=X=X=X=X=X=X=X=X=X=X=X=X=X=X=X=X=X=X=X=X=X=X=X=X=X=X=X=X",
"=X=X=X=X=X=X=X=X=X=X=X=X=X=X=X=X=X=X=X=X=X=X=X=X=X=X=X=X=X=X=X=X",
"=X=X=X=X                =X=X=X=X=X=X=X=X=X=X=X=X=X=X=X=X=X=X=X=X",
"=X=X=X  r F.B.u.y.>.6     =X=X=X=X=X=X=X=X=X=X=X=X=X=X=X=X=X=X=X",
"=X=X  r _.[.~.I.H.a.W >     =X=X=X=X=X=X=X=X=X=X=X=X=X=X=X=X=X=X",
"=X  + _.|.~.x.k.f.a.@.D <                                 =X=X=X",
"  + _.|.W.s.3.5.6.7.2.#.! ]  .o.o.o.o.o.o.o.o.o.o.o.} S ;   =X=X",
"  Q.}.~.s.5.5.6.7.7.a.s.k.v.I.E.~.~.~.~.!.!./././.(.Z.n .   =X=X",
"  D.}.~.H.Z.H.H.H.H.J.J.I.U.!.!.!.!.!.!.!.!.!.!.!.!.B.b N   =X=X",
"  V.I.a.5.6.7.8.a.s.f.j.x.v.v.Z.Z.H.I.Y.~.!./.).`.]...4 .   =X=X",
"  V.'.Y.H.J.J.J.J.J.I.I.I.I.I.I.I.I.U.U.U.U.U.U.U.U.X.v m   =X=X",
"  V.I.f.v.I.I.I.Y.E.E.E.E.E.E.E.E.E.E.E.Y.!.!.!.!.!.+.B [ +.u 4 ",
"  V.'.Y.@X&X$X$X@XXX X}.].`./.E.Y.J.Z.C.c.x.t.r.e.w.<.,.| { 1 & ",
"  V.R.j.%XOX X}.'.).~.T.A.m.h.0.-.*.%.( ^ R I l k h f s t 4 $ =X",
"  V.'.(.&XOX.X}.'.).~.R.K.Z.z.d.a.6.1.$._ ! W F D C V g g * $ =X",
"  V.E.~.%X}.'.).~.T.A.N.l.0.4.*.%.( ^ R L K k j f s t 8 7 $ $ =X",
"  V.]..X$X}.{.`./.R.L.A.n.k.8.8.1.;.@.~ Q F G S V g g p u $ @ =X",
"  V.~.+XoX).~.R.K.m.l.q.4.*.%.) ^ R U K k j f s t 8 7 4 , @ =X=X",
"  V.].$X}.`.(.W.T.A.M.l.d.8.1.:.$.~ ! W G D Z c g g p u 7 @ =X=X",
"  V.`.#X~.R.K.N.l.q.9.=.%.` / R Y K k j h s t 8 7 4 , , $ @ =X=X",
"  V.|.+X).~.T.K.N.z.d.8.1.:.;.~ ! Q G S S Z x g i i e 9 2 O =X=X",
"  V. X{.K.N.b.g.4.=.&.` / R Y L k j f s y 8 7 4 3 , > : # o =X=X",
"  V.XX`.R.K.N.z.k.s.8.1.;.#.~ Q J D S A x x a i e 0 9 4 2   =X=X",
"  S.oXA.b.g.9.-.&.' / E Y L k k h d y 8 7 4 3               =X=X",
"  P.}.L.A.n.k.d.8.1.;.$.~ Q J H S A n x z i e   P P P P P   =X=X",
"  j.>.w q q q 4 4 2 1 1 1 = = * & & & $ $ $ @   P P P P P   =X=X",
"  M 5 , , , , , - - - & & & & & & & & & % % %   P P P P P   =X=X",
"                                                P P P P P   =X=X",
"=X=X=X=X=X=X=X=X=X=X=X=X=X=X=X=X=X=X=X=X=X=X=X  P P P P P   =X=X",
"=X=X=X=X=X=X=X=X=X=X=X=X=X=X=X=X=X=X=X=X=X=X=X              =X=X",
"=X=X=X=X=X=X=X=X=X=X=X=X=X=X=X=X=X=X=X=X=X=X=X=X=X=X=X=X=X=X=X=X"
};
