/* XPM */
static const char *xpmFolderClosedNotConnected32x32[] = {
/* columns rows colors chars-per-pixel */
"32 32 183 2",
"   c black",
".  c #0a3e06",
"X  c #0c3b08",
"o  c #0a4406",
"O  c #0b4c06",
"+  c #0c5206",
"@  c #0e5309",
"#  c #0c5b06",
"$  c #13520e",
"%  c #135c0e",
"&  c #0d6306",
"*  c #0d6c06",
"=  c #0d6d0a",
"-  c #0e7406",
";  c #0e710b",
":  c #0e7806",
">  c #14650e",
",  c #156c0e",
"<  c #14740e",
"1  c #147c0d",
"2  c #137410",
"3  c #157b12",
"4  c #1b7b14",
"5  c #1f7b19",
"6  c #207e19",
"7  c #16830e",
"8  c #168b0e",
"9  c #1a8315",
"0  c #1d8719",
"q  c #1c8b17",
"w  c #1e8a1a",
"e  c #17920e",
"r  c #18960e",
"t  c #189b0e",
"y  c #1e921a",
"u  c #1f981b",
"i  c #18a30e",
"p  c #19ab0e",
"a  c #19b30e",
"s  c #1abc0e",
"d  c #218e1c",
"f  c #22951e",
"g  c #239b1e",
"h  c #269c21",
"j  c #329f2a",
"k  c #24a21f",
"l  c #27a422",
"z  c #27ac21",
"x  c #2ba324",
"c  c #2bab25",
"v  c #2cb425",
"b  c #2fb028",
"n  c #2ebd26",
"m  c #2fb928",
"M  c #30ad2a",
"N  c #31b52b",
"B  c #34bc2c",
"V  c #1bc10f",
"C  c #1ec412",
"Z  c #21c715",
"A  c #23c917",
"S  c #25cb19",
"D  c #29cf1d",
"F  c #2bd11f",
"G  c #2ed422",
"H  c #34c32c",
"J  c #36cc2c",
"K  c #37c030",
"L  c #37c830",
"P  c #3ac532",
"I  c #3ccb34",
"U  c #30d624",
"Y  c #33d927",
"T  c #36dc2a",
"R  c #39dd2e",
"E  c #3cd731",
"W  c #3be12f",
"Q  c #3de232",
"!  c #44a83d",
"~  c #48b340",
"^  c #63aa5e",
"/  c #6bb266",
"(  c #41ce39",
")  c #44d13c",
"_  c #41e735",
"`  c #42e836",
"'  c #45eb39",
"]  c #48ee3c",
"[  c #4bf13f",
"{  c #4ad443",
"}  c #4dd845",
"|  c #56c951",
" . c #5ace54",
".. c #51d749",
"X. c #50d847",
"o. c #53db4c",
"O. c #5dd355",
"+. c #5ade52",
"@. c #4df341",
"#. c #5de255",
"$. c #51f645",
"%. c #55f649",
"&. c #5af64e",
"*. c #5df652",
"=. c #63d75e",
"-. c #6fca68",
";. c #69da63",
":. c #6fdd69",
">. c #7acb74",
",. c #7edf77",
"<. c #63e55b",
"1. c #65e95e",
"2. c #60f655",
"3. c #64f65a",
"4. c #68f65f",
"5. c #67ea60",
"6. c #6ceb64",
"7. c #6cf661",
"8. c #74e26f",
"9. c #70e967",
"0. c #72ed6a",
"q. c #7ae574",
"w. c #7fe579",
"e. c #70f666",
"r. c #74f36c",
"t. c #7cf474",
"y. c red",
"u. c #81ce7b",
"i. c #85d77f",
"p. c #82e57b",
"a. c #84ec7d",
"s. c #83f57c",
"d. c #8cd787",
"f. c #93c68f",
"g. c #93d78e",
"h. c #98d794",
"j. c #9ed79a",
"k. c #87ea80",
"l. c #8aee84",
"z. c #8af383",
"x. c #8ff489",
"c. c #93f48c",
"v. c #96f290",
"b. c #9af394",
"n. c #9ef399",
"m. c #9bf994",
"M. c #a2cd9f",
"N. c #a3d79f",
"B. c #a7d7a4",
"V. c #acd1a9",
"C. c #a1e19e",
"Z. c #a2f59d",
"A. c #a8e3a5",
"S. c #a6f6a1",
"D. c #aaf6a5",
"F. c #aef5a9",
"G. c #a9f9a3",
"H. c #b0e4ad",
"J. c #b7e5b4",
"K. c #bde6bb",
"L. c #b2f5ae",
"P. c #b5f7b1",
"I. c #b6f9b1",
"U. c #baf6b6",
"Y. c #bff7bb",
"T. c #c1f7be",
"R. c #c2f9be",
"E. c #c3e6c1",
"W. c #c8e7c6",
"Q. c #cbe8ca",
"!. c #c7f8c5",
"~. c #c8f7c5",
"^. c #c9f8c7",
"/. c #cdf8cb",
"(. c #d1ead0",
"). c #d0f7ce",
"_. c #d4f9d1",
"`. c #d9fad7",
"'. c #dcfadb",
"]. c #e2fae1",
"[. c #eefcec",
"{. c white",
"}. c None",
/* pixels */
"}.}.}.}.}.}.}.}.}.}.}.}.}.}.}.}.}.}.}.}.}.}.}.}.}.}.}.}.}.}.}.}.",
"}.}.}.}.}.}.}.}.}.}.}.}.}.}.}.}.}.}.}.}.}.}.}.}.}.}.}.}.}.}.}.}.",
"}.}.}.}.}.}.}.}.}.}.}.}.}.}.}.}.}.}.}.}.}.}.}.}.}.}.}.}.}.}.}.}.",
"}.}.}.}.}.                }.}.}.}.}.}.}.}.}.}.}.}.}.}.}.}.}.}.}.",
"}.}.}.}.    f.u.>.>.-.x     }.}.}.}.}.}.}.}.}.}.}.}.}.}.}.}.}.}.",
"}.}.}.    M.F.a.0.0.6.) 6     }.}.}.}.}.}.}.}.}.}.}.}.}.}.}.}.}.",
"}.}.    M.L.6.W W W W R J 6                                   }.",
"}.    M.L.9.W W W W W W R J ! ^ / / / / / / / / / / / / ~ 5     ",
"}.  V.).L.n.b.b.v.v.l.l.a.a.a.b.c.c.x.z.l.k.a.a.p.p.q.,.B ,     ",
"}.  (.[.].'.`._./.~.T.U.L.D.Z.m.c.k.a.w.q.8.:.;.=.O. .| g O     ",
"}.  B.'.T.U.L.F.Z.b.x.s.r.4.*.%.[ ' _ W T G F Z C s a p * O     ",
"}.  Q.]./.~.T.U.F.Z.Z.c.z.t.r.7.1.#.+.o.{ ) I J H n v z 0 o     ",
"}.  B._.P.F.Z.m.x.s.t.7.2.%.[ ] ` W T U F A V s a p i r # o     ",
"}.  W.'.T.U.L.D.Z.b.z.s.r.9.1.<.#.o.} ) ( I H H v v k k 9 o     ",
"}.  N./.Z.m.c.s.t.e.2.%.[ ] ` W W Y F S Z s a p i t e 7 # o     ",
"}.  E._.I.F.Z.b.x.s.t.e.6.1.<.o.X.) ) I H H m v z k g u 3 o     ",
"}.  j.R.c.z.t.e.2.&.$.] ` Q T Y F S Z V a p i t r 8 1 1 + .     ",
"}.  K.!.S.m.c.z.s.r.6.1.<.+.o.{ ) E L H B v c l k g u q 3 o     ",
"}.  h.I.s.r.4.&.$.] ` _ R Y G D Z C s p p t e 8 7 1 < , O o     ",
"}.  J.R.b.z.s.r.0.5.<.<.o.X.{ ( P H B N c x l g u q 0 9 < .     ",
"}.  g.G.4.2.$.[ ' _ R Y U D A s s p p t r 8 7 1 < , > % O .     ",
"}.  H.L.s.t.e.6.1.<.o.X.{ ) ( K H N b c x h g y q 9 9 3 ; .     ",
"}.  d.m.%.[ ' _ W T U D S Z s a p t r 8 7 1 < , > > $ $ o .     ",
"}.  A.S.r.0.1.<.=.o...) ( P B B N M x h g f w 0 9 4 3 2 = X     ",
"}.  i.x.] ` Q R G F A Z s a p i t e 7 1 1 , >                   ",
"}.  C.n.5.<.<.o.} { ( I P B N M x x h f d 0 9   y.y.y.y.y.      ",
"}.  O.E 0 9 7 1 1 1 : - * * & & & # # @ + O O   y.y.y.y.y.      ",
"}.  x 4 @ @ + O + O O O O O O o o o o o o o o   y.y.y.y.y.      ",
"}.                                              y.y.y.y.y.      ",
"}.}.                                            y.y.y.y.y.      ",
"}.}.}.}.}.}.}.}.}.}.}.}.}.}.}.}.}.}.}.}.}.}.}.              }.}.",
"}.}.}.}.}.}.}.}.}.}.}.}.}.}.}.}.}.}.}.}.}.}.}.}.}.}.}.}.}.}.}.}."
};
