/* XPM */
static const char *xpmFolderClosedNotConnected16x16[] = {
/* columns rows colors chars-per-pixel */
"16 16 79 1",
"  c black",
". c #094d04",
"X c #0a5405",
"o c #0a5c04",
"O c #0c6405",
"+ c #0d6409",
"@ c #0e690a",
"# c #136b0c",
"$ c #177c12",
"% c #1a8914",
"& c #1c9216",
"* c #1f9519",
"= c #1b9914",
"- c #1ca613",
"; c #1fa019",
": c #1eaa15",
"> c #1fb615",
", c #228f1d",
"< c #279c21",
"1 c #22a11a",
"2 c #24af1c",
"3 c #24b01a",
"4 c #20b915",
"5 c #25bc1b",
"6 c #29ad20",
"7 c #28b120",
"8 c #29bc20",
"9 c #31b829",
"0 c #26c41b",
"q c #28c61e",
"w c #2dc024",
"e c #35c52b",
"r c #31cc27",
"t c #34ca2b",
"y c #3dcc33",
"u c #32d127",
"i c #35d22a",
"p c #3dd533",
"a c #3edc33",
"s c #3be12f",
"d c #3de131",
"f c #42d339",
"g c #40db36",
"h c #49e33e",
"j c #4ddc44",
"k c #4be441",
"l c #56e64d",
"z c #54eb49",
"x c #58ef4e",
"c c #59e250",
"v c #5be952",
"b c #55f14a",
"n c #5ff455",
"m c #62e759",
"M c #64ed5b",
"N c #66f35b",
"B c #68f55e",
"V c #7aeb72",
"C c #73f56a",
"Z c #7cf474",
"A c red",
"S c #82ec7b",
"D c #8bed84",
"F c #8fee88",
"G c #87f480",
"H c #8af682",
"J c #8ff588",
"K c #94f68c",
"L c #9bf596",
"P c #a3f59d",
"I c #a5f6a0",
"U c #aef4a9",
"Y c #b3f6af",
"T c #b7f4b3",
"R c #c1f7bc",
"E c #c8f7c5",
"W c #cff8cc",
"Q c white",
"! c None",
/* pixels */
"!!!!!!!!!!!!!!!!",
"!!6622!!!!!!!!!!",
"!6UFVy6!!!!!!!!!",
"6TSdaie666666666",
"6SdssasmDDDDDDD6",
"666662626666666=",
"6WRYPKZNzhar0>-+",
"6ETPKZNxkaiq4:=+",
"6RULGCMljpt82;&@",
"6IKZBbhgu0>:=%$X",
"6PJZNvjftw71*%$+",
"6HCnzkpt021     ",
"6Cnzgprq31& AAA ",
"6CMcjfe96<, AAA ",
"6###+OooXX. AAA ",
"!!!!!!!!!!!     "
};
