/* XPM */
static const char *xpmFolderOpen32x32[] = {
/* columns rows colors chars-per-pixel */
"32 32 197 2",
"   c black",
".  c #082b05",
"X  c #093206",
"o  c #0c3509",
"O  c #0e3d0b",
"+  c #2c352b",
"@  c #0a4605",
"#  c #0e410a",
"$  c #0a4c05",
"%  c #0e4b0a",
"&  c #0c5306",
"*  c #0e5708",
"=  c #0c5c06",
"-  c #0f5809",
";  c #11440d",
":  c #124c0e",
">  c #13520e",
",  c #12590c",
"<  c #155511",
"1  c #0c6405",
"2  c #0e6c0c",
"3  c #0b7809",
"4  c #14620e",
"5  c #136b0d",
"6  c #166010",
"7  c #1a6415",
"8  c #15730e",
"9  c #157d0e",
"0  c #147411",
"q  c #177814",
"w  c #197212",
"e  c #1f7318",
"r  c #197d16",
"t  c #3e4c3d",
"y  c #16840e",
"u  c #178b0e",
"i  c #198414",
"p  c #1d8519",
"a  c #1c8c17",
"s  c #1e8a1a",
"d  c #17930e",
"f  c #18960e",
"g  c #189d0e",
"h  c #1e921a",
"j  c #18a20e",
"k  c #19ab0e",
"l  c #1ab50e",
"z  c #1abb0e",
"x  c #218c1c",
"c  c #23951e",
"v  c #229b1d",
"b  c #268d21",
"n  c #2a8e25",
"m  c #269a22",
"M  c #2d9a2c",
"N  c #319729",
"B  c #349b33",
"V  c #3e9238",
"C  c #24a51e",
"Z  c #26ab1f",
"A  c #26a221",
"S  c #2aa224",
"D  c #2bab24",
"F  c #2cb324",
"G  c #2ebd26",
"H  c #2fb928",
"J  c #30b32a",
"K  c #32bc2b",
"L  c #1bc10f",
"P  c #1dc311",
"I  c #21c715",
"U  c #22c816",
"Y  c #24ca18",
"T  c #29cf1d",
"R  c #2bd11f",
"E  c #2dd321",
"W  c #31c226",
"Q  c #33c42b",
"!  c #36cb2d",
"~  c #3ccc34",
"^  c #30d624",
"/  c #33d927",
"(  c #36dc2a",
")  c #39df2d",
"_  c #3fd137",
"`  c #3ae02e",
"'  c #3ee432",
"]  c #45a63e",
"[  c #5e9d58",
"{  c #57a651",
"}  c #5aaf53",
"|  c #58bd55",
" . c #64b15e",
".. c #6da568",
"X. c #64b361",
"o. c #6bb266",
"O. c #77b673",
"+. c #77b972",
"@. c #40cc36",
"#. c #45cd3a",
"$. c #44d33d",
"%. c #41e735",
"&. c #43e937",
"*. c #46ec3a",
"=. c #49ef3d",
"-. c #4af03e",
";. c #4bd644",
":. c #4cda45",
">. c #53c44b",
",. c #5bc257",
"<. c #5ec759",
"1. c #53dd4b",
"2. c #58de4e",
"3. c #4fe444",
"4. c #4df341",
"5. c #50e445",
"6. c #55e34b",
"7. c #58e54e",
"8. c #5ce453",
"9. c #51f645",
"0. c #5af64e",
"q. c #5cf652",
"w. c #61cd5c",
"e. c #64d35f",
"r. c #69d764",
"t. c #6fdb6a",
"y. c #72c86b",
"u. c #7aca74",
"i. c #75df70",
"p. c #7dd07b",
"a. c #61e757",
"s. c #63e75a",
"d. c #63ea5c",
"f. c #68e85e",
"g. c #61f656",
"h. c #68f65f",
"j. c #6ee766",
"k. c #6aeb62",
"l. c #6cf563",
"z. c #6ff168",
"x. c #73eb6a",
"c. c #7be376",
"v. c #7beb73",
"b. c #70f666",
"n. c #73f26b",
"m. c #78f66f",
"M. c #77f070",
"N. c #7cf474",
"B. c #84cb7f",
"V. c #80d67a",
"C. c #81e77c",
"Z. c #84ec7c",
"A. c #84f47d",
"S. c #8bdb85",
"D. c #8fd889",
"F. c #9ccf98",
"G. c #87ea82",
"H. c #8bed84",
"J. c #8eed88",
"K. c #8af484",
"L. c #8ef188",
"P. c #93e38d",
"I. c #92ec8c",
"U. c #96ea92",
"Y. c #98ed93",
"T. c #93f48d",
"R. c #97f491",
"E. c #9bf295",
"W. c #9ef198",
"Q. c #a5d8a1",
"!. c #a1ec9e",
"~. c #a2f29c",
"^. c #a6eaa1",
"/. c #a6f2a2",
"(. c #aaf3a5",
"). c #adf5a8",
"_. c #bce4b9",
"`. c #b1f4ad",
"'. c #b7f4b3",
"]. c #b9f4b6",
"[. c #bdf5b9",
"{. c #bdf9b9",
"}. c #c1f6be",
"|. c #c5f6c2",
" X c #c7f8c3",
".X c #c8f5c6",
"XX c #cef7cc",
"oX c #cafac6",
"OX c #cff8cd",
"+X c #d1f9cf",
"@X c #d5f7d2",
"#X c #d6fad4",
"$X c #dcf9da",
"%X c #e0fadf",
"&X c #e3fae2",
"*X c white",
"=X c None",
/* pixels */
"=X=X=X=X=X=X=X=X=X=X=X=X=X=X=X=X=X=X=X=X=X=X=X=X=X=X=X=X=X=X=X=X",
"=X=X=X=X=X=X=X=X=X=X=X=X=X=X=X=X=X=X=X=X=X=X=X=X=X=X=X=X=X=X=X=X",
"=X=X=X=X=X=X=X=X=X=X=X=X=X=X=X=X=X=X=X=X=X=X=X=X=X=X=X=X=X=X=X=X",
"=X=X=X=X                =X=X=X=X=X=X=X=X=X=X=X=X=X=X=X=X=X=X=X=X",
"=X=X=X  t F.B.u.y.>.7     =X=X=X=X=X=X=X=X=X=X=X=X=X=X=X=X=X=X=X",
"=X=X  t _.[.~.I.H.a.W >     =X=X=X=X=X=X=X=X=X=X=X=X=X=X=X=X=X=X",
"=X  + _.|.~.x.k.f.a.@.F <                                 =X=X=X",
"  + _.|.W.s.3.5.6.7.2.#.! ]  .o.o.o.o.o.o.o.o.o.o.o.} D ;   =X=X",
"  Q.}.~.s.5.5.6.7.7.a.s.k.v.I.E.~.~.~.~.!.!./././.(.Z.n X   =X=X",
"  D.}.~.H.Z.H.H.H.H.J.J.I.U.!.!.!.!.!.!.!.!.!.!.!.!.p.n B   =X=X",
"  V.I.a.5.6.7.8.a.s.f.j.x.v.v.Z.Z.H.I.Y.~.!./.).`.]...5 .   =X=X",
"  V.'.Y.H.J.J.J.J.J.I.I.I.I.I.I.I.I.U.U.U.U.U.U.U.U.X.b M   =X=X",
"  V.I.f.v.I.I.I.Y.E.E.E.E.E.E.E.E.E.E.E.E.!.!.!.!.!.O.V [ +.i 5 ",
"  V.'.Y.@X&X$X$X@XXX X}.].`./.E.Y.J.Z.C.c.j.t.r.e.w.<.,.| { 1 & ",
"  V.R.j.%XOX X}.'.).~.T.A.m.h.0.-.*.%.( ^ R I z l j g u y 2 $ =X",
"  V.'.(.&XOX.X}.'.).~.R.K.Z.z.d.a.6.1.$._ ! W G F Z C v h * $ =X",
"  V.R.~.$X}.'.).~.T.A.m.h.q.4.*.%.( ^ R P L l k g d y 9 8 $ $ =X",
"  V.'.oX$X}.{.`./.R.L.A.n.k.8.8.1.;.@.~ Q G H D C h h a i $ @ =X",
"  V.W.@XoX).~.R.K.N.l.q.4.*.%.) ^ R U L l k g d y 9 8 5 - @ =X=X",
"  V.].$X|.`.(.E.T.A.v.l.d.8.1.;.$.~ ! W H F A v h h a i 0 @ =X=X",
"  V.`.#X~.R.K.N.l.q.9.=.%.) ^ E Y L l k j d y 9 8 5 4 , $ @ =X=X",
"  V..XOX).~.R.K.N.l.d.8.7.:.;.~ ! Q H D D A c h p i r 0 2 O =X=X",
"  V. X{.L.N.b.g.4.=.%.' / R Y P l k g d u 9 8 5 4 , > : # o =X=X",
"  p.XX`.R.K.N.z.k.s.2.1.;.#.~ Q K F D S c c s p r q 0 5 2   =X=X",
"  S.oXA.b.g.9.-.%.' / E Y P l k j f u y 8 5 4 , < : ; O O   =X=X",
"  P.}.L.A.n.k.d.8.1.;.$.~ Q K J D S m c x p i q 0 0 5 2 3   =X=X",
"  j.>.e w w w 5 5 5 1 1 1 = = = & & & $ $ $ @ @ O O O O o   =X=X",
"  N 6 , , , , , * - * * * & & & & & % & $ % % % % % % % .   =X=X",
"                                                          =X=X=X",
"=X=X=X=X=X=X=X=X=X=X=X=X=X=X=X=X=X=X=X=X=X=X=X=X=X=X=X=X=X=X=X=X",
"=X=X=X=X=X=X=X=X=X=X=X=X=X=X=X=X=X=X=X=X=X=X=X=X=X=X=X=X=X=X=X=X",
"=X=X=X=X=X=X=X=X=X=X=X=X=X=X=X=X=X=X=X=X=X=X=X=X=X=X=X=X=X=X=X=X"
};
