/* XPM */
static const char *xpmFolderOpenNotConnected22x22[] = {
/* columns rows colors chars-per-pixel */
"22 22 161 2",
"   c black",
".  c #0e3f0a",
"X  c #094704",
"o  c #0c4508",
"O  c #094b04",
"+  c #0c4a08",
"@  c #0a5405",
"#  c #0a5d04",
"$  c #13560e",
"%  c #10580b",
"&  c #0c6405",
"*  c #14620e",
"=  c #136c0d",
"-  c #176f11",
";  c #15730e",
":  c #157c0e",
">  c #177614",
",  c #157912",
"<  c #1e7517",
"1  c #197d15",
"2  c #325b2f",
"3  c #365a33",
"4  c #207d19",
"5  c #317e2b",
"6  c #16820e",
"7  c #178c0e",
"8  c #1d851b",
"9  c #17930e",
"0  c #189c0e",
"q  c #18a50e",
"w  c #19ad0e",
"e  c #1ab50e",
"r  c #1abe0e",
"t  c #21801e",
"y  c #258c1f",
"u  c #22941e",
"i  c #289a1f",
"p  c #268c22",
"a  c #288622",
"s  c #269622",
"d  c #279b22",
"f  c #2a9325",
"g  c #2b9c25",
"h  c #2e9c29",
"j  c #27a523",
"k  c #2ba625",
"l  c #2fa329",
"z  c #2cad25",
"x  c #2fab29",
"c  c #34ab2d",
"v  c #3ba833",
"b  c #32b32b",
"n  c #32bb2b",
"m  c #37b331",
"M  c #3abc33",
"N  c #1ec412",
"B  c #23c917",
"V  c #26cc1a",
"C  c #29cf1d",
"Z  c #2dd321",
"A  c #35c52d",
"S  c #3bc333",
"D  c #3ccb34",
"F  c #30d624",
"G  c #33d927",
"H  c #37dd2b",
"J  c #3ae02e",
"K  c #3de331",
"L  c #4ebf4c",
"P  c #51a44f",
"I  c #59b452",
"U  c #64b55f",
"Y  c #6bb566",
"T  c #6eb769",
"R  c #6cbe66",
"E  c #7eb47a",
"W  c #42c739",
"Q  c #44cd3b",
"!  c #43d03c",
"~  c #41e735",
"^  c #46ec3a",
"/  c #4bf13f",
"(  c #4bd443",
")  c #54c64c",
"_  c #51d446",
"`  c #50d748",
"'  c #54db4d",
"]  c #5ad552",
"[  c #5ade53",
"{  c #4fe444",
"}  c #4df341",
"|  c #50e445",
" . c #53e549",
".. c #59e64f",
"X. c #5ee554",
"o. c #50f644",
"O. c #57f64c",
"+. c #5af64e",
"@. c #62df59",
"#. c #6cc866",
"$. c #6ed366",
"%. c #72c46f",
"&. c #71db6a",
"*. c #64e65b",
"=. c #60f655",
"-. c #67f65c",
";. c #67eb60",
":. c #6be762",
">. c #6bea63",
",. c #6df664",
"<. c #71e969",
"1. c #78ea6f",
"2. c #7be473",
"3. c #7beb73",
"4. c #70f666",
"5. c #74f26c",
"6. c #7bf473",
"7. c red",
"8. c #84ec7c",
"9. c #83f47c",
"0. c #83b480",
"q. c #90b98d",
"w. c #95c092",
"e. c #98c195",
"r. c #8ee28b",
"t. c #8ced85",
"y. c #8fee88",
"u. c #8cf484",
"i. c #92e68f",
"p. c #94ef8d",
"a. c #97ec91",
"s. c #9aee95",
"d. c #9cee98",
"f. c #95f68e",
"g. c #91f989",
"h. c #97f391",
"j. c #9bf295",
"k. c #9ef299",
"l. c #9ff999",
"z. c #a1ef9d",
"x. c #a2f29d",
"c. c #a5efa0",
"v. c #a7f5a1",
"b. c #a9f1a4",
"n. c #aef3a9",
"m. c #acf9a7",
"M. c #b2f5ad",
"N. c #b5f4b1",
"B. c #b9f5b5",
"V. c #bef5ba",
"C. c #b8fab3",
"Z. c #c1f7bd",
"A. c #c3f9bf",
"S. c #c8f9c4",
"D. c #cefacb",
"F. c #d0f7cd",
"G. c #d6f9d3",
"H. c #ddfadc",
"J. c #e6fbe5",
"K. c white",
"L. c None",
/* pixels */
"L.L.L.L.L.L.L.L.L.L.L.L.L.L.L.L.L.L.L.L.L.L.",
"L.L.L.L.L.L.L.L.L.L.L.L.L.L.L.L.L.L.L.L.L.L.",
"L.L.w.x.y.8.W 4 L.L.L.L.L.L.L.L.L.L.L.L.L.L.",
"L.e.N.3.{  ._ v y L.L.L.L.L.L.L.L.L.L.L.L.L.",
"q.N.3.{  ...*.] ) U T T T T T T T T I i L.L.",
"c.8.{  ...X.*.>.1.y.p.p.a.j.s.j.k.x.1.5 L.L.",
"p.{  ...X.*.>.<.1.3.8.y.p.s.x.b.M.B.E 2 L.L.",
"y. ...X.*.*.<.1.3.8.y.p.j.x.b.M.N.V.0.3 L.L.",
"t.t.n.N.N.n.n.n.b.c.z.d.s.a.a.i.r.r.%.P L j ",
"t.X.H.H.G.D.S.C.m.x.g.u.8.2.2.&.$.#.R Y a @ ",
"y.s.J.F.Z.N.v.h.u.5.*.X.' ( D A n z j u 1 , ",
"y.t.H.M.v.h.9.4.+./ ~ H Z B r w 0 7 6 ; O X ",
"y.V.H.B.m.l.u.6.>.*.X.` D A n b k d u 8 > O ",
"y.V.S.j.u.5.=.} ^ K Z V N e q 9 6 : = $ X L.",
"u.G.V.v.h.9.5.>.X.' ( D S b x g s y 8 > + L.",
"h.D.f.6.-.} ^ K G V N e q 0 7 , = % $ o . L.",
"v.D.k.u.6.<.*.X.` ( S M c l s p             ",
"n.C.,.O.} K H Z B r w 0 7 : > *   7.7.7.7.  ",
"N.n.9.<.:.X.' ( W M m c g f p t   7.7.7.7.  ",
"[ < > - - & & & # # @ @ @ O X X   7.7.7.7.  ",
"L.L.L.L.L.L.L.L.L.L.L.L.L.L.L.L.  7.7.7.7.  ",
"L.L.L.L.L.L.L.L.L.L.L.L.L.L.L.L.            "
};
