/* XPM */
static const char * xpmForeignKey16x16[] = {
"20 14 6 1",
" 	c None",
".	c white",
"+	c #FCF9BF",
"@	c #7B7404",
"#	c black",
"o	c green",
"                    ",
"                    ",
"                    ",
"                    ",
"   ####             ",
"  ##oo##            ",
"  ##oo############  ",
"  ##oo############  ",
"  ######     ## ##  ",
"   ####      ## ##  ",
"             ## ##  ",
"                    ",
"                    ",
"                    "};



