/* XPM */
static char * Grouped48_xpm[] = {
"48 48 4 1",
" 	c none",
".	c #0000EEEE0000",
"X	c #000000000000",
"o	c #CCCCCCCCCCCC",
"                                                ",
"                                                ",
"                                                ",
"                                                ",
"                                                ",
"                                                ",
"                                                ",
"                                                ",
"         ....                        ....       ",
"         ....                        ....       ",
"         ....XXXXXXXXXXXXXXXX        ....       ",
"         ....oooooooooooooooX        ....       ",
"          XoooooooooooooooooX                   ",
"          XoooooooooooooooooX                   ",
"          XoooooooooooooooooX                   ",
"          XoooooooooooooooooX                   ",
"          XoooooooooooooooooX                   ",
"          XoooooooooooooooooX                   ",
"          XoooooooooooooooooX                   ",
"          XooooooooXXXXXXXXXXXXXXXXXXXX         ",
"          XooooooooXooooooooXoooooooooX         ",
"          XooooooooXooooooooXoooooooooX         ",
"          XooooooooXooooooooXoooooooooX         ",
"          XooooooooXooooooooXoooooooooX         ",
"          XooooooooXooooooooXoooooooooX         ",
"          XooooooooXooooooooXoooooooooX         ",
"          XooooooooXooooooooXoooooooooX         ",
"          XXXXXXXXXXXXXXXXXXXoooooooooX         ",
"                   XooooooooooooooooooX         ",
"                   XooooooooooooooooooX         ",
"                   XooooooooooooooooooX         ",
"                   XooooooooooooooooooX         ",
"                   XooooooooooooooooooX         ",
"                   XooooooooooooooooooX         ",
"                   XooooooooooooooooooX         ",
"         ....      Xoooooooooooooooo....        ",
"         ....      Xoooooooooooooooo....        ",
"         ....      XXXXXXXXXXXXXXXXX....        ",
"         ....                       ....        ",
"                                                ",
"                                                ",
"                                                ",
"                                                ",
"                                                ",
"                                                ",
"                                                ",
"                                                ",
"                                                "};
