/* XPM */
static const char *hand3[] = {
/* width height num_colors chars_per_pixel */
"    32    32        6            1",
/* colors */
". c #000000",
"# c #000080",
"a c #0000ff",
"b c #808080",
"c c #c0c0c0",
"d c #ffffff",
/* pixels */
"dddddddddddddddddddddddddddddddd",
"dddddddddddddddddddddddddddddddd",
"dddddddddddddddddddddddddddddddd",
"dddddddddddddddddddddddddddddddd",
"dddddddddddddddddddddddddddddddd",
"dddddddddddddddddddddddddddddddd",
"dddddddddddddddbbddddddddddddddd",
"ddddddddddddbb.dc.bbdddddddddddd",
"dddddddddddbdc.dc.dc.ddddddddddd",
"dddddddddddbdc.dc.dc.bbddddddddd",
"ddddddddddb.dc.dc.dc.dc.dddddddd",
"dddddddddbc.dcbddbdc.dc.dddddddd",
"ddddddddbdd.ddddddddbdc.dddddddd",
"ddddddddbddbddddddddddc.dddddddd",
"ddddddddbdddddddddddddc.dddddddd",
"ddddddddbdddddddddddddc.dddddddd",
"ddddddddbdddddddddddddc.dddddddd",
"dddddddddbdddddddddddc.ddddddddd",
"dddddddddbdddddddddddc.ddddddddd",
"ddddddddddbddddddddddc.ddddddddd",
"ddddddddddbdddddddddc.dddddddddd",
"dddddddddddbddddddddc.dddddddddd",
"ddddddddddddbddddddc.ddddddddddd",
"ddddddddddddbddddddc.ddddddddddd",
"dddddddddddd##.......ddddddddddd",
"ddddddddddd#aa#######.dddddddddd",
"ddddddddddd#aa#######.dddddddddd",
"ddddddddddd#aa#######.dddddddddd",
"ddddddddddd#aa#######.dddddddddd",
"ddddddddddd#aa#######.dddddddddd",
"dddddddddddddddddddddddddddddddd",
"dddddddddddddddddddddddddddddddd"
};
