/* XPM */
static const char *panner_xpm[]={
"15 15 5 1",
"a c #808080",
"c c #c0c0c0",
"# c #000000",
"b c #dcdcdc",
". c none",
"....###.###....",
"..##a..#a.#....",
".#a.#a..#.c#...",
".a#c.#....c#a..",
"#.a#......cc#..",
".#.........c#..",
"#.#........c#a.",
"#..#.......cc#.",
"#a.........c###",
".#a.......a#aa#",
"..#a......#aaa#",
"...###a..a#aa#.",
".....##aa#aa#..",
"......###aa#...",
"........###...."};
