#define hand4_width 32
#define hand4_height 32
static char hand4_bits[] = {
  0x00, 0x00, 0x00, 0x00, 0x00, 0x10, 0x00, 0x00, 0x00, 0x68, 0x00, 0x00, 
  0x00, 0x40, 0x00, 0x00, 0x00, 0x68, 0x00, 0x00, 0x00, 0x40, 0x00, 0x00, 
  0x00, 0xe8, 0x00, 0x00, 0x00, 0x40, 0x06, 0x00, 0x00, 0x68, 0x1a, 0x00, 
  0x00, 0x40, 0x52, 0x00, 0xa0, 0x68, 0x9a, 0x00, 0x00, 0x41, 0x90, 0x00, 
  0x00, 0x0a, 0x80, 0x00, 0x40, 0x0c, 0x80, 0x00, 0x80, 0x08, 0x80, 0x00, 
  0x00, 0x00, 0x80, 0x00, 0x00, 0x00, 0x80, 0x00, 0x00, 0x01, 0x40, 0x00, 
  0x00, 0x02, 0x60, 0x00, 0x00, 0x00, 0x40, 0x00, 0x00, 0x00, 0x20, 0x00, 
  0x00, 0x00, 0x20, 0x00, 0x00, 0x00, 0x18, 0x00, 0x00, 0x10, 0x10, 0x00, 
  0x00, 0xe0, 0x1f, 0x00, 0x00, 0xf8, 0x3f, 0x00, 0x00, 0xf8, 0x3f, 0x00, 
  0x00, 0xf8, 0x3f, 0x00, 0x00, 0xe8, 0x2e, 0x00, 0x00, 0xf8, 0x3f, 0x00, 
  0x00, 0x00, 0x00, 0x00, 0x00, 0x00, 0x00, 0x00, };
