/* XPM */
static const char *hand4[] = {
/* width height num_colors chars_per_pixel */
"    32    32        6            1",
/* colors */
". c #000000",
"# c #000080",
"a c #0000ff",
"b c #808080",
"c c #c0c0c0",
"d c #ffffff",
/* pixels */
"dddddddddddddddddddddddddddddddd",
"ddddddddddddbbdddddddddddddddddd",
"dddddddddddbdc.ddddddddddddddddd",
"dddddddddddbdc.ddddddddddddddddd",
"dddddddddddbdc.ddddddddddddddddd",
"dddddddddddbdc.ddddddddddddddddd",
"dddddddddddbdc.bbddddddddddddddd",
"dddddddddddbdc.dc.bbdddddddddddd",
"dddddddddddbdc.dc.dc.ddddddddddd",
"dddddddddddbdc.dc.dc.bbddddddddd",
"dddddbb.dddbdc.dc.dc.dc.dddddddd",
"dddddbdc.ddbddbddbdc.dc.dddddddd",
"ddddddbdc.dbddddddddbdc.dddddddd",
"ddddddbddc..ddddddddddc.dddddddd",
"dddddddbddccddddddddddc.dddddddd",
"dddddddbddddddddddddddc.dddddddd",
"ddddddddbdddddddddddddc.dddddddd",
"ddddddddbddddddddddddc.ddddddddd",
"dddddddddbdddddddddddc.ddddddddd",
"dddddddddbdddddddddddc.ddddddddd",
"ddddddddddbdddddddddc.dddddddddd",
"dddddddddddbddddddddc.dddddddddd",
"ddddddddddddbddddddc.ddddddddddd",
"ddddddddddddbddddddc.ddddddddddd",
"dddddddddddd##.......ddddddddddd",
"ddddddddddd#aa#######.dddddddddd",
"ddddddddddd#aa#######.dddddddddd",
"ddddddddddd#aa#######.dddddddddd",
"ddddddddddd#aa#######.dddddddddd",
"ddddddddddd#aa#######.dddddddddd",
"dddddddddddddddddddddddddddddddd",
"dddddddddddddddddddddddddddddddd"
};
