#define hand4a_width 32
#define hand4a_height 32
static unsigned char hand4a_bits[] = {
 0x00,0x00,0x00,0x00,0x00,0x20,0x00,0x00,0x00,0x48,0x00,0x00,0x00,0x40,0x00,
 0x00,0x00,0x48,0x00,0x00,0x00,0x40,0x00,0x00,0x00,0x48,0x01,0x00,0x00,0x48,
 0x0a,0x00,0x00,0x40,0x12,0x00,0x00,0x48,0x52,0x00,0xa0,0x48,0x92,0x00,0x20,
 0x41,0x92,0x00,0x40,0x0a,0x90,0x00,0x00,0x0c,0x80,0x00,0x80,0x00,0x80,0x00,
 0x00,0x00,0x80,0x00,0x00,0x01,0x80,0x00,0x00,0x00,0x40,0x00,0x00,0x02,0x40,
 0x00,0x00,0x00,0x40,0x00,0x00,0x04,0x20,0x00,0x00,0x00,0x20,0x00,0x00,0x10,
 0x10,0x00,0x00,0x00,0x10,0x00,0x00,0xf0,0x1f,0x00,0x00,0xf8,0x3f,0x00,0x00,
 0xf8,0x3f,0x00,0x00,0xf8,0x3f,0x00,0x00,0xf8,0x3f,0x00,0x00,0xf8,0x3f,0x00,
 0x00,0x00,0x00,0x00,0x00,0x00,0x00,0x00};
