/* XPM */
static char *Index_xpm[]={
"48 48 136 2",
"Qt c None",
".K c #000000",
".C c #050505",
".j c #0a0a0a",
"#q c #191919",
".e c #232323",
"#6 c #242424",
"#7 c #282828",
"#v c #414100",
".u c #414141",
"#3 c #424200",
"#z c #4b4b4b",
"ae c #505000",
"#4 c #555555",
"#t c #5c5c00",
".5 c #5e5e00",
"#5 c #606000",
".b c #636363",
"#Z c #656565",
"#F c #686868",
"af c #696900",
"#1 c #696969",
"#o c #6a6a00",
".p c #6c6c6c",
".D c #6d6d6d",
".B c #6e6e6e",
".k c #6f6f6f",
".v c #707070",
"ab c #737300",
".f c #767676",
"#m c #777700",
"#u c #7e7e00",
".# c #818181",
".2 c #868600",
"#Y c #878700",
".I c #8d8d8d",
"ad c #8e8e00",
".c c #8e8e8e",
".W c #8f8f00",
".a c #919191",
"a# c #939300",
"#C c #949400",
"#c c #979700",
".O c #9a9a9a",
"#A c #9b9b9b",
"#p c #9c9c00",
".Q c #9e9e9e",
"#0 c #a0a000",
".T c #a0a0a0",
"ac c #a2a200",
"#r c #a2a2a2",
"#w c #a5a500",
"#s c #b0b000",
"#D c #b1b100",
"aa c #b9b900",
".4 c #c1c100",
"#f c #c2c200",
"#8 c #c4c400",
"#n c #c6c600",
"#J c #c8c800",
"#R c #c9c900",
"#l c #cbcb00",
".Z c #cdcd00",
"#x c #d3d300",
"#g c #d6d600",
"#e c #d7d700",
"a. c #d9d900",
"#W c #dada00",
"#B c #dddd00",
"#9 c #ebeb00",
"#P c #ecec00",
"#h c #eded00",
"#b c #eeee00",
"#d c #efef00",
".8 c #f3f300",
".S c #f5f500",
"#I c #f6f600",
".9 c #f7f700",
".7 c #f8f800",
"#i c #fbfb00",
"#. c #fcfc00",
".6 c #fdfd00",
"## c #fefe00",
".H c #ffff00",
".N c #ffff02",
"#S c #ffff03",
".z c #ffff04",
"#k c #ffff07",
"#T c #ffff08",
".G c #ffff09",
".A c #ffff0b",
"#U c #ffff0c",
".s c #ffff0e",
"#L c #ffff0f",
".o c #ffff10",
".t c #ffff12",
".y c #ffff13",
".n c #ffff1b",
".M c #ffff1f",
".i c #ffff21",
"#y c #ffff22",
".3 c #ffff23",
".r c #ffff24",
"#O c #ffff25",
".J c #ffff29",
"#K c #ffff2d",
".V c #ffff2e",
".F c #ffff2f",
"#a c #ffff31",
"#V c #ffff32",
"#j c #ffff34",
"#M c #ffff35",
"#N c #ffff37",
".m c #ffff3e",
".x c #ffff40",
"#E c #ffff42",
"#2 c #ffff49",
"#Q c #ffff4d",
".L c #ffff4f",
".q c #ffff50",
".Y c #ffff51",
"#X c #ffff53",
".h c #ffff59",
".P c #ffff5b",
".E c #ffff5d",
"#H c #ffff5e",
".1 c #ffff61",
".l c #ffff64",
".d c #ffff66",
".w c #ffff67",
"#G c #ffff75",
".R c #ffff7b",
".g c #ffff7c",
".U c #ffff89",
".X c #ffff8e",
".0 c #ffff90",
"QtQtQtQtQtQtQtQtQtQtQtQtQtQtQtQtQtQtQtQtQtQtQtQtQtQtQtQtQtQtQtQtQtQtQtQtQtQtQtQtQtQtQtQtQtQtQtQt",
"QtQtQtQtQtQtQtQtQtQtQtQtQtQtQtQtQtQtQtQtQtQtQtQtQtQtQtQtQtQtQtQtQtQtQtQtQtQtQtQtQtQtQtQtQtQtQtQt",
"QtQtQtQtQtQtQtQtQtQtQtQtQtQtQtQtQtQtQtQtQtQtQtQtQtQtQtQtQtQtQtQtQtQtQtQtQtQtQtQtQtQtQtQtQtQtQtQt",
"QtQtQtQtQtQtQtQtQtQtQtQtQtQtQtQtQtQtQtQtQtQtQtQtQtQtQtQtQtQtQtQtQtQtQtQtQtQtQtQtQtQtQtQtQtQtQtQt",
"QtQtQtQtQtQtQtQtQtQtQtQtQtQtQtQtQtQtQtQtQtQtQtQtQtQtQtQtQtQtQtQtQtQtQtQtQtQtQtQtQtQtQtQtQtQtQtQt",
"QtQtQtQtQtQtQtQtQtQtQtQtQtQtQtQtQtQtQtQtQtQtQtQtQtQtQtQtQtQtQtQtQtQtQtQtQtQtQtQtQtQtQtQtQtQtQtQt",
"QtQtQtQtQtQtQtQtQtQtQtQtQtQtQtQtQtQtQtQtQtQtQtQtQtQtQtQtQtQtQtQtQtQtQtQtQtQtQtQtQtQtQtQtQtQtQtQt",
"QtQtQtQtQtQtQtQtQtQtQtQtQt.#QtQtQtQtQtQtQtQtQtQtQtQtQtQtQtQtQtQtQtQtQtQtQtQtQtQtQtQtQtQtQtQtQtQt",
"QtQtQtQtQtQtQtQtQtQtQtQtQt.a.bQtQtQtQtQtQtQtQtQtQtQtQtQtQtQtQtQtQtQtQtQtQtQtQtQtQtQtQtQtQtQtQtQt",
"QtQtQtQtQtQtQtQtQtQtQtQtQt.c.d.eQtQtQtQtQtQtQtQtQtQtQtQtQtQtQtQtQtQtQtQtQtQtQtQtQtQtQtQtQtQtQtQt",
"QtQtQtQtQtQtQtQtQtQtQtQt.f.g.h.i.jQtQtQtQtQtQtQtQtQtQtQtQtQtQtQtQtQtQtQtQtQtQtQtQtQtQtQtQtQtQtQt",
"QtQtQtQtQtQtQtQtQtQtQtQt.k.l.m.n.o.jQtQtQtQtQtQtQtQtQtQtQtQtQtQtQtQtQtQtQtQtQtQtQtQtQtQtQtQtQtQt",
"QtQtQtQtQtQtQtQtQtQtQtQt.p.q.r.s.t.o.jQtQtQtQtQtQtQtQtQtQtQtQtQtQtQtQtQtQtQtQtQtQtQtQtQt.uQtQtQt",
"QtQtQtQtQtQtQtQtQtQtQt.v.w.x.y.z.A.t.o.jQtQtQtQtQtQtQtQtQtQtQtQtQtQtQtQtQtQtQtQtQtQtQt.B.CQtQtQt",
"QtQtQtQtQtQtQtQtQtQtQt.D.E.F.G.H.z.A.t.o.jQtQtQtQtQtQtQtQtQtQtQtQtQtQtQtQtQtQtQtQtQt.I.J.KQtQtQt",
"QtQtQtQtQtQtQtQtQtQtQt.p.L.M.N.H.H.z.A.t.o.jQtQtQtQtQtQtQtQtQtQtQtQtQtQtQtQtQtQtQt.O.P.KQtQtQtQt",
"QtQtQtQtQtQtQtQtQtQt.v.w.x.t.H.H.H.H.z.A.t.o.jQtQtQtQtQtQtQtQtQtQtQtQtQtQtQtQtQt.Q.R.S.KQtQtQtQt",
"QtQtQtQtQtQtQtQtQtQt.D.E.F.G.H.H.H.H.H.z.A.t.o.jQtQtQtQtQtQtQtQtQtQtQtQtQtQtQt.T.U.V.W.KQtQtQtQt",
"QtQtQtQtQtQtQtQtQtQt.p.L.M.N.H.H.H.H.H.H.z.A.t.o.jQtQtQtQtQtQtQtQtQtQtQtQtQt.T.X.Y.Z.KQtQtQtQtQt",
"QtQtQtQtQtQtQtQtQt.v.w.x.t.H.H.H.H.H.H.H.H.z.A.t.o.jQtQtQtQtQtQtQtQtQtQtQt.T.0.1.N.2.KQtQtQtQtQt",
"QtQtQtQtQtQtQtQtQt.D.E.F.G.H.H.H.H.H.H.H.H.H.z.A.t.o.jQtQtQtQtQtQtQtQtQt.T.0.w.3.4.5.KQtQtQtQtQt",
"QtQtQtQtQtQtQtQtQt.p.L.M.N.H.6.7.8.8.9#.##.H.H.z.A.t.o.jQtQtQtQtQtQtQt.T.0.w#a#b#c.KQtQtQtQtQtQt",
"QtQtQtQtQtQtQtQt.v.w.x.t.H.6#d#e#f#f#g#h#i##.H.H.z.A.t.o.jQtQtQtQtQt.T.0.w#j#k#l#m.KQtQtQtQtQtQt",
"QtQtQtQtQtQtQtQt.D.E.F.G.6#d#n.W#o.K#p.Z#b#i##.H.H.z.A.t.o#qQtQtQt#r.0.w#j.o#d#s#t.KQtQtQtQtQtQt",
"QtQtQtQtQtQtQtQt.p.L.M.H#d#n#u#v.KQt.K#w#x#b#i##.H.H.z.A.t#y#zQt#A.X.w#j.o.H#B#C.KQtQtQtQtQtQtQt",
"QtQtQtQtQtQtQt.v.w.x.o#d#n#u#v.KQtQtQt.K#D#x#b#i##.H.H.z.A.M#E#F#G#H#j.o.N#I#J#m.KQtQtQtQtQtQtQt",
"QtQtQtQtQtQtQt.D.E#K.7#n#u#v.KQtQtQtQtQt.K#D#x#b#i##.H.H.z#L.3#M#N#O.o.N.H#P#s#t.KQtQtQtQtQtQtQt",
"QtQtQtQtQtQtQt.p#Q.o#R#u#v.KQtQtQtQtQtQtQt.K#D#x#b#i##.H.H#S#T#U#U#k.N.H.6#B#C.KQtQtQtQtQtQtQtQt",
"QtQtQtQtQtQt.v.d#V#W#u#v.KQtQtQtQtQtQtQtQtQt.K#D#x#b#i##.H.H.H.H.H.H.H.H#I#J#m.KQtQtQtQtQtQtQtQt",
"QtQtQtQtQtQt.D#X#.#Y#v.KQtQtQtQtQtQtQtQtQtQtQt.K#D#x#b#i##.H.H.H.H.H.H.H#P#s#t.KQtQtQtQtQtQtQtQt",
"QtQtQtQtQtQt#Z#O#0#v.KQtQtQtQtQtQtQtQtQtQtQtQtQt.K#D#x#b#i##.H.H.H.H.H.6#B#C.KQtQtQtQtQtQtQtQtQt",
"QtQtQtQtQt#1#2#l#3.KQtQtQtQtQtQtQtQtQtQtQtQtQtQtQt.K#D#x#b#i##.H.H.H.H#I#J#m.KQtQtQtQtQtQtQtQtQt",
"QtQtQtQtQt#4###5.KQtQtQtQtQtQtQtQtQtQtQtQtQtQtQtQtQt.K#D#x#b#i##.H.H.H#P#s#t.KQtQtQtQtQtQtQtQtQt",
"QtQtQtQtQt#6.W.KQtQtQtQtQtQtQtQtQtQtQtQtQtQtQtQtQtQtQt.K#D#x#b#i##.H.6#B#C.KQtQtQtQtQtQtQtQtQtQt",
"QtQtQtQt#7#8.KQtQtQtQtQtQtQtQtQtQtQtQtQtQtQtQtQtQtQtQtQt.K#D#x#b#i###I#J#m.KQtQtQtQtQtQtQtQtQtQt",
"QtQtQtQt.K.KQtQtQtQtQtQtQtQtQtQtQtQtQtQtQtQtQtQtQtQtQtQtQt.K#D#x#b#i#P#s#t.KQtQtQtQtQtQtQtQtQtQt",
"QtQtQtQt.KQtQtQtQtQtQtQtQtQtQtQtQtQtQtQtQtQtQtQtQtQtQtQtQtQt.K#D#x#9a.a#.KQtQtQtQtQtQtQtQtQtQtQt",
"QtQtQtQtQtQtQtQtQtQtQtQtQtQtQtQtQtQtQtQtQtQtQtQtQtQtQtQtQtQtQt.K#D#laaab.KQtQtQtQtQtQtQtQtQtQtQt",
"QtQtQtQtQtQtQtQtQtQtQtQtQtQtQtQtQtQtQtQtQtQtQtQtQtQtQtQtQtQtQtQt.Kacadae.KQtQtQtQtQtQtQtQtQtQtQt",
"QtQtQtQtQtQtQtQtQtQtQtQtQtQtQtQtQtQtQtQtQtQtQtQtQtQtQtQtQtQtQtQtQt.Kaf.KQtQtQtQtQtQtQtQtQtQtQtQt",
"QtQtQtQtQtQtQtQtQtQtQtQtQtQtQtQtQtQtQtQtQtQtQtQtQtQtQtQtQtQtQtQtQtQt.K.KQtQtQtQtQtQtQtQtQtQtQtQt",
"QtQtQtQtQtQtQtQtQtQtQtQtQtQtQtQtQtQtQtQtQtQtQtQtQtQtQtQtQtQtQtQtQtQtQt.KQtQtQtQtQtQtQtQtQtQtQtQt",
"QtQtQtQtQtQtQtQtQtQtQtQtQtQtQtQtQtQtQtQtQtQtQtQtQtQtQtQtQtQtQtQtQtQtQtQtQtQtQtQtQtQtQtQtQtQtQtQt",
"QtQtQtQtQtQtQtQtQtQtQtQtQtQtQtQtQtQtQtQtQtQtQtQtQtQtQtQtQtQtQtQtQtQtQtQtQtQtQtQtQtQtQtQtQtQtQtQt",
"QtQtQtQtQtQtQtQtQtQtQtQtQtQtQtQtQtQtQtQtQtQtQtQtQtQtQtQtQtQtQtQtQtQtQtQtQtQtQtQtQtQtQtQtQtQtQtQt",
"QtQtQtQtQtQtQtQtQtQtQtQtQtQtQtQtQtQtQtQtQtQtQtQtQtQtQtQtQtQtQtQtQtQtQtQtQtQtQtQtQtQtQtQtQtQtQtQt",
"QtQtQtQtQtQtQtQtQtQtQtQtQtQtQtQtQtQtQtQtQtQtQtQtQtQtQtQtQtQtQtQtQtQtQtQtQtQtQtQtQtQtQtQtQtQtQtQt",
"QtQtQtQtQtQtQtQtQtQtQtQtQtQtQtQtQtQtQtQtQtQtQtQtQtQtQtQtQtQtQtQtQtQtQtQtQtQtQtQtQtQtQtQtQtQtQtQt"};
