/* XPM */
static char *Indent_xpm[]={
"48 48 16 1",
". c None",
"b c #000000",
"c c #00ff00",
"g c #010101",
"# c #4d4d4d",
"l c #b9b9b9",
"a c #d0d0d0",
"i c #d2d2d2",
"d c #d3d3d3",
"f c #d5d5d5",
"n c #d6d6d6",
"k c #d9d9d9",
"j c #dddddd",
"e c #e0e0e0",
"h c #f4f4f4",
"m c #f7f7f7",
"................................................",
"................................................",
"................................................",
"................................................",
"................................................",
"................................................",
".............########...###.....................",
".............########...###.....................",
".............########...###.....................",
"................................................",
".............########...#####################...",
".............########...#####################...",
".............########...#####################...",
"................................................",
"................................................",
"..........abb...........ccccccccccccccccccccc...",
"..........dbbbe.........ccccccccccccccccccccc...",
"..........fbbbb.........ccccccccccccccccccccc...",
"..........fbbgbbh...............................",
"..........fbbbbbbi......ccccccccccccccccccccc...",
"...jkjjjjhlbbbbbbbm.....ccccccccccccccccccccc...",
"...bbbbbbbbbbbbbbbb.....ccccccccccccccccccccc...",
"...bbbbbbbbbbbbbbbbb............................",
"...bbbbbbbbbbbbbbbb.....ccccccccccccccccccccc...",
"...jkjjjjhlbbbbbbbm.....ccccccccccccccccccccc...",
"..........fbbbbbbi......ccccccccccccccccccccc...",
"..........fbbgbbh...............................",
"..........fbbbb.........ccccccccccccccccccccc...",
"..........dbbbe.........ccccccccccccccccccccc...",
"..........nbb...........ccccccccccccccccccccc...",
"................................................",
"................................................",
".............########...#####################...",
".............########...#####################...",
".............########...#####################...",
"................................................",
".............########...#####################...",
".............########...#####################...",
".............########...#####################...",
"................................................",
".............########...####....................",
".............########...####....................",
".............########...####....................",
"................................................",
"................................................",
"................................................",
"................................................",
"................................................"};
