/* XPM */
static const char *xpmInfo[] = {
/* width height num_colors chars_per_pixel */
"    16    16      154            2",
/* colors */
".. c none",
".# c #020a12",
".a c #031423",
".b c #031425",
".c c #06274c",
".d c #06335e",
".e c #063a66",
".f c #072f50",
".g c #083055",
".h c #08355d",
".i c #093b66",
".j c #0a3e68",
".k c #0c4774",
".l c #0c5c8e",
".m c #0c5c8f",
".n c #0d4d7a",
".o c #0d5486",
".p c #0d5a8c",
".q c #0d5c8f",
".r c #0d5e90",
".s c #0d5e91",
".t c #0d6092",
".u c #0e4e7b",
".v c #0e4e7e",
".w c #0e5c8e",
".x c #0e5d90",
".y c #0e5e90",
".z c #0e5e91",
".A c #105d8e",
".B c #124c75",
".C c #125d8d",
".D c #131f2b",
".E c #136898",
".F c #136a99",
".G c #144c74",
".H c #18272f",
".I c #2478a3",
".J c #262626",
".K c #276389",
".L c #2a3139",
".M c #2b7ca6",
".N c #2d5266",
".O c #2e6f96",
".P c #303030",
".Q c #3079a1",
".R c #33546d",
".S c #374c5c",
".T c #387da2",
".U c #3a4b58",
".V c #3a6382",
".W c #3a6585",
".X c #406d8c",
".Y c #424242",
".Z c #4d4d4c",
".0 c #508fb0",
".1 c #547897",
".2 c #557890",
".3 c #585858",
".4 c #5898ba",
".5 c #5a6b78",
".6 c #5a7285",
".7 c #65a0bd",
".8 c #6891a9",
".9 c #6b6b6b",
"#. c #6d6d6d",
"## c #6e8699",
"#a c #6e8aa0",
"#b c #707070",
"#c c #7792a6",
"#d c #84898a",
"#e c #849fb4",
"#f c #86adc6",
"#g c #88b2c8",
"#h c #898989",
"#i c #89b4ca",
"#j c #8aabbc",
"#k c #8badc5",
"#l c #8cb2ca",
"#m c #8f8984",
"#n c #98b2be",
"#o c #999999",
"#p c #99b4c3",
"#q c #9cbdd2",
"#r c #9daeba",
"#s c #a09b93",
"#t c #a29c94",
"#u c #a3a19f",
"#v c #a5a098",
"#w c #aea9a2",
"#x c #b0aaa0",
"#y c #b0c1d1",
"#z c #b1bec8",
"#A c #b6d0de",
"#B c #bac7d2",
"#C c #bc9e73",
"#D c #bca178",
"#E c #bca37f",
"#F c #bca685",
"#G c #bca88a",
"#H c #bcab90",
"#I c #bcae97",
"#J c #bcb4a6",
"#K c #bcb7b1",
"#L c #bda076",
"#M c #bea57f",
"#N c #beb5a8",
"#O c #beb6af",
"#P c #bfaa88",
"#Q c #c0af91",
"#R c #c0cfdb",
"#S c #c0d3dd",
"#T c #c2b39a",
"#U c #c3b8a3",
"#V c #c4bdac",
"#W c #c6c1b6",
"#X c #c8beaf",
"#Y c #c9d5dd",
"#Z c #cac4ba",
"#0 c #cad2d6",
"#1 c #cadce4",
"#2 c #ccc8c0",
"#3 c #cecece",
"#4 c #d3d0cc",
"#5 c #d6cdbe",
"#6 c #dce4eb",
"#7 c #dedede",
"#8 c #dededf",
"#9 c #e2e0de",
"a. c #e3d6c2",
"a# c #e4d6c2",
"aa c #e5cca7",
"ab c #e7d1b0",
"ac c #e7dbc6",
"ad c #e7e0d9",
"ae c #e9d6b8",
"af c #e9d6b9",
"ag c #e9d6ba",
"ah c #eaeaea",
"ai c #ecdabf",
"aj c #ecdac0",
"ak c #ecdbc2",
"al c #ecdcc1",
"am c #ecdfca",
"an c #ece2d4",
"ao c #ececea",
"ap c #eee0ca",
"aq c #eee7dc",
"ar c #f1e6d4",
"as c #f3ebdc",
"at c #f3ede3",
"au c #f4f0ec",
"av c #f6f5f5",
"aw c #fcfcfc",
"ax c #ffffff",
/* pixels */
".........3.3.3.3.3.3.3.3.3......",
".........3#7#7#7#7#7#K.3#o.3....",
".........R#c#eaxaxaxah#.ax#o.3..",
"......#a#0#Y#p.X#Baxaw#b#3ax#o.P",
"....#r#1#i#A.M.Q.K#zax#h#b.9.Y.P",
"...2#S.7.4ax#f.l.A.B#8av#9#K#m.P",
".V#n#g.I.E.s.m.q.z.n##aoauad#O.P",
".W#j.0.F#qax#l.y.y.k.6#4ataq#I.P",
".S.8.T.t.rax#f.x.w.j.5#2asan#I.P",
".W.N.O.p.Cax#k.o.u.f#d#Zaram#H.P",
"...H.G.v#R#6#y.1.g.U#v#5apak#G.P",
".....D.h.e.i.d.c.L#t#Nacalag#F.P",
".......J.#.b.a.Z#s#Ja.ajafab#E.P",
".........3#u#w#x#Xa#aiaeabaa#D.P",
".........3#W#W#V#U#T#Q#P#M#L#C.P",
".........3.P.P.P.P.P.P.P.P.P.P.P"
};
