/* XPM */
static const char * xpmInheritanceLink16x16[] = {
"16 16 5 1",
" 	c none",
".	c #A0A72007F0FB",
"X	c #000000000000",
"o	c #FFFFFFFFFFFF",
"O	c #FFFF00000000",
"                ",
"             ...",
"           ...XX",
"           .XXoo",
"          .Xoooo",
"         .XXoooo",
"         .Xooooo",
"XXXX     .XoXXXX",
"XOOXXXXXXXXXXOOX",
"XOOXXXXXXXXXXOOX",
"XXXX    .XooXXXX",
"        .Xoooooo",
"        .Xoooooo",
"        .XXXXXXX",
"        ........",
"                "};
