/* XPM */
static char *Italic_xpm[]={
"48 48 11 1",
". c None",
"# c #000000",
"d c #010101",
"h c #020202",
"b c #040404",
"a c #050505",
"e c #0e0e0e",
"f c #0f0f0f",
"i c #131313",
"g c #151515",
"c c #181818",
"................................................",
"................................................",
"................................................",
"................................................",
"................................................",
"................................................",
"................................................",
"................................................",
"................................................",
".....................#############..............",
"........................########................",
".......................#########................",
".......................########a................",
".......................########.................",
"......................#########.................",
"......................########b.................",
"......................########..................",
".....................c########..................",
".....................d########..................",
".....................########d..................",
".....................########...................",
"....................a########...................",
"....................#########...................",
"....................########e...................",
"...................b########....................",
"...................#########....................",
"...................########d....................",
"..................f########g....................",
"..................#########.....................",
"..................#########.....................",
"..................########d.....................",
".................h########......................",
".................#########......................",
".................#########......................",
"................i########d......................",
"................d########.......................",
"................#########.......................",
"................#########.......................",
"...............a#########.......................",
".............##############.....................",
"................................................",
"................................................",
"................................................",
"................................................",
"................................................",
"................................................",
"................................................",
"................................................"};
