/* XPM */
static const char * xpmLMDomain16x16[] = {
"16 16 2 1",
" 	c none",
".	c #A0A02020F0F0",
"      ....      ",
"      .  .      ",
"      .  .      ",
"      .  .      ",
"      .  .      ",
"      .  .      ",
"      .  .      ",
"      .  .      ",
"      .  .      ",
"      .  .      ",
"      .  .      ",
"      .  .      ",
"      .  .      ",
"      .  .      ",
"      .  .      ",
"      ....      "};
