/* XPM */
static const char *xpmLogicalModel22x22[] = {
/* columns rows colors chars-per-pixel */
"22 22 7 1",
"  c black",
". c #545454",
"X c #696969",
"o c #7b7b7b",
"O c #0012c0",
"+ c white",
"@ c None",
/* pixels */
"@@@@@@@@@@@@@@o..... @",
"@@@@@@@@@@@@@@.OOOOO @",
"@@@@@@@@@@@@@@.OOOOO @",
"@@@@@@@@@@@@@@.OOOOO @",
"@@@@@@@@@@@@@@.OO OO @",
"@@@@@@@@@@@@@@.O X O @",
"@@@@@@@@@@@@@@  X+X  @",
"@@@@@@@@@@@@@@ X+++X @",
"@@@@@@@@@@@@@@  X+X  @",
"@@@@@@@@@@@@@@@@ + @@@",
"@@@             X+ @@@",
"@@@ ++++++++++++++ @@@",
"@@@ +X             @@@",
"@@@ + @@@@@@@@@@@@@@@@",
"@@ X+X @@@@@@@@@@@@@@@",
"@       @@@@@@@@@@@@@@",
"@.OOOOO @@@@@@@@@@@@@@",
"@.OOOOO @@@@@@@@@@@@@@",
"@.OOOOO @@@@@@@@@@@@@@",
"@.OOOOO @@@@@@@@@@@@@@",
"@.OOOOO @@@@@@@@@@@@@@",
"@       @@@@@@@@@@@@@@"
};
