/* XPM */
static const char *xpmLogicalModel48x48[] = {
/* columns rows colors chars-per-pixel */
"48 48 14 1",
"  c black",
". c #404040",
"X c #666666",
"o c #696969",
"O c #5b1288",
"+ c #7918b6",
"@ c #9a1fe8",
"# c #a020f0",
"$ c #b34df3",
"% c #c270f5",
"& c #808080",
"* c #9c9c9c",
"= c white",
"- c None",
/* pixels */
"------------------------------------------------",
"------------------------------------------------",
"-------------------------------*&XXXXXXXXX. ----",
"-------------------------------&%$$$$$$$$$@ ----",
"-------------------------------X$#########+ ----",
"-------------------------------X$#########+ ----",
"-------------------------------X$#########+ ----",
"-------------------------------X$#########+ ----",
"-------------------------------X$#########+ ----",
"-------------------------------X$#########+ ----",
"-------------------------------X$#########+ ----",
"-------------------------------X$#########+ ----",
"-------------------------------X$#########+ ----",
"-------------------------------.@+++++++++O ----",
"-------------------------------             ----",
"------------------------------------- ----------",
"------------------------------------ o ---------",
"----------------------------------- o=o --------",
"---------------------------------- o===o -------",
"---------------------------------   o=o   ------",
"------------------------------------ = ---------",
"------------------------------------ = ---------",
"---------                           o= ---------",
"--------- ============================ ---------",
"--------- =o                           ---------",
"--------- = ------------------------------------",
"--------- = ------------------------------------",
"--------- = ------------------------------------",
"--------- = ------------------------------------",
"--------- = ------------------------------------",
"-------- o=o -----------------------------------",
"------- o===o ----------------------------------",
"------         ---------------------------------",
"----*&XXXXXXXXX. -------------------------------",
"----&%$$$$$$$$$@ -------------------------------",
"----X$#########+ -------------------------------",
"----X$#########+ -------------------------------",
"----X$#########+ -------------------------------",
"----X$#########+ -------------------------------",
"----X$#########+ -------------------------------",
"----X$#########+ -------------------------------",
"----X$#########+ -------------------------------",
"----X$#########+ -------------------------------",
"----X$#########+ -------------------------------",
"----.@+++++++++O -------------------------------",
"----             -------------------------------",
"------------------------------------------------",
"------------------------------------------------"
};
