/* XPM */
static const char *xpmLogicalModel32x32[] = {
/* columns rows colors chars-per-pixel */
"32 32 7 1",
"  c black",
". c #545454",
"X c #696969",
"o c #7b7b7b",
"O c #0012c0",
"+ c white",
"@ c None",
/* pixels */
"@@@@@@@@@@@@@@@@@@@@@@@@@@@@@@@@",
"@@@@@@@@@@@@@@@@@@@@o....... @@@",
"@@@@@@@@@@@@@@@@@@@@.OOOOOOO @@@",
"@@@@@@@@@@@@@@@@@@@@.OOOOOOO @@@",
"@@@@@@@@@@@@@@@@@@@@.OOOOOOO @@@",
"@@@@@@@@@@@@@@@@@@@@.OOOOOOO @@@",
"@@@@@@@@@@@@@@@@@@@@.OOOOOOO @@@",
"@@@@@@@@@@@@@@@@@@@@.OOOOOOO @@@",
"@@@@@@@@@@@@@@@@@@@@.OOOOOOO @@@",
"@@@@@@@@@@@@@@@@@@@@         @@@",
"@@@@@@@@@@@@@@@@@@@@@@@ X @@@@@@",
"@@@@@@@@@@@@@@@@@@@@@@ X+X @@@@@",
"@@@@@@@@@@@@@@@@@@@@@ X+++X @@@@",
"@@@@@@@@@@@@@@@@@@@@   X+X   @@@",
"@@@@@@@@@@@@@@@@@@@@@@@ + @@@@@@",
"@@@@@@                 X+ @@@@@@",
"@@@@@@ ++++++++++++++++++ @@@@@@",
"@@@@@@ +X                 @@@@@@",
"@@@@@@ + @@@@@@@@@@@@@@@@@@@@@@@",
"@@@@@@ + @@@@@@@@@@@@@@@@@@@@@@@",
"@@@@@ X+X @@@@@@@@@@@@@@@@@@@@@@",
"@@@@       @@@@@@@@@@@@@@@@@@@@@",
"@@@o....... @@@@@@@@@@@@@@@@@@@@",
"@@@.OOOOOOO @@@@@@@@@@@@@@@@@@@@",
"@@@.OOOOOOO @@@@@@@@@@@@@@@@@@@@",
"@@@.OOOOOOO @@@@@@@@@@@@@@@@@@@@",
"@@@.OOOOOOO @@@@@@@@@@@@@@@@@@@@",
"@@@.OOOOOOO @@@@@@@@@@@@@@@@@@@@",
"@@@.OOOOOOO @@@@@@@@@@@@@@@@@@@@",
"@@@.OOOOOOO @@@@@@@@@@@@@@@@@@@@",
"@@@         @@@@@@@@@@@@@@@@@@@@",
"@@@@@@@@@@@@@@@@@@@@@@@@@@@@@@@@"
};
