/* XPM */
static const char *xpmModelProperties16x16[]={
"22 22 82 2",
"Qt c None",
".N c #000000",
".i c #010101",
".P c #020202",
".M c #0b0b0b",
".I c #0c0c0c",
"#n c #141414",
".y c #222222",
".h c #252525",
"#k c #313131",
".n c #343434",
".c c #383838",
".f c #3a3a3a",
"#j c #3c3c3c",
".b c #3d3d3d",
".X c #3e3e3e",
".T c #3f3f3f",
".g c #404040",
".e c #444444",
".R c #474747",
".d c #484848",
".D c #497fc7",
".Y c #4b4b4b",
".E c #4d86d2",
".a c #505050",
"#f c #515151",
".9 c #525252",
"#l c #535353",
".F c #5390e2",
"#b c #545454",
".5 c #555555",
".O c #565656",
".G c #5797ed",
"#a c #5e5e5e",
".4 c #606060",
"#g c #636363",
".# c #656565",
".H c #676767",
"#d c #686868",
"#h c #6868b0",
"#m c #6b6bbc",
".3 c #6e6e6e",
"#c c #6e6ec4",
"## c #6f6f6f",
"#i c #6f6fc8",
".6 c #7171cd",
".j c #737373",
".t c #75a5e4",
".2 c #797979",
".1 c #7e7e7e",
".V c #838383",
".s c #88a8d4",
".Z c #8a8a8a",
".r c #8ba5c9",
".U c #8d8d8d",
".7 c #939393",
"#p c #9d9d9d",
".8 c #a5a5a5",
".K c #a93e3e",
".L c #ab3f3f",
"#e c #b0b0b0",
".J c #b54242",
".0 c #b5b5b5",
"#o c #bfbfbf",
".x c #c2c2c2",
"#. c #c3c3c3",
".w c #c4c4c4",
".z c #c74949",
".o c #c98b8b",
".S c #cbcbcb",
".A c #d24d4d",
".m c #d2d2d2",
".p c #d48888",
".v c #dadada",
".l c #dedede",
".B c #e25353",
".q c #e47575",
".k c #e8e8e8",
".u c #eaeaea",
".C c #f25959",
".W c #ff0000",
".Q c #ffffff",
"QtQtQtQtQtQtQtQtQtQtQtQtQtQtQtQtQtQtQtQtQtQt",
"QtQtQtQtQtQtQtQtQtQtQtQtQtQtQtQtQtQtQtQtQtQt",
"QtQtQtQt.#.a.b.cQt.d.e.f.cQt.d.g.h.iQtQtQtQt",
"QtQtQt.j.k.l.l.m.n.o.o.p.q.n.r.r.s.tQtQtQtQt",
"QtQt.j.u.v.w.w.x.x.y.z.A.B.C.y.D.E.F.GQtQtQt",
"Qt.H.k.v.w.w.w.w.x.x.I.J.K.L.L.M.N.N.N.N.NQt",
"Qt.O.l.w.w.w.w.w.w.x.x.i.i.P.P.i.N.Q.Q.Q.NQt",
"Qt.R.l.w.w.w.w.w.w.w.x.S.l.l.l.l.N.Q.Q.Q.NQt",
"Qt.T.l.w.w.w.w.w.w.w.w.w.U.V.w.w.N.Q.W.Q.NQt",
"Qt.X.l.w.w.w.w.w.w.w.w.wQt.Y.Z.0.N.W.W.W.NQt",
"Qt.X.l.w.1.2.3.4.5.6.w.w.w.7.Y.Y.w.w.N.8QtQt",
"Qt.X.l.w.w.w.w.w.w.w.w.w.w.9.Y.Y#..w.N.8QtQt",
"Qt.X.l.w.2###a#b#b#c.w.w#d#e.w#f#f.w.N.8QtQt",
"Qt.X.l.w.w.w.w.N.N.N.N.N.N.N.N.N.N.N.N.8QtQt",
"Qt.X.l.w#g.5#b.N.9#h.w.w#b#b#b#i.w.w.w.8QtQt",
"Qt#j.l.w.w.w.w.N.w.w.w.w.w.w.w.w.w.w.w.8QtQt",
"Qt#k.l.w#b.N.W.W.W.N.w.w#l#l#l#m.w.w.w.8QtQt",
"Qt#n.l.w.w.N.Q.W.Q.N.w.w.w.w.w.w.w.w.w.8QtQt",
"QtQt#o.8.8.N.Q.Q.Q.N.8.8.8.8.8.8.8.8.8#pQtQt",
"QtQtQtQtQt.N.Q.Q.Q.NQtQtQtQtQtQtQtQtQtQtQtQt",
"QtQtQtQtQt.N.N.N.N.NQtQtQtQtQtQtQtQtQtQtQtQt",
"QtQtQtQtQtQtQtQtQtQtQtQtQtQtQtQtQtQtQtQtQtQt"};
