/* XPM */
static const char *xpmModelProperties48x48[]={
"48 48 256 2",
"Qt c None",
".# c #000000",
"b2 c #000100",
".d c #003700",
".b c #003800",
".c c #003b00",
".m c #003c00",
".4 c #003f00",
".l c #004000",
".F c #004400",
".k c #004500",
".j c #004900",
".E c #004a00",
".3 c #004f00",
".D c #005000",
".C c #005500",
"#i c #005600",
"#w c #005b00",
".B c #005c00",
".A c #006200",
"b9 c #006300",
".z c #006900",
".2 c #007000",
"#4 c #007100",
".1 c #007700",
"#h c #007800",
".0 c #007f00",
"#v c #008600",
".Z c #008700",
".Y c #008e00",
".X c #009500",
"#g c #009600",
"#I c #009d00",
".W c #009e00",
".V c #00a500",
"#f c #00ac00",
".U c #00ad00",
".T c #00b400",
"#u c #00b500",
"#e c #00bb00",
".S c #00bc00",
"#t c #00c200",
".R c #00c300",
".Q c #00c900",
"#d c #00ca00",
".P c #00d000",
"#c c #00d100",
".y c #00d700",
"#s c #00d800",
".O c #00dd00",
".x c #00de00",
"#b c #00e300",
".w c #00e400",
".v c #00e900",
".N c #00ea00",
".M c #00ee00",
".u c #00ef00",
".t c #00f300",
".i c #00f400",
".s c #00f700",
".h c #00f800",
".g c #00fb00",
".r c #00fc00",
".a c #00ff00",
"aA c #040302",
"bX c #040404",
"aG c #060700",
"an c #070800",
"#7 c #090909",
"ao c #0e0100",
"#8 c #130101",
"bW c #141414",
"b8 c #1d211d",
"b7 c #1e1e1e",
"bL c #212121",
"#Y c #231f1f",
"bM c #272727",
"bE c #2b2b2b",
"bu c #313131",
"b3 c #333333",
"bn c #383838",
"#K c #3f473d",
"bi c #404040",
"bd c #484848",
"#x c #484a48",
"bN c #494949",
"a9 c #4c4c4c",
"a3 c #4e4e4e",
"#L c #4f2e2e",
".5 c #4f4f4f",
"ar c #530000",
"#Z c #551212",
"aq c #560000",
"ah c #590000",
"ap c #5d0000",
"aa c #5f0000",
"ab c #600000",
"bv c #606060",
"bD c #60623d",
"a# c #620000",
"bj c #666666",
"ag c #670000",
"#3 c #680000",
"#j c #694949",
"#2 c #6a0000",
"bo c #6a6a6a",
"#y c #6d3d3d",
"b4 c #6d6d6d",
"bO c #6e6e6e",
"af c #6f0000",
"a. c #700000",
"bY c #717171",
"#U c #720000",
"b5 c #727272",
"#T c #740000",
"aL c #747405",
"ae c #760000",
"#1 c #780000",
"#R c #7b0000",
"#S c #7b0202",
".G c #7b4d4b",
"#0 c #7c0303",
"#H c #7d0000",
"#Q c #7d0202",
"#9 c #7e0000",
".6 c #7e4948",
"aK c #7e7e06",
"#G c #7f0000",
"#F c #810404",
"aX c #818174",
"#E c #830808",
"#r c #840909",
"#P c #850505",
"#D c #850a0a",
"#q c #850c0c",
"#a c #881111",
"## c #8a1616",
"bl c #8a8aa0",
".L c #8c1a1a",
"#p c #8d1010",
"ax c #8e8e6f",
"bJ c #919191",
"bm c #929254",
".q c #932828",
"bc c #949467",
"aI c #94946e",
"bF c #959595",
"bz c #9999a8",
"bA c #9999ac",
"ay c #9a9a63",
"#C c #9e0d0d",
".f c #9f3c3c",
"a7 c #a0a05f",
"aJ c #a6a65a",
"#k c #a83d3d",
".n c #a84b4b",
"b6 c #a8a8a8",
"bs c #a8a8d7",
"am c #aaaa5e",
"bt c #aaaa8e",
"b1 c #aaaaaa",
"aB c #abab55",
"aU c #abab56",
"a2 c #abab59",
"al c #abab5e",
"bV c #ababab",
".e c #ac4242",
".H c #ac4949",
"bK c #acacac",
"#M c #ad1f1f",
"bg c #afaf42",
"aC c #b0b05c",
".p c #b23737",
".7 c #b34040",
"aT c #b3b358",
"aW c #b6b642",
"aQ c #b6b64b",
"#o c #b71414",
".o c #b74343",
"bh c #b7b741",
"a8 c #b7b751",
"b0 c #b7b7b7",
"br c #b8b8d5",
"bU c #bababa",
"aF c #bbbb1d",
"bw c #bbbbbb",
"aY c #bdbd55",
"#O c #be0a0a",
"bf c #bebe48",
"aw c #bfbf42",
"bI c #c0c0c1",
"aS c #c1c13c",
"bZ c #c3c3c3",
"bp c #c5c5c5",
"by c #c6c6cc",
".K c #c84646",
"aD c #c8c849",
"bq c #c9c9dd",
"bP c #cacaca",
"a1 c #cbcb37",
"bT c #cbcbcb",
"aE c #cccc1f",
"bC c #cdcdcd",
"#z c #cf2e2e",
"bb c #cfcf27",
"aN c #cfcf2d",
"bG c #cfcfcf",
".I c #d03e3e",
"#. c #d42525",
"#N c #d61313",
"bk c #d9d9da",
".J c #db3131",
"bS c #dbdbdb",
"#l c #dd3131",
"ak c #dede24",
"az c #dfdf00",
"av c #dfdf23",
"bB c #dfdfdf",
"#n c #e11919",
"aR c #e1e11e",
"a0 c #e1e11f",
"bR c #e1e1e1",
"#B c #e31414",
"a6 c #e3e31c",
".8 c #e63333",
"bx c #efefef",
"be c #f0f07b",
"bQ c #f0f0f0",
"aP c #f1f110",
"#m c #f42424",
"aH c #f4f411",
"aV c #f5f50b",
"ba c #f6f608",
"aZ c #f7f710",
"au c #f8f815",
"aO c #fbfb0c",
".9 c #fc2727",
"b# c #fcfc20",
"bH c #fcfcfc",
"aj c #fdfd0a",
"aM c #fdfd1f",
"#A c #fe2020",
"a5 c #fefe09",
"at c #fefe14",
"as c #fefe1f",
"ad c #ffff02",
"ac c #ffff08",
"#6 c #ffff12",
"ai c #ffff15",
"#5 c #ffff1f",
"#X c #ffff2e",
"#W c #ffff3d",
"#V c #ffff48",
"#J c #ffff49",
"b. c #ffff61",
"a4 c #ffffff",
"QtQtQtQtQtQtQtQtQtQtQtQtQtQtQtQtQtQtQtQtQtQtQtQtQtQtQtQtQtQtQtQtQtQtQtQtQtQtQtQtQtQtQtQtQtQtQtQt",
"QtQtQtQtQtQtQtQtQtQtQtQtQtQtQtQtQtQtQtQtQtQtQtQtQtQtQtQtQtQtQtQtQtQtQtQtQtQtQtQtQtQtQtQtQtQtQtQt",
"QtQtQtQtQtQtQtQtQtQtQtQtQt.#.#.#.#.#.#.#.#.#.#.#.#.#.#QtQtQtQtQtQtQtQtQtQtQtQtQtQtQtQtQtQtQtQtQt",
"QtQtQtQtQtQtQtQt.#.#.#.#.#.a.a.a.a.a.a.a.a.a.a.a.a.a.a.#.#.#.#.#QtQtQtQtQtQtQtQtQtQtQtQtQtQtQtQt",
"QtQtQtQtQt.#.#.#.a.a.a.a.a.a.a.a.a.a.a.a.a.a.a.a.a.a.a.a.a.a.a.a.#.#.#QtQtQtQtQtQtQtQtQtQtQtQtQt",
"QtQtQtQt.#.a.a.a.a.a.a.a.a.a.a.a.a.a.a.a.a.a.a.a.a.a.a.a.a.a.a.a.a.a.a.#QtQtQtQtQtQtQtQtQtQtQtQt",
"QtQtQt.#.a.a.a.a.a.a.a.a.a.a.a.a.a.a.a.a.a.a.a.a.a.a.a.a.a.a.a.a.a.a.a.a.#QtQtQtQtQtQtQtQtQtQtQt",
"QtQt.#.a.a.a.a.a.a.a.a.a.a.a.a.a.a.a.a.a.a.a.a.a.a.a.a.a.a.a.a.a.a.a.a.a.a.#QtQtQtQtQtQtQtQtQtQt",
"QtQt.#.a.a.a.a.a.a.a.a.a.a.a.a.a.a.a.a.a.a.a.a.a.a.a.a.a.a.a.a.a.a.a.a.a.a.#QtQtQtQtQtQtQtQtQtQt",
"QtQt.#.#.a.a.a.a.a.a.a.a.a.a.a.a.a.a.a.a.a.a.a.a.a.a.a.a.a.a.a.a.a.a.a.a.#.#QtQtQtQtQtQtQtQtQtQt",
"QtQt.#.a.#.a.a.a.a.a.a.a.a.a.a.a.a.a.a.a.a.a.a.a.a.a.a.a.a.a.a.a.a.a.a.#.b.#QtQtQtQtQtQtQtQtQtQt",
"QtQt.#.a.a.#.#.#.a.a.a.a.a.a.a.a.a.a.a.a.a.a.a.a.a.a.a.a.a.a.a.a.#.#.#.c.d.#.e.fQtQtQtQtQtQtQtQt",
"QtQt.#.a.a.g.h.i.#.#.#.#.#.a.a.a.a.a.a.a.a.a.a.a.a.a.a.#.#.#.#.#.j.k.l.m.d.n.o.p.qQtQtQtQtQtQtQt",
"QtQt.#.a.a.r.s.t.u.v.w.x.y.#.#.#.#.#.#.#.#.#.#.#.#.#.#.z.A.B.C.D.E.F.l.c.G.H.I.J.K.LQtQtQtQtQtQt",
"QtQt.#.a.a.r.s.i.M.N.w.O.y.P.Q.R.S.T.U.V.W.X.Y.Z.0.1.2.z.A.B.C.3.j.F.4.5.6.7.8.9#.###aQtQtQtQtQt",
"QtQt.#.a.a.g.h.i.u.v#b.x.y#c#d.R#e.T#f.V.W#g.Y.Z.0#h.2.z.A.B#i.D.j.k.5#j#k#l#m#n#o#p#q#rQtQtQtQt",
"QtQt.#.a.a.r.s.t.M.N.w.x#s#c#d#t#e#u.U.V.W#g.Y#v.0#h.2.z.A#w#i.3.j.5#x#y#z#A#B#C#D#E#F#G#HQtQtQt",
"QtQt.#.a.a.r.h.t.u.v.w.O.y.P#d.R.S.T.U.V#I#g.Y#v.0#h.2.z.A.B.C.3.5#J#K#L#M#N#O#P#Q#G#R#S#T#UQtQt",
"QtQt.#.a.a.g.h.t.u.N.w.O.y#c#d.R#e.T.U.V#I.X.Y.Z.0.1.2.z.A#w.C.5#V#W#X#Y#Z#r#0#G#H#1#U#U#2#3QtQt",
"QtQt.#.a.a.g.h.t.M.v#b.O.y#c#d.R.S.T.U.V#I#g.Y.Z.0.1#4.z.A.B.5#V#W#X#5#6#7#8#9#1#1a.#3a#aaabQtQt",
"QtQt.#.a.a.g.h.t.M.v#b.x#s#c#d.R#e#u.U.V#I.X.Y#v.0.1.2.z.A.5#V#W#X#5#6acad.##8aeafagaaahahQtQtQt",
"QtQt.#.a.a.g.h.i.u.v.w.O.y#c#d.R.S.T#f.V#I.X.Y#v.0#h.2.z.5#V#W#X#5aiajakalamanaoagapaqarQtQtQtQt",
"QtQt.#.a.a.r.h.t.u.v.w.x.y#c#d.R.S.T.U.V.W.X.Y.Z.0.1.2.5#V#W#XasatauavawaxayazaA.#aq.#QtQtQtQtQt",
"QtQt.#.a.a.r.s.i.u.v#b.x#s#c#d.R#e.T.U.V.W.X.Y#v.0#h.5#V#W#X#5#6ajakaBaCaDaEaFaG.#.#QtQtQtQtQtQt",
"QtQt.#.a.a.g.s.i.M.v#b.O.y#c#d.R#e.T#f.V#I.X.Y#v.0.5#V#W#X#5#6aHavawaIaJaEaFaKaL.#QtQtQtQtQtQtQt",
"QtQt.#.a.a.g.h.t.u.N.w.x.y#c#d.R#e.T.U.V#I#g.Y#v.5#V#W#XaM#6acaNaBaCaDaEaFaKaL.#QtQtQtQtQtQtQtQt",
"QtQt.#.a.a.r.h.i.u.v#b.x#s#c#d.R.S.T.U.V.W#g.Y.5#V#W#XaM#6aOaPaQaIaJaEaFaKaL.#QtQtQtQtQtQtQtQtQt",
"QtQt.#.a.a.r.h.t.u.v#b.x.y#c#d.R#e.T.U.V.W#g.5#V#W#X#5#6aOaRaSaTaUaEaFaKaL.#QtQtQtQtQtQtQtQtQtQt",
"QtQt.#.a.a.r.h.i.u.v.w.O.y#c#d.R#e.T#f.V.W.5#V#W#X#5#6acaVaWaXaYaEaFaKaL.#.#QtQtQtQtQtQtQtQtQtQt",
"QtQt.#.a.a.r.h.t.u.v.w.x#s#c#d.R#e.T#f.V.5#V#W#X#5#6aZa0a1a2ayaEaFaKaL.#.d.#QtQtQtQtQtQtQtQtQtQt",
"QtQt.#.a.a.r.h.i.u.v#b.x.y#c#d.R.S.T.Ua3a4a4#X#5aia5a6aQa7a8aEaFaKaL.#.c.d.#QtQtQtQtQtQtQtQtQtQt",
"QtQt.#.a.a.g.s.i.u.v.w.x.y#c#d.R.S.Ta9a4a4a4a4b.b#babba7bcaEaFaKaL.#.4.c.b.#QtQtQtQtQtQtQtQtQtQt",
"QtQt.#.a.a.r.s.t.u.v.w.x.y#c#d.R#ebda4a4a4a4a4a4bebfbgbhaEaFaKaL.#.k.l.c.d.#QtQtQtQtQtQtQtQtQtQt",
"QtQt.#.a.a.r.h.i.M.v.w.x.y.P#d.Rbibja4a4a4a4a4a4bkblbmaEaFaKaL.#.E.F.4.c.d.#QtQtQtQtQtQtQtQtQtQt",
"QtQt.#.a.a.r.h.t.u.N#b.x.y.P.Q.Rbnbobpa4a4a4a4bqbrbsbtaFaKaL.#.3.E.F.l.c.d.#QtQtQtQtQtQtQtQtQtQt",
"QtQt.#.a.a.r.h.t.u.v.w.x#s#c#d.Rbubvbwbxa4a4bybzbAbBbCbDaL.#.C.3.E.F.l.c.d.#QtQtQtQtQtQtQtQtQtQt",
"QtQt.#.a.a.g.h.t.M.v.w.x#s#c#d.RbEa9bFbGa4bHbIbJbBbCbwbK.#.B.C.D.E.k.l.c.d.#QtQtQtQtQtQtQtQtQtQt",
"QtQt.#.a.a.r.h.i.u.v.w.x#s#c#d.RbLbMbNbObPbQbRbSbTbUbV.#.A.B.C.D.E.F.l.c.b.#QtQtQtQtQtQtQtQtQtQt",
"QtQt.#.a.a.r.h.i.u.v#b.x.y.P#d.RbW#7bXbWbYbpbZbpb0b1.#.z.A#w#i.3.E.F.4.c.d.#QtQtQtQtQtQtQtQtQtQt",
"QtQt.#.a.a.r.h.i.u.v#b.x.y#c#d.R#7.#b2aAb3b4b5bjb6.#.2.z.A#w.C.3.E.k.4.c.b.#QtQtQtQtQtQtQtQtQtQt",
"QtQt.#.a.a.r.s.t.M.v.w.x.y#c#d.R.#.#b2b2#7b7bLb8.#.1.2.zb9#w.C.3.E.F.4.c.d.#QtQtQtQtQtQtQtQtQtQt",
"QtQtQt.#.a.r.h.i.u.v.w.x.y.P#d#t.#.#.#.#.#.#.#.#.0#h#4.z.A#w.C.3.E.F.l.c.#QtQtQtQtQtQtQtQtQtQtQt",
"QtQtQtQt.#.g.h.t.u.v#b.O#s#c.Q.R#e.T.U.V.W.X.Y#v.0#h.2.zb9.B.C.3.E.F.l.#QtQtQtQtQtQtQtQtQtQtQtQt",
"QtQtQtQtQt.#.#.#.u.N#b.O.y.P#d.R.S.T#f.V#I.X.Y.Z.0.1.2.z.A.B.C.3.#.#.#QtQtQtQtQtQtQtQtQtQtQtQtQt",
"QtQtQtQtQtQtQtQt.#.#.#.#.##c#d.R.S.T#f.V#I.X.Y#v.0#h.2.#.#.#.#.#QtQtQtQtQtQtQtQtQtQtQtQtQtQtQtQt",
"QtQtQtQtQtQtQtQtQtQtQtQtQt.#.#.#.#.#.#.#.#.#.#.#.#.#.#QtQtQtQtQtQtQtQtQtQtQtQtQtQtQtQtQtQtQtQtQt",
"QtQtQtQtQtQtQtQtQtQtQtQtQtQtQtQtQtQtQtQtQtQtQtQtQtQtQtQtQtQtQtQtQtQtQtQtQtQtQtQtQtQtQtQtQtQtQtQt",
"QtQtQtQtQtQtQtQtQtQtQtQtQtQtQtQtQtQtQtQtQtQtQtQtQtQtQtQtQtQtQtQtQtQtQtQtQtQtQtQtQtQtQtQtQtQtQtQt"};
