/* XPM */
static const char *xpmModelValidate48x48[]={
"48 48 214 2",
"Qt c None",
".# c #000000",
".d c #003700",
".b c #003800",
".c c #003b00",
".k c #003c00",
".V c #003f00",
".j c #004000",
".A c #004400",
".i c #004500",
".h c #004900",
".z c #004a00",
".U c #004f00",
".y c #005000",
".x c #005500",
".7 c #005600",
"#g c #005b00",
".w c #005c00",
".v c #006200",
"bt c #006300",
".u c #006900",
".T c #007000",
"#G c #007100",
".S c #007700",
".6 c #007800",
".R c #007f00",
"#f c #008600",
".Q c #008700",
".P c #008e00",
".O c #009500",
".5 c #009600",
"#p c #009d00",
".N c #009e00",
".M c #00a500",
".4 c #00ac00",
".L c #00ad00",
".K c #00b400",
"#e c #00b500",
".3 c #00bb00",
".J c #00bc00",
"#d c #00c200",
".I c #00c300",
".H c #00c900",
".2 c #00ca00",
".G c #00d000",
".1 c #00d100",
".t c #00d700",
"#c c #00d800",
".F c #00dd00",
".s c #00de00",
".0 c #00e300",
".r c #00e400",
".q c #00e900",
".E c #00ea00",
".D c #00ee00",
".p c #00ef00",
".o c #00f300",
".g c #00f400",
".n c #00f700",
".f c #00f800",
".e c #00fb00",
".m c #00fc00",
".a c #00ff00",
"bo c #300000",
"bn c #310000",
"bh c #320000",
"b. c #330000",
"aM c #340000",
"#V c #350000",
"#U c #360000",
"#T c #370000",
"#S c #380000",
"#L c #390000",
"#K c #3a0000",
"#E c #3b0000",
"bs c #3f0000",
"#F c #410000",
"aY c #420000",
"#y c #440000",
"#N c #460000",
"#R c #470000",
"#J c #480000",
"br c #4d0000",
"bm c #4f0000",
"#x c #540000",
"bp c #580000",
"bq c #590000",
"bi c #5e0000",
"bj c #650000",
"b# c #680000",
"bg c #6a0000",
"ba c #6c0000",
"bk c #740000",
"#w c #750000",
"bl c #7c0000",
"bb c #7e0000",
"a0 c #820000",
"#o c #830000",
"aZ c #850000",
"a9 c #870000",
"a1 c #8c0000",
"bc c #9e0000",
"#n c #a10000",
"aX c #a30000",
"a2 c #a70000",
"bf c #ab0000",
"aN c #b40000",
"aO c #b50000",
"aL c #b60000",
"#D c #bc0000",
"ax c #bd0000",
"#Q c #be0000",
"bd c #c00000",
"aP c #c30000",
"#v c #c40000",
"#m c #cc0000",
"be c #d00000",
"a3 c #d10000",
"a8 c #d50000",
"#b c #e00000",
"#7 c #eb4646",
"az c #ec1717",
"ad c #ec4a4a",
"ae c #ed5f5f",
"#6 c #ee5353",
"aA c #ef1d1d",
"#1 c #ef5858",
"ay c #f01c1c",
"#a c #f11818",
"ac c #f15151",
"aq c #f16161",
"#l c #f23131",
"ap c #f24c4c",
"aB c #f32525",
"ar c #f38080",
"ao c #f44a4a",
"aj c #f45f5f",
"ai c #f55858",
"ak c #f56969",
"#5 c #f57d7d",
"#0 c #f58080",
".Z c #f63c3c",
"#u c #f64343",
"aF c #f65757",
"## c #f66161",
"ab c #f67575",
"#X c #f68282",
"aC c #f72929",
"aE c #f74141",
"an c #f75d5d",
"aG c #f77070",
"al c #f77474",
"as c #f79b9b",
"aQ c #f80b0b",
"aD c #f83131",
"am c #f87474",
".Y c #f87676",
"a. c #f88f8f",
"a4 c #f90000",
"aH c #f98282",
"#k c #f98787",
"a# c #f99c9c",
"aa c #f99d9d",
"#W c #f9a4a4",
"at c #f9a5a5",
"#4 c #f9a7a7",
"#Z c #f9a9a9",
"af c #f9b4b4",
"aW c #fa0404",
"#C c #fa3d3d",
".C c #fa7f7f",
"aI c #fa8181",
"#t c #fa8c8c",
"#. c #fa9f9f",
".X c #faa5a5",
"#H c #fab0b0",
"#O c #fab1b1",
"#9 c #fab2b2",
"#q c #fab3b3",
"#z c #fab4b4",
"#2 c #fab6b6",
"#8 c #fab9b9",
"aR c #fb2828",
"aJ c #fb6565",
"au c #fb9d9d",
".B c #fba3a3",
"#A c #fba4a4",
"ag c #fba5a5",
"#s c #fba7a7",
"#j c #fbacac",
"#r c #fbb0b0",
"#i c #fbb3b3",
"#h c #fbb4b4",
".9 c #fbb5b5",
"#3 c #fbb6b6",
".W c #fbb7b7",
".8 c #fbb8b8",
"#Y c #fbb9b9",
"aK c #fc2525",
"#I c #fc3939",
"aV c #fc3d3d",
"aS c #fc4040",
"aT c #fc4f4f",
"aU c #fc5252",
"av c #fc7d7d",
"ah c #fc8484",
"#B c #fc8585",
"a7 c #fd0a0a",
"a5 c #fd1616",
"aw c #fd3636",
"#M c #fd3939",
"a6 c #fe1a1a",
"#P c #fe3939",
".l c #ffffff",
"QtQtQtQtQtQtQtQtQtQtQtQtQtQtQtQtQtQtQtQtQtQtQtQtQtQtQtQtQtQtQtQtQtQtQtQtQtQtQtQtQtQtQtQtQtQtQtQt",
"QtQtQtQtQtQtQtQtQtQtQtQtQtQtQtQtQtQtQtQtQtQtQtQtQtQtQtQtQtQtQtQtQtQtQtQtQtQtQtQtQtQtQtQtQtQtQtQt",
"QtQtQtQtQtQtQtQtQtQtQtQtQt.#.#.#.#.#.#.#.#.#.#.#.#.#.#QtQtQtQtQtQtQtQtQtQtQtQtQtQtQtQtQtQtQtQtQt",
"QtQtQtQtQtQtQtQt.#.#.#.#.#.a.a.a.a.a.a.a.a.a.a.a.a.a.a.#.#.#.#.#QtQtQtQtQtQtQtQtQtQtQtQtQtQtQtQt",
"QtQtQtQtQt.#.#.#.a.a.a.a.a.a.a.a.a.a.a.a.a.a.a.a.a.a.a.a.a.a.a.a.#.#.#QtQtQtQtQtQtQtQtQtQtQtQtQt",
"QtQtQtQt.#.a.a.a.a.a.a.a.a.a.a.a.a.a.a.a.a.a.a.a.a.a.a.a.a.a.a.a.a.a.a.#QtQtQtQtQtQtQtQtQtQtQtQt",
"QtQtQt.#.a.a.a.a.a.a.a.a.a.a.a.a.a.a.a.a.a.a.a.a.a.a.a.a.a.a.a.a.a.a.a.a.#QtQtQtQtQtQtQtQtQtQtQt",
"QtQt.#.a.a.a.a.a.a.a.a.a.a.a.a.a.a.a.a.a.a.a.a.a.a.a.a.a.a.a.a.a.a.a.a.a.a.#QtQtQtQtQtQtQtQtQtQt",
"QtQt.#.a.a.a.a.a.a.a.a.a.a.a.a.a.a.a.a.a.a.a.a.a.a.a.a.a.a.a.a.a.a.a.a.a.a.#QtQtQtQtQtQtQtQtQtQt",
"QtQt.#.#.a.a.a.a.a.a.a.a.a.a.a.a.a.a.a.a.a.a.a.a.a.a.a.a.a.a.a.a.a.a.a.a.#.#QtQtQtQtQtQtQtQtQtQt",
"QtQt.#.a.#.a.a.a.a.a.a.a.a.a.a.a.a.a.a.a.a.a.a.a.a.a.a.a.a.a.a.a.a.a.a.#.b.#QtQtQtQtQtQtQtQtQtQt",
"QtQt.#.a.a.#.#.#.a.a.a.a.a.a.a.a.a.a.a.a.a.a.a.a.a.a.a.a.a.a.a.a.#.#.#.c.d.#QtQtQtQtQtQtQtQtQtQt",
"QtQt.#.a.a.e.f.g.#.#.#.#.#.a.a.a.a.a.a.a.a.a.a.a.a.a.a.#.#.#.#.#.h.i.j.k.d.#QtQt.l.lQtQtQtQtQtQt",
"QtQt.#.a.a.m.n.o.p.q.r.s.t.#.#.#.#.#.#.#.#.#.#.#.#.#.#.u.v.w.x.y.z.A.j.c.d.#Qt.l.B.C.lQtQtQtQtQt",
"QtQt.#.a.a.m.n.g.D.E.r.F.t.G.H.I.J.K.L.M.N.O.P.Q.R.S.T.u.v.w.x.U.h.A.V.k.d.#.l.W.X.Y.Z.lQtQtQtQt",
"QtQt.#.a.a.e.f.g.p.q.0.s.t.1.2.I.3.K.4.M.N.5.P.Q.R.6.T.u.v.w.7.y.h.i.j.c.d.l.8.9#.###a#b.lQtQtQt",
"QtQt.#.a.a.m.n.o.D.E.r.s#c.1.2#d.3#e.L.M.N.5.P#f.R.6.T.u.v#g.7.U.h.A.j.c.l#h#i#j#k#l#m#n#o.lQtQt",
"QtQt.#.a.a.m.f.o.p.q.r.F.t.G.2.I.J.K.L.M#p.5.P#f.R.6.T.u.v.w.x.U.h.A.V.l#q#r#s#t#u#v#w#x#y.lQtQt",
"QtQt.#.a.a.e.f.o.p.E.r.F.t.1.2.I.3.K.L.M#p.O.P.Q.R.S.T.u.v#g.x.U.h.i.l#z#r#A#B#C#D#x#E#F#F.lQtQt",
"QtQt.#.a.a.e.f.o.D.q.0.F.t.1.2.I.J.K.L.M#p.5.P.Q.R.S#G.u.v.w.x.U.z.l#z#H#A#B#I#D#J#K#L#F.lQtQtQt",
"QtQt.#.a.a.e.f.o.D.q.0.s#c.1.2.I.3#e.L.M#p.O.P#f.R.S.T.u.v#g.x.y.l#h#H#A#B#M#D#N#E#L#L.lQtQtQtQt",
"QtQt.#.a.a.e.f.g.p.q.r.F.t.1.2.I.J.K.4.M#p.O.P#f.R.6.T.u.v#g.x.l.9#O#A#B#P#Q#R#E#S#T.lQtQtQtQtQt",
"QtQt.#.a.a.m.f.o.p.q.r.s.t.1.2.I.J.K.L.M.N.O.P.Q.R.S.T.u.v#g.l.9#O#A#B#P#Q#R#E#S#U.lQtQtQtQtQtQt",
"QtQt.#.a.a.m.n.g.p.q.0.s#c.1.2.I.3.K.L.M.N.O.P#f.R.6.T.u.v.l.9#O#A#B#P#Q#R#E#S#V.lQtQtQtQtQtQtQt",
"QtQt.#.a.a.e.n.g.D.q.0.F.t.1.2.I.3.K.l.l#p.O.P#f.R.6.T.u.l#h#O#A#B#P#Q#R#E#T#V.lQtQtQtQtQtQtQtQt",
"QtQt.#.a.a.e.f.o.p.E.r.s.t.1.2.I.3.l#W#X.l.5.P#f.R.S.T.l#z#H#A#B#P#Q#R#E#T#V.lQtQtQtQtQtQtQtQtQt",
"QtQt.#.a.a.m.f.g.p.q.0.s#c.1.2.I.l#Y#Z#0#1.l.P#f.R.6.l#2#H#A#B#P#Q#R#E#T#V.lQtQtQtQtQtQtQtQtQtQt",
"QtQt.#.a.a.m.f.o.p.q.0.s.t.1.2.l#r#3#4#5#6#7.l#f.R.l#8#9#A#B#P#Q#R#E#T#V.l.#QtQtQtQtQtQtQtQtQtQt",
"QtQt.#.a.a.m.f.g.p.q.r.F.t.1.la.a#.Xaaabacadae.l.laf#qagah#P#Q#R#E#T#V.l.d.#QtQtQtQtQtQtQtQtQtQt",
"QtQt.#.a.a.m.f.o.p.q.r.s#c.laiajakalamanaoapaqarasatauavawax#R#E#T#V.l.c.d.#QtQtQtQtQtQtQtQtQtQt",
"QtQt.#.a.a.m.f.g.p.q.0.s.t.layazazaAaBaCaDaEaFaGaHaIaJaKaL#N#K#TaM.l.j.c.d.#QtQtQtQtQtQtQtQtQtQt",
"QtQt.#.a.a.e.n.g.p.q.r.s.t.1.laxaNaOaP#baQaRaSaTaUaVaWaXaY#L#UaM.l.A.V.c.b.#QtQtQtQtQtQtQtQtQtQt",
"QtQt.#.a.a.m.n.o.p.q.r.s.t.1.2.laZa0a1a2a3a4a5a6a7a8a9#K#TaMb..l.h.i.j.c.d.#QtQtQtQtQtQtQtQtQtQt",
"QtQt.#.a.a.m.f.g.D.q.r.s.t.G.2.I.lb#babbbcbda8bebfbg#L#Vbhbh.l.U.z.A.V.c.d.#QtQtQtQtQtQtQtQtQtQt",
"QtQt.#.a.a.m.f.o.p.E.0.s.t.G.H.I.J.lbibjbkaZa1blbm#Tb.bnbo.l.x.U.z.A.j.c.d.#QtQtQtQtQtQtQtQtQtQt",
"QtQt.#.a.a.m.f.o.p.q.r.s#c.1.2.I.J.K.lbpbqbqbm#U#Vbhbobo.l.w.x.U.z.A.j.c.d.#QtQtQtQtQtQtQtQtQtQt",
"QtQt.#.a.a.e.f.o.D.q.r.s#c.1.2.I.J.K.4.lbrbsb.b.bhbnbn.l.v.w.x.y.z.i.j.c.d.#QtQtQtQtQtQtQtQtQtQt",
"QtQt.#.a.a.m.f.g.p.q.r.s#c.1.2.I.J.K.L.M.l#VaMb.b.b..l.u.v.w.x.y.z.A.j.c.b.#QtQtQtQtQtQtQtQtQtQt",
"QtQt.#.a.a.m.f.g.p.q.0.s.t.G.2.I.J#e.4.M#p.l#T#U#U.l.T.u.v#g.7.U.z.A.V.c.d.#QtQtQtQtQtQtQtQtQtQt",
"QtQt.#.a.a.m.f.g.p.q.0.s.t.1.2.I.3.K.L.M#p.5.l.l.l.6.T.u.v#g.x.U.z.i.V.c.b.#QtQtQtQtQtQtQtQtQtQt",
"QtQt.#.a.a.m.n.o.D.q.r.s.t.1.2.I.J.K.4.M.N.O.P#f.R.S.T.ubt#g.x.U.z.A.V.c.d.#QtQtQtQtQtQtQtQtQtQt",
"QtQtQt.#.a.m.f.g.p.q.r.s.t.G.2#d.J.K.4.M#p.5.P#f.R.6#G.u.v#g.x.U.z.A.j.c.#QtQtQtQtQtQtQtQtQtQtQt",
"QtQtQtQt.#.e.f.o.p.q.0.F#c.1.H.I.3.K.L.M.N.O.P#f.R.6.T.ubt.w.x.U.z.A.j.#QtQtQtQtQtQtQtQtQtQtQtQt",
"QtQtQtQtQt.#.#.#.p.E.0.F.t.G.2.I.J.K.4.M#p.O.P.Q.R.S.T.u.v.w.x.U.#.#.#QtQtQtQtQtQtQtQtQtQtQtQtQt",
"QtQtQtQtQtQtQtQt.#.#.#.#.#.1.2.I.J.K.4.M#p.O.P#f.R.6.T.#.#.#.#.#QtQtQtQtQtQtQtQtQtQtQtQtQtQtQtQt",
"QtQtQtQtQtQtQtQtQtQtQtQtQt.#.#.#.#.#.#.#.#.#.#.#.#.#.#QtQtQtQtQtQtQtQtQtQtQtQtQtQtQtQtQtQtQtQtQt",
"QtQtQtQtQtQtQtQtQtQtQtQtQtQtQtQtQtQtQtQtQtQtQtQtQtQtQtQtQtQtQtQtQtQtQtQtQtQtQtQtQtQtQtQtQtQtQtQt",
"QtQtQtQtQtQtQtQtQtQtQtQtQtQtQtQtQtQtQtQtQtQtQtQtQtQtQtQtQtQtQtQtQtQtQtQtQtQtQtQtQtQtQtQtQtQtQtQt"};
