/* XPM */
static const char *xpmModelCheck16x16[]={
"16 16 5 1",
". c None",
"# c #000000",
"c c #00ff00",
"b c #ff0000",
"a c #ffffff",
"...........#####",
"...........#aaa#",
"...........#aaa#",
"...........#aaa#",
"...........##b##",
".............#..",
".............#..",
"..############..",
"..#............c",
"..#...........cc",
"##b##........cc#",
"#aaa#...c...cc#.",
"#aaa#..#cc.cc#..",
"#aaa#...#ccc#...",
"#####....#c#....",
"..........#....."};
