/* XPM */
static const char *xpmModelValidate16x16[]={
"16 16 19 1",
". c None",
"# c #000000",
"e c #001900",
"l c #001a00",
"d c #003d00",
"k c #003e00",
"q c #006800",
"j c #006900",
"o c #009600",
"i c #009700",
"n c #00c100",
"h c #00c200",
"p c #00e500",
"g c #00e600",
"a c #00ff00",
"m c #7c0000",
"f c #ce0202",
"c c #ff0000",
"b c #ffffff",
"...######.......",
".##aaaaaa##.....",
"#aaaaaaaaaa#..b.",
"###aaaaaa###.bcb",
"#aa######de#bcfb",
"#aaaaghijklbcfmb",
"#aaaagnojdbcfmb.",
"#aaaabhojbcfmb..",
"#aaabcbibcfmb...",
"#aabmfcbcfmb....",
"#aaabmfcfmb#....",
"#aaaabmfmbe#....",
"#aaaagbmbkl#....",
"#aaaapnbjdl#....",
".##aagnoq##.....",
"...######......."};

