/* XPM */
static char *NewSession_xpm[]={
"48 48 256 2",
"Qt c None",
"as c #000000",
"b9 c #22411f",
"bC c #252525",
"b8 c #315c2c",
"b7 c #3b6b36",
"#A c #3d3d3d",
"b6 c #426b3d",
"#e c #444504",
"b5 c #44803e",
"ac c #478e00",
"bK c #496b45",
".P c #555553",
"bX c #58a250",
"bS c #5ba254",
"bJ c #5e855a",
"b4 c #61b458",
"bB c #62a25b",
"bx c #66a260",
"bp c #6aa264",
"be c #6ea268",
"b3 c #70ce67",
".Q c #727229",
"a7 c #72a26d",
"b2 c #75ce6c",
"aU c #76a272",
"aO c #7aa276",
".O c #7c7c7c",
"b1 c #7cce74",
"bW c #7ce271",
"aB c #7ea27a",
"ar c #80a27d",
"bT c #80e276",
"b0 c #83ce7b",
"#J c #84a280",
"bI c #85b87f",
"bP c #85e27b",
"bM c #89e27f",
".N c #8b8b8b",
"bZ c #8bce84",
"bA c #8de284",
"bV c #8eff82",
"bE c #92ce8c",
"bU c #92ff86",
"bo c #93e28c",
"bR c #95ff8a",
".L c #979797",
"bQ c #99ff8e",
"bO c #9aff90",
"bd c #9ce294",
"bL c #9cff92",
"af c #9ea2a1",
"bN c #9eff94",
"bH c #a0ff96",
".M c #a1a1a1",
"a6 c #a2e29b",
"bG c #a2ff98",
"bz c #a4ff9a",
"a0 c #a6e2a0",
"bw c #a6ff9c",
"bF c #a7ff9e",
"bD c #a8e8a1",
"bv c #a9ffa0",
"#N c #aaaa66",
"bs c #aaffa1",
"aN c #abe2a6",
"bu c #abffa3",
"br c #acffa4",
"#v c #adc39c",
"bn c #adffa4",
"by c #aeffa5",
"aI c #afe2aa",
"bm c #afffa6",
"bj c #b0ffa7",
"bt c #b1ffa9",
"bq c #b2ffaa",
"bi c #b3ffab",
"bY c #b4ffab",
"bc c #b4ffac",
"aq c #b5e2af",
"bl c #b5ffad",
"bb c #b6ffae",
"aa c #b7b75f",
"b. c #b7ffb0",
"bk c #b8ffb0",
"#I c #b9e2b4",
"bh c #b9ffb2",
"a9 c #baffb3",
"a5 c #bbffb4",
"ba c #bcffb5",
"a4 c #bdffb6",
"aZ c #beffb7",
"b# c #bfffb8",
"a8 c #c0ffb9",
"aY c #c1ffba",
"bg c #c2ffbb",
"aT c #c2ffbc",
"aS c #c4ffbe",
"aM c #c6ffc0",
"ae c #c7c752",
"al c #c7d38b",
"aR c #c8ffc2",
"aH c #c9ffc3",
"aQ c #caffc5",
"aL c #cbffc6",
".G c #cccb44",
"aG c #ccffc7",
".F c #cdcd90",
"am c #cde6c4",
"aA c #cdffc8",
"aK c #ceffc9",
"aF c #cfffca",
"bf c #d0ffca",
"ap c #d0ffcb",
".u c #d1d13c",
".k c #d2d256",
"aE c #d2ffcd",
"a1 c #d2ffce",
"#H c #d3ffcf",
"aj c #d4f0d3",
"#u c #d4fad1",
"az c #d4fdd1",
"ag c #d5e9bd",
"aD c #d5ffd0",
"ay c #d6fcd2",
"aX c #d6ffd0",
"ao c #d6ffd1",
".l c #d7d735",
"aw c #d7f3c5",
"#G c #d7ffd3",
"#d c #d8ffd3",
"#F c #d9ffd5",
"#8 c #dad82c",
"an c #daffd7",
".A c #dbdb48",
"ax c #dbffd7",
"#9 c #dcda20",
".z c #dcdc8d",
"#t c #dcfcda",
"#E c #dcffd8",
"a3 c #ddffda",
"ab c #deea7d",
"ah c #deffda",
"aP c #deffdc",
"#7 c #e0df28",
"#6 c #e0e928",
"#Y c #e0ffd8",
"#s c #e0ffdc",
".t c #e1e198",
"#D c #e1ffde",
"#5 c #e2e225",
"aC c #e2ffdf",
"#r c #e3ffe0",
"#c c #e4fde0",
"#C c #e4ffe1",
"a. c #e5e50b",
"#q c #e5ffe2",
"#T c #e6ffda",
"aW c #e6ffe2",
"#B c #e6ffe4",
"au c #e7ea47",
"#p c #e7ffe5",
".b c #e8ea1d",
"#U c #e8ffa0",
"#b c #e9fde7",
"#o c #e9ffe6",
"aV c #e9ffe8",
"a2 c #eaffe7",
"#n c #eaffe8",
"#a c #ebffe9",
".m c #ecec1b",
"ad c #ecffea",
"ak c #ecffeb",
"av c #edffea",
"## c #edffeb",
".j c #eeee17",
".R c #eef01d",
"#f c #eef72d",
"aJ c #eeffeb",
"#. c #eeffed",
".9 c #efffee",
".J c #f1fd37",
"#R c #f1ffaa",
"#m c #f1ffef",
"#0 c #f2c301",
".c c #f2f111",
".8 c #f2fff1",
".7 c #f3fff2",
".6 c #f4fff3",
".s c #f5f5da",
".5 c #f5fff4",
".K c #f6f40c",
"#3 c #f6f6ed",
"#K c #f6ff39",
"#V c #f6ff49",
"#l c #f6fff5",
"a# c #f7f500",
".4 c #f7fff6",
".r c #f8f80a",
".3 c #f8fff7",
".U c #f9ed09",
"#w c #f9ff08",
".2 c #f9fff8",
"#X c #faeb06",
".d c #fafa06",
"ai c #fafaed",
".1 c #fafff9",
".0 c #fafffa",
"at c #fbfb10",
".E c #fbfbf3",
"#L c #fbff06",
"#Z c #fce105",
"#M c #fcff32",
".Z c #fcfffc",
"#g c #fdf503",
".e c #fdfe02",
".C c #fdff6e",
".x c #fdffbc",
".Y c #fdfffd",
".S c #feee01",
".V c #feff0a",
".v c #feff11",
".B c #feff25",
".f c #feff39",
".X c #fefffe",
"#z c #ff0000",
"#y c #ff1700",
"#Q c #ff2700",
"#P c #ff5400",
"#j c #ff7d00",
"#i c #ff9600",
"#x c #ffab00",
"#O c #ffba00",
"#1 c #ffc811",
"#h c #ffcc00",
"#2 c #ffcf0c",
"#W c #ffd300",
"#S c #ffdc00",
".T c #ffed07",
".H c #fffd0d",
".I c #fffe45",
".# c #ffff00",
".a c #ffff04",
"#k c #ffff14",
".n c #ffff1c",
".w c #ffff54",
".o c #ffff61",
".p c #ffffa1",
".g c #ffffb1",
".D c #ffffc9",
".q c #ffffdd",
".h c #ffffe6",
".y c #fffff5",
".i c #fffffa",
"#4 c #fffffc",
".W c #ffffff",
"QtQtQtQtQtQtQtQtQtQtQtQtQtQtQtQtQtQtQtQtQtQtQtQtQtQtQtQtQtQtQtQtQtQtQtQtQtQtQtQtQtQtQtQtQtQtQtQt",
"QtQtQtQtQtQtQtQtQtQtQtQtQtQtQtQtQtQtQtQtQtQtQtQtQtQtQtQtQtQtQtQtQtQtQtQtQtQtQtQtQtQtQtQtQtQtQtQt",
"QtQtQtQtQtQtQtQtQtQtQtQtQtQtQtQtQtQtQtQtQtQtQtQtQt.#.#.#.aQtQtQtQtQtQtQtQtQtQtQtQtQt.#.#QtQtQtQt",
"QtQtQtQtQtQtQtQtQtQtQtQtQtQtQtQtQtQtQtQtQtQtQtQtQt.b.c.d.e.f.g.h.iQtQtQtQtQtQtQtQt.#.j.#QtQtQtQt",
"QtQtQtQtQtQtQtQtQtQtQtQtQtQtQtQtQtQtQtQtQtQtQtQtQt.k.l.m.d.n.o.p.q.iQtQtQtQtQtQt.#.#.r.#QtQtQtQt",
"QtQtQtQtQtQtQtQtQtQtQtQtQtQtQtQtQtQtQtQtQtQtQtQtQt.s.t.u.c.#.v.w.x.yQtQtQtQtQt.#.c.r.#.#QtQtQtQt",
"QtQtQtQtQtQtQtQtQtQtQtQtQtQtQtQtQtQtQtQtQtQtQtQtQtQt.s.z.A.j.d.B.C.g.D.x.xQt.#.#.a.v.#QtQtQtQtQt",
"QtQtQtQtQtQtQtQtQtQtQtQtQtQtQtQtQtQtQtQtQtQtQtQtQtQtQt.E.F.G.c.H.B.I.w.I.J.#.#.K.v.#QtQtQtQtQtQt",
"QtQtQtQtQt.L.M.L.N.N.N.N.N.N.N.N.N.N.N.N.N.N.N.N.N.N.N.O.P.Q.R.S.T.H.v.H.U.U.r.V.#QtQtQtQtQtQtQt",
"QtQtQtQtQt.O.W.W.W.X.X.Y.Z.0.1.2.3.4.5.6.7.8.9#.###a#b#c#d#e#f#g#h#i#j#i#h#g#k.#QtQtQtQtQtQtQtQt",
"QtQtQtQtQt.P.W.W.X.Y.Z.0.3.3#l.6.8#m#.###n#o#p#q#r#s#t#u#v#e.J#w#x#y#z#y#x.#.BQtQtQtQtQtQtQtQtQt",
"QtQtQtQtQt#A.W.Y.Z.0.2.4#l.7.8.9###a#o#B#C#D#s#E#F#G#H#I#J#e#K#L#x#y#z#y#x.e#MQtQtQtQtQtQtQtQtQt",
"QtQtQtQtQt#A.X.Z.1.L.M.L.N.N.N.N.N.N.N.N.N.N.N.N.N.N.N.N.N#N.b.e#O#P#Q#P#O#L#KQtQtQtQtQtQtQtQtQt",
"QtQtQtQtQt#A.Y.0.3.O.W.W.W.X.X.Y.Z.0.1.2.3.4.5.6.7.8.9#.###R.B.S#S#S#S#S#S.U.JQtQtQtQtQtQtQtQtQt",
"QtQtQtQtQt#A.0.2#l.P.W.W.X.Y.Z.0.3.3#l.6.8#m#.###n#o#p#T#U#V.v.S#S#W#h#W#S#X#fQtQtQtQtQtQtQtQtQt",
"QtQtQtQtQt#A.2#l.6#A.W.Y.Z.0.2.4#l.7.8.9###a#o#B#C#D#Y#U#K.e.r.K#Z#0#1#2#Z#g.RQt#3#4QtQtQtQtQtQt",
"QtQtQtQtQt#A.4.6#m#A.X.Z.1.L.M.L.N.N.N.N.N.N.N.N.N.N#N#5.r.K#5#6#6#7#8#9a.a#.c.GQt.EQtQtQtQtQtQt",
"QtQtQtQtQt#A.5.8#.#A.Y.0.3.O.W.W.W.X.X.Y.Z.0.1.2.3.C.f.V.##5aaab#R#R#Rac.#.#.d.j.AQt.sQtQtQtQtQt",
"QtQtQtQtQt#A.7.9ad#A.0.2#l.P.W.W.X.Y.Z.0.3.3#l.6.8.#.#.r.caeafag#r#sah#Gac.#.#.a.c.uQtaiQtQtQtQt",
"QtQtQtQtQt#A.8###o#A.2#l.6#A.W.Y.Z.0.2.4#l.7.8.9##.#.r#7.G#vaj#E#F#G#H#I#Jac.#.#.d.m.uQtQtQtQtQt",
"QtQtQtQtQt#A.9#a#B#A.4.6#m#A.X.Z.1.3.4.5.7#m#.ak#n.#.maealaman#Fao#Hapaqarasac.#.#at.jauQtQtQtQt",
"QtQtQtQtQt#Aav#p#r#A.5.8#.#A.Y.0.3.4.5.8#m#.ad#n#p#Vaualawaxayaz#HapaAaqaBasQt.#.#.#.#.#QtQtQtQt",
"QtQtQtQtQt#A#n#q#s#A.7.9ad#A.0.2#l.6.8.9#.#a#o#p#CaC#s#Ean#GaDaEaFaGaHaIaBasQtQt.#.#.#QtQtQtQtQt",
"QtQtQtQtQt#A#paC#E#A.8###o#A.2#l.6.8.9aJ#a#o#B#C#D#s#E#F#G#HaEaKaLaHaMaNaOasQtQtQtQtQtQtQtQtQtQt",
"QtQtQtQtQt#A#qaP#F#A.9#a#B#A.4.6#m.9###a#p#B#r#Dah#E#Fao#HapaAaQaRaSaTaNaUasQtQtQtQtQtQtQtQtQtQt",
"QtQtQtQtQt#AaC#Eao#Aav#p#r#A.5.8#.adaV#paWaC#sahan#daX#HaFaAaQaRaSaYaZa0aUasQtQtQtQtQtQtQtQtQtQt",
"QtQtQtQtQt#A#s#Fa1#A#n#q#s#A.7.9ada2#p#qaC#sa3an#daDaEaFaGaHaMaSaYa4a5a6a7asQtQtQtQtQtQtQtQtQtQt",
"QtQtQtQtQt#Aa3aDaF#A#paC#E#A.8###o#B#C#D#s#E#F#G#HaEaKaLaRaMaTa8a4a9b.a6a7asQtQtQtQtQtQtQtQtQtQt",
"QtQtQtQtQt#Aana1aL#A#qaP#F#A.9#a#B#C#s#s#E#Fao#HapaKaLaRaSaTb#baa9bbbcbdbeasQtQtQtQtQtQtQtQtQtQt",
"QtQtQtQtQt#A#daFaR#AaC#Eao#Aav#p#r#sa3ax#daoa1bfaAaQaRaSbgb#babhbbbibjbdbeasQtQtQtQtQtQtQtQtQtQt",
"QtQtQtQtQt#AaDaLaS#A#s#Fa1#A#n#q#sa3an#GaDa1aFaGaQaMaSaYaZa5bkblbibmbnbobpasQtQtQtQtQtQtQtQtQtQt",
"QtQtQtQtQt#AaEaHaY#Aa3aDaF#A#paC#Ean#G#HaEaFaGaRaMaSa8a4a5b.bcbqbmbrbsbobpasQtQtQtQtQtQtQtQtQtQt",
"QtQtQtQtQt#AaFaMa4#Aana1aL#A#qaP#Fao#HaEaAaLaRaSaTb#a4bhb.bcbtbmbubvbwbobxasQtQtQtQtQtQtQtQtQtQt",
"QtQtQtQtQt#AaGaTbh#A#daFaR#AaC#Eao#HapaAaQaRaSbgaZbabhbbbibjbybubvbwbzbAbBasQtQtQtQtQtQtQtQtQtQt",
"QtQtQtQtQtbCb#bDbE#AaDaLaS#A#s#Fa1aFaAaQaRaSaYaZa5bkbbbqbjbnbsbFbwbGbHbAbBasQtQtQtQtQtQtQtQtQtQt",
"QtQtQtQtQtasbIbJbK#AaEaHaY#Aa3aDaFaGaHaMaSaYa4a9b.blbqbmbrbvbFbzbGbHbLbMbBasQtQtQtQtQtQtQtQtQtQt",
"QtQtQtQtQtasasasas#AaFaMa4#Aana1aLaRaMaTa8baa9b.bcbtbybubvbwbzbGbNbLbObPbBasQtQtQtQtQtQtQtQtQtQt",
"QtQtQtQtQtQtQtQtQt#AaGaTbh#A#daFaRaSaYb#babhbbbcbtbybubvbwbzbHbNbLbQbRbPbSasQtQtQtQtQtQtQtQtQtQt",
"QtQtQtQtQtQtQtQtQtbCb#bDbE#AaDaLaSaYb#a5bkbbbibjbnbsbFbwbGbHbLbObQbRbRbTbSasQtQtQtQtQtQtQtQtQtQt",
"QtQtQtQtQtQtQtQtQtasbIbJbK#AaEaHaYa4a9bkblbqbmbnbvbFbzbGbHbLbObQbRbRbUbTbSasQtQtQtQtQtQtQtQtQtQt",
"QtQtQtQtQtQtQtQtQtasasasas#AaFaMa4a9b.blbtbmbubvbFbzbGbNbLbObQbRbUbUbVbWbXasQtQtQtQtQtQtQtQtQtQt",
"QtQtQtQtQtQtQtQtQtQtQtQtQt#AaGaTbhbbbYbtbnbubvbwbGbHbNbLbQbRbRbUbUbVbVbWbXasQtQtQtQtQtQtQtQtQtQt",
"QtQtQtQtQtQtQtQtQtQtQtQtQtbCb#bDbEbEbZbZbZbZb0b0b0b1b1b1b1b2b2b2b2b3b3b4b5asQtQtQtQtQtQtQtQtQtQt",
"QtQtQtQtQtQtQtQtQtQtQtQtQtasbIbJbKbKbKbKbKb6b6b6b6b6b6b6b7b7b7b7b7b7b7b8b9asQtQtQtQtQtQtQtQtQtQt",
"QtQtQtQtQtQtQtQtQtQtQtQtQtasasasasasasasasasasasasasasasasasasasasasasasasasQtQtQtQtQtQtQtQtQtQt",
"QtQtQtQtQtQtQtQtQtQtQtQtQtQtQtQtQtQtQtQtQtQtQtQtQtQtQtQtQtQtQtQtQtQtQtQtQtQtQtQtQtQtQtQtQtQtQtQt",
"QtQtQtQtQtQtQtQtQtQtQtQtQtQtQtQtQtQtQtQtQtQtQtQtQtQtQtQtQtQtQtQtQtQtQtQtQtQtQtQtQtQtQtQtQtQtQtQt",
"QtQtQtQtQtQtQtQtQtQtQtQtQtQtQtQtQtQtQtQtQtQtQtQtQtQtQtQtQtQtQtQtQtQtQtQtQtQtQtQtQtQtQtQtQtQtQtQt"};
