/* XPM */
static const char *xpmNewSession16x16[]={
"16 16 90 2",
"Qt c None",
".# c #000000",
"#x c #0dff0d",
"#w c #15ff14",
"#q c #16ff16",
"#v c #1dff1d",
"#p c #1eff1f",
"#i c #20ff20",
"#u c #26ff26",
"#o c #27ff28",
"#h c #29ff29",
"## c #2bff2b",
"#t c #30ff2f",
"#n c #32ff32",
"#g c #34ff34",
"#. c #35ff36",
".2 c #37ff37",
"#s c #3aff3a",
"#m c #3cff3c",
"#f c #3dff3e",
".9 c #40ff3f",
".1 c #42ff42",
".T c #44ff44",
"#r c #45ff45",
"#l c #46ff47",
"#e c #49ff49",
".8 c #4aff4b",
".0 c #4dff4d",
".S c #4fff4f",
".K c #51ff51",
"#k c #52ff52",
"#d c #54ff54",
".7 c #56ff56",
".Z c #59ff59",
".R c #5bff5a",
".J c #5dff5c",
".D c #5eff5e",
"#c c #60ff60",
".6 c #62ff62",
".Y c #64ff64",
".Q c #67ff67",
".I c #69ff68",
"#j c #6aff69",
".C c #6bff6b",
".5 c #6eff6e",
".X c #70ff70",
".P c #73ff72",
"#b c #78ff78",
".W c #7cff7c",
".O c #7eff7e",
".4 c #87ff86",
".N c #8aff8a",
".H c #8dff8d",
"#a c #90ff90",
".b c #919191",
".V c #94ff94",
".G c #99ff99",
".B c #9aff9b",
".x c #9dff9d",
".3 c #9eff9e",
".M c #a3ffa2",
".A c #a6ffa6",
".w c #a9ffa9",
".U c #abffab",
".p c #acffad",
".F c #b0ffb0",
".v c #b4ffb4",
".o c #b8ffb9",
".L c #b9ffba",
".z c #bdffbd",
".n c #c3ffc3",
".E c #c6ffc6",
".u c #caffca",
".m c #cdffcd",
".y c #d2ffd2",
".s c #d6ffd5",
".l c #d7ffd8",
".h c #dbffdb",
".t c #ddffdd",
".k c #e1ffe1",
".g c #e4ffe4",
".r c #e8ffe7",
".f c #ecffec",
".j c #f1fff0",
".e c #f3fff3",
".i c #f8fff8",
".d c #fafffa",
".q c #ff0000",
".a c #ffff00",
".c c #ffffff",
"QtQtQtQtQtQtQtQtQtQtQtQtQtQtQtQt",
"Qt.#.#.#.#.#.#.#.a.aQtQtQtQt.b.a",
"Qt.#.c.d.e.f.g.h.b.a.aQtQt.b.a.a",
"Qt.#.i.#.#.#.#.#.#.b.a.a.a.a.aQt",
"Qt.#.j.#.k.l.m.n.o.p.a.q.q.aQtQt",
"Qt.#.r.#.s.#.#.#.#.#.a.q.q.aQtQt",
"Qt.#.t.#.u.#.v.w.x.a.a.a.a.a.bQt",
"Qt.#.y.#.z.#.A.B.a.a.b.C.D.a.a.b",
"Qt.#.E.#.F.#.G.H.a.b.I.J.K.#.a.a",
"Qt.#.L.#.M.#.N.O.P.Q.R.S.T.#QtQt",
"Qt.#.U.#.V.#.W.X.Y.Z.0.1.2.#QtQt",
"Qt.#.3.#.4.#.5.6.7.8.9#.##.#QtQt",
"Qt.##a.##b.##c#d#e#f#g#h#i.#QtQt",
"Qt.#.#.##j.##k#l#m#n#o#p#q.#QtQt",
"QtQtQt.#.#.##r#s#t#u#v#w#x.#QtQt",
"QtQtQtQtQt.#.#.#.#.#.#.#.#.#QtQt"};

