/* XPM */
static const char * xpmObjAlignVCenter16x16[] = {
"16 16 7 1",
" 	c None",
".	c #000000",
"+	c #FFFFFF",
"@	c #008900",
"#	c #00FF00",
"$	c #123E00",
"%	c #FFFFFF",
"  ............  ",
"  .++++++++++.  ",
"  $++++++++++$  ",
"  ............  ",
"                ",
"    ........    ",
"    .++++++.    ",
"    $++++++$    ",
"    ........    ",
"                ",
"   @        @   ",
"  @#        #@  ",
" @#@@@@@@@@@@#@ ",
"  @#        #@  ",
"   @        @   ",
"                "};
