/* XPM */
static const char * xpmObjAlignRight16x16[] = {
"16 16 7 1",
" 	c None",
".	c #000000",
"+	c #FFFFFF",
"@	c #008900",
"#	c #123E00",
"$	c #00FF00",
"%	c #FFFFFF",
"    ............",
"    .++++++++++.",
"    #++++++++++#",
"    ............",
"                ",
"        ........",
"        .++++++.",
"        #++++++#",
"        ........",
"                ",
"            @   ",
"            $@  ",
" @@@@@@@@@@@@$@ ",
"            $@  ",
"            @   ",
"                "};
