/* XPM */
static const char *xpmODBC48x48[]={
"48 48 256 2",
"Qt c None",
".# c #000000",
"#I c #001300",
"b5 c #001a00",
"#5 c #002900",
"a0 c #003400",
"#H c #003900",
"ac c #003e00",
"#S c #004200",
"a9 c #004600",
"a8 c #004900",
"ak c #004d00",
"aT c #005100",
"aU c #005500",
"as c #005900",
"#F c #005e00",
"aC c #006100",
"ax c #006600",
".7 c #006a00",
"am c #006d00",
"at c #007200",
"al c #007500",
"ad c #007900",
".z c #007e00",
"#i c #008200",
"#4 c #008500",
".a c #008800",
"#R c #008b00",
"#G c #008e00",
".I c #009100",
"#A c #009600",
".S c #009900",
"#B c #009d00",
"#w c #00a000",
".h c #00a500",
"#s c #00aa00",
".u c #00ad00",
".b c #00b000",
"#j c #00b300",
"#b c #00b600",
"#c c #00b900",
"#k c #00bb00",
".n c #00be00",
"#d c #00c100",
".8 c #00c400",
".Z c #00c600",
".0 c #00c800",
"#e c #00ca00",
".1 c #00cc00",
".T c #00ce00",
".U c #00d000",
".c c #00d200",
".2 c #00d400",
".J c #00d700",
".K c #00d900",
".A c #00db00",
".L c #00dd00",
".M c #00df00",
".B c #00e000",
".C c #00e200",
".i c #00e400",
".D c #00e600",
".v c #00e800",
".d c #00ea00",
".N c #00ec00",
".w c #00ee00",
".o c #00f000",
".p c #00f300",
".q c #00f500",
".j c #00f800",
".e c #00fa00",
".k c #00fe00",
"#J c #010302",
"#K c #010b03",
".g c #060e12",
".f c #0a131d",
".l c #0c1723",
".m c #0d1a24",
".H c #0e2226",
".r c #0f1e29",
".s c #10212c",
"bz c #110000",
"af c #112b2d",
".t c #122531",
".x c #132a35",
".y c #152d38",
".E c #16303b",
"#a c #163539",
"a1 c #163838",
".V c #17333d",
".F c #17343f",
".G c #18353f",
".O c #183740",
".6 c #18393f",
".P c #193943",
".3 c #1a3a44",
".Q c #1a3d46",
".R c #1b3f49",
"#L c #1b4147",
"#l c #1c404a",
".W c #1c424c",
".X c #1e454e",
".Y c #1e4851",
".4 c #204c55",
"#m c #224f58",
".5 c #225159",
".9 c #22525b",
"#n c #23555e",
"aj c #235a5c",
"#. c #245760",
"## c #255962",
"an c #255e63",
"#o c #265b64",
"#f c #275d66",
"#M c #276066",
"#h c #276169",
"#T c #283128",
"#g c #286169",
"#p c #29646c",
"#Y c #2a2b2b",
"#q c #2a666e",
"bd c #2b0000",
"#x c #2b6870",
"#r c #2c6b72",
"#Z c #2c6b74",
"#t c #2d6e75",
"#u c #2e7279",
"#v c #2f747b",
"bb c #2f7879",
"#N c #30767d",
"#y c #30787e",
"#0 c #317980",
"bq c #322828",
"#z c #327c83",
"#C c #337e85",
"#O c #347f86",
"b. c #348587",
"#D c #358389",
"#E c #36868c",
"#P c #378990",
"b7 c #378f8f",
"#3 c #388b91",
"#Q c #388c92",
"#9 c #388d94",
"bj c #390000",
"#1 c #3a9196",
"#2 c #3a9399",
"a. c #3b9499",
"ao c #3b959a",
"a# c #3c979c",
"a7 c #3c9899",
"ag c #3d989e",
"aa c #3e9ba0",
"ay c #3e9ca1",
"ab c #3e9da3",
"bw c #3e9fa0",
"au c #3f9ea3",
"ap c #3f9fa4",
"ah c #40a2a6",
"aD c #41a3a8",
"ai c #41a5aa",
"aq c #43a9ad",
"ar c #44acb0",
"aB c #44adaf",
"aE c #44adb1",
"aZ c #44afb1",
"av c #45afb3",
"aF c #46afb4",
"aJ c #46b0b4",
"aw c #46b2b6",
"aK c #46b4b7",
"bc c #470000",
"az c #47b6b9",
"aL c #48b7ba",
"aA c #49b9bc",
"aO c #49babd",
"aV c #49babe",
"a2 c #4abbbe",
"b3 c #4abdbe",
"aG c #4abdc0",
"aI c #4bbdc1",
"aH c #4bbfc2",
"a3 c #4cc0c4",
"aW c #4cc1c4",
"aP c #4cc3c5",
"aM c #4dc3c6",
"aN c #4dc4c7",
"aQ c #4ec6c9",
"aR c #4fcacd",
"aS c #50cccf",
"aX c #51ced1",
"a4 c #51d0d2",
"aY c #52d2d5",
"a5 c #53d5d7",
"be c #54d6d7",
"bt c #54d6d8",
"a6 c #54d8da",
"b9 c #550000",
"b# c #55dadc",
"ba c #56dddf",
"bm c #57dedf",
"bf c #58e0e2",
"bg c #59e3e4",
"bn c #59e5e7",
"bu c #5ae8e9",
"bR c #5ae9ea",
"bv c #5beaec",
"bS c #5ceaeb",
"bD c #5cecee",
"bX c #5deded",
"bT c #5defef",
"bE c #5deff0",
"bU c #5ef1f1",
"bY c #5ff3f4",
"bZ c #5ff5f6",
"b2 c #60f7f8",
"b1 c #640000",
"#6 c #686868",
"bA c #6b0000",
"bQ c #6f0000",
"#U c #727272",
"bC c #750000",
"bs c #790000",
"bl c #7f0000",
"bk c #840000",
"br c #8a0000",
"bP c #8f0000",
"bB c #900000",
"bO c #960000",
"bN c #9c0000",
"bM c #a20000",
"bL c #a70000",
"b4 c #a80000",
"bK c #ae0000",
"#V c #b0b0b0",
"bJ c #b40000",
"bI c #ba0000",
"bH c #bf0000",
"bW c #c00000",
"bG c #c60000",
"by c #cb0000",
"#7 c #cecece",
"bp c #d10000",
"bi c #d60000",
"bh c #db0000",
"b8 c #dc0000",
"bo c #e00000",
"#W c #e0e0e0",
"bx c #e40000",
"bF c #e90000",
"bV c #ed0000",
"b0 c #f10000",
"b6 c #f60000",
"#X c #fcfcfc",
"ae c #fdfdfd",
"#8 c #ffffff",
"QtQtQtQtQtQtQtQtQtQtQtQtQtQtQtQtQtQtQtQtQtQtQtQtQtQtQtQtQtQtQtQtQtQtQtQtQtQtQtQtQtQtQtQtQtQtQtQt",
"QtQtQtQtQtQtQtQtQtQtQtQtQtQtQtQtQtQtQt.#.#.#.#.#.#.#.#.#.#QtQtQtQtQtQtQtQtQtQtQtQtQtQtQtQtQtQtQt",
"QtQtQtQtQtQtQtQtQtQtQtQtQtQtQtQt.#.#.#.a.b.c.d.e.#.f.f.g.g.#.#.#QtQtQtQtQtQtQtQtQtQtQtQtQtQtQtQt",
"QtQtQtQtQtQtQtQtQtQtQtQtQtQt.#.#.h.i.j.e.e.k.k.k.#.l.l.l.m.m.m.f.#.#QtQtQtQtQtQtQtQtQtQtQtQtQtQt",
"QtQtQtQtQtQtQtQtQtQtQtQt.#.#.n.o.o.p.q.j.j.e.e.k.#.l.m.m.r.r.s.s.t.r.#.#QtQtQtQtQtQtQtQtQtQtQtQt",
"QtQtQtQtQtQtQtQtQtQt.#.#.u.v.d.d.w.o.o.p.q.q.j.e.#.m.r.r.s.s.t.t.x.x.y.s.#.#QtQtQtQtQtQtQtQtQtQt",
"QtQtQtQtQtQtQtQtQt.#.z.A.B.C.i.D.d.d.w.o.o.p.q.q.#.r.s.s.t.t.x.x.y.E.E.F.G.H.#QtQtQtQtQtQtQtQtQt",
"QtQtQtQtQtQtQtQt.#.I.J.K.A.L.M.C.i.D.v.d.N.w.o.p.#.s.t.t.x.x.y.E.E.F.O.P.Q.R.y.#QtQtQtQtQtQtQtQt",
"QtQtQtQtQtQtQt.#.S.T.U.c.J.J.A.L.B.C.i.D.v.d.N.w.#.t.x.x.y.E.V.G.O.P.Q.R.W.X.Y.O.#QtQtQtQtQtQtQt",
"QtQtQtQtQtQt.#.a.Z.0.1.T.c.c.2.J.A.L.M.C.i.D.v.d.#.x.y.E.V.F.O.3.Q.R.W.X.Y.4.4.5.6.#QtQtQtQtQtQt",
"QtQtQtQtQt.#.7.n.n.8.Z.0.1.1.U.c.2.J.A.A.M.C.i.i.#.E.V.G.P.3.Q.R.W.X.Y.4.4.5.9#.###a.#QtQtQtQtQt",
"QtQtQtQtQt.#.b#b#c.n#d#d.Z.0#e.1.U.c.2.J.K.A.M.C.#.G.O.3.Q.R.W.X.Y.4.4.5.9#.###f#g#h.#QtQtQtQtQt",
"QtQtQtQt.##i.u.b#j#b#c#k.n#d.8.0#e.1.U.c.2.J.K.A.#.3.Q#l.W.X.Y.4#m.5#n#.#o#f#g#p#q#r.9.#QtQtQtQt",
"QtQtQtQt.#.h#s#s.u.b#j#b#c#k.n#d.8.0#e.1.U.c.2.J.##l.W.X.Y.4#m.9#n#.#o#f#g#p#q#r#t#u#v.#QtQtQtQt",
"QtQtQt.#.z#w#w.h.h#s.u.b#j#b#c#k.n#d.8.0#e.1.U.c.#.X.Y.4#m.9#n#.#o#f#g#p#x#r#t#u#v#y#z#p.#QtQtQt",
"QtQtQt.##A.S#B#B#w.h.h#s.u.b#j#b#c#k.n#d.8.Z#e.1.#.4#m.9#n###o#f#g#p#x#r#t#u#v#y#z#C#D#E.#QtQtQt",
"QtQt.##F#G.I#A.S.S#B#w.h.h#s.u.b#j#b#c#k.a#H#I#J.#.##K.m#L#M#g#q#x#r#t#u#N#y#z#O#D#E#P#Q#M.#QtQt",
"QtQt.#.z.a#R#G.I#A.S.S#B#w.h.h#s.u.b#j#S#T#U#V#W#X#W#V#U#Y.H#x#Z#t#u#N#0#z#O#D#E#P#Q#1#2#3.#QtQt",
"QtQt.#.z#i#4.a#R#G.I#A#A.S#B#w.h.h#s#5#6#7QtQtQtQtQtQtQt#7#6.m#u#N#0#z#O#D#E#P#9#1a.a#aaab.#QtQt",
"Qt.#acad.z.z#i#4.a#R#G.I.I#A.S#B#w#H#6aeQtQtQtQtQtQtQtQtQtae#6af#C#O#D#E#P#9#1a.agaaabahaiaj.#Qt",
"Qt.#akalalad.z.z#i#4.a#R#G.I#A#Aam#T#7QtQtQtQtQtQtQtQtQtQtQt#7#Yan#E#3#9#1aoagaaapahaiaqar#y.#Qt",
"Qt.#asamatatalad.z.z#i#4.a#R#G.I#5#UQtQtQtQtQtQtQtQtQtQtQtQtQt#Uaf#9#1aoagaaauahaiaqaravawa..#Qt",
"Qt.##Fax.7amatataladad.z#i#4.a#R#K#VQtQtQtQtQtQtQtQtQtQtQtQtQt#V.gaoagayapahaiaqaravawazaAaB.#Qt",
"Qt.##FaCaxax.7amamataladad.z#i#4#J#WQtQtQtQtQtQtQtQtQtQtQtQtQt#W#JayapaDaiaqaEaFawazaAaGaHaI.#Qt",
"Qt.#as#F#FaCaxax.7amamataladad.z.##XQtQtQtQtQtQtQtQtQtQtQtQtQt#X.#aDaiaqaEaJaKaLaAaGaHaMaNaN.#Qt",
"Qt.#akasas#F#FaCaxax.7amamatalad#J#WQtQtQtQtQtQtQtQtQtQtQtQtQt#W#JaqaEaJaKaLaOaIaHaPaQaRaSaG.#Qt",
"Qt.##SaTaUasasas#FaCaxax.7amamat#K#VQtQtQtQtQtQtQtQtQtQtQtQtQt#V.gaJaKaLaVaIaWaMaQaRaSaXaYaZ.#Qt",
"Qt.#a0akakaTaUaUasas#FaCaxax.7.7#5#UQtQtQtQtQtQtQtQtQtQtQtQtQt#Ua1aAa2aIa3aNaQaRaSa4aYa5a6a7.#Qt",
"Qt.##5a8a8akakaTaUasasas#FaCaCaxa9#Y#7QtQtQtQtQtQtQtQtQtQtQt#7#Yb.aIaWaNaQaRaSa4aYa5a6b#babb.#Qt",
"QtQt.##Sa9a8a8akakaTaUaUasas#FaC.#bc#6aeQtQtQtQtQtQtQtQtQtae#6bd.#aNaQaRaSa4aYbea6b#babfbg.#QtQt",
"QtQt.##H#S#Sa9a8a8akakaTaUaUas.#bhbibj#6#7QtQtQtQtQtQtQt#7#6bdbkbl.#aXa4aYa5a6b#bmbfbgbna6.#QtQt",
"QtQt.##5acac#S#Sa9a9a8akakaT.#bobhbibpbcbq#U#V#W#X#W#V#Ubqbdbrbkblbs.#btb#b#bmbfbgbnbubvbw.#QtQt",
"QtQtQt.##H#Hacac#S#Sa9a9a8.#bxbobhbibpbybrbjbz.#.#.#bzbdbAbBbrbkblbsbC.#bmbfbgbnbubvbDbE.#QtQtQt",
"QtQtQt.##5#H#H#Hacac#S#S.#bFbxbobhbibpbybGbHbIbJbKbLbMbNbObPbrbkblbsbCbQ.#bnbRbSbDbTbUaP.#QtQtQt",
"QtQtQtQt.#a0a0#H#H#Hac.#bVbFbxbobhbibpbybGbWbIbJbKbLbMbNbObPbrbkblbsbCbQbA.#bXbEbUbYbZ.#QtQtQtQt",
"QtQtQtQt.##5a0a0a0#H.#b0bVbFbxbobhbibpbybGbWbIbJbKbLbMbNbObPbrbkblbsbCbQbAb1.#bYbZb2b3.#QtQtQtQt",
"QtQtQtQtQt.##5a0a0.#b0b0bVbFbxbobhbibpbybGbWbIbJbKb4bMbNbObBbrbkblbsbCbQbAb1b1.#b2b2.#QtQtQtQtQt",
"QtQtQtQtQt.#b5#5.#b6b0b0bVbFbxbobhbibpbybGbWbIbJbKb4bMbNbObBbrbkblbsbCbQbAb1b1b1.#b7.#QtQtQtQtQt",
"QtQtQtQtQtQt.#.#b6b6b0b0bVbFbxbobhbibpbybGbWbIbJbKb4bMbNbObBbrbkblbsbCbQbAb1b1b1bj.#QtQtQtQtQtQt",
"QtQtQtQtQtQtQt.#bIb6b0b0bVbFbxbobhbibpbybGbWbIbJbKb4bMbNbObBbrbkblbsbCbQbAb1b1bc.#QtQtQtQtQtQtQt",
"QtQtQtQtQtQtQtQt.#b4b0b0bVbFbxbobhbibpbybGbWbIbJbKb4bMbNbObBbrbkblbsbCbQbAb1bc.#QtQtQtQtQtQtQtQt",
"QtQtQtQtQtQtQtQtQt.#brbVbVbFbxbob8bibpbybGbWbIbJbKb4bMbNbObBbrbkblbsbCbQbAbj.#QtQtQtQtQtQtQtQtQt",
"QtQtQtQtQtQtQtQtQtQt.#.#bJbFbxbob8bibpbybGbWbIbJbKb4bMbNbObBbrbkblbsbCb9.#.#QtQtQtQtQtQtQtQtQtQt",
"QtQtQtQtQtQtQtQtQtQtQtQt.#.#bIbob8bibpbybGbWbIbJbKb4bMbNbObBbrbkblb1.#.#QtQtQtQtQtQtQtQtQtQtQtQt",
"QtQtQtQtQtQtQtQtQtQtQtQtQtQt.#.#bObGbpbybGbWbIbJbKb4bMbNbObBbkb9.#.#QtQtQtQtQtQtQtQtQtQtQtQtQtQt",
"QtQtQtQtQtQtQtQtQtQtQtQtQtQtQtQt.#.#.#bQbrbNbKbJbKbNbkbQb9.#.#.#QtQtQtQtQtQtQtQtQtQtQtQtQtQtQtQt",
"QtQtQtQtQtQtQtQtQtQtQtQtQtQtQtQtQtQtQt.#.#.#.#.#.#.#.#.#.#QtQtQtQtQtQtQtQtQtQtQtQtQtQtQtQtQtQtQt",
"QtQtQtQtQtQtQtQtQtQtQtQtQtQtQtQtQtQtQtQtQtQtQtQtQtQtQtQtQtQtQtQtQtQtQtQtQtQtQtQtQtQtQtQtQtQtQtQt"};


