/* XPM */
static const char *xpmOpenSession16x16[]={
"16 16 23 1",
". c None",
"# c #000000",
"r c #93ff92",
"u c #9f9f9f",
"q c #a8ffa8",
"k c #b1ffb2",
"p c #bbffbb",
"t c #c2c2c2",
"j c #c5ffc5",
"e c #ceffcf",
"o c #cfffcf",
"i c #d7ffd8",
"s c #dbdbdb",
"d c #dfffdf",
"n c #e0ffe0",
"h c #e8ffe8",
"c c #eeffef",
"m c #efffef",
"g c #f5fff5",
"b c #fafffa",
"f c #ffa757",
"l c #ffdba7",
"a c #ffffff",
"..#########.....",
"..#aaaaaaa#.....",
"..#a#########...",
"..#a#aaaaaaa#...",
"..#a#a#########.",
".##a#a#aaabcde#.",
"#f#a#a#aaghijk#.",
"#l#a#a#bmnopqr#.",
"#l##############",
"#l##sssssssssss#",
"#l#sttttututuu#.",
"#f#stttututuuu#.",
"##stttututuuu#..",
"##sttututuuuu#..",
"#sttututuuuu#...",
"#############..."};

