/* XPM */
static char *Open_xpm[]={
"48 48 128 2",
"Qt c None",
".f c #000000",
".e c #0b0b0b",
".d c #131313",
".c c #36312c",
".b c #4d4d4d",
".l c #6c6c6a",
"#7 c #6f6f6c",
".m c #71716f",
".h c #747572",
".a c #777775",
"#3 c #797976",
"#U c #7c7c7a",
".k c #80807d",
"#W c #828280",
"#w c #838381",
".j c #838482",
"#T c #848582",
"#Z c #868684",
"#v c #878785",
".g c #888987",
"#0 c #8a8a88",
"#u c #8b8b89",
"#6 c #8b8c89",
"#O c #8c8c8a",
"#2 c #8e8e8c",
"#t c #908f8d",
"#N c #91908e",
"#s c #949492",
"#r c #979795",
"#8 c #979896",
"#H c #989896",
".i c #9a9a99",
"#S c #9b9b9a",
"#q c #9c9c9a",
"#X c #9e9e9c",
"#1 c #9fa09e",
"#G c #a09f9d",
"#p c #a0a09f",
".# c #a2a2a1",
"#o c #a4a4a2",
"#M c #a6a6a4",
"#F c #a7a8a6",
"#n c #a8a8a7",
"#Q c #a9aaa8",
"#m c #acacaa",
"#L c #aeaead",
"#E c #afafae",
"#9 c #afb0af",
"#l c #b0b0af",
"#K c #b2b2b1",
"#D c #b3b3b2",
"#k c #b4b4b3",
"#J c #b6b6b5",
"#j c #b7b7b7",
"#C c #babab9",
"#R c #bbbbba",
"#i c #bcbcbb",
"#B c #bebebd",
"#h c #bfbfbe",
"#A c #c2c2c1",
"#P c #c3c3c2",
"#I c #c3c4c3",
"#g c #c4c4c3",
"#a c #c6c6c5",
"## c #c7c7c7",
"#. c #c9c9c9",
"#f c #cbcbca",
".9 c #cccccc",
"#e c #cececd",
".8 c #cfcfce",
".7 c #d0d1d0",
"#d c #d1d1d1",
"#5 c #d3d4d3",
"#V c #d4d3d3",
"#z c #d4d4d3",
".6 c #d5d5d5",
"#y c #d7d7d7",
".5 c #d7d8d7",
"#Y c #d8d8d8",
"#c c #d9d9d9",
".4 c #dbdbdb",
"#4 c #dbdcdb",
"#b c #dcdcdc",
".3 c #dddddd",
".2 c #dfe0df",
".1 c #e2e2e2",
".0 c #e3e4e3",
".Z c #e6e5e5",
".Y c #e7e8e7",
".X c #e9e9e9",
"#x c #ebeceb",
".W c #ecebeb",
".V c #ececec",
".U c #eeeeee",
".T c #efefef",
".N c #f1a157",
".n c #f1f2f2",
".L c #f2a45a",
".J c #f3a860",
".S c #f3f3f3",
".K c #f4a75f",
".I c #f4aa61",
".R c #f4f4f4",
".M c #f5ab63",
".H c #f5ad65",
".G c #f6af68",
".Q c #f6f6f6",
".F c #f7b26c",
".E c #f7b56f",
".D c #f8b671",
".C c #f9b974",
".P c #f9f9f9",
".B c #fabd79",
".A c #fbc17e",
".z c #fbc582",
".y c #fcc885",
".x c #fcca88",
".v c #fdcc8a",
".w c #fdce8d",
".t c #fdcf90",
".O c #fdd08f",
".r c #fed191",
".q c #fed295",
".u c #fed493",
".p c #fed595",
".o c #fed698",
".s c #fed89a",
"QtQtQtQtQtQtQtQtQtQtQtQtQtQtQtQtQtQtQtQtQtQtQtQtQtQtQtQtQtQtQtQtQtQtQtQtQtQtQtQtQtQtQtQtQtQtQtQt",
"QtQtQtQtQtQtQtQtQtQtQtQtQtQtQtQtQtQtQt.#.a.b.c.d.e.f.e.d.c.b.a.#QtQtQtQtQtQtQt.fQtQtQtQtQtQtQtQt",
"QtQtQtQtQtQtQtQtQtQtQtQtQtQtQtQt.g.b.e.f.f.f.f.f.f.f.f.f.f.f.f.f.e.bQtQtQtQt.f.fQtQtQtQtQtQtQtQt",
"QtQtQtQtQtQtQtQtQtQtQtQtQtQt.h.d.f.f.f.f.f.f.f.f.f.f.f.f.f.f.f.f.f.f.fQtQt.f.f.fQtQtQtQtQtQtQtQt",
"QtQtQtQtQtQtQtQtQtQtQtQt.i.c.f.c.jQtQtQtQtQtQtQtQtQtQtQt.c.f.f.f.f.f.f.f.f.f.f.fQtQtQtQtQtQtQtQt",
"QtQtQtQtQtQtQtQtQtQtQt.k.d.lQtQtQtQtQtQtQtQtQtQtQtQtQtQtQtQt.l.d.f.f.f.f.f.f.f.fQtQtQtQtQtQtQtQt",
"QtQtQtQtQtQtQtQtQtQt.g.mQtQtQtQtQtQtQtQtQtQtQtQtQtQtQtQtQtQtQtQt.b.f.f.f.f.f.f.fQtQtQtQtQtQtQtQt",
"QtQtQtQtQtQtQtQtQtQtQtQtQtQtQtQtQtQtQtQtQtQtQtQtQtQtQtQtQtQtQtQt.n.f.f.f.f.f.f.fQtQtQtQtQtQtQtQt",
"QtQtQtQtQtQtQtQtQtQtQtQtQtQtQtQtQtQtQtQtQtQtQtQtQtQtQtQtQtQtQtQt.f.f.f.f.f.f.f.fQtQtQtQtQtQtQtQt",
"QtQtQtQtQtQtQtQtQtQtQtQtQtQtQtQtQtQtQtQtQtQtQtQtQtQtQtQtQtQtQt.f.f.f.f.f.f.f.f.fQtQtQtQtQtQtQtQt",
"QtQtQtQtQtQtQtQtQtQtQtQtQtQtQtQtQtQtQtQtQtQtQtQtQtQtQtQtQtQt.f.f.f.f.f.f.f.f.f.fQtQtQtQtQtQtQtQt",
"QtQtQtQtQtQtQtQtQtQtQtQtQtQtQtQtQtQtQtQtQtQtQtQtQtQtQtQtQt.f.f.f.f.f.f.f.f.f.f.fQtQtQtQtQtQtQtQt",
"QtQtQtQtQt.e.e.e.e.e.e.e.e.eQtQtQtQtQtQtQtQtQtQtQtQtQtQtQtQtQtQtQtQtQtQtQtQtQtQtQtQtQtQtQtQtQtQt",
"QtQtQtQt.e.f.o.o.o.p.p.q.r.f.eQtQtQtQtQtQtQtQtQtQtQtQtQtQtQtQtQtQtQtQtQtQtQtQtQtQtQtQtQtQtQtQtQt",
"QtQtQt.e.f.o.s.s.o.s.p.q.r.t.f.eQtQtQtQtQtQtQtQtQtQtQtQtQtQtQtQtQtQtQtQtQtQtQtQtQtQtQtQtQtQtQtQt",
"QtQt.e.f.o.s.s.s.s.s.o.u.r.t.v.f.dQtQtQtQtQtQtQtQtQtQtQtQtQtQtQtQtQtQtQtQtQtQtQtQtQtQtQtQtQtQtQt",
"Qt.e.f.s.s.s.s.s.s.s.o.p.r.w.v.x.f.d.e.e.e.e.e.e.e.e.e.e.e.e.e.e.e.e.e.e.eQtQtQtQtQtQtQtQtQtQtQt",
"Qt.c.o.o.s.s.s.s.s.s.p.u.r.w.v.y.z.A.A.B.B.C.C.D.E.E.F.G.G.H.H.I.J.K.L.L.f.eQtQtQtQtQtQtQtQtQtQt",
"Qt.c.o.s.s.s.s.s.s.o.p.r.w.v.x.z.z.A.B.B.C.C.D.E.F.F.G.G.H.H.M.I.K.K.L.N.N.f.eQtQtQtQtQtQtQtQtQt",
"Qt.c.p.o.s.s.s.s.o.u.u.w.w.x.y.z.A.B.B.C.C.D.E.E.F.G.G.H.H.I.I.J.K.L.L.N.N.N.eQtQtQtQtQtQtQtQtQt",
"Qt.c.q.p.o.o.o.p.p.r.O.v.x.y.z.A.B.B.C.D.E.F.F.G.G.H.H.M.I.I.K.K.L.L.L.N.N.N.eQtQtQtQtQtQtQtQtQt",
"Qt.c.q.u.p.p.p.u.r.w.v.x.d.d.d.d.e.e.e.e.e.e.e.e.e.e.e.e.e.e.e.e.e.e.e.e.e.e.f.f.f.f.f.f.f.f.fQt",
"Qt.c.r.r.u.u.u.O.w.v.x.z.d.P.P.P.Q.Q.R.S.n.T.U.V.W.X.Y.Z.Z.0.1.2.3.4.5.6.7.8.9#.#.###a#a#a#a.fQt",
"Qt.c.r.O.O.O.w.w.v.y.z.d.f.P.P.U.V.X.Y.Z.0.2#b#c.6#d#e#f###g#h#i#j#k#l#m#n#o#p#q#r#s#t#u#v#w.fQt",
"Qt.c.w.w.w.w.v.x.y.z.A.d.P.Q.U#x.X.Y.0.1.3.4#y#z.7.9#.#a#A#B#C#j#D#E#m#F#o#G#q#H#s#t#u#v.j.f.fQt",
"Qt.c.v.v.v.x.x.y.z.A.d.f.Q.U.W.X.Z.1.2.3#c#y#d#e#f###I#h#i#j#J#K#L#m#M#o#p#q#H#s#N#O.g#w.k.fQtQt",
"Qt.c.y.x.y.y.y.z.A.B.d.Q.Q.V.Y.Z.1.2.3#c.6#d#e#.###P#h#i#j#k#K#L#Q#F.##G#q#H#s#N#O.g.j.k.f.fQtQt",
"Qt.c.z.z.z.z.A.A.B.d.e.Q.V.X.Z.1.3.4#y#z#d#e#.#a#A#h#R#j#k#l#m#Q#M.##G#S#H#s#N#O#v#T.k#U.fQtQtQt",
"Qt.c.z.A.A.A.A.B.C.e.Q.S.X.Z.1.3.4.5#V#d.9#.#a#A#B#C#j#D#l#m#Q#M.##G#S#H#s#N#O.g#T#W#U.f.fQtQtQt",
"Qt.c.A.A.A.B.B.C.d.e.R.X.Z.1.2.4#y#z.7.9#.#a#A#B#C#J#K#E#m#n#M.##X#S#r#s#t#O.g#T#W#U#U.fQtQtQtQt",
"Qt.c.B.B.B.B.C.D.e.R.n.Y.0.2.4#Y#z#d.9#.#a#A#B#R#J#K#E#m#Q#M.##X#S#r#s#N#O.g#Z#W.k#U.f.fQtQtQtQt",
"Qt.c.C.C.C.D.E.e.e.n.X.Z.2#b#Y.6#d.9#.#a#A#B#C#j#k#l#m#Q#M.##G#S#r#s#N#O#0#T#W.k#U.a.fQtQtQtQtQt",
"Qt.c.C.C.D.E.F.e.n.T.Z.1.3#c#z#d.9#.#a#A#h#R#j#D#l#m#Q#M.##G#q#H#s#N#O#0#Z#w.k#U.a.f.fQtQtQtQtQt",
"Qt.c.E.E.F.F.e.e.T.Y.1.2#c.6#d#e#.#a#P#h#R#j#k#l#L#Q#M.##1#q#H#s#N#2#0#Z#w.k#U#3.h.fQtQtQtQtQtQt",
"Qt.c.F.G.G.H.e.T.V.0.2.4.6#d.8#.###A#h#i#j#k#l#m#Q#M.##p#q#H#r#N#2#u#Z#w.k#U#3.h.f.fQtQtQtQtQtQt",
"Qt.c.G.H.H.e.e.V.0.2#4#y#V.8.9###P#h#i#j#k#l#L#Q#M#o#p#X#H#r#N#2#u#v#w.k#U#3.h.m.fQtQtQtQtQtQtQt",
"Qt.c.M.I.J.e.V.X.1#b#Y#5.8#f###P#h#i#j#k#K#L#Q#F#o#p#X.i#s#N#2#u#v#w.k#U#3.a.h.f.fQtQtQtQtQtQtQt",
"Qt.c.K.K.e.e.X.1.3#c.6#d.9#.#g#h#i#C#J#K#L#m#F#o#p#X.i#r#s#t#6#v.j.k#U#3.a.h.m.fQtQtQtQtQtQtQtQt",
"Qt.c.L.L.e.X.Z.3#c.6#d.9#.#g#A#B#C#J#K#E#m#n#M.##X.i#r#s#t#u.g.j.k#U#3.a.h.m.f.fQtQtQtQtQtQtQtQt",
"Qt.c.N.e.f.Z.3#c.6#d.9#.#a#A#B#C#J#K#E#m#n#M.##X#S#r#s#N#O.g#T.k#U#3.a.h.m#7.fQtQtQtQtQtQtQtQtQt",
"Qt.c.N.f.Z.3#c.6#d#e#.#a#A#B#C#J#D#E#m#Q#M.##X#S#8#s#t#O.g#T#W.k#3.a.h.m#7.f.fQtQtQtQtQtQtQtQtQt",
"Qt.c.f.f.1#c#y#d#e#.#a#A#B#C#J#D#9#m#n#M.##X#S#H#s#N#O.g#Z#W.k#U.a.h.m#7.l.fQtQtQtQtQtQtQtQtQtQt",
"Qt.d.f.2#c.6#d.8#f###A#B#R#j#D#9#m#Q#M.##G#q#H#s#N#O.g#Z#W.k#U.a.h.m#7.l.f.fQtQtQtQtQtQtQtQtQtQt",
"Qt.f.f#c.6#5#e#f#a#A#h#R#j#D#l#m#Q#M.##G#q#H#s#N#O.g#Z#w.k#U#3.h.m#7.l.l.fQtQtQtQtQtQtQtQtQtQtQt",
"Qt.f#c.6#d#e#f###A#h#R#j#k#l#m#Q#M#o#1#q#H#s#N#2#0#Z#w.k#U#3.h.m#7.l.l.f.fQtQtQtQtQtQtQtQtQtQtQt",
"Qt.f.f.f.f.f.f.f.f.f.f.f.f.f.f.f.f.f.f.f.f.f.f.f.f.f.f.f.f.f.f.f.f.f.f.fQtQtQtQtQtQtQtQtQtQtQtQt",
"QtQtQtQtQtQtQtQtQtQtQtQtQtQtQtQtQtQtQtQtQtQtQtQtQtQtQtQtQtQtQtQtQtQtQtQtQtQtQtQtQtQtQtQtQtQtQtQt",
"QtQtQtQtQtQtQtQtQtQtQtQtQtQtQtQtQtQtQtQtQtQtQtQtQtQtQtQtQtQtQtQtQtQtQtQtQtQtQtQtQtQtQtQtQtQtQtQt"};
