/* XPM */
static char *OpenSession_xpm[]={
"48 48 256 2",
"Qt c None",
".B c #000000",
".f c #0b0b0b",
"al c #131313",
"bE c #252525",
"#O c #36312c",
".R c #3d3d3d",
".e c #4f4f4f",
".C c #535353",
"b9 c #6c6c6a",
"b7 c #6f6f6c",
"bY c #71716f",
"aj c #73a26e",
"bV c #747572",
"#6 c #76a272",
"bQ c #777775",
"bU c #797976",
".d c #7a7a7a",
"#X c #7aa276",
"bD c #7c7c7a",
".g c #7c7c7c",
"#E c #7ea27a",
"bt c #80807d",
"#r c #80a27d",
"bH c #828280",
"a9 c #838381",
"bk c #838482",
"bC c #848582",
".8 c #84a280",
"bM c #868684",
"a8 c #878785",
"bs c #888987",
"bP c #8a8a88",
"a7 c #8b8b89",
".c c #8b8b8b",
"b4 c #8b8c89",
"br c #8c8c8a",
"bT c #8e8e8c",
"a6 c #908f8d",
"bq c #91908e",
"a5 c #949492",
".b c #959595",
"a4 c #979795",
"bj c #989896",
".# c #989898",
"b2 c #9a9a99",
"bB c #9b9b9a",
"a3 c #9c9c9a",
"bJ c #9e9e9c",
"bS c #9fa09e",
"bi c #a09f9d",
"a2 c #a0a09f",
".a c #a1a1a1",
"bx c #a2a2a1",
"a1 c #a4a4a2",
".Q c #a5c8a0",
"ac c #a5e29f",
"bp c #a6a6a4",
"bh c #a7a8a6",
"a0 c #a8a8a7",
"bw c #a9aaa8",
"#5 c #a9e2a4",
"aZ c #acacaa",
"#W c #ace2a7",
"bo c #aeaead",
"bg c #afafae",
"b8 c #afb0af",
"#N c #afe2aa",
"aY c #b0b0af",
"bn c #b2b2b1",
"bf c #b3b3b2",
"#D c #b3e2af",
"aX c #b4b4b3",
"bm c #b6b6b5",
"#q c #b6e2b1",
"aW c #b7b7b7",
".7 c #b9e2b5",
"be c #babab9",
"bA c #bbbbba",
"ai c #bbffb4",
"aV c #bcbcbb",
"bd c #bebebd",
"ab c #beffb7",
"aU c #bfbfbe",
"bF c #bfffb8",
"aa c #c1ffbb",
"bc c #c2c2c1",
"#4 c #c2ffbc",
"bv c #c3c3c2",
"aT c #c4c4c3",
"ah c #c4ffbd",
"a# c #c4ffbe",
"aL c #c6c6c5",
"#V c #c6ffc0",
"aK c #c7c7c7",
"#U c #c8ffc2",
"aJ c #c9c9c9",
"#M c #c9ffc4",
"#3 c #caffc5",
"aS c #cbcbca",
"#T c #cbffc6",
"aI c #cccccc",
"#C c #ccffc7",
"#2 c #cdffc9",
"aR c #cececd",
"#S c #ceffc9",
"aH c #cfcfce",
"#L c #cfffca",
"aG c #d0d1d0",
"#p c #d0ffcb",
"aQ c #d1d1d1",
"#R c #d1ffcc",
"#K c #d2ffcd",
"ae c #d2ffce",
"b1 c #d3d4d3",
"#o c #d3ffce",
"#1 c #d3ffcf",
"bG c #d4d3d3",
"bb c #d4d4d3",
".6 c #d4ffcf",
"ag c #d4ffd0",
"aF c #d5d5d5",
"#J c #d5ffd0",
"#B c #d5ffd1",
"#n c #d6ffd1",
".5 c #d6ffd3",
"ba c #d7d7d7",
"aE c #d7d8d7",
"#Q c #d7ffd2",
".P c #d7ffd3",
"bL c #d8d8d8",
"#A c #d8ffd3",
".A c #d8ffd4",
"#m c #d8ffd5",
"aP c #d9d9d9",
".4 c #d9ffd5",
"#I c #daffd6",
"a. c #daffd7",
"aD c #dbdbdb",
"#z c #dbffd7",
"#l c #dbffd8",
"aO c #dcdcdc",
"#0 c #dcffd7",
".3 c #dcffd8",
"#H c #dcffd9",
"aC c #dddddd",
"#8 c #ddffd8",
"af c #ddffd9",
"#y c #ddffda",
"#k c #deffda",
".O c #deffdb",
"#Y c #deffdc",
"aB c #dfe0df",
".2 c #dfffdb",
".N c #e0ffdd",
".1 c #e1ffde",
"aA c #e2e2e2",
"#G c #e2ffdf",
"#x c #e2ffe0",
"az c #e3e4e3",
".M c #e3ffe0",
".0 c #e4ffe1",
"#F c #e4ffe2",
".z c #e5ffe1",
"#w c #e5ffe2",
"#j c #e5ffe3",
"ay c #e6e5e5",
".Z c #e6ffe3",
"#g c #e6ffe4",
"ax c #e7e8e7",
".L c #e7ffe5",
"#v c #e8ffe5",
"#i c #e8ffe6",
"aw c #e9e9e9",
".Y c #e9ffe6",
".K c #e9ffe7",
"#9 c #e9ffe8",
".y c #eaffe7",
"#u c #eaffe8",
".J c #eaffe9",
"b# c #ebeceb",
"#f c #ebffe8",
".X c #ebffe9",
".x c #ebffea",
"av c #ecebeb",
"au c #ececec",
"#c c #ecffea",
"#h c #ecffeb",
"#s c #edffea",
".w c #edffeb",
"at c #eeeeee",
"#P c #eeffeb",
"#t c #eeffec",
".v c #eeffed",
"as c #efefef",
"#Z c #efffed",
".W c #efffee",
".u c #f0ffee",
"b6 c #f1a157",
"ar c #f1f2f2",
".I c #f1ffef",
"b5 c #f2a45a",
".t c #f2fff0",
".H c #f2fff1",
"b0 c #f3a860",
"aq c #f3f3f3",
".s c #f3fff2",
".V c #f3fff3",
"b3 c #f4a75f",
"ap c #f4f4f4",
"#a c #f4fff2",
".r c #f4fff3",
"bZ c #f5ab62",
"bX c #f5ad65",
"#b c #f5fff4",
".q c #f5fff5",
"bW c #f6af68",
"ao c #f6f6f6",
".G c #f6fff4",
"## c #f6fff5",
"bR c #f7b26c",
"bO c #f7b56f",
".p c #f7fff6",
".U c #f7fff7",
"bN c #f8b671",
".o c #f8fff7",
".F c #f8fff8",
"bK c #f9b974",
"an c #f9f9f9",
".n c #f9fff8",
".T c #f9fff9",
"bI c #fabd79",
".m c #fafff9",
".E c #fafffa",
"bz c #fbc17e",
"by c #fbc582",
".l c #fbfffa",
"bu c #fcc885",
"bl c #fcca88",
".D c #fcfffb",
".k c #fcfffc",
"b. c #fdcc8a",
"aN c #fdce8d",
"aM c #fdd08f",
"#. c #fdfffc",
".j c #fdfffd",
".S c #fdfffe",
"am c #fed191",
"ad c #fed295",
"ak c #fed493",
"#7 c #fed595",
"#d c #fed698",
"#e c #fed89a",
".9 c #fefffd",
".i c #fefffe",
".h c #ffffff",
"QtQtQtQtQtQtQtQtQtQtQtQtQtQtQtQtQtQtQtQtQtQtQtQtQtQtQtQtQtQtQtQtQtQtQtQtQtQtQtQtQtQtQtQtQtQtQtQt",
"QtQtQtQtQtQtQtQtQtQtQtQtQtQtQtQtQtQtQtQtQtQtQtQtQtQtQtQtQtQtQtQtQtQtQtQtQtQtQtQtQtQtQtQtQtQtQtQt",
"QtQtQtQtQtQtQt.#.a.b.c.c.c.c.c.c.c.c.c.c.c.c.c.c.c.c.c.c.c.d.e.fQtQtQtQtQtQtQtQtQtQtQtQtQtQtQtQt",
"QtQtQtQtQtQtQt.g.h.h.h.i.i.j.k.l.m.n.o.p.q.r.s.t.u.v.w.x.y.z.A.BQtQtQtQtQtQtQtQtQtQtQtQtQtQtQtQt",
"QtQtQtQtQtQtQt.C.h.h.i.j.D.E.F.o.G.r.H.I.v.w.J.K.L.z.M.N.O.P.Q.BQtQtQtQtQtQtQtQtQtQtQtQtQtQtQtQt",
"QtQtQtQtQtQtQt.R.h.S.k.E.T.U.G.V.H.W.w.X.Y.Z.0.1.2.3.4.5.6.7.8.BQtQtQtQtQtQtQtQtQtQtQtQtQtQtQtQt",
"QtQtQtQtQtQtQt.R.9.k.m.#.a.b.c.c.c.c.c.c.c.c.c.c.c.c.c.c.c.c.c.c.c.d.e.fQtQtQtQtQtQtQtQtQtQtQtQt",
"QtQtQtQtQtQtQt.R#..E.o.g.h.h.h.i.i.j.k.l.m.n.o.p.q.r.s.t.u.v.w.x.y.z.A.BQtQtQtQtQtQtQtQtQtQtQtQt",
"QtQtQtQtQtQtQt.R.l.n##.C.h.h.i.j.D.E.F.o.G.r.H.I.v.w.J.K.L.z.M.N.O.P.Q.BQtQtQtQtQtQtQtQtQtQtQtQt",
"QtQtQtQtQtQtQt.R.T###a.R.h.S.k.E.T.U.G.V.H.W.w.X.Y.Z.0.1.2.3.4.5.6.7.8.BQtQtQtQtQtQtQtQtQtQtQtQt",
"QtQtQtQtQtQtQt.R.p.r.I.R.9.k.m.#.a.b.c.c.c.c.c.c.c.c.c.c.c.c.c.c.c.c.c.c.c.d.e.fQtQtQtQtQtQtQtQt",
"QtQtQtQtQtQtQt.R#b.H.v.R#..E.o.g.h.h.h.i.i.j.k.l.m.n.o.p.q.r.s.t.u.v.w.x.y.z.A.BQtQtQtQtQtQtQtQt",
"QtQtQtQtQt.f.f.R.s.u#c.R.l.n##.C.h.h.i.j.D.E.F.o.G.r.H.I.v.w.J.K.L.z.M.N.O.P.Q.BQtQtQtQtQtQtQtQt",
"QtQtQtQt.f.B#d.R.t.w.Y.R.T###a.R.h.S.k.E.T.U.G.V.H.W.w.X.Y.Z.0.1.2.3.4.5.6.7.8.BQtQtQtQtQtQtQtQt",
"QtQtQt.f.B#d#e.R.W#f#g.R.p.r.I.R.9.k.m.F.p#b.s.I.v#h.J#i#j.M.1#k#l#m#n#o#p#q#r.BQtQtQtQtQtQtQtQt",
"QtQt.f.B#d#e#e.R#s.L.M.R#b.H.v.R#..E.o.p#b.H.I#t#c#u#v#w#x.N#y#z#A#B#o#p#C#D#E.BQtQtQtQtQtQtQtQt",
"Qt.f.B#e#e#e#e.R#u#w.2.R.s.u#c.R.l.n##.r.H.u#t.X.K.L#F#G.2#H#I.P#J#K#L#C#M#N#E.BQtQtQtQtQtQtQtQt",
"Qt#O#d#d#e#e#e.R.L#G#H.R.t.w.Y.R.T###a.t.W#P.X.K#g.0.1.2.3.4#Q.6#R#S#T#U#V#W#X.BQtQtQtQtQtQtQtQt",
"Qt#O#d#e#e#e#e.R#w#Y.4.R.W#f#g.R.p.r.I#Z.w#f#v.Z.M.1#k#0.4#n#1#p#2#3#U#V#4#5#6.BQtQtQtQtQtQtQtQt",
"Qt#O#7#d#e#e#e.R#G#8#n.R#s.L.M.R#b.H.v#c#9.L.Z#x.N#ka..A#n#o#L#C#3#Ua#aaabac#6.BQtQtQtQtQtQtQtQt",
"Qt#Oad#7#d#d#d.R.N.4ae.R#u#w.2.R.s.u#c.y.L.z#G.Naf#I#Aag#K#L#C#M#Vahaaabaiacaj.BQtQtQtQtQtQtQtQt",
"Qt#Oadak#7#7#7.R#y#B#L.Ralalalal.f.f.f.f.f.f.f.f.f.f.f.f.f.f.f.f.f.f.f.f.f.f.B.B.B.B.B.B.B.B.BQt",
"Qt#Oamamakakak.Ra.ae#T.RalanananaoaoapaqarasatauavawaxayayazaAaBaCaDaEaFaGaHaIaJaJaKaLaLaLaL.BQt",
"Qt#OamaMaMaMaN.R#A#L#Ual.BananatauawaxayazaBaOaPaFaQaRaSaKaTaUaVaWaXaYaZa0a1a2a3a4a5a6a7a8a9.BQt",
"Qt#OaNaNaNaNb..R#J#Ta#alanaoatb#awaxazaAaCaDbabbaGaIaJaLbcbdbeaWbfbgaZbha1bia3bja5a6a7a8bk.B.BQt",
"Qt#Ob.b.b.blbl.R#K#Mal.BaoatavawayaAaBaCaPbaaQaRaSaKaTaUaVaWbmbnboaZbpa1a2a3bja5bqbrbsa9bt.BQtQt",
"Qt#Obublbububu.R#L#ValaoaoauaxayaAaBaCaPaFaQaRaJaKbvaUaVaWaXbnbobwbhbxbia3bja5bqbrbsbkbt.B.BQtQt",
"Qt#Obybybybybz.R#Cal.faoauawayaAaCaDbabbaQaRaJaLbcaUbAaWaXaYaZbwbpbxbibBbja5bqbra8bCbtbD.BQtQtQt",
"Qt#ObybzbzbzbzbEbF.faoaqawayaAaCaDaEbGaQaIaJaLbcbdbeaWbfaYaZbwbpbxbibBbja5bqbrbsbCbHbD.B.BQtQtQt",
"Qt#ObzbzbzbIbI.Bal.fapawayaAaBaDbabbaGaIaJaLbcbdbebmbnbgaZa0bpbxbJbBa4a5a6brbsbCbHbDbD.BQtQtQtQt",
"Qt#ObIbIbIbIbK.B.faparaxazaBaDbLbbaQaIaJaLbcbdbAbmbnbgaZbwbpbxbJbBa4a5bqbrbsbMbHbtbD.B.BQtQtQtQt",
"Qt#ObKbKbKbNbO.f.farawayaBaObLaFaQaIaJaLbcbdbeaWaXaYaZbwbpbxbibBa4a5bqbrbPbCbHbtbDbQ.BQtQtQtQtQt",
"Qt#ObKbKbNbObR.farasayaAaCaPbbaQaIaJaLbcaUbAaWbfaYaZbwbpbxbia3bja5bqbrbPbMa9btbDbQ.B.BQtQtQtQtQt",
"Qt#ObObObRbR.f.fasaxaAaBaPaFaQaRaJaLbvaUbAaWaXaYbobwbpbxbSa3bja5bqbTbPbMa9btbDbUbV.BQtQtQtQtQtQt",
"Qt#ObRbWbWbX.fasauazaBaDaFaQaHaJaKbcaUaVaWaXaYaZbwbpbxa2a3bja4bqbTa7bMa9btbDbUbV.B.BQtQtQtQtQtQt",
"Qt#ObWbXbX.f.fauazaBaObabGaHaIaKbvaUaVaWaXaYbobwbpa1a2bJbja4bqbTa7a8a9btbDbUbVbY.BQtQtQtQtQtQtQt",
"Qt#ObZbZb0.fauawaAaObLb1aHaSaKbvaUaVaWaXbnbobwbha1a2bJb2a5bqbTa7a8a9btbDbUbQbV.B.BQtQtQtQtQtQtQt",
"Qt#Ob3b3.f.fawaAaCaPaFaQaIaJaTaUaVbebmbnboaZbha1a2bJb2a4a5a6b4a8bkbtbDbUbQbVbY.BQtQtQtQtQtQtQtQt",
"Qt#Ob5b5.fawayaCaPaFaQaIaJaTbcbdbebmbnbgaZa0bpbxbJb2a4a5a6a7bsbkbtbDbUbQbVbY.B.BQtQtQtQtQtQtQtQt",
"Qt#Ob6.f.BayaCaPaFaQaIaJaLbcbdbebmbnbgaZa0bpbxbJbBa4a5bqbrbsbCbtbDbUbQbVbYb7.BQtQtQtQtQtQtQtQtQt",
"Qt#Ob6.BayaCaPaFaQaRaJaLbcbdbebmbfbgaZbwbpbxbJbBbja5a6brbsbCbHbtbUbQbVbYb7.B.BQtQtQtQtQtQtQtQtQt",
"Qt#O.B.BaAaPbaaQaRaJaLbcbdbebmbfb8aZa0bpbxbJbBbja5bqbrbsbMbHbtbDbQbVbYb7b9.BQtQtQtQtQtQtQtQtQtQt",
"Qtal.BaBaPaFaQaHaSaKbcbdbAaWbfb8aZbwbpbxbia3bja5bqbrbsbMbHbtbDbQbVbYb7b9.B.BQtQtQtQtQtQtQtQtQtQt",
"Qt.B.BaPaFb1aRaSaLbcaUbAaWbfaYaZbwbpbxbia3bja5bqbrbsbMa9btbDbUbVbYb7b9b9.BQtQtQtQtQtQtQtQtQtQtQt",
"Qt.BaPaFaQaRaSaKbcaUbAaWaXaYaZbwbpa1bSa3bja5bqbTbPbMa9btbDbUbVbYb7b9b9.B.BQtQtQtQtQtQtQtQtQtQtQt",
"Qt.B.B.B.B.B.B.B.B.B.B.B.B.B.B.B.B.B.B.B.B.B.B.B.B.B.B.B.B.B.B.B.B.B.B.BQtQtQtQtQtQtQtQtQtQtQtQt",
"QtQtQtQtQtQtQtQtQtQtQtQtQtQtQtQtQtQtQtQtQtQtQtQtQtQtQtQtQtQtQtQtQtQtQtQtQtQtQtQtQtQtQtQtQtQtQtQt",
"QtQtQtQtQtQtQtQtQtQtQtQtQtQtQtQtQtQtQtQtQtQtQtQtQtQtQtQtQtQtQtQtQtQtQtQtQtQtQtQtQtQtQtQtQtQtQtQt"};
