/* XPM */
static char *PannerIndex_xpm[]={
"48 48 135 2",
"Qt c None",
".f c #000000",
"ae c #004100",
"ad c #004700",
"ac c #006300",
"#9 c #006700",
"ab c #006b00",
"aa c #006e00",
"a# c #008500",
"#1 c #009d00",
"#8 c #00a300",
"#R c #00a400",
"a. c #00ab00",
"#W c #00ad00",
"#7 c #00c700",
"#5 c #00cd00",
"#6 c #00ce00",
"#Q c #00dd00",
"#4 c #00e100",
"#V c #00e500",
"#3 c #00fb00",
"#P c #00fd00",
"#0 c #00fe00",
"#O c #00ff00",
"#Z c #01ff01",
"#U c #06ff06",
"#J c #070707",
"#t c #090909",
"#N c #09ff09",
".3 c #0a0a0a",
".P c #0c0c0c",
"#2 c #101010",
".W c #111111",
".U c #161616",
"#I c #1a1a1a",
"#Y c #1bff1b",
".H c #1e1e1e",
"#u c #222222",
"#T c #27ff27",
"#H c #282828",
".Y c #292929",
"#M c #29ff29",
"#d c #2d2d2d",
"#w c #333333",
"#v c #343434",
"#X c #37ff37",
".p c #3d3d3d",
".E c #3e3e3e",
".c c #3f3f3f",
".z c #404040",
".I c #454545",
".l c #464646",
"#L c #46ff46",
"#K c #484848",
"#S c #49ff49",
"#D c #4a4a4a",
".D c #4f4f4f",
".V c #565656",
".Q c #585858",
"#b c #5c5c5c",
".i c #5f5f5f",
".O c #646464",
".o c #6a6a6a",
".q c #6c6c6c",
".Z c #6d6d6d",
".8 c #707070",
"#z c #717171",
".C c #737373",
".b c #747474",
".s c #777777",
".T c #7b7b7b",
"#G c #7f7f7f",
".g c #808080",
".2 c #858585",
".B c #8b8b8b",
".u c #8f8f8f",
"#C c #959595",
"#x c #969696",
".a c #989898",
".y c #9a9a9a",
".x c #9c9c9c",
".A c #9d9d9d",
".N c #9f9f9f",
".d c #a0a0a0",
".n c #a2a2a2",
".r c #a4a4a4",
".# c #a7a7a7",
".k c #a9a9a9",
".t c #ababab",
".w c #adadad",
"## c #b1b1b1",
".v c #b6b6b6",
"#y c #bcbcbc",
"#i c #bdbdbd",
".F c #bebebe",
".4 c #bfbfbf",
".G c #c1c1c1",
".J c #c2c2c2",
".R c #c5c5c5",
".K c #c7c7c7",
".9 c #c9c9c9",
".S c #cbcbcb",
"#F c #cccccc",
"#e c #cecece",
".h c #d2d2d2",
"#a c #d3d3d3",
"#q c #d5d5d5",
".5 c #d6d6d6",
"#p c #d7d7d7",
"#g c #dadada",
"#B c #dbdbdb",
".M c #dddddd",
"#j c #e0e0e0",
"#m c #e1e1e1",
".m c #e2e2e2",
"#. c #e5e5e5",
".L c #e6e6e6",
".j c #e8e8e8",
"#h c #e9e9e9",
"#f c #ececec",
".6 c #eeeeee",
".0 c #efefef",
"#s c #f0f0f0",
"#c c #f2f2f2",
".1 c #f3f3f3",
"#E c #f5f5f5",
"#l c #f6f6f6",
"#k c #f8f8f8",
"#A c #f9f9f9",
"#n c #fafafa",
".7 c #fbfbfb",
"#o c #fcfcfc",
"#r c #fdfdfd",
".X c #fefefe",
".e c #ffffff",
"QtQtQtQtQtQtQtQtQtQtQtQtQtQtQtQtQtQtQtQtQtQtQtQtQtQtQtQtQtQtQtQtQtQtQtQtQtQtQtQtQtQtQtQtQtQtQtQt",
"QtQtQtQtQtQtQtQtQtQtQtQtQtQtQtQtQtQtQtQtQtQtQtQtQtQtQtQtQtQtQtQtQtQtQtQtQtQtQtQtQtQtQtQtQtQtQtQt",
"QtQtQtQtQtQtQtQtQtQtQtQtQtQtQtQtQtQtQtQtQtQtQtQtQtQtQtQtQtQtQtQtQtQtQtQtQtQtQtQtQtQtQtQtQtQtQtQt",
"QtQtQtQtQtQtQtQtQtQtQtQtQtQtQtQtQtQtQtQtQtQtQtQtQtQtQtQtQtQtQtQtQtQtQtQtQtQtQtQtQtQtQtQtQtQtQtQt",
"QtQtQtQtQtQtQtQtQtQtQtQtQtQtQtQtQtQtQtQtQtQtQtQtQtQtQtQtQtQtQtQtQtQtQtQtQtQtQtQtQtQtQtQtQtQtQtQt",
"QtQtQtQtQtQtQtQtQtQtQtQtQtQtQtQt.#.a.b.cQtQtQtQtQtQtQtQtQtQtQtQtQtQtQtQtQtQtQtQtQtQtQtQtQtQtQtQt",
"QtQtQtQtQtQtQtQtQtQtQtQtQtQtQt.d.e.e.e.e.fQtQtQtQtQtQtQtQtQtQtQtQtQtQtQtQtQtQtQtQtQtQtQtQtQtQtQt",
"QtQtQtQtQtQtQtQtQtQtQtQtQtQt.g.e.e.e.e.h.a.fQtQtQtQtQtQtQtQtQtQtQtQtQtQtQtQtQtQtQtQtQtQtQtQtQtQt",
"QtQtQtQtQtQtQtQtQtQtQtQtQtQt.i.e.e.e.j.k.b.fQtQtQtQtQtQtQtQtQtQtQtQtQtQtQtQtQtQtQtQtQtQtQtQtQtQt",
"QtQtQtQtQtQtQtQtQtQtQtQtQtQt.l.e.e.e.m.n.o.fQtQtQtQtQtQtQtQtQtQtQtQtQtQtQtQtQtQtQtQtQtQtQtQtQtQt",
"QtQtQtQtQtQtQtQtQtQtQtQtQtQt.p.e.e.e.m.n.o.fQtQtQtQtQtQtQtQtQtQtQtQtQtQtQtQtQtQtQtQtQtQtQtQtQtQt",
"QtQtQtQtQtQtQtQtQtQtQtQtQtQt.p.e.e.e.m.n.o.fQtQtQtQtQtQtQtQtQtQtQtQtQtQtQtQtQtQtQtQtQtQtQtQtQtQt",
"QtQtQtQtQtQtQtQtQtQtQtQtQtQt.p.e.e.e.m.n.q.fQtQtQtQtQtQtQtQtQtQtQtQtQtQtQtQtQtQtQtQtQtQtQtQtQtQt",
"QtQtQtQtQtQtQtQtQtQtQtQtQtQt.p.e.e.e.m.r.s.fQtQtQtQtQtQtQtQtQtQtQtQtQtQtQtQtQtQtQtQtQtQtQtQtQtQt",
"QtQtQtQtQtQtQtQtQtQtQtQtQtQt.p.e.e.e.m.t.u.fQtQtQtQtQtQtQtQtQtQtQtQtQtQtQtQtQtQtQtQtQtQtQtQtQtQt",
"QtQtQtQtQtQtQtQtQtQtQtQtQtQt.p.e.e.e.m.v.w.fQt.x.y.b.zQtQtQtQtQtQtQtQtQtQtQtQtQtQtQtQtQtQtQtQtQt",
"QtQtQtQt.#.A.B.C.DQtQtQtQtQt.E.e.e.e.m.F.G.f.s.e.e.e.e.fQtQtQtQtQtQtQtQtQtQtQtQtQtQtQtQtQtQtQtQt",
"QtQtQt.x.e.e.e.e.e.HQtQtQtQt.I.e.e.e.m.J.K.f.e.e.e.e.L.M.fQt.N.y.b.lQtQtQtQtQtQtQtQtQtQtQtQtQtQt",
"QtQt.O.e.e.e.e.e.e.e.PQtQtQt.Q.e.e.e.m.J.R.f.e.e.e.j.R.S.f.T.e.e.e.e.UQtQt.d.B.VQtQtQtQtQtQtQtQt",
"QtQt.W.e.e.X.X.e.e.e.e.YQtQt.Z.e.e.e.m.J.J.f.e.e.e.m.J.K.f.e.e.e.e.0.1.f.2.e.e.e.3QtQtQtQtQtQtQt",
"QtQtQt.f.4.5.6.7.e.e.e.e.QQt.8.e.e.e.m.J.J.f.e.e.e.m.J.R.f.e.e.e.j.9.h.f.e.e.e.e#..fQtQtQtQtQtQt",
"QtQtQtQt.f###a.6.7.e.e.e.e#b.Q.e.e.e.m.J.J.f.e.e.e.m.J.J.f.e.e.e.m.J.R.f.e.e.e#c.F.fQtQtQtQtQtQt",
"QtQtQtQtQt.f###a.6.7.e.e.e.e#d.e.e.e#..9#e.f.e.e.e#..9#e.f.e.e.e#..9#e.f.e.e.e#..k.fQtQtQtQtQtQt",
"QtQtQtQtQtQt.f###a.6.7.e.e.e.e.e.e.e#f#g#h.f.e.e.e#f#g#h.f.e.e.e#f#g#h.f.e.e.e.m.n.fQtQtQtQtQtQt",
"QtQtQtQtQtQtQt.f#i#j#k.X.e.e.e.e.e.e#l.1.e.f.e.e.e#l.1.e.f.e.e.e#l.1.e.f.e.e.e.m.n.fQtQtQtQtQtQt",
"QtQtQtQtQtQtQtQt.f#m.7.e.e.e.e.e.e.e.X.e.e.e.e.e.e.X.e.e.e.e.e.e.X.e.e.e.e.e.e.m.n.fQtQtQtQtQtQt",
"QtQtQtQtQtQtQtQtQt.f.e.e.X.e.e.e.e.e.e.e.e.e.e.e.e.e.e.e.e.e.e.e.e.e.e.e.e.e.e.m.n.fQtQtQtQtQtQt",
"QtQtQtQtQtQtQtQtQt.f#n#o.7.X.e.e.e.e.e.e.e.e.e.e.e.e.e.e.e.e.e.e.e.e.e.e.e.e.e.m.n.fQtQtQtQtQtQt",
"QtQtQtQtQtQtQtQtQt.f#p#j.6.7.X.e.e.e.e.e.e.e.e.e.e.e.e.e.e.e.e.e.e.e.e.e.e.e.e.m.n.fQtQtQtQtQtQt",
"QtQtQtQtQtQtQtQtQtQt.f.R#j#k.X.e.e.e.e.e.e.e.e.e.e.e.e.e.e.e.e.e.e.e.e.e.e.e.e.m.n.fQtQtQtQtQtQt",
"QtQtQtQtQtQtQtQtQtQtQt.f#q#c#r.X.e.e.e.e.e.e.e.e.e.e.e.e.e.e.e.e.e.e.e.e.e.e.e.m.n.fQtQtQtQtQtQt",
"QtQtQtQtQtQtQtQtQtQtQtQt.f#s.X.X.e.e.e.e.e.e.e.e.e.e.e.e.e.e.e.e.e.e.e.e.e.e.e.m.n.fQtQtQtQtQtQt",
"QtQtQtQtQtQtQtQtQtQtQtQt.f#l.e.e.e.e.e.e.e.e.e.e.e.e.e.e.e.e.e.e.e.e.e.e.e.e.e.m.n.fQtQtQtQtQtQt",
"QtQtQtQtQtQtQtQtQtQtQtQtQt#t.e.e.e.e.e.e.e.e.e.e.e.e.e.e.e.e.e.e.e.e.e.e.e.e.e.m.n.fQtQtQtQtQtQt",
"QtQtQtQtQtQtQtQtQtQtQtQtQt#u.e.e.e.e.e.e.e.e.e.e.e.e.e.e.e.e.e.e.e.e.e.e.e.e.e.m.n.fQtQtQtQtQtQt",
"QtQtQtQtQtQtQtQtQtQtQtQtQt#v.e.e.e.e.e.e.e.e.e.e.e.e.e.e.e.e.e.e.e.e.e.e.e.e.e.m.n.fQtQtQtQtQtQt",
"QtQtQtQtQtQtQtQtQtQtQtQtQt#w.e.e.X.e.e.e.e.e.e.e.e.e.e.e.e.e.e.e.e.e.e.e.e.e#r#g#x.fQtQtQtQtQtQt",
"QtQtQtQtQtQtQtQtQtQtQtQtQt.U.e.e.7.X.e.e.e.e.e.e.e.e.e.e.e.e.e.e.e.e.e.e.e#r.0#y#z.fQtQtQtQtQtQt",
"QtQtQtQtQtQtQtQtQtQtQtQtQt.f.1#n.7.e.e.e.e.e.e.e.e.e.e.e.e.e.e.e.e.e.e.e.e#A#B#C#D.fQtQtQtQtQtQt",
"QtQtQtQtQtQtQtQtQtQtQtQtQtQt.f.e.e.e.e.e.e.e.e.e.e.e.e.e.e.e.e.e.e.e.e.e.e#E#F#G.fQtQtQtQtQtQtQt",
"QtQtQtQtQtQtQtQtQtQtQtQtQtQtQt#H#I#J.f.f.f.f.f.f.f.f.f.f.f.f.f.f.f.f.f.f.f.f.f.fQtQtQtQtQtQtQtQt",
"QtQtQtQtQtQtQtQtQtQtQtQtQtQt#K#L#M#N#O#O#O#O#O#O#O#O#O#O#O#O#O#O#O#O#O#O#O#P#Q#R.fQtQtQtQtQtQtQt",
"QtQtQtQtQtQtQtQtQtQtQtQtQtQt.D#S#T#U#O#O#O#O#O#O#O#O#O#O#O#O#O#O#O#O#O#O#O#O#V#W.fQtQtQtQtQtQtQt",
"QtQtQtQtQtQtQtQtQtQtQtQtQtQt.p#X#Y#Z#O#O#O#O#O#O#O#O#O#O#O#O#O#O#O#O#O#O#O#0#Q#1.fQtQtQtQtQtQtQt",
"QtQtQtQtQtQtQtQtQtQtQtQtQtQt#2#3#4#5#6#6#6#6#6#6#6#6#6#6#6#6#6#6#6#6#6#6#6#7#8#9.fQtQtQtQtQtQtQt",
"QtQtQtQtQtQtQtQtQtQtQtQtQtQt.fa.a#aaabababababababababababababababababababacadae.fQtQtQtQtQtQtQt",
"QtQtQtQtQtQtQtQtQtQtQtQtQtQtQt.f.f.f.f.f.f.f.f.f.f.f.f.f.f.f.f.f.f.f.f.f.f.f.f.fQtQtQtQtQtQtQtQt",
"QtQtQtQtQtQtQtQtQtQtQtQtQtQtQtQtQtQtQtQtQtQtQtQtQtQtQtQtQtQtQtQtQtQtQtQtQtQtQtQtQtQtQtQtQtQtQtQt"};
