/* XPM */
static char *Panner_xpm[]={
"48 48 147 2",
"Qt c None",
".f c #000000",
"aq c #004100",
"ap c #004700",
"ao c #006300",
"aj c #006700",
"an c #006b00",
"am c #006e00",
"al c #008500",
"ab c #009d00",
"ai c #00a300",
"#3 c #00a400",
"ak c #00ab00",
"#8 c #00ad00",
"ah c #00c700",
"af c #00cd00",
"ag c #00ce00",
"#2 c #00dd00",
"ae c #00e100",
"#7 c #00e500",
"ad c #00fb00",
"#1 c #00fd00",
"aa c #00fe00",
"#0 c #00ff00",
"a# c #01ff01",
"#6 c #06ff06",
"#V c #070707",
".R c #080808",
"#H c #090909",
"#Z c #09ff09",
".P c #0c0c0c",
"ac c #101010",
"#e c #111111",
"#K c #161616",
".I c #191919",
"#U c #1a1a1a",
"a. c #1bff1b",
".4 c #1e1e1e",
".p c #222222",
".A c #272727",
"#5 c #27ff27",
"#T c #282828",
"#g c #292929",
"#Y c #29ff29",
"#p c #2d2d2d",
".F c #2f2f2f",
"#I c #333333",
".w c #343434",
"#9 c #37ff37",
".Z c #3d3d3d",
".v c #3e3e3e",
".t c #3f3f3f",
"#b c #454545",
".V c #464646",
"#X c #46ff46",
"#W c #484848",
"#4 c #49ff49",
".c c #4a4a4a",
"#a c #4f4f4f",
"#d c #585858",
"#o c #5c5c5c",
".L c #5f5f5f",
"#c c #646464",
".B c #676767",
"#h c #6d6d6d",
"#l c #707070",
"#N c #717171",
"## c #737373",
".s c #747474",
".5 c #777777",
".b c #787878",
".l c #7b7b7b",
"#S c #7f7f7f",
".C c #808080",
".U c #818181",
".k c #828282",
".j c #858585",
"#. c #8b8b8b",
".Y c #8f8f8f",
".q c #949494",
".r c #959595",
"#J c #969696",
".a c #989898",
".g c #9a9a9a",
".K c #9b9b9b",
".1 c #9c9c9c",
".9 c #9d9d9d",
".u c #a0a0a0",
".8 c #a2a2a2",
".d c #a3a3a3",
".# c #a7a7a7",
".7 c #a9a9a9",
".X c #ababab",
".T c #acacac",
".0 c #adadad",
"#m c #b1b1b1",
".o c #b3b3b3",
".z c #b6b6b6",
".O c #b9b9b9",
".W c #bababa",
".y c #bbbbbb",
"#M c #bcbcbc",
"#v c #bdbdbd",
".2 c #bebebe",
".G c #bfbfbf",
".H c #c0c0c0",
".3 c #c1c1c1",
".n c #c2c2c2",
".N c #c4c4c4",
".Q c #c5c5c5",
".6 c #c7c7c7",
"#r c #c9c9c9",
"#R c #cccccc",
".i c #cecece",
".J c #d2d2d2",
"#n c #d3d3d3",
"#D c #d5d5d5",
"#i c #d6d6d6",
"#C c #d7d7d7",
"#t c #dadada",
"#P c #dbdbdb",
"#w c #e0e0e0",
".E c #e1e1e1",
".x c #e2e2e2",
"#q c #e5e5e5",
".M c #e7e7e7",
".S c #e8e8e8",
"#u c #e9e9e9",
".m c #ebebeb",
"#s c #ececec",
".h c #ededed",
"#j c #eeeeee",
"#L c #efefef",
"#G c #f0f0f0",
"#E c #f2f2f2",
"#z c #f3f3f3",
"#Q c #f5f5f5",
"#y c #f6f6f6",
".D c #f7f7f7",
"#x c #f8f8f8",
"#O c #f9f9f9",
"#A c #fafafa",
"#k c #fbfbfb",
"#B c #fcfcfc",
"#F c #fdfdfd",
"#f c #fefefe",
".e c #ffffff",
"QtQtQtQtQtQtQtQtQtQtQtQtQtQtQtQtQtQtQtQtQtQtQtQtQtQtQtQtQtQtQtQtQtQtQtQtQtQtQtQtQtQtQtQtQtQtQtQt",
"QtQtQtQtQtQtQtQtQtQtQtQtQtQtQtQtQtQtQtQtQtQtQtQtQtQtQtQtQtQtQtQtQtQtQtQtQtQtQtQtQtQtQtQtQtQtQtQt",
"QtQtQtQtQtQtQtQtQtQtQtQtQtQtQtQtQtQtQtQtQtQtQt.#.a.b.cQtQtQtQtQtQtQtQtQtQtQtQtQtQtQtQtQtQtQtQtQt",
"QtQtQtQtQtQtQtQtQtQtQtQtQtQtQtQtQtQtQtQtQtQt.d.e.e.e.e.fQtQtQtQtQtQtQtQtQtQtQtQtQtQtQtQtQtQtQtQt",
"QtQtQtQtQtQtQtQtQtQtQtQtQtQtQtQtQtQtQtQtQt.g.e.e.e.e.h.i.fQtQtQtQtQtQtQtQtQtQtQtQtQtQtQtQtQtQtQt",
"QtQtQtQtQtQtQtQtQtQtQtQtQtQtQtQt.#.a.j.kQt.l.e.e.e.m.n.o.pQt.q.r.s.tQtQtQtQtQtQtQtQtQtQtQtQtQtQt",
"QtQtQtQtQtQtQtQtQtQtQtQtQtQtQt.u.e.e.e.e.v.w.e.e.e.x.y.z.A.B.e.e.e.e.fQtQtQtQtQtQtQtQtQtQtQtQtQt",
"QtQtQtQtQtQtQtQtQtQtQtQtQtQt.C.e.e.e.e.D.E.F.e.e.e.E.G.H.I.e.e.e.e.J.K.fQtQtQtQtQtQtQtQtQtQtQtQt",
"QtQtQtQtQtQtQtQtQtQtQtQtQtQt.L.e.e.e.M.N.O.P.e.e.e.x.n.Q.R.e.e.e.S.T.U.fQtQtQtQtQtQtQtQtQtQtQtQt",
"QtQtQtQtQtQtQtQtQtQtQtQtQtQt.V.e.e.e.E.G.W.f.e.e.e.x.n.n.f.e.e.e.x.X.Y.fQtQtQtQtQtQtQtQtQtQtQtQt",
"QtQtQtQtQtQtQtQtQtQtQtQtQtQt.Z.e.e.e.x.n.n.f.e.e.e.x.n.n.f.e.e.e.x.z.0.fQt.1.g.s.tQtQtQtQtQtQtQt",
"QtQtQtQtQtQtQtQtQtQtQtQtQtQt.Z.e.e.e.x.n.n.f.e.e.e.x.n.n.f.e.e.e.x.2.3.4.5.e.e.e.e.fQtQtQtQtQtQt",
"QtQtQtQtQtQtQtQtQtQtQtQtQtQt.Z.e.e.e.x.n.n.f.e.e.e.x.n.n.f.e.e.e.x.n.6.I.e.e.e.e.J.fQtQtQtQtQtQt",
"QtQtQtQtQtQtQtQtQtQtQtQtQtQt.Z.e.e.e.x.n.n.f.e.e.e.x.n.n.f.e.e.e.x.n.Q.R.e.e.e.S.7.fQtQtQtQtQtQt",
"QtQtQtQtQtQtQtQtQtQtQtQtQtQt.Z.e.e.e.x.n.n.f.e.e.e.x.n.n.f.e.e.e.x.n.n.f.e.e.e.x.8.fQtQtQtQtQtQt",
"QtQtQtQtQtQtQtQtQtQtQtQtQtQt.Z.e.e.e.x.n.n.f.e.e.e.x.n.n.f.e.e.e.x.n.n.f.e.e.e.x.8.fQtQtQtQtQtQt",
"QtQtQtQt.#.9#.###aQtQtQtQtQt.v.e.e.e.x.n.n.f.e.e.e.x.n.n.f.e.e.e.x.n.n.f.e.e.e.x.8.fQtQtQtQtQtQt",
"QtQtQt.1.e.e.e.e.e.4QtQtQtQt#b.e.e.e.x.n.n.f.e.e.e.x.n.n.f.e.e.e.x.n.n.f.e.e.e.x.8.fQtQtQtQtQtQt",
"QtQt#c.e.e.e.e.e.e.e.PQtQtQt#d.e.e.e.x.n.n.f.e.e.e.x.n.n.f.e.e.e.x.n.n.f.e.e.e.x.8.fQtQtQtQtQtQt",
"QtQt#e.e.e#f#f.e.e.e.e#gQtQt#h.e.e.e.x.n.n.f.e.e.e.x.n.n.f.e.e.e.x.n.n.f.e.e.e.x.8.fQtQtQtQtQtQt",
"QtQtQt.f.G#i#j#k.e.e.e.e#dQt#l.e.e.e.x.n.n.f.e.e.e.x.n.n.f.e.e.e.x.n.n.f.e.e.e.x.8.fQtQtQtQtQtQt",
"QtQtQtQt.f#m#n#j#k.e.e.e.e#o#d.e.e.e.x.n.n.f.e.e.e.x.n.n.f.e.e.e.x.n.n.f.e.e.e.x.8.fQtQtQtQtQtQt",
"QtQtQtQtQt.f#m#n#j#k.e.e.e.e#p.e.e.e#q#r.i.f.e.e.e#q#r.i.f.e.e.e#q#r.i.f.e.e.e.x.8.fQtQtQtQtQtQt",
"QtQtQtQtQtQt.f#m#n#j#k.e.e.e.e.e.e.e#s#t#u.f.e.e.e#s#t#u.f.e.e.e#s#t#u.f.e.e.e.x.8.fQtQtQtQtQtQt",
"QtQtQtQtQtQtQt.f#v#w#x#f.e.e.e.e.e.e#y#z.e.f.e.e.e#y#z.e.f.e.e.e#y#z.e.f.e.e.e.x.8.fQtQtQtQtQtQt",
"QtQtQtQtQtQtQtQt.f.E#k.e.e.e.e.e.e.e#f.e.e.e.e.e.e#f.e.e.e.e.e.e#f.e.e.e.e.e.e.x.8.fQtQtQtQtQtQt",
"QtQtQtQtQtQtQtQtQt.f.e.e#f.e.e.e.e.e.e.e.e.e.e.e.e.e.e.e.e.e.e.e.e.e.e.e.e.e.e.x.8.fQtQtQtQtQtQt",
"QtQtQtQtQtQtQtQtQt.f#A#B#k#f.e.e.e.e.e.e.e.e.e.e.e.e.e.e.e.e.e.e.e.e.e.e.e.e.e.x.8.fQtQtQtQtQtQt",
"QtQtQtQtQtQtQtQtQt.f#C#w#j#k#f.e.e.e.e.e.e.e.e.e.e.e.e.e.e.e.e.e.e.e.e.e.e.e.e.x.8.fQtQtQtQtQtQt",
"QtQtQtQtQtQtQtQtQtQt.f.Q#w#x#f.e.e.e.e.e.e.e.e.e.e.e.e.e.e.e.e.e.e.e.e.e.e.e.e.x.8.fQtQtQtQtQtQt",
"QtQtQtQtQtQtQtQtQtQtQt.f#D#E#F#f.e.e.e.e.e.e.e.e.e.e.e.e.e.e.e.e.e.e.e.e.e.e.e.x.8.fQtQtQtQtQtQt",
"QtQtQtQtQtQtQtQtQtQtQtQt.f#G#f#f.e.e.e.e.e.e.e.e.e.e.e.e.e.e.e.e.e.e.e.e.e.e.e.x.8.fQtQtQtQtQtQt",
"QtQtQtQtQtQtQtQtQtQtQtQt.f#y.e.e.e.e.e.e.e.e.e.e.e.e.e.e.e.e.e.e.e.e.e.e.e.e.e.x.8.fQtQtQtQtQtQt",
"QtQtQtQtQtQtQtQtQtQtQtQtQt#H.e.e.e.e.e.e.e.e.e.e.e.e.e.e.e.e.e.e.e.e.e.e.e.e.e.x.8.fQtQtQtQtQtQt",
"QtQtQtQtQtQtQtQtQtQtQtQtQt.p.e.e.e.e.e.e.e.e.e.e.e.e.e.e.e.e.e.e.e.e.e.e.e.e.e.x.8.fQtQtQtQtQtQt",
"QtQtQtQtQtQtQtQtQtQtQtQtQt.w.e.e.e.e.e.e.e.e.e.e.e.e.e.e.e.e.e.e.e.e.e.e.e.e.e.x.8.fQtQtQtQtQtQt",
"QtQtQtQtQtQtQtQtQtQtQtQtQt#I.e.e#f.e.e.e.e.e.e.e.e.e.e.e.e.e.e.e.e.e.e.e.e.e#F#t#J.fQtQtQtQtQtQt",
"QtQtQtQtQtQtQtQtQtQtQtQtQt#K.e.e#k#f.e.e.e.e.e.e.e.e.e.e.e.e.e.e.e.e.e.e.e#F#L#M#N.fQtQtQtQtQtQt",
"QtQtQtQtQtQtQtQtQtQtQtQtQt.f#z#A#k.e.e.e.e.e.e.e.e.e.e.e.e.e.e.e.e.e.e.e.e#O#P.r.c.fQtQtQtQtQtQt",
"QtQtQtQtQtQtQtQtQtQtQtQtQtQt.f.e.e.e.e.e.e.e.e.e.e.e.e.e.e.e.e.e.e.e.e.e.e#Q#R#S.fQtQtQtQtQtQtQt",
"QtQtQtQtQtQtQtQtQtQtQtQtQtQtQt#T#U#V.f.f.f.f.f.f.f.f.f.f.f.f.f.f.f.f.f.f.f.f.f.fQtQtQtQtQtQtQtQt",
"QtQtQtQtQtQtQtQtQtQtQtQtQtQt#W#X#Y#Z#0#0#0#0#0#0#0#0#0#0#0#0#0#0#0#0#0#0#0#1#2#3.fQtQtQtQtQtQtQt",
"QtQtQtQtQtQtQtQtQtQtQtQtQtQt#a#4#5#6#0#0#0#0#0#0#0#0#0#0#0#0#0#0#0#0#0#0#0#0#7#8.fQtQtQtQtQtQtQt",
"QtQtQtQtQtQtQtQtQtQtQtQtQtQt.Z#9a.a##0#0#0#0#0#0#0#0#0#0#0#0#0#0#0#0#0#0#0aa#2ab.fQtQtQtQtQtQtQt",
"QtQtQtQtQtQtQtQtQtQtQtQtQtQtacadaeafagagagagagagagagagagagagagagagagagagagahaiaj.fQtQtQtQtQtQtQt",
"QtQtQtQtQtQtQtQtQtQtQtQtQtQt.fakalamanananananananananananananananananananaoapaq.fQtQtQtQtQtQtQt",
"QtQtQtQtQtQtQtQtQtQtQtQtQtQtQt.f.f.f.f.f.f.f.f.f.f.f.f.f.f.f.f.f.f.f.f.f.f.f.f.fQtQtQtQtQtQtQtQt",
"QtQtQtQtQtQtQtQtQtQtQtQtQtQtQtQtQtQtQtQtQtQtQtQtQtQtQtQtQtQtQtQtQtQtQtQtQtQtQtQtQtQtQtQtQtQtQtQt"};
