/* XPM */
static char *PannerGrab_xpm[]={
"48 48 115 2",
"Qt c None",
".k c #000000",
"#W c #004100",
"#V c #004700",
"#U c #006300",
"#P c #006700",
"#T c #006b00",
"#S c #006e00",
"#R c #008500",
"#H c #009d00",
"#O c #00a300",
"#w c #00a400",
"#Q c #00ab00",
"#C c #00ad00",
"#N c #00c700",
"#L c #00cd00",
"#M c #00ce00",
"#v c #00dd00",
"#K c #00e100",
"#B c #00e500",
"#J c #00fb00",
"#u c #00fd00",
"#G c #00fe00",
"#t c #00ff00",
"#F c #01ff01",
"#A c #06ff06",
"#o c #070707",
"#s c #09ff09",
".J c #0a0a0a",
"#I c #101010",
".z c #161616",
"#n c #1a1a1a",
"#E c #1bff1b",
"#z c #27ff27",
"#m c #282828",
"#r c #29ff29",
".i c #2d2d2d",
".C c #333333",
"#D c #37ff37",
".3 c #3d3d3d",
".f c #404040",
".r c #464646",
"#q c #46ff46",
"#p c #484848",
"#y c #49ff49",
"#i c #4a4a4a",
".s c #4d4d4d",
".c c #4e4e4e",
"#x c #4f4f4f",
".B c #565656",
".2 c #585858",
".1 c #707070",
"#c c #717171",
".b c #747474",
".l c #797979",
".N c #7a7a7a",
".y c #7b7b7b",
".0 c #7c7c7c",
"#l c #7f7f7f",
".Y c #828282",
".I c #858585",
".A c #8b8b8b",
".Q c #909090",
".j c #919191",
"#h c #959595",
"## c #969696",
".a c #989898",
".e c #9a9a9a",
".q c #9f9f9f",
".g c #a0a0a0",
".W c #a2a2a2",
".d c #a5a5a5",
".# c #a7a7a7",
".S c #a9a9a9",
"#b c #bcbcbc",
".P c #bebebe",
".E c #c2c2c2",
".w c #c5c5c5",
".F c #c7c7c7",
".K c #c9c9c9",
".u c #cacaca",
".x c #cbcbcb",
"#k c #cccccc",
".R c #cecece",
".v c #d0d0d0",
".L c #d2d2d2",
".8 c #d5d5d5",
".U c #dadada",
"#g c #dbdbdb",
".p c #dddddd",
".6 c #e0e0e0",
".D c #e2e2e2",
".4 c #e3e3e3",
".M c #e5e5e5",
".o c #e6e6e6",
".t c #e8e8e8",
".V c #e9e9e9",
".T c #ececec",
"#d c #ededed",
".5 c #eeeeee",
".G c #efefef",
"#. c #f0f0f0",
".O c #f2f2f2",
".H c #f3f3f3",
".m c #f4f4f4",
"#j c #f5f5f5",
".X c #f6f6f6",
"#e c #f7f7f7",
".7 c #f8f8f8",
"#f c #f9f9f9",
".n c #fbfbfb",
"#a c #fcfcfc",
".9 c #fdfdfd",
".Z c #fefefe",
".h c #ffffff",
"QtQtQtQtQtQtQtQtQtQtQtQtQtQtQtQtQtQtQtQtQtQtQtQtQtQtQtQtQtQtQtQtQtQtQtQtQtQtQtQtQtQtQtQtQtQtQtQt",
"QtQtQtQtQtQtQtQtQtQtQtQtQtQtQtQtQtQtQtQtQtQtQtQtQtQtQtQtQtQtQtQtQtQtQtQtQtQtQtQtQtQtQtQtQtQtQtQt",
"QtQtQtQtQtQtQtQtQtQtQtQtQtQtQtQtQtQtQtQtQtQtQtQtQtQtQtQtQtQtQtQtQtQtQtQtQtQtQtQtQtQtQtQtQtQtQtQt",
"QtQtQtQtQtQtQtQtQtQtQtQtQtQtQtQtQtQtQtQtQtQtQtQtQtQtQtQtQtQtQtQtQtQtQtQtQtQtQtQtQtQtQtQtQtQtQtQt",
"QtQtQtQtQtQtQtQtQtQtQtQtQtQtQtQtQtQtQtQtQtQtQtQtQtQtQtQtQtQtQtQtQtQtQtQtQtQtQtQtQtQtQtQtQtQtQtQt",
"QtQtQtQtQtQtQtQtQtQtQtQtQtQtQtQtQtQtQtQtQtQtQtQtQtQtQtQtQtQtQtQtQtQtQtQtQtQtQtQtQtQtQtQtQtQtQtQt",
"QtQtQtQtQtQtQtQtQtQtQtQtQtQtQtQtQtQtQtQtQtQtQtQtQtQtQtQtQtQtQtQtQtQtQtQtQtQtQtQtQtQtQtQtQtQtQtQt",
"QtQtQtQtQtQtQtQtQtQtQtQtQtQtQtQtQtQtQtQtQtQtQtQtQtQtQtQtQtQtQtQtQtQtQtQtQtQtQtQtQtQtQtQtQtQtQtQt",
"QtQtQtQtQtQtQtQtQtQtQtQtQtQtQtQtQtQtQtQtQtQtQtQtQtQtQtQtQtQtQtQtQtQtQtQtQtQtQtQtQtQtQtQtQtQtQtQt",
"QtQtQtQtQtQtQtQtQtQtQtQtQtQtQtQtQtQtQtQtQtQtQtQtQtQtQtQtQtQtQtQtQtQtQtQtQtQtQtQtQtQtQtQtQtQtQtQt",
"QtQtQtQtQtQtQtQtQtQtQtQtQtQtQtQtQtQtQtQtQtQtQtQtQtQtQtQtQtQtQtQtQtQtQtQtQtQtQtQtQtQtQtQtQtQtQtQt",
"QtQtQtQtQtQtQtQtQtQtQtQtQtQtQtQtQtQtQtQtQtQtQtQtQtQtQtQtQtQtQtQtQtQtQtQtQtQtQtQtQtQtQtQtQtQtQtQt",
"QtQtQtQtQtQtQtQtQtQtQtQtQtQtQtQtQtQtQtQtQtQtQtQtQtQtQtQtQtQtQtQtQtQtQtQtQtQtQtQtQtQtQtQtQtQtQtQt",
"QtQtQtQtQtQtQtQtQtQtQtQtQtQtQtQtQtQtQtQtQtQtQtQtQtQtQtQtQtQtQtQtQtQtQtQtQtQtQtQtQtQtQtQtQtQtQtQt",
"QtQtQtQtQtQtQtQtQtQtQtQtQtQtQtQtQtQtQtQtQtQtQtQtQtQtQtQtQtQtQtQtQtQtQtQtQtQtQtQtQtQtQtQtQtQtQtQt",
"QtQtQtQtQtQtQtQtQtQtQtQtQtQtQtQt.#.a.b.cQtQtQt.d.e.b.fQtQtQtQtQtQtQtQtQtQtQtQtQtQtQtQtQtQtQtQtQt",
"QtQtQtQtQtQtQtQtQtQtQtQtQtQtQt.g.h.h.h.h.iQt.j.h.h.h.h.kQtQtQtQtQtQtQtQtQtQtQtQtQtQtQtQtQtQtQtQt",
"QtQtQtQtQtQtQtQtQtQtQtQtQtQt.l.h.h.h.h.m.n.k.h.h.h.h.o.p.kQt.q.e.b.rQtQtQtQtQtQtQtQtQtQtQtQtQtQt",
"QtQtQtQtQtQtQtQtQtQtQtQtQtQt.s.h.h.h.t.u.v.k.h.h.h.t.w.x.k.y.h.h.h.h.zQtQt.g.A.BQtQtQtQtQtQtQtQt",
"QtQtQtQtQtQtQtQtQtQtQtQtQtQt.C.h.h.h.D.E.E.k.h.h.h.D.E.F.k.h.h.h.h.G.H.k.I.h.h.h.JQtQtQtQtQtQtQt",
"QtQtQtQtQtQtQtQtQtQtQtQtQtQt.k.h.h.h.D.E.E.k.h.h.h.D.E.w.k.h.h.h.t.K.L.k.h.h.h.h.M.kQtQtQtQtQtQt",
"QtQtQtQtQtQtQtQtQtQtQtQtQt.N.k.h.h.h.D.E.E.k.h.h.h.D.E.E.k.h.h.h.D.E.w.k.h.h.h.O.P.kQtQtQtQtQtQt",
"QtQtQtQtQtQtQtQtQtQtQtQt.Q.h.k.h.h.h.M.K.R.k.h.h.h.M.K.R.k.h.h.h.M.K.R.k.h.h.h.M.S.kQtQtQtQtQtQt",
"QtQtQtQtQtQtQtQtQtQtQt.j.h.h.k.h.h.h.T.U.V.k.h.h.h.T.U.V.k.h.h.h.T.U.V.k.h.h.h.D.W.kQtQtQtQtQtQt",
"QtQtQtQtQtQtQtQtQtQtQt.I.h.h.k.h.h.h.X.H.h.k.h.h.h.X.H.h.k.h.h.h.X.H.h.k.h.h.h.D.W.kQtQtQtQtQtQt",
"QtQtQtQtQtQtQtQtQtQt.Y.h.h.h.k.h.h.h.Z.h.h.h.h.h.h.Z.h.h.h.h.h.h.Z.h.h.h.h.h.h.D.W.kQtQtQtQtQtQt",
"QtQtQtQtQtQtQtQtQtQt.0.h.h.h.k.h.h.h.h.h.h.h.h.h.h.h.h.h.h.h.h.h.h.h.h.h.h.h.h.D.W.kQtQtQtQtQtQt",
"QtQtQtQtQtQtQtQtQt.1.h.h.h.h.h.h.h.h.h.h.h.h.h.h.h.h.h.h.h.h.h.h.h.h.h.h.h.h.h.D.W.kQtQtQtQtQtQt",
"QtQtQtQtQtQtQtQtQt.2.h.h.h.h.h.h.h.h.h.h.h.h.h.h.h.h.h.h.h.h.h.h.h.h.h.h.h.h.h.D.W.kQtQtQtQtQtQt",
"QtQtQtQtQtQtQtQtQt.3.h.h.h.h.h.h.h.h.h.h.h.h.h.h.h.h.h.h.h.h.h.h.h.h.h.h.h.h.h.D.W.kQtQtQtQtQtQt",
"QtQtQtQtQtQtQtQtQt.z.h.h.n.Z.h.h.h.h.h.h.h.h.h.h.h.h.h.h.h.h.h.h.h.h.h.h.h.h.h.D.W.kQtQtQtQtQtQt",
"QtQtQtQtQtQtQtQtQt.k.p.4.5.n.Z.h.h.h.h.h.h.h.h.h.h.h.h.h.h.h.h.h.h.h.h.h.h.h.h.D.W.kQtQtQtQtQtQt",
"QtQtQtQtQtQtQtQtQtQt.k.w.6.7.Z.h.h.h.h.h.h.h.h.h.h.h.h.h.h.h.h.h.h.h.h.h.h.h.h.D.W.kQtQtQtQtQtQt",
"QtQtQtQtQtQtQtQtQtQtQt.k.8.O.9.Z.h.h.h.h.h.h.h.h.h.h.h.h.h.h.h.h.h.h.h.h.h.h.h.D.W.kQtQtQtQtQtQt",
"QtQtQtQtQtQtQtQtQtQtQtQt.k#..Z.Z.h.h.h.h.h.h.h.h.h.h.h.h.h.h.h.h.h.h.h.h.h.h.h.D.W.kQtQtQtQtQtQt",
"QtQtQtQtQtQtQtQtQtQtQtQt.k.X.h.h.h.h.h.h.h.h.h.h.h.h.h.h.h.h.h.h.h.h.h.h.h.h.h.D.W.kQtQtQtQtQtQt",
"QtQtQtQtQtQtQtQtQtQtQtQtQt.k.h.h.Z.h.h.h.h.h.h.h.h.h.h.h.h.h.h.h.h.h.h.h.h.h.9.U##.kQtQtQtQtQtQt",
"QtQtQtQtQtQtQtQtQtQtQtQtQt.k#a#a.n.Z.h.h.h.h.h.h.h.h.h.h.h.h.h.h.h.h.h.h.h.9.G#b#c.kQtQtQtQtQtQt",
"QtQtQtQtQtQtQtQtQtQtQtQtQt.k#d#e.n.h.h.h.h.h.h.h.h.h.h.h.h.h.h.h.h.h.h.h.h#f#g#h#i.kQtQtQtQtQtQt",
"QtQtQtQtQtQtQtQtQtQtQtQtQtQt.k.h.h.h.h.h.h.h.h.h.h.h.h.h.h.h.h.h.h.h.h.h.h#j#k#l.kQtQtQtQtQtQtQt",
"QtQtQtQtQtQtQtQtQtQtQtQtQtQtQt#m#n#o.k.k.k.k.k.k.k.k.k.k.k.k.k.k.k.k.k.k.k.k.k.kQtQtQtQtQtQtQtQt",
"QtQtQtQtQtQtQtQtQtQtQtQtQtQt#p#q#r#s#t#t#t#t#t#t#t#t#t#t#t#t#t#t#t#t#t#t#t#u#v#w.kQtQtQtQtQtQtQt",
"QtQtQtQtQtQtQtQtQtQtQtQtQtQt#x#y#z#A#t#t#t#t#t#t#t#t#t#t#t#t#t#t#t#t#t#t#t#t#B#C.kQtQtQtQtQtQtQt",
"QtQtQtQtQtQtQtQtQtQtQtQtQtQt.3#D#E#F#t#t#t#t#t#t#t#t#t#t#t#t#t#t#t#t#t#t#t#G#v#H.kQtQtQtQtQtQtQt",
"QtQtQtQtQtQtQtQtQtQtQtQtQtQt#I#J#K#L#M#M#M#M#M#M#M#M#M#M#M#M#M#M#M#M#M#M#M#N#O#P.kQtQtQtQtQtQtQt",
"QtQtQtQtQtQtQtQtQtQtQtQtQtQt.k#Q#R#S#T#T#T#T#T#T#T#T#T#T#T#T#T#T#T#T#T#T#T#U#V#W.kQtQtQtQtQtQtQt",
"QtQtQtQtQtQtQtQtQtQtQtQtQtQtQt.k.k.k.k.k.k.k.k.k.k.k.k.k.k.k.k.k.k.k.k.k.k.k.k.kQtQtQtQtQtQtQtQt",
"QtQtQtQtQtQtQtQtQtQtQtQtQtQtQtQtQtQtQtQtQtQtQtQtQtQtQtQtQtQtQtQtQtQtQtQtQtQtQtQtQtQtQtQtQtQtQtQt"};
