/* XPM */
static char *Paste_xpm[]={
"48 48 160 2",
"Qt c None",
".o c #000000",
"#l c #071106",
".# c #110a06",
"#o c #1a251b",
"aD c #1f3424",
"#p c #242c24",
".i c #25201a",
"ah c #2c2824",
"#x c #2e352f",
"aC c #313b32",
".a c #342f1f",
"#6 c #35322e",
"#A c #384038",
"#P c #3b3731",
"#z c #3f4640",
"#B c #403c38",
"ai c #46433f",
"#s c #464b47",
"au c #485d4a",
"aa c #4b4946",
"#n c #4d504e",
"al c #4f5f51",
"#Z c #504f4d",
"#k c #515251",
"#. c #525251",
"#m c #575857",
".0 c #585857",
"#g c #5b520e",
".S c #5c5c5c",
"aA c #5c8664",
"#f c #5d5936",
"#W c #5f615f",
".Z c #61605f",
".R c #666666",
"#e c #676347",
"as c #677568",
"az c #6a8871",
".N c #6d6632",
".7 c #726f54",
"at c #758d78",
"#j c #777877",
".G c #787877",
".B c #797347",
".s c #79765a",
"ar c #7b9180",
".6 c #7d7b65",
".F c #828282",
".b c #847528",
"#X c #859386",
".8 c #86795c",
".n c #88806a",
"#h c #8a8a8a",
"#7 c #8b958d",
"#d c #8d8475",
".Q c #8d8d8d",
".X c #8f8956",
"aB c #8fe597",
".9 c #909090",
".m c #918b7b",
".Y c #919191",
".A c #928d65",
".2 c #929292",
".V c #949494",
"aw c #94dc9a",
"#c c #95928b",
"ay c #95ae97",
"#T c #969896",
"ax c #97df9d",
"aq c #989796",
".U c #999999",
"#i c #999c9a",
"am c #99d69e",
".h c #9a9677",
"ao c #9c9b99",
"ac c #9ecea2",
"#a c #9f9f9f",
".l c #a09d82",
"av c #a0e1a6",
".W c #a29b68",
".P c #a4a4a4",
"#5 c #a5c3a8",
".g c #a6a38c",
"ap c #a6e3ab",
".E c #a9a9a9",
"#J c #abb8ac",
"an c #abe5b0",
".M c #aca678",
"ag c #b1e7b5",
".z c #b2ad84",
".O c #b3b3b3",
"af c #b6e8ba",
"ak c #b9d3c0",
".r c #bab58c",
"ae c #bae9bf",
".f c #bbb89b",
".I c #bbbbbb",
"#S c #bdc3bd",
"ab c #beebc2",
"#U c #c2cdc3",
".5 c #c3b7a5",
".H c #c3c0bd",
"a# c #c3ecc7",
"#r c #c4c8c5",
"#V c #c4d3c8",
"#8 c #c4d9cc",
"#9 c #c8eecb",
".y c #cbc7a2",
"#u c #cccdcc",
"aj c #cce1d1",
"#4 c #ccefcf",
".D c #cdcdcc",
"a. c #ceefd2",
"#2 c #d0f0d2",
"#3 c #d2f1d5",
".k c #d3cdb9",
"#b c #d3cfc4",
"## c #d3d3d3",
".q c #d5d1ad",
"#Y c #d5f2d7",
".e c #d7d5b6",
"#1 c #d7f3d9",
".4 c #d9d6c4",
"#w c #d9dad9",
"#R c #d9f3db",
"#q c #dbdcdb",
"ad c #dbe2dc",
"#0 c #dbf3dd",
".C c #dcdcdb",
"#O c #dcf4de",
".1 c #dedede",
".p c #dfdcbe",
"#Q c #dff5e1",
".v c #e0e0e0",
".3 c #e1dccc",
".x c #e2e0c7",
"#N c #e2f6e4",
"#t c #e5e8e6",
"#M c #e5f7e6",
".L c #e7e5cb",
"#I c #e7f7e8",
".u c #e8e7e5",
"#L c #e8f7ea",
".K c #e9e7d5",
"#H c #e9f8eb",
"#K c #ebf9ec",
"#y c #ededed",
"#G c #edf9ee",
"#F c #f0faf1",
".w c #f3f2dd",
".t c #f4f4f4",
"#E c #f5fcf6",
"#D c #f7fdf8",
".T c #f9f9f9",
"#v c #fafdfb",
".j c #fbf8e3",
"#C c #fcfefd",
".d c #fdfbf7",
".J c #fefefc",
".c c #ffffff",
"QtQtQtQtQtQtQtQtQtQtQtQtQtQtQtQtQtQtQtQtQtQtQtQtQtQtQtQtQtQtQtQtQtQtQtQtQtQtQtQtQtQtQtQtQtQtQtQt",
"QtQtQtQtQtQtQtQtQtQtQtQtQtQtQtQtQt.#.#.#.a.a.a.a.a.aQtQtQtQtQtQtQtQtQtQtQtQtQtQtQtQtQtQtQtQtQtQt",
"QtQtQtQtQtQtQtQtQtQtQtQtQtQtQtQt.#.#.#.b.c.d.e.f.g.h.iQtQtQtQtQtQtQtQtQtQtQtQtQtQtQtQtQtQtQtQtQt",
"QtQtQtQtQtQtQtQtQtQtQtQtQtQtQt.#.#.#.b.c.c.j.k.f.l.m.n.iQtQtQtQtQtQtQtQtQtQtQtQtQtQtQtQtQtQtQtQt",
"QtQt.#.#.#.o.o.o.o.o.o.o.o.o.o.o.o.b.c.c.j.p.e.q.r.h.n.s.o.o.o.o.o.o.o.o.o.o.o.o.#.#.#QtQtQtQtQt",
"Qt.o.c.c.c.t.u.v.v.v.v.v.v.v.v.v.b.c.c.w.x.x.p.q.y.z.A.s.B.o.v.v.v.v.v.v.v.v.C.D.E.F.G.#QtQtQtQt",
"Qt.o.c.c.t.D.H.I.I.I.I.I.I.I.I.b.c.J.K.L.L.p.e.y.y.r.M.A.B.N.o.I.I.I.I.I.I.I.O.P.Q.R.S.#QtQtQtQt",
"Qt.o.T.T.O.U.V.V.V.V.V.V.V.V.b.w.K.K.K.x.e.y.f.r.z.M.M.W.X.B.N.o.V.V.V.V.V.V.V.Y.F.Z.0.#QtQtQtQt",
"Qt.o.u.1.P.V.2.Y.Y.Y.Y.Y.Y.b.x.3.3.4.5.g.m.n.6.s.7.7.B.B.8.B.N.N.o.Y.Y.Y.Y.Y.Y.9.F.S#..oQtQtQtQt",
"Qt.o.1###a.2.Y.Y.Y.Y.Y.Y.Y.b.3#b.5#c#d.n.6.s.7.7#e#e#f#f#f.N.N.N.o.Y.Y.Y.Y.Y.Y.9.F.0#..oQtQtQtQt",
"Qt.o.1###a.2.Y.Y.2.2.2.2.2#g.i.i.i.#.#.#.o.o.#.o.o.o.o.o.o.o.o.o.o.2.2.2.2.Y.Y.9.F.0#..oQtQtQtQt",
"Qt.o.1###a.2.Y.Y.2.2.2.2.2.Y.2.2.2.2.2.2.2.2.2.2.2.2.2.2.2.2.2.2.2.2.2.2.2.Y.Y.9.F.0#..oQtQtQtQt",
"Qt.o.1###a.2.Y.Y.2.2.2.2.2.Y.2.2.2.2.2.9.9.9.9.Q.Q.Q.Q.Q.Q.Q.Q.Q.Q.Q.Q.Q#h.Y.Y.9.F.0#..oQtQtQtQt",
"Qt.o.1###a.2.Y.Y.2.2.2.2.Y.Y.2.2.2.2.Q.Z.Z.Z.S.S.S.S.S.S.0.0.0.0.0.0#.#.#..Y.Y.9.F.0#..oQtQtQtQt",
"Qt.o.1###a.2.Y.Y.2.2.2.2.Y.9.Y.2.2.2.Q.Z.P.I.O.O.O.O.O.O.O.O.O.E.P#a#i#j#k#l.Y.9.F#m#k.oQtQtQtQt",
"Qt.o.1###a.2.Y.Y.2.2.2.2.Y.9.Y.2.2.2.Q.Z.E.c.c.c.c.c.c.c.c.c.c.c.c.c.c.c#n.R#o.9.F#m#k.oQtQtQtQt",
"Qt.o.1###a.2.Y.Y.2.2.2.2.Y.9.Y.2.2.2.Q.S.E.c.c.c.c.c.c.c.c.c.c.c.c.c.c.c#n.O#j#p.F#m#k.oQtQtQtQt",
"Qt.o.1###a.2.Y.Y.2.2.2.2.Y.9.Y.2.2.2.Q.S.E.c.c.c.c.c.c.c.c.c.c.c.c.c.c.c#n.v###j#p#m#k.oQtQtQtQt",
"Qt.o.1###a.2.Y.Y.2.2.2.2.Y.9.Y.2.2.2.Q.S.E.c#q.U.R.R.R.R.U.U.U.U#r#a.c.c#s.T.t###j#p#k.oQtQtQtQt",
"Qt.o.1###a.2.Y.Y.2.2.2.2.Y.9.Y.2.2.2.Q.S.E.c.c.c.c.c.c.c.c.c.c.c.c.c.c.c#s#t.c.t##.F#o#lQtQtQtQt",
"Qt.o.1###a.2.Y.Y.2.2.2.2.Y.9.Y.2.2.2.Q.0.E.c.c.c.c.c.c.c.c.c.c.c.c.c.c.c#s#u.T.c#v###a#pQtQtQtQt",
"Qt.o.1###a.2.Y.Y.2.2.2.2.Y.9.Y.2.2.2.Q.0.E.c#u#w#x.R.U#u.c.c.c.c.c.c.c.c#s.O#r.v#y#t.I.V#oQtQtQt",
"Qt.o.1###a.2.Y.Y.2.2.2.2.Y.9.Y.2.2.2.Q.0.E.c.c.c.c.c.c.c.c.c.c.c.c.c.c.c#s#z#z#z#z#z#z#A#A#BQtQt",
"Qt.o.1###a.2.Y.Y.2.2.2.2.Y.9.Y.2.2.2.Q.0.P.c.c.c.c.c.c.c.c.c.c.c.c.c.c#C#v#D#E#E#F#G#H#I#J#BQtQt",
"Qt.o.1###a.2.Y.Y.2.2.2.2.Y.9.Y.2.2.2.Q.0.P.c#y#y#y.R.U#u#y#y#y#y#y#y#y#y#y#E#F#F#K#L#M#N#J#BQtQt",
"Qt.o.1###a.2.Y.Y.2.2.2.2.9.Q.Y.2.2.2.Q#..P.c.c.c.c.c.c.c.c.c.c.c.c#C#v#D#E#F#F#K#L#M#N#O#J#PQtQt",
"Qt.o.1###a.2.Y.Y.2.2.2.2.9.Q.Y.2.2.2.Q#..P.c.c.c.c.c.c.c.c.c.c#C#C#v#D#E#F#G#K#L#N#Q#O#R#J#PQtQt",
"Qt.o.1###a.2.Y.Y.2.2.2.2.9.Q.Y.2.2.2.Q#..P.c#u.U.R.U#S#x#x.o#x.o#T#r#U#r#t#V#W#X#Q#O#R#Y#J#PQtQt",
"Qt.o.1###a.2.Y.Y.2.2.2.2.9.Q.Y.2.2.2.Q#Z.P.c.c.c.c.c.c.c.c#C#v#D#E#E#F#K#H#M#N#Q#0#1#Y#2#J#PQtQt",
"Qt.o.1###a.2.Y.Y.2.2.2.2.9.Q.Y.2.2.2.Q#Z.P.c.c.c.c.c.c.c#C#v#D#E#F#F#K#H#M#N#Q#0#1#3#2#4#5#6QtQt",
"Qt.o.1###a.2.Y.Y.2.2.2.2.9.Q.Y.2.2.2.Q#Z.P.c#y#q##.P###y#w#i#a#W#j#W#7#S#8#X#R#Y#3#2#4#9#5#6QtQt",
"Qt.o.1###a.2.Y.Y.2.2.2.2.9.Q.Y.2.2.2.Q#Z.P.c.c.c.c#C#C#v#E#E#F#G#K#L#M#Q#O#R#Y#3a.#4#9a##5#6QtQt",
"Qt.o.1###a.2.Y.Y.2.2.2.2.9.Q.Y.2.2.2.Qaa.P.c.c.c#C#v#v#D#E#F#G#H#I#N#Q#O#1#Y#3#4#4#9a#abac#6QtQt",
"Qt.o.1###a.2.Y.Y.2.2.2.2.9.Q.Y.2.2.2#haa.P.c#y#q.R#x.Rad#r#J#7#7#X#X#0#1#3#2#4#9#9a#abaeac.aQtQt",
"Qt.o.1###a.2.Y.Y.2.2.2.2.9.Q.Y.2.2.2#haa.P.c#C#v#D#E#E#F#K#H#M#N#Q#0#1#3#2#4#9a#a#abaeafac.aQtQt",
"Qt.o.1###a.2.Y.Y.2.2.2.2.9.Q.Y.2.2.2#haa.P#C#v#D#E#F#F#K#L#M#N#O#R#Y#3#2#4#9a#a#abaeafagacahQtQt",
"Qt.o.1###a.2.Y.Y.2.2.2.2.9.Q.Y.2.2.2#hai.P#v#t###t#7#W#x.o.oajajajak.o.o#palalabaeafagagamahQtQt",
"Qt.o.1###a.2.Y.Y.Y.Y.Y.Y.9.Q.9.Y.Y.Y#hai.P#E#E#F#G#H#I#N#Q#0#R#Y#3#4#9#9a#abaeaeafagaganamahQtQt",
"Qt.o.C.Dao.2.Y.Y.Y.Y.Y.Y.9.Q.9.Y.Y.Y#hai.P#F#F#G#H#M#N#Q#0#1#Y#2#4#9#9a#abaeaeafagananapamahQtQt",
"Qt.o##.Iaq.9.9.9.9.9.9.9.Q.Q.9.9.9.9#hai.P#F#t#V#U#X#x#X#Xaralasalalat#JauauauauauanapavawahQtQt",
"Qt.o.O.U#h.F.F.F.F.F.F.F.F.F.F.F.F.F.Gai.P#K#L#M#Q#O#R#Y#3a.#4#9a#a#abaeafagaganapapavavawahQtQt",
"Qt.o.V.G.R.S.0.0.0.0.0.0.0.0.0.0.0.0.0#B.P#L#M#Q#O#R#Y#3a.#4#9a#ababaeafagaganapapavavaxax.iQtQt",
"Qt.o.F.R.0#.#.#.#.#.#.#.#Z#Z#Z#.#.#.#Z#B.P#N#X#X#XarararayatayayatazatazazazaAaAaAaAaAaxaB.iQtQt",
"QtQt.#.#.#.o.o.o.o.o.o.o.o.o.o.o.o.o.o#B.P#Q#0#1#3#2#4#9#9a#abaeafafagananapavavavaxaxawaB.iQtQt",
"QtQtQtQtQtQtQtQtQtQtQtQtQtQtQtQtQtQtQt#B.P#R#1#3#2#4#9#9a#abaeafafaganapapavavaxaxaxawawaB.iQtQt",
"QtQtQtQtQtQtQtQtQtQtQtQtQtQtQtQtQtQtQt#B#J#J#J#J#J#J#J#J#5#5#5#5acacacamamamawaxaxaBaBaBaB.iQtQt",
"QtQtQtQtQtQtQtQtQtQtQtQtQtQtQtQtQtQtQt#PaCaCaC#x#x#x#xaD#xaDaDaD#p#p#p#p#p#p#p#o#o#o#o#o#o.iQtQt",
"QtQtQtQtQtQtQtQtQtQtQtQtQtQtQtQtQtQtQtQtQtQtQtQtQtQtQtQtQtQtQtQtQtQtQtQtQtQtQtQtQtQtQtQtQtQtQtQt"};
