/* XPM */
static const char *xpmPen16[]={
"16 18 35 1",
". c None",
"k c #000000",
"t c #121209",
"D c #1a1812",
"l c #1c0c01",
"m c #210f01",
"q c #231001",
"C c #534f4c",
"F c #606060",
"x c #704415",
"G c #736a5a",
"u c #7a4b1d",
"y c #825234",
"B c #897862",
"h c #92612d",
"i c #9f6c3a",
"E c #a09380",
"A c #a36f52",
"n c #b7804e",
"d c #c37b40",
"e c #c38a5a",
"a c #c47d41",
"f c #ce9669",
"p c #d49f71",
"w c #f0b797",
"r c #f1b492",
"s c #f6dccb",
"z c #f7c9ac",
"c c #fac78c",
"# c #facb8d",
"b c #fe8f0c",
"g c #fec5a7",
"v c #ffd1b1",
"o c #ffe2cd",
"j c #ffe2ce",
"....#a..........",
"....bcd.........",
"....efgh........",
"...ieefjh.......",
"...kieefjh......",
"....lieefgh.....",
".....mieenop....",
"......qinnrsp...",
".......tuunvw...",
"........nxynzp..",
"..........nxAB..",
"............CDE.",
"...F.kkkkkkk.kG.",
"..FFF...........",
".FFFFF..........",
"FFFFFFFFFFFFFF..",
"FFFFFFFFFFFFFFF.",
"FFFFFFFFFFFFFFFF"};
