/* XPM */
static const char *xpmPhysicalModel48x48[] = {
/* columns rows colors chars-per-pixel */
"48 48 20 1",
"  c black",
". c #404040",
"X c #535353",
"o c #666666",
"O c #696969",
"+ c #009100",
"@ c #00a700",
"# c #00c100",
"$ c #00d000",
"% c #00dc00",
"& c #00f500",
"* c green",
"= c #2cdc2c",
"- c #33ff33",
"; c #5cff5c",
": c #ff0007",
"> c #808080",
", c #9c9c9c",
"< c white",
"1 c None",
/* pixels */
"111111111111111111111111111111111111111111111111",
"111111111111111111111111111111111111111111111111",
"1111111111111111111111111111111,>ooooooooo. 1111",
"1111111111111111111111111111111>;---------& 1111",
"1111111111111111111111111111111o-*********# 1111",
"1111111111111111111111111111111o-*********# 1111",
"1111111111111111111111111111111o-*********# 1111",
"1111111111111111111111111111111o-*********# 1111",
"1111111111111111111111111111111o-*********# 1111",
"1111111111111111111111111111111o-*********# 1111",
"1111111111111111111111111111111o-*********# 1111",
"1111111111111111111111111111111o-*********# 1111",
"1111111111111111111111111111111o-**&%$%&**# 1111",
"1111111111111111111111111111111.&##@:::@##+ 1111",
"1111111111111111111111111111111     :::     1111",
"11111111111111111111111111111111111 : : 11111111",
"11111111111111111111111111111111111  O  11111111",
"11111111111111111111111111111111111 O<O 11111111",
"1111111111111111111111111111111111 O<<<O 1111111",
"111111111111111111111111111111111   O<O   111111",
"111111111111111111111111111111111111 < 111111111",
"111111111111111111111111111111111111 < 111111111",
"111111111                           O< 111111111",
"111111111 <<<<<<<<<<<<<<<<<<<<<<<<<<<< 111111111",
"111111111 <O                           111111111",
"111111111 < 111111111111111111111111111111111111",
"111111111 < 111111111111111111111111111111111111",
"111111111 < 111111111111111111111111111111111111",
"111111111 < 111111111111111111111111111111111111",
"111111111 < 111111111111111111111111111111111111",
"111111111 < 111111111111111111111111111111111111",
"11111111     11111111111111111111111111111111111",
"11111111 ::: 11111111111111111111111111111111111",
"1111,>ooX:::Xoo. 1111111111111111111111111111111",
"1111>;--=:::=--& 1111111111111111111111111111111",
"1111o-**&%$%&**# 1111111111111111111111111111111",
"1111o-*********# 1111111111111111111111111111111",
"1111o-*********# 1111111111111111111111111111111",
"1111o-*********# 1111111111111111111111111111111",
"1111o-*********# 1111111111111111111111111111111",
"1111o-*********# 1111111111111111111111111111111",
"1111o-*********# 1111111111111111111111111111111",
"1111o-*********# 1111111111111111111111111111111",
"1111o-*********# 1111111111111111111111111111111",
"1111.&#########+ 1111111111111111111111111111111",
"1111             1111111111111111111111111111111",
"111111111111111111111111111111111111111111111111",
"111111111111111111111111111111111111111111111111"
};
