/* XPM */
static const char *xpmPhysicalModel16x16[] = {
/* columns rows colors chars-per-pixel */
"16 16 6 1",
"  c black",
". c #0a8002",
"X c #10e701",
"o c red",
"O c white",
"+ c None",
/* pixels */
"+++++++++++.....",
"+++++++++++.XXX.",
"+++++++++++.XXX.",
"+++++++++++.XoX.",
"+++++++++++.ooo.",
"+++++++++++++ ++",
"++++++++++++   +",
"+++++++++++     ",
"+++++++++++++ ++",
"++            ++",
"++ +++++++++++++",
".ooo.+++++++++++",
".XoX.+++++++++++",
".XXX.+++++++++++",
".XXX.+++++++++++",
".....+++++++++++"
};
