/* XPM */
static const char *xpmPhysicalModel22x22[] = {
/* columns rows colors chars-per-pixel */
"22 22 8 1",
"  c black",
". c #545454",
"X c #696969",
"o c #7b7b7b",
"O c green",
"+ c #ff0001",
"@ c white",
"# c None",
/* pixels */
"##############o..... #",
"##############.OOOOO #",
"##############.OOOOO #",
"##############.OOOOO #",
"##############.O+++O #",
"##############.O+ +O #",
"##############   X   #",
"############### X@X ##",
"############## X@@@X #",
"##############  X@X  #",
"################ @ ###",
"###             X@ ###",
"### @@@@@@@@@@@@@@ ###",
"### @X             ###",
"### @ ################",
"#o.+++. ##############",
"#.O+++O ##############",
"#.OOOOO ##############",
"#.OOOOO ##############",
"#.OOOOO ##############",
"#.OOOOO ##############",
"#       ##############"
};
