/* XPM */
static const char * xpmPlus[] = {
"16 16 3 1",
" 	c none",
".	c #809F809F809F",
"X	c #000000000000",
"                ",
"                ",
"                ",
"                ",
"    .........   ",
"    .       .   ",
"    .   X   .   ",
"    .   X   .   ",
"    . XXXXX .   ",
"    .   X   .   ",
"    .   X   .   ",
"    .       .   ",
"    .........   ",
"                ",
"                ",
"                "};
