/* XPM */
static const char * xpmPMRule16x16[] = {
"16 16 37 1",
" 	c none",
".	c #4851404F2108",
"X	c #7F5F725C404F",
"o	c #5B5650532308",
"O	c #5E5752542308",
"+	c #6C5A5F572E0B",
"@	c #BCAEA8A95955",
"#	c #88A1765D310C",
"$	c green",
"%	c #9DA68DA24E53",
"&	c #ECFAD3F4755C",
"*	c #B9ADA4A85154",
"=	c #95A4819F350D",
"-	c #9BA689A14651",
";	c #E8F9CEF26959",
":	c #CCF2B4AC5755",
">	c #9FA78AA23A0E",
",	c #A4A88FA33D0F",
"<	c #CBF2B3AC5755",
"1	c #99A585A0360D",
"2	c #98A585A03E0F",
"3	c #E4F8C8F15D56",
"4	c #B5AC9EA74250",
"5	c #C0EFA8A94851",
"6	c #ACAA96A53C0E",
"7	c #CAF1B1AB4E53",
"8	c #A7A990A3390E",
"9	c #E0F7C2EF5053",
"0	c #92A47E5F2D0B",
"q	c #D7F5B7AD380D",
"w	c #DBF6BDAE4450",
"e	c #8FA37A5E2509",
"r	c #C8F1ABAA330C",
"t	c #8DA2765D1D07",
"y	c #D3F4B1AB2C0A",
"u	c #535444500902",
"i	c #7C5E66590E03",
"                ",
"                ",
"                ",
".XoXoXoXoXoXOXo ",
"+@#@#@#@#@#@#@#$",
"%&*&&*&&*&*&&*=$",
"-;;;:>,;;<1,;;=$",
"23334563378633=$",
"=9999999999999=$",
"0qqqqqwwwwwwww=$",
"erqqqqqqqqqqqq=$",
"tqqqqqyyyyyyyy=$",
"uiiiiiiiiiiiiii$",
" $$$$$$$$$$$$$$$",
"                ",
"                "};
