/* XPM */
static char *Print_xpm[]={
"48 48 256 2",
"Qt c None",
".# c #000000",
"#H c #020202",
"bI c #040404",
"bY c #060709",
"bX c #070707",
"#s c #080808",
"#r c #0b0b0b",
".B c #0e0e0e",
".O c #121212",
".J c #151515",
"av c #1a1a1a",
"#b c #1f1f1f",
"## c #222222",
".4 c #262626",
"#B c #292929",
"#y c #2a2a2a",
".F c #2b2a2a",
"#z c #2b2b2b",
"#A c #2c2c2c",
"b3 c #2d2d2d",
".o c #2f2f2f",
"#p c #303030",
"#q c #313131",
"bW c #323232",
"#o c #353535",
".1 c #363636",
"#t c #383838",
".5 c #3c3b3b",
"b2 c #3d3c3c",
".Q c #3e3d3d",
"b1 c #3f3e3e",
".y c #403f3f",
".I c #414141",
"#h c #434343",
"#e c #454545",
"#n c #474646",
".N c #484747",
".G c #4b4949",
"b9 c #4c4b4b",
"#u c #4d4c4c",
"#I c #4e4e4e",
"as c #4f4e4e",
"#a c #4f4f4f",
".8 c #504f4f",
"#T c #505050",
".2 c #525151",
".R c #575656",
"#4 c #585858",
"bZ c #5b5b5b",
".z c #5d5c5c",
"b6 c #5f5f5f",
".m c #606060",
"b7 c #616161",
"b0 c #636363",
".3 c #646363",
".k c #646464",
"bt c #656464",
".l c #656565",
".H c #666565",
".K c #676767",
"#c c #6a6969",
".j c #6a6a6a",
"#. c #6b6b6b",
".n c #6f6f6f",
".A c #706f6f",
".p c #717070",
"aV c #727272",
".6 c #7b7a7a",
"#9 c #7e7d7d",
".S c #7f7f7f",
".c c #808080",
"au c #828181",
".w c #888888",
"#j c #8b8b8b",
".v c #908f8f",
".Y c #939393",
".P c #949393",
".X c #949494",
"#Q c #969595",
"#E c #979696",
"#i c #989797",
"#K c #999898",
"#D c #9a9999",
"#x c #9b9a9a",
"#l c #9c9b9b",
".g c #9c9c9c",
"#v c #9d9c9c",
"b5 c #9f9e9e",
".W c #9f9f9f",
"#R c #a09f9f",
"#w c #a1a0a0",
".Z c #a1a1a1",
"b8 c #a2a1a1",
".d c #a2a2a2",
"#m c #a3a2a2",
".f c #a3a3a3",
"#k c #a4a3a3",
".e c #a5a5a5",
".7 c #a6a5a5",
"br c #a6a6a6",
"b4 c #a7a6a6",
"bd c #a7a7a7",
"#J c #a8a7a7",
"bq c #a8a8a8",
"be c #a9a9a9",
"bs c #aaaaaa",
"bU c #aaabab",
"at c #abaaaa",
"bV c #ababac",
"aS c #acabab",
"bH c #acacac",
"bp c #acadac",
"aR c #adacac",
"aU c #aeadad",
"bG c #aeadae",
"bc c #aeaeae",
"aT c #afaeae",
"bT c #afafaf",
"bF c #b0b0b0",
"ar c #b1b1b1",
"bS c #b1b2b1",
"bE c #b2b2b2",
"#S c #b3b2b2",
"bR c #b3b3b2",
"bD c #b3b3b3",
"aQ c #b4b4b4",
"aq c #b5b4b4",
"bC c #b5b5b5",
"bQ c #b6b6b6",
"#C c #b7b6b6",
"bB c #b7b7b7",
"#d c #b8b7b7",
".b c #b8b8b8",
"aP c #b9b8b8",
"#8 c #b9b9ba",
"aO c #bab9b9",
"aN c #bababa",
".E c #bbbbbb",
"bP c #bbbcbc",
"ap c #bcbcbc",
"aM c #bdbdbd",
"bO c #bebdbe",
"bA c #bebebe",
"ao c #bfbebe",
"bN c #bfbfbf",
"aL c #c0c0bf",
"#7 c #c0c0c0",
"bo c #c1c1c1",
"aK c #c1c2c2",
"bM c #c2c2c1",
"#P c #c2c2c2",
"bn c #c3c3c3",
"aJ c #c4c4c4",
"#G c #c5c5c5",
".q c #c6c6c6",
".0 c #c7c7c7",
"an c #c7c8c8",
"bz c #c8c8c7",
"ba c #c8c8c8",
"#6 c #c8c9c9",
".V c #c9c9c9",
"am c #cacaca",
"bL c #cbcbcb",
"aI c #cbcccc",
".9 c #cccccc",
"b# c #cccccd",
"#O c #cccdcc",
"al c #cccdcd",
"bK c #cdcccd",
"bm c #cdcece",
"#5 c #cecece",
"b. c #cecfcf",
"ak c #cfcfcf",
".x c #d0d0d0",
"a9 c #d1d1d0",
"aH c #d1d1d1",
"aj c #d2d2d1",
"bl c #d2d2d2",
"by c #d2d3d3",
"a8 c #d3d3d3",
"aG c #d4d3d4",
".T c #d4d4d4",
"ai c #d5d5d4",
"bk c #d5d5d5",
"a7 c #d6d5d6",
"aF c #d6d6d6",
"bx c #d7d6d6",
"ah c #d7d7d7",
"a6 c #d8d8d8",
"aE c #d9d9d9",
"bw c #d9dad9",
"#N c #d9dada",
"bj c #dadada",
"a5 c #dbdbdb",
"aD c #dbdbdc",
"ag c #dcdcdc",
"bi c #dddcdd",
"a4 c #dddddd",
"aC c #dedede",
"bv c #dededf",
"bh c #dfdede",
"af c #dfdfdf",
"a3 c #e0e0df",
"aB c #e0e1e1",
"bg c #e1e1e1",
".M c #e2e2e2",
"#g c #e3e3e3",
"aA c #e3e4e3",
"#3 c #e4e3e3",
".h c #e4e4e4",
"bf c #e4e4e5",
"bJ c #e4e5e4",
"ae c #e4e5e5",
"a2 c #e5e4e5",
".r c #e5e5e5",
"#2 c #e6e6e6",
"ad c #e7e7e7",
"a1 c #e8e7e7",
"#1 c #e8e8e8",
"#F c #e8e8e9",
"#M c #e9e8e9",
"#f c #e9e9e9",
".i c #eaeaea",
"#0 c #ebebeb",
"ac c #ececec",
"#Z c #edeced",
"az c #eeedee",
".u c #eeeeee",
".U c #efefef",
"ay c #f0efef",
"a0 c #f0f0f0",
"ab c #f1f0f1",
"#Y c #f1f2f1",
".t c #f2f2f2",
"aZ c #f2f3f2",
".C c #f3f3f3",
"ax c #f4f4f4",
"bu c #f4f4f5",
"#X c #f5f4f5",
".D c #f5f5f5",
"aY c #f5f6f5",
"aa c #f6f5f5",
".L c #f6f6f6",
"#L c #f6f6f7",
"#W c #f7f7f7",
"a# c #f7f7f8",
"aX c #f8f8f8",
"#V c #f9f9fa",
"a. c #fbfbfa",
"#U c #fbfbfb",
"aw c #fdfdfc",
"aW c #fefefd",
".s c #fefefe",
"bb c #fffc00",
".a c #ffffff",
"QtQtQtQtQtQtQtQtQtQtQtQtQtQtQtQtQtQtQtQtQtQtQtQtQtQtQtQtQtQtQtQtQtQtQtQtQtQtQtQtQtQtQtQtQtQtQtQt",
"QtQtQtQtQtQtQtQtQtQtQtQtQtQtQtQtQtQtQtQtQtQtQtQtQtQtQtQtQtQtQtQtQtQtQtQtQtQtQtQtQtQtQtQtQtQtQtQt",
"QtQtQtQtQtQtQtQtQtQtQtQtQtQtQtQtQtQtQtQtQtQtQtQtQtQtQtQtQtQtQtQtQtQtQtQtQtQtQtQtQtQtQtQtQtQtQtQt",
"QtQtQtQtQtQtQtQtQtQtQtQtQtQtQtQtQtQtQtQtQtQtQtQtQtQtQtQtQtQtQtQtQtQtQtQtQtQtQtQtQtQtQtQtQtQtQtQt",
"QtQtQtQtQtQtQtQtQtQtQtQtQtQtQtQt.#.#.#.#.#.#.#.#.#.#.#.#.#.#.#.#.#.#.#.#.#.#.#.#.#.#QtQtQtQtQtQt",
"QtQtQtQtQtQtQtQtQtQtQtQtQtQtQt.#.a.a.a.a.a.a.a.a.a.a.a.a.a.a.a.a.a.a.a.a.a.a.a.a.a.a.#QtQtQtQtQt",
"QtQtQtQtQtQtQtQtQtQtQtQtQtQtQt.#.a.a.b.c.d.e.f.f.f.f.f.f.f.f.f.f.f.f.f.f.g.e.h.a.a.a.#QtQtQtQtQt",
"QtQtQtQtQtQtQtQtQtQtQtQtQtQt.#.a.a.a.a.a.a.a.a.a.a.a.a.a.a.a.a.a.a.a.a.a.a.a.a.a.a.#QtQtQtQtQtQt",
"QtQtQtQtQtQtQtQtQtQtQtQtQtQt.#.a.a.b.c.d.e.f.f.f.f.f.f.f.f.f.f.f.f.f.f.g.e.h.a.a.a.#QtQtQtQtQtQt",
"QtQtQtQtQtQtQtQtQtQtQtQtQt.#.a.a.a.a.a.a.a.a.a.a.a.a.a.a.a.a.a.a.a.a.a.a.a.a.a.a.#QtQtQtQtQtQtQt",
"QtQtQtQtQtQtQtQtQtQtQtQtQt.#.a.a.b.c.d.e.f.f.f.f.f.f.f.f.f.f.f.f.f.f.g.e.h.a.a.a.#QtQtQtQtQtQtQt",
"QtQtQtQtQtQtQtQtQtQtQtQt.#.a.a.a.a.a.a.a.a.a.a.a.a.a.a.a.a.a.a.a.a.a.a.a.a.a.a.#QtQtQtQtQtQtQtQt",
"QtQtQtQtQtQtQtQtQtQtQtQt.#.a.a.b.c.d.e.f.f.f.f.f.f.f.f.f.f.f.f.f.f.g.e.h.a.a.a.#QtQtQtQtQtQtQtQt",
"QtQtQtQtQtQtQtQtQtQtQt.#.a.a.a.a.a.a.a.a.a.a.a.a.a.a.a.a.a.a.a.a.a.a.a.a.a.a.#QtQtQtQtQtQtQtQtQt",
"QtQtQtQtQtQtQtQtQtQtQt.#.a.a.b.c.d.e.f.f.f.f.f.f.f.f.f.f.f.f.f.f.g.e.h.a.a.a.#QtQtQtQt.i.iQtQtQt",
"QtQtQtQtQtQtQtQtQt.#.#.a.a.a.a.a.a.a.a.a.a.a.a.a.a.a.a.a.a.a.a.a.a.a.a.a.a.#.#.#.#.#.#.#.#QtQtQt",
"QtQtQtQtQtQtQtQt.#.j.#.a.a.b.c.d.e.f.f.f.f.f.f.f.f.f.f.f.f.f.f.g.e.h.a.a.a.#.k.l.m.n.o.#.#QtQtQt",
"QtQtQtQtQtQtQt.#.p.#.a.a.a.a.a.a.a.a.a.a.a.a.a.a.a.a.a.a.a.a.a.a.a.a.a.a.#.q.r.s.t.u.l.#.#.#.#Qt",
"QtQtQtQtQtQt.#.v.w.#.a.a.b.c.d.e.f.f.f.f.f.f.f.f.f.f.f.f.f.f.g.e.h.a.a.a.#.q.i.a.x.y.z.A.B.#.#Qt",
"QtQtQtQtQt.#.l.C.#.a.a.a.a.a.a.a.a.a.a.a.a.a.a.a.a.a.a.a.a.a.a.a.a.a.a.#.d.a.D.E.k.F.G.H.I.J.#Qt",
"QtQtQtQt.#.K.L.a.#.#.#.#.#.#.#.#.#.#.#.#.#.#.#.#.#.#.#.#.#.#.#.#.#.#.#.#.g.a.M.N.O.P.Q.O.P.R.#Qt",
"QtQtQt.#.S.T.t.U.V.W.X.Y.X.X.X.X.X.X.X.X.X.X.X.X.X.X.X.X.X.X.X.X.X.Y.Y.Z.D.0.1.2.3.4.5.6.7.8.#Qt",
"QtQt.#.n.M.a.U.u.L.a.a.a.a.a.a.a.a.a.a.a.a.a.a.a.a.a.a.a.a.a.a.a.a.a.a.a.9#.###a.m#b#c#d.7#e.#Qt",
"Qt.#.j.C#f#g#g#g#g#g#g#g#g#g#g#g#g#g#g#g#g#g#g#g#g#g#g#g#g#g#g#g#g#g.U#g#h.4#i.1.O#j#k#l#m#n.#Qt",
"Qt.##b#h#o#p#q#q#q#q#q#q#q#q#q#q#q#q#q#q#q#q#q#q#q#q#q#q#q#q#q#q#q#q.1#o#r#s#t#u.p#v#w#x#m#n.#Qt",
"Qt.#.O#y#z#y#y#y#y#y#y#y#z#z#z#z#z#z#z#z#z#z#z#z#z#z#z#A#A#A#A#A#A#B####.1##.#.3#C#D#E#l#m#n.#Qt",
"Qt.#.a.a.a.a.a.a.a.a.a.a.a.a.a.a.a.a.a.a.a.a.a.a.a.a.a.a.a.a.a.a.a.a.a#F.T#G#H#I#J#K#i#l#m#n.#Qt",
"Qt.#.a.a.a.a.a.a.a.a.a.a.a.a.a.a.a.a.a.a.a.a.a.a.a.a.a.a.a.a.a.a.a#L#M#N#O#P#H#u#J#K#Q#R#S#T.#Qt",
"Qt.#.a.a.a.a.a.a.a.a.a.a.a.a.a.a.s#U#V#W#X#Y.U#Z#0#1#2#3#4#4#4#4#4#4#5#6#7#8#H#I#J#K#R#K#9.#QtQt",
"Qt.#.a.a.a.a.aa.a#aa.Cab.uac.iadae.Mafag#Nahaiajakalaman#4#4#4#4#4#4aoapaqar#Has#J#KatauavQtQtQt",
"Qt.#.a.a.a.aaw#Wax#Yayaz#0#1#2aAaBaCaDaEaFaGaH#5aI.V.qaJaKaLaM.EaNaOaPaQaRaS#H#uaTaUaV.#QtQtQtQt",
"Qt.#.a.a.a.aaWaXaYaZa0azac.ia1a2.Ma3a4a5a6a7a8a9b.b#ambabbbbbbbbbbbbaQbcbdbe#H.R#J#9.#.#QtQtQtQt",
"Qt.#.a.a.a.a.L.u.iadbf#gbgbhbibjaEaFbkbl.xbm.9.V.0#Gbnbobbbbbbbbbbbbbpbqbrbs#Hbt.v.J.#.#QtQtQtQt",
"Qt.#.a.a.abu#1bvbwbx.TbyaHakbmaI.Vbz.qaJ#PaLbAapaN.bbBbCbDbEbFbGbHbebdbdbeaUbI.J.##B.B.#QtQtQtQt",
"Qt.#.a.a#U.UbJa4a6aF.TblaHakbKbL.V.0#GaJbMbNbObPaN.bbQbCbRbSbTbcbHbUbVbVbcarbI.#av.mbW.#QtQtQtQt",
"Qt.##s.J.J.B#s#s#s#s#s#sbXbXbXbXbXbXbXbXbXbXbXbXbXbXbXbYbYbYbYbYbY#sbX#s.O#r.##zbZb0#y.#QtQtQtQt",
"QtQtQtQtQt.#.yb1b2.Q.Q.Q.Q.Q.Q.Q.Q.Q.Q.Q.Q.Q.Q.Q.Q.Q.Q.Q.Q.Q.Q.Q.Q.Q.I.Q.BbIb3bZ.m.o.#QtQtQtQtQt",
"QtQtQtQtQt.#b4#kb5b5b5b5b5b5b5b5b5b5b5b5b5b5b5b5b5b5b5b5b5b5b5b5b5b5#Jb5#B#rb6b7#t.#QtQtQtQtQtQt",
"QtQtQtQtQt.#.7b8#v#v#v#v#v#v#v#v#v#v#v#v#v#v#v#v#v#v#v#v#v#v#v#v#v#v.7#v#B.Bb6.1.#QtQtQtQtQtQtQt",
"QtQtQtQtQt.#b9.G.N.N.N.N.N.N.N.N.N.N.N.N.N.N.N.N.N.N.N.N.N.N.N.N.N.Nb9.N.ObX#A.#QtQtQtQtQtQtQtQt",
"QtQtQtQtQt.#.#.#.#.#.#.#.#.#.#.#.#.#.#.#.#.#.#.#.#.#.#.#.#.#.#.#.#.#.#.#.#.#.#QtQtQtQtQtQtQtQtQt",
"QtQtQtQtQtQtQtQtQtQtQtQtQtQtQtQtQtQtQtQtQtQtQtQtQtQtQtQtQtQtQtQtQtQtQtQtQtQtQtQtQtQtQtQtQtQtQtQt",
"QtQtQtQtQtQtQtQtQtQtQtQtQtQtQtQtQtQtQtQtQtQtQtQtQtQtQtQtQtQtQtQtQtQtQtQtQtQtQtQtQtQtQtQtQtQtQtQt",
"QtQtQtQtQtQtQtQtQtQtQtQtQtQtQtQtQtQtQtQtQtQtQtQtQtQtQtQtQtQtQtQtQtQtQtQtQtQtQtQtQtQtQtQtQtQtQtQt",
"QtQtQtQtQtQtQtQtQtQtQtQtQtQtQtQtQtQtQtQtQtQtQtQtQtQtQtQtQtQtQtQtQtQtQtQtQtQtQtQtQtQtQtQtQtQtQtQt",
"QtQtQtQtQtQtQtQtQtQtQtQtQtQtQtQtQtQtQtQtQtQtQtQtQtQtQtQtQtQtQtQtQtQtQtQtQtQtQtQtQtQtQtQtQtQtQtQt",
"QtQtQtQtQtQtQtQtQtQtQtQtQtQtQtQtQtQtQtQtQtQtQtQtQtQtQtQtQtQtQtQtQtQtQtQtQtQtQtQtQtQtQtQtQtQtQtQt",
"QtQtQtQtQtQtQtQtQtQtQtQtQtQtQtQtQtQtQtQtQtQtQtQtQtQtQtQtQtQtQtQtQtQtQtQtQtQtQtQtQtQtQtQtQtQtQtQt"};
