/* XPM */
static const char *xpmProject32x32[] = {
/* width height num_colors chars_per_pixel */
"    32    32      124            2",
/* colors */
".. c #4b4b4b",
".# c #00fa00",
".a c #d4d4d4",
".b c #898989",
".c c #c8c8c8",
".d c #cecece",
".e c #c4c4c4",
".f c #a7a7a7",
".g c #3a3a3a",
".h c #00f700",
".i c #777777",
".j c #616161",
".k c #b8b8b8",
".l c #00ed00",
".m c #9c9c9c",
".n c #797979",
".o c #02cb02",
".p c #00e500",
".q c #6d6d6d",
".r c #9a9a9a",
".s c #696969",
".t c #919191",
".u c #424242",
".v c #818181",
".w c #00e100",
".x c #515151",
".y c #aeccae",
".z c #00d500",
".A c #707070",
".B c #555555",
".C c #00fd00",
".D c #666666",
".E c #7c7c7c",
".F c #000000",
".G c #2c2c2c",
".H c #111111",
".I c #242424",
".J c #ffffff",
".K c #00ff00",
".L c #f7f7f7",
".M c #fdfdfd",
".N c #fbfbfb",
".O c #ededed",
".P c #e7e7e7",
".Q c #f5f5f5",
".R c #dbdbdb",
".S c #f9f9f9",
".T c #bcbcbc",
".U c #e9e9e9",
".V c #f1f1f1",
".W c #d2d2d2",
".X c #efefef",
".Y c #cccccc",
".Z c #e3e3e3",
".0 c #dfdfdf",
".1 c #a5a5a5",
".2 c #aeaeae",
".3 c #d6d6d6",
".4 c #dddddd",
".5 c #e1e1e1",
".6 c #ebebeb",
".7 c #c0c0c0",
".8 c #c2c2c2",
".9 c #a3a3a3",
"#. c #f3f3f3",
"## c #bebebe",
"#a c #d8d8d8",
"#b c #cacaca",
"#c c #e5e5e5",
"#d c #b6b6b6",
"#e c #b4b4b4",
"#f c #d0d0d0",
"#g c #939393",
"#h c #999999",
"#i c #8d8d8d",
"#j c #a8a8a8",
"#k c #bababa",
"#l c #b0b0b0",
"#m c #acacac",
"#n c #a1a1a1",
"#o c #aaaaaa",
"#p c #b2b2b2",
"#q c #959595",
"#r c #979797",
"#s c #7f7f7f",
"#t c #838383",
"#u c #00fe00",
"#v c #8f8f8f",
"#w c #858585",
"#x c #c6c6c6",
"#y c #727272",
"#z c #878787",
"#A c #9f9f9f",
"#B c #f2f2f2",
"#C c #a2a2a2",
"#D c #f8f8f8",
"#E c #5e5e5e",
"#F c #f6f6f6",
"#G c #bfbfbf",
"#H c #ababab",
"#I c #b7b7b7",
"#J c #b3b3b3",
"#K c #afafaf",
"#L c #91d591",
"#M c #bfdcbf",
"#N c #a5b9a5",
"#O c #dff0df",
"#P c #5deb5d",
"#Q c #dedede",
"#R c #23f623",
"#S c #eaeaea",
"#T c #21cc21",
"#U c #8fdc8f",
"#V c #00dc00",
"#W c #18fa18",
"#X c #343434",
"#Y c #e6e6e6",
"#Z c #b6d3b6",
"#0 c #b2deb2",
"#1 c #43c843",
"#2 c #01be01",
"#3 c #70e670",
"#4 c #00f200",
"#5 c none",
/* pixels */
"#5#5#5#5#5#5#5#5#5#5#5#5#5#5#5#5#5#5#5#5#5#5#5#5#5#5#5#5#5#5#5#5",
"#5.F.F.F.F.F.F.F.F.F.F.F.F.F.F.F.F.F.F.F.F.F.F.F.F.F.F.F.F.F#5#5",
"#5.F.K.K.K.K.K.K.F.K#u.C.#.#.h.F.h.h.h.h.h.#.F#u.K.K.K.K.K.F#5#5",
"#5.F.K.K.K.K.K.K.F.#.h#4.l.p.p.F.w.w.w.p.p.l.F.h.C#u.K.K.K.F#5#5",
"#5.F.K.K.K.K#u.#.F.l.p#V.z.o#T.B#U#0#M#Z.y.y#j#L#P#R.C.K.K.F#5#5",
"#5.F.K.K#u.C.h.l.F.z.o#2#1#U#O.O.P.4.3#f.c.8#d#l.1#N#3#W.K.F#5#5",
"#5.F.F.F.F.F.F.F.F.F.u.f#F.N#..U.5.R.W.Y.c###d.2.9#g.b#z#X.F#5#5",
"#5.F.M#D.O#Q.d.T.H.a.L.J.J.L.X#c.0.3#f#b.e#k#d.2.1#h.b.q#H.I#5#5",
"#5.F.L#S#a.e#J#I.7.J.J.J.M.Q.6.5.4.R.W.d#x#k#p.2.9.m#g.E...D#5#5",
"#5.F.U.a.7.2.k#B.J.J.J.J.N.X.O.U#c.0.W.c.8.7#k.2#n.m#g#w.j.g#5#5",
"#5.F.3#G#m#I#F.J.J.J.J.M.N.N.N.Q#c.R#b.T.2.9.9#l#j#h#q.b#y.u.r#5",
"#5.F.F.F.G.4.J.J.J.J.L.M.J.J.N.V.Z.R.Y.7#l.m#t.v#j.m#r.b.n.D.A#5",
"#5.F#K.f.Z.J.J.J.J.L.J.J.J.J.M.O.5.3.d###d.9#i.s#t.9#q#v#s.D#o.N",
"#5.F.9.c.J.J.J.M.L.M.J.J.J.J.S.P.Z.a.d###e.1#h.A#y#e.t#v#t.A###.",
"#5.F#H.V.J.J.J.Q.L.J.J.J.J.M.L.V.O.Y.Y.7#l#o#h#s#o.d#i#i#w.n.U#Y",
"#5.F#b.J.J.J.L.V.J.J.J.J.S.S.J.M.O.8.1.k#p#j#h#v#c.U.t.b#w#g.J.J",
"#5.H#f.J.J.S.V#..J.J.J.S#..J.J.J.U#a#h#m.k.1#r#k.J.M#n#w.v.Y.J.J",
"#5.g.J.J.M.Q.O.N.J.J.N.V.O.J.J.J.6.R.2#n#m#n#e.M.J.J#k#s.m.J.J.N",
"#5.F.J.J.S.X#c.N.J.J.Q.O.Z.L.J.J.6.4.8#g#m#x.M.J.J.J#a#i.Z.J.J.Q",
"#5.F.J.J.Q.6.5.S.J.N.V.U.5.0.7.X.Q.4.W.T.P.J.J.J.J.L.P.0.J.J.M.V",
"#5.F.J.M.V.P.R.X.J.L.6#c.4.3#h.v##.W.R.O.J.J.J.J.S.X.L.J.J.J.L.6",
"#5.F.J.N.O.Z.3.R.J.L.U.0.3.a.T.s#g#e.d.5.6.M.J.L#..J.J.J.J.S.V.P",
"#5.F.J.S.U.0.W#b.Z.Q.U.R.W.c.e#v.i#j.7.W.0.O.Q.L.J.J.J.J.N.Q.O.Z",
"#5.F.S.S.P.R#f.c.k.1.d.0#f.8##.9#y#g#m.8.3.P.J.J.J.J.J.N#..O.P.4",
"#5.F#C.J.P.3.Y.8##.i#E#p#x.8#k.T.t#g.k#f.U.S.J.J.J.J.N.Q.O.P.5#a",
"#5.F.E.Q.6.a#b.T#p#o.x.B#v#m#e.7.7.Y.5.P.6#..L.J.J.S#..X.P.0.R.W",
"#5.F.F.t.4.R.e#d.2.1.q..#y#i#A#m###b.W#a.5.U.O.X#..Q.O.P.5#a.W#b",
"#5#5#5#5#s#d.Y#e.1.m.m.x.j#t#r.1#p##.c#f.3.4.Z.6.N.J.V.0.R.a.Y.e",
"#5#5#5#5#5.g.m###o#r#q.E.x.i#i.m#j#p.T.8.W.5.X.M.J.J.Q#a.a.Y.e.T",
"#5#5#5#5#5#5.g#s#n#o#n#i.j.s#z#q.1.T.Y.4.P.V.L.S.M.J.N.3.Y.e.T#e",
"#5#5#5#5#5#5#5...A#z#q#j#d.2#k.c#f.a.R.Z.P.U.O.X.V.Q.L.4.8.T#e.2",
"#5#5#5#5#5#5#5#5.j.i#z#r.9.2#d.7#x.Y.W.3.R.0.Z#c.U.6.X.Z.T#d.2.1"
};
