/* XPM */
static const char *xpmProject48x48[] = {
/* width height num_colors chars_per_pixel */
"    48    48      245            2",
/* colors */
".. c none",
".# c #001600",
".a c #001800",
".b c #001900",
".c c #001a00",
".d c #001b00",
".e c #001c00",
".f c #001d00",
".g c #001e00",
".h c #001f00",
".i c #002000",
".j c #002100",
".k c #002200",
".l c #002300",
".m c #002400",
".n c #002500",
".o c #002600",
".p c #002700",
".q c #002800",
".r c #002900",
".s c #002a00",
".t c #002b00",
".u c #002c00",
".v c #002d00",
".w c #00a800",
".x c #00af00",
".y c #00b000",
".z c #00b500",
".A c #00b700",
".B c #00b900",
".C c #00bc00",
".D c #00c000",
".E c #00c100",
".F c #00c400",
".G c #00c500",
".H c #00cb00",
".I c #00cc00",
".J c #00cf00",
".K c #00d000",
".L c #00d100",
".M c #00d200",
".N c #00d300",
".O c #00d500",
".P c #00d600",
".Q c #00d900",
".R c #00db00",
".S c #00df00",
".T c #00e100",
".U c #00e200",
".V c #00e300",
".W c #00e400",
".X c #00e600",
".Y c #00e700",
".Z c #00e800",
".0 c #00e900",
".1 c #00eb00",
".2 c #00ed00",
".3 c #00ee00",
".4 c #00ef00",
".5 c #00f000",
".6 c #00f100",
".7 c #00f200",
".8 c #00f300",
".9 c #00f400",
"#. c #00f500",
"## c #00f600",
"#a c #00f700",
"#b c #00f800",
"#c c #00f900",
"#d c #00fa00",
"#e c #00fb00",
"#f c #00fc00",
"#g c #00fd00",
"#h c #00fe00",
"#i c #00ff00",
"#j c #0f280f",
"#k c #0f290f",
"#l c #0f390f",
"#m c #1eab1e",
"#n c #1eb31e",
"#o c #1ef41e",
"#p c #214621",
"#q c #2cc22c",
"#r c #2cf72c",
"#s c #4b5c4b",
"#t c #4d4d4d",
"#u c #4e4e4e",
"#v c #555555",
"#w c #5c5c5c",
"#x c #5e5e5e",
"#y c #5f5f5f",
"#z c #617861",
"#A c #626262",
"#B c #636363",
"#C c #656565",
"#D c #666666",
"#E c #667866",
"#F c #686868",
"#G c #696969",
"#H c #6a806a",
"#I c #6b6b6b",
"#J c #6c6c6c",
"#K c #6d6d6d",
"#L c #6f6f6f",
"#M c #707070",
"#N c #727272",
"#O c #737373",
"#P c #747474",
"#Q c #767676",
"#R c #777777",
"#S c #78cb78",
"#T c #797979",
"#U c #79e779",
"#V c #7a7a7a",
"#W c #7c7c7c",
"#X c #7c887c",
"#Y c #7d7d7d",
"#Z c #7e7e7e",
"#0 c #808080",
"#1 c #818481",
"#2 c #838383",
"#3 c #848484",
"#4 c #858585",
"#5 c #868686",
"#6 c #878787",
"#7 c #888888",
"#8 c #8a8a8a",
"#9 c #8b8b8b",
"a. c #8c8c8c",
"a# c #8d8d8d",
"aa c #8e8e8e",
"ab c #8f8f8f",
"ac c #909090",
"ad c #919191",
"ae c #929292",
"af c #939393",
"ag c #949494",
"ah c #959595",
"ai c #969696",
"aj c #979797",
"ak c #989898",
"al c #98a898",
"am c #98d398",
"an c #999999",
"ao c #99a399",
"ap c #9a9a9a",
"aq c #9b9b9b",
"ar c #9c9c9c",
"as c #9cd99c",
"at c #9e9e9e",
"au c #9f9f9f",
"av c #9faa9f",
"aw c #9fd99f",
"ax c #a0a0a0",
"ay c #a1a1a1",
"az c #a2a2a2",
"aA c #a3a3a3",
"aB c #a4a4a4",
"aC c #a5a5a5",
"aD c #a6a6a6",
"aE c #a7a7a7",
"aF c #a8a8a8",
"aG c #a9a9a9",
"aH c #ababab",
"aI c #acacac",
"aJ c #adadad",
"aK c #aeaeae",
"aL c #afafaf",
"aM c #b0b0b0",
"aN c #b1b1b1",
"aO c #b2b2b2",
"aP c #b3b3b3",
"aQ c #b4b4b4",
"aR c #b5b5b5",
"aS c #b6b6b6",
"aT c #b7b7b7",
"aU c #b9b9b9",
"aV c #b9c2b9",
"aW c #bababa",
"aX c #bbbbbb",
"aY c #bcbcbc",
"aZ c #bdbdbd",
"a0 c #bebebe",
"a1 c #bfbfbf",
"a2 c #c0c0c0",
"a3 c #c0c3c0",
"a4 c #c0cec0",
"a5 c #c1c1c1",
"a6 c #c2c2c2",
"a7 c #c3c3c3",
"a8 c #c3dac3",
"a9 c #c4c4c4",
"b. c #c5c5c5",
"b# c #c6c6c6",
"ba c #c7c7c7",
"bb c #c7ccc7",
"bc c #c9c9c9",
"bd c #cacaca",
"be c #cbcbcb",
"bf c #cdcdcd",
"bg c #cecece",
"bh c #cee2ce",
"bi c #cfcfcf",
"bj c #d0d0d0",
"bk c #d1d1d1",
"bl c #d3d3d3",
"bm c #d4d4d4",
"bn c #d5d5d5",
"bo c #d7d7d7",
"bp c #d8d8d8",
"bq c #d9d9d9",
"br c #dadada",
"bs c #dbdbdb",
"bt c #dcdcdc",
"bu c #dddddd",
"bv c #dedede",
"bw c #dfdfdf",
"bx c #e0e0e0",
"by c #e1e1e1",
"bz c #e2e2e2",
"bA c #e4e4e4",
"bB c #e5e5e5",
"bC c #e6e6e6",
"bD c #e7e7e7",
"bE c #e8e8e8",
"bF c #e9e9e9",
"bG c #eaeaea",
"bH c #ebebeb",
"bI c #ececec",
"bJ c #ededed",
"bK c #eeeeee",
"bL c #efefef",
"bM c #f0f0f0",
"bN c #f2f2f2",
"bO c #f3f3f3",
"bP c #f4f4f4",
"bQ c #f5f5f5",
"bR c #f6f6f6",
"bS c #f8f8f8",
"bT c #f9f9f9",
"bU c #fafafa",
"bV c #fcfcfc",
"bW c #fdfdfd",
"bX c #fefefe",
"bY c #ffffff",
/* pixels */
"................................................................................................",
"................................................................................................",
"...v.v.v.v.v.v.v.v.v.v.v.v.v.v.v.v.v.v.v.v.v.v.v.v.v.v.v.v.v.v.v.v.v.v.v.v.v.v.v.v.v.v.v.v.v....",
"...v#i#i#i#i#i#i#i#i#i#i.v#i#i#i#i#h#g#f#f#e#e.u#e#e#e#f#f#g#h#i#i#i.v#i#i#i#i#i#i#i#i#i#i.v....",
"...v#i#i#i#i#i#i#i#i#i#i.v#h#g#f#d#b##.9.8.7.6.t.6.6.7.8.9###c#e#g#h.v#i#i#i#i#i#i#i#i#i#i.v....",
"...v#i#i#i#i#i#i#i#i#i#h.v#e#b#..7.3.1.Z.X.W.V.q.U.V.W.X.Z.1.4.8#a#d.u#h#i#i#i#i#i#i#i#i#i.v....",
"...v#i#i#i#i#i#i#i#h#g#d.u.8.3.0.W.S.R.P.N.L.K.n.J.K.L.N.P.R.T.Y.2.8.u#e#g#i#i#i#i#i#i#i#i.v....",
"...v#i#i#i#i#i#h#g#e#a.8.s.Y.S.Q.M.H.G.D.C.B#q#Eawa8bvbpbkbebgbga4aw#z#o#d#g#i#i#i#i#i#i#i.v....",
"...v#i#i#i#i#h#f#b.9.3.X.p.O.I.F.C.z.y#n#SbhbEbwbwbobobjbkbabca1aYaUaLaYas#r#g#i#i#i#i#i#i.v....",
"...v#i#i#i#g#d##.5.0.S.O.m.E.A.x.w#mambLbKbEbAbwbsbpbmbkbfbcbaa1aZaTaOaIaCaI#U#h#i#i#i#i#i.v....",
"...v.v.v.v.u.t.s.q.o.m.k.i.h.f#kaobSbSbNbFbFbybwbpbpbjbkbdbca7a1aZaRaPaLaBaraeav#l.v.v.v.v.v....",
"...vbXbVbTbObGbxbmbaaXaL.faraObNbYbWbNbObCbCbvbvbobnbjbjbcbca2a2aWaSaPaIaDauad#2bqbYbYbYbY.v....",
"...vbVbSbNbFbvbja6aQaFat#jbgbWbYbUbUbLbKbEbAbwbrbpblbkbebca9a2a1aUaTaMaJaGazaj#2#GbJbYbYbY.v....",
"...vbTbNbFbtbga0aMaBapakbbbYbVbUbTbSbNbFbEbwbwbpbvbsbpbkblbga9aWaUaTaLaJaHazaq#9#O#4bXbYbY.v....",
"...ubObFbtbfaYaKayajaBbybWbUbTbSbRbObObCbCbBbIbybwbnbla9a2aZa7baa2aPaOaLaFaBatad#W#tbCbYbY.v....",
"...tbGbubfaYaJauahagbDbWbVbSbSbObNbKbIbIbObIbKbwbsbpbgb#a7aSaJayaOaZaOaIaFaDauaj#5#BaHbYbY.v....",
"...sbxbja0aKauagafbybWbUbSbRbObMbIbIbQbVbWbFbFbzbpbrbgbda2aTaMaCagakaYaIaGaDauaja##QatbLbY.v....",
"...qbma6aMayaha#bebWbUbSbQbObKbIbIbSbWbUbTbKbBbBbnbnbgbda1aYaPaDap#2aCaJaIaCazaqac#ZaHbEbY.v....",
"...o.l.i.f.d.b#sbVbUbSbRbNbLbHbIbVbUbUbTbQbNbybzboblblb#a7aZaOaHay#9#YaWaFaCazarah#5aRal.v.v....",
"...naYaGapacabbNbVbSbRbNbKbHbFbTbUbTbRbRbMbLbybvbtbgbja9a7aUaRaJaBag#ObkaDaDazarajaaaWbPbY.v....",
"...laNauaf#9aZbWbTbRbObKbHbEbRbVbTbSbNbNbKbHbEbCbzbdbpbda2aTaSaLaCapaqbHaDaDayatapadbzbQbx.v....",
"...jaEakaaaabNbUbSbObKbHbEbIbWbUbRbObLbIbIbLbNbAbBa2aFbeaZaWaSaJaFataZbTaRazauauapapbSbRbP.v....",
"...hauae#8aSbWbTbQbMbHbEbBbSbUbSbObKbIbEbLbVbVbybybjaRaDaZaWaOaMaHaDbHbTbgayauauaqa9bVbQbJ.v....",
"...gapab#7bybUbSbNbIbFbBbFbWbTbQbMbHbFbBbTbUbTbHbtbsaRarbgaTaPaMaGbjbUbSbBazayaraybIbTbObF#p....",
"...faia.afbVbTbQbLbHbCbzbMbVbRbNbIbEbBbCbVbTbQbMbpbra2aJaLaRaRaLa9bUbTbQbKaLararbabVbSbMbC#H....",
"...eaf#8aDbWbSbNbIbEbzbwbNbUbQbKbFbCbybwbQbRbMbKbtbobjaLaLaWaObdbUbUbSbNbHbgaraIbUbTbQbKbBaV....",
"...e.c.a#XbVbRbMbHbBbybtbMbTbNbHbEbzbvbsbCbNbKbFbyblbmaRaubcbBbUbUbSbQbLbEbyaybIbUbSbNbHbzbv....",
"...eac#7a1bVbQbKbEbAbvbrbMbTbMbFbAbwbtbpbpakblbEbCblboblbsbQbVbTbSbRbMbIbCbybKbUbTbQbKbEbybo....",
"...eac#7a1bUbObIbCbybsbobBbSbKbCbzbvbrbnblaP#5aza9bkbkbwbAbIbSbSbObNbIbEbAbKbVbTbRbMbHbBbvbo....",
"...eac#7a1bUbNbHbAbvbrbnbrbQbKbBbwbsbnblbgbo#YapaMa1bebobwbybNbObLbIbFbCbNbUbTbQbNbIbEbzbtbnbn..",
"...eae#8aQbVbNbFbzbtbobkbfbCbKbBbvbpbmbjbdbaaDaeaFaRb#bfbsbtbCbIbHbEbEbQbWbSbRbNbKbFbBbwbrblba..",
"...faha.anbUbNbEbybsbmbjbebjbzbzbsbobkbfbaa7b##YaqaMaZb#blbpbtbEbFbLbVbUbTbRbNbKbFbCbzbtbobkb#..",
"...gapab#7bEbNbEbwbpblbgbaa5aBaRbtbmbgbda9a1a2atagaGaPa5bcbmbpbHbRbVbVbSbRbObIbHbBbAbwbrbmbga9aY",
"...haxaf#8aQbObEbvbobkbdb#a1a5#yagbcblb#a2aYaUaW#7auaJa1bkbAbKbMbRbSbTbRbMbLbFbCbzbwbsbobkbea5aU",
"...j.f.d.b.#a3bEbvbnbgbca7aYaUaj#J#3aya2a9b#b#bfaRbcbpbybybzbFbHbLbObObNbIbHbEbzbwbsbpbmbgbaa1aR",
"...laNauae#9aIbFbvbmbgb#a1aWaRaZ#F#WacataGaOaUa2bcbgblbnbtbvbAbCbEbIbKbIbFbBbAbvbtbobmbjbea9aZaP",
"...naXaEakaa#7bcbwbmbea7aZaTaOaB#6#N#6ajaCaJaPaYa7bcbjbkbobrbvbzbzbCbEbFbEbybybsbpbmbkbfbaa2aWaO",
"...ob.aNauae#9ay#Zblbda5aWaRaLaHaS#F#ZacaraFaMaSaYa7bdbgblbnbpbtbvbybEbQbSbwbsbpbmblbfbda7aZaTaL",
"...qbiaXaEakaa#7#6#Fa2a7aUaOaIaFaDad#T#7akazaHaOaUa1a7bcbebkbmbpbAbLbSbTbTbzbobobjbgbcb#a1aWaRaI",
"...rbpb.aNauae#9ay#v#CaubcaTaHaBauaP#K#2adataCaJaPaUaZa9babobwbIbIbMbObQbRbFblblbfbda9a2aYaTaMaH",
"...sbybiaXaEakaa#7ab#w#M#0aCaWaUaOarad#Y#8akazaFaSb#bkbrbAbzbAbEbEbHbIbKbLbLblbfbda9a5aYaUaPaJaF",
"...tbFbqb.aNauae#9aA#x#I#V#7aeataBaYa2beaWbcbjbmbnblbnbpbsbvbwbzbAbBbEbFbFbHbrbcbaa1aZaUaRaMaHaC",
"...u.s.q.n.j.g.d.b.a#1#A#P#2a#akayaFaIaOaTaZa5babdbgbkbmbobrbsbtbwbwbzbAbAbBbAa7a5aZaUaRaMaIaDay",
"....................#u#B#M#Y#8aeaqaBaGaLaRaUaZa5b#bdbfbjblbmbobpbrbsbtbwbwbwbzbaaYaWaRaOaIaGaBat",
"......................#4#D#T#5a#ajataBaHaLaRaUaZa2a9babebgbjblbmbnbobpbrbsbsbsbmaTaSaMaJaGaCayap",
"........................#P#Q#0#8aeapayaDaHaMaRaWaZa1a5b#bdbebgbjbkblblbmbobobobtaPaMaJaGaCayaraj",
"........................#Z#L#W#5aaajatazaGaJaMaRaUaYa1a2a9babdbebfbgbgbjbkblblbma7aIaHaCazarapad",
"..........................#V#R#0#8agapayaBaGaIaMaRaUaWaYa1a5a9b#babdbdbebfbfbfbfbdaFaDayatakah#9"
};

