/* XPM */
static const char *xpmProject16x16[] = {
/* width height num_colors chars_per_pixel */
"    16    16      105            2",
/* colors */
".. c #000000",
".# c #ffffff",
".a c #00ff00",
".b c #fdfdfd",
".c c #fcfcfc",
".d c #fefefe",
".e c #f8f8f8",
".f c #f2f2f2",
".g c #f7f7f7",
".h c #f6f6f6",
".i c #fbfbfb",
".j c #cccccc",
".k c #d8d8d8",
".l c #d7d7d7",
".m c #bdbdbd",
".n c #f5f5f5",
".o c #eaeaea",
".p c #949494",
".q c #cacaca",
".r c #d1d1d1",
".s c #979797",
".t c #9d9d9d",
".u c #9e9e9e",
".v c #a3a3a3",
".w c #565656",
".x c #e6e6e6",
".y c #ebebeb",
".z c #aeaeae",
".A c #c0c0c0",
".B c #e5e5e5",
".C c #e0e0e0",
".D c #d0d0d0",
".E c #a1a1a1",
".F c #f0f0f0",
".G c #b0b0b0",
".H c #d6d6d6",
".I c #dbdbdb",
".J c #d9d9d9",
".K c #6f6f6f",
".L c #818181",
".M c #e9e9e9",
".N c #9ff69f",
".O c #707070",
".P c #c9c9c9",
".Q c #878787",
".R c #dcdcdc",
".S c #919191",
".T c #484848",
".U c #a5a5a5",
".V c #969696",
".W c #e1e1e1",
".X c #ececec",
".Y c #8b8b8b",
".Z c #f9f9f9",
".0 c #888888",
".1 c #f4f4f4",
".2 c #9c9c9c",
".3 c #909090",
".4 c #dedede",
".5 c #c3c3c3",
".6 c #a4a4a4",
".7 c #68e368",
".8 c #999999",
".9 c #2b2b2b",
"#. c #c8c8c8",
"## c #b7d8b7",
"#a c #e2e2e2",
"#b c #a7a7a7",
"#c c #e4e4e4",
"#d c #c1c1c1",
"#e c #d3d3d3",
"#f c #a2a2a2",
"#g c #b4b4b4",
"#h c #bcbcbc",
"#i c #acacac",
"#j c #191919",
"#k c #b7b7b7",
"#l c #757575",
"#m c #9f9f9f",
"#n c #cecece",
"#o c #cdcdcd",
"#p c #bebebe",
"#q c #b8b8b8",
"#r c #868686",
"#s c #0dff0d",
"#t c #8c8c8c",
"#u c #797979",
"#v c #a9a9a9",
"#w c #545454",
"#x c #e8e8e8",
"#y c #dfdfdf",
"#z c #e3e3e3",
"#A c #dadada",
"#B c #f1f1f1",
"#C c #efefef",
"#D c #bbbbbb",
"#E c #c2c2c2",
"#F c #58fe58",
"#G c #bababa",
"#H c #828282",
"#I c #9acc9a",
"#J c #accdac",
"#K c #727272",
"#L c #737373",
"#M c #8f8f8f",
/* pixels */
"................................",
"...a.a.a.a...a.a.a.a...a.a.a.a..",
"...a.a.a.a...a#s#F.N#h###J#I.7#j",
".............w#e.e.x.l.j.m#i.p.L",
"...#.#.#.#.V.#.d.f.B#A.P.m.G.u#K",
"...#.#.#.d.#.b.b.c.F.J#p#f.2#m.Y",
"......#u.#.b.i.#.d.y.l#d.E#l.s#M",
"...#.#.#.b.g.#.#.c.1.j#q.U.p.A.Q",
"...#.#.#.n.e.#.h.b.c#..6.E.r.f#r",
".....z.c.y.i.c.o.o.h.R.G.k.#.g#E",
"...#.#.g.C#B.Z#z.5.8.q.M.#.c.h.b",
"...#.#.f.l.D.4#y.q.0.s.D#C.i.d.#",
".....9.X.k.m#H.t.A.z#b.H.n.#.b.n",
"...#.#.k.r#G#t.w.3#g.j.I.x.f.g#x",
"...#.#.B#L#v.v.K.O.t#k#o#c.e.##a",
".........T#w.S.u.v#D#n.C.o.F.e.W"
};


