/* XPM */
static const char *xpmRedo16x16[]={
"16 16 97 2",
"Qt c None",
"#d c #103200",
"#t c #11170e",
"#e c #15250e",
"#B c #152c09",
"#m c #152e0a",
"#v c #153008",
".K c #171e13",
".9 c #17340a",
"#y c #183809",
"#q c #19340a",
"#s c #1b360f",
"#r c #1d3612",
"#c c #21331b",
".P c #21480d",
"#k c #223519",
".6 c #24301d",
".Z c #26630b",
"#o c #313b2c",
".O c #31830d",
".0 c #324a25",
".1 c #34691c",
"#a c #3fad1a",
".W c #40453d",
"#. c #40762a",
"#i c #42aa20",
".A c #42ab19",
"#E c #454546",
"#p c #45543b",
"#b c #45ac25",
".8 c #468d26",
".Q c #469223",
"#D c #4a5943",
"#j c #4dad2a",
".q c #4db325",
".B c #4fac27",
".p c #4fb326",
".z c #50b228",
".F c #50c024",
"#l c #515f4a",
".C c #51a62a",
".r c #52b526",
".E c #52bb25",
".R c #52c324",
".D c #53a72b",
"#C c #54634c",
".7 c #54803f",
".3 c #55b02d",
".U c #596354",
".X c #59774a",
".2 c #59c628",
"#w c #5b6a55",
"## c #5cc235",
".c c #5e8849",
".a c #5f884a",
"#z c #63715b",
".S c #63bd3a",
".e c #648e51",
".x c #669052",
".b c #688e55",
".I c #6d6770",
"#n c #6d6d6d",
".v c #6f726d",
".s c #70c14b",
".G c #72c44d",
".N c #75bb56",
"#h c #76c655",
".o c #78c95b",
"#A c #7c8678",
".k c #7e9b70",
".w c #818780",
"#x c #81897d",
".j c #84b06e",
".L c #859e7d",
".# c #89a87b",
".m c #89aa77",
".J c #8ba27f",
".l c #8fa385",
"#f c #90a388",
".d c #91ae83",
".5 c #92c77e",
".M c #99bc87",
".f c #9dc18a",
".4 c #9dd885",
"#u c #9ea19d",
"#g c #a1ba92",
".t c #a3d290",
".i c #a4d28b",
".V c #a5bb97",
".Y c #a5d38f",
".n c #a5dc8d",
".y c #a5dd8c",
".g c #aad891",
".u c #abc59f",
".T c #b0cf9d",
".h c #bbdda6",
".H c #bddbaa",
"QtQtQtQtQtQtQtQtQtQtQtQtQtQtQtQt",
"QtQtQtQt.#.a.b.c.dQtQtQtQtQtQtQt",
"QtQtQt.e.f.g.h.i.j.k.lQtQtQtQtQt",
"QtQt.m.n.o.p.q.r.s.t.u.vQtQtQt.w",
"Qt.x.y.z.A.B.C.D.E.F.G.H.IQt.J.K",
".L.M.N.O.PQtQtQtQt.Q.R.S.T.U.V.W",
".X.Y.Z.0QtQtQtQtQtQt.1.2.3.4.5.6",
".7.8.9QtQtQtQtQtQtQtQt#.###a#b#c",
"#.#d#eQtQtQtQtQtQtQt#f#g#h#i#j#k",
"Qt#l#mQtQtQtQtQtQt#n#o#p#q#r#s#t",
"Qt#u#v#wQtQtQtQtQtQtQtQtQtQtQtQt",
"QtQt#x#y#zQtQtQtQtQtQtQtQtQtQtQt",
"QtQtQt#A#B#CQtQtQtQtQtQtQtQtQtQt",
"QtQtQtQtQt#D#EQtQtQtQtQtQtQtQtQt",
"QtQtQtQtQtQtQtQtQtQtQtQtQtQtQtQt",
"QtQtQtQtQtQtQtQtQtQtQtQtQtQtQtQt"};

