/* XPM */
static char *Redo_xpm[]={
"48 48 256 2",
"Qt c None",
"#P c #000000",
"bf c #000f00",
"be c #001100",
"bd c #001200",
"a1 c #001400",
"bn c #001900",
"bN c #001e00",
"b. c #002200",
"b6 c #002400",
"aS c #002900",
"bR c #002e00",
"b1 c #003200",
"#1 c #003700",
"b4 c #003800",
"#O c #003a00",
"bM c #003d00",
"a0 c #004100",
"aZ c #004600",
"bQ c #004900",
"a2 c #004b00",
"bH c #004e00",
"aY c #005000",
"a3 c #005300",
"bL c #005600",
"bC c #005800",
"aK c #005900",
"aX c #005c00",
"aJ c #005f00",
"bI c #006000",
"b8 c #006300",
"bB c #006400",
"aL c #006600",
"bF c #006800",
"aI c #006a00",
"aW c #006c00",
"bc c #006e00",
"aM c #007000",
"bs c #007300",
"aH c #007500",
"bw c #007700",
"b7 c #007800",
"aN c #007b00",
"a4 c #007c00",
"aV c #007e00",
"br c #008000",
"bA c #008200",
"as c #008300",
"aO c #008500",
"at c #008600",
"ar c #008900",
"bt c #008b00",
"au c #008d00",
"bm c #008e00",
"aq c #009000",
"bT c #009300",
"av c #009500",
"ap c #009900",
"bq c #009b00",
"aP c #009c00",
"aw c #009d00",
"aU c #00a000",
"bz c #00a200",
"ao c #00a300",
"ab c #00a400",
"ax c #00a500",
"aa c #00a700",
"aG c #00a900",
"a# c #00ab00",
"a9 c #00ac00",
"ac c #00af00",
"a. c #00b000",
"ay c #00b100",
"ad c #00b200",
"a5 c #00b300",
"#9 c #00b400",
"ae c #00b500",
"#Z c #00b600",
"an c #00b700",
"#Y c #00b800",
"a6 c #00b900",
"#H c #01b901",
"aF c #02ba02",
"#G c #03ba03",
"#w c #040404",
"#X c #04ba04",
"am c #05ba05",
"bU c #063f06",
"#I c #06bb06",
"#F c #07bb07",
"az c #08bb08",
"#0 c #09bb09",
"b9 c #0a0a0a",
"#J c #0abc0a",
"#W c #0bbc0b",
"#m c #0cbc0c",
"#n c #0dbd0d",
"#l c #0fbd0f",
"#o c #10bd10",
"bO c #11be11",
"aQ c #121212",
"#k c #13be13",
"#v c #144914",
"aE c #14be14",
"#V c #15bf15",
"#p c #16bf16",
"b5 c #171717",
"bg c #17bf17",
"#K c #18c018",
"bu c #19c019",
"ag c #1a4e1a",
"#b c #1b1b1b",
"bE c #1bc01b",
"#j c #1cc11c",
"#N c #1ec11e",
"#L c #1fc21f",
"#R c #212121",
"a7 c #215321",
"bV c #225422",
"bl c #22c222",
"#u c #245624",
"#q c #24c324",
"#M c #25c325",
".3 c #26c326",
".2 c #27c427",
"#i c #28c428",
"#a c #292929",
".4 c #29c429",
"bS c #2b5b2b",
".1 c #2bc52b",
"bh c #2cc52c",
"bW c #2d5d2d",
"#8 c #2dc52d",
"bJ c #2e2e2e",
".5 c #2ec62e",
"bP c #2f5e2f",
"#t c #2fc62f",
"bG c #313131",
"bK c #316031",
"#r c #31c631",
"#s c #33c733",
"## c #346234",
".6 c #34c734",
".0 c #35c835",
".T c #373737",
"#E c #37c837",
"bD c #38c838",
".7 c #39c939",
"bx c #3a3a3a",
"#. c #3b683b",
".8 c #3cc93c",
".S c #3d3d3d",
"by c #3d693d",
".9 c #3dca3d",
"b0 c #40cb40",
".R c #426d42",
".F c #434343",
".Z c #43cb43",
"bb c #45cc45",
"#x c #464646",
"bp c #46cc46",
".Q c #477147",
".P c #48cd48",
".E c #494949",
".O c #49cd49",
"bo c #4a734a",
"#7 c #4acd4a",
"al c #4bce4b",
"#D c #4cce4c",
"b3 c #4d4d4d",
"#h c #4dce4d",
".N c #4ece4e",
".D c #4f774f",
".q c #525252",
"aD c #52d052",
".Y c #54d054",
".C c #557c55",
"bX c #575757",
"b2 c #577d57",
".M c #57d157",
"ba c #58d158",
"aT c #59d159",
".p c #5a5a5a",
".B c #5b805b",
"b# c #5c815c",
"bZ c #5f835f",
".A c #60d360",
".o c #626262",
".L c #64d464",
"#C c #65d565",
"bv c #678a67",
".z c #67d567",
"#Q c #6b6b6b",
"#6 c #6bd66b",
".n c #6c8d6c",
"ak c #6cd76c",
"aC c #6ed76e",
"af c #6f906f",
".e c #707070",
"#U c #71d871",
".y c #72d872",
"bi c #737373",
".K c #73d973",
"bY c #757575",
".m c #799779",
"#g c #7ada7a",
"aB c #7c9a7c",
".X c #7cdb7c",
".d c #7e7e7e",
".x c #7edc7e",
"#B c #7fdc7f",
"aj c #82dd82",
".J c #83dd83",
"#5 c #85de85",
".l c #86a286",
"ah c #8a8a8a",
"#2 c #8b8b8b",
"ai c #8ba58b",
".w c #8bdf8b",
".c c #8d8d8d",
".W c #8fe08f",
"aA c #90a990",
"#f c #90e190",
"bj c #929292",
".I c #92e192",
"#4 c #93ac93",
".k c #94ac94",
"#3 c #969696",
"#A c #96e296",
".v c #98e398",
".b c #9b9b9b",
"#T c #9ce49c",
"#S c #9f9f9f",
"bk c #a0b6a0",
".H c #a0e5a0",
".j c #a1b6a1",
"#e c #a2e5a2",
".u c #a3b8a3",
"aR c #a4b9a4",
".a c #a5a5a5",
"#z c #a5e6a5",
"#y c #ababab",
".i c #abbeab",
".t c #acbfac",
"a8 c #adadad",
"#d c #aec0ae",
".# c #afafaf",
".h c #b2b2b2",
".s c #b4c5b4",
"#c c #b5b5b5",
".V c #b5c6b5",
".g c #b6b6b6",
".f c #b8b8b8",
".G c #b9b9b9",
".U c #bababa",
".r c #bbbbbb",
"QtQtQtQtQtQtQtQtQtQtQtQtQtQtQtQtQtQtQtQtQtQtQtQtQtQtQtQtQtQtQtQtQtQtQtQtQtQtQtQtQtQtQtQtQtQtQtQt",
"QtQtQtQtQtQtQtQtQtQtQtQtQtQtQtQtQtQtQtQtQtQtQtQtQtQtQtQtQtQtQtQtQtQtQtQtQtQtQtQtQtQtQtQtQtQtQtQt",
"QtQtQtQtQtQtQtQtQtQtQtQtQtQtQtQtQtQtQtQtQtQtQtQtQtQtQtQtQtQtQtQtQtQtQtQtQtQtQtQtQtQtQtQtQtQtQtQt",
"QtQtQtQtQtQtQtQtQtQtQtQtQtQtQtQtQtQtQtQtQtQtQtQtQtQtQtQtQtQtQtQtQtQtQtQtQtQtQtQtQtQtQtQtQtQtQtQt",
"QtQtQtQtQtQtQtQtQtQtQtQtQtQtQtQtQtQtQtQtQtQtQtQtQtQtQtQtQtQtQtQtQtQtQtQtQtQtQtQtQtQtQtQtQtQtQtQt",
"QtQtQtQtQtQtQtQtQtQtQtQtQtQtQtQt.#.a.b.c.d.eQtQtQtQtQtQtQtQtQtQtQtQtQtQtQtQtQtQtQtQtQtQtQtQtQtQt",
"QtQtQtQtQtQtQtQtQtQtQtQtQt.f.g.h.i.j.k.l.m.n.o.p.qQtQtQtQtQtQtQtQtQtQtQtQtQtQtQtQtQtQtQtQtQtQtQt",
"QtQtQtQtQtQtQtQtQtQtQt.r.f.s.t.u.v.w.x.y.z.A.B.C.D.E.FQtQtQtQtQtQtQtQtQtQtQtQtQtQtQtQtQtQtQtQtQt",
"QtQtQtQtQtQtQtQtQt.r.G.s.t.H.I.J.K.L.M.N.O.P.O.O.P.Q.R.S.TQtQtQtQtQtQtQtQtQtQtQtQtQtQtQtQtQtQtQt",
"QtQtQtQtQtQtQt.U.G.V.t.H.W.X.z.Y.Z.0.1.2.3.4.5.6.7.8.9#.###a#bQtQtQtQtQtQtQtQtQtQtQtQtQtQtQtQtQt",
"QtQtQtQtQtQt#c.V#d#e#f#g.L#h.7#i#j#k#l#m#n#o#p#j#q.1#r#s#t#u#v#wQtQtQtQtQtQtQtQtQtQtQtQtQtQt#xQt",
"QtQtQtQtQt#y.t#z#A#B#C#D#E#q#p#n#F#G#H#H#H#G#I#J#o#K#L#M#M#N#o#O#PQtQtQtQtQtQtQtQtQtQtQtQt#Q#RQt",
"QtQtQtQt#S.j#T.w#U.Y.7#q#V#W#X#H#Y#Z#Z#Z#Z#Y#Y#H#X#0#l#V#K#p#n#H#1#PQtQtQtQtQtQtQtQtQtQt#2.Q#PQt",
"QtQtQtQt#3#4#5#6#7#8#K#W#X#Y#9a.a#aaababaaa#acadae#Y#G#F#W#n#W#Xae#1#PQtQtQtQtQtQtQtQt.aafag#PQt",
"QtQtQtahaiajakal.1#kamanada#aoapaqarasasatauavawaxa#ay#Z#H#Iaz#F#H#9#1#PQtQtQtQtQtQt.#aA.O#1#PQt",
"QtQtQt.daBaCaD#raEaFadaGawaqasaHaIaJaKaKaJaLaMaNaOaqaPaaa.an#G#F#I#Han#OaQQtQtQtQt#caR.K#jaS#PQt",
"QtQt#Qaf#6aT.8#j#XacaUaqaVaWaXaYaZa0a1a1a1aZa2a3aJaWa4auaPaGa5a6am#F#F#na7#xQtQta8.t.W#Da9b.#PQt",
"QtQt.pb#babb#i#WacaPatbcaKa2a0bdbebf#P#P#Pbebebda1a2aKaIaVaqaoa.#Y#I#nbgbh.Dbibjbk#AaCblbmbn#PQt",
"QtQt#xbobp.6#pa5bqbraLaYa0bebf#P#P#PQtQtQt#P#P#P#Pbea1a2aXbsbtaUa.#H#Wbu.5#7bvaBaj.Kbb#9bwbn#PQt",
"QtQtbxby#E#MambzbAbBa2#Obe#P#PQtQtQtQtQtQtQtQtQtQt#P#Pbda1bCbsauax#9#I#k#qbD#DbababpbEaPbFa1#PQt",
"QtQtbG###tbEaybmaIbH#Obf#PQtQtQtQtQtQtQtQtQtQtQtQtQtQt#P#Pa1bIbrbqaca6#JaE#L.4.5#8#L#ZaubIa1#PQt",
"QtQtbJbK.1#kaxaNbLbMbf#PQtQtQtQtQtQtQtQtQtQtQtQtQtQtQtQtQt#PbNaVbqac#Y#X#F#W#lbO#o#IaGaOaXa1#PQt",
"QtQtbJbP#i#WbqbcbQbe#PQtQtQtQtQtQtQtQtQtQtQtQtQtQtQtQtQtQtQt#PbRaa#Z#X#XaFaF#G#GaF#ZaxasaXa1#PQt",
"QtQt#abS#q#XbTbBa1#PQtQtQtQtQtQtQtQtQtQtQtQtQtQtQtQtQtQtQtQtQt#PbU#o#n#F#Ha6a6a6a6aeaoasaXa1#PQt",
"QtQt#RbV#janaubIa1#PQtQtQtQtQtQtQtQtQtQtQtQtQtQtQtQtQtQtQtQtQt#abW#ibu#JaFa6a6a6a6aeaoasaXa1#PQt",
"QtQtaQ#v#na.araXa1#PQtQtQtQtQtQtQtQtQtQtQtQtQtQtQtQtQtQtQtQtQtbXbo.6bu#G#9adadadada9awaVaKa1#PQt",
"QtQt#P#OaeaaaOaXa1#PQtQtQtQtQtQtQtQtQtQtQtQtQtQtQtQtQtQtQtQtbYbZb0#jaeaxawbqbqbqbqaparbcaYbd#PQt",
"QtQt#Pb1axawasaJa1#PQtQtQtQtQtQtQtQtQtQtQtQtQtQtQtQtQtQtQtbib2#sazbzbta4bwaHaHaHaHbsbFbCa0be#PQt",
"QtQtQt#PbRavasbBa1#PQtQtQtQtQtQtQtQtQtQtQtQtQtQtQtQtQtQtb3bPazaUbAaIaKa3bHbHbHbHbHbHbQa0b4bf#PQt",
"QtQtQt#PaSauaOaWbn#PQtQtQtQtQtQtQtQtQtQtQtQtQtQtQtQtQtb5b4bRaSbNbna1bdbdbebebebebebebebebfbf#PQt",
"QtQtQtQt#PaSaObwbN#PQtQtQtQtQtQtQtQtQtQtQtQtQtQtQtQt#P#P#P#P#P#P#P#P#P#P#P#P#P#P#P#P#P#P#P#P#PQt",
"QtQtQtQt#PaSbra4aMb.#PQtQtQtQtQtQtQtQtQtQtQtQtQtQtQtQtQtQtQtQtQtQtQtQtQtQtQtQtQtQtQtQtQtQtQtQtQt",
"QtQtQtQtQt#Pb6b7b7b6#PQtQtQtQtQtQtQtQtQtQtQtQtQtQtQtQtQtQtQtQtQtQtQtQtQtQtQtQtQtQtQtQtQtQtQtQtQt",
"QtQtQtQtQt#PbNaIbwaVaS#PQtQtQtQtQtQtQtQtQtQtQtQtQtQtQtQtQtQtQtQtQtQtQtQtQtQtQtQtQtQtQtQtQtQtQtQt",
"QtQtQtQtQtQt#PbNaLb7atbR#PQtQtQtQtQtQtQtQtQtQtQtQtQtQtQtQtQtQtQtQtQtQtQtQtQtQtQtQtQtQtQtQtQtQtQt",
"QtQtQtQtQtQtQt#Pbnb8bwaObR#PQtQtQtQtQtQtQtQtQtQtQtQtQtQtQtQtQtQtQtQtQtQtQtQtQtQtQtQtQtQtQtQtQtQt",
"QtQtQtQtQtQtQtQt#PbnaXaIb7aS#PQtQtQtQtQtQtQtQtQtQtQtQtQtQtQtQtQtQtQtQtQtQtQtQtQtQtQtQtQtQtQtQtQt",
"QtQtQtQtQtQtQtQtQt#Pa1bnaXb.#PQtQtQtQtQtQtQtQtQtQtQtQtQtQtQtQtQtQtQtQtQtQtQtQtQtQtQtQtQtQtQtQtQt",
"QtQtQtQtQtQtQtQtQtQt#P#Pa1bnb.#P#PQtQtQtQtQtQtQtQtQtQtQtQtQtQtQtQtQtQtQtQtQtQtQtQtQtQtQtQtQtQtQt",
"QtQtQtQtQtQtQtQtQtQtQtQt#P#Pbnb.bR#Pb9QtQtQtQtQtQtQtQtQtQtQtQtQtQtQtQtQtQtQtQtQtQtQtQtQtQtQtQtQt",
"QtQtQtQtQtQtQtQtQtQtQtQtQtQt#P#Pb.aSbR#P#PQtQtQtQtQtQtQtQtQtQtQtQtQtQtQtQtQtQtQtQtQtQtQtQtQtQtQt",
"QtQtQtQtQtQtQtQtQtQtQtQtQtQtQtQt#P#P#Pb6aS#P#P#PQtQtQtQtQtQtQtQtQtQtQtQtQtQtQtQtQtQtQtQtQtQtQtQt",
"QtQtQtQtQtQtQtQtQtQtQtQtQtQtQtQtQtQtQt#P#P#P#P#P#PQtQtQtQtQtQtQtQtQtQtQtQtQtQtQtQtQtQtQtQtQtQtQt",
"QtQtQtQtQtQtQtQtQtQtQtQtQtQtQtQtQtQtQtQtQtQtQtQtQtQtQtQtQtQtQtQtQtQtQtQtQtQtQtQtQtQtQtQtQtQtQtQt",
"QtQtQtQtQtQtQtQtQtQtQtQtQtQtQtQtQtQtQtQtQtQtQtQtQtQtQtQtQtQtQtQtQtQtQtQtQtQtQtQtQtQtQtQtQtQtQtQt",
"QtQtQtQtQtQtQtQtQtQtQtQtQtQtQtQtQtQtQtQtQtQtQtQtQtQtQtQtQtQtQtQtQtQtQtQtQtQtQtQtQtQtQtQtQtQtQtQt",
"QtQtQtQtQtQtQtQtQtQtQtQtQtQtQtQtQtQtQtQtQtQtQtQtQtQtQtQtQtQtQtQtQtQtQtQtQtQtQtQtQtQtQtQtQtQtQtQt",
"QtQtQtQtQtQtQtQtQtQtQtQtQtQtQtQtQtQtQtQtQtQtQtQtQtQtQtQtQtQtQtQtQtQtQtQtQtQtQtQtQtQtQtQtQtQtQtQt"};
