/* XPM */
static const char *xpmReference48x48[]={
"48 48 56 1",
". c None",
"o c #000000",
"u c #030303",
"p c #050505",
"g c #0d0d0d",
"t c #0e0e0e",
"n c #101010",
"z c #111111",
"h c #1d1d1d",
"q c #1f1f1f",
"R c #252525",
"r c #292929",
"s c #2b2b2b",
"i c #3d3d3d",
"1 c #410000",
"f c #4f4f4f",
"m c #525252",
"G c #535353",
"y c #5b5b5b",
"0 c #5c0000",
"j c #5c5c5c",
"# c #5e5e5e",
"k c #6a6a6a",
"Z c #6b0000",
"l c #6c6c6c",
"e c #7a7a7a",
"A c #7c7c7c",
"a c #7f7f7f",
"W c #800000",
"Y c #850000",
"d c #8b8b8b",
"c c #8e8e8e",
"b c #919191",
"x c #959595",
"v c #989898",
"w c #a1a1a1",
"Q c #a20000",
"V c #b40000",
"X c #b80000",
"L c #c70000",
"U c #ce0000",
"P c #e20000",
"T c #e80000",
"O c #ff0000",
"K c #ff0d0d",
"S c #ff0e0e",
"F c #ff1111",
"N c #ff1818",
"J c #ff2c2c",
"M c #ff3535",
"I c #ff4242",
"E c #ff5353",
"H c #ff5757",
"D c #ff6c6c",
"C c #ff7c7c",
"B c #ff8989",
"................................................",
"................................................",
"................................................",
"..................................#abbcdddefg...",
"...................................hijklllmno...",
"....................................oopqrstoo...",
".....................................oooooooo...",
"......................................ooooooo...",
".......................................oooooo...",
"......................................o.ooooo...",
".....................................o...oooo...",
"....................................o.....ooo...",
"...................................o.......oo...",
"..................................o.........o...",
".................................o..............",
"................................o...............",
"...............................o................",
"..............................o.................",
".............................o..................",
"............................o...................",
"...........................o....................",
"..........................o.....................",
".........................o......................",
"........................o.......................",
".......................o........................",
"......................o.........................",
".....................o..........................",
"....................o...........................",
"...................o............................",
"..................o.............................",
".................o..............................",
"................o...............................",
"...............o................................",
"..............o.................................",
".............o..................................",
"............u...................................",
"...........n....................................",
"..vwxdddayz.....................................",
"..ABCDDDEFo.....................................",
"..GHIJJJKLo.....................................",
"..iMNOOOPQo.....................................",
"..iMNOOOPQo.....................................",
"..iMNOOOPQo.....................................",
"..RSTUUUVWo.....................................",
"..oXYZZZ01o.....................................",
"..ooooooooo.....................................",
"................................................",
"................................................"};
