/* XPM */
static char *ReferenceRotated16x16[] = {
/* width height num_colors chars_per_pixel */
"    33    33        3            1",
/* colors */
". c none",
"# c #000000",
"a c #ff0000",
/* pixels */
".........................########",
".........................########",
".........................##aaaa##",
".........................##aaaa##",
".........................##aaaa##",
".........................##aaaa##",
".........................########",
".........................########",
".......................##........",
".......................##........",
".....................##..........",
".....................##..........",
"...................##............",
"...................##............",
".................##..............",
".................##..............",
"...............##................",
"...............##................",
".............##..................",
".............##..................",
"...........##....................",
"...........##....................",
"###......##......................",
"###......##......................",
"#####..##........................",
"#####..##........................",
"#######..........................",
"#######..........................",
"#########........................",
"#########........................",
"###########......................",
"###########......................",
"###########......................"
};
