/* XPM */
static const char *xpmReference16x16[]={
"16 16 3 1",
". c None",
"# c #000000",
"a c #ff0000",
"...........#####",
"............####",
".............###",
"............#.##",
"...........#...#",
"..........#.....",
".........#......",
"........#.......",
".......#........",
"......#.........",
".....#..........",
"....#...........",
"####............",
"#aa#............",
"#aa#............",
"####............"};

