/* XPM */
static const char * xpmRelationship16x16[] = {
"16 16 6 1",
" 	c none",
".	c #A0A02020F0F0",
"X	c #000000000000",
"o	c #FFFFFFFFFFFF",
"O	c #AAAAAAAAAAAA",
"+	c #FFFF00000000",
"    .Xoooooooooo",
"    .XoXXXXXXXXo",
"    .XoOOOXXXXOo",
"    .XooooX++Xoo",
"    .XoXXXX++XXo",
"    .XoOOXXXXXOo",
"    .XooXXXooooo",
"    .XoXXXXXXXXo",
"    .XXXXOOOOOOo",
"    .XXXXXXXXXXX",
"    XXX.........",
"   XXX          ",
"XXXXX           ",
"X++X            ",
"X++X            ",
"XXXX            "};
