/* XPM */
static char *DownColumn_xpm[]={
"48 48 94 2",
"Qt c None",
".k c #000000",
".C c #008c00",
".B c #00b900",
".A c #00e900",
".z c #00ff00",
".6 c #040404",
"#v c #070707",
".h c #0d0d0d",
".3 c #121212",
".v c #131313",
".y c #13ff13",
".7 c #1d1d1d",
"#r c #2c2c2c",
".u c #2e2e2e",
".x c #2eff2e",
".4 c #393939",
".t c #3a3a3a",
".w c #3aff3a",
".p c #3d3d3d",
".g c #414141",
".5 c #434343",
".M c #4a4a4a",
"#B c #4b4b4b",
".n c #4d4d4d",
".G c #4f4f4f",
".I c #535353",
"## c #5b5b5b",
"#A c #5c5c5c",
".V c #5e5e5e",
"#z c #616161",
".P c #646464",
".f c #676767",
"#q c #686868",
".l c #6b6b6b",
".1 c #707070",
"#u c #757575",
".S c #797979",
".F c #7a7a7a",
".H c #7c7c7c",
"#h c #7e7e7e",
".W c #7f7f7f",
"#y c #808080",
".e c #828282",
".i c #858585",
".E c #8b8b8b",
".s c #8c8c8c",
".d c #8d8d8d",
"#p c #8e8e8e",
"#x c #8f8f8f",
".0 c #909090",
".X c #919191",
".Y c #939393",
".c c #959595",
".Z c #979797",
".D c #989898",
".# c #999999",
"#t c #9c9c9c",
".b c #a1a1a1",
".L c #a2a2a2",
".a c #a3a3a3",
".o c #a5a5a5",
"#. c #aaaaaa",
".O c #acacac",
"#n c #afafaf",
"#a c #b1b1b1",
".8 c #b3b3b3",
"#o c #b6b6b6",
".r c #b9b9b9",
".R c #c3c3c3",
"#m c #c5c5c5",
"#g c #c6c6c6",
"#w c #c7c7c7",
".J c #c8c8c8",
"#b c #d3d3d3",
".m c #d9d9d9",
"#s c #dadada",
".9 c #e0e0e0",
".K c #e2e2e2",
".N c #e5e5e5",
".U c #e6e6e6",
".q c #e9e9e9",
"#l c #eaeaea",
"#k c #ebebeb",
".Q c #ececec",
"#c c #ededed",
"#i c #eeeeee",
"#f c #efefef",
".T c #f6f6f6",
"#d c #fbfbfb",
"#j c #fcfcfc",
"#e c #fdfdfd",
".2 c #fefefe",
".j c #ffffff",
"QtQtQtQtQtQtQtQtQtQtQtQtQtQtQtQtQtQtQtQtQtQtQtQtQtQtQtQtQtQtQtQtQtQtQtQtQtQtQtQtQtQtQtQtQtQtQtQt",
"QtQtQtQt.#.a.b.c.d.d.d.d.d.d.d.d.d.d.d.d.d.d.d.d.d.d.d.d.d.d.d.d.d.d.d.d.d.e.f.g.hQtQtQtQtQtQtQt",
"QtQtQtQt.i.j.j.j.j.j.j.j.j.j.j.j.j.j.j.j.j.j.j.j.j.j.j.j.j.j.j.j.j.j.j.j.j.j.j.j.kQtQtQtQtQtQtQt",
"QtQtQtQt.l.j.j.j.j.j.j.j.j.j.j.j.j.j.j.j.j.j.j.j.j.j.j.j.j.j.j.j.j.j.j.j.j.j.j.m.kQtQtQtQtQtQtQt",
"QtQtQtQt.n.j.j.j.j.j.j.j.j.j.j.j.j.j.j.j.j.j.j.j.j.j.j.j.j.j.j.j.j.j.j.j.j.j.m.o.kQtQtQtQtQtQtQt",
"QtQtQtQt.p.j.j.j.j.j.j.j.j.j.j.j.j.j.j.j.j.j.j.j.j.j.j.j.j.j.j.j.j.j.j.j.j.q.r.s.kQtQtQtQtQtQtQt",
"QtQtQtQt.p.j.j.j.j.j.j.j.j.j.j.j.j.j.j.j.j.j.j.j.j.j.j.j.j.j.j.j.j.j.j.j.j.q.r.s.kQtQtQtQtQtQtQt",
"QtQtQtQt.p.j.j.j.j.j.j.j.j.j.j.j.j.j.j.j.j.j.j.j.j.j.j.j.j.j.j.j.j.j.j.j.j.q.r.s.kQtQtQtQtQtQtQt",
"QtQtQtQt.p.j.j.j.j.j.j.j.j.j.j.j.j.j.j.j.j.j.j.j.j.j.j.j.j.j.j.j.j.j.j.j.j.q.r.s.kQtQtQtQtQtQtQt",
"QtQtQtQt.p.j.j.j.j.j.j.j.j.j.j.j.j.j.j.j.j.j.j.j.j.j.j.j.j.j.j.j.j.j.j.j.j.q.r.s.kQtQtQtQtQtQtQt",
"QtQtQtQt.p.t.u.v.k.k.k.k.k.k.k.k.k.k.k.k.k.k.k.k.k.k.k.k.k.k.k.k.k.k.k.k.k.k.k.k.kQtQtQtQtQtQtQt",
"QtQtQtQt.p.w.x.y.z.z.z.z.z.z.z.z.z.z.z.z.z.z.z.z.z.z.z.z.z.z.z.z.z.z.z.z.z.A.B.C.kQtQtQtQtQtQtQt",
"QtQtQtQt.p.w.x.y.z.z.z.z.z.z.z.z.z.z.z.z.z.z.z.z.z.z.z.z.z.z.z.z.z.z.z.z.z.A.B.C.kQtQtQtQtQtQtQt",
"QtQtQtQt.p.w.x.y.z.z.z.z.z.z.z.z.z.z.z.z.z.z.z.z.z.z.z.z.z.z.z.z.z.z.z.z.z.A.B.C.kQtQtQtQtQtQtQt",
"QtQtQtQt.p.w.x.y.z.z.z.z.z.z.z.z.z.z.z.z.z.z.z.z.z.z.z.z.z.z.D.b.c.E.F.G.h.A.B.C.kQtQtQtQtQtQtQt",
"QtQtQtQt.p.w.x.y.z.z.z.z.z.z.z.z.z.z.z.z.z.z.z.z.z.z.z.z.z.z.H.j.j.j.j.j.k.A.B.C.kQtQtQtQtQtQtQt",
"QtQtQtQt.p.w.x.y.z.z.z.z.z.z.z.z.z.z.z.z.z.z.z.z.z.z.z.z.z.z.I.j.j.j.j.J.k.A.B.C.kQtQtQtQtQtQtQt",
"QtQtQtQt.p.w.x.y.z.z.z.z.z.z.z.z.z.z.z.z.z.z.z.z.z.z.z.z.z.z.p.j.j.j.K.L.k.A.B.C.kQtQtQtQtQtQtQt",
"QtQtQtQt.p.w.x.y.z.z.z.z.z.z.z.z.z.z.z.z.z.z.z.z.z.z.z.z.z.z.p.j.j.j.K.L.k.A.B.C.kQtQtQtQtQtQtQt",
"QtQtQtQt.p.t.u.v.k.k.k.k.k.k.k.k.k.k.k.k.k.k.k.k.k.k.k.k.k.k.p.j.j.j.K.L.k.k.k.k.kQtQtQtQtQtQtQt",
"QtQtQtQt.p.j.j.j.j.j.j.j.j.j.j.j.j.j.j.j.j.j.j.j.j.j.j.j.j.j.p.j.j.j.K.L.k.q.r.s.kQtQtQtQtQtQtQt",
"QtQtQtQt.p.j.j.j.j.j.j.j.j.j.j.j.j.j.j.j.j.j.j.j.j.j.j.j.j.j.p.j.j.j.K.L.k.q.r.s.kQtQtQtQtQtQtQt",
"QtQtQtQt.p.j.j.j.j.j.j.j.j.j.j.j.j.j.j.j.j.j.j.j.j.j.j.j.j.j.p.j.j.j.K.L.k.q.r.s.kQtQtQtQtQtQtQt",
"QtQtQtQt.p.j.j.j.j.j.j.j.j.j.j.j.j.j.j.j.j.j.j.j.j.j.j.j.j.j.p.j.j.j.K.L.k.q.r.s.kQtQtQtQtQtQtQt",
"QtQtQtQt.p.j.j.j.j.j.j.j.j.j.j.j.j.j.j.j.j.j.j.j.j.j.j.j.j.j.p.j.j.j.K.L.k.q.r.s.kQtQtQtQtQtQtQt",
"QtQtQtQt.p.j.j.j.j.j.j.j.j.j.j.j.j.j.j.j.j.j.j.j.j.j.j.j.j.j.p.j.j.j.K.L.k.q.r.s.kQtQtQtQtQtQtQt",
"QtQtQtQt.p.j.j.j.j.j.j.j.j.j.j.j.j.j.j.j.j.j.j.j.j.j.j.j.j.j.p.j.j.j.K.L.k.q.r.s.kQtQtQtQtQtQtQt",
"QtQtQtQt.p.j.j.j.j.j.j.j.j.j.j.j.j.j.j.j.j.j.j.j.j.j.j.j.j.j.p.j.j.j.K.L.k.q.r.s.kQtQtQtQtQtQtQt",
"QtQtQtQt.p.t.u.v.k.k.k.k.k.k.k.k.k.k.k.k.k.k.k.k.k.k.k.k.k.k.p.j.j.j.K.L.k.k.k.k.kQtQtQtQtQtQtQt",
"QtQtQtQt.p.j.j.j.j.j.j.j.j.j.j.j.j.j.j.j.j.j.j.j.j.j.j.j.j.j.M.j.j.j.N.O.k.q.r.s.kQtQtQtQtQtQtQt",
"QtQtQtQt.p.j.j.j.j.j.j.j.j.j.j.j.j.j.j.j.j.j.j.j.j.j.j.j.j.j.P.j.j.j.Q.R.k.q.r.s.kQtQtQtQtQtQtQt",
"QtQtQtQt.p.j.j.j.j.j.j.j.j.j.j.j.j.j.j.j.j.j.j.j.j.j.j.j.j.j.S.j.j.j.T.U.k.q.r.s.kQtQtQtQtQtQtQt",
"QtQtQtQt.p.j.j.j.j.j.j.j.j.j.j.j.j.j.j.j.j.j.j.V.W.X.X.Y.Z.0.1.j.j.j.2.j.3.4.P.S.1.5.6.kQtQtQtQt",
"QtQtQtQt.p.j.j.j.j.j.j.j.j.j.j.j.j.j.j.j.j.j.j.j.7.j.j.j.j.j.j.j.j.j.j.j.j.j.j.j.j.8.kQtQtQtQtQt",
"QtQtQtQt.p.j.j.j.j.j.j.j.j.j.j.j.j.j.j.j.j.j.j.j.j.k.9.j.j.j.j.j.j.j.j.j.j.j.Q#.##.kQtQtQtQtQtQt",
"QtQtQtQt.p.j.j.j.j.j.j.j.j.j.j.j.j.j.j.j.j.j.j.j.j.j.k#a#b#c#d.2.j.j.j#e#f#g#h.g.kQtQtQtQtQtQtQt",
"QtQtQtQt.p.j.j.j.j.j.j.j.j.j.j.j.j.j.j.j.j.j.j.j.j.j.j.k#a#b#i#d.2.j#e#f#g#h.g.k.kQtQtQtQtQtQtQt",
"QtQtQtQt.p.t.u.v.k.k.k.k.k.k.k.k.k.k.k.k.k.k.k.k.k.k.k.k.k#a#b#i#d#j#f#g#h.g.k.k.kQtQtQtQtQtQtQt",
"QtQtQtQt.p.j.j.j.j.j.j.j.j.j.j.j.j.j.j.j.j.j.j.j.j.j.j.j.j.k#a#b#k#l#m#h.g.k.r.s.kQtQtQtQtQtQtQt",
"QtQtQtQt.p.j.j.j.j.j.j.j.j.j.j.j.j.j.j.j.j.j.j.j.j.j.j.j.j.j.k#n.R#o.F.g.k.q.r.s.kQtQtQtQtQtQtQt",
"QtQtQtQt.p.j.j.j.j.j.j.j.j.j.j.j.j.j.j.j.j.j.j.j.j.j.j.j.j.j.j.k#p#q.g.k.j.q.r.s.kQtQtQtQtQtQtQt",
"QtQtQtQt.p.j.j.j.j.j.j.j.j.j.j.j.j.j.j.j.j.j.j.j.j.j.j.j.j.j.j.j.k.g.k.j.j.q.r.s.kQtQtQtQtQtQtQt",
"QtQtQtQt.p.j.j.j.j.j.j.j.j.j.j.j.j.j.j.j.j.j.j.j.j.j.j.j.j.j.j.j.j.k.j.j.j.q.r.s.kQtQtQtQtQtQtQt",
"QtQtQtQt#r.j.j#i#s#s#s#s#s#s#s#s#s#s#s#s#s#s#s#s#s#s#s#s#s#s#s#s#s#s#s#s#s#g#t#u.kQtQtQtQtQtQtQt",
"QtQtQtQt#v.q#w.L#x#x#x#x#x#x#x#x#x#x#x#x#x#x#x#x#x#x#x#x#x#x#x#x#x#x#x#x#x#y#z.M.kQtQtQtQtQtQtQt",
"QtQtQtQt.k.O#y#A#B#B#B#B#B#B#B#B#B#B#B#B#B#B#B#B#B#B#B#B#B#B#B#B#B#B#B#B#B.g.g.g.kQtQtQtQtQtQtQt",
"QtQtQtQt.k.k.k.k.k.k.k.k.k.k.k.k.k.k.k.k.k.k.k.k.k.k.k.k.k.k.k.k.k.k.k.k.k.k.k.k.kQtQtQtQtQtQtQt",
"QtQtQtQtQtQtQtQtQtQtQtQtQtQtQtQtQtQtQtQtQtQtQtQtQtQtQtQtQtQtQtQtQtQtQtQtQtQtQtQtQtQtQtQtQtQtQtQt"};
