/* XPM */
static const char *xpmRowDown16x16[]={
"16 16 34 1",
"# c None",
". c #000000",
"b c #00ff00",
"e c #010101",
"r c #020202",
"q c #030303",
"l c #040404",
"d c #060606",
"m c #070707",
"h c #080808",
"i c #090909",
"f c #0b0b0b",
"c c #0e0e0e",
"o c #0f0f0f",
"n c #111111",
"E c #c4c4c4",
"B c #cfcfcf",
"C c #d4d4d4",
"F c #dcdcdc",
"x c #e1e1e1",
"D c #e2e2e2",
"A c #e3e3e3",
"y c #ececec",
"w c #ededed",
"v c #eeeeee",
"u c #f0f0f0",
"s c #f5f5f5",
"p c #f7f7f7",
"t c #f8f8f8",
"z c #f9f9f9",
"k c #fcfcfc",
"g c #fdfdfd",
"j c #fefefe",
"a c #ffffff",
"............####",
".aaaaaaaaaa.####",
".aaaaaaaaaa.####",
"............####",
".bbbbbbbbbcde###",
".bbbbbbbbbfg.###",
"..........ha.###",
".aaaaaaaaaha.###",
".aaaaaaaaaij.###",
"..........ck.###",
".aaaaaalmnopeqr.",
".aaaaaaqsptkuvw.",
"........rxyzAB.#",
".aaaaaaaarCDE.##",
".aaaaaaaaaeF.###",
"............####"};


