/* XPM */
static const char *xpmDeleteRow48x48[]={
"48 48 256 2",
"Qt c None",
".k c #000000",
"a3 c #003d00",
"aD c #003f00",
"ag c #004a00",
"b. c #009c00",
"aG c #00c000",
"an c #00c300",
"#7 c #00cd00",
"av c #00d800",
"aQ c #00dd00",
"a2 c #00e600",
"aC c #00ec00",
"af c #00f800",
"au c #00fa00",
"#6 c #00ff00",
"#8 c #026700",
"aj c #030000",
"ao c #035100",
"a6 c #040303",
"aB c #050000",
".w c #050505",
"by c #060909",
"#x c #070000",
"b# c #070400",
"b1 c #070707",
"a9 c #07f907",
"aH c #084c00",
"aR c #086500",
"bc c #0a0000",
"aw c #0a6500",
".h c #0d0d0d",
"bO c #0f0000",
"#R c #120606",
".v c #131313",
"#5 c #13ff13",
".y c #140000",
"#f c #140606",
"bv c #141414",
"aX c #177225",
"#S c #1a1f1f",
"#K c #1b3737",
"bo c #1c0b0b",
".P c #1c1c1c",
".N c #1d1d1d",
"aY c #1d2b00",
"bi c #1e1e1e",
"ac c #1f4949",
"#J c #222e2e",
"aV c #235f49",
"bj c #240000",
"aU c #260b0b",
"#Y c #261616",
".S c #292929",
"#l c #2a2a2a",
"br c #2c0000",
".K c #2c2c2c",
"bp c #2d5454",
".u c #2e2e2e",
"#4 c #2eff2e",
"bP c #2f1818",
".G c #303030",
".Y c #311e1e",
".O c #313131",
".Z c #323232",
"bf c #341a1a",
"aL c #352020",
"ab c #371212",
".0 c #390000",
".t c #3a3a3a",
"#3 c #3aff3a",
"bg c #3b4f4f",
"bu c #3c1313",
".p c #3d3d3d",
"ak c #3d5050",
"bE c #3f1a1a",
"bF c #3f5959",
"aN c #402020",
"a1 c #410000",
".g c #414141",
"aM c #415252",
"bL c #432828",
"#c c #444444",
"#N c #454545",
"bh c #464c4c",
"#V c #480000",
"bM c #495c5c",
"b7 c #4a4a4a",
"a7 c #4a5656",
"as c #4a5c5c",
"#C c #4b0000",
"b9 c #4b4b4b",
".n c #4d4d4d",
"#w c #4e0000",
"aA c #4f0000",
"#Z c #505858",
"ax c #510000",
"#0 c #516363",
"#9 c #521900",
"bl c #530000",
"bz c #535a5a",
"ah c #540000",
"aS c #550000",
"#o c #560000",
"#r c #572929",
"#L c #575555",
".H c #5a0000",
"#i c #5b0000",
"#y c #5b5454",
".M c #5b5b5b",
"bb c #5e0000",
"#1 c #5e6666",
"#O c #5f0000",
"b6 c #616161",
"aE c #620000",
".7 c #625252",
"a8 c #63b364",
"#D c #650000",
".3 c #653131",
"ap c #661100",
".A c #663636",
"a4 c #670000",
"#a c #674343",
".f c #676767",
".8 c #690202",
"aW c #69ab69",
"bk c #6a6464",
"#d c #6b0000",
".l c #6b6b6b",
"bw c #6c0000",
"aP c #6d0707",
"aI c #6d0f00",
".x c #6d6d6d",
"bJ c #710000",
"#n c #726a6a",
"#k c #730000",
"b0 c #757575",
"bI c #760000",
".z c #760202",
"#z c #761111",
".T c #770303",
"#T c #777878",
"#I c #780a0a",
"bV c #787878",
"b5 c #808080",
"#2 c #808181",
"#X c #810000",
"am c #818181",
".e c #828282",
".2 c #830000",
".Q c #838383",
"be c #840000",
"ad c #848787",
".i c #858585",
"bt c #870000",
"aK c #880000",
"#s c #881313",
".1 c #890000",
".s c #8c8c8c",
".d c #8d8d8d",
"b4 c #8f8f8f",
"bx c #900000",
"al c #909090",
"#U c #919090",
".J c #920000",
"aO c #940000",
"#H c #950000",
".c c #959595",
"a5 c #960000",
"#B c #970000",
".4 c #979797",
"## c #980000",
"#G c #990000",
"ae c #999797",
".# c #999999",
"bZ c #9c9c9c",
"aF c #9e0000",
"bT c #9e9e9e",
"at c #a0a0a0",
".X c #a10404",
".b c #a1a1a1",
"ba c #a20000",
"b3 c #a2a2a2",
".a c #a3a3a3",
"#e c #a40000",
".o c #a5a5a5",
"#g c #a6a6a6",
"aa c #a80000",
".F c #aaaaaa",
"b8 c #acacac",
"bG c #acb2b2",
"ar c #ad0000",
"bq c #adacac",
"ai c #ae0000",
"bn c #ae0202",
"bN c #b0b0b0",
"aT c #b10101",
"bA c #b1b2b2",
"bC c #b20000",
".R c #b5b5b5",
"aZ c #b60100",
"bQ c #b8b8b8",
".r c #b9b9b9",
"#Q c #ba0101",
"bs c #be0303",
"#q c #bf0101",
".6 c #c5c5c5",
"a. c #c60000",
"bK c #c60505",
"bY c #c6c6c6",
"b2 c #c7c7c7",
"#W c #cb0000",
"#E c #cd0000",
".9 c #ce0000",
"az c #d30000",
"a0 c #d60000",
"aq c #d70000",
"#v c #d90000",
".m c #d9d9d9",
"bX c #dadada",
"#p c #dd0000",
"#A c #de0000",
"bm c #e00000",
".C c #e1e1e1",
"bD c #e20202",
"bd c #e30000",
".D c #e4e4e4",
"#F c #e60000",
".5 c #e6e6e6",
"#b c #e7e7e7",
"bH c #e9e8e8",
".q c #e9e9e9",
"#. c #ea0000",
".L c #eaeaea",
"a# c #eb0000",
"#h c #ebebeb",
"#t c #ec0000",
"bU c #ececec",
"#M c #ededed",
"bW c #eeeeee",
".E c #efefef",
".U c #f00000",
"bS c #f3f3f3",
"ay c #f40000",
"#P c #f80000",
"bB c #f8f8f8",
"#j c #f90000",
"bR c #fafafa",
".I c #fb0000",
"#m c #fbfbfb",
".W c #fc0000",
".B c #fcfcfc",
"aJ c #fd0000",
"#u c #fe0000",
".V c #ff0000",
".j c #ffffff",
"QtQtQtQtQtQtQtQtQtQtQtQtQtQtQtQtQtQtQtQtQtQtQtQtQtQtQtQtQtQtQtQtQtQtQtQtQtQtQtQtQtQtQtQtQtQtQtQt",
"Qt.#.a.b.c.d.d.d.d.d.d.d.d.d.d.d.d.d.d.d.d.d.d.d.d.d.d.d.d.d.d.d.d.d.e.f.g.hQtQtQtQtQtQtQtQtQtQt",
"Qt.i.j.j.j.j.j.j.j.j.j.j.j.j.j.j.j.j.j.j.j.j.j.j.j.j.j.j.j.j.j.j.j.j.j.j.j.kQtQtQtQtQtQtQtQtQtQt",
"Qt.l.j.j.j.j.j.j.j.j.j.j.j.j.j.j.j.j.j.j.j.j.j.j.j.j.j.j.j.j.j.j.j.j.j.j.m.kQtQtQtQtQtQtQtQtQtQt",
"Qt.n.j.j.j.j.j.j.j.j.j.j.j.j.j.j.j.j.j.j.j.j.j.j.j.j.j.j.j.j.j.j.j.j.j.m.o.kQtQtQtQtQtQtQtQtQtQt",
"Qt.p.j.j.j.j.j.j.j.j.j.j.j.j.j.j.j.j.j.j.j.j.j.j.j.j.j.j.j.j.j.j.j.j.q.r.s.kQtQtQtQtQtQtQtQtQtQt",
"Qt.p.j.j.j.j.j.j.j.j.j.j.j.j.j.j.j.j.j.j.j.j.j.j.j.j.j.j.j.j.j.j.j.j.q.r.s.kQtQtQtQtQtQtQtQtQtQt",
"Qt.p.j.j.j.j.j.j.j.j.j.j.j.j.j.j.j.j.j.j.j.j.j.j.j.j.j.j.j.j.j.j.j.j.q.r.s.kQtQtQtQtQtQtQtQtQtQt",
"Qt.p.j.j.j.j.j.j.j.j.j.j.j.j.j.j.j.j.j.j.j.j.j.j.j.j.j.j.j.j.j.j.j.j.q.r.s.kQtQtQtQtQtQtQtQtQtQt",
"Qt.p.j.j.j.j.j.j.j.j.j.j.j.j.j.j.j.j.j.j.j.j.j.j.j.j.j.j.j.j.j.j.j.j.q.r.s.kQtQtQtQtQtQtQtQtQtQt",
"Qt.p.t.u.v.k.k.k.k.k.k.k.k.k.k.k.k.k.k.k.k.k.k.k.k.k.k.k.k.k.k.k.k.k.k.k.k.k.wQtQtQtQtQtQtQtQtQt",
"Qt.p.j.j.j.j.j.j.j.j.j.j.j.j.j.j.j.j.j.j.j.j.j.j.j.j.j.j.j.j.j.j.j.j.q.r.x.y.z.AQtQtQtQtQtQtQtQt",
"Qt.p.j.j.j.j.j.j.j.j.j.j.j.j.j.j.j.j.j.j.j.j.j.B.q.C.D.C.E.j.j.j.j.j.q.F.G.H.I.J.KQtQtQtQtQtQtQt",
"Qt.p.j.j.j.j.j.j.j.j.j.j.j.j.j.j.j.j.j.j.j.j.j.L.M.N.O.P.Q.j.j.j.j.j.R.S.T.U.V.W.X.YQtQtQtQtQtQt",
"Qt.p.j.j.j.j.j.j.j.j.j.j.j.j.j.j.j.j.j.j.j.j.j.D.Z.0.1.2.3.4.5.j.j.6.7.8.9.V.V.V#.###aQtQtQtQtQt",
"Qt.p.j.j.j.j.j.j.j.j.j.j.j.j.j.j.j.j.j.j.j.j.j#b#c#d.V.V#e#f#g.j#h.n#i#j.V.V.V.V.V.V#k#lQtQtQtQt",
"Qt.p.j.j.j.j.j.j.j.j.j.j.j.j.j.j.j.j.j.j.j.j.j#m.D#n#o#p.V#q#r#c.t#s#t#u.V.V.V.V#v#w#x#lQtQtQtQt",
"Qt.p.j.j.j.j.j.j.j.j.j.j.j.j.j.j.j.j.j.j.j.j.j.j.j.6#y#z#A#u#B#C#D#E.V.V.V#F#G#H#I#J#K#LQtQtQtQt",
"Qt.p.j.j.j.j.j.j.j.j.j.j.j.j.j.j.j.j.j.j.j.j.j.j.j.j#M#N#O#P.V.V.V.V.V.V.V#Q#R.k#S#T#UQtQtQtQtQt",
"Qt.p.t.u.v.k.k.k.k.k.k.k.k.k.k.k.k.k.k.k.k.k.k.k.k.k.k.k#x#V#W.V.V.V.V.V#X#Y#Z#0#1#2QtQtQtQtQtQt",
"Qt.p#3#4#5#6#6#6#6#6#6#6#6#6#6#6#6#6#6#6#6#6#6#6#6#6#6#6#7#8#9a..V.Va#aaabacadaeQtQtQtQtQtQtQtQt",
"Qt.p#3#4#5#6#6#6#6#6#6#6#6#6#6#6#6#6#6#6#6#6#6#6#6#6#6#6#6afagah.V.VaiajakalamQtQtQtQtQtQtQtQtQt",
"Qt.p#3#4#5#6#6#6#6#6#6#6#6#6#6#6#6#6#6#6#6#6#6#6#6#6#6#6anaoapaq.V.VarajasatQtQtQtQtQtQtQtQtQtQt",
"Qt.p#3#4#5#6#6#6#6#6#6#6#6#6#6#6#6#6#6#6#6#6#6#6#6#6auavawaxaqayaiayazaAaB.kQtQtQtQtQtQtQtQtQtQt",
"Qt.p#3#4#5#6#6#6#6#6#6#6#6#6#6#6#6#6#6#6#6#6#6#6#6#6aCaDaE.V.VaFajaF.V.VahaBQtQtQtQtQtQtQtQtQtQt",
"Qt.p#3#4#5#6#6#6#6#6#6#6#6#6#6#6#6#6#6#6#6#6#6#6#6aGaHaI#FaJaKaLaMaNaOaJ#paPaBQtQtQtQtQtQtQtQtQt",
"Qt.p#3#4#5#6#6#6#6#6#6#6#6#6#6#6#6#6#6#6#6#6#6auaQaRaS#A.VaTaUaVaWaXaYaZ.Va0a1aBQtQtQtQtQtQtQtQt",
"Qt.p#3#4#5#6#6#6#6#6#6#6#6#6#6#6#6#6#6#6#6#6#6a2a3a4.V.Va5a6a7a8a9#6b.b#ba.V.VbbaBQtQtQtQtQtQtQt",
"Qt.p.t.u.v.k.k.k.k.k.k.k.k.k.k.k.k.k.k.k.k.k.kbc#dbd#Pbebfbgbhbi.k.k.k.kbjaF.V#daBQtQtQtQtQtQtQt",
"Qt.p.j.j.j.j.j.j.j.j.j.j.j.j.j.j.j.j.j.j.j.6bkblbm.Vbnbobpbq.5.j.j.j.q.r.sbrbsbtbuaBQtQtQtQtQtQt",
"Qt.p.j.j.j.j.j.j.j.j.j.j.j.j.j.j.j.j.j.j.jbvbw.V.VbxbybzbAbB.j.j.j.j.q.r.s.kaBbCbDaBQtQtQtQtQtQt",
"Qt.p.j.j.j.j.j.j.j.j.j.j.j.j.j.j.j.j.j.j.j.k.2.V#BbEbFbGbH.j.j.j.j.j.q.r.s.kQtaBbIaBQtQtQtQtQtQt",
"Qt.p.j.j.j.j.j.j.j.j.j.j.j.j.j.j.j.j.j.j.j.kbJbKbLbMbN.L.j.j.j.j.j.j.q.r.s.kQtQtaBaBQtQtQtQtQtQt",
"Qt.p.j.j.j.j.j.j.j.j.j.j.j.j.j.j.j.j.j.j.j.kbObPbQbRbS.B.j.j.j.j.j.j.q.r.s.kQtQtQtaBQtQtQtQtQtQt",
"Qt.p.j.j.j.j.j.j.j.j.j.j.j.j.j.j.j.j.j.j.j.k.PbTbU.j.j.j.j.j.j.j.j.j.q.r.s.kQtQtQtQtQtQtQtQtQtQt",
"Qt.p.j.j.j.j.j.j.j.j.j.j.j.j.j.j.j.j.j.j.j#lbV.j.j.j.j.j.j.j.j.j.j.j.q.r.s.kQtQtQtQtQtQtQtQtQtQt",
"Qt.p.j.j.j.j.j.j.j.j.j.j.j.j.j.j.j.j.j.j.j.j.j.j.j.j.j.j.j.j.j.j.j.j.q.r.s.kQtQtQtQtQtQtQtQtQtQt",
"Qt.p.t.u.v.k.k.k.k.k.k.k.k.k.k.k.k.k.k.k.k.k.k.k.k.k.k.k.k.k.k.k.k.k.k.k.k.kQtQtQtQtQtQtQtQtQtQt",
"Qt.p.j.j.j.j.j.j.j.j.j.j.j.j.j.j.j.j.j.j.j.j.j.j.j.j.j.j.j.j.j.j.j.j.q.r.s.kQtQtQtQtQtQtQtQtQtQt",
"Qt.p.j.j.j.j.j.j.j.j.j.j.j.j.j.j.j.j.j.j.j.j.j.j.j.j.j.j.j.j.j.j.j.j.q.r.s.kQtQtQtQtQtQtQtQtQtQt",
"Qt.p.j.j.j.j.j.j.j.j.j.j.j.j.j.j.j.j.j.j.j.j.j.j.j.j.j.j.j.j.j.j.j.j.q.r.s.kQtQtQtQtQtQtQtQtQtQt",
"Qt.p.j.j.j.j.j.j.j.j.j.j.j.j.j.j.j.j.j.j.j.j.j.j.j.j.j.j.j.j.j.j.j.j.q.r.s.kQtQtQtQtQtQtQtQtQtQt",
"Qt.p.j.j.j.j.j.j.j.j.j.j.j.j.j.j.j.j.j.j.j.j.j.j.j.j.j.j.j.j.j.j.j.j.q.r.s.kQtQtQtQtQtQtQtQtQtQt",
"Qt.K.j.jbWbXbXbXbXbXbXbXbXbXbXbXbXbXbXbXbXbXbXbXbXbXbXbXbXbXbXbXbXbXbYbZb0.kQtQtQtQtQtQtQtQtQtQt",
"Qtb1.qb2b3b4b4b4b4b4b4b4b4b4b4b4b4b4b4b4b4b4b4b4b4b4b4b4b4b4b4b4b4b4b5b6b7.kQtQtQtQtQtQtQtQtQtQt",
"Qt.kb8b5.Mb9b9b9b9b9b9b9b9b9b9b9b9b9b9b9b9b9b9b9b9b9b9b9b9b9b9b9b9b9.g.g.g.kQtQtQtQtQtQtQtQtQtQt",
"Qt.k.k.k.k.k.k.k.k.k.k.k.k.k.k.k.k.k.k.k.k.k.k.k.k.k.k.k.k.k.k.k.k.k.k.k.k.kQtQtQtQtQtQtQtQtQtQt",
"QtQtQtQtQtQtQtQtQtQtQtQtQtQtQtQtQtQtQtQtQtQtQtQtQtQtQtQtQtQtQtQtQtQtQtQtQtQtQtQtQtQtQtQtQtQtQtQt"};

