/* XPM */
static char *EditColumn_xpm[]={
"48 48 235 2",
"Qt c None",
".k c #000000",
"bx c #000100",
"a8 c #008c00",
"a7 c #00b900",
"a6 c #00e900",
"aV c #00ff00",
"bs c #010101",
"#u c #020100",
"bt c #020202",
"#Z c #040500",
"#T c #050300",
"by c #050605",
"bF c #070707",
"#J c #070900",
"bB c #0c140c",
".h c #0d0d0d",
"bA c #0e0e0e",
"#K c #0f0100",
"bz c #101110",
"#v c #120000",
".Y c #131313",
"aU c #13ff13",
"#l c #141010",
"bn c #141414",
"bm c #1c1c1c",
"#B c #200000",
"br c #252525",
"#4 c #2c2c02",
"bC c #2c2c2c",
".X c #2e2e2e",
"aT c #2eff2e",
"bu c #323232",
"bl c #353535",
"#r c #370000",
".W c #3a3a3a",
"aS c #3aff3a",
".p c #3d3d3d",
"#D c #3f0000",
"#A c #400000",
".g c #414141",
"a5 c #414529",
"aW c #464646",
"#q c #480000",
"#m c #490202",
"bL c #4a4a4a",
"bO c #4b4b4b",
".n c #4d4d4d",
"bg c #4f4f4f",
"## c #543434",
"#3 c #555504",
"a9 c #595959",
"#i c #5a0000",
"bN c #5c5c5c",
"aL c #5f5f5f",
"bK c #616161",
"#z c #630000",
"bw c #656565",
".f c #676767",
"#p c #680000",
"#. c #686f67",
"#h c #690000",
"bh c #6a6a6a",
".l c #6b6b6b",
"bv c #6c6c6c",
"aX c #6f6f6f",
"bE c #757575",
"#y c #770000",
"#o c #790000",
".8 c #7a0000",
"#w c #7d0000",
"#e c #7d0101",
"bo c #7d7d7d",
"#x c #7e0000",
"bf c #7e7e7e",
"#n c #7f0000",
"#g c #7f0202",
"aE c #7f7f7f",
"bJ c #808080",
"#f c #810404",
".e c #828282",
"#d c #830000",
".5 c #830707",
".V c #840909",
"ah c #858578",
".i c #858585",
".M c #860d0d",
".6 c #860f0f",
"aM c #868686",
".E c #870f0f",
".U c #881212",
".7 c #891313",
".L c #891414",
".s c #8c8c8c",
".0 c #8d6767",
".d c #8d8d8d",
".Z c #8e8e8e",
"bI c #8f8f8f",
"aH c #8f8fa6",
".T c #901616",
".y c #922525",
"#Q c #939373",
"b. c #939393",
".c c #959595",
"#1 c #999972",
".# c #999999",
".4 c #9a0202",
"az c #9a9a9a",
"aF c #9b9b9b",
"aI c #9c9c5a",
"bd c #9c9c9c",
"ay c #9e9e6e",
"a1 c #9f9fae",
".F c #a0a0a0",
".b c #a1a1a1",
"bH c #a2a2a2",
".a c #a3a3a3",
".N c #a49090",
"an c #a4a46d",
"a2 c #a4a4b9",
"ar c #a5a566",
".o c #a5a5a5",
"ax c #a6a65e",
"#R c #a7a767",
"#a c #a81010",
"#U c #acac56",
"#H c #acac5f",
"bM c #acacac",
".G c #b08f8f",
"#I c #b0af61",
"aC c #b0b03b",
"am c #b1b15c",
"aa c #b2b260",
"#2 c #b3b361",
"aQ c #b3b3e5",
".z c #b49a9a",
"aK c #b4b41c",
"aq c #b4b44c",
"#Y c #b5b51c",
"aR c #b5b597",
".S c #b61010",
"#V c #b6b65f",
".u c #b76e6e",
"ag c #b7b743",
"a# c #b7b74c",
"ae c #b7b75b",
"ad c #b9b95b",
".r c #b9b9b9",
"aY c #bababa",
"#c c #bb0000",
".O c #bb6868",
"aP c #bfbfdd",
".x c #c05b5b",
"aB c #c0c049",
"#P c #c1c143",
".H c #c36969",
"ac c #c3c33c",
"aD c #c3c345",
"as c #c3c356",
"a4 c #c5c5c5",
"be c #c6c6c6",
".D c #c74040",
"bG c #c7c7c7",
"bc c #c7c7c8",
"aN c #c8c8c8",
"a0 c #c8c8ce",
"ai c #c9c95a",
"b# c #cbcbcb",
"aO c #cbcbdf",
"al c #cdcd37",
".A c #ce9393",
"bi c #cecece",
"#6 c #cfcf2b",
".1 c #d13434",
"aw c #d1d127",
".t c #d29999",
".K c #d31f1f",
"#b c #d40303",
".v c #d4a5a5",
"#7 c #d5d54e",
".w c #d69393",
"#W c #d7d74f",
"aJ c #d9d922",
".m c #d9d9d9",
"#8 c #dada22",
"bD c #dadada",
"aG c #dbdbdc",
".B c #dc7070",
".C c #dd4040",
"bq c #dddddd",
".P c #de3535",
"#G c #dede22",
".R c #df0a0a",
"#O c #dfdf21",
".3 c #e10404",
"ab c #e1e11c",
"ak c #e1e11d",
"bp c #e1e1e1",
"ap c #e3e31a",
".I c #e73838",
"#X c #e9e924",
".q c #e9e9e9",
"aZ c #ededed",
"bk c #eeeeee",
"#S c #efef00",
"a3 c #efefef",
"aA c #f0f07a",
"a. c #f1f10e",
".Q c #f31212",
"#0 c #f4f409",
"bj c #f4f4f4",
"af c #f5f509",
"av c #f6f606",
"aj c #f7f708",
"#N c #f8f80d",
".J c #fb1c1c",
"#9 c #fbfb04",
"au c #fcfc19",
"bb c #fcfcfc",
"#F c #fdfd02",
"#5 c #fdfd10",
".2 c #fe1111",
"ao c #fefe01",
"#M c #fefe04",
"#L c #fefe10",
"ba c #fefefe",
"#C c #ffff00",
"#t c #ffff02",
"#E c #ffff05",
"#s c #ffff10",
"#k c #ffff34",
"at c #ffff56",
"#j c #ffff67",
".9 c #ffff90",
".j c #ffffff",
"QtQtQtQtQtQtQtQtQtQtQtQtQtQtQtQtQtQtQtQtQtQtQtQtQtQtQtQtQtQtQtQtQtQtQtQtQtQtQtQtQtQtQtQtQtQtQtQt",
"Qt.#.a.b.c.d.d.d.d.d.d.d.d.d.d.d.d.d.d.d.d.d.d.d.d.d.d.d.d.d.d.d.d.d.e.f.g.hQtQtQtQtQtQtQtQtQtQt",
"Qt.i.j.j.j.j.j.j.j.j.j.j.j.j.j.j.j.j.j.j.j.j.j.j.j.j.j.j.j.j.j.j.j.j.j.j.j.kQtQtQtQtQtQtQtQtQtQt",
"Qt.l.j.j.j.j.j.j.j.j.j.j.j.j.j.j.j.j.j.j.j.j.j.j.j.j.j.j.j.j.j.j.j.j.j.j.m.kQtQtQtQtQtQtQtQtQtQt",
"Qt.n.j.j.j.j.j.j.j.j.j.j.j.j.j.j.j.j.j.j.j.j.j.j.j.j.j.j.j.j.j.j.j.j.j.m.o.kQtQtQtQtQtQtQtQtQtQt",
"Qt.p.j.j.j.j.j.j.j.j.j.j.j.j.j.j.j.j.j.j.j.j.j.j.j.j.j.j.j.j.j.j.j.j.q.r.s.kQt.t.uQtQtQtQtQtQtQt",
"Qt.p.j.j.j.j.j.j.j.j.j.j.j.j.j.j.j.j.j.j.j.j.j.j.j.j.j.j.j.j.j.j.j.j.q.r.s.k.v.w.x.yQtQtQtQtQtQt",
"Qt.p.j.j.j.j.j.j.j.j.j.j.j.j.j.j.j.j.j.j.j.j.j.j.j.j.j.j.j.j.j.j.j.j.q.r.s.z.A.B.C.D.EQtQtQtQtQt",
"Qt.p.j.j.j.j.j.j.j.j.j.j.j.j.j.j.j.j.j.j.j.j.j.j.j.j.j.j.j.j.j.j.j.j.q.r.F.G.H.I.J.K.L.MQtQtQtQt",
"Qt.p.j.j.j.j.j.j.j.j.j.j.j.j.j.j.j.j.j.j.j.j.j.j.j.j.j.j.j.j.j.j.j.j.q.F.N.O.P.Q.R.S.T.U.VQtQtQt",
"Qt.p.W.X.Y.k.k.k.k.k.k.k.k.k.k.k.k.k.k.k.k.k.k.k.k.k.k.k.k.k.k.k.k.k.F.Z.0.1.2.3.4.5.6.7.5.8QtQt",
"Qt.p.j.j.j.j.j.j.j.j.j.j.j.j.j.j.j.j.j.j.j.j.j.j.j.j.j.j.j.j.j.j.j.F.9#.###a#b#c#d#e#f.V#g#h#iQt",
"Qt.p.j.j.j.j.j.j.j.j.j.j.j.j.j.j.j.j.j.j.j.j.j.j.j.j.j.j.j.j.j.j.F.9#j#k#l#m#n.8#n#n#n#o#p#q#rQt",
"Qt.p.j.j.j.j.j.j.j.j.j.j.j.j.j.j.j.j.j.j.j.j.j.j.j.j.j.j.j.j.j.F.9#j#k#s#t#u#v#n#w#x#y#z#A#B#BQt",
"Qt.p.j.j.j.j.j.j.j.j.j.j.j.j.j.j.j.j.j.j.j.j.j.j.j.j.j.j.j.j.F.9#j#k#s#t#C#C.k#v#x#y#z#D#B#BQtQt",
"Qt.p.j.j.j.j.j.j.j.j.j.j.j.j.j.j.j.j.j.j.j.j.j.j.j.j.j.j.j.F.9#j#k#s#E#F#G#H#I#J#K#z#D#B#BQtQtQt",
"Qt.p.j.j.j.j.j.j.j.j.j.j.j.j.j.j.j.j.j.j.j.j.j.j.j.j.j.j.F.9#j#k#L#M#N#O#P#Q#R#S#T.k#B.kQtQtQtQt",
"Qt.p.j.j.j.j.j.j.j.j.j.j.j.j.j.j.j.j.j.j.j.j.j.j.j.j.j.F.9#j#k#s#t#F#G#U#V#W#X#Y#Z.k.kQtQtQtQtQt",
"Qt.p.j.j.j.j.j.j.j.j.j.j.j.j.j.j.j.j.j.j.j.j.j.j.j.j.F.9#j#k#s#t#0#O#P#1#2#X#X#3#4.kQtQtQtQtQtQt",
"Qt.p.W.X.Y.k.k.k.k.k.k.k.k.k.k.k.k.k.k.k.k.k.k.k.k.F.9#j#k#5#t#C#6#U#V#7#8#Y#3#4.kQtQtQtQtQtQtQt",
"Qt.p.j.j.j.j.j.j.j.j.j.j.j.j.j.j.j.j.j.j.j.j.j.j.F.9#j#k#5#t#9a.a##1aa#8#Y#3#4.kQtQtQtQtQtQtQtQt",
"Qt.p.j.j.j.j.j.j.j.j.j.j.j.j.j.j.j.j.j.j.j.j.j.F.9#j#k#s#t#9abacadae#8#Y#3#4.kQtQtQtQtQtQtQtQtQt",
"Qt.p.j.j.j.j.j.j.j.j.j.j.j.j.j.j.j.j.j.j.j.j.F.9#j#k#s#t#Cafagahai#8#Y#3#4.kQtQtQtQtQtQtQtQtQtQt",
"Qt.p.j.j.j.j.j.j.j.j.j.j.j.j.j.j.j.j.j.j.j.F.9#j#k#s#tajakalaman#8#Y#3#4.k.kQtQtQtQtQtQtQtQtQtQt",
"Qt.p.j.j.j.j.j.j.j.j.j.j.j.j.j.j.j.j.j.j.F.j.j#k#s#Eaoapaqaras#8#Y#3#4.k.s.kQtQtQtQtQtQtQtQtQtQt",
"Qt.p.j.j.j.j.j.j.j.j.j.j.j.j.j.j.j.j.j.F.j.j.j.jatauavawaxay#8#Y#3#4.k.r.s.kQtQtQtQtQtQtQtQtQtQt",
"Qt.p.j.j.j.j.j.j.j.j.j.j.j.j.j.j.j.jaz.j.j.j.j.j.jaAaBaCaD#8#Y#3#4.k.q.r.s.kQtQtQtQtQtQtQtQtQtQt",
"Qt.p.j.j.j.j.j.j.j.j.j.j.j.j.j.j.jaEaF.j.j.j.j.j.jaGaHaIaJaK#3#4.k.j.q.r.s.kQtQtQtQtQtQtQtQtQtQt",
"Qt.p.W.X.Y.k.k.k.k.k.k.k.k.k.k.k.kaLaMaN.j.j.j.jaOaPaQaRaK#3#4.k.k.k.k.k.k.kQtQtQtQtQtQtQtQtQtQt",
"Qt.paSaTaUaVaVaVaVaVaVaVaVaVaVaVaVaWaXaYaZ.j.ja0a1a2a3a4a5#4.kaVaVaVa6a7a8.kQtQtQtQtQtQtQtQtQtQt",
"Qt.paSaTaUaVaVaVaVaVaVaVaVaVaVaVaV.pa9b.b#babbbcbda3bebf.g.kaVaVaVaVa6a7a8.kQtQtQtQtQtQtQtQtQtQt",
"Qt.paSaTaUaVaVaVaVaVaVaVaVaVaVaVaV.p.gbgbhbi.jbjbka4bf.g.kaVaVaVaVaVa6a7a8.kQtQtQtQtQtQtQtQtQtQt",
"Qt.paSaTaUaVaVaVaVaVaVaVaVaVaVaVaV.pblbmbnbobpbqa4bo.g.kaVaVaVaVaVaVa6a7a8.kQtQtQtQtQtQtQtQtQtQt",
"Qt.paSaTaUaVaVaVaVaVaVaVaVaVaVaVaVbr.hbsbtbubvbw.g.g.kaVaVaVaVaVaVaVa6a7a8.kQtQtQtQtQtQtQtQtQtQt",
"Qt.paSaTaUaVaVaVaVaVaVaVaVaVaVaVaV.k.kbxbxbybzbAbB.kaVaVaVaVaVaVaVaVa6a7a8.kQtQtQtQtQtQtQtQtQtQt",
"Qt.paSaTaUaVaVaVaVaVaVaVaVaVaVaVaV.k.k.k.k.k.k.k.kaVaVaVaVaVaVaVaVaVa6a7a8.kQtQtQtQtQtQtQtQtQtQt",
"Qt.paSaTaUaVaVaVaVaVaVaVaVaVaVaVaVaVaVaVaVaVaVaVaVaVaVaVaVaVaVaVaVaVa6a7a8.kQtQtQtQtQtQtQtQtQtQt",
"Qt.p.W.X.Y.k.k.k.k.k.k.k.k.k.k.k.k.k.k.k.k.k.k.k.k.k.k.k.k.k.k.k.k.k.k.k.k.kQtQtQtQtQtQtQtQtQtQt",
"Qt.p.j.j.j.j.j.j.j.j.j.j.j.j.j.j.j.j.j.j.j.j.j.j.j.j.j.j.j.j.j.j.j.j.q.r.s.kQtQtQtQtQtQtQtQtQtQt",
"Qt.p.j.j.j.j.j.j.j.j.j.j.j.j.j.j.j.j.j.j.j.j.j.j.j.j.j.j.j.j.j.j.j.j.q.r.s.kQtQtQtQtQtQtQtQtQtQt",
"Qt.p.j.j.j.j.j.j.j.j.j.j.j.j.j.j.j.j.j.j.j.j.j.j.j.j.j.j.j.j.j.j.j.j.q.r.s.kQtQtQtQtQtQtQtQtQtQt",
"Qt.p.j.j.j.j.j.j.j.j.j.j.j.j.j.j.j.j.j.j.j.j.j.j.j.j.j.j.j.j.j.j.j.j.q.r.s.kQtQtQtQtQtQtQtQtQtQt",
"Qt.p.j.j.j.j.j.j.j.j.j.j.j.j.j.j.j.j.j.j.j.j.j.j.j.j.j.j.j.j.j.j.j.j.q.r.s.kQtQtQtQtQtQtQtQtQtQt",
"QtbC.j.jbkbDbDbDbDbDbDbDbDbDbDbDbDbDbDbDbDbDbDbDbDbDbDbDbDbDbDbDbDbDbebdbE.kQtQtQtQtQtQtQtQtQtQt",
"QtbF.qbGbHbIbIbIbIbIbIbIbIbIbIbIbIbIbIbIbIbIbIbIbIbIbIbIbIbIbIbIbIbIbJbKbL.kQtQtQtQtQtQtQtQtQtQt",
"Qt.kbMbJbNbObObObObObObObObObObObObObObObObObObObObObObObObObObObObO.g.g.g.kQtQtQtQtQtQtQtQtQtQt",
"Qt.k.k.k.k.k.k.k.k.k.k.k.k.k.k.k.k.k.k.k.k.k.k.k.k.k.k.k.k.k.k.k.k.k.k.k.k.kQtQtQtQtQtQtQtQtQtQt",
"QtQtQtQtQtQtQtQtQtQtQtQtQtQtQtQtQtQtQtQtQtQtQtQtQtQtQtQtQtQtQtQtQtQtQtQtQtQtQtQtQtQtQtQtQtQtQtQt"};
