/* XPM */
static char *xpmAddRow48x48[]={
"48 48 234 2",
"Qt c None",
".n c #000000",
"b# c #00b900",
"b. c #00e900",
"#Y c #00ff00",
"#0 c #01fd02",
"#Z c #01fe02",
"#M c #030304",
"bg c #040400",
"as c #04ff00",
"#N c #050506",
"bE c #070707",
"aj c #08ff00",
".h c #0d0d0d",
"bf c #111114",
"#L c #131313",
"#X c #13ff13",
"by c #2c2c2c",
"#K c #2e2e2e",
"#W c #2eff2e",
"a9 c #35e920",
"#J c #3a3a3a",
"#V c #3aff3a",
".M c #3d3d3d",
"at c #3eff00",
".g c #414141",
"a1 c #43ef00",
"aG c #43ff00",
"#1 c #44ff00",
"#O c #454601",
"aZ c #45ff02",
"a2 c #478e00",
"ab c #47ff00",
"a0 c #48ff00",
"bK c #4a4a4a",
"bN c #4b4b4b",
"ak c #4cff00",
".A c #4d4d4d",
"bM c #5c5c5c",
"bJ c #616161",
".f c #676767",
".o c #6b6b6b",
"be c #747457",
"bD c #757575",
"a8 c #76a27a",
"bI c #808080",
".e c #828282",
"aY c #84ea24",
".i c #858585",
".X c #8c8c8c",
".d c #8d8d8d",
"aS c #8dff00",
"bH c #8f8f8f",
".c c #959595",
".# c #999999",
"bC c #9c9c9c",
".b c #a1a1a1",
"bG c #a2a2a2",
".a c #a3a3a3",
".K c #a5a5a5",
".9 c #a8ab6b",
"al c #abff00",
"bL c #acacac",
"aN c #aef600",
"aX c #b7b75f",
".W c #b9b9b9",
"au c #b9ff00",
"bp c #babab7",
"aM c #bbfd02",
"aO c #bcea00",
"aH c #bcff00",
"a7 c #bfc250",
"aT c #c3ff00",
"bB c #c6c6c6",
"bF c #c7c7c7",
"bd c #c9c948",
"#2 c #caff0c",
"bl c #cbcb51",
".8 c #cbcc88",
"#P c #ccd912",
"#b c #cdcc42",
"aR c #cdcc43",
"#a c #cdcd90",
"aL c #cdfa12",
"#6 c #cfff05",
".P c #d0d03e",
"bm c #d0d096",
".B c #d2d256",
"bj c #d3d339",
"bv c #d5d597",
".C c #d7d735",
".y c #d9d9d9",
"a4 c #dada49",
"bA c #dadada",
"aK c #daec25",
"aP c #daee00",
"ac c #daff00",
".1 c #dcdc47",
".0 c #dcdc8d",
"bc c #e0e029",
".O c #e1e198",
"#i c #e1ea26",
"aJ c #e3e225",
"aW c #e3e325",
"#n c #e5e59c",
"bn c #e6e6df",
".p c #e9e91d",
"bs c #e9e946",
".V c #e9e9e9",
"bu c #eaea4d",
".D c #ebeb1b",
"#h c #ebeb33",
"am c #ebff00",
"bi c #ecec1a",
".2 c #eded18",
"bk c #eded19",
"aA c #eec600",
"a3 c #eeed17",
".z c #eeee17",
".7 c #eeeeb8",
"bz c #eeeeee",
"#o c #eef01d",
"#A c #eef72d",
"br c #efef16",
"aI c #efff00",
".q c #f0f014",
"ai c #f1fe37",
"az c #f2cf01",
"#c c #f2f010",
".Q c #f2f211",
"aB c #f3cc00",
"a6 c #f3f311",
"a5 c #f3f3db",
"bw c #f3f3e3",
"aU c #f4ff00",
"#j c #f5f40d",
".Z c #f5f5d8",
"#m c #f5f5ef",
"aw c #f5f908",
".N c #f6f6da",
"aE c #f6f6ed",
"#z c #f6f9be",
"ay c #f7e106",
"aQ c #f7f500",
".L c #f7f70a",
"aa c #f7ff39",
"#v c #f8ed09",
"ax c #f8f309",
"#g c #f8f84a",
"#u c #f9ec08",
"ah c #f9ed08",
".Y c #f9f909",
"#w c #f9f90d",
"#Q c #f9ff08",
"ar c #faeb06",
"#B c #faf306",
".3 c #faf906",
"bh c #fafa06",
".E c #fafa07",
"bb c #fafaed",
"a# c #fafe06",
"#t c #fbfa0a",
".r c #fbfb05",
"bq c #fbfb10",
"## c #fbfbf3",
"#3 c #fbff06",
"aC c #fce000",
"bx c #fcfcfc",
"#5 c #fcff32",
"#p c #fdee02",
"aD c #fdf402",
"#l c #fdfdfd",
"#y c #fdfdfe",
"#7 c #fdfe02",
"av c #fdfe03",
"#x c #fdfe0a",
"#4 c #fdff03",
".s c #fefe01",
"#s c #fefe0f",
"aF c #fefefc",
"bo c #fefefe",
"aV c #feff00",
"#T c #ff0000",
"#S c #ff1700",
"a. c #ff2700",
"#9 c #ff5400",
"#E c #ff7d00",
"#D c #ff9500",
"#F c #ff9600",
"#R c #ffab00",
"#8 c #ffba00",
"#C c #ffc900",
"#G c #ffcc00",
"ap c #ffcf00",
"ao c #ffd300",
"aq c #ffd900",
"ag c #ffdb00",
"af c #ffdc00",
"ae c #ffdd00",
"ad c #ffed00",
"#q c #ffed07",
"an c #ffef00",
"#H c #fff700",
"#d c #fffd0c",
"#r c #fffd0d",
"#f c #fffe44",
".k c #ffff00",
".l c #ffff01",
"#. c #ffff03",
"ba c #ffff04",
".m c #ffff05",
"#k c #ffff11",
".R c #ffff12",
"#I c #ffff14",
".F c #ffff1c",
".4 c #ffff23",
"#U c #ffff24",
"#e c #ffff2a",
".t c #ffff38",
"bt c #ffff51",
".S c #ffff56",
".G c #ffff61",
".5 c #ffff6e",
".H c #ffffa1",
".u c #ffffb0",
".6 c #ffffb1",
".T c #ffffb8",
".I c #ffffdd",
".v c #ffffe6",
".U c #fffff5",
".J c #fffffa",
".w c #fffffb",
".x c #fffffe",
".j c #ffffff",
"QtQtQtQtQtQtQtQtQtQtQtQtQtQtQtQtQtQtQtQtQtQtQtQtQtQtQtQtQtQtQtQtQtQtQtQtQtQtQtQtQtQtQtQtQtQtQtQt",
"Qt.#.a.b.c.d.d.d.d.d.d.d.d.d.d.d.d.d.d.d.d.d.d.d.d.d.d.d.d.d.d.d.d.d.e.f.g.hQtQtQtQtQtQtQtQtQtQt",
"Qt.i.j.j.j.j.j.j.j.j.j.j.j.j.j.j.j.j.j.j.j.j.j.j.j.k.k.l.m.j.j.j.j.j.j.j.j.nQtQtQtQt.k.kQtQtQtQt",
"Qt.o.j.j.j.j.j.j.j.j.j.j.j.j.j.j.j.j.j.j.j.j.j.j.j.p.q.r.s.t.u.v.w.x.j.j.y.nQtQtQt.k.z.kQtQtQtQt",
"Qt.A.j.j.j.j.j.j.j.j.j.j.j.j.j.j.j.j.j.j.j.j.j.j.j.B.C.D.E.F.G.H.I.J.j.y.K.nQtQt.k.k.L.kQtQtQtQt",
"Qt.M.j.j.j.j.j.j.j.j.j.j.j.j.j.j.j.j.j.j.j.j.j.j.j.N.O.P.Q.k.R.S.T.U.V.W.X.nQt.k.Q.Y.l.kQtQtQtQt",
"Qt.M.j.j.j.j.j.j.j.j.j.j.j.j.j.j.j.j.j.j.j.j.j.j.j.j.Z.0.1.2.3.4.5.6.7.8.9.n.k.k#..R.kQtQtQtQtQt",
"Qt.M.j.j.j.j.j.j.j.j.j.j.j.j.j.j.j.j.j.j.j.j.j.j.j.j.j###a#b#c#d#e#f#g#h#i.k.k#j#k.kQtQtQtQtQtQt",
"Qt.M.j.j.j.j.j.j.j.j.j.j.j.j.j.j.j.j.j.j.j.j.j.j.j.j.j#l#m#n#o#p#q#r#s#t#u#v#w#x.kQtQtQtQtQtQtQt",
"Qt.M.j.j.j.j.j.j.j.j.j.j.j.j.j.j.j.j.j.j.j.j.j.j.j.j#y#y.j#z#A#B#C#D#E#F#G#H#I.kQtQtQtQtQtQtQtQt",
"Qt.M#J#K#L.n.n.n.n.n.n.n.n.n.n.n.n.n.n.n.n.n.n.n.n.n#M#N.n#O#P#Q#R#S#T#S#R.k#UQtQtQtQtQtQtQtQtQt",
"Qt.M#V#W#X#Y#Y#Y#Y#Y#Y#Y#Y#Y#Y#Y#Y#Y#Y#Y#Y#Y#Y#Y#Y#Y#Z#0#Y#1#2#3#R#S#T#S#R#4#5QtQtQtQtQtQtQtQtQt",
"Qt.M#V#W#X#Y#Y#Y#Y#Y#Y#Y#Y#Y#Y#Y#Y#Y#Y#Y#Y#Y#Y#Y#Y#Y#Y#Y#Y#1#6#7#8#9a.#9#8a#aaQtQtQtQtQtQtQtQtQt",
"Qt.M#V#W#X#Y#Y#Y#Y#Y#Y#Y#Y#Y#Y#Y#Y#Y#Y#Y#Y#Y#Y#Y#Y#Y#Y#Y#YabacadaeafagafaeahaiQtQtQtQtQtQtQtQtQt",
"Qt.M#V#W#X#Y#Y#Y#Y#Y#Y#Y#Y#Y#Y#Y#Y#Y#Y#Y#Y#Y#Y#Y#Y#Y#Yajakalamanagaoapaoaqar#AQtQtQtQtQtQtQtQtQt",
"Qt.M#V#W#X#Y#Y#Y#Y#Y#Y#Y#Y#Y#Y#Y#Y#Y#Y#Y#Y#Y#Y#Y#Y#YasatauavawaxayazaAaBaCaD#oQtaEaFQtQtQtQtQtQt",
"Qt.M#V#W#X#Y#Y#Y#Y#Y#Y#Y#Y#Y#Y#Y#Y#Y#Y#Y#Y#Y#Y#Y#Y#YaGaHaI#jaJaKaLaMaNaOaPaQ#caRQt##QtQtQtQtQtQt",
"Qt.M#V#W#X#Y#Y#Y#Y#Y#Y#Y#Y#Y#Y#Y#Y#Y#Y#Y#Y#Y#Y#Y#YaSaTaUaVaWaXaYaZa0a1a2.k.k.3a3a4Qta5QtQtQtQtQt",
"Qt.M#V#W#X#Y#Y#Y#Y#Y#Y#Y#Y#Y#Y#Y#Y#Y#Y#Y#Y#Y#Y#Y#Y.k.l.Ya6a7a8a9#Y#Yb.b#a2.k.kba.Q.PQtbbQtQtQtQt",
"Qt.M#J#K#L.n.n.n.n.n.n.n.n.n.n.n.n.n.n.n.n.n.n.n.n.k.Lbcbdbebf.n.n.n.nbg.na2.k.kbhbibjQtQtQtQtQt",
"Qt.M.j.j.j.j.j.j.j.j.j.j.j.j.j.j.j.j.j.j.j.j.j.j.j.lbkblbmbnbo.j.j.j.Vbp.X.na2.k.kbqbrbsQtQtQtQt",
"Qt.M.j.j.j.j.j.j.j.j.j.j.j.j.j.j.j.j.j.j.j.j.j.j.jbtbubvbw.jbx#y.j.j.V.W.X.nQt.k.k.k.k.kQtQtQtQt",
"Qt.M.j.j.j.j.j.j.j.j.j.j.j.j.j.j.j.j.j.j.j.j.j.j.j.j.j.j.j.j.j.j.j.j.V.W.X.nQtQt.k.k.kQtQtQtQtQt",
"Qt.M.j.j.j.j.j.j.j.j.j.j.j.j.j.j.j.j.j.j.j.j.j.j.j.j.j.j.j.j.j.j.j.j.V.W.X.nQtQtQtQtQtQtQtQtQtQt",
"Qt.M.j.j.j.j.j.j.j.j.j.j.j.j.j.j.j.j.j.j.j.j.j.j.j.j.j.j.j.j.j.j.j.j.V.W.X.nQtQtQtQtQtQtQtQtQtQt",
"Qt.M.j.j.j.j.j.j.j.j.j.j.j.j.j.j.j.j.j.j.j.j.j.j.j.j.j.j.j.j.j.j.j.j.V.W.X.nQtQtQtQtQtQtQtQtQtQt",
"Qt.M.j.j.j.j.j.j.j.j.j.j.j.j.j.j.j.j.j.j.j.j.j.j.j.j.j.j.j.j.j.j.j.j.V.W.X.nQtQtQtQtQtQtQtQtQtQt",
"Qt.M.j.j.j.j.j.j.j.j.j.j.j.j.j.j.j.j.j.j.j.j.j.j.j.j.j.j.j.j.j.j.j.j.V.W.X.nQtQtQtQtQtQtQtQtQtQt",
"Qt.M#J#K#L.n.n.n.n.n.n.n.n.n.n.n.n.n.n.n.n.n.n.n.n.n.n.n.n.n.n.n.n.n.n.n.n.nQtQtQtQtQtQtQtQtQtQt",
"Qt.M.j.j.j.j.j.j.j.j.j.j.j.j.j.j.j.j.j.j.j.j.j.j.j.j.j.j.j.j.j.j.j.j.V.W.X.nQtQtQtQtQtQtQtQtQtQt",
"Qt.M.j.j.j.j.j.j.j.j.j.j.j.j.j.j.j.j.j.j.j.j.j.j.j.j.j.j.j.j.j.j.j.j.V.W.X.nQtQtQtQtQtQtQtQtQtQt",
"Qt.M.j.j.j.j.j.j.j.j.j.j.j.j.j.j.j.j.j.j.j.j.j.j.j.j.j.j.j.j.j.j.j.j.V.W.X.nQtQtQtQtQtQtQtQtQtQt",
"Qt.M.j.j.j.j.j.j.j.j.j.j.j.j.j.j.j.j.j.j.j.j.j.j.j.j.j.j.j.j.j.j.j.j.V.W.X.nQtQtQtQtQtQtQtQtQtQt",
"Qt.M.j.j.j.j.j.j.j.j.j.j.j.j.j.j.j.j.j.j.j.j.j.j.j.j.j.j.j.j.j.j.j.j.V.W.X.nQtQtQtQtQtQtQtQtQtQt",
"Qt.M.j.j.j.j.j.j.j.j.j.j.j.j.j.j.j.j.j.j.j.j.j.j.j.j.j.j.j.j.j.j.j.j.V.W.X.nQtQtQtQtQtQtQtQtQtQt",
"Qt.M.j.j.j.j.j.j.j.j.j.j.j.j.j.j.j.j.j.j.j.j.j.j.j.j.j.j.j.j.j.j.j.j.V.W.X.nQtQtQtQtQtQtQtQtQtQt",
"Qt.M.j.j.j.j.j.j.j.j.j.j.j.j.j.j.j.j.j.j.j.j.j.j.j.j.j.j.j.j.j.j.j.j.V.W.X.nQtQtQtQtQtQtQtQtQtQt",
"Qt.M#J#K#L.n.n.n.n.n.n.n.n.n.n.n.n.n.n.n.n.n.n.n.n.n.n.n.n.n.n.n.n.n.n.n.n.nQtQtQtQtQtQtQtQtQtQt",
"Qt.M.j.j.j.j.j.j.j.j.j.j.j.j.j.j.j.j.j.j.j.j.j.j.j.j.j.j.j.j.j.j.j.j.V.W.X.nQtQtQtQtQtQtQtQtQtQt",
"Qt.M.j.j.j.j.j.j.j.j.j.j.j.j.j.j.j.j.j.j.j.j.j.j.j.j.j.j.j.j.j.j.j.j.V.W.X.nQtQtQtQtQtQtQtQtQtQt",
"Qt.M.j.j.j.j.j.j.j.j.j.j.j.j.j.j.j.j.j.j.j.j.j.j.j.j.j.j.j.j.j.j.j.j.V.W.X.nQtQtQtQtQtQtQtQtQtQt",
"Qt.M.j.j.j.j.j.j.j.j.j.j.j.j.j.j.j.j.j.j.j.j.j.j.j.j.j.j.j.j.j.j.j.j.V.W.X.nQtQtQtQtQtQtQtQtQtQt",
"Qt.M.j.j.j.j.j.j.j.j.j.j.j.j.j.j.j.j.j.j.j.j.j.j.j.j.j.j.j.j.j.j.j.j.V.W.X.nQtQtQtQtQtQtQtQtQtQt",
"Qtby.j.jbzbAbAbAbAbAbAbAbAbAbAbAbAbAbAbAbAbAbAbAbAbAbAbAbAbAbAbAbAbAbBbCbD.nQtQtQtQtQtQtQtQtQtQt",
"QtbE.VbFbGbHbHbHbHbHbHbHbHbHbHbHbHbHbHbHbHbHbHbHbHbHbHbHbHbHbHbHbHbHbIbJbK.nQtQtQtQtQtQtQtQtQtQt",
"Qt.nbLbIbMbNbNbNbNbNbNbNbNbNbNbNbNbNbNbNbNbNbNbNbNbNbNbNbNbNbNbNbNbN.g.g.g.nQtQtQtQtQtQtQtQtQtQt",
"Qt.n.n.n.n.n.n.n.n.n.n.n.n.n.n.n.n.n.n.n.n.n.n.n.n.n.n.n.n.n.n.n.n.n.n.n.n.nQtQtQtQtQtQtQtQtQtQt",
"QtQtQtQtQtQtQtQtQtQtQtQtQtQtQtQtQtQtQtQtQtQtQtQtQtQtQtQtQtQtQtQtQtQtQtQtQtQtQtQtQtQtQtQtQtQtQtQt"};


