/* XPM */
static const char * xpmRowNewPlus16x16[] = {
"16 16 10 1",
" 	c #000000000000",
".	c none",
"X	c #FFFFFFFFFFFF",
"o	c #FFFFFFFF0000",
"O	c #91A391A391A3",
"+	c #FFFF00000000",
"@	c #C0EFFFFFC0EF",
"#	c #0000FFFF0000",
"$	c #0000809F0000",
"%	c #0000C0EF0000",
"            ....",
" XXXXXXXooX ..Oo",
" XXXXXXXOoo .Ooo",
"         Oooooo.",
" XXXXXXXXXo++o..",
" XXXXXXXXXo++o..",
"         oooooO.",
" XXXX  XXXO .ooO",
" XXX @@  XX ..oo",
"    @@@##   ....",
" X #####$ X ....",
" X %%##$$ X ....",
"   %%%$$    ....",
" X %%%$ XXX ....",
" X    $ XXX ....",
"            ...."};
