/* XPM */
static char *UpColumn_xpm[]={
"48 48 84 2",
"Qt c None",
".k c #000000",
"#. c #008c00",
".9 c #00b900",
".8 c #00e900",
".7 c #00ff00",
".X c #020202",
"#l c #070707",
".y c #0a0a0a",
".h c #0d0d0d",
".1 c #0e0e0e",
".w c #111111",
".B c #131313",
".6 c #13ff13",
"## c #252525",
"#g c #2c2c2c",
".A c #2e2e2e",
".5 c #2eff2e",
".z c #3a3a3a",
".4 c #3aff3a",
".p c #3d3d3d",
".g c #414141",
".u c #424242",
"#p c #4a4a4a",
"#r c #4b4b4b",
".n c #4d4d4d",
".L c #525252",
"#f c #5c5c5c",
"#o c #616161",
".f c #676767",
".l c #6b6b6b",
"#k c #757575",
".U c #7a7a7a",
".V c #7d7d7d",
"#d c #808080",
".e c #828282",
".i c #858585",
".s c #8c8c8c",
".d c #8d8d8d",
".T c #8e8e8e",
"#n c #8f8f8f",
".c c #959595",
".# c #999999",
".O c #9b9b9b",
".2 c #9c9c9c",
".W c #9f9f9f",
".x c #a0a0a0",
".b c #a1a1a1",
".v c #a2a2a2",
".a c #a3a3a3",
".t c #a4a4a4",
".o c #a5a5a5",
".N c #aaaaaa",
"#q c #acacac",
".S c #b3b3b3",
"#c c #b4b4b4",
".P c #b6b6b6",
"#e c #b8b8b8",
".r c #b9b9b9",
".Z c #bbbbbb",
"#j c #c6c6c6",
"#m c #c7c7c7",
"#b c #cecece",
".m c #d9d9d9",
"#i c #dadada",
".Q c #dbdbdb",
".R c #dddddd",
".H c #e0e0e0",
".I c #e1e1e1",
".3 c #e2e2e2",
".M c #e3e3e3",
".0 c #e4e4e4",
"#a c #e8e8e8",
".q c #e9e9e9",
".J c #eaeaea",
".Y c #ececec",
"#h c #eeeeee",
".K c #efefef",
".E c #f5f5f5",
".D c #f6f6f6",
".F c #fbfbfb",
".G c #fdfdfd",
".C c #fefefe",
".j c #ffffff",
"QtQtQtQtQtQtQtQtQtQtQtQtQtQtQtQtQtQtQtQtQtQtQtQtQtQtQtQtQtQtQtQtQtQtQtQtQtQtQtQtQtQtQtQtQtQtQtQt",
"QtQtQtQt.#.a.b.c.d.d.d.d.d.d.d.d.d.d.d.d.d.d.d.d.d.d.d.d.d.d.d.d.d.d.d.d.d.e.f.g.hQtQtQtQtQtQtQt",
"QtQtQtQt.i.j.j.j.j.j.j.j.j.j.j.j.j.j.j.j.j.j.j.j.j.j.j.j.j.j.j.j.j.j.j.j.j.j.j.j.kQtQtQtQtQtQtQt",
"QtQtQtQt.l.j.j.j.j.j.j.j.j.j.j.j.j.j.j.j.j.j.j.j.j.j.j.j.j.j.j.j.j.j.j.j.j.j.j.m.kQtQtQtQtQtQtQt",
"QtQtQtQt.n.j.j.j.j.j.j.j.j.j.j.j.j.j.j.j.j.j.j.j.j.j.j.j.j.j.j.j.j.j.j.j.j.j.m.o.kQtQtQtQtQtQtQt",
"QtQtQtQt.p.j.j.j.j.j.j.j.j.j.j.j.j.j.j.j.j.j.j.j.j.j.j.j.j.j.j.j.j.j.j.j.j.q.r.s.kQtQtQtQtQtQtQt",
"QtQtQtQt.p.j.j.j.j.j.j.j.j.j.j.j.j.j.j.j.j.j.j.j.j.j.j.j.j.j.j.j.j.e.j.j.j.q.r.s.kQtQtQtQtQtQtQt",
"QtQtQtQt.p.j.j.j.j.j.j.j.j.j.j.j.j.j.j.j.j.j.j.j.j.j.j.j.j.j.j.j.t.j.u.j.j.q.r.s.kQtQtQtQtQtQtQt",
"QtQtQtQt.p.j.j.j.j.j.j.j.j.j.j.j.j.j.j.j.j.j.j.j.j.j.j.j.j.j.j.v.j.j.j.w.j.q.r.s.kQtQtQtQtQtQtQt",
"QtQtQtQt.p.j.j.j.j.j.j.j.j.j.j.j.j.j.j.j.j.j.j.j.j.j.j.j.j.j.x.j.j.j.j.j.y.q.r.s.kQtQtQtQtQtQtQt",
"QtQtQtQt.p.z.A.B.k.k.k.k.k.k.k.k.k.k.k.k.k.k.k.k.k.k.k.k.k.x.j.j.j.j.j.j.j.y.k.k.kQtQtQtQtQtQtQt",
"QtQtQtQt.p.j.j.j.j.j.j.j.j.j.j.j.j.j.j.j.j.j.j.j.j.j.j.j.x.j.j.j.j.j.j.j.j.j.y.s.kQtQtQtQtQtQtQt",
"QtQtQtQt.p.j.j.j.j.j.j.j.j.j.j.j.j.j.j.j.j.j.j.j.j.j.j.x.j.j.j.j.j.j.j.j.j.j.j.y.kQtQtQtQtQtQtQt",
"QtQtQtQt.p.j.j.j.j.j.j.j.j.j.j.j.j.j.j.j.j.j.j.j.j.j.x.j.j.C.j.j.j.j.j.j.j.j.j.j.yQtQtQtQtQtQtQt",
"QtQtQtQt.p.j.j.j.j.j.j.j.j.j.j.j.j.j.j.j.j.j.j.j.j.d.j.j.j.D.E.F.C.j.G.E.q.H.I.J.K.kQtQtQtQtQtQt",
"QtQtQtQt.p.j.j.j.j.j.j.j.j.j.j.j.j.j.j.j.j.j.j.j.L.j.M.N.O.P.Q.E.C.j.D.R.S.T.U.V.T.W.kQtQtQtQtQt",
"QtQtQtQt.p.j.j.j.j.j.j.j.j.j.j.j.j.j.j.j.j.j.j.X.k.k.k.k.k.k.k.D.j.j.Y.Z.k.k.k.k.k.k.k.kQtQtQtQt",
"QtQtQtQt.p.j.j.j.j.j.j.j.j.j.j.j.j.j.j.j.j.j.j.j.j.j.j.j.j.j.k.j.j.j.0.a.k.q.r.s.kQtQtQtQtQtQtQt",
"QtQtQtQt.p.j.j.j.j.j.j.j.j.j.j.j.j.j.j.j.j.j.j.j.j.j.j.j.j.j.1.j.j.j.I.2.k.q.r.s.kQtQtQtQtQtQtQt",
"QtQtQtQt.p.z.A.B.k.k.k.k.k.k.k.k.k.k.k.k.k.k.k.k.k.k.k.k.k.k.A.j.j.j.I.W.k.k.k.k.kQtQtQtQtQtQtQt",
"QtQtQtQt.p.j.j.j.j.j.j.j.j.j.j.j.j.j.j.j.j.j.j.j.j.j.j.j.j.j.p.j.j.j.3.v.k.q.r.s.kQtQtQtQtQtQtQt",
"QtQtQtQt.p.j.j.j.j.j.j.j.j.j.j.j.j.j.j.j.j.j.j.j.j.j.j.j.j.j.p.j.j.j.3.v.k.q.r.s.kQtQtQtQtQtQtQt",
"QtQtQtQt.p.j.j.j.j.j.j.j.j.j.j.j.j.j.j.j.j.j.j.j.j.j.j.j.j.j.p.j.j.j.3.v.k.q.r.s.kQtQtQtQtQtQtQt",
"QtQtQtQt.p.j.j.j.j.j.j.j.j.j.j.j.j.j.j.j.j.j.j.j.j.j.j.j.j.j.p.j.j.j.3.v.k.q.r.s.kQtQtQtQtQtQtQt",
"QtQtQtQt.p.j.j.j.j.j.j.j.j.j.j.j.j.j.j.j.j.j.j.j.j.j.j.j.j.j.p.j.j.j.3.v.k.q.r.s.kQtQtQtQtQtQtQt",
"QtQtQtQt.p.j.j.j.j.j.j.j.j.j.j.j.j.j.j.j.j.j.j.j.j.j.j.j.j.j.p.j.j.j.3.v.k.q.r.s.kQtQtQtQtQtQtQt",
"QtQtQtQt.p.j.j.j.j.j.j.j.j.j.j.j.j.j.j.j.j.j.j.j.j.j.j.j.j.j.p.j.j.j.3.v.k.q.r.s.kQtQtQtQtQtQtQt",
"QtQtQtQt.p.j.j.j.j.j.j.j.j.j.j.j.j.j.j.j.j.j.j.j.j.j.j.j.j.j.p.j.j.j.3.v.k.q.r.s.kQtQtQtQtQtQtQt",
"QtQtQtQt.p.z.A.B.k.k.k.k.k.k.k.k.k.k.k.k.k.k.k.k.k.k.k.k.k.k.p.j.j.j.3.v.k.k.k.k.kQtQtQtQtQtQtQt",
"QtQtQtQt.p.4.5.6.7.7.7.7.7.7.7.7.7.7.7.7.7.7.7.7.7.7.7.7.7.7.p.j.j.j.3.v.k.8.9#..kQtQtQtQtQtQtQt",
"QtQtQtQt.p.4.5.6.7.7.7.7.7.7.7.7.7.7.7.7.7.7.7.7.7.7.7.7.7.7.p.j.j.j.3.v.k.8.9#..kQtQtQtQtQtQtQt",
"QtQtQtQt.p.4.5.6.7.7.7.7.7.7.7.7.7.7.7.7.7.7.7.7.7.7.7.7.7.7.p.j.j.j.3.v.k.8.9#..kQtQtQtQtQtQtQt",
"QtQtQtQt.p.4.5.6.7.7.7.7.7.7.7.7.7.7.7.7.7.7.7.7.7.7.7.7.7.7##.j#a#b#c#d.k.8.9#..kQtQtQtQtQtQtQt",
"QtQtQtQt.p.4.5.6.7.7.7.7.7.7.7.7.7.7.7.7.7.7.7.7.7.7.7.7.7.7.k#e.i.l#f.g.k.8.9#..kQtQtQtQtQtQtQt",
"QtQtQtQt.p.4.5.6.7.7.7.7.7.7.7.7.7.7.7.7.7.7.7.7.7.7.7.7.7.7.k.k.k.k.k.k.k.8.9#..kQtQtQtQtQtQtQt",
"QtQtQtQt.p.4.5.6.7.7.7.7.7.7.7.7.7.7.7.7.7.7.7.7.7.7.7.7.7.7.7.7.7.7.7.7.7.8.9#..kQtQtQtQtQtQtQt",
"QtQtQtQt.p.4.5.6.7.7.7.7.7.7.7.7.7.7.7.7.7.7.7.7.7.7.7.7.7.7.7.7.7.7.7.7.7.8.9#..kQtQtQtQtQtQtQt",
"QtQtQtQt.p.z.A.B.k.k.k.k.k.k.k.k.k.k.k.k.k.k.k.k.k.k.k.k.k.k.k.k.k.k.k.k.k.k.k.k.kQtQtQtQtQtQtQt",
"QtQtQtQt.p.j.j.j.j.j.j.j.j.j.j.j.j.j.j.j.j.j.j.j.j.j.j.j.j.j.j.j.j.j.j.j.j.q.r.s.kQtQtQtQtQtQtQt",
"QtQtQtQt.p.j.j.j.j.j.j.j.j.j.j.j.j.j.j.j.j.j.j.j.j.j.j.j.j.j.j.j.j.j.j.j.j.q.r.s.kQtQtQtQtQtQtQt",
"QtQtQtQt.p.j.j.j.j.j.j.j.j.j.j.j.j.j.j.j.j.j.j.j.j.j.j.j.j.j.j.j.j.j.j.j.j.q.r.s.kQtQtQtQtQtQtQt",
"QtQtQtQt.p.j.j.j.j.j.j.j.j.j.j.j.j.j.j.j.j.j.j.j.j.j.j.j.j.j.j.j.j.j.j.j.j.q.r.s.kQtQtQtQtQtQtQt",
"QtQtQtQt.p.j.j.j.j.j.j.j.j.j.j.j.j.j.j.j.j.j.j.j.j.j.j.j.j.j.j.j.j.j.j.j.j.q.r.s.kQtQtQtQtQtQtQt",
"QtQtQtQt#g.j.j#h#i#i#i#i#i#i#i#i#i#i#i#i#i#i#i#i#i#i#i#i#i#i#i#i#i#i#i#i#i#j.2#k.kQtQtQtQtQtQtQt",
"QtQtQtQt#l.q#m.v#n#n#n#n#n#n#n#n#n#n#n#n#n#n#n#n#n#n#n#n#n#n#n#n#n#n#n#n#n#d#o#p.kQtQtQtQtQtQtQt",
"QtQtQtQt.k#q#d#f#r#r#r#r#r#r#r#r#r#r#r#r#r#r#r#r#r#r#r#r#r#r#r#r#r#r#r#r#r.g.g.g.kQtQtQtQtQtQtQt",
"QtQtQtQt.k.k.k.k.k.k.k.k.k.k.k.k.k.k.k.k.k.k.k.k.k.k.k.k.k.k.k.k.k.k.k.k.k.k.k.k.kQtQtQtQtQtQtQt",
"QtQtQtQtQtQtQtQtQtQtQtQtQtQtQtQtQtQtQtQtQtQtQtQtQtQtQtQtQtQtQtQtQtQtQtQtQtQtQtQtQtQtQtQtQtQtQtQt"};
