/* XPM */
static const char *xpmRowUp16x16[]={
"16 16 31 1",
"a c None",
". c #000000",
"B c #00ff00",
"i c #010101",
"e c #020202",
"w c #030303",
"# c #040404",
"p c #060606",
"y c #070707",
"A c #080808",
"j c #141414",
"c c #161616",
"f c #1f1f1f",
"h c #d8d8d8",
"o c #d9d9d9",
"n c #e8e8e8",
"t c #ececec",
"s c #ededed",
"u c #eeeeee",
"d c #f0f0f0",
"g c #f1f1f1",
"r c #f2f2f2",
"v c #f3f3f3",
"q c #f5f5f5",
"C c #f6f6f6",
"l c #f7f7f7",
"k c #fafafa",
"m c #fbfbfb",
"x c #fcfcfc",
"z c #fefefe",
"b c #ffffff",
"...........#aaaa",
".bbbbbbbbbcdeaaa",
".bbbbbbbbfbghiaa",
"........jklmnoia",
".bbbbbbpqrrmstu.",
".bbbbbbi..iv....",
"..........wx.aaa",
".bbbbbbbbbyz.aaa",
".bbbbbbbbbAb.aaa",
"..........Az.aaa",
".BBBBBBBBB#C.aaa",
".BBBBBBBBBi..aaa",
"............aaaa",
".bbbbbbbbbb.aaaa",
".bbbbbbbbbb.aaaa",
"............aaaa"};


