/* XPM */
static char *RunSelected_xpm[]={
"48 48 145 2",
"Qt c None",
".q c #000000",
"an c #006b00",
"ak c #00ce00",
"#9 c #00ff00",
"#b c #010101",
".k c #020202",
"af c #02ff02",
"#G c #030303",
".8 c #040404",
"#L c #050505",
"#S c #060606",
"#i c #070707",
"#a c #080808",
".P c #090909",
"#8 c #09ff09",
".v c #0a0a0a",
"ae c #0aff0a",
".9 c #0b0b0b",
".1 c #0d0d0d",
".2 c #0e0e0e",
".u c #101010",
"#e c #111111",
".3 c #121212",
".E c #131313",
"#V c #141414",
"#P c #151515",
".0 c #161616",
"ad c #16ff16",
"#T c #171717",
".O c #191919",
".t c #1a1a1a",
".p c #1b1b1b",
"#K c #1c1c1c",
"#R c #1d1d1d",
"#f c #1e1e1e",
"#B c #1f1f1f",
"#7 c #20ff20",
".w c #212121",
".Z c #222222",
"ac c #22ff22",
"#Q c #232323",
"#p c #242424",
".U c #252525",
".V c #262626",
".W c #272727",
"#u c #282828",
".X c #292929",
"ab c #29ff29",
".7 c #2a2a2a",
".Y c #2b2b2b",
"aa c #2bff2b",
".T c #2c2c2c",
"a# c #2cff2c",
".s c #2f2f2f",
".j c #303030",
".N c #323232",
"#v c #343434",
"#Y c #353535",
"#o c #373737",
"#s c #383838",
".r c #393939",
"#y c #3a3a3a",
"#O c #3d3d3d",
"#l c #3f3f3f",
".D c #404040",
"ao c #414141",
"#6 c #43ff43",
".S c #444444",
"#H c #464646",
".o c #484848",
"#k c #494949",
".M c #4c4c4c",
"#g c #4d4d4d",
".d c #4e4e4e",
"#n c #4f4f4f",
"#A c #505050",
"a. c #535353",
"#E c #555555",
"#D c #565656",
".i c #575757",
"#F c #5b5b5b",
".5 c #5c5c5c",
"#m c #5d5d5d",
"#t c #5e5e5e",
"#5 c #5eff5e",
".L c #5f5f5f",
".C c #626262",
"#U c #636363",
"#I c #646464",
"#x c #666666",
"#j c #676767",
".K c #686868",
"#r c #6a6a6a",
".J c #6b6b6b",
"#4 c #6bff6b",
"#J c #6c6c6c",
"#2 c #6cff6c",
".n c #6d6d6d",
"#3 c #6dff6d",
".h c #6f6f6f",
"#z c #707070",
".c c #737373",
"#w c #747474",
"#d c #767676",
"#N c #777777",
".l c #797979",
"#Z c #7a7a7a",
"#0 c #7c7c7c",
".B c #7d7d7d",
"#C c #7e7e7e",
".m c #7f7f7f",
".I c #808080",
".6 c #838383",
"## c #848484",
".g c #858585",
"#q c #868686",
"#M c #888888",
".b c #8b8b8b",
".H c #8d8d8d",
".A c #8e8e8e",
"#X c #919191",
".z c #929292",
".R c #949494",
"#h c #959595",
".G c #969696",
".4 c #979797",
"#W c #989898",
".y c #9a9a9a",
".f c #9b9b9b",
".a c #9d9d9d",
"#c c #9e9e9e",
".e c #a0a0a0",
".F c #a1a1a1",
".x c #a2a2a2",
"#. c #a3a3a3",
".Q c #a5a5a5",
".# c #a7a7a7",
"al c #b4b4b4",
"am c #b8b8b8",
"ag c #c8c8c8",
"aj c #cecece",
"ah c #e2e2e2",
"ai c #e8e8e8",
"#1 c #ffffff",
"QtQtQtQtQtQtQtQtQtQtQtQtQtQtQtQtQtQtQtQtQtQtQtQtQtQtQtQtQtQtQtQtQtQtQtQtQtQtQtQtQtQtQtQtQtQtQtQt",
"QtQtQtQtQtQtQtQtQtQtQtQtQtQtQtQtQtQtQtQtQtQtQtQt.#.a.b.c.dQtQtQtQtQtQtQtQtQtQtQtQtQtQtQtQtQtQtQt",
"QtQtQtQtQtQtQtQtQtQtQtQtQtQtQtQtQtQtQtQtQtQtQt.e.f.g.h.i.j.kQtQtQtQtQtQtQtQtQtQtQtQtQtQtQtQtQtQt",
"QtQtQtQtQtQtQtQtQtQtQtQtQtQtQtQtQtQtQtQtQtQt.l.m.n.o.j.p.q.q.qQtQtQtQtQtQtQtQtQtQtQtQtQtQtQtQtQt",
"QtQtQtQtQtQtQtQtQtQtQtQtQtQtQtQtQtQtQtQtQtQt.r.s.t.q.q.q.q.q.qQtQtQtQtQtQtQtQtQtQtQtQtQtQtQtQtQt",
"QtQtQtQtQtQtQtQtQtQtQtQtQtQtQtQtQtQtQtQtQtQt.u.q.q.q.q.q.q.qQtQtQtQtQtQtQtQtQtQtQtQtQtQtQtQtQtQt",
"QtQtQtQtQtQtQtQtQtQtQtQtQtQtQtQtQtQtQtQtQtQtQt.v.q.q.q.q.qQtQtQtQtQtQtQtQtQtQtQtQtQtQtQtQtQtQtQt",
"QtQtQtQtQtQtQtQtQtQtQtQtQtQtQtQtQtQtQtQtQtQtQtQtQt.w.q.qQtQtQtQtQtQtQtQtQtQtQtQtQtQtQtQtQtQtQtQt",
"QtQtQtQtQtQtQtQtQtQtQtQtQtQtQtQtQtQt.x.y.z.A.b.B.C.D.E.q.qQtQtQtQtQtQtQtQtQtQtQtQtQtQtQtQtQtQtQt",
"QtQtQtQtQtQtQtQtQtQtQtQtQtQtQt.F.f.G.H.I.c.J.K.L.M.N.O.P.q.qQtQtQtQtQtQtQtQtQtQtQtQtQtQtQtQtQtQt",
"QtQtQtQtQtQtQtQtQtQtQtQtQt.Q.R.h.S.T.U.V.W.X.Y.X.Z.0.1.2.3.u.vQtQtQtQtQtQtQt.4.5QtQtQtQtQtQtQtQt",
"QtQtQtQtQtQtQtQtQtQtQtQt.e.6.7.q.q.q.q.q.q.q.q.q.q.q.q.8.9.3.u.vQtQtQtQtQt#.##.V.qQtQtQtQtQtQtQt",
"QtQtQtQtQtQtQtQtQtQtQt.a.l#a.q.qQtQt.q.q.q.q#b.q.q.q.q.q.q.q#a.9.OQtQtQt#c.m.Z.q.qQtQtQtQtQtQtQt",
"QtQtQtQtQtQtQtQtQtQt.y#d.q.q.qQtQtQtQtQt#a#e.P.q.q.q.q.q.q.q.q.q#f#gQt#h.c#i.q.q.qQtQtQtQtQtQtQt",
"QtQtQtQtQtQtQtQtQt.m#j.q.q.qQtQtQtQtQtQt#k.s.u.q.q.q.q.q.q.q.q.q.q#l#m#n.q.q.qQtQtQtQtQtQtQtQtQt",
"QtQtQtQtQtQtQtQt#o#p.q.q.qQtQtQtQtQtQt#q#r#s.u.q.q.q.q.q.q.qQt.q.q.q.q.q.q.qQtQtQtQtQtQtQtQtQtQt",
"QtQtQtQtQtQtQtQtQt.q.q.qQtQtQtQtQtQt#c.b#t#u.P.q.q.q.q.q.qQtQtQt.q.q.q.q.qQtQtQtQtQtQtQtQtQtQtQt",
"QtQtQtQtQtQtQtQtQtQt.qQtQtQtQtQtQt.y.A#j#v.u.k.q.q.q.q.qQtQtQtQtQt.q.q.qQtQtQtQtQtQtQtQtQtQtQtQt",
"QtQtQtQtQtQtQtQtQtQtQtQtQtQtQtQt.g.g#j#v.u.k.q.q.q.q.qQtQtQtQtQtQtQtQtQtQtQtQtQtQtQtQtQtQtQtQtQt",
"QtQtQtQtQtQtQtQtQtQtQtQtQtQtQtQt#w#x#y.u.k.q.q.q.q.qQtQtQtQtQtQtQtQtQtQtQtQtQtQtQtQtQtQtQtQtQtQt",
"QtQtQtQtQtQtQtQtQtQtQtQtQtQtQtQt#z#A#B.k.q.q.q.q.q.qQtQtQtQtQtQtQtQtQtQtQtQtQtQtQtQtQtQtQtQtQtQt",
"QtQtQtQtQt#c#CQtQtQtQtQtQtQtQt.I.n.r.q.q.q.q.q.q.qQtQtQtQtQtQtQtQtQtQtQtQtQtQtQtQtQtQtQtQtQtQtQt",
"QtQtQtQt.f.H.n#D#EQtQtQtQtQtQt#q#F#G.q.q.q.q.q.q.qQtQtQtQtQtQtQtQtQtQtQtQtQtQtQtQtQtQtQtQtQtQtQt",
"QtQtQt.l#A.O#a.w#H#F#I#JQtQt.y#d#K.q.q.q.q.q.q.q.q.qQtQtQtQtQtQtQtQtQtQtQtQtQtQtQtQtQtQtQtQtQtQt",
"QtQt.o#L.q.q.q.q.q#B#H.5#d#M#N.s.q.q.qQtQt.q.q.q.k#b.qQtQtQtQtQtQtQtQtQtQtQtQtQtQtQtQtQtQtQtQtQt",
"QtQt.q.qQtQtQt.q.q.q.q#a.N#O.E.q.q.qQtQtQtQt.q.q.q#G.q.qQtQtQtQtQtQtQtQtQtQtQtQtQtQtQtQtQtQtQtQt",
"QtQt.qQtQtQtQtQtQt.q.q.q.q.q.q.q.qQtQtQtQtQtQt.q.q.q.q.qQtQtQtQtQtQtQtQtQtQtQtQtQtQtQtQtQtQtQtQt",
"QtQtQtQtQtQtQtQtQtQtQt.q.q.q.q.qQtQtQtQtQtQtQtQt.q.q.q.q.qQtQtQtQtQtQtQtQtQtQtQtQtQtQtQtQtQtQtQt",
"QtQtQtQtQtQtQtQtQtQtQtQtQt.q.qQtQtQtQtQtQtQtQtQtQt.q.8.q.qQtQtQtQtQtQtQtQtQtQtQtQtQtQtQtQtQtQtQt",
"QtQtQtQtQtQtQtQtQtQtQtQtQtQtQtQtQtQtQtQtQtQtQtQtQt.q.9.q.qQtQtQtQtQtQtQtQtQtQtQtQtQtQtQtQtQtQtQt",
"QtQtQtQtQtQtQtQtQtQtQtQtQtQtQtQtQtQtQtQtQtQtQtQtQt#b.v.q.q.qQtQtQtQtQtQtQtQtQtQtQtQtQtQtQtQtQtQt",
"QtQtQtQtQtQtQtQtQtQtQtQtQtQtQtQtQtQtQtQtQtQtQtQtQtQt.3#P.q.qQtQtQtQtQtQtQtQtQtQtQtQtQtQtQtQtQtQt",
"QtQtQtQtQtQtQtQtQtQtQtQtQtQtQtQtQtQtQtQtQtQtQtQtQtQt.O#B.q.qQtQtQtQtQtQtQtQtQtQtQtQtQtQtQtQtQtQt",
"QtQtQtQtQtQtQtQtQtQtQtQtQtQtQtQtQtQtQtQtQtQtQtQtQtQt.0.O.1.q.qQtQtQtQtQtQtQtQtQtQtQtQtQtQtQtQtQt",
"QtQtQtQtQtQtQtQtQtQtQtQtQtQtQtQtQtQtQtQtQtQtQtQtQtQt#Q#R#K.1#S.8QtQtQtQtQtQtQtQtQtQtQtQtQtQtQtQt",
"QtQtQtQtQtQtQtQtQtQtQtQtQtQtQtQtQtQtQtQtQtQtQtQtQtQtQt#y#u#T.3.u.uQtQtQtQtQtQtQtQtQtQtQtQtQtQtQt",
"QtQtQtQtQtQtQtQtQtQtQtQtQtQtQtQtQtQtQtQtQtQtQtQtQtQtQt#U#o#V.9.3.O.TQtQtQtQtQtQtQtQtQtQtQtQtQtQt",
"Qt#W.F#h.b.b.b.b.b.b.b.b.b.b.b.b.b.b.b.b.b.b.b.b#X.G.b#j#Y.u.8.9.t#v#E#w.g.b.b.b.b.b.b.b#Z#n.1Qt",
"Qt#0#1#1#1#1#1#1#1#1#1#1#1#1#1#1#J#2#2#2#2#2#2#2#3#4#5#6#7#8#9.8#1#1#1#1#1#1#1#1#1#1#1#1#1#1.qQt",
"Qta.#1#1#1#1#1#1#1#1#1#1#1#1#1#1.Ta#a#a#a#a#a#a#aaabacadaeaf#9.q#1#1#1#1#1#1#1#1#1#1#1#1#1ag.qQt",
"Qt#O#1#1#1#1#1#1#1#1#1#1#1#1#1#1.q#9#9#9#9#9#9#9#9#9#9#9#9#9#9.q#1#1#1#1#1#1#1#1#1#1#1#1ah.x.qQt",
"Qt#O#1#1#1#1#1#1#1#1#1#1#1#1#1#1.q#9#9#9#9#9#9#9#9#9#9#9#9#9#9.q#1#1#1#1#1#1#1#1#1#1#1#1ah.x.qQt",
"Qt#O#1#1#1#1#1#1#1#1#1#1#1#1#1#1.q#9#9#9#9#9#9#9#9#9#9#9#9#9#9.q#1#1#1#1#1#1#1#1#1#1#1#1ah.x.qQt",
"Qt#O#1#1#1#1#1#1#1#1#1#1#1#1#1#1.q#9#9#9#9#9#9#9#9#9#9#9#9#9#9.q#1#1#1#1#1#1#1#1#1#1#1#1ah.x.qQt",
"Qt.U#1aiajajajajajajajajajajajaj.qakakakakakakakakakakakakakak.qajajajajajajajajajajajajal.I.qQt",
"Qt.qam.g.J.J.J.J.J.J.J.J.J.J.J.J.qanananananananananananananan.q.J.J.J.J.J.J.J.J.J.J.J.J.5ao.qQt",
"Qt.q.q.q.q.q.q.q.q.q.q.q.q.q.q.q.q.q.q.q.q.q.q.q.q.q.q.q.q.q.q.q.q.q.q.q.q.q.q.q.q.q.q.q.q.q.qQt",
"QtQtQtQtQtQtQtQtQtQtQtQtQtQtQtQtQtQtQtQtQtQtQtQtQtQtQtQtQtQtQtQtQtQtQtQtQtQtQtQtQtQtQtQtQtQtQtQt"};
