/* XPM */
static const char *xpmRunSelected16x16[]={
"16 16 4 1",
". c None",
"# c #000000",
"b c #00ff00",
"a c #ffffff",
".......##.......",
"......###.......",
".......#........",
"...#####........",
"..#..####..#....",
".....###.##.....",
".#..###.........",
"#######.........",
"..###.##........",
"......##........",
"......##........",
".......##.......",
"################",
"#aaa#bbbbbb#aaa#",
"#aaa#bbbbbb#aaa#",
"################"};

