/* XPM */
static char *SaveSession_xpm[]={
"48 48 245 2",
"Qt c None",
".z c #000000",
"bY c #0c0c0c",
"bX c #0d0d0d",
"bF c #0e0e0e",
"bT c #101010",
"#x c #121212",
"bR c #131313",
"bW c #151515",
"bc c #161616",
"bS c #171717",
".4 c #181818",
"bp c #191919",
"bq c #1a1a1a",
"br c #1b1b1b",
"bk c #1d1d1d",
"bf c #1e1e1e",
"b. c #202020",
"aV c #212121",
"aO c #222222",
"aK c #232323",
".7 c #242424",
".1 c #252525",
"#a c #262626",
"bl c #272727",
"bm c #292929",
"bo c #2a2a2a",
"bj c #2b2b2b",
"#q c #2c2c2c",
"bg c #2d2d2d",
".P c #2e2e2e",
"bn c #2f2f2f",
"a7 c #303030",
"aZ c #313131",
"aU c #323232",
"#u c #333333",
"aw c #343434",
"ak c #353535",
".0 c #363636",
"aJ c #373737",
"#p c #383838",
".Z c #393939",
"#t c #3a3a3a",
"aR c #3b3b3b",
"bb c #3c3c3c",
".2 c #3d3d3d",
"bd c #3e3e3e",
".f c #3f3f3f",
"bi c #404040",
"ba c #424242",
".y c #434343",
"a9 c #454545",
".Q c #464646",
".O c #474747",
"a2 c #484848",
"bV c #494949",
"aW c #4a4a4a",
"by c #4b4b4b",
"bE c #4c4c4c",
"aX c #4d4d4d",
"bh c #4e4e4e",
"aQ c #4f4f4f",
"bU c #505050",
"b# c #515151",
"aM c #525252",
"au c #555555",
"be c #565656",
"a8 c #575757",
"ap c #585858",
"a1 c #595959",
".N c #5a5a5a",
"am c #5b5b5b",
"ai c #5d5d5d",
"aP c #5f5f5f",
"ad c #606060",
"aL c #626262",
"a. c #636363",
".A c #646464",
"#3 c #64b015",
"aF c #656565",
"#y c #666666",
"#4 c #66b119",
"#2 c #66b414",
"#1 c #67b615",
"ay c #686868",
"#z c #696969",
"at c #6a6a6a",
"#5 c #6bb420",
"#w c #6c6c6c",
"#0 c #6cbf17",
".e c #6d6d6d",
"a0 c #6e6e6e",
"al c #6f6f6f",
"#. c #707070",
".S c #717171",
"#Z c #71c41c",
"ah c #727272",
"#6 c #72b72a",
".x c #737373",
"a# c #747474",
"#Y c #75ca22",
"aE c #767676",
"#9 c #777777",
"ax c #797979",
"#7 c #79bb35",
"#S c #7a7a7a",
"as c #7b7b7b",
"#L c #7beb0b",
"#v c #7d7d7d",
"aS c #7dea0a",
"#n c #7dee08",
"#8 c #7ebd3c",
"#X c #7ed229",
"#M c #7eea0b",
"ao c #7f7f7f",
".M c #7fbe3d",
"#U c #7fd428",
"#K c #7fed0d",
"#J c #7ff10e",
"#m c #7ff207",
"aD c #7ff409",
".L c #80c13d",
"#k c #80f807",
".9 c #818181",
".K c #81c33d",
"#N c #81eb11",
"#l c #82f607",
"ag c #838383",
"#C c #83f60d",
"#V c #84d92d",
"#I c #84f70f",
".d c #858585",
".J c #85ca3f",
"#H c #85fa0f",
"#j c #85fd0c",
"ac c #868686",
"#W c #87dc30",
".g c #888888",
"#O c #88e824",
"#F c #88fe12",
".w c #898989",
".I c #8ace43",
".c c #8b8b8b",
"#G c #8bff11",
"bQ c #8d8d8d",
".H c #8dd348",
"#b c #8e8e8e",
"#E c #8eff17",
".8 c #8f8f8f",
".b c #909090",
"#D c #90ff1e",
".3 c #919191",
"#i c #91ff21",
".R c #939393",
".G c #94da4e",
"bP c #959595",
".D c #95db4d",
"#P c #97eb3f",
"aC c #98ff32",
"bO c #999999",
".E c #99e051",
".C c #9c9c9c",
".F c #9ce254",
".a c #9e9e9e",
"bK c #a0a0a0",
"bD c #a2a2a2",
"#h c #a5ff48",
".# c #a6a6a6",
"#Q c #a6ee5c",
".B c #aaaaaa",
".j c #adadad",
"#B c #aeff5a",
"#R c #afef6b",
"bN c #b1b1b1",
".v c #b2f072",
"bx c #b3b3b3",
".t c #b3f372",
"bM c #b4b4b4",
".u c #b4f372",
"#g c #b4ff6a",
".s c #b5f573",
".r c #b5f774",
"bJ c #b7b7b7",
"bC c #b8b8b8",
".k c #b8fa73",
".q c #b8fa75",
"#c c #b8ff72",
".p c #b9fc75",
"bL c #bababa",
".n c #bafe76",
".i c #bcbcbc",
".o c #bcff76",
"bI c #bdbdbd",
".m c #beff79",
"an c #bfbfbf",
".l c #bfff7d",
"aj c #c1c1c1",
"#f c #c1ff82",
".h c #c2c2c2",
"ae c #c3c3c3",
"#d c #c3ff86",
"bH c #c4c4c4",
"aA c #c5ff8b",
"bB c #c6c6c6",
"#s c #c7c7c7",
"#e c #c8ff91",
".6 c #c9c9c9",
".Y c #cacaca",
"#T c #cccccc",
"aY c #cdcdcd",
"aq c #cecece",
"aB c #ceff9d",
"aI c #cfcfcf",
"bG c #d0d0d0",
"av c #d1d1d1",
"ar c #d2d2d2",
"af c #d3d3d3",
"ab c #d4d4d4",
"#A c #d5d5d5",
"aG c #d6d6d6",
"bz c #d9d9d9",
"bw c #dadada",
"az c #dddddd",
".T c #dedede",
"bA c #dfdfdf",
"bv c #e2e2e2",
"aa c #e4e4e4",
"bu c #eaeaea",
"bs c #ececec",
"bt c #eeeeee",
"a6 c #f0f0f0",
"a5 c #f1f1f1",
"a4 c #f2f2f2",
"a3 c #f3f3f3",
"aT c #f4f4f4",
"aN c #f5f5f5",
"aH c #f6f6f6",
"#r c #f7f7f7",
"#o c #f8f8f8",
"## c #f9f9f9",
".5 c #fafafa",
".X c #fbfbfb",
".W c #fcfcfc",
".V c #fdfdfd",
".U c #ffffff",
"QtQtQtQtQtQtQtQtQtQtQtQtQtQtQtQtQtQtQtQtQtQtQtQtQtQtQtQtQtQtQtQtQtQtQtQtQtQtQtQtQtQtQtQtQtQtQtQt",
"QtQtQtQtQtQtQtQtQtQtQtQtQtQtQtQtQtQtQtQtQtQtQtQtQtQtQtQtQtQtQtQtQtQtQtQtQtQtQtQtQtQtQtQtQtQtQtQt",
"QtQtQtQtQtQtQtQtQtQtQtQtQtQtQtQtQtQtQtQtQtQtQtQtQtQtQtQtQtQtQtQtQtQtQtQtQtQtQtQtQtQtQtQtQtQtQtQt",
"QtQtQtQtQtQtQtQtQtQtQtQtQtQtQtQtQtQtQtQtQtQtQtQtQtQtQtQtQtQtQtQtQtQtQtQtQtQtQtQtQtQtQtQtQtQtQtQt",
"QtQtQtQtQtQtQtQtQtQtQtQtQtQtQtQtQtQtQtQtQtQtQtQtQtQtQtQtQtQtQtQtQtQtQtQtQtQtQtQtQtQtQtQtQtQtQtQt",
"QtQtQtQtQtQtQt.#.a.b.c.c.c.c.c.c.c.c.c.c.c.c.c.c.c.c.c.c.c.c.c.d.e.fQtQtQtQtQtQtQtQtQtQtQtQtQtQt",
"QtQtQtQtQtQt.g.h.i.j.k.l.l.m.m.n.o.p.p.q.k.r.r.s.t.u.u.v.v.v.v.w.x.y.zQtQtQtQtQtQtQtQtQtQtQtQtQt",
"QtQtQtQtQtQt.A.B.C.w.D.E.F.F.E.G.H.I.J.K.K.K.K.L.L.M.M.M.M.M.M.N.O.P.zQtQtQtQtQtQtQtQtQtQtQtQtQt",
"QtQtQtQtQtQt.Q.R.d.S.T.U.U.U.U.U.U.U.U.U.U.U.U.U.U.U.U.V.W.X.Y.Z.0.1.zQtQtQtQtQtQtQtQtQtQtQtQtQt",
"QtQtQtQtQtQt.2.3.4.e.T.U.U.U.U.U.U.U.U.U.U.U.U.U.U.U.U.W.X.5.6.Z.z.7.zQtQtQtQtQtQtQtQtQtQtQtQtQt",
"QtQtQtQtQtQt.2.8.9#..T.U.U.U.U.U.U.U.U.U.U.U.U.U.U.U.V.X.5##.6.Z.0#a.zQtQtQtQtQtQtQtQtQtQtQtQtQt",
"QtQtQtQtQtQt.2#b.9#..T.U#c#d#e#e#f#g#h#i#j#k#l#m#m#m#m#n#n#o.6.Z#p#q.zQtQtQtQtQtQtQtQtQtQtQtQtQt",
"QtQtQtQtQtQt.2#b.9#..T.U.U.U.U.U.U.U.U.U.U.U.U.U.V.W.X###o#r#s.Z#t#u.zQtQtQtQtQtQtQtQtQtQtQtQtQt",
"QtQtQtQtQtQt.2#b#v#w.T.U.U.U.z.z.z.z.z.z.z.z.z.z.z.z.z.z.z.z.z.z.z.z#x.Z#y.9.d.e.fQtQtQtQtQtQtQt",
"QtQtQtQtQtQt.2.c#v#z#A.U#B.z.e#.#z#C#D#D#E#E#F#G#H#H#I#C#J#J#K#L#M#N#O#P#Q#R.w.x.y.zQtQtQtQtQtQt",
"QtQtQtQtQtQt.2.g#S#y#T.U.U.z#.#.#w#U#V#W#W#V#X#Y#Z#0#1#1#1#1#2#2#3#4#5#6#7#8.N.O.P.zQtQtQtQtQtQt",
"QtQtQtQtQtQt.2.g#9a.#s.U.U.z#.a##.aa.U.U.U.U.U.U.U.U.U.U.U.U.U.U.U.U.V.V.Wab.Z.0.1.zQtQtQtQtQtQt",
"QtQtQtQtQtQt.2aca#adae.U#j.za#.z.eaa.U.U.U.U.U.U.U.U.U.U.U.U.U.U.U.U.V.W.Xaf.Z.z.7.zQtQtQtQtQtQt",
"QtQtQtQtQtQt.2agahaiaj.U.U.zaha##.aa.U.U.U.U.U.U.U.U.U.U.U.U.U.U.U.V.W.X.5af.Zak.7.zQtQtQtQtQtQt",
"QtQtQtQtQtQt.2.9alaman.U.U.z#.a##.aa.U#c#d#e#e#f#g#h#i#j#k#l#m#m#m#m#n#n##af.Zak.7.zQtQtQtQtQtQt",
"QtQtQtQtQtQt.2ao#waiapaqaq.z#.a##.aa.U.U.U.U.U.U.U.U.U.U.U.U.U.V.V.W.5####ar.Zak.7.zQtQtQtQtQtQt",
"QtQtQtQtQtQt.2asatamamauau.z#.#.#waa.U.U.U.U.U.U.U.U.U.U.U.U.U.V.W.X#####oav#paw.7.zQtQtQtQtQtQt",
"QtQtQtQtQtQt.2axayapapapap.z.e#.#zaz.U#B#caAaBaBaA#gaC#GaD#m#m#m#n#n#n#n#rav#paw.7.zQtQtQtQtQtQt",
"QtQtQtQtQtQt.2aEaFauauauau.z#z#w#yaG.U.U.U.U.U.U.U.U.U.U.U.V.W.X.5###o#raHaIaJawaK.zQtQtQtQtQtQt",
"QtQtQtQtQtQt.2a#aLaMaMaMaM.z#z#za.ar.U.U.U.U.U.U.U.U.U.U.U.W.X.5#####raHaNaI.0#uaO.zQtQtQtQtQtQt",
"QtQtQtQtQtQt.2ahaPaQaQaQaR.z#y#yadaq.U#j#F#iaCaCaC#i#HaD#m#n#n#n#naSaSaSaTaq.0aUaV.zQtQtQtQtQtQt",
"QtQtQtQtQtQt.2#.amaWaXaXaJ.za.a.aiaY.U.U.U.U.U.U.U.U.U.V.X.5#####raHaNaTaTaqawaZaV.zQtQtQtQtQtQt",
"QtQtQtQtQtQt.2a0a1a2aWaWaw.zadadaman.U.U.U.U.U.U.U.V.X.5###oaHaNaTa3a4a5a6.hawa7aV.zQtQtQtQtQtQt",
"QtQtQtQtQtQt.2#wa8a9a9a9aU.zaiaiaiapaqaqaqaqaqaqaqaqaqaqaqaqaqaqaqaqaqaqaq#p#p.Pb..zQtQtQtQtQtQt",
"QtQtQtQtQtQt#ua.b#bababaa7.zapamamamauauauaMaMaMaQaQaXaWaWa2a9baba.fbb.ZaJ.Z.0.Pb..zQtQtQtQtQtQt",
"QtQtQtQtQtQtbcaW.ybd.f.f.P.zbeapapapapapapapbeauauaMaMaQaXaWaW.Qa9ba.fbbaRaJaw#qbf.zQtQtQtQtQtQt",
"QtQtQtQtQtQt.z#uak#paRbbbg.zaMauauauauauauauaMaMaMaQbhaXaWaW.Qa9babibbaR#p.0awbjbk.zQtQtQtQtQtQt",
"QtQtQtQtQtQtQt.zblbm.Pa7#a.zbhaMaMaMaMaMaJ.0awawawawaUaUa7bnbgbgbobo#a#a#aawaUbmbk.zQtQtQtQtQtQt",
"QtQtQtQtQtQtQtQt.zbpbqbfbr.zaWbhaQaQaQaR.hbsbtbtbtbsbububv.TbwbwbxawaMaWba.zbnbmbk.zQtQtQtQtQtQt",
"QtQtQtQtQtQtQtQtQt.z.z.z.z.z.ObyaWaXaXaJbubzbAbvbAbzaf#TbBanbCbCbDawaMaWba.z.Pbmbk.zQtQtQtQtQtQt",
"QtQtQtQtQtQtQtQtQtQtQtQtQt.zbEaXa2aWaWawbsbwbnbnbnbn#A#TbBanbCbCbDawaMaWba.z.Pbmbk.zQtQtQtQtQtQt",
"QtQtQtQtQtQtQtQtQtQtQtQtQtbF.Nb#a9a9a9aUbubzbn#wadaMaf#TbBanbCbCbDawaMaWba.z.Pbmbk.zQtQtQtQtQtQt",
"QtQtQtQtQtQtQtQtQtQtQtQtQt.1aiaQbababaa7bu#AbnadapaXbG.YbHbIbJbJbKaUaQa2ba.z.Pbmbk.zQtQtQtQtQtQt",
"QtQtQtQtQtQtQtQtQtQtQtQtQtbcaW.ybd.f.f.PaabGbnaMaXa9#TbBajbLbMbMbKa7aXa9.f.z.Pbmbk.zQtQtQtQtQtQt",
"QtQtQtQtQtQtQtQtQtQtQtQtQt.z#uak#paRbbbgbv.Ybn.QbaaRbB.hbIbJbNbNbKbga2baaR.z.Pblbr.zQtQtQtQtQtQt",
"QtQtQtQtQtQtQtQtQtQtQtQtQtQt.zblbmbg.PaObM.a#a.Pbo.1.CbObP.3bQbQ.9aOaka7#q.z.7bkbR.zQtQtQtQtQtQt",
"QtQtQtQtQtQtQtQtQtQtQtQtQtQtQt.zbpbpbSbTbhaQbUbUbUaQbhaXbybVbVbV.ybTbpbSbW.z#xbXbY.zQtQtQtQtQtQt",
"QtQtQtQtQtQtQtQtQtQtQtQtQtQtQtQt.z.z.z.z.z.z.z.z.z.z.z.z.z.z.z.z.z.z.z.z.z.z.z.z.zQtQtQtQtQtQtQt",
"QtQtQtQtQtQtQtQtQtQtQtQtQtQtQtQtQtQtQtQtQtQtQtQtQtQtQtQtQtQtQtQtQtQtQtQtQtQtQtQtQtQtQtQtQtQtQtQt",
"QtQtQtQtQtQtQtQtQtQtQtQtQtQtQtQtQtQtQtQtQtQtQtQtQtQtQtQtQtQtQtQtQtQtQtQtQtQtQtQtQtQtQtQtQtQtQtQt",
"QtQtQtQtQtQtQtQtQtQtQtQtQtQtQtQtQtQtQtQtQtQtQtQtQtQtQtQtQtQtQtQtQtQtQtQtQtQtQtQtQtQtQtQtQtQtQtQt",
"QtQtQtQtQtQtQtQtQtQtQtQtQtQtQtQtQtQtQtQtQtQtQtQtQtQtQtQtQtQtQtQtQtQtQtQtQtQtQtQtQtQtQtQtQtQtQtQt",
"QtQtQtQtQtQtQtQtQtQtQtQtQtQtQtQtQtQtQtQtQtQtQtQtQtQtQtQtQtQtQtQtQtQtQtQtQtQtQtQtQtQtQtQtQtQtQtQt"};
