/* XPM */
static const char *xpmSave16x16[]={
"16 16 40 1",
"a c None",
"# c #000000",
"b c #565656",
"J c #575757",
"s c #7ac828",
"q c #7dc72f",
"r c #83cb38",
"A c #8cce47",
"z c #95d155",
"y c #98d458",
"l c #99d755",
"k c #9cda58",
"B c #9dd465",
"j c #9ddd58",
"L c #9e9e9e",
"i c #a0df5a",
"I c #a2d66b",
"h c #a2e35b",
"C c #a3d76c",
"D c #a4d770",
"g c #a4e65d",
"f c #a6e85e",
"E c #a8d775",
"e c #a8eb5f",
"x c #a9e968",
"d c #a9ef60",
"H c #aada77",
"F c #abdb78",
"G c #acdc79",
"p c #aeea72",
". c #c1c1c1",
"w c #c1fd7f",
"t c #ceff99",
"m c #d1fda4",
"n c #d5fdab",
"v c #d5ffa7",
"o c #d5ffab",
"K c #e3e3e3",
"u c #e3ffc3",
"c c #ffffff",
".##############a",
"#bbcdefghijklcb#",
"#bbcccccccccccb#",
"#bbcmnopqrrrscb#",
"#bbcccccccccccb#",
"#bbctuvwxyzzAcb#",
"#bbcBCDEFGHHIcb#",
"#bbcccccccccccb#",
"#bbbbbbbbbbbbbb#",
"#bbJ#########bb#",
"#bb#KKKKKKKKK#b#",
"#bb#K###KKKKK#b#",
"#bb#K###KKKKK#b#",
"#bb#K###KKKKK#b#",
"L#b#KKKKKKKKK#b#",
"aL#############a"};

