/* XPM */
static char *Save_xpm[]={
"48 48 219 2",
"Qt c None",
".J c #000000",
"by c #0c0c0c",
"bx c #0d0d0d",
"bq c #101010",
"bw c #121212",
"bm c #131313",
"bv c #151515",
"ba c #161616",
"bp c #171717",
"#v c #181818",
"bo c #191919",
"bn c #1a1a1a",
"bh c #1b1b1b",
"aL c #1d1d1d",
"aH c #1e1e1e",
"bk c #1f1f1f",
"at c #202020",
"ak c #212121",
"#7 c #222222",
"#k c #242424",
"#g c #252525",
"aO c #262626",
"bg c #272727",
"bi c #282828",
"aK c #292929",
"aG c #2a2a2a",
"bj c #2b2b2b",
"as c #2c2c2c",
"aN c #2d2d2d",
".Z c #2e2e2e",
"aM c #2f2f2f",
"#6 c #303030",
"#f c #323232",
"#y c #333333",
"ap c #343434",
"be c #353535",
"#5 c #363636",
"bf c #373737",
"#d c #383838",
"#t c #393939",
"bc c #3a3a3a",
"#e c #3b3b3b",
"#u c #3c3c3c",
"#h c #3d3d3d",
".f c #3f3f3f",
"aJ c #404040",
"aD c #424242",
"bu c #434343",
".I c #444444",
"aC c #454545",
".0 c #464646",
"bb c #474747",
"aB c #484848",
"ar c #494949",
"bt c #4b4b4b",
"aA c #4c4c4c",
"bs c #4d4d4d",
"aI c #4e4e4e",
"br c #4f4f4f",
"az c #505050",
"#c c #509f00",
"ay c #525252",
"#b c #52a200",
"ax c #535353",
"aw c #545454",
"av c #555555",
"aF c #565656",
"#a c #56a600",
"a3 c #575757",
"aE c #585858",
"a1 c #595959",
".X c #5a5a5a",
"## c #5ab600",
"am c #5b5b5b",
".Y c #5d5d5d",
"a# c #606060",
"#8 c #636363",
".K c #646464",
"#. c #64ca00",
"#0 c #666666",
"au c #686868",
"#S c #696969",
"ah c #6b6b6b",
".4 c #6c6c6c",
"af c #6cd300",
".e c #6d6d6d",
"#K c #6dd600",
"aa c #6e6e6e",
".9 c #6edb00",
"al c #6f6f6f",
"#J c #6fd900",
".6 c #6fdd00",
"#j c #707070",
"#I c #70db00",
".3 c #717171",
"#H c #71e000",
".H c #727272",
"#1 c #737373",
"#l c #747474",
".7 c #74e700",
"#T c #767676",
"#Z c #777777",
"#G c #77eb00",
"ae c #77ec00",
".8 c #78ef00",
".5 c #797979",
"#w c #7a7a7a",
"#X c #7af200",
"#R c #7b7b7b",
"#m c #7c7c7c",
"#i c #7d7d7d",
"ac c #7df800",
"#z c #7f7f7f",
".2 c #818181",
".M c #838383",
".W c #83d62c",
"#F c #83ff03",
".d c #858585",
".V c #85db2c",
"a. c #868686",
".U c #87e02c",
".g c #888888",
".N c #88e52c",
".G c #8a8a8a",
".c c #8b8b8b",
".L c #8c8c8c",
"ad c #8cff15",
"bl c #8d8d8d",
".T c #8deb2c",
".F c #8e8e8e",
".S c #8eef2c",
".E c #8f8f8f",
".b c #909090",
".R c #90f32c",
".D c #919191",
".C c #929292",
".Q c #92f62c",
".1 c #939393",
".P c #93f92c",
".B c #949494",
"#E c #94ff25",
".A c #969696",
".z c #979797",
".y c #989898",
".O c #98ff2e",
".x c #999999",
".w c #9a9a9a",
".v c #9c9b9b",
".u c #9c9c9c",
".t c #9d9d9d",
".a c #9e9e9e",
".s c #9f9f9f",
".r c #a09fa0",
".q c #a0a0a0",
".p c #a2a2a2",
".o c #a3a3a3",
".n c #a5a5a5",
".# c #a6a6a6",
".m c #a7a7a7",
".l c #a9a9a9",
".k c #aaaaaa",
"#D c #acff55",
".j c #aeaeae",
"#A c #afff61",
"bd c #b1b1b1",
"aW c #b3b3b3",
"b# c #b4b4b4",
"a7 c #b7b7b7",
"a0 c #b8b8b8",
"#B c #b9ff75",
"b. c #bababa",
".i c #bbbbbb",
"a6 c #bdbdbd",
"#V c #beff7c",
"aZ c #bfbfbf",
"a9 c #c1c1c1",
"#C c #c1ff83",
".h c #c2c2c2",
"a5 c #c4c4c4",
"an c #c5c5c5",
"ai c #c6c6c6",
"ao c #c7c7c7",
"ab c #c8c8c8",
"#W c #c8ff91",
"#4 c #c9c9c9",
"a4 c #cacaca",
"#Q c #cbcbcb",
"#O c #cccccc",
"#M c #cdcdcd",
"#s c #cfcfcf",
"#2 c #d0d0d0",
"aq c #d2d2d2",
"aY c #d3d3d3",
"a2 c #d5d5d5",
"#U c #d9d9d9",
"aV c #dadada",
"aU c #dddddd",
"aX c #dfdfdf",
"#n c #e1e1e1",
"aT c #e2e2e2",
"a8 c #e4e4e4",
"aS c #e8e8e8",
"aR c #ebebeb",
"aP c #ececec",
"aQ c #eeeeee",
"aj c #f2f2f2",
"ag c #f3f3f3",
"#9 c #f4f4f4",
"#3 c #f5f5f5",
"#Y c #f6f6f6",
"#P c #f7f7f7",
"#N c #f8f8f8",
"#L c #f9f9f9",
"#x c #fafafa",
"#r c #fbfbfb",
"#q c #fcfcfc",
"#p c #fdfdfd",
"#o c #ffffff",
"QtQtQtQtQtQtQtQtQtQtQtQtQtQtQtQtQtQtQtQtQtQtQtQtQtQtQtQtQtQtQtQtQtQtQtQtQtQtQtQtQtQtQtQtQtQtQtQt",
"QtQtQtQt.#.a.b.c.c.c.c.c.c.c.c.c.c.c.c.c.c.c.c.c.c.c.c.c.c.c.c.c.c.c.c.c.c.c.c.c.c.c.d.e.fQtQtQt",
"QtQtQt.g.h.i.j.k.k.l.l.m.m.m.n.n.o.p.p.q.r.s.a.t.u.v.w.w.x.y.y.z.A.B.B.B.C.D.b.b.E.F.G.H.I.JQtQt",
"QtQtQt.K.l.w.L.M.F.N.O.O.O.P.P.P.Q.Q.R.S.S.S.T.T.N.N.N.N.U.U.U.V.V.V.W.W.W.W.W.W.X.X.Y.I.Z.JQtQt",
"QtQtQt.0.1.2.3.4.5.6.7.7.8.8.8.7.9.9#.#######a#a#a#a#a#a#b#b#b#c#c#c#c#c#c#c#c#c#d#d#e#f#g.JQtQt",
"QtQtQt#h.F#i#j.4.5.6.7.7.8.8.8.7.9.9#.#######a#a#a#a#a#a#b#b#b#c#c#c#c#c#c#c#c#c#d#d#e#f#k.JQtQt",
"QtQtQt#h.F#i#l#j#m#n#o#o#o#o#o#o#o#o#o#o#o#o#o#o#o#o#o#o#o#o#o#o#o#o#p#p#q#r#r#s#t#t#u#f#k.JQtQt",
"QtQtQt#h.D#v.J.e#w#n#o#o#o#o#o#o#o#o#o#o#o#o#o#o#o#o#o#o#o#o#o#o#o#o#q#q#r#x#x#s#t.J.J#y#k.JQtQt",
"QtQtQt#h.D#v.J.e#w#n#o#o#o#o#o#o#o#o#o#o#o#o#o#o#o#o#o#o#o#o#o#o#o#o#q#q#r#x#x#s#t.J.J#y#k.JQtQt",
"QtQtQt#h.E#z#l#j#m#n#o#o#o#o#o#o#o#o#o#o#o#o#o#o#o#o#o#o#o#o#o#o#o#p#r#r#x#x#x#s#t#t#u#y#k.JQtQt",
"QtQtQt#h.F#i#l#j#m#n#o#o#A#B#B#C#C#C#B#D#D#E#F#F#G#H#H#I#I#I#I#J#J#J#K#K#K#L#L#M#t#t#u#y#k.JQtQt",
"QtQtQt#h.F#i#l#j#m#n#o#o#A#B#B#C#C#C#B#D#D#E#F#F#G#H#H#I#I#I#I#J#J#J#K#K#K#L#L#M#t#t#u#y#k.JQtQt",
"QtQtQt#h.F#i#l#j#m#n#o#o#o#o#o#o#o#o#o#o#o#o#o#o#o#o#o#o#o#o#p#q#q#r#x#x#L#N#N#O#t#t#u#f#k.JQtQt",
"QtQtQt#h.F#i#j.4.5#n#o#o#o#o#o#o#o#o#o#o#o#o#o#o#o#o#o#o#o#o#q#r#r#x#L#L#N#P#P#Q#d#d#e#f#k.JQtQt",
"QtQtQt#h.F#i#j.4.5#n#o#o#o#o#o#o#o#o#o#o#o#o#o#o#o#o#o#o#o#o#q#r#r#x#L#L#N#P#P#Q#d#d#e#f#k.JQtQt",
"QtQtQt#h.c#R#j#S#T#U#o#o#D#A#A#V#W#W#W#V#V#D#E#E#X#H#H#I#J#J#J#K#K#K#K#K#K#Y#Y#Q#d#d#e#f#k.JQtQt",
"QtQtQt#h.g#Z.4#0#1#2#o#o#o#o#o#o#o#o#o#o#o#o#o#o#o#o#o#p#r#r#x#x#x#L#P#P#Y#3#3#4#5#5#e#6#7.JQtQt",
"QtQtQt#h.g#Z.4#0#1#2#o#o#o#o#o#o#o#o#o#o#o#o#o#o#o#o#o#p#r#r#x#x#x#L#P#P#Y#3#3#4#5#5#e#6#7.JQtQt",
"QtQtQt#h.g#Z#S#8#j#O#o#o#o#o#o#o#o#o#o#o#o#o#o#o#o#o#o#r#x#x#x#L#L#N#Y#Y#3#9#9#4#5#5#t#6#7.JQtQt",
"QtQtQt#ha.#l#0a#aaab#o#o#Gacac#Fadadadadad#Faeae#H#J#J#K#K#K#K#K#Kafafafafagagab#5#5#d#6#7.JQtQt",
"QtQtQt#ha.#l#0a#aaab#o#o#Gacac#Fadadadadad#Faeae#H#J#J#K#K#K#K#K#Kafafafafagagab#5#5#d#6#7.JQtQt",
"QtQtQt#h.M.H#8.Yahai#o#o#o#o#o#o#o#o#o#o#o#o#o#o#q#x#x#x#L#L#N#Y#Y#3#9#9agajajab#5#5#5.Zak.JQtQt",
"QtQtQt#h.2ala#am#San#o#o#o#o#o#o#o#o#o#o#o#p#r#r#x#x#x#L#P#P#Y#3#3#9agagajajajaoapap#5.Zak.JQtQt",
"QtQtQt#h.2ala#am#San#o#o#o#o#o#o#o#o#o#o#o#p#r#r#x#x#x#L#P#P#Y#3#3#9agagajajajaoapap#5.Zak.JQtQt",
"QtQtQt#h#z.4.Y.Yah#0aqaqaqaqaqaqaqaqaqaqaqaqaqaqaqaqaqaqaqaqaqaqaqaqaqaqaqaqaqar#d#d#5asat.JQtQt",
"QtQtQt#h#RauamamamamavavawawawaxayayazazazazaAaAaAararaBaCaCaDaDaD.f#u#u#t#5#5#t#5#5apasat.JQtQt",
"QtQtQt#h#RauamamamamavavawawawaxayayazazazazaAaAaAararaBaCaCaDaDaD.f#u#u#t#5#5#t#5#5apasat.JQtQt",
"QtQtQt#h.5#0aEaEaEaEaEaEaEaEaEaEaFaFavawawayazazazaAaAaAararaCaCaCaD.f.f#u#e#e#5#5#5#faGaH.JQtQt",
"QtQtQt#h#Z#8awavavavavavavavavawaxaxayazazazaIaIaAaAaAaraCaCaCaDaDaJ#u#u#e#d#d#5apap#6aKaL.JQtQt",
"QtQtQt#h#Z#8awavavavavavavavavawaxaxayazazazaIaIaAaAaAaraCaCaCaDaDaJ#u#u#e#d#d#5apap#6aKaL.JQtQt",
"QtQtQt#h#la#azayayayayayay#5#5#5#5#5#5apapap#f#f#f#6#6aMaNaNaNaGaGaGaOaOaOaOaOap#f#f.ZaKaL.JQtQt",
"QtQtQt#h.3.YaIazazazazaz#e.h.haPaQaQaQaQaQaPaRaRaSaTaTaUaVaVaVaWaWapayayaraDaD.JaMaM.ZaKaL.JQtQt",
"QtQtQt#h.3.YaIazazazazaz#e.h.haPaQaQaQaQaQaPaRaRaSaTaTaUaVaVaVaWaWapayayaraDaD.JaMaM.ZaKaL.JQtQt",
"QtQtQt#hal.XaAaAaAaAaAaA#5aRaRaVaXaXaTaXaXaVaYaY#OaiaiaZa0a0a0.p.papaxaxaAaDaD.J.Z.Z.ZaKaL.JQtQt",
"QtQtQt#haaa1aBaBaBararar#5aPaPaVaMaMaMaMaMaMa2a2#OaiaiaZa0a0a0.p.papaxaxaAaDaD.J.Z.Z.ZaKaL.JQtQt",
"QtQtQt#haaa1aBaBaBararar#5aPaPaVaMaMaMaMaMaMa2a2#OaiaiaZa0a0a0.p.papaxaxaAaDaD.J.Z.Z.ZaKaL.JQtQt",
"QtQtQt#h.4a3aCaCaCaCaCaC#faRaRaVaMaM.4a#a#axaYaY#OaiaiaZa0a0a0.p.papayayaraDaD.J.Z.Z.ZaKaL.JQtQt",
"QtQtQt#h#SawaDaDaDaDaDaD#6aRaRa2aMaMa#aEaEaA#2#2a4a5a5a6a7a7a7.q.q#fazazaBaDaD.J.Z.Z.ZaKaL.JQtQt",
"QtQtQt#h#SawaDaDaDaDaDaD#6aRaRa2aMaMa#aEaEaA#2#2a4a5a5a6a7a7a7.q.q#fazazaBaDaD.J.Z.Z.ZaKaL.JQtQt",
"QtQtQt#ya#aI.f.f.f.f.f.f.Za8a8#2aMaMaxaAaAaC#O#Oaia9a9b.b#b#b#.q.q#6aAaAaC.f.f.J.Z.Z.ZaKaL.JQtQt",
"QtQtQtbabb.fbc#u#u#u#u#uaNaTaTa4aMaMaCaDaD#eaiai.ha6a6a7bdbdbd.q.qaNaBaBaD#e#e.J.Z.Z.ZaKaL.JQtQt",
"QtQtQt.J#ybebf#e#u#u#u#uaNaTaTa4aMaMaCaDaD#eaiai.ha6a6a7bdbdbd.q.qaNaBaBaD#e#e.J.Z.Z.ZaKaL.JQtQt",
"QtQtQtQt.JaK.Zapbf#t#t#taGaXaXa5aMaM#t#5#5.Za9a9a6a0a0aW.j.j.j.q.qaGaDaD#u#5#5.J.Z.Z.Zbgbh.JQtQt",
"QtQtQtQtQt.J#gbibjbjasasbk.A.A.x.w.w.w.w.w.x.A.A.B.D.Dblblblbl.2.2bk#6#6aNbibi.J#g#g#kaLbm.JQtQt",
"QtQtQtQtQtQt.JbnbobpbpbpbqaIaIbrazazazazazbraIaIbsbtbtararararbububqbobobpbvbv.Jbmbmbwbxby.JQtQt",
"QtQtQtQtQtQtQt.J.J.J.J.J.J.J.J.J.J.J.J.J.J.J.J.J.J.J.J.J.J.J.J.J.J.J.J.J.J.J.J.J.J.J.J.J.JQtQtQt",
"QtQtQtQtQtQtQtQtQtQtQtQtQtQtQtQtQtQtQtQtQtQtQtQtQtQtQtQtQtQtQtQtQtQtQtQtQtQtQtQtQtQtQtQtQtQtQtQt",
"QtQtQtQtQtQtQtQtQtQtQtQtQtQtQtQtQtQtQtQtQtQtQtQtQtQtQtQtQtQtQtQtQtQtQtQtQtQtQtQtQtQtQtQtQtQtQtQt"};
