/* XPM */
static const char *xpmSaveAll16x16[]={
"16 16 27 1",
"a c None",
"# c #000000",
"b c #565656",
"w c #575757",
"p c #7ac828",
"o c #83cb38",
"v c #8cce47",
"u c #95d155",
"j c #99d755",
"i c #9cda58",
"h c #9ddd58",
"y c #9e9e9e",
"g c #a4e65d",
"f c #a6e85e",
"e c #a8eb5f",
"d c #a9ef60",
"n c #aeea72",
". c #c1c1c1",
"t c #c1fd7f",
"q c #ceff99",
"k c #d1fda4",
"l c #d5fdab",
"s c #d5ffa7",
"m c #d5ffab",
"x c #e3e3e3",
"r c #e3ffc3",
"c c #ffffff",
".###########aaaa",
"#bcdefghijcb#aaa",
"#bc.###########a",
"#bc#bcdefghijcb#",
"#bc#bcccccccccb#",
"#bc#bcklmnoopcb#",
"#bc#bcccccccccb#",
"#bb#bcqrstuuvcb#",
"#bw#bcccccccccb#",
"#b##bbbbbbbbbbb#",
"#b##bw#######bb#",
"#b##b#xxxxxxx#b#",
"y###b#x###xxx#b#",
"ya##b#x###xxx#b#",
"aaay##xxxxxxx#b#",
"aaaaa##########a"};

