/* XPM */
static const char *xpmSchema16x16[] = {
/* columns rows colors chars-per-pixel */
"16 16 10 1",
"  c black",
". c #001a00",
"X c #003e00",
"o c #006900",
"O c #009600",
"+ c #00c100",
"@ c #00e600",
"# c green",
"$ c white",
"% c None",
/* pixels */
"%%%%%      %%%%%",
"%%%  ######  %%%",
"%% ########## %%",
"%%   ######   %%",
"%% ##      X. %%",
"%% ####@+OoX. %%",
"%% ####@+OoX. %%",
"%% ####@+OoX. %%",
"%% ####@+OoX. %%",
"%% ####@+OoX. %%",
"%% ####@+OoX. %%",
"%% ####@+OoX. %%",
"%% ####@+OoX. %%",
"%% ####@+OoX. %%",
"%%%  ##@+Oo  %%%",
"%%%%%      %%%%%"
};

