/* XPM */
static char *SelectAll_xpm[]={
"48 48 39 1",
". c None",
"m c #000000",
"K c #004100",
"J c #005c00",
"I c #006b00",
"F c #008000",
"H c #008500",
"u c #00a200",
"G c #00b800",
"q c #00c800",
"x c #00e200",
"w c #00ff00",
"f c #0d0d0d",
"B c #0eff0e",
"l c #10ff10",
"z c #181818",
"v c #18ff18",
"A c #252525",
"y c #353535",
"s c #35ff35",
"r c #3d3d3d",
"e c #4f4f4f",
"k c #52ff52",
"n c #535353",
"o c #57ff57",
"j c #6cff6c",
"d c #7a7a7a",
"g c #7c7c7c",
"i c #7cff7c",
"h c #89ff89",
"c c #8b8b8b",
"b c #959595",
"# c #989898",
"a c #a1a1a1",
"E c #b4b4b4",
"D c #cecece",
"t c #e2e2e2",
"C c #e8e8e8",
"p c #ffffff",
"................................................",
"................................................",
"................................................",
"................................................",
"................................................",
"................................................",
"...#abcccccccccccccccccccdef....................",
"...ghijjjjjjjjjjjjjjjjjjjklm....................",
"...nopppppppppppppppppppppqm....................",
"...rspppppppppppppppppppptum....................",
"...rspppppppppppppppppppptum....................",
"...rspppppppppppppppppppptum....................",
"...rsvwwwwwwwwwwwwwwwwwwwxum....................",
"...ryzmmmmmmmmmmmmmmmmmmmmmm....................",
"...rsvwwwwwwwwwwwwwwwwwwwxum....................",
"...rspppppppppppppppppppptumccccccccccccccdef...",
"...rspppppppppppppppppppptumjjjjjjjjjjjjjjklm...",
"...rspppppppppppppppppppptumpppppppppppppppqm...",
"...rspppppppppppppppppppptumpppppppppppppptum...",
"...rspppppppppppppppppppptumpppppppppppppptum...",
"...rspppppppppppppppppppptumpppppppppppppptum...",
"...rspppppppppppppppppppptumwwwwwwwwwwwwwwxum...",
"...rspppppppppppppppppppptummmmmmmmmmmmmmmmmm...",
"...rspppppppppppppppppppptumwwwwwwwwwwwwwwxum...",
"...rspppppppppppppppppppptumpppppppppppppptum...",
"...rspppppppppppppppppppptumpppppppppppppptum...",
"...ABCDDDDDDDDDDDDDDDDDDDEFmpppppppppppppptum...",
"...mGHIIIIIIIIIIIIIIIIIIIJKmpppppppppppppptum...",
"...mmmmmmmmmmmmmmmmmmmmmmmmmpppppppppppppptum...",
"........rsvwwwwwwwwwrspppppppppppppppppppptum...",
"........rspppppppppprspppppppppppppppppppptum...",
"........rspppppppppprspppppppppppppppppppptum...",
"........rspppppppppprspppppppppppppppppppptum...",
"........rspppppppppprspppppppppppppppppppptum...",
"........rspppppppppprspppppppppppppppppppptum...",
"........rsppppppppppABCDDDDDDDDDDDDDDDDDDDEFm...",
"........rsppppppppppmGHIIIIIIIIIIIIIIIIIIIJKm...",
"........rsppppppppppmmmmmmmmmmmmmmmmmmmmmmmmm...",
"........rspppppppppppppppppppptum...............",
"........rspppppppppppppppppppptum...............",
"........rspppppppppppppppppppptum...............",
"........ABCDDDDDDDDDDDDDDDDDDDEFm...............",
"........mGHIIIIIIIIIIIIIIIIIIIJKm...............",
"........mmmmmmmmmmmmmmmmmmmmmmmmm...............",
"................................................",
"................................................",
"................................................",
"................................................"};
