/* XPM */
static const char *xpmSelectAll16x16[]={
"16 16 4 1",
"# c None",
". c #000000",
"a c #00ff00",
"b c #ffffff",
"..........######",
".aaaaaaaa.######",
".aaaaaaaa.......",
"..........aaaaa.",
".aaaaaaaa.aaaaa.",
".abbbbbba.......",
".abbbbbba.aaaaa.",
".abbbbbba.bbbba.",
".aaaaaaaa.bbbba.",
"..........bbbba.",
"##.aaa.aaaaaaaa.",
"##.abb..........",
"##.abbbbbba.####",
"##.abbbbbba.####",
"##.aaaaaaaa.####",
"##..........####"};

