/* XPM */
static const char *xpmSelectNone16x16[]={
"16 16 3 1",
"# c None",
". c #000000",
"a c #ffffff",
"..........######",
".aaaaaaaa.######",
".aaaaaaaa.......",
"..........aaaaa.",
".aaaaaaaa.aaaaa.",
".aaaaaaaa.......",
".aaaaaaaa.aaaaa.",
".aaaaaaaa.aaaaa.",
".aaaaaaaa.aaaaa.",
"..........aaaaa.",
"##.aaa.aaaaaaaa.",
"##.aaa..........",
"##.aaaaaaaa.####",
"##.aaaaaaaa.####",
"##.aaaaaaaa.####",
"##..........####"};

