/* XPM */
static char *Sequence_xpm[]={
"48 48 124 2",
"Qt c None",
".y c #000000",
".5 c #004100",
"#z c #004300",
"#y c #004400",
"#s c #004500",
"#v c #004700",
"#w c #004800",
"#x c #004900",
"#u c #004a00",
"#t c #004b00",
"#r c #005000",
".W c #005600",
".O c #006000",
"#q c #006200",
".I c #006e00",
"#p c #007e00",
".D c #008d00",
"#o c #00a900",
".z c #00b100",
"#n c #00d100",
".u c #00dc00",
".6 c #00f500",
".Y c #020202",
"#5 c #040404",
"#M c #070707",
"#0 c #0a0a0a",
".t c #0d0d0d",
".j c #0dff0d",
"#3 c #101010",
"#4 c #121212",
"#E c #131313",
"#B c #141414",
".X c #14ff14",
"#G c #161616",
"#S c #171717",
"#P c #191919",
"#Z c #1c1c1c",
"#N c #252525",
"#2 c #262626",
"#V c #272727",
"#1 c #282828",
".R c #292929",
"#D c #2b2b2b",
"#J c #303030",
".Q c #30ff30",
"#A c #323232",
"#Y c #333333",
"#L c #343434",
".s c #373737",
"#W c #393939",
".i c #39ff39",
".K c #3c3c3c",
".J c #3dff3d",
"#F c #404040",
"#K c #414141",
"#R c #434343",
"#m c #454545",
"#O c #464646",
"#U c #474747",
"#X c #494949",
".E c #49ff49",
".F c #4c4c4c",
"#T c #4d4d4d",
"#C c #525252",
"#Q c #535353",
"#l c #555555",
".h c #5aff5a",
".r c #5b5b5b",
".A c #61ff61",
".4 c #626262",
"#H c #656565",
"#I c #676767",
"#k c #696969",
".B c #6b6b6b",
"#h c #6e6e6e",
"#g c #6f6f6f",
"#i c #707070",
"#f c #717171",
"#j c #727272",
"#b c #737373",
".g c #73ff73",
".9 c #747474",
"#c c #757575",
".q c #767676",
"#. c #777777",
".v c #77ff77",
"#d c #787878",
"## c #797979",
".3 c #7b7b7b",
"#e c #7c7c7c",
"#a c #7d7d7d",
".8 c #808080",
".p c #828282",
".w c #858585",
".f c #86ff86",
".o c #8b8b8b",
".k c #8bff8b",
".V c #8c8c8c",
".e c #8eff8e",
".d c #95ff95",
".n c #979797",
".l c #989898",
".# c #99ff99",
".7 c #9b9b9b",
".m c #9c9c9c",
".c c #9fff9f",
".N c #a2a2a2",
".a c #a3ffa3",
".b c #a4ffa4",
".2 c #a5a5a5",
".U c #afafaf",
".1 c #b5b5b5",
".H c #b9b9b9",
".P c #c1c1c1",
".M c #c8c8c8",
".T c #d1d1d1",
".0 c #d2d2d2",
".G c #e2e2e2",
".C c #e6e6e6",
".Z c #ececec",
".L c #eeeeee",
".S c #f2f2f2",
".x c #ffffff",
"QtQtQtQtQtQtQtQtQtQtQtQtQtQtQtQtQtQtQtQtQtQtQtQtQtQtQtQtQtQtQtQtQtQtQtQtQtQtQtQtQtQtQtQtQtQtQtQt",
"QtQtQtQtQtQtQt.#.a.b.c.d.e.e.e.e.e.e.e.e.e.e.e.e.e.e.e.e.e.e.e.e.e.e.e.e.e.f.g.h.i.jQtQtQtQtQtQt",
"QtQtQtQtQtQtQt.k.l.m.n.o.p.p.p.p.p.p.p.p.p.p.p.p.p.p.p.p.p.p.p.p.p.p.p.p.p.q.r.s.t.uQtQtQtQtQtQt",
"QtQtQtQtQtQtQt.v.w.x.x.x.x.x.x.x.x.x.x.x.x.x.x.x.x.x.x.x.x.x.x.x.x.x.x.x.x.x.x.x.y.zQtQtQtQtQtQt",
"QtQtQtQtQtQtQt.A.B.x.x.x.x.x.x.x.x.x.x.x.x.x.x.x.x.x.x.x.x.x.x.x.x.x.x.x.x.x.x.C.y.DQtQtQtQtQtQt",
"QtQtQtQtQtQtQt.E.F.x.x.x.x.x.x.x.x.x.x.x.x.x.x.x.x.x.x.x.x.x.x.x.x.x.x.x.x.x.G.H.y.IQtQtQtQtQtQt",
"QtQtQtQtQtQtQt.J.K.x.x.x.x.x.x.x.x.x.x.x.x.x.x.x.x.x.x.x.x.x.x.x.x.x.x.x.x.L.M.N.y.OQtQtQtQtQtQt",
"QtQtQtQtQtQtQt.J.K.x.x.x.y.y.y.y.y.y.y.y.y.y.y.y.y.y.y.y.y.y.y.y.y.y.y.y.y.L.M.N.y.OQtQtQtQtQtQt",
"QtQtQtQtQtQtQt.J.K.x.x.x.y.y.y.y.y.y.y.y.y.y.y.y.y.y.y.y.y.y.y.y.y.y.y.y.y.L.M.N.y.OQtQtQtQtQtQt",
"QtQtQtQtQtQtQt.J.K.x.x.x.P.P.P.P.P.P.P.P.P.P.P.P.P.P.P.P.P.P.P.P.P.P.P.P.P.L.M.N.y.OQtQtQtQtQtQt",
"QtQtQtQtQtQtQt.J.K.x.x.x.x.x.x.x.x.x.x.x.x.x.x.x.x.x.x.x.x.x.x.x.x.x.x.x.x.L.M.N.y.OQtQtQtQtQtQt",
"QtQtQtQtQtQtQt.J.K.x.x.x.x.x.x.x.x.x.x.x.x.x.x.x.x.x.x.x.x.x.x.x.x.x.x.x.x.L.M.N.y.OQtQtQtQtQtQt",
"QtQtQtQtQtQtQt.J.K.x.x.x.x.x.x.x.x.x.x.x.x.x.x.x.x.x.x.x.x.x.x.x.x.x.x.x.x.L.M.N.y.OQtQtQtQtQtQt",
"QtQtQtQtQtQtQt.J.K.x.x.x.y.y.y.y.y.y.y.y.y.y.y.y.y.y.y.y.y.y.y.y.y.y.y.y.y.L.M.N.y.OQtQtQtQtQtQt",
"QtQtQtQtQtQtQt.J.K.x.x.x.y.y.y.y.y.y.y.y.y.y.y.y.y.y.y.y.y.y.y.y.y.y.y.y.y.L.M.N.y.OQtQtQtQtQtQt",
"QtQtQtQtQtQtQt.J.K.x.x.x.P.P.P.P.P.P.P.P.P.P.P.P.P.P.P.P.P.P.P.P.P.P.P.P.P.L.M.N.y.OQtQtQtQtQtQt",
"QtQtQtQtQtQtQt.J.K.x.x.x.x.x.x.x.x.x.x.x.x.x.x.x.x.x.x.x.x.x.x.x.x.x.x.x.x.L.M.N.y.OQtQtQtQtQtQt",
"QtQtQtQtQtQtQt.J.K.x.x.x.x.x.x.x.x.x.x.x.x.x.x.x.x.x.x.x.x.x.x.x.x.x.x.x.x.L.M.N.y.OQtQtQtQtQtQt",
"QtQtQtQtQtQtQt.J.K.x.x.x.x.x.x.x.x.x.x.x.x.x.x.x.x.x.x.x.x.x.x.x.x.x.x.x.x.L.M.N.y.OQtQtQtQtQtQt",
"QtQtQtQtQtQtQt.J.K.x.x.x.y.y.y.y.y.y.y.y.y.y.y.y.y.y.y.y.y.y.y.y.y.y.y.y.y.L.M.N.y.OQtQtQtQtQtQt",
"QtQtQtQtQtQtQt.J.K.x.x.x.y.y.y.y.y.y.y.y.y.y.y.y.y.y.y.y.y.y.y.y.y.y.y.y.y.L.M.N.y.OQtQtQtQtQtQt",
"QtQtQtQtQtQtQt.J.K.x.x.x.P.P.P.P.P.P.P.P.P.P.P.P.P.P.P.P.P.P.P.P.P.P.P.P.P.L.M.N.y.OQtQtQtQtQtQt",
"QtQtQtQtQtQtQt.J.K.x.x.x.x.x.x.x.x.x.x.x.x.x.x.x.x.x.x.x.x.x.x.x.x.x.x.x.x.L.M.N.y.OQtQtQtQtQtQt",
"QtQtQtQtQtQtQt.J.K.x.x.x.x.x.x.x.x.x.x.x.x.x.x.x.x.x.x.x.x.x.x.x.x.x.x.x.x.L.M.N.y.OQtQtQtQtQtQt",
"QtQtQtQtQtQtQt.J.K.x.x.x.x.x.x.x.x.x.x.x.x.x.x.x.x.x.x.x.x.x.x.x.x.x.x.x.x.L.M.N.y.OQtQtQtQtQtQt",
"QtQtQtQtQtQtQt.J.K.x.x.x.y.y.y.y.y.y.y.y.y.y.y.y.y.y.y.y.y.y.y.y.y.y.y.y.y.L.M.N.y.OQtQtQtQtQtQt",
"QtQtQtQtQtQtQt.J.K.x.x.x.y.y.y.y.y.y.y.y.y.y.y.y.y.y.y.y.y.y.y.y.y.y.y.y.y.L.M.N.y.OQtQtQtQtQtQt",
"QtQtQtQtQtQtQt.J.K.x.x.x.P.P.P.P.P.P.P.P.P.P.P.P.P.P.P.P.P.P.P.P.P.P.P.P.P.L.M.N.y.OQtQtQtQtQtQt",
"QtQtQtQtQtQtQt.J.K.x.x.x.x.x.x.x.x.x.x.x.x.x.x.x.x.x.x.x.x.x.x.x.x.x.x.x.x.L.M.N.y.OQtQtQtQtQtQt",
"QtQtQtQtQtQtQt.J.K.x.x.x.x.x.x.x.x.x.x.x.x.x.x.x.x.x.x.x.x.x.x.x.x.x.x.x.x.L.M.N.y.OQtQtQtQtQtQt",
"QtQtQtQtQtQtQt.Q.R.x.x.S.G.G.G.G.G.G.G.G.G.G.G.G.G.G.G.G.G.G.G.G.G.G.G.G.G.T.U.V.y.WQtQtQtQtQtQt",
"QtQtQtQtQtQtQt.X.Y.Z.0.1.2.2.2.2.2.2.2.2.2.2.2.2.2.2.2.2.2.2.2.2.2.2.2.2.2.l.3.4.y.5QtQtQtQtQtQt",
"QtQtQtQtQtQtQt.6.y.H.7.8.9.q#.#.##.3#a#a#a##.q.9#b#c#d#e#a#a###c#f#g#h#i#j#k#l#m.y.5QtQtQtQtQtQt",
"QtQtQtQtQtQtQt#n.y.y.y.y.y.y.y.y.y.y.y.y.y.y.y.y.y.y.y.y.y.y.y.y.y.y.y.y.y.y.y.y.y.5QtQtQtQtQtQt",
"QtQtQtQtQtQtQt#o#p#q#r#s#s#t#u#v#w#u#x#v#y.5.5.5.5.5#s#x#v#z.5.5.5.5.5.5.5.5.5.5.5.5QtQtQtQtQtQt",
"QtQtQtQtQtQtQtQtQtQtQtQtQtQtQtQtQtQtQtQtQtQtQtQtQtQtQtQtQtQtQtQtQtQtQtQtQtQtQtQtQtQtQtQtQtQtQtQt",
"QtQtQtQtQtQtQtQtQtQtQtQtQtQtQtQtQtQtQtQtQtQtQtQtQtQtQtQtQtQtQtQtQtQtQtQtQtQtQtQtQtQtQtQtQtQtQtQt",
"QtQtQtQtQtQtQtQtQtQtQtQtQt#A#BQtQtQt.y.y.y.yQtQtQtQtQt.y.y.y.yQtQtQtQtQtQtQt.y.yQtQtQtQtQtQtQtQt",
"QtQtQtQtQtQtQtQtQtQtQtQt.r#C#DQtQt.y.yQtQt.y#EQtQtQt.y.yQtQt.y.yQtQtQtQtQt#F#G.yQtQtQtQtQtQtQtQt",
"QtQtQtQtQtQtQtQtQtQtQt#H#I.r#JQt.t.yQtQtQtQt#K#mQt#L#MQtQtQtQt#N#JQtQtQt#l#O#P.yQtQtQtQtQtQtQtQt",
"QtQtQtQtQtQtQtQtQtQt#Q.F.F#R#SQt.y.yQtQtQtQt#T#UQt#V.yQtQtQtQt#W.sQtQt#X#Y#N.y.yQtQtQtQtQtQtQtQt",
"QtQtQtQtQtQtQtQtQt.R#Z.tQt#0.yQt.y.yQtQtQtQt#W#1Qt.y.yQtQtQtQt#2#3Qt#4.y.yQt.y.yQtQtQtQtQtQtQtQt",
"QtQtQtQtQtQtQtQtQt.y.yQtQt.y.yQt.y.yQtQtQtQt#Z.yQt.y.yQtQtQtQt#5.yQt.y.yQtQt.y.yQtQtQtQtQtQtQtQt",
"QtQtQtQtQtQtQtQtQtQtQtQtQt.y.yQt.y.yQtQtQtQt.y.yQt.y.yQtQtQtQt.y.yQtQtQtQtQt.y.yQtQtQtQtQtQtQtQt",
"QtQtQtQtQtQtQtQtQtQtQtQtQt.y.yQt.y.yQtQtQtQt.y.yQt.y.yQtQtQtQt.y.yQtQtQtQtQt.y.yQtQtQtQtQtQtQtQt",
"QtQtQtQtQtQtQtQtQtQtQtQtQt.y.yQtQt.y.yQtQt.y.yQtQtQt.y.yQtQt.y.yQtQtQtQtQtQt.y.yQtQtQtQtQtQtQtQt",
"QtQtQtQtQtQtQtQtQtQtQtQtQt.y.yQtQtQt.y.y.y.yQtQtQtQtQt.y.y.y.yQtQtQtQtQtQtQt.y.yQtQtQtQtQtQtQtQt",
"QtQtQtQtQtQtQtQtQtQtQtQtQtQtQtQtQtQtQtQtQtQtQtQtQtQtQtQtQtQtQtQtQtQtQtQtQtQtQtQtQtQtQtQtQtQtQtQt"};
