/* XPM */
static const char *xpmSequence16x16[]={
"16 16 5 1",
". c None",
"a c #000000",
"# c #00ff00",
"c c #aaaaaa",
"b c #ffffff",
".##############.",
".#aaaaaaaaaaaa#.",
".#abbbbbbbbbba#.",
".#abaaaaaaaaba#.",
".#abccccccccba#.",
".#abbbbbbbbbba#.",
".#abaaaaaaaaba#.",
".#abccccccccba#.",
".#aaaaaaaaaaaa#.",
".##############.",
"................",
"..a..a...a....a.",
".aa.a.a.a.a..aa.",
"a.a.a.a.a.a.a.a.",
"..a.a.a.a.a...a.",
"..a..a...a....a."};

