/* XPM */
static const char * xpmShowDependencies16x16[] = {
"18 18 43 1",
" 	c none",
".	c #585558555855",
"X	c #495249524952",
"o	c #D6F4D6F4D6F4",
"O	c #D9F5D9F5D9F5",
"+	c #DAF5DAF5DAF5",
"@	c #FFFFFFFFFFFF",
"#	c #A1A7A1A7A1A7",
"$	c #D3F4D3F4D3F4",
"%	c #CFF3CFF3CFF3",
"&	c #CCF2CCF2CCF2",
"*	c #C9F1C9F1C9F1",
"=	c #C6F0C6F0C6F0",
"-	c #300B300B300B",
";	c #F3FCF3FCF3FC",
":	c #F5FCF5FCF5FC",
">	c #F6FCF6FCF6FC",
",	c #ACAAACAAACAA",
"<	c #ECFAECFAECFA",
"1	c #E8F9E8F9E8F9",
"2	c #E4F8E4F8E4F8",
"3	c #E0F7E0F7E0F7",
"4	c #F9FDF9FDF9FD",
"5	c #FAFDFAFDFAFD",
"6	c #755C755C755C",
"7	c #ADAAADAAADAA",
"8	c #EDFAEDFAEDFA",
"9	c #E9F9E9F9E9F9",
"0	c #E5F8E5F8E5F8",
"q	c #E1F7E1F7E1F7",
"w	c #C7F1C7F1C7F1",
"e	c #99A599A599A5",
"r	c #AEAAAEAAAEAA",
"t	c #EEFAEEFAEEFA",
"y	c #EAF9EAF9EAF9",
"u	c #E6F8E6F8E6F8",
"i	c #E2F7E2F7E2F7",
"p	c #C8F1C8F1C8F1",
"a	c #F0FBF0FBF0FB",
"s	c #F1FBF1FBF1FB",
"d	c #F2FBF2FBF2FB",
"f	c green",
"g	c green",
"                  ",
" .............X   ",
" .oOO+@.#$%&*=-   ",
" .O;:>@.,<123=-   ",
" .O:45@67890qw6   ",
" .+>5@@ertyuipe   ",
" .O:45666666666.  ",
" .O;:>6yyyyyyyy   ",
" .oasd6y @@@@@y   ",
" .$<8t6y   @fgy   ",
" .%19y6y @@@ggy   ",
" .&20u6y @@@@@y   ",
" .*3qi6y   @fgy   ",
" .==wp6y@@@@ggy   ",
" X--6e6yyyyyyyy   ",
"      .           ",
"                  ",
"                  "};
