/* XPM */
static const char *xpmSQL16x16[]={
"16 16 15 1",
". c None",
"# c #000000",
"l c #000013",
"c c #001900",
"i c #001a00",
"b c #003d00",
"h c #003e00",
"g c #006900",
"k c #009600",
"f c #009700",
"j c #00c100",
"e c #00c200",
"d c #00e600",
"a c #00ff00",
"m c #ffff00",
".....######.....",
"...##aaaaaa##...",
"..#aaaaaaaaaa#..",
"..###aaaaaa###..",
"..#aa######bc#..",
"..#aaaadefghi#..",
"..#aaaadjkgbc#..",
".lllaaa###glll..",
"lmmmla#mmm#lml..",
"mlllm#m###m#ml..",
"mllll#m#j#m#ml..",
"lmmml#m#e#m#ml..",
"llllm#m###m#ml..",
"mlllm#m#m#m#mlll",
"mmmmla#mmm#lmmmm",
"##ll.####m#lllll"};

