/* XPM */
static const char *xpmSQLEditor32x32[] = {
/* width height num_colors chars_per_pixel */
"    32    32      128            2",
/* colors */
".. c #9e6c69",
".# c #326063",
".a c #c3b497",
".b c #f4e497",
".c c #ecc247",
".d c #fcfaf5",
".e c #fbf6da",
".f c #9a9a9a",
".g c #e5e2dc",
".h c #000000",
".i c #ecba4b",
".j c #ffffff",
".k c #85926c",
".l c #f7896a",
".m c #eebc52",
".n c #f2796a",
".o c #ebebe7",
".p c #f2c96a",
".q c #cdb572",
".r c #f1d679",
".s c #7e9382",
".t c #f6e4a9",
".u c #2b2d2d",
".v c #f3a76b",
".w c #97a592",
".x c #7b7c7b",
".y c #6d8c7d",
".z c #e8e9c6",
".A c #eebd65",
".B c #f3da85",
".C c #6a6c6b",
".D c #f1965b",
".E c #f9f2c7",
".F c #efc464",
".G c #a7996d",
".H c #989a82",
".I c #eda558",
".J c #a5aa95",
".K c #f0b36b",
".L c #f5db97",
".M c #898a89",
".N c #828280",
".O c #565857",
".P c #b6b5b4",
".Q c #d0c692",
".R c #f6eee5",
".S c #f0ecd6",
".T c #eec35c",
".U c #f7ecb6",
".V c #d5b658",
".W c #a9a7a4",
".X c #ecd04d",
".Y c #d7d3cb",
".Z c #3f696f",
".0 c #f9f3ec",
".1 c #1fa81f",
".2 c #f7f6ee",
".3 c #f0e8cc",
".4 c #aca790",
".5 c #b8b487",
".6 c #dad9d9",
".7 c #eecb5b",
".8 c #eec154",
".9 c #edc953",
"#. c #b8b3ac",
"## c #f0d667",
"#a c #f4f3e0",
"#b c #b8a666",
"#c c #464949",
"#d c #4b6568",
"#e c #b6a58f",
"#f c #a79a86",
"#g c #fafaec",
"#h c #edd355",
"#i c #b2aa96",
"#j c #eebe4c",
"#k c #fbf9e6",
"#l c #c4c47c",
"#m c #dedcb9",
"#n c #cfcab8",
"#o c #899f7c",
"#p c #ecbc46",
"#q c #efc961",
"#r c #f0c059",
"#s c #e4b54c",
"#t c #f1f0f0",
"#u c #64655e",
"#v c #a5a378",
"#w c #f8f5f0",
"#x c #f0b255",
"#y c #5b5e5b",
"#z c #e3c06d",
"#A c #f6f8ec",
"#B c #4f5051",
"#C c #466f75",
"#D c #00ff00",
"#E c #04f204",
"#F c #5e6160",
"#G c #c3beaf",
"#H c #ccd9ca",
"#I c #d0c7ad",
"#J c #d4d39c",
"#K c #edb651",
"#L c #efc06b",
"#M c #efe07d",
"#N c #abaa6c",
"#O c #bdb37a",
"#P c #bc7763",
"#Q c #f1d077",
"#R c #e8aa71",
"#S c #ecddc5",
"#T c #faf8e0",
"#U c #f3a854",
"#V c #a6af89",
"#W c #dbe0ad",
"#X c #dc9373",
"#Y c #607f6c",
"#Z c #6d7574",
"#0 c #736c60",
"#1 c #f0d063",
"#2 c #e6d89a",
"#3 c #f2d081",
"#4 c #90908f",
"#5 c #e5c857",
"#6 c #eec64b",
"#7 c #d29e56",
"#8 c #f1eaa2",
"#9 c none",
/* pixels */
"#9#9#9#9#9#9#9#9#9#9#9#9#9#9#9#9#9#9#9#9#9#9#9#9#9#9#9#9#9#9#9#9",
"#9.h.h.h.h.h.h.h.h.h.h.h.h.h.h.h.h.h.h.h.h.h.h.h.h.h.h.h.h.h#9#9",
"#9.h#D#D#D#D#D#D.h#D#D#D#D#D#D.h#D#D#D#D#D#D.h#D#D#D#D#D#D.h#9#9",
".f.h.1#E#D#D#D#D.h#D#D#D#D#D#D.h#D#D#D#D#D#D.h#D#D#D#D#D#D.h#9#9",
"#4.f#H.w#E#D#D#D.h#D#D#D#D#D#D.h#D#D#D#D#D#D.h#D#D#D#D#D#D.h#9#9",
".N.R#w.o.s.1#D#D.h#D#D#D#D#D#D.h#D#D#D#D#D#D.h#D#D#D#D#D#D.h#9#9",
"#4.P.o#w.d.6.M.u.h.h.h.h.h.h.h.h.h.h.h.h.h.h.h.h.h.h.h.h.h.h#9#9",
"#9.u#..0#w.d.d#t.P.M#4.6.j.j.j.h.j.j.j.j.j.j.h.j.j.j.j.j.j.h#9#9",
"#9.h.M.6.0#w.d.d.d#t.g.P.M.N.M.u.f.f.f.j.j.j.h.j.j.j.j.j.j.h#9#9",
"#9.h.f.W.g.0#w.d.d.d.d.o.g.Y.P.x.C.C.C#F#B#c.u.j.j.j.j.j.j.h#9#9",
"#9.h.j.N.Y.R.0#w.d.d.d.d.2#a.S.3.Y#n#..a.a#f.u#t.j.j.j.j.j.h#9#9",
"#9.h.h.h.W.S.R.0.2.d.d.d#g#A#a.S.z#m#n#G#i#f#y.u.h.h.h.h.h.h#9#9",
"#9.h.j.j.C#S.S#a#k#A.d.d.d#g.e.E.U.t#2.Q.5.H#f#c.f.j.j.j.j.h#9#9",
"#9.h.j.j.N.W.3.S#a#k#A.d#g#k.e.E.U.t.b.r#z#b.H#u.O.f.j.j.j.h#9#9",
"#9.h.j.j#4.x#S.z.S#a#T#a#k#k#T.e.E.U.b.B#1#s#b.H.O.x.j.j.j.h#9#9",
"#9.h.j.j#t.O#f#m.z.z.E.E.S.e.e.e.E.U.b#M###6#s#v.H#c#t.j.j.h#9#9",
"#9.h.h.h.h.u.N#J#W#8#8.U.E.3.S.Y#n#n.t.B##.9#j.V.H#u.u.h.h.h#9#9",
"#9.h.j.j.j#4#0.Q#J#M#M.b.t#n.f.M.M#G.t.L#Q.9.c#j#N.H#y.x.j.h#9#9",
"#9.h.j.j.j.W#u.a#l#h##.r.B#i.N.o.x#G.t.L#Q.7.c#j.i#o.C#B.f.h#9#9",
"#9.h.j.j.j.f.O.a#l.X.X.X#1.G.N.x#G#I.t.L#3#q.c#j#j.V#o#u#c.h#9#9",
"#9.h.j.j.j.M.O.a.5#5.X.X#6#6#q#Q.B.L.L.L#3.F#p#j#j.m#b.s#y.u#9#9",
"#9.h.h.h.h.u#c#e.4.V.9.X.X#6.c#p.T.p.r.B#Q.F.i.i.i.m#K.G.y#c.M#9",
"#9.h.j.j.j.N#y#e.4#O#r.7#h.9.9#j.i#p.8#q#q.T#p.i.i#K#K.I.k#Y#B#9",
"#9.h.j.j.j.N#u#e#e.4.q#r.7.7.7.9.9#j#j#p.c.c#p.i.i#K#x#U#7#Y.Z#c",
"#9.h.j.j.j.f#Z.O.C.4.4.q.A.F#q.7.7.T.8.m#j#6#6#j.m#K#x.I.D#P.Z.#",
"#9.h.j.j.j.j.j#4.u#F#4.J.5.q.F.F#q#q.T.T#r.8.9.9.8.m#x.I.D.l...#",
"#9.h.h.h.h.h.h.h.u.u#c#y.w.J.5#z.p.F.F.F.T.T.T.T.7.T#x.I.D.n...#",
"#9#9#9#9#9#9#9#9#9#9.f.N#B.x.J#V.q#L.p.F.A.A.A.A.F#q.A.I.l#P#d.#",
"#9#9#9#9#9#9#9#9#9#9#9#9.f.C.C.H.w#V#z#L#L.A.A.K.A.F.p.v#P#d.#.Z",
"#9#9#9#9#9#9#9#9#9#9#9#9#9#9.M.O#Z.w.w.q.K.K.K.K.v.v.v.G#d.Z.Z.Z",
"#9#9#9#9#9#9#9#9#9#9#9#9#9#9#9.f.C.C.s.s#v#R.v.v.D.l..#d.Z.Z.Z#C",
"#9#9#9#9#9#9#9#9#9#9#9#9#9#9#9#9#9.N#B#Z.y.s#X.l.n..#C#C#C#C#C#C"
};
