/* XPM */
static const char *xpmSQLEditor48x48[] = {
/* width height num_colors chars_per_pixel */
"    48    48      246            2",
/* colors */
".. c none",
".# c #0c920c",
".a c #848484",
".b c #b4c291",
".c c #c48e64",
".d c #dce2c4",
".e c #c4a664",
".f c #e0c260",
".g c #8ca287",
".h c #e4a34c",
".i c #aca274",
".j c #98464c",
".k c #dcc6a9",
".l c #e4b64f",
".m c #1c421c",
".n c #f4f2df",
".o c #d4b264",
".p c #acaa94",
".q c #f4d280",
".r c #04ce04",
".s c #ec8448",
".t c #545454",
".u c #c7c38f",
".v c #ece5d5",
".w c #a4b383",
".x c #e2c394",
".y c #e4be7c",
".z c #dcdabc",
".A c #e4b461",
".B c #a49264",
".C c #e8a660",
".D c #ef9546",
".E c #a0a47a",
".F c #b0b485",
".G c #c4b488",
".H c #c4c3c4",
".I c #ececd6",
".J c #899374",
".K c #052405",
".L c #44e644",
".M c #5c6a5c",
".N c #aca584",
".O c #f4d9a7",
".P c #e49e4c",
".Q c #9ca498",
".R c #d6b993",
".S c #ecc674",
".T c #243a24",
".U c #c9a777",
".V c #e4bc50",
".W c #04ec04",
".X c #9c927c",
".Y c #7c866c",
".Z c #ecac48",
".0 c #2c662c",
".1 c #b1b897",
".2 c #fcecdc",
".3 c #b1ac8b",
".4 c #ecc455",
".5 c #e44a4c",
".6 c #424442",
".7 c #d4ce94",
".8 c #ecd9c4",
".9 c #e4ab65",
"#. c #edecea",
"## c #103310",
"#a c #ecca84",
"#b c #e4ba6c",
"#c c #f1cb69",
"#d c #f4f4f3",
"#e c #9cab80",
"#f c #cbbb90",
"#g c #747474",
"#h c #f06850",
"#i c #ecc69c",
"#j c #24ce24",
"#k c #c4c2ac",
"#l c #d1d5bf",
"#m c #f49d49",
"#n c #5ca65c",
"#o c #b4dab4",
"#p c #d4eed4",
"#q c #dca554",
"#r c #f4a352",
"#s c #ec8c49",
"#t c #f4be4c",
"#u c #b8b8b8",
"#v c #f1c469",
"#w c #acc2ac",
"#x c #5c605d",
"#y c #dcdddb",
"#z c #f4ecd6",
"#A c #879b79",
"#B c #ecbb4a",
"#C c #405040",
"#D c #f4aa60",
"#E c #8caa8c",
"#F c #05e105",
"#G c #f4e5d3",
"#H c #f29556",
"#I c #162c16",
"#J c #bcac86",
"#K c #f4cd8f",
"#L c #ec764c",
"#M c #9c8e5c",
"#N c #e4e5e3",
"#O c #eca44a",
"#P c #dcd2c4",
"#Q c #ecb44a",
"#R c #f4db91",
"#S c #a1b499",
"#T c #f4b66c",
"#U c #bca680",
"#V c #a0ad98",
"#W c #d4be91",
"#X c #d7ad74",
"#Y c #949494",
"#Z c #789474",
"#0 c #b1be99",
"#1 c #ecab61",
"#2 c #fcfdfc",
"#3 c #a4ac82",
"#4 c #848a6c",
"#5 c #b4c2a0",
"#6 c #dcd1a1",
"#7 c #d0b678",
"#8 c #d4c596",
"#9 c #2c9a2c",
"a. c #b47664",
"a# c #7cd27c",
"aa c #7c9a84",
"ab c #34b634",
"ac c #051c05",
"ad c #2c4254",
"ae c #34e234",
"af c #7cea7c",
"ag c #fc5a4f",
"ah c #2e482e",
"ai c #14d214",
"aj c #b99b61",
"ak c #dc9a4c",
"al c #7cae7c",
"am c #04f904",
"an c #d48e4c",
"ao c #3a3c3a",
"ap c #3cd23c",
"aq c #cccbcc",
"ar c #1a3b1a",
"as c #6c6d6c",
"at c #646465",
"au c #d4ab69",
"av c #f4be74",
"aw c #bca46c",
"ax c #acacac",
"ay c #bcb27c",
"az c #54ee54",
"aA c #f4d8bc",
"aB c #4c4a4c",
"aC c #d1d1b1",
"aD c #d4caac",
"aE c #d4d4d4",
"aF c #c4aa6c",
"aG c #949d7c",
"aH c #ec7248",
"aI c #f48254",
"aJ c #0cda0c",
"aK c #042d04",
"aL c #7a7d7b",
"aM c #f1cfa4",
"aN c #9c9d9c",
"aO c #bcc2c0",
"aP c #889490",
"aQ c #f4ba6c",
"aR c #4c4e4c",
"aS c #8b8d8b",
"aT c #dcb270",
"aU c #44b444",
"aV c #c4ae78",
"aW c #748a7c",
"aX c #f07e48",
"aY c #dc964c",
"aZ c #f4a55d",
"a0 c #e4ead7",
"a1 c #fcfae4",
"a2 c #dcdec4",
"a3 c #fcdeac",
"a4 c #444a49",
"a5 c #546654",
"a6 c #e4865c",
"a7 c #a4a28c",
"a8 c #ccbba1",
"a9 c #d4a26c",
"b. c #f48c58",
"b# c #c89c70",
"ba c #799387",
"bb c #dc9264",
"bc c #b0b298",
"bd c #5c5a5c",
"be c #c4ca94",
"bf c #acba8c",
"bg c #c7caaf",
"bh c #bcbebc",
"bi c #06e606",
"bj c #74da74",
"bk c #344e34",
"bl c #b4b2b4",
"bm c #f8deb4",
"bn c #ecdebc",
"bo c #bcaa74",
"bp c #f4d590",
"bq c #f49e57",
"br c #e4e4cf",
"bs c #94a381",
"bt c #e4caa0",
"bu c #fcf4e4",
"bv c #dcb45c",
"bw c #e4d8c8",
"bx c #ecb45f",
"by c #ac946c",
"bz c #ccb28e",
"bA c #b4a484",
"bB c #ec9d4b",
"bC c #a4a4a4",
"bD c #f4c57a",
"bE c #f4c254",
"bF c #f4cc7d",
"bG c #ecbc60",
"bH c #f47a5c",
"bI c #e4ce9c",
"bJ c #d4ccc0",
"bK c #ccad67",
"bL c #d4ca94",
"bM c #6c7274",
"bN c #d4dadc",
"bO c #e4be94",
"bP c #04f204",
"bQ c #04fe04",
"bR c #c4ae8c",
"bS c #646a68",
"bT c #2c3a34",
"bU c #94aa89",
"bV c #dcbe94",
"bW c #e4decc",
"bX c #bcc58f",
"bY c #cca25c",
"bZ c #b4a66c",
/* pixels */
"................................................................................................",
"................................................................................................",
"..aKaKaKaKaKaKaKaKaKaKaKaKaKaKaKaKaKaKaKaKaKaKaKaKaKaKaKaKaKaKaKaKaKaKaKaKaKaKaKaKaKaKaKaKaK....",
"...KamamambQbQbQbQbQbQbQaKbQbQbQbQbQbQbQbQbQbQaKbQbQbQbQbQbQbQbQbQbQaKbQbQbQbQbQbQbQbQbQbQaK....",
"..aK.W.WamamambQbQbQbQbQaKbQbQbQbQbQbQbQbQbQbQaKbQbQbQbQbQbQbQbQbQbQaKbQbQbQbQbQbQbQbQbQbQaK....",
"...K#Fbiazaf.LamambQbQbQaKbQbQbQbQbQbQbQbQbQbQaKbQbQbQbQbQbQbQbQbQbQaKbQbQbQbQbQbQbQbQbQbQaK....",
"...K.rbj#p#d#oaebPamamamaKbQbQbQbQbQbQbQbQbQbQaKbQbQbQbQbQbQbQbQbQbQaKbQbQbQbQbQbQbQbQbQbQaK....",
"..acab#w.n#2#Na#apaJ.W.WaKbPamamamamamambQambQaKamamamamamambQbQbQbQaKbQbQbQbQbQbQbQbQbQbQaK....",
"..ac#9aWbn#d#2#yaOalaUaiaK#Fbi.W.WbPbPbPbPbPbPaKbPbPbPbPbPambPamambQaKbQbQbQbQbQbQbQbQbQbQaK....",
"..ac.#.0.Mbga0#da1#zaNaabS#nab#jaJ#F#F#F#Fbi#FaK#F#F#F#F#Fbi.W.WamamaKbQbQbQbQbQbQbQbQbQbQaK....",
"..acacac#Iao.b.d.na1a1.I.zaC#Y.abMa5bkbkbkbk.mar.KaK######ar##aKar.maharaKaKaKaKaKaKaKaKaKaK....",
"..ac.Q#Y#YaRa4#3aC#N.nbu#z#z.Ibra2bgbCbCaxaxblaS#u#u#ubhbhbhbh#uaxaSbS.a#y#2#2#2#2#2#2#2#2aK....",
"...KbCaN#Y.abdaB.waDbW.Ibu#z.vbn.I#z.I.I.I.Ia0.d#ua2bra0#Na0br#l#lbe.1.6#Y#.#2#2#2#2#2#2#2aK....",
"...K#ubC#YaS#g.t.w.u#f#P.v#z.2#z.v.v.v.I.v.I#z.I#z#..I#..I.I#Na2#lbgbf.waRax#2#2#2#2#2#2#2aK....",
"...KbhblbC#YaSas.tbfbL#8aDbw#z.2#G#Gbn#G.v#z.v.I#z#.#z#..I#..v#ybJ#k#3#3#eataE#2#2#2#2#2#2aK....",
"...KaE#uax#Y#YaSas.t.7bI.xa8aD.8#G#G.vbn.v.v#G.v.v.v.v#G#G#G.vbn.k#k.p.E.w#4aLaE#2#2#2#2#2aK....",
"..aK#yaq#ubC#YaS.a#x#e#6bt.x.Ga8#8aAaA.8.8bw.8.8bwbmbmaAa3.O.OaM#K.ya9aj.E.waR.a#.#2#2#2#2aK....",
"...K#NaE.HblaN#YaSas.tbX#8bVbObz#Jbz#iaMbt.k.kbt#abDbD.SbDbDbDav#Tbx#O.Paw#3.w.tbC#2#2#2#2aK....",
"..aKaK.K.Kacacacac.K.6bs#6#8#W#ibzbA#UbV#ibOaT#Q#Q#Q.Z.Z.Z.Z.Z#O.Z#O#ObB.P.e#3bsa4.TaKaKaKaK....",
"..aK#d#NaE.HaxaN#Y.aas.tbX#8.RbVbO.RbRbAbV.S#B#B#Q#B#Q#Q#Q.Z.Z.Z.Z#O#ObB#ObB.e#3#A#xaO#2#2aK....",
"..aK#d#.#yaq#ubC#Y#Y.a.t.E.7bV.R.RbVbObR#UbK#t#B#t#B#B#Q#Q.Z.Z.Z#O#O.Z#O#ObB.hbZ#e.JaLbN#2aK....",
"..aK#2#d#NaE.HaxaN#Y.aasaRbe#8#W.R.RbVbObKbZaF.V.4#tbG#Bbx#Q.Z#O.Z#O.Z#O#ObBbB#q.ibUaR.aaqaK....",
"..aK#2#d#.#yaq#ubC#YaS#ga4.w#8#W.Rbz.R#bbGbvaFbo.V.4bEbx#Q#Q.Z.Z.Z#O.Z.Z.Z#O#m#Oak.EbU.YaS##....",
"..aK#2#2#d#NaEbhbCaNaS.aao.JbX#f.R.R.R.l#Q#B.VaV#J.faRaRaB.6#Q#Q#O.Z.Z#1#O#O#O#mbBbYaG#EaBar....",
"..aK#2#2#d#.aE.HblaN#YaS#IaB.b#fbzbzaTbx#Q#B#t.4#7boaRbd.t.6.6.Z.Z#Q.Z.Z.Z.Z#ObB#m.PajaG#Aa4....",
"..aK#2#2#2#.#Naq#ubC#YaSac.t.Ebebz.GaT.l#Q#Q#B#B.4aR#xas#xaBao#QbG#Q#T#Q.Z.Z.Z#ObB#m.Paj#A#A.6..",
"..aKaKaKaKaK.K.K.KacacacacbT.J.u#fbzaT.9.Z#Q#Q#B.Va4asaL#gas#x#v#vbGbG.Z.Z.Z.Z#O#ObB#maYby#A#Z..",
"..aK#2#2#2#da0#yaOblaNaSacasaB.w.GbR.o.A.Z#Q.Z#Q.l.6ataL.a.aaL.qbF#vav#Q#Q.Z.Z.Z#r#ObB.DaY.B#Z..",
"..aK#2#2#2#2#.#yaq#u.Q#YacaLaR#3.F#JbKbx.Z.Z#Q#Q#Q.lbdaLaS#Y#R#R.q.S.4bx#Q.Z.Z.Z#O#O#O#m.DaY#M..",
"..aK#2#2#2#2#d#NaE#uax#Yac.abd#A.F.3au.A#Q.Z.Z.Z#QbGbG.Rbtbp#Rbp.q#c#v#t#Q#Q.Z.Z.Z#O#ObB#m.Dan..",
"..aK#2#2#2#2#d#NaEbhax#Yac.a#x#4#3aybR.Abx.Z.Z#Q#Qav.SbFbpbpbp#a.q#c.4#B#Q#Q.Z.Z.Z.Z#O#ObB#H#s..",
"..aK#2#2#2#2#d#.#y.HaxaNac.aat.6.w.paw.9bx.Z.Z.Z#TbGbDbF#K#KbF.S#v#c.4#B#B#Q#Q#Q.Z#O#O#ObBbB#H..",
"..aK#2#2#2#2#2#.#yaqblaNacaS#gaB#3.E.NbY.h#O#O.Zbx#T#bbDbDbD#abD#vbG.4.4#B#B#Q#Q.Z.Z#O#ObBbB#H..",
"..aK#2#2#2#2#d#.#yaqblbCacaS.a.t#3.3.paw#q.Z#O#O#O#D#T#T.ybGaQbx#B#Q#B#B#B#B#B#Q#Q.Z.Z.ZbBbBbB..",
"..aKaKaKaKaKaKaK.K.K.Kacacacac.6.w.F.3bA.U.C#O#1#O#ObB#O#r.Z.Z#Q.Z#Q#Q#Q#B#B#B#B#B#Q.Z.Z#ObB#H..",
"..aK#2#2#2#2#2#d#NaEbh#Vac#Y.a.t#3bf.p.p.3bK.9#1#O#O#O#O#O#O#O.Z.Z.Z.Z.Z#Q#B#B#B#B#Q#Q.Z#ObB.D..",
"..aK#2#2#2#2#2#d#N#yaqblacaNaS#x.p.b#0bcbc#J#X.9#1#D#O#O#O#r#O#O#O#O.Z.Z.Z.Z#Q#B#B#B#Q#Q.Z.ZbB..",
"..aK#2#2#2#2#2#2#.#NaE.HacaxaNaLatat#V.1#5.1.1.GaT#1#1aZaZ#O#O#ObB#O#O.Z.Z.Z.Z#Q#Q#B#B#B#Q.ZbB..",
"..aK#2#2#2#2#2#2#d#.#yaE.K#ublbC#Y.aaL#gbM.1#5.1.1bz#X#1#1aZ#r#ObBbBbB#O#O#O.Z.Z.Z#Q#Q#B#B#Q#O..",
"..aK#2#2#2#2#2#2#d#.#.#y.K#laqbhblaxaN#YaL#gbM.1#0#0bc.3bR.C#D#r#r#rbBbB.DbBbB#O.Z.Z#Q#B#B#Q#Q..",
"..aK#2#2#2#2#2#2#2#2#d#.aK#y#yaEaqbh#uaxbC#YaL#x#g#V#0.1#V#J#X.CaZ#r#ObBbBbB.DbBbB#O#O.Z#Q#Q#B..",
"..aK#2#2#2#2#2#2#2#2#2#2aK#.#.#N#yaEaq.H#uaxbC#I.a#gaP#S.1#S#3bA.U.Cbq#mbBbBbB.D.D.D#ObBbB.Z#Q..",
"..aKaKaKaKaKaKaKaKaKaKaKaKaKaK.KaKaK.K.K.K.Kac.Kac#I#C#xbS#V#S#V.Q.Na9aZbq#H#s.D#s#s.D.D.D.DbB..",
"...........................................................tas#V#SbUa7b#b##Hb.b.#s.saXaX.s#saX..",
"..............................................................#xas.g#E.g#Ybybbb.b.aIaX#LaHaHag..",
"..................................................................bdba#EaaaP.X.ca6bHaH#hag.5.j..",
"....................................................................aBasbaaabaaWaLa.#hag.5.jad..",
"................................................................................................"
};


