/* XPM */
static const char *xpmSQLEditor16x16[] = {
/* width height num_colors chars_per_pixel */
"    16    16      128            2",
/* colors */
".. c #3b3d3d",
".# c #000000",
".a c #edc34f",
".b c #f9e5c2",
".c c #f5e8db",
".d c #97826c",
".e c #f5be7d",
".f c #6c6c6c",
".g c #f8dcad",
".h c #dbd9d8",
".i c #7c7b7a",
".j c #f4eee9",
".k c #ecb649",
".l c #494a4a",
".m c #959595",
".n c #edd14d",
".o c #525452",
".p c #818282",
".q c #eec25c",
".r c #5d5f5c",
".s c #767777",
".t c #8d8e8e",
".u c #1e1e1e",
".v c #ffffff",
".w c #00ff00",
".x c #f5ece1",
".y c #f0b95d",
".z c #ee9e47",
".A c #ee885f",
".B c #c79564",
".C c #cfc4ad",
".D c #e9cda6",
".E c #3f4140",
".F c #8c7f6a",
".G c #989898",
".H c #f1b45b",
".I c #bba68c",
".J c #232323",
".K c #6d856d",
".L c #f8d09f",
".M c #f5d194",
".N c #a47161",
".O c #ded5c9",
".P c #80817c",
".Q c #787979",
".R c #345c65",
".S c #f3e7d9",
".T c #b3946f",
".U c #eecb58",
".V c #8c918b",
".W c #e39d55",
".X c #c7bdae",
".Y c #f2a659",
".Z c #eba55a",
".0 c #eeb450",
".1 c #f2dc79",
".2 c #db9453",
".3 c #bebdbb",
".4 c #f1cd7f",
".5 c #f4e4c7",
".6 c #ff845a",
".7 c #4c884d",
".8 c #428e42",
".9 c #f3d67f",
"#. c #686961",
"## c #f68755",
"#a c #767570",
"#b c #f3c06f",
"#c c #737272",
"#d c #929792",
"#e c #acacab",
"#f c #515858",
"#g c #eadfd1",
"#h c #e2deda",
"#i c #edd8bd",
"#j c #f4daa2",
"#k c #f4eae0",
"#l c #fcb95e",
"#m c #c8c2bc",
"#n c #f79c4d",
"#o c #05ee05",
"#p c #f3db91",
"#q c #f6eee6",
"#r c #f49f57",
"#s c #f7ecd7",
"#t c #f0e2d5",
"#u c #edc152",
"#v c #f2c57d",
"#w c #fbf3ec",
"#x c #fa7f60",
"#y c #1f1f20",
"#z c #f9f1ea",
"#A c #f8f0e9",
"#B c #f2d184",
"#C c #f0d26d",
"#D c #a9a6a2",
"#E c #ead0b2",
"#F c #f3ede6",
"#G c #f4a84f",
"#H c #eea852",
"#I c #fbf3eb",
"#J c #e6be94",
"#K c #f8eee4",
"#L c #f8e2ba",
"#M c #1f2020",
"#N c #f7ddba",
"#O c #edcd54",
"#P c #313232",
"#Q c #898886",
"#R c #fae9cd",
"#S c #4f5051",
"#T c #d8bb96",
"#U c #c2b296",
"#V c #c6a681",
"#W c #b8825c",
"#X c #d4985a",
"#Y c #f4ae5c",
"#Z c #efb957",
"#0 c #f1ad48",
"#1 c #b8b8b7",
"#2 c #f2e4c0",
"#3 c #f6ce95",
"#4 c #e1a663",
"#5 c #ecc548",
"#6 c #737472",
"#7 c #909191",
"#8 c #a7a7a7",
"#9 c #f3a645",
/* pixels */
".#.#.#.#.#.#.#.#.#.#.#.#.#.#.#.#",
".#.7.K#o.w.#.w.w.w.w.#.w.w.w.w.#",
".#.V#F#d.8.#.w.w.w.w.#.w.w.w.w.#",
".##P#e#I.h#8.f.l.J.#.#.#.#.#.#.#",
".#.v.p#h#z#w.j.h#1.t.i.p.Q.v.v.#",
".#.v.G.3#K#q#A#A.x.S#g.O.m.m.v.#",
".#.#.#.s.c#k#k#s#R.b#N#E.X.o.#.#",
".#.v.v.Q#m#t.5#2.b#L.g.L#J.P.s.#",
".#.v.v.t#D#i.g.C#Q#c#j.M.e#V#S#y",
".#.#.##y.i.D#3#U.f#a#p#B#b.Z.F..",
".#.v.v.m#6#T.e#v.4.9.1#C.q#9.2.o",
".#.v.v#7.r.I#4#Y.y.q.U.n#5.k#n#W",
".#.#.#.u#P.E.d#X.z#0.k#5.n.a#H##",
".#.v.v.v.v#M#S.r.T.W#G.0#u#O#Z.6",
".#.v.v.v.v.#.v.p.l#..B#r.Y.H#l.N",
".#.#.#.#.#.#.#.#.#..#f.d.A#x.N.R"
};



