/* XPM */
static const char * xpmStop16x16[] = {
"16 16 43 1",
" 	c None",
".	c #630000",
"+	c #EA5A4D",
"@	c #DA2700",
"#	c #380202",
"$	c #E0442E",
"%	c #D32300",
"&	c #E4DDDD",
"*	c #E8E2E2",
"=	c #D22300",
"-	c #D83922",
";	c #FFFFFF",
">	c #BFA9A9",
",	c #F5F3F3",
"'	c #CC2000",
")	c #C82004",
"!	c #690200",
"~	c #C41D00",
"{	c #C7B5B5",
"]	c #C41C00",
"^	c #DD4A3C",
"/	c #BB1900",
"(	c #CAB8B8",
"_	c #BD1A00",
":	c #CC3626",
"<	c #B41600",
"[	c #C7B4B4",
"}	c #B51700",
"|	c #BD2414",
"1	c #AE1300",
"2	c #BCA5A5",
"3	c #AC1404",
"4	c #A71000",
"5	c #E2D7D7",
"6	c #9E6864",
"7	c #9F0D00",
"8	c #D2C3C3",
"9	c #F4F0F0",
"0	c #410202",
"a	c #980A00",
"b	c #900700",
"c	c #890400",
"d	c #810000",
"     ......     ",
"   ..++++++..   ",
"  .++@##@@@+$.  ",
" .+%##&*##%%=-. ",
" .+#;>,,>;#'')! ",
".+~#;{,,{;#~~]~.",
".^/#;(,,(;#_#__.",
".:<#;[,,[;##;#}.",
".|1#;[[[2;#;;#1.",
".34#[;;;5(;;644.",
".77#;;;89;;;077.",
" .a#;;;[;;;#aa. ",
" .bb#;;;;;#bbb. ",
"  .cc#####ccc.  ",
"   ..dddddd..   ",
"     ......     "};
