/* XPM */
static char *Strikeout_xpm[]={
"48 48 97 2",
"Qt c None",
".l c #000000",
"#p c #010101",
"#s c #020202",
"#q c #030303",
".k c #040404",
"#l c #070707",
".J c #080808",
".4 c #090909",
".V c #0a0a0a",
".O c #0b0b0b",
".x c #0c0c0c",
".S c #0d0d0d",
".C c #0e0e0e",
".W c #0f0f0f",
".Z c #101010",
".E c #131313",
".5 c #141414",
".2 c #151515",
".m c #161616",
"#A c #171717",
".Y c #181818",
".R c #191919",
"#j c #1a1a1a",
".N c #1c1c1c",
".G c #1f1f1f",
".z c #222222",
".I c #232323",
".8 c #242424",
"#x c #252525",
".D c #282828",
".1 c #2a2a2a",
"#o c #2b2b2b",
"#. c #2e2e2e",
"#a c #303030",
".y c #313131",
".t c #323232",
"#i c #333333",
"## c #343434",
"#k c #353535",
"#E c #363636",
"#B c #373737",
".u c #393939",
".s c #3a3a3a",
"#h c #3d3d3d",
".7 c #3f3f3f",
"#y c #434343",
".n c #454545",
".M c #464646",
"#C c #484848",
".3 c #4a4a4a",
".j c #4b4b4b",
"#e c #4f4f4f",
".c c #505050",
".9 c #525252",
"#D c #545454",
".d c #555555",
".X c #575757",
".b c #585858",
".e c #5b5b5b",
".p c #5d5d5d",
".o c #5e5e5e",
".0 c #5f5f5f",
".f c #616161",
".Q c #636363",
".g c #646464",
"#n c #666666",
".w c #676767",
".6 c #696969",
".B c #6a6a6a",
".a c #6b6b6b",
"#g c #6c6c6c",
"#r c #6d6d6d",
"#t c #6f6f6f",
"#m c #707070",
"#v c #717171",
".i c #797979",
".U c #7a7a7a",
".F c #7c7c7c",
".r c #7e7e7e",
"#u c #818181",
".# c #828282",
".H c #858585",
"#z c #878787",
".L c #888888",
"#f c #898989",
".P c #8a8a8a",
"#d c #8b8b8b",
".T c #8e8e8e",
".K c #939393",
"#w c #949494",
".h c #959595",
"#b c #989898",
".v c #999999",
".A c #9b9b9b",
".q c #9d9d9d",
"#c c #a1a1a1",
"QtQtQtQtQtQtQtQtQtQtQtQtQtQtQtQtQtQtQtQtQtQtQtQtQtQtQtQtQtQtQtQtQtQtQtQtQtQtQtQtQtQtQtQtQtQtQtQt",
"QtQtQtQtQtQtQtQtQtQtQtQtQtQtQtQtQtQtQtQtQtQtQtQtQtQtQtQtQtQtQtQtQtQtQtQtQtQtQtQtQtQtQtQtQtQtQtQt",
"QtQtQtQtQtQtQtQtQtQtQtQtQtQtQtQtQtQtQtQtQtQtQtQtQtQtQtQtQtQtQtQtQtQtQtQtQtQtQtQtQtQtQtQtQtQtQtQt",
"QtQtQtQtQtQtQtQtQtQtQtQtQtQtQtQtQtQtQtQtQtQtQtQtQtQtQtQtQtQtQtQtQtQtQtQtQtQtQtQtQtQtQtQtQtQtQtQt",
"QtQtQtQtQtQtQtQtQtQtQtQtQtQtQtQtQtQtQtQtQtQtQtQtQtQtQtQtQtQtQtQtQtQtQtQtQtQtQtQtQtQtQtQtQtQtQtQt",
"QtQtQtQtQtQtQtQtQtQtQtQtQtQtQtQtQtQtQtQtQtQtQtQtQtQtQtQtQtQtQtQtQtQtQtQtQtQtQtQtQtQtQtQtQtQtQtQt",
"QtQtQtQtQtQtQtQtQtQtQtQtQtQtQtQtQtQtQtQt.#.a.b.c.d.e.f.gQtQtQtQtQtQtQtQtQtQtQtQtQtQtQtQtQtQtQtQt",
"QtQtQtQtQtQtQtQtQtQtQtQtQtQtQtQtQt.h.i.j.k.l.l.l.l.l.l.m.n.o.pQtQtQtQtQtQtQtQtQtQtQtQtQtQtQtQtQt",
"QtQtQtQtQtQtQtQtQtQtQtQtQtQtQt.q.r.s.l.l.lQtQtQtQtQtQt.l.l.l.t.n.uQtQtQtQtQtQtQtQtQtQtQtQtQtQtQt",
"QtQtQtQtQtQtQtQtQtQtQtQtQtQt.v.w.l.l.lQtQtQtQtQtQtQtQtQtQt.l.l.x.y.zQtQtQtQtQtQtQtQtQtQtQtQtQtQt",
"QtQtQtQtQtQtQtQtQtQtQtQtQt.A.B.l.lQtQtQtQtQtQtQtQtQtQtQtQtQtQt.l.C.D.EQtQtQtQtQtQtQtQtQtQtQtQtQt",
"QtQtQtQtQtQtQtQtQtQtQtQt.q.F.l.lQtQtQtQtQtQtQtQtQtQtQtQtQtQtQtQt.l.z.G.xQtQtQtQtQtQtQtQtQtQtQtQt",
"QtQtQtQtQtQtQtQtQtQtQt.A.H.I.l.lQtQtQtQtQtQtQtQtQtQtQtQtQtQtQtQt.l.k.I.m.JQtQtQtQtQtQtQtQtQtQtQt",
"QtQtQtQtQtQtQtQtQtQt.K.L.M.l.lQtQtQtQtQtQtQtQtQtQtQtQtQtQtQtQtQtQt.l.C.N.O.lQtQtQtQtQtQtQtQtQtQt",
"QtQtQtQtQtQtQtQtQtQt.P.Q.l.l.lQtQtQtQtQtQtQtQtQtQtQtQtQtQtQtQtQtQt.l.l.R.S.l.lQtQtQtQtQtQtQtQtQt",
"QtQtQtQtQtQtQtQtQt.T.U.y.l.lQtQtQtQtQtQtQtQtQtQtQtQtQtQtQtQtQtQtQtQt.V.R.W.l.lQtQtQtQtQtQtQtQtQt",
"QtQtQtQtQtQtQtQt.F.F.X.l.l.lQtQtQtQtQtQtQtQtQtQtQtQtQtQtQtQtQtQtQtQt.Y.N.Z.l.l.lQtQtQtQtQtQtQtQt",
"QtQtQtQtQtQtQtQt.w.0.1.l.l.lQtQtQtQtQtQtQtQtQtQtQtQtQtQtQtQtQtQtQtQt.m.2.C.l.l.lQtQtQtQtQtQtQtQt",
"QtQtQtQtQtQtQtQt.o.3.4.l.lQtQtQtQtQtQtQtQtQtQtQtQtQtQtQtQtQtQtQtQtQt.V.V.S.l.l.lQtQtQtQtQtQtQtQt",
"QtQtQtQtQtQtQtQt.g.M.l.l.lQtQtQtQtQtQtQtQtQtQtQtQtQtQtQtQtQtQtQtQtQtQt.C.5.l.l.lQtQtQtQtQtQtQtQt",
"QtQtQtQtQtQtQt.6.g.7.l.l.lQtQtQtQtQtQtQtQtQtQtQtQtQtQtQtQtQtQtQtQtQtQt.z.8.Z.l.l.lQtQtQtQtQtQtQt",
"QtQtQtQtQtQtQt.b.9#..l.l.lQtQtQtQtQtQtQtQtQtQtQtQtQtQtQtQtQtQtQtQtQtQt###a.Y.l.l.lQtQtQtQtQtQtQt",
"QtQt#b#c.h#d#d#d#d#d#d#d#d#d#d#d#d#d#d#d#d#d#d#d#d#d#d#d#d#d#d#d#d#d#d#d#d#d#d#d#d#d#d#d.U#e.SQt",
"QtQt.F#f.F#g#g#g#g#g#g#g#g#g#g#g#g#g#g#g#g#g#g#g#g#g#g#g#g#g#g#g#g#g#g#g#g#g#g#g#g#g#g#g.9.Z.lQt",
"QtQt#h#i.m.l.l.l.l.l.l.l.l.l.l.l.l.l.l.l.l.l.l.l.l.l.l.l.l.l.l.l.l.l.l.l.l.l.l.l.l.l.l.l.l.l.lQt",
"QtQt.l.l.l.l.l.l.l.l.l.l.l.l.l.l.l.l.l.l.l.l.l.l.l.l.l.l.l.l.l.l.l.l.l.l.l.l.l.l.l.l.l.l.l.l.lQt",
"QtQt.l.l.l.l.l.l.l.l.l.l.l.l.l.l.l.l.l.l.l.l.l.l.l.l.l.l.l.l.l.l.l.l.l.l.l.l.l.l.l.l.l.l.l.l.lQt",
"QtQtQtQtQtQtQt.G#j.C.l.l.lQtQtQtQtQtQtQtQtQtQtQtQtQtQtQtQtQtQtQtQtQtQt#h#k.Z.l.l.lQtQtQtQtQtQtQt",
"QtQtQtQtQtQtQt.V.V.x.l.l.lQtQtQtQtQtQtQtQtQtQtQtQtQtQtQtQtQtQtQtQtQtQt.n.s#l.l.l.lQtQtQtQtQtQtQt",
"QtQtQtQtQtQtQtQt.C.5.l.l.lQtQtQtQtQtQtQtQtQtQtQtQtQtQtQtQtQtQtQtQtQtQt.d.7.l.l.lQtQtQtQtQtQtQtQt",
"QtQtQtQtQtQtQtQt.Y#j.x.l.l.lQtQtQtQtQtQtQtQtQtQtQtQtQtQtQtQtQtQtQtQtQt.g.7.l.l.lQtQtQtQtQtQtQtQt",
"QtQtQtQtQtQtQtQt.m.2.C.l.l.lQtQtQtQtQtQtQtQtQtQtQtQtQtQtQtQtQtQtQtQt#m#n#o.l.l.lQtQtQtQtQtQtQtQt",
"QtQtQtQtQtQtQtQt#p.l#q.l.l.lQtQtQtQtQtQtQtQtQtQtQtQtQtQtQtQtQtQtQtQt#r.b#s.l.lQtQtQtQtQtQtQtQtQt",
"QtQtQtQtQtQtQtQtQt.l.l.l.l.lQtQtQtQtQtQtQtQtQtQtQtQtQtQtQtQtQtQtQtQt#t.7.l.l.lQtQtQtQtQtQtQtQtQt",
"QtQtQtQtQtQtQtQtQt.l.l.l.l.l.lQtQtQtQtQtQtQtQtQtQtQtQtQtQtQtQtQtQt.F#n.O.l.lQtQtQtQtQtQtQtQtQtQt",
"QtQtQtQtQtQtQtQtQtQt.l.l.l.l.lQtQtQtQtQtQtQtQtQtQtQtQtQtQtQtQtQtQt.i#h.l.l.lQtQtQtQtQtQtQtQtQtQt",
"QtQtQtQtQtQtQtQtQtQtQt.l.l.l.l.lQtQtQtQtQtQtQtQtQtQtQtQtQtQtQtQt#u.e.l.l.lQtQtQtQtQtQtQtQtQtQtQt",
"QtQtQtQtQtQtQtQtQtQtQtQt.l.l.l.l.lQtQtQtQtQtQtQtQtQtQtQtQtQtQtQt#v#s.l.lQtQtQtQtQtQtQtQtQtQtQtQt",
"QtQtQtQtQtQtQtQtQtQtQtQtQt.l.l.l.lQtQtQtQtQtQtQtQtQtQtQtQtQtQt.#.I.l.lQtQtQtQtQtQtQtQtQtQtQtQtQt",
"QtQtQtQtQtQtQtQtQtQtQtQtQtQt.l.l.l.S#aQtQtQtQtQtQtQtQtQtQt#w#m.E.l.lQtQtQtQtQtQtQtQtQtQtQtQtQtQt",
"QtQtQtQtQtQtQtQtQtQtQtQtQtQtQt.l.l.l.l#x#yQtQtQtQtQtQt#z.w#x.l.l.lQtQtQtQtQtQtQtQtQtQtQtQtQtQtQt",
"QtQtQtQtQtQtQtQtQtQtQtQtQtQtQtQtQt.l.l.l.l#A#B#C#D#e#E.l.l.l.lQtQtQtQtQtQtQtQtQtQtQtQtQtQtQtQtQt",
"QtQtQtQtQtQtQtQtQtQtQtQtQtQtQtQtQtQtQtQt.l.l.l.l.l.l.l.lQtQtQtQtQtQtQtQtQtQtQtQtQtQtQtQtQtQtQtQt",
"QtQtQtQtQtQtQtQtQtQtQtQtQtQtQtQtQtQtQtQtQtQtQtQtQtQtQtQtQtQtQtQtQtQtQtQtQtQtQtQtQtQtQtQtQtQtQtQt",
"QtQtQtQtQtQtQtQtQtQtQtQtQtQtQtQtQtQtQtQtQtQtQtQtQtQtQtQtQtQtQtQtQtQtQtQtQtQtQtQtQtQtQtQtQtQtQtQt",
"QtQtQtQtQtQtQtQtQtQtQtQtQtQtQtQtQtQtQtQtQtQtQtQtQtQtQtQtQtQtQtQtQtQtQtQtQtQtQtQtQtQtQtQtQtQtQtQt",
"QtQtQtQtQtQtQtQtQtQtQtQtQtQtQtQtQtQtQtQtQtQtQtQtQtQtQtQtQtQtQtQtQtQtQtQtQtQtQtQtQtQtQtQtQtQtQtQt",
"QtQtQtQtQtQtQtQtQtQtQtQtQtQtQtQtQtQtQtQtQtQtQtQtQtQtQtQtQtQtQtQtQtQtQtQtQtQtQtQtQtQtQtQtQtQtQtQt"};
