/* XPM */
static const char *xpmStrikeout16x16[]={
"16 16 3 1",
"# c None",
". c None",
"a c #000000",
"................",
".......###......",
"......#aaa#.....",
".....#a###a#....",
"....#a#...#a#...",
"....#a#...#a#...",
"...#a#.....#a#..",
"...#a#.....#a#..",
".aaaaaaaaaaaaaaa",
"...#a#.....#a#..",
"...#a#.....#a#..",
"....#a#...#a#...",
"....#a#...#a#...",
".....#a###a#....",
"......#aaa#.....",
"................"};

