/* XPM */
static const char *xpmTableDerived[]={
"48 48 140 2",
"Qt c None",
".C c #000000",
"ac c #004100",
"aj c #004d00",
"#7 c #005600",
"#. c #006000",
".Y c #006e00",
"ai c #007500",
".N c #008d00",
"ah c #00a700",
".D c #00b100",
"ag c #00d100",
".u c #00dc00",
"ad c #00f500",
"#n c #020202",
"#o c #090909",
"#z c #0a0a0a",
".t c #0d0d0d",
".j c #0dff0d",
"#p c #121212",
"#8 c #14ff14",
"#O c #161616",
"#x c #181818",
"#q c #191919",
"#s c #1a1a1a",
"#S c #1d1d1d",
"#Y c #1e1e1e",
"#H c #1f1f1f",
"#E c #232323",
"## c #252525",
"#2 c #292929",
"#w c #2b2b2b",
"#V c #2d2d2d",
"#I c #303030",
"#1 c #30ff30",
"#C c #343434",
".s c #373737",
".i c #39ff39",
".6 c #3c3c3c",
".Z c #3d3d3d",
".5 c #3dff3d",
"#m c #410000",
"#R c #414141",
"#A c #434343",
"#B c #494949",
".U c #49ff49",
"#0 c #4a4a4a",
".V c #4c4c4c",
"#F c #4e4e4e",
".y c #4f4f4f",
"#D c #525252",
".O c #535353",
"#y c #555555",
".h c #5aff5a",
".r c #5b5b5b",
"af c #616161",
".K c #61ff61",
"ab c #626262",
"#l c #630000",
"#u c #656565",
"#r c #686868",
".L c #6b6b6b",
"#v c #6f6f6f",
".g c #73ff73",
".q c #767676",
".z c #77ff77",
"#t c #797979",
".x c #7a7a7a",
"#N c #7b7b7b",
".E c #7c7c7c",
"#U c #7e7e7e",
"#e c #810000",
".p c #828282",
"#k c #830000",
".A c #858585",
".f c #86ff86",
".o c #8b8b8b",
".k c #8bff8b",
"#6 c #8c8c8c",
".e c #8eff8e",
"#j c #900000",
"#i c #920000",
".w c #959595",
".d c #95ff95",
".n c #979797",
".l c #989898",
".# c #99ff99",
"#X c #9a9a9a",
"#h c #9c0000",
".m c #9c9c9c",
"#M c #9f9f9f",
".c c #9fff9f",
".v c #a1a1a1",
".4 c #a20000",
".9 c #a2a2a2",
".a c #a3ffa3",
".b c #a4ffa4",
"aa c #a5a5a5",
"#5 c #afafaf",
"a# c #b5b5b5",
"ae c #b6b6b6",
"#d c #b80000",
".X c #b9b9b9",
"#g c #bf0000",
"#f c #c1c1c1",
"#T c #c6c6c6",
"#Q c #c7c7c7",
".T c #c80000",
".8 c #c8c8c8",
"#Z c #cccccc",
"#4 c #d1d1d1",
"a. c #d2d2d2",
"#L c #d3d3d3",
"#c c #d70000",
"#b c #db0000",
"#W c #dfdfdf",
".3 c #e20000",
".W c #e2e2e2",
".M c #e6e6e6",
"#G c #e9e9e9",
"#9 c #ececec",
".7 c #eeeeee",
"#a c #ef0000",
"#P c #efefef",
"#3 c #f2f2f2",
"#K c #f3f3f3",
"#J c #fefefe",
".2 c #ff0000",
".S c #ff0e0e",
".J c #ff1010",
".1 c #ff1818",
".R c #ff2c2c",
".0 c #ff3535",
".Q c #ff4242",
".I c #ff5252",
".P c #ff5757",
".H c #ff6c6c",
".G c #ff7c7c",
".F c #ff8989",
".B c #ffffff",
"QtQtQtQtQtQtQtQtQtQtQtQtQtQtQtQtQtQtQtQtQtQtQtQtQtQtQtQtQtQtQtQtQtQtQtQtQtQtQtQtQtQtQtQtQtQtQtQt",
"QtQtQtQtQtQtQtQtQtQtQtQtQtQtQt.#.a.b.c.d.e.e.e.e.e.e.e.e.e.e.e.e.e.e.e.e.e.e.e.e.e.f.g.h.i.jQtQt",
"QtQtQtQtQtQtQtQtQtQtQtQtQtQtQt.k.l.m.n.o.p.p.p.p.p.p.p.p.p.p.p.p.p.p.p.p.p.p.p.p.p.q.r.s.t.uQtQt",
"Qt.l.v.w.o.o.o.x.y.tQtQtQtQtQt.z.A.B.B.B.B.B.B.B.B.B.B.B.B.B.B.B.B.B.B.B.B.B.B.B.B.B.B.B.C.DQtQt",
"Qt.E.F.G.H.H.H.I.J.CQtQtQtQtQt.K.L.B.B.B.B.B.B.B.B.B.B.B.B.B.B.B.B.B.B.B.B.B.B.B.B.B.B.M.C.NQtQt",
"Qt.O.P.Q.R.R.R.S.T.CQtQtQtQtQt.U.V.B.B.B.B.B.B.B.B.B.B.B.B.B.B.B.B.B.B.B.B.B.B.B.B.B.W.X.C.YQtQt",
"Qt.Z.0.1.2.2.2.3.4.CQtQtQtQtQt.5.6.B.B.B.B.B.B.B.B.B.B.B.B.B.B.B.B.B.B.B.B.B.B.B.B.7.8.9.C#.QtQt",
"Qt.Z.0.1.2.2.2.3.4.CQtQtQtQtQt.5.6.B.B.B.C.C.C.C.C.C.C.C.C.C.C.C.C.C.C.C.C.C.C.C.C.7.8.9.C#.QtQt",
"Qt.Z.0.1.2.2.2.3.4.CQtQtQtQtQt.5.6.B.B.B.C.C.C.C.C.C.C.C.C.C.C.C.C.C.C.C.C.C.C.C.C.7.8.9.C#.QtQt",
"Qt##.J#a#b#b#c#d#e.CQtQtQtQtQt.5.6.B.B.B#f#f#f#f#f#f#f#f#f#f#f#f#f#f#f#f#f#f#f#f#f.7.8.9.C#.QtQt",
"Qt.C#g#h#i#j#k#l#m.CQtQtQtQtQt.5.6.B.B.B.B.B.B.B.B.B.B.B.B.B.B.B.B.B.B.B.B.B.B.B.B.7.8.9.C#.QtQt",
"Qt.C.C.C.C.C.C.C.C.CQtQtQtQtQt.5.6.B.B.B.B.B.B.B.B.B.B.B.B.B.B.B.B.B.B.B.B.B.B.B.B.7.8.9.C#.QtQt",
"QtQtQtQtQt.CQtQtQtQtQtQtQtQtQt.5.6.B.B.B.B.B.B.B.B.B.B.B.B.B.B.B.B.B.B.B.B.B.B.B.B.7.8.9.C#.QtQt",
"QtQtQtQtQt.CQtQtQtQtQtQtQtQtQt.5.6.B.B.B.C.C.C.C.C.C.C.C.C.C.C.C.C.C.C.C.C.C.C.C.C.7.8.9.C#.QtQt",
"QtQtQtQtQt.CQtQtQtQtQtQtQtQtQt.5.6.B.B.B.C.C.C.C.C.C.C.C.C.C.C.C.C.C.C.C.C.C.C.C.C.7.8.9.C#.QtQt",
"QtQtQtQtQt.CQtQtQtQtQtQtQtQtQt.5.6.B.B.B#f#f#f#f#f#f#f#f#f#f#f#f#f#f#f#f#f#f#f#f#f.7.8.9.C#.QtQt",
"QtQtQtQtQt.CQtQtQtQtQtQtQtQtQt.5.6.B.B.B.B.B.B.B.B.B.B.B.B.B.B.B.B.B.B.B.B.B.B.B.B.7.8.9.C#.QtQt",
"QtQtQtQtQt.CQtQtQtQtQtQtQtQtQt.5.6.B.B.B.B.B.B.B.B.B.B.B.B.B.B.B.B.B.B.B.B.B.B.B.B.7.8.9.C#.QtQt",
"QtQtQtQtQt.CQtQtQtQtQtQtQtQtQt.5.6.B.B.B.B.B.B.B.B.B.B.B.B.B.B.B.B.B.B.B.B.B.B.B.B.7.8.9.C#.QtQt",
"QtQtQtQtQt.CQtQtQtQtQtQtQtQtQt.5.6.B.B.B.C.C.C.C.C.C.C.C.C.C.C.C.C.C.C.C.C.C.C.C.C.7.8.9.C#.QtQt",
"QtQtQtQtQt.CQtQtQtQtQtQtQtQtQt.5.6.B.B.B.C.C.C.C.C.C.C.C.C.C.C.C.C.C.C.C.C.C.C.C.C.7.8.9.C#.QtQt",
"QtQtQtQtQt.CQtQtQtQtQtQtQtQtQt.5.6.B.B.B#f#f#f#f#f#f#f#f#f#f#f#f#f#f#f#f#f#f#f#f#f.7.8.9.C#.QtQt",
"QtQtQtQtQt.CQtQtQtQtQtQtQtQtQt.5.6.B.B.B.B.B.B.B.B.B.B.B.B.B.B.B.B.B.B.B.B.B.B.B.B.7.8.9.C#.QtQt",
"QtQtQtQtQt.CQtQtQtQtQtQtQtQtQt.5.6.B.B.B.B.B.B.B.B.B.B.B.B.B.B.B.B.B.B.B.B.B.B.B.B.7.8.9.C#.QtQt",
"QtQtQtQtQt.CQtQtQtQtQtQtQtQtQt.5.6.B.B.B.B.B.B.B.B.B.B.B.B.B.B.B.B.B.B.B.B.B.B.B.B.7.8.9.C#.QtQt",
"QtQtQtQtQt.CQtQtQtQtQtQtQtQtQt.5.6.B.B.B.C.C.C.C.C.C.C.C.C.C.C.C.C.C.C.C.C.C.C.C.C.7.8.9.C#.QtQt",
"QtQtQtQtQt#nQtQtQtQtQtQtQtQtQt.5.6.B.B.B.C.C.C.C.C.C.C.C.C.C.C.C.C.C.C.C.C.C.C.C.C.7.8.9.C#.QtQt",
"QtQtQtQtQt#oQtQtQtQtQtQtQtQtQt.5.6.B.B.B#f#f#f#f#f#f#f#f#f#f#f#f#f#f#f#f#f#f#f#f#f.7.8.9.C#.QtQt",
"QtQtQtQtQt#pQtQtQtQtQtQtQtQtQt.5.6.B.B.B.B.B.B.B.B.B.B.B.B.B.B.B.B.B.B.B.B.B.B.B.B.7.8.9.C#.QtQt",
"QtQtQtQtQt#qQtQt#rQtQtQtQtQtQt.5.6.B.B.B.B.B.B.B.B.B.B.B.B.B.B.B.B.B.B.B.B.B.B.B.B.7.8.9.C#.QtQt",
"QtQtQtQtQt#sQtQt#t#uQtQtQtQtQt.5.6.B.B.B.B.B.B.B.B.B.B.B.B.B.B.B.B.B.B.B.B.B.B.B.B.7.8.9.C#.QtQt",
"QtQtQtQtQt#qQtQt#v.B#wQtQtQtQt.5.6.B.B.B.C.C.C.C.C.C.C.C.C.C.C.C.C.C.C.C.C.C.C.C.C.7.8.9.C#.QtQt",
"QtQtQtQtQt#xQtQt#y.B.B#zQtQtQt.5.6.B.B.B.C.C.C.C.C.C.C.C.C.C.C.C.C.C.C.C.C.C.C.C.C.7.8.9.C#.QtQt",
"QtQtQtQtQt#xQtQt#A.B.B.B#zQtQt.5.6.B.B.B#f#f#f#f#f#f#f#f#f#f#f#f#f#f#f#f#f#f#f#f#f.7.8.9.C#.QtQt",
"QtQtQtQtQt#wQtQt#B.B.B.B.B#zQt.5.6.B.B.B.B.B.B.B.B.B.B.B.B.B.B.B.B.B.B.B.B.B.B.B.B.7.8.9.C#.QtQt",
"QtQtQtQtQt#CQtQt#D.B.B.B.B.B#n.5.6.B.B.B.B.B.B.B.B.B.B.B.B.B.B.B.B.B.B.B.B.B.B.B.B.7.8.9.C#.QtQt",
"QtQtQtQtQt#EQtQt#F.B.B.B.B.B#G.C.6.B.B.B.B.B.B.B.B.B.B.B.B.B.B.B.B.B.B.B.B.B.B.B.B.7.8.9.C#.QtQt",
"QtQtQtQtQt.C.C#H#I.B.B#J#K#L#M#N.C.B.B.B.C.C.C.C.C.C.C.C.C.C.C.C.C.C.C.C.C.C.C.C.C.7.8.9.C#.QtQt",
"QtQtQtQtQtQtQtQt#O.B.B#P#Q.p#R.C.6.B.B.B.C.C.C.C.C.C.C.C.C.C.C.C.C.C.C.C.C.C.C.C.C.7.8.9.C#.QtQt",
"QtQtQtQtQtQtQtQt#S.B.B#T#U#R.C.5.6.B.B.B#f#f#f#f#f#f#f#f#f#f#f#f#f#f#f#f#f#f#f#f#f.7.8.9.C#.QtQt",
"QtQtQtQtQtQtQtQt#V.B#W#U#R.CQt.5.6.B.B.B.B.B.B.B.B.B.B.B.B.B.B.B.B.B.B.B.B.B.B.B.B.7.8.9.C#.QtQt",
"QtQtQtQtQtQtQtQt#C.B#X#R.CQtQt.5.6.B.B.B.B.B.B.B.B.B.B.B.B.B.B.B.B.B.B.B.B.B.B.B.B.7.8.9.C#.QtQt",
"QtQtQtQtQtQtQtQt#Y#Z#0.CQtQtQt#1#2.B.B#3.W.W.W.W.W.W.W.W.W.W.W.W.W.W.W.W.W.W.W.W.W#4#5#6.C#7QtQt",
"QtQtQtQtQtQtQtQt.C#N.CQtQtQtQt#8#n#9a.a#aaaaaaaaaaaaaaaaaaaaaaaaaaaaaaaaaaaaaaaaaa.l#Nab.CacQtQt",
"QtQtQtQtQtQtQtQt.C.CQtQtQtQtQtad.Cae.n.x.L.L.L.L.L.L.L.L.L.L.L.L.L.L.L.L.L.L.L.L.Laf.V#R.CacQtQt",
"QtQtQtQtQtQtQtQt.CQtQtQtQtQtQtag.C.C.C.C.C.C.C.C.C.C.C.C.C.C.C.C.C.C.C.C.C.C.C.C.C.C.C.C.CacQtQt",
"QtQtQtQtQtQtQtQtQtQtQtQtQtQtQtahaiajacacacacacacacacacacacacacacacacacacacacacacacacacacacacQtQt",
"QtQtQtQtQtQtQtQtQtQtQtQtQtQtQtQtQtQtQtQtQtQtQtQtQtQtQtQtQtQtQtQtQtQtQtQtQtQtQtQtQtQtQtQtQtQtQtQt"};
