/* XPM */
static const char *xpmTeamDiagram16x16[] = {
/* width height num_colors chars_per_pixel */
"    16    16      141            2",
/* colors */
".. c none",
".# c #0a0302",
".a c #0d0403",
".b c #100504",
".c c #1a0806",
".d c #1d0a07",
".e c #2b0e0a",
".f c #2e0f0b",
".g c #32100b",
".h c #39120d",
".i c #622017",
".j c #662218",
".k c #6b251a",
".l c #6e251b",
".m c #704e49",
".n c #714e48",
".o c #71524e",
".p c #77605d",
".q c #7a2a20",
".r c #7b2a1f",
".s c #7d2b1f",
".t c #832d21",
".u c #852e21",
".v c #853024",
".w c #883e33",
".x c #892f23",
".y c #893125",
".z c #8a6e6a",
".A c #8b8b8b",
".B c #8c3023",
".C c #8c3c2f",
".D c #8c4c43",
".E c #8c8c8c",
".F c #8d8989",
".G c #8f3e32",
".H c #8f443b",
".I c #8f736f",
".J c #90463d",
".K c #91372b",
".L c #919191",
".M c #92817f",
".N c #93453b",
".O c #934c41",
".P c #934c42",
".Q c #93807d",
".R c #943225",
".S c #944438",
".T c #948d8c",
".U c #953325",
".V c #955046",
".W c #95554b",
".X c #96554b",
".Y c #96908f",
".Z c #975951",
".0 c #978b89",
".1 c #997d79",
".2 c #998785",
".3 c #999999",
".4 c #9a3426",
".5 c #9b9a9a",
".6 c #9b9b9b",
".7 c #9c3526",
".8 c #9c3b2d",
".9 c #9c483b",
"#. c #9c9291",
"## c #9d3e31",
"#a c #9d5e55",
"#b c #9e6058",
"#c c #9f9b9b",
"#d c #a0392a",
"#e c #a04234",
"#f c #a13729",
"#g c #a13b2c",
"#h c #a13e2f",
"#i c #a14133",
"#j c #a19d9c",
"#k c #a1a1a1",
"#l c #a24234",
"#m c #a3392b",
"#n c #a3928f",
"#o c #a4a4a4",
"#p c #a53a2a",
"#q c #a63929",
"#r c #a63a2b",
"#s c #a73b2b",
"#t c #a73b2d",
"#u c #a74435",
"#v c #a7a7a7",
"#w c #a83929",
"#x c #a83a2b",
"#y c #a84132",
"#z c #a84436",
"#A c #a8a8a8",
"#B c #a93829",
"#C c #a93e2f",
"#D c #a94738",
"#E c #aaaaaa",
"#F c #ababab",
"#G c #ae3929",
"#H c #ae3f2f",
"#I c #b03c2c",
"#J c #b0b0b0",
"#K c #b1b1b1",
"#L c #b3b3b3",
"#M c #b43d2c",
"#N c #b4b4b4",
"#O c #b54333",
"#P c #b8b8b8",
"#Q c #b93c2a",
"#R c #bababa",
"#S c #bb402e",
"#T c #c1c1c1",
"#U c #c3c3c3",
"#V c #c4c4c4",
"#W c #cbcbcb",
"#X c #cfcfcf",
"#Y c #d1d1d1",
"#Z c #d3d3d3",
"#0 c #d4d4d4",
"#1 c #d5d5d5",
"#2 c #d9d9d9",
"#3 c #dcdcdc",
"#4 c #dddddd",
"#5 c #e1e1e1",
"#6 c #e3e3e3",
"#7 c #e6e6e6",
"#8 c #e7e7e7",
"#9 c #e8e8e8",
"a. c #e9e9e9",
"a# c #ebebeb",
"aa c #efefef",
"ab c #f1f1f1",
"ac c #f2f2f2",
"ad c #f3f3f3",
"ae c #f4f4f4",
"af c #f5f5f5",
"ag c #f8f8f8",
"ah c #fcfcfc",
"ai c #fdfdfd",
"aj c #fefefe",
"ak c #ffffff",
/* pixels */
".............a.v.q.#............",
"...........k#O.Z.X#S.j..........",
".........y.O#c#V#T.Y.G.s........",
"........#t.M#Zadac#W.z.U........",
"........#r#n#6akaj#3.1.U........",
"........#q.2#3agaf#X.I.R........",
"........#w.p#N#2#0#A.o.4........",
".....h#H.N#M.P.L.F.J#I.S#m.f....",
"...y.9.0#F#.#y#g#x#D#j#E.Q##.s..",
".e#e.3#1#9#4#o#C.V#J#5#9#X.A#x.c",
".e#l#Paaajag#V#z#b#Xahaja##F#s.c",
".e#i#Rabaiae#U#u#a#Yaiah#8#E#p.c",
".e.8.6#2a.#4#o#h.D#N#7a.#X.E#f.c",
"...7.H.5#L#k.D#G#Q.W#v#K.T.w.B..",
".....l#d.m.K.r.#.a.t.C.n#B.j....",
".......d.x.g.........i.u.b......"
};
