/* XPM */
static const char *xpmTeamDiagram48x48[] = {
/* width height num_colors chars_per_pixel */
"    68    48      174            2",
/* colors */
".. c none",
".# c #848284",
".a c #6c221c",
".b c #6c564c",
".c c #9c3224",
".d c #9c5244",
".e c #c4c2c4",
".f c #3c3e3c",
".g c #a44234",
".h c #6c6a6c",
".i c #6c3a34",
".j c #9c6a64",
".k c #a4a2a4",
".l c #545254",
".m c #b45244",
".n c #843224",
".o c #949294",
".p c #e4e2e4",
".q c #846a64",
".r c #bc4634",
".s c #ac3a2c",
".t c #9c5e54",
".u c #6c322c",
".v c #84524c",
".w c #5c5e5c",
".x c #9c827c",
".y c #543e3c",
".z c #ac4a3c",
".A c #843a2c",
".B c #847e7c",
".C c #ac5e54",
".D c #240a0c",
".E c #d4d2d4",
".F c #b4b2b4",
".G c #f4f2f4",
".H c #8c8a84",
".I c #747674",
".J c #9c7a74",
".K c #645a5c",
".L c #9c9a9c",
".M c #9c665c",
".N c #7c2e24",
".O c #745e5c",
".P c #9c726c",
".Q c #5c5a5c",
".R c #943224",
".S c #bc4e3c",
".T c #642e24",
".U c #a45e54",
".V c #8c665c",
".W c #5c4e4c",
".X c #a43a24",
".Y c #8c4e44",
".Z c #7c2a1c",
".0 c #ac5a4c",
".1 c #5c524c",
".2 c #9c928c",
".3 c #84726c",
".4 c #b43a2c",
".5 c #140604",
".6 c #8c8284",
".7 c #742a1c",
".8 c #745654",
".9 c #9c5a54",
"#. c #cccacc",
"## c #747274",
"#a c #a46a64",
"#b c #acaaac",
"#c c #bc5244",
"#d c #8c3224",
"#e c #eceaec",
"#f c #5c1e14",
"#g c #646664",
"#h c #943a2c",
"#i c #34120c",
"#j c #dcdadc",
"#k c #bcbabc",
"#l c #fcfafc",
"#m c #a43e34",
"#n c #74261c",
"#o c #a4362c",
"#p c #443a3c",
"#q c #ac4234",
"#r c #746e6c",
"#s c #7c3e34",
"#t c #ac3e2c",
"#u c #9c6254",
"#v c #6c362c",
"#w c #94564c",
"#x c #645e5c",
"#y c #9c8e8c",
"#z c #644644",
"#A c #b44a3c",
"#B c #8c3e34",
"#C c #2c0e0c",
"#D c #94726c",
"#E c #8c8e8c",
"#F c #7c7e7c",
"#G c #7c362c",
"#H c #b44634",
"#I c #a46254",
"#J c #94625c",
"#K c #644a4c",
"#L c #a43e2c",
"#M c #5c5654",
"#N c #9c9694",
"#O c #8c3624",
"#P c #0c0204",
"#Q c #848684",
"#R c #6c261c",
"#S c #6c5654",
"#T c #9c3624",
"#U c #a45244",
"#V c #c4c6c4",
"#W c #6c6e6c",
"#X c #74423c",
"#Y c #9c6e64",
"#Z c #a4a6a4",
"#0 c #545654",
"#1 c #8c5a54",
"#2 c #ac665c",
"#3 c #441614",
"#4 c #7c7a7c",
"#5 c #64221c",
"#6 c #5c423c",
"#7 c #7c625c",
"#8 c #1c0a04",
"#9 c #a45a4c",
"a. c #a4726c",
"a# c #944e44",
"aa c #b4564c",
"ab c #9c3e34",
"ac c #ac4e44",
"ad c #843e34",
"ae c #94362c",
"af c #64322c",
"ag c #8c6e6c",
"ah c #646264",
"ai c #949694",
"aj c #e4e6e4",
"ak c #240e0c",
"al c #d4d6d4",
"am c #b4b6b4",
"an c #f4f6f4",
"ao c #946e64",
"ap c #9c9e9c",
"aq c #7c3224",
"ar c #b43e2c",
"as c #8c8684",
"at c #745a54",
"au c #cccecc",
"av c #a46e64",
"aw c #acaeac",
"ax c #bc5644",
"ay c #eceeec",
"az c #dcdedc",
"aA c #bcbebc",
"aB c #fcfefc",
"aC c #443e3c",
"aD c #ac4634",
"aE c #94665c",
"aF c #644e4c",
"aG c #9c8284",
"aH c #8c8a8c",
"aI c #b44234",
"aJ c #bc4e44",
"aK c #a43a2c",
"aL c #5c5254",
"aM c #bc4a3c",
"aN c #ac3e34",
"aO c #9c625c",
"aP c #6c3634",
"aQ c #a4625c",
"aR c #8c362c",
/* pixels */
"........................................................................................................................................",
"........................................................................................................................................",
"..................................................................#i#P.5................................................................",
"............................................................#P#P.n#9#c.m#R..............................................................",
"..........................................................#5axax#D.B#F#F.t#HaD#i........................................................",
"....................................................#iaD#Aav#N.o#bawaw#b.k.6.6#U.n#d#P..................................................",
"..............................................#P#P.n.C#y#y#baA.eaual.E.E#Vamam.Laoag#H#R................................................",
"............................................#Raxax.J.kaA#k.Eazaz#eayayayaj#j#j.e#b#Zasa#.s.s#i..........................................",
"........................................#hab#u#Qas#b#V#j#jaj.G.GanaB#l#lanay#e.pau.Eam#E.K.K#h#n#n......................................",
"......................................#P#c#c#4#Z#Z#V.payayanaBaBaBaBaBaB#l#l#lan#eaj.E.F.#.##zae.R......................................",
".........................................S.S#Eam#k#jayaB#laBaBaBaBaBaBaBaBaBaB#lan#laj#Vai.L.8.R.R......................................",
"......................................#P.SaJai.e.e.p#laBaBaBaBaBaBaBaBaBaBaBaBaBaBaBayau#Z.k#7.R.R......................................",
"........................................aMaMai#V#Vaj#laBaBaBaBaBaBaBaBaBaBaBaBaB#l#l#e.E.k#Z#7.R.R......................................",
"......................................#PaMaM#N#V.eaj#laBaBaBaBaBaBaBaBaBaBaB#l#l.G.Gaj#.ap.k.O.R#d......................................",
".........................................r#Hai.e.eajanaBaBaBaBaBaBaBaBaB#l.Ganayayay.p#Vapap#7#d.R......................................",
"......................................#P#H.r.oaA.eaj#laBaBaBaBaBaB#l#l.G.Gayay#eajaj#jaA.L#Nat.R#d......................................",
".........................................raI#E.eaA.p#laBaBaBaB#l#l.Gayay#e#eaj.p.paz.E#kai.o#S#d#d......................................",
"......................................#Parar#Q#k#kazanaB#l#l.Ganay#e#e#eajaz.pazal#jau.F#E#E.b.R#d......................................",
"........................................arar#4awawal#e.G.Gay.Gay#eaj.p.paz#j#jal.E.EaA#Z.#.##K#d#d......................................",
"......................................#Pararah#N.o.ealaj.p#eajajajazazaz#j.E.Eau.e.e.F.o#W.h.y#d#d......................................",
".........................................4.s#6####.L#kauaual#jaz#j#jalal.E#V#VaAawawai.I.l.l.T#d#d......................................",
"..................................#f#5.S#9#9#t#Bad#r.o#b#baA#.#V.Eau#.#..eamam.k#E#E##.W.n.nar#9#Uab.D..................................",
"..............................#8ab#I#I.B#F.B.3aIaDaK.8#F.#.L#bawam#kamam#b.L.L.##g.h#vaK.0.0#4.B#F.3ac.7.N..............................",
"...........................N.7aa.x.k.kawaw.F#Zai.o.Uaradad.h.##Q.o.Laiai#Q####aL#d.naDaGap.kawaw.F#Z.o.MaQ.r#5#5........................",
"....................#f#5.Sa.a..kam#V#V.Ealalau.eaA#b.HaDaD#oaFaF#g##.h.h.w#v#vaK#2#2.kam#.#..Ealalau.e#Z#Z.H.d.d#T.D.D..................",
"................#8abaQ#I.2.F.F.e#jajaj#e.Gay#eaz.pauam.L.L.q.saKaq.f#p#p#d.z.z#y.F.F#V#jaj.payayay#eaz#..Eam#Nai.q#L.g.Z................",
"............#8.D.0ag.L.Lam.E.Eazayan#l#l#l#l#l.G.Gaj#j#V.e.k#4.I#m#T.XaKaE.L.L#kau.E.payanan#l#laB#l.Gaj#eal.e.e.k.I.Iad.s..............",
"............#f#f.M#E#kamal#e#ean#l#l#laBaBaBaB#laBan.Gaz.p#V.Lap#g#q#J.Vaiam#kalay#e.G#l#laBaBaBaBaB#lan#lay.paz#Vaiai#g#T#Cak..........",
"............#f#f.j.k#.#.ajananaBaBaBaBaBaBaBaBaBaBaBaB.G.G#jamam.B#mao.j#Zauauaj#lanaBaBaBaBaBaBaBaBaBaBaB#l.Gay#jaw.F#4#h#C#C..........",
"............#f#f#aaw.Eal.GaBaBaBaBaBaBaBaBaBaBaBaBaBaBan#lazaAaA#EaN.P#Y.Falal.GaBaBaBaBaBaBaBaBaBaBaBaBaBaBan#laz#kam#Qae#C#C..........",
"............#f#f#aawalal.GaBaBaBaBaBaBaBaBaBaBaBaBaBaBanan.paAaA#E#m.P#Y.F#j#j.GaBaBaBaBaBaBaBaBaBaBaBaBaBaB.G.Gaz#k#k#Q#h#C#C..........",
"............#f#f#aaw#jal.GaBaBaBaBaBaBaBaBaBaBaBaB#l.G.Gay#j#k#kaHaN#Y#Y.Fal#janaBaBaBaBaBaBaBaBaBaB#l#l#lanayay#jamam#Qae#Cak..........",
"............#f#faOawalal.GaBaBaBaBaBaBaBaBaB#l#lan.Gay#e#ealamam#Q#L.j.jaw#jal.GaBaBaBaBaBaBaBaBaB#lan.G.Gay#eaj.E.F.F.##O#C#C..........",
"............#5#f#u#balal.GaBaBaBaBaBaB#l#l#l.G.Gayay#e.p.pau.F.F#Q#maEaEawal#janaBaBaBaBaBaB#l#l#lanayay#e#eaz.pau#b#b#F#O#C#C..........",
"............#f#f.9#Z.E.E.GaBaBaBaB#l#lanay.Gayaj#eaj.pazaz#.#b#b.B#m#J#Jawalal.GaBaBaBaB#l#lan.Gayay#eajaj.p#jaz#V#b#Z#F#d#C#C..........",
"............#f#f#w.k.EauayaBaB#lan.G.Gayay#eaj.p.p.p#jalal.e#Z#Z.IaK#1.9#Z.E.E.GaBaB#lan.G.Gay#e#eaj.p.paz#jalal.eap.k.I#O#Cak..........",
"............#f#f.Yai.e.e.p.G.G.G.G#eay#eajaj.pazazalal#.au#kai.L#WaK.v.vai#V#V.p.G.G.Gay#eayajaj.p.p#jal#j.E#.#.amaiai.h.n#C#C..........",
"............#f#5#s#F#b#bauaz.pajajajaj.pazaz#jalal.E#.aA#k#Z.##Q.Q#T#X#X#F.Fawauaz.pajajajaj.pazaz#jal.E.E#VaA#k.k#F.B#0.N#C#C..........",
"............#3#3aR.QaH#Qaw#.#V.E#j#j#j#j#jal.Eau#..eam.k#ZaH#g#gaCaK#B.A.KaHaHaw#.#V.E#j#jaz#j#jal.EauaA#Vam.k.k#Q#g#g#p.R.5.5..........",
".................a.s#S.b.#.k.kam.eauauauauau#.aAaAaw.L.#.##g#vaP.c#8.a.a#o#S#S.#ap.kam.eau#.auauau#VaAawaw.L.##FahaP#v.c.5..............",
"..................#P.R.Rad#r#r#E.k.F.F#k#kam.F.k.k#E.I#M#M.N#n.7#P.......5.R.Rad#####E#Z.F.F#k#k#k.F.k#E#E.IaL#M.n#n#n..................",
"........................#5#o#o#S#4#E#Eai.L.L.o#F#F.h.i#T#T#C...................a#T#T#S#4#E#Eai.Lai.o#F#g.h.i.c.c#C......................",
"..........................#P#P#d#G#x.w#W###W#g.1aL.N#n#P#P.......................5#8#d#G#x#x#W###W#g.W.n.N#n............................",
"................................#5#T.c.y.faCaf#T.c#C...................................a.R.R.y.f.f.u.c#C#C..............................",
"..................................#P.5#d#d#d#n#P#P.......................................5.5#d#d#d#n....................................",
"........................................#8#8..................................................#8#8......................................",
"........................................................................................................................................",
"........................................................................................................................................"
};
