/* XPM */
static const char *xpmTeamDiagram22x22[] = {
/* width height num_colors chars_per_pixel */
"    22    22      193            2",
/* colors */
".. c none",
".# c #060201",
".a c #090302",
".b c #0a0302",
".c c #0d0403",
".d c #130604",
".e c #170705",
".f c #1a0806",
".g c #210b08",
".h c #240c08",
".i c #32100b",
".j c #35110c",
".k c #622017",
".l c #622117",
".m c #652118",
".n c #692319",
".o c #6a231a",
".p c #6b251b",
".q c #6e251b",
".r c #6f261b",
".s c #70261b",
".t c #70261c",
".u c #71261c",
".v c #72362d",
".w c #744741",
".x c #77291e",
".y c #792a1f",
".z c #7c3f37",
".A c #7e3c33",
".B c #7e6e6d",
".C c #7f2b20",
".D c #7f2c20",
".E c #7f3b32",
".F c #7f4239",
".G c #80635f",
".H c #806d6b",
".I c #808080",
".J c #833b2f",
".K c #837b7a",
".L c #844b43",
".M c #864339",
".N c #867c7a",
".O c #873327",
".P c #883327",
".Q c #885953",
".R c #896d69",
".S c #8a4b42",
".T c #8a807f",
".U c #8b7371",
".V c #8b8786",
".W c #8c4339",
".X c #8d4b41",
".Y c #8d6f6b",
".Z c #8e8d8d",
".0 c #8f362a",
".1 c #905d56",
".2 c #913628",
".3 c #913b2f",
".4 c #914e43",
".5 c #91615a",
".6 c #925146",
".7 c #929292",
".8 c #933224",
".9 c #948a89",
"#. c #949494",
"## c #95645c",
"#a c #959595",
"#b c #963426",
"#c c #973527",
"#d c #983729",
"#e c #98382a",
"#f c #99382b",
"#g c #99392b",
"#h c #993a2c",
"#i c #9a382a",
"#j c #9a584e",
"#k c #9a6057",
"#l c #9a9a9a",
"#m c #9b3425",
"#n c #9b5046",
"#o c #9c3626",
"#p c #9c3b2d",
"#q c #9c5e55",
"#r c #9c7f7b",
"#s c #9c9c9c",
"#t c #9e3e30",
"#u c #9e5146",
"#v c #9e837f",
"#w c #9e8380",
"#x c #9e8481",
"#y c #9f3526",
"#z c #9f3627",
"#A c #a05a51",
"#B c #a0a0a0",
"#C c #a1675e",
"#D c #a16860",
"#E c #a24133",
"#F c #a2a2a2",
"#G c #a3665e",
"#H c #a3a3a3",
"#I c #a4a4a4",
"#J c #a54335",
"#K c #a58986",
"#L c #a5a5a5",
"#M c #a64234",
"#N c #a65347",
"#O c #a66b63",
"#P c #a69694",
"#Q c #a74033",
"#R c #a74132",
"#S c #a74539",
"#T c #a78d88",
"#U c #a79694",
"#V c #a83b2b",
"#W c #a84335",
"#X c #a84436",
"#Y c #a93827",
"#Z c #a93b2c",
"#0 c #a97a72",
"#1 c #a9a9a9",
"#2 c #aa3a29",
"#3 c #aa4233",
"#4 c #aa5c50",
"#5 c #aaaaaa",
"#6 c #ab3828",
"#7 c #ab3b2b",
"#8 c #ab3c2c",
"#9 c #ababab",
"a. c #ac3827",
"a# c #ac3f30",
"aa c #ac4537",
"ab c #ad4434",
"ac c #ae3829",
"ad c #ae3928",
"ae c #ae4738",
"af c #ae493b",
"ag c #af4132",
"ah c #afafaf",
"ai c #b03a29",
"aj c #b13c2b",
"ak c #b2b2b2",
"al c #b33b2a",
"am c #b4b4b4",
"an c #b5b5b5",
"ao c #b64637",
"ap c #b7b7b7",
"aq c #bababa",
"ar c #bcbcbc",
"as c #bdbdbd",
"at c #bfbfbf",
"au c #c2c2c2",
"av c #c5c5c5",
"aw c #c8c8c8",
"ax c #cacaca",
"ay c #cbcbcb",
"az c #cccccc",
"aA c #cdcdcd",
"aB c #cfcfcf",
"aC c #d0d0d0",
"aD c #d1d1d1",
"aE c #d2d2d2",
"aF c #d3d3d3",
"aG c #d6d6d6",
"aH c #d7d7d7",
"aI c #d8d8d8",
"aJ c #d9d9d9",
"aK c #dadada",
"aL c #dcdcdc",
"aM c #dedede",
"aN c #dfdfdf",
"aO c #e0e0e0",
"aP c #e2e2e2",
"aQ c #e3e3e3",
"aR c #e6e6e6",
"aS c #e9e9e9",
"aT c #eaeaea",
"aU c #ebebeb",
"aV c #ececec",
"aW c #eeeeee",
"aX c #efefef",
"aY c #f0f0f0",
"aZ c #f1f1f1",
"a0 c #f2f2f2",
"a1 c #f3f3f3",
"a2 c #f4f4f4",
"a3 c #f6f6f6",
"a4 c #f8f8f8",
"a5 c #f9f9f9",
"a6 c #fbfbfb",
"a7 c #fcfcfc",
"a8 c #fdfdfd",
"a9 c #fefefe",
"b. c #ffffff",
/* pixels */
".....................p.l....................",
".................i#3#j#n#g.g................",
".............c.P#N#Paqap#v#W.x.b............",
"............ao#CaqaMaWaVaJ#5.4#z............",
"...........faf#1aQa5a9a9a4aK#.al.a..........",
"...........faeaqaYb.b.b.a9aR#Lai.a..........",
"...........fabaqaZb.b.a6a3aO#Had.a..........",
"...........fa#amaXa8a4a1aWaG#l#6.a..........",
"...........f#Z#laJaWaXaTaNat.I#Y.a..........",
"...........paj.X#IazaKaFas.Z.A#V.l..........",
".......i#R#A.Yag#t.T#F#s.H#iaa.U#u#e.g......",
"...c.O#N#Uauaxan#4ai.z.E#8#0asayar#w#Q.y.b..",
"...0#kakaMaZa3aUaC.9#7#S#LaJaWa3aXaJ#B.M.q..",
"..#h#xaIa5a9b.a8a0as#M#Daza5a9b.a9a4ax.1.u..",
"..#f#TaPb.b.b.a9a3av#X#OaHb.b.b.b.a6aD##.t..",
"..#d#KaPb.b.a6a3aWat#J#GaHb.b.a7a4a0ay.5.t..",
"..#c#raLa7a4a1aWaQam#E#qaCa7a5a2aXaSat.Q.s..",
"..#b.GaraRaVaTaOax#.#p.SahaPaUaUaPaE#F.w.s..",
"...o#2.RakaAaBas#a.F#yal.6#9awaCau#B.La..k..",
".....d.8.W.V.7.B.2.r.#.b.C.3.N#..K.J.D.c....",
".........n#o.v#m.h.........jac.va..k........",
"...........e.k.#.............#.m.#.........."
};
