/* XPM */
static char * TeamDiagram32x32_xpm[] = {
"33 23 327 2",
"  	c None",
". 	c #6008F6",
"+ 	c #5D08EC",
"@ 	c #5F08F1",
"# 	c #520BB3",
"$ 	c #59187C",
"% 	c #6D3832",
"& 	c #6A285D",
"* 	c #660DE6",
"= 	c #5E08EE",
"- 	c #5707DD",
"; 	c #5C10B3",
"> 	c #88348B",
", 	c #9B6867",
"' 	c #A88C88",
") 	c #A0A09E",
"! 	c #A19391",
"~ 	c #9C6D67",
"{ 	c #783362",
"] 	c #5C1781",
"^ 	c #6109EC",
"/ 	c #630AEC",
"( 	c #6C17B5",
"_ 	c #743C41",
": 	c #9A726C",
"< 	c #B5ADAD",
"[ 	c #CDCCCC",
"} 	c #DCDCDC",
"| 	c #E6E7E6",
"1 	c #E0E1E0",
"2 	c #CFCFCF",
"3 	c #B0A7A6",
"4 	c #9E7E79",
"5 	c #853867",
"6 	c #671B81",
"7 	c #630CDA",
"8 	c #641A87",
"9 	c #A4594E",
"0 	c #9C9997",
"a 	c #C7C7C7",
"b 	c #E9E9E9",
"c 	c #F4F5F4",
"d 	c #FAFBFA",
"e 	c #FCFDFC",
"f 	c #FBFBFB",
"g 	c #F7F6F7",
"h 	c #D1D1D1",
"i 	c #8E8B8C",
"j 	c #7D534E",
"k 	c #812652",
"l 	c #681B87",
"m 	c #AE645A",
"n 	c #B9B9B9",
"o 	c #E6E5E6",
"p 	c #FCFEFC",
"q 	c #FBFCFB",
"r 	c #EDEDED",
"s 	c #B0B0B0",
"t 	c #8C6C67",
"u 	c #892952",
"v 	c #681A86",
"w 	c #AF6257",
"x 	c #BDBDBC",
"y 	c #E8E9E8",
"z 	c #F9FAF9",
"A 	c #F5F5F5",
"B 	c #E8E7E8",
"C 	c #AFAFAF",
"D 	c #8A6D68",
"E 	c #862952",
"F 	c #661985",
"G 	c #AB5E52",
"H 	c #E8E8E8",
"I 	c #F8F7F8",
"J 	c #F3F2F3",
"K 	c #ECEDEC",
"L 	c #E7E7E7",
"M 	c #DADADA",
"N 	c #A6A6A5",
"O 	c #856661",
"P 	c #842952",
"Q 	c #661783",
"R 	c #A45549",
"S 	c #AEAEAE",
"T 	c #DFDFDF",
"U 	c #F8F8F8",
"V 	c #F6F5F6",
"W 	c #F0F1F0",
"X 	c #EAE9EA",
"Y 	c #E5E5E5",
"Z 	c #D8D9D8",
"` 	c #CBCBCB",
" .	c #979797",
"..	c #7B5E59",
"+.	c #832952",
"@.	c #651682",
"#.	c #98453A",
"$.	c #858181",
"%.	c #B8B7B8",
"&.	c #DADBDA",
"*.	c #E2E2E2",
"=.	c #DBDCDB",
"-.	c #D9D9D9",
";.	c #CECDCE",
">.	c #C0C1C0",
",.	c #ABABAB",
"'.	c #717171",
").	c #684540",
"!.	c #822952",
"~.	c #570EAB",
"{.	c #7E3658",
"].	c #945B5C",
"^.	c #956359",
"/.	c #99473B",
"(.	c #8C635D",
"_.	c #989696",
":.	c #B4B3B4",
"<.	c #C4C4C4",
"[.	c #BDBCBD",
"}.	c #A9A9A9",
"|.	c #878787",
"1.	c #796562",
"2.	c #8C473C",
"3.	c #94564C",
"4.	c #91615C",
"5.	c #713056",
"6.	c #6814B0",
"7.	c #6008F5",
"8.	c #600AE2",
"9.	c #691A8C",
"0.	c #8E4565",
"a.	c #A17672",
"b.	c #B2ADAC",
"c.	c #BDBDBD",
"d.	c #BFC0BF",
"e.	c #AEACAB",
"f.	c #A57D76",
"g.	c #98483B",
"h.	c #825B58",
"i.	c #797271",
"j.	c #848283",
"k.	c #787776",
"l.	c #735450",
"m.	c #904C43",
"n.	c #A26B63",
"o.	c #B1ABAB",
"p.	c #ADA5A3",
"q.	c #A37C77",
"r.	c #87443F",
"s.	c #6B1D7A",
"t.	c #4F0AAB",
"u.	c #5D08EB",
"v.	c #460F6D",
"w.	c #86534C",
"x.	c #A38985",
"y.	c #BEBCBC",
"z.	c #D4D3D4",
"A.	c #F5F4F5",
"B.	c #EDECED",
"C.	c #D7D8D7",
"D.	c #B6B5B6",
"E.	c #987A77",
"F.	c #8D4D44",
"G.	c #743B31",
"H.	c #854940",
"I.	c #A67B76",
"J.	c #BBB8B8",
"K.	c #D2D2D2",
"L.	c #EBEBEB",
"M.	c #F2F2F2",
"N.	c #E9E8E9",
"O.	c #D9D8D9",
"P.	c #B6B5B5",
"Q.	c #98827E",
"R.	c #875148",
"S.	c #761BA3",
"T.	c #64271D",
"U.	c #A28E8C",
"V.	c #C9C9C9",
"W.	c #F7F9F7",
"X.	c #FCFCFC",
"Y.	c #C3C3C3",
"Z.	c #939391",
"`.	c #9E554C",
" +	c #9C8883",
".+	c #C7C8C7",
"++	c #ECECEC",
"@+	c #F6F7F6",
"#+	c #C6C7C6",
"$+	c #939393",
"%+	c #682E26",
"&+	c #410B70",
"*+	c #AF9B98",
"=+	c #FAFAFA",
"-+	c #F5F6F5",
";+	c #A5A7A5",
">+	c #A25951",
",+	c #AA9490",
"'+	c #F9F9F9",
")+	c #D5D5D5",
"!+	c #A5A6A5",
"~+	c #69302A",
"{+	c #420B70",
"]+	c #AD9995",
"^+	c #DBDBDB",
"/+	c #ECEBEC",
"(+	c #C9CAC9",
"_+	c #A0A0A0",
":+	c #A0554B",
"<+	c #A7918D",
"[+	c #F7F7F7",
"}+	c #E9EAE9",
"|+	c #CDCCCD",
"1+	c #A1A0A1",
"2+	c #662F27",
"3+	c #64261C",
"4+	c #A9918E",
"5+	c #D8D8D8",
"6+	c #F1F1F1",
"7+	c #EAEAEA",
"8+	c #E6E6E6",
"9+	c #DDDEDD",
"0+	c #BEBEBE",
"a+	c #9B5047",
"b+	c #A28B86",
"c+	c #F6F6F6",
"d+	c #DDDDDD",
"e+	c #C0C0C0",
"f+	c #969796",
"g+	c #642D25",
"h+	c #62241A",
"i+	c #967F7B",
"j+	c #C6C5C6",
"k+	c #F1F0F1",
"l+	c #E3E4E3",
"m+	c #D7D7D7",
"n+	c #828282",
"o+	c #91453B",
"p+	c #8E7672",
"q+	c #C5C5C5",
"r+	c #E7E8E7",
"s+	c #E3E3E3",
"t+	c #D7D6D7",
"u+	c #ABACAB",
"v+	c #838382",
"w+	c #5E2A22",
"x+	c #5F09E8",
"y+	c #581756",
"z+	c #7F504B",
"A+	c #8C8685",
"B+	c #BAB9BA",
"C+	c #CCCCCC",
"D+	c #D4D4D4",
"E+	c #CACBCA",
"F+	c #BCBBBC",
"G+	c #7C7573",
"H+	c #69504C",
"I+	c #7A3026",
"J+	c #7C4842",
"K+	c #8C8485",
"L+	c #B6B6B6",
"M+	c #CACACA",
"N+	c #D4D5D4",
"O+	c #C8C9C8",
"P+	c #BABCBA",
"Q+	c #A2A1A2",
"R+	c #7E7979",
"S+	c #69514D",
"T+	c #511C34",
"U+	c #450898",
"V+	c #6009F2",
"W+	c #57118D",
"X+	c #7B2D6B",
"Y+	c #875853",
"Z+	c #8E7E7D",
"`+	c #A6A6A6",
" @	c #9D9D9D",
".@	c #837D7C",
"+@	c #79544E",
"@@	c #652948",
"#@	c #581766",
"$@	c #5B0ACE",
"%@	c #560F97",
"&@	c #7B2B72",
"*@	c #83554F",
"=@	c #8B7A77",
"-@	c #A5A5A5",
";@	c #AFAEAF",
">@	c #999999",
",@	c #817D7C",
"'@	c #795450",
")@	c #682E44",
"!@	c #6B1992",
"~@	c #5B09DE",
"{@	c #6009F1",
"]@	c #4A0B8C",
"^@	c #662265",
"/@	c #7B4C45",
"(@	c #6B5E5B",
"_@	c #655E5C",
":@	c #774E46",
"<@	c #652947",
"[@	c #440D69",
"}@	c #5A09DD",
"|@	c #6008F4",
"1@	c #500C97",
"2@	c #641F6B",
"3@	c #7A4942",
"4@	c #6D5C59",
"5@	c #635F5D",
"6@	c #6F453F",
"7@	c #60263A",
"8@	c #6810C7",
"9@	c #5E09E3",
"0@	c #470A8D",
"a@	c #5F1C5F",
"b@	c #5C1F39",
"c@	c #440C73",
"d@	c #5908DB",
"e@	c #4C0A99",
"f@	c #5D1A68",
"g@	c #59202E",
"h@	c #640FC9",
"i@	c #5D08E8",
"j@	c #5F08F3",
"k@	c #5E08EF",
"l@	c #5F08F4",
". . . . . . . . . . . . . . . . + @ . . . . . . . . . . . . . . . ",
". . . . . . . . . . . . . . # $ % & * = . . . . . . . . . . . . . ",
". . . . . . . . . . . - ; > , ' ) ! ~ { ] ^ . . . . . . . . . . . ",
". . . . . . . . . / ( _ : < [ } | 1 2 3 4 5 6 7 . . . . . . . . . ",
". . . . . . . . . 8 9 0 a b c d e f g b h i j k . . . . . . . . . ",
". . . . . . . . . l m n o e p p p p p q r s t u . . . . . . . . . ",
". . . . . . . . . v w x y e p p p e z A B C D E . . . . . . . . . ",
". . . . . . . . . F G n H p p e I J K L M N O P . . . . . . . . . ",
". . . . . . . . . Q R S T U V W X Y T Z `  ...+.. . . . . . . . . ",
". . . . . . . . . @.#.$.%.&.*.*.=.-.;.>.,.'.).!.. . . . . . . . . ",
". . . . . . . ~.{.].^./.(._.:.>.<.[.}.|.1.2.3.4.5.6.. . . . . . . ",
". . . 7.8.9.0.a.b.c.d.e.f.g.h.i.j.k.l.m.n.o.[.>.p.q.r.s.t.7.. . . ",
". . u.v.w.x.y.z.K A.A B.C.D.E.F.G.H.I.J.K.L.M.A N.O.P.Q.R.S.= . . ",
". . 8.T.U.V.K W.X.p p e z B.Y.Z.`. +.+++@+e p p q z r #+$+%+&+. . ",
". . 8.T.*+&.=+p p p p p e -+K.;+>+,+M '+p p p p p e A )+!+~+{+. . ",
". . 8.T.]+^+=+p p e X.'+J /+(+_+:+<+M z p p e e [+J }+|+1+2+&+. . ",
". . 8.3+4+5+z e =+A 6+7+8+9+0+_.a+b+C.z e =+c+6+7+Y d+e+f+g+&+. . ",
". . 8.h+i+j+L.k+r b l+d+m+` }.n+o+p+q+7+k+++r+s+} t+` u+v+w+&+. . ",
". . x+y+z+A+B+C+5+5+D+E+F+1+G+H+I+J+K+L+M+5+5+N+O+P+Q+R+S+T+U+. . ",
". . . V+W+X+Y+Z+`+s C  @.@+@@@#@$@%@&@*@=@-@;@s >@,@'@)@!@~@. . . ",
". . . . . {@]@^@/@(@_@:@<@[@}@. . . |@1@2@3@4@5@6@7@8@9@. . . . . ",
". . . . . . . V+0@a@b@c@d@. . . . . . . |@e@f@g@h@i@. . . . . . . ",
". . . . . . . . . j@k@. . . . . . . . . . . l@= . . . . . . . . . "};
