/* XPM */
static char *ToBack_xpm[]={
"48 48 76 2",
"Qt c None",
".# c #000000",
".B c #004100",
".A c #005c00",
"#j c #006000",
"#c c #006b00",
"#b c #006d00",
"#a c #007500",
".t c #007600",
"#h c #007700",
"## c #008d00",
".L c #009c00",
".M c #009f00",
".R c #00a200",
".J c #00a300",
"#i c #00a700",
".s c #00b300",
"#g c #00b800",
"#. c #00bd00",
".k c #00c200",
".H c #00c500",
".8 c #00ce00",
".7 c #00cf00",
".6 c #00d200",
".5 c #00dc00",
".K c #00e100",
".Q c #00e200",
".I c #00e400",
"#f c #00ec00",
".4 c #00fb00",
".z c #00ff00",
".G c #03ff03",
".r c #0c0c0c",
".f c #0dff0d",
".j c #10ff10",
".P c #18ff18",
".U c #19ff19",
".X c #1aff1a",
".F c #22ff22",
"#e c #25ff25",
".E c #29ff29",
".D c #2bff2b",
".C c #2cff2c",
".3 c #33ff33",
".O c #35ff35",
"#d c #37ff37",
".T c #3aff3a",
".y c #3bff3b",
".N c #3d3d3d",
".W c #44ff44",
".9 c #484848",
".S c #494949",
".Z c #49ff49",
".e c #4fff4f",
".q c #525252",
".x c #5eff5e",
".V c #606060",
".i c #61ff61",
".w c #6bff6b",
".u c #6cff6c",
".v c #6dff6d",
".2 c #6f6f6f",
".Y c #757575",
".p c #7d7d7d",
".d c #85ff85",
".0 c #88ff88",
".1 c #89ff89",
".l c #8b8b8b",
".h c #8eff8e",
".m c #919191",
".o c #949494",
".n c #979797",
".g c #9fff9f",
".c c #a1ffa1",
".b c #a6ffa6",
".a c #ffffff",
"QtQtQtQtQtQtQtQtQtQtQtQtQtQtQtQtQtQtQtQtQtQtQtQtQtQtQtQtQtQtQtQtQtQtQtQtQtQtQtQtQtQtQtQtQtQtQtQt",
"QtQtQtQtQtQtQtQtQtQtQtQtQtQtQtQtQtQtQtQtQtQtQtQtQtQtQtQtQtQtQtQtQtQtQtQtQtQtQtQtQtQtQtQtQtQtQtQt",
"QtQt.#.#.#.#.#.#.#.#.#.#.#.#.#.#.#.#.#.#QtQtQtQtQtQtQtQtQtQtQtQtQtQtQtQtQtQtQtQtQtQtQtQtQtQtQtQt",
"QtQt.#.a.a.a.a.a.a.a.a.a.a.a.a.a.a.a.a.#QtQtQtQtQtQtQtQtQtQtQtQtQtQtQtQtQtQtQtQtQtQtQtQtQtQtQtQt",
"QtQt.#.a.a.a.a.a.a.a.a.a.a.a.a.a.a.a.a.#QtQtQtQtQtQtQtQtQtQtQtQtQtQtQtQtQtQtQtQtQtQtQtQtQtQtQtQt",
"QtQt.#.a.a.a.a.a.a.a.a.a.a.a.a.a.a.a.a.#QtQtQtQtQtQtQtQtQtQtQtQtQtQtQtQtQtQtQtQtQtQtQtQtQtQtQtQt",
"QtQt.#.a.a.a.a.a.a.a.a.a.a.a.a.a.a.a.a.#QtQtQtQtQtQtQtQtQtQtQtQtQtQtQtQtQtQtQtQtQtQtQtQtQtQtQtQt",
"QtQt.#.a.a.a.a.a.a.a.a.a.a.a.a.a.a.a.a.#QtQtQtQtQtQtQtQtQtQtQtQtQtQtQtQtQtQtQtQtQtQtQtQtQtQtQtQt",
"QtQt.#.a.a.a.a.a.a.a.a.a.a.a.a.a.a.a.a.#QtQtQtQtQtQtQtQtQtQtQtQtQtQtQtQt.b.c.d.e.fQtQtQtQtQtQtQt",
"QtQt.#.a.a.a.a.a.a.a.a.a.a.a.a.a.a.a.a.#QtQtQtQtQtQtQtQtQtQtQtQtQtQtQtQt.g.h.i.j.kQtQtQtQtQtQtQt",
"QtQt.#.a.a.a.a.a.a.a.a.a.a.a.a.a.a.a.a.#.l.l.l.l.l.l.l.l.l.l.l.l.l.m.n.o.p.q.r.s.tQtQtQtQtQtQtQt",
"QtQt.#.a.a.a.a.a.a.a.a.a.a.a.a.a.a.a.a.#.u.u.u.u.u.u.u.u.u.u.u.u.u.v.w.x.y.z.#.A.BQtQtQtQtQtQtQt",
"QtQt.#.a.a.a.a.a.a.a.a.a.a.a.a.a.a.a.a.#.C.C.C.C.C.C.C.C.C.C.C.C.C.D.E.F.G.H.#.B.BQtQtQtQtQtQtQt",
"QtQt.#.a.a.a.a.a.a.a.a.a.a.a.a.a.a.a.a.#.z.z.z.z.z.z.z.z.z.z.z.z.z.z.z.z.I.J.#QtQtQtQtQtQtQtQtQt",
"QtQt.#.a.a.a.a.a.a.a.a.a.a.a.a.a.a.a.a.#.z.z.z.z.z.z.z.z.z.z.z.z.z.z.z.z.K.L.#QtQtQtQtQtQtQtQtQt",
"QtQt.#.#.#.#.#.#.#.#.#.#.#.#.#.#.#.#.#.#.z.z.z.z.z.z.z.z.z.z.z.z.z.z.z.z.K.M.#QtQtQtQtQtQtQtQtQt",
"QtQtQtQtQtQtQtQtQt.N.O.P.z.z.z.z.z.z.z.z.z.z.z.z.z.z.z.z.z.z.z.z.z.z.z.z.Q.R.#QtQtQtQtQtQtQtQtQt",
"QtQtQtQtQtQtQtQtQt.N.O.P.z.z.z.z.z.z.z.z.z.z.z.z.z.z.z.z.z.z.z.z.z.z.z.z.Q.R.#QtQtQtQtQtQtQtQtQt",
"QtQtQtQtQtQtQtQtQt.N.O.P.z.z.z.z.z.z.z.z.z.z.z.z.z.z.z.z.z.z.z.z.z.z.z.z.Q.R.#QtQtQtQtQtQtQtQtQt",
"QtQtQtQtQtQtQtQtQt.N.O.P.z.z.z.z.z.z.z.z.z.z.z.z.z.z.z.z.z.z.z.z.z.z.z.z.Q.R.#QtQtQtQtQtQtQtQtQt",
"QtQtQtQtQtQtQtQtQt.N.O.P.z.z.z.z.z.z.z.z.z.z.z.z.z.z.z.z.z.z.z.z.z.z.z.z.Q.R.#QtQtQtQtQtQtQtQtQt",
"QtQtQtQtQtQtQtQtQt.N.O.P.z.z.z.z.z.z.z.z.z.z.z.z.z.z.z.z.z.z.z.z.z.z.z.z.Q.R.#QtQtQtQtQtQtQtQtQt",
"QtQtQtQtQtQtQtQtQt.N.O.P.z.z.z.z.z.z.z.z.z.z.z.z.z.z.z.z.z.z.z.z.z.z.z.z.Q.R.#QtQtQtQtQtQtQtQtQt",
"QtQtQtQtQtQtQtQtQt.N.O.P.z.z.z.z.z.z.z.z.z.z.z.z.z.z.z.z.z.z.z.z.z.z.z.z.Q.R.#QtQtQtQtQtQtQtQtQt",
"QtQtQtQtQtQtQtQtQt.N.O.P.z.z.z.z.z.z.z.z.z.z.z.z.z.z.z.z.z.z.z.z.z.z.z.z.Q.R.#QtQtQtQtQtQtQtQtQt",
"QtQtQtQtQtQtQtQtQt.N.O.P.z.z.z.z.z.z.z.z.z.z.z.z.z.z.z.z.z.z.z.z.z.z.z.z.Q.R.#QtQtQtQtQtQtQtQtQt",
"QtQtQtQtQtQtQtQtQt.N.O.P.z.z.z.z.z.z.z.z.z.z.z.z.z.z.z.z.z.z.z.z.z.z.z.z.Q.R.#QtQtQtQtQtQtQtQtQt",
"QtQtQtQtQtQtQtQtQt.N.O.P.z.z.z.z.z.z.z.z.z.z.z.z.z.z.z.z.z.z.z.z.z.z.z.z.Q.R.#QtQtQtQtQtQtQtQtQt",
"QtQtQtQtQtQtQtQtQt.N.O.P.z.z.z.z.z.z.z.z.z.z.z.z.z.z.z.z.z.z.z.z.z.z.z.z.Q.R.#QtQtQtQtQtQtQtQtQt",
"QtQtQtQtQtQtQtQtQt.N.O.P.z.z.z.z.z.z.z.z.z.z.z.z.z.z.z.z.z.z.z.z.z.z.z.z.Q.R.#QtQtQtQtQtQtQtQtQt",
"QtQtQtQtQtQtQtQtQt.N.O.P.z.z.z.z.z.z.z.z.z.z.z.z.z.z.z.z.z.z.z.z.z.z.z.z.Q.R.#QtQtQtQtQtQtQtQtQt",
"QtQtQtQtQtQtQtQtQt.N.O.P.z.z.z.z.z.z.z.z.z.z.z.z.z.z.z.z.z.z.z.z.z.z.z.z.Q.R.#QtQtQtQtQtQtQtQtQt",
"QtQtQtQtQtQtQtQtQt.N.O.P.z.z.z.z.z.z.z.z.z.z.z.z.z.z.z.z.#.#.#.#.#.#.#.#.#.#.#.#.#.#.#.#.#.#QtQt",
"QtQtQtQtQtQtQtQtQt.S.T.U.z.z.z.z.z.z.z.z.z.z.z.z.z.z.z.z.#.a.a.a.a.a.a.a.a.a.a.a.a.a.a.a.a.#QtQt",
"QtQtQtQtQtQtQtQtQt.V.W.X.z.z.z.z.z.z.z.z.z.z.z.z.z.z.z.z.#.a.a.a.a.a.a.a.a.a.a.a.a.a.a.a.a.#QtQt",
"QtQtQtQtQtQtQtQtQt.Y.Z.U.z.z.z.z.z.z.z.z.z.z.z.z.z.z.z.z.#.a.a.a.a.a.a.a.a.a.a.a.a.a.a.a.a.#QtQt",
"QtQtQtQtQtQtQt.0.1.2.3.4.5.6.7.8.8.8.8.8.8.8.8.8.8.8.8.8.#.a.a.a.a.a.a.a.a.a.a.a.a.a.a.a.a.#QtQt",
"QtQtQtQtQtQtQt.v.v.9.z#.###a#b#c#c#c#c#c#c#c#c#c#c#c#c#c.#.a.a.a.a.a.a.a.a.a.a.a.a.a.a.a.a.#QtQt",
"QtQtQtQtQtQtQt#d#e.#.#.#.#.#.#.#.#.#.#.#.#.#.#.#.#.#.#.#.#.a.a.a.a.a.a.a.a.a.a.a.a.a.a.a.a.#QtQt",
"QtQtQtQtQtQtQt#f#g#h.B.BQtQtQtQtQtQtQtQtQtQtQtQtQtQtQtQt.#.a.a.a.a.a.a.a.a.a.a.a.a.a.a.a.a.#QtQt",
"QtQtQtQtQtQtQt#i#j.B.B.BQtQtQtQtQtQtQtQtQtQtQtQtQtQtQtQt.#.a.a.a.a.a.a.a.a.a.a.a.a.a.a.a.a.#QtQt",
"QtQtQtQtQtQtQtQtQtQtQtQtQtQtQtQtQtQtQtQtQtQtQtQtQtQtQtQt.#.a.a.a.a.a.a.a.a.a.a.a.a.a.a.a.a.#QtQt",
"QtQtQtQtQtQtQtQtQtQtQtQtQtQtQtQtQtQtQtQtQtQtQtQtQtQtQtQt.#.a.a.a.a.a.a.a.a.a.a.a.a.a.a.a.a.#QtQt",
"QtQtQtQtQtQtQtQtQtQtQtQtQtQtQtQtQtQtQtQtQtQtQtQtQtQtQtQt.#.a.a.a.a.a.a.a.a.a.a.a.a.a.a.a.a.#QtQt",
"QtQtQtQtQtQtQtQtQtQtQtQtQtQtQtQtQtQtQtQtQtQtQtQtQtQtQtQt.#.a.a.a.a.a.a.a.a.a.a.a.a.a.a.a.a.#QtQt",
"QtQtQtQtQtQtQtQtQtQtQtQtQtQtQtQtQtQtQtQtQtQtQtQtQtQtQtQt.#.#.#.#.#.#.#.#.#.#.#.#.#.#.#.#.#.#QtQt",
"QtQtQtQtQtQtQtQtQtQtQtQtQtQtQtQtQtQtQtQtQtQtQtQtQtQtQtQtQtQtQtQtQtQtQtQtQtQtQtQtQtQtQtQtQtQtQtQt",
"QtQtQtQtQtQtQtQtQtQtQtQtQtQtQtQtQtQtQtQtQtQtQtQtQtQtQtQtQtQtQtQtQtQtQtQtQtQtQtQtQtQtQtQtQtQtQtQt"};
