/* XPM */
static const char *xpmToFront16x16[]={
"16 16 43 1",
"# c None",
". c #000000",
"y c #00b700",
"J c #00b800",
"F c #00bb00",
"r c #00bc00",
"K c #00c000",
"I c #00c600",
"L c #00cd00",
"N c #00d200",
"j c #00d500",
"E c #00e100",
"O c #00e400",
"D c #00ea00",
"x c #00eb00",
"v c #00fd00",
"w c #00fe00",
"b c #00ff00",
"H c #01de01",
"C c #01e901",
"M c #01eb01",
"q c #02e402",
"z c #03f403",
"u c #04f504",
"p c #05ef05",
"o c #06f106",
"G c #07e707",
"n c #07f307",
"B c #09e409",
"m c #0ef90e",
"A c #10ea10",
"s c #12eb12",
"t c #13ec13",
"i c #15dd15",
"c c #15fb15",
"k c #16f116",
"l c #1afa1a",
"h c #1eec1e",
"g c #20ee20",
"f c #21f021",
"d c #29ff29",
"e c #2afb2a",
"a c #ffffff",
"........########",
".aaaaaa.########",
".abbaaa.####bb##",
".abb........bb##",
".aa.cdefghij.###",
".aa.klmnopqr.###",
"....stuvwvxy.###",
"###.sszwbwxy.###",
"###.sszwbwxy.###",
"###.ABCxxDEF....",
"###.GHIJyyKL.aa.",
"###.MNryyyFO.aa.",
"##bb........bba.",
"##bb####.aaabba.",
"########.aaaaaa.",
"########........"};

