/* XPM */
static char *ToFront_xpm[]={
"48 48 125 2",
"Qt c None",
".# c #000000",
".Y c #004100",
"#6 c #004600",
".X c #005c00",
"#5 c #006000",
"#3 c #006400",
"#T c #006b00",
"#S c #006d00",
"#U c #007400",
"#R c #007500",
".K c #007600",
"#1 c #007700",
"#2 c #008000",
"#V c #008c00",
"#Q c #008d00",
"#Z c #009300",
"#f c #009c00",
"#j c #009f00",
"#o c #00a200",
"#b c #00a300",
"#X c #00a600",
"#4 c #00a700",
"#t c #00ac00",
".J c #00b300",
"#0 c #00b800",
"#P c #00bd00",
".t c #00c200",
"#x c #00c300",
".9 c #00c500",
"#H c #00ce00",
"#G c #00cf00",
".0 c #00d000",
"#I c #00d100",
"#F c #00d200",
"#N c #00d300",
".Z c #00d600",
"#J c #00d800",
"#E c #00dc00",
"#W c #00dd00",
"#e c #00e100",
"#n c #00e200",
"#M c #00e300",
"#a c #00e400",
"#s c #00e500",
"#A c #00e600",
"#w c #00ec00",
"#K c #00f200",
"#z c #00f600",
".M c #00f700",
".1 c #00fb00",
"#L c #00fd00",
".N c #00ff00",
".L c #03ff03",
"#. c #05ff05",
"## c #07ff07",
".I c #0c0c0c",
".j c #0dff0d",
".s c #10ff10",
"#c c #131313",
"#i c #16ff16",
".2 c #17ff17",
"#m c #18ff18",
"#r c #19ff19",
"#v c #1aff1a",
".O c #1bff1b",
"#d c #1dff1d",
".8 c #22ff22",
".x c #232323",
".3 c #23ff23",
"#Y c #25ff25",
".7 c #29ff29",
".4 c #2aff2a",
".6 c #2bff2b",
".5 c #2cff2c",
".y c #2d2d2d",
"#h c #2eff2e",
"#g c #303030",
"#D c #33ff33",
".o c #34ff34",
"#l c #35ff35",
".w c #363636",
".P c #37ff37",
"#q c #3aff3a",
".W c #3bff3b",
"#k c #3d3d3d",
".f c #3fff3f",
".u c #42ff42",
".v c #44ff44",
".z c #474747",
"#O c #484848",
"#p c #494949",
".n c #49ff49",
".i c #4fff4f",
".H c #525252",
".Q c #55ff55",
".V c #5eff5e",
"#u c #606060",
".r c #61ff61",
".e c #64ff64",
".R c #65ff65",
".A c #6b6b6b",
".U c #6bff6b",
".S c #6cff6c",
".T c #6dff6d",
"#C c #6f6f6f",
".m c #73ff73",
"#y c #757575",
".k c #7cff7c",
".G c #7d7d7d",
".B c #828282",
".h c #85ff85",
"#B c #88ff88",
".l c #89ff89",
".C c #8b8b8b",
".d c #8bff8b",
".q c #8eff8e",
".D c #919191",
".F c #949494",
".E c #979797",
".b c #98ff98",
".p c #9fff9f",
".c c #a1ffa1",
".g c #a6ffa6",
".a c #ffffff",
"QtQtQtQtQtQtQtQtQtQtQtQtQtQtQtQtQtQtQtQtQtQtQtQtQtQtQtQtQtQtQtQtQtQtQtQtQtQtQtQtQtQtQtQtQtQtQtQt",
"QtQtQtQtQtQtQtQtQtQtQtQtQtQtQtQtQtQtQtQtQtQtQtQtQtQtQtQtQtQtQtQtQtQtQtQtQtQtQtQtQtQtQtQtQtQtQtQt",
"QtQt.#.#.#.#.#.#.#.#.#.#.#.#.#.#.#.#.#.#QtQtQtQtQtQtQtQtQtQtQtQtQtQtQtQtQtQtQtQtQtQtQtQtQtQtQtQt",
"QtQt.#.a.a.a.a.a.a.a.a.a.a.a.a.a.a.a.a.#QtQtQtQtQtQtQtQtQtQtQtQtQtQtQtQtQtQtQtQtQtQtQtQtQtQtQtQt",
"QtQt.#.a.a.a.a.a.a.a.a.a.a.a.a.a.a.a.a.#QtQtQtQtQtQtQtQtQtQtQtQtQtQtQtQtQtQtQtQtQtQtQtQtQtQtQtQt",
"QtQt.#.a.a.a.a.a.a.a.a.a.a.a.a.a.a.a.a.#QtQtQtQtQtQtQtQtQtQtQtQtQtQtQtQtQtQtQtQtQtQtQtQtQtQtQtQt",
"QtQt.#.a.a.a.a.a.a.a.a.a.a.a.a.a.a.a.a.#QtQtQtQtQtQtQtQtQtQtQtQtQtQtQtQtQtQtQtQtQtQtQtQtQtQtQtQt",
"QtQt.#.a.a.a.a.a.a.a.a.a.a.a.a.a.a.a.a.#QtQtQtQtQtQtQtQtQtQtQtQtQtQtQtQtQtQtQtQtQtQtQtQtQtQtQtQt",
"QtQt.#.a.a.a.a.b.c.d.e.f.a.a.a.a.a.a.a.#QtQtQtQtQtQtQtQtQtQtQtQtQtQtQtQt.g.c.h.i.jQtQtQtQtQtQtQt",
"QtQt.#.a.a.a.a.k.l.m.n.o.a.a.a.a.a.a.a.#QtQtQtQtQtQtQtQtQtQtQtQtQtQtQtQt.p.q.r.s.tQtQtQtQtQtQtQt",
"QtQt.#.a.a.a.a.u.v.w.x.y.z.A.B.C.C.C.C.C.C.C.C.C.C.C.C.C.C.C.C.C.C.D.E.F.G.H.I.J.KQtQtQtQtQtQtQt",
"QtQt.#.a.a.a.a.L.M.#.N.O.P.Q.R.S.S.S.S.S.S.S.S.S.S.S.S.S.S.S.S.S.S.T.U.V.W.N.#.X.YQtQtQtQtQtQtQt",
"QtQt.#.a.a.a.a.Z.0.#.1.j.2.3.4.5.5.5.5.5.5.5.5.5.5.5.5.5.5.5.5.5.5.6.7.8.L.9.#.Y.YQtQtQtQtQtQtQt",
"QtQt.#.a.a.a.a.a.a.##.##.N.N.N.N.N.N.N.N.N.N.N.N.N.N.N.N.N.N.N.N.N.N.N.N#a#b.#QtQtQtQtQtQtQtQtQt",
"QtQt.#.a.a.a.a.a.a#c#d.s.N.N.N.N.N.N.N.N.N.N.N.N.N.N.N.N.N.N.N.N.N.N.N.N#e#f.#QtQtQtQtQtQtQtQtQt",
"QtQt.#.#.#.#.#.#.##g#h#i.N.N.N.N.N.N.N.N.N.N.N.N.N.N.N.N.N.N.N.N.N.N.N.N#e#j.#QtQtQtQtQtQtQtQtQt",
"QtQtQtQtQtQtQtQtQt#k#l#m.N.N.N.N.N.N.N.N.N.N.N.N.N.N.N.N.N.N.N.N.N.N.N.N#n#o.#QtQtQtQtQtQtQtQtQt",
"QtQtQtQtQtQtQtQtQt#k#l#m.N.N.N.N.N.N.N.N.N.N.N.N.N.N.N.N.N.N.N.N.N.N.N.N#n#o.#QtQtQtQtQtQtQtQtQt",
"QtQtQtQtQtQtQtQtQt#k#l#m.N.N.N.N.N.N.N.N.N.N.N.N.N.N.N.N.N.N.N.N.N.N.N.N#n#o.#QtQtQtQtQtQtQtQtQt",
"QtQtQtQtQtQtQtQtQt#k#l#m.N.N.N.N.N.N.N.N.N.N.N.N.N.N.N.N.N.N.N.N.N.N.N.N#n#o.#QtQtQtQtQtQtQtQtQt",
"QtQtQtQtQtQtQtQtQt#k#l#m.N.N.N.N.N.N.N.N.N.N.N.N.N.N.N.N.N.N.N.N.N.N.N.N#n#o.#QtQtQtQtQtQtQtQtQt",
"QtQtQtQtQtQtQtQtQt#k#l#m.N.N.N.N.N.N.N.N.N.N.N.N.N.N.N.N.N.N.N.N.N.N.N.N#n#o.#QtQtQtQtQtQtQtQtQt",
"QtQtQtQtQtQtQtQtQt#k#l#m.N.N.N.N.N.N.N.N.N.N.N.N.N.N.N.N.N.N.N.N.N.N.N.N#n#o.#QtQtQtQtQtQtQtQtQt",
"QtQtQtQtQtQtQtQtQt#k#l#m.N.N.N.N.N.N.N.N.N.N.N.N.N.N.N.N.N.N.N.N.N.N.N.N#n#o.#QtQtQtQtQtQtQtQtQt",
"QtQtQtQtQtQtQtQtQt#k#l#m.N.N.N.N.N.N.N.N.N.N.N.N.N.N.N.N.N.N.N.N.N.N.N.N#n#o.#QtQtQtQtQtQtQtQtQt",
"QtQtQtQtQtQtQtQtQt#k#l#m.N.N.N.N.N.N.N.N.N.N.N.N.N.N.N.N.N.N.N.N.N.N.N.N#n#o.#QtQtQtQtQtQtQtQtQt",
"QtQtQtQtQtQtQtQtQt#k#l#m.N.N.N.N.N.N.N.N.N.N.N.N.N.N.N.N.N.N.N.N.N.N.N.N#n#o.#QtQtQtQtQtQtQtQtQt",
"QtQtQtQtQtQtQtQtQt#k#l#m.N.N.N.N.N.N.N.N.N.N.N.N.N.N.N.N.N.N.N.N.N.N.N.N#n#o.#QtQtQtQtQtQtQtQtQt",
"QtQtQtQtQtQtQtQtQt#k#l#m.N.N.N.N.N.N.N.N.N.N.N.N.N.N.N.N.N.N.N.N.N.N.N.N#n#o.#QtQtQtQtQtQtQtQtQt",
"QtQtQtQtQtQtQtQtQt#k#l#m.N.N.N.N.N.N.N.N.N.N.N.N.N.N.N.N.N.N.N.N.N.N.N.N#n#o.#QtQtQtQtQtQtQtQtQt",
"QtQtQtQtQtQtQtQtQt#k#l#m.N.N.N.N.N.N.N.N.N.N.N.N.N.N.N.N.N.N.N.N.N.N.N.N#n#o.#QtQtQtQtQtQtQtQtQt",
"QtQtQtQtQtQtQtQtQt#k#l#m.N.N.N.N.N.N.N.N.N.N.N.N.N.N.N.N.N.N.N.N.N.N.N.N#n#o.#QtQtQtQtQtQtQtQtQt",
"QtQtQtQtQtQtQtQtQt#k#l#m.N.N.N.N.N.N.N.N.N.N.N.N.N.N.N.N.N.N.N.N.N.N.N.N#n#o.#.#.#.#.#.#.#.#QtQt",
"QtQtQtQtQtQtQtQtQt#p#q#r.N.N.N.N.N.N.N.N.N.N.N.N.N.N.N.N.N.N.N.N.N.N.N.N#s#t.#.a.a.a.a.a.a.#QtQt",
"QtQtQtQtQtQtQtQtQt#u.v#v.N.N.N.N.N.N.N.N.N.N.N.N.N.N.N.N.N.N.N.N.N.N.N.N#w#x.#.a.a.a.a.a.a.#QtQt",
"QtQtQtQtQtQtQtQtQt#y.n#r.N.N.N.N.N.N.N.N.N.N.N.N.N.N.N.N.N.N.N.N.N.N.N.N#z#A.#.a.a.a.a.a.a.#QtQt",
"QtQtQtQtQtQtQt#B.l#C#D.1#E#F#G#H#H#H#H#H#H#H#H#H#H#H#H#H#H#H#H#H#H#I#J#A#K#L.##M#N.a.a.a.a.#QtQt",
"QtQtQtQtQtQtQt.T.T#O.N#P#Q#R#S#T#T#T#T#T#T#T#T#T#T#T#T#T#T#T#T#T#T#U#V.J#W.N.##I#X.a.a.a.a.#QtQt",
"QtQtQtQtQtQtQt.P#Y.#.#.#.#.#.#.#.#.#.#.#.#.#.#.#.#.#.#.#.#.#.#.#.#.#.#.#.#.#.##Z#T.a.a.a.a.#QtQt",
"QtQtQtQtQtQtQt#w#0#1.Y.YQtQtQtQtQtQtQtQtQtQtQtQtQtQtQtQt.#.a.a.a.a.a.a.a#2#2#3.Y.Y.a.a.a.a.#QtQt",
"QtQtQtQtQtQtQt#4#5.Y.Y.YQtQtQtQtQtQtQtQtQtQtQtQtQtQtQtQt.#.a.a.a.a.a.a.a#T#6.Y.Y.Y.a.a.a.a.#QtQt",
"QtQtQtQtQtQtQtQtQtQtQtQtQtQtQtQtQtQtQtQtQtQtQtQtQtQtQtQt.#.a.a.a.a.a.a.a.a.a.a.a.a.a.a.a.a.#QtQt",
"QtQtQtQtQtQtQtQtQtQtQtQtQtQtQtQtQtQtQtQtQtQtQtQtQtQtQtQt.#.a.a.a.a.a.a.a.a.a.a.a.a.a.a.a.a.#QtQt",
"QtQtQtQtQtQtQtQtQtQtQtQtQtQtQtQtQtQtQtQtQtQtQtQtQtQtQtQt.#.a.a.a.a.a.a.a.a.a.a.a.a.a.a.a.a.#QtQt",
"QtQtQtQtQtQtQtQtQtQtQtQtQtQtQtQtQtQtQtQtQtQtQtQtQtQtQtQt.#.a.a.a.a.a.a.a.a.a.a.a.a.a.a.a.a.#QtQt",
"QtQtQtQtQtQtQtQtQtQtQtQtQtQtQtQtQtQtQtQtQtQtQtQtQtQtQtQt.#.#.#.#.#.#.#.#.#.#.#.#.#.#.#.#.#.#QtQt",
"QtQtQtQtQtQtQtQtQtQtQtQtQtQtQtQtQtQtQtQtQtQtQtQtQtQtQtQtQtQtQtQtQtQtQtQtQtQtQtQtQtQtQtQtQtQtQtQt",
"QtQtQtQtQtQtQtQtQtQtQtQtQtQtQtQtQtQtQtQtQtQtQtQtQtQtQtQtQtQtQtQtQtQtQtQtQtQtQtQtQtQtQtQtQtQtQtQt"};
