/* XPM */
static const char *xpmUnderline16x16[]={
"16 16 2 1",
". c None",
"# c #000000",
"................",
"................",
"....###..###....",
".....#....#.....",
".....#....#.....",
".....#....#.....",
".....#....#.....",
".....#....#.....",
".....#....#.....",
".....##..##.....",
"......####......",
"................",
"..############..",
"..############..",
"................",
"................"};

