/* XPM */
static char *Undo_xpm[]={
"48 48 256 2",
"Qt c None",
"#u c #000000",
"bi c #000f00",
"bh c #001100",
"bg c #001200",
"a0 c #001400",
"a6 c #001900",
"bF c #001f00",
"aq c #002300",
"#0 c #002b00",
"b8 c #003300",
"#L c #003600",
"bt c #003d00",
"aZ c #004200",
"aY c #004600",
"a1 c #004900",
"bf c #004b00",
"aX c #004d00",
"bj c #004e00",
"a2 c #005000",
"aW c #005500",
"be c #005900",
"aE c #005b00",
"a3 c #005e00",
"aD c #006000",
"bv c #006300",
"bB c #006700",
"aC c #006800",
"aF c #006a00",
"aV c #006e00",
"bs c #007000",
"aB c #007200",
"bk c #007400",
"aG c #007600",
"bT c #007800",
"aA c #007c00",
"aU c #007e00",
"a4 c #008000",
"aH c #008300",
"al c #008500",
"az c #008600",
"ak c #008800",
"ap c #008b00",
"bQ c #008d00",
"aj c #008f00",
"am c #009000",
"ay c #009300",
"bd c #009500",
"bK c #009700",
"ai c #009900",
"bG c #009b00",
"bC c #009c00",
"aI c #009e00",
"ah c #009f00",
"aT c #00a000",
"a5 c #00a200",
"a# c #00a300",
"#9 c #00a500",
"#Z c #00a600",
"#8 c #00a700",
"aJ c #00a900",
"an c #00aa00",
"#7 c #00ab00",
"ax c #00ad00",
"ag c #00ae00",
"#6 c #00b000",
"bu c #00b200",
"ao c #00b300",
"#5 c #00b400",
"a. c #00b500",
"#V c #00b600",
"#U c #00b700",
"#W c #00b800",
"#T c #00b900",
"b5 c #013b01",
"#G c #01b901",
"bJ c #02ba02",
"#F c #03ba03",
"bS c #040404",
"bL c #043d04",
"#S c #04ba04",
"#H c #06bb06",
"#E c #07bb07",
"#X c #08bb08",
"#I c #0abc0a",
"bD c #0bbc0b",
"#l c #0cbc0c",
"#k c #0dbd0d",
"#Y c #0ebd0e",
"ad c #0f0f0f",
"bE c #0fbd0f",
"#t c #104610",
"#m c #10bd10",
"#j c #13be13",
"#R c #14be14",
"#n c #15bf15",
"#D c #16bf16",
"bO c #174c17",
"#J c #17bf17",
"bz c #18c018",
"at c #194d19",
"#b c #1a1a1a",
"aS c #1ac01a",
"#i c #1bc01b",
"#o c #1cc11c",
"b7 c #1d511d",
"bP c #1f1f1f",
"#K c #1fc21f",
"bI c #20c220",
"bA c #22c222",
"bR c #232323",
"#p c #23c323",
"#s c #245624",
"af c #24c324",
".4 c #25c325",
"#h c #27c427",
"aN c #285928",
".5 c #28c428",
"#a c #292929",
"b3 c #29c429",
".3 c #2bc52b",
"bM c #2c2c2c",
"bN c #2c5c2c",
"a8 c #2cc52c",
"bH c #2dc52d",
"ac c #2e5e2e",
".6 c #2ec62e",
"bx c #2f2f2f",
"#r c #2fc62f",
"bW c #305f30",
"bl c #313131",
"by c #316031",
"#q c #31c631",
"bn c #32c732",
"a9 c #33c733",
"bU c #343434",
".2 c #34c734",
"## c #356335",
"#g c #37c837",
".V c #383838",
"bm c #386538",
".7 c #38c838",
"aM c #39c939",
"br c #3ac93a",
"#. c #3b683b",
".8 c #3cc93c",
".9 c #3dca3d",
".U c #3e3e3e",
"aR c #3eca3e",
"a7 c #406b40",
"aw c #40cb40",
"aK c #424242",
".1 c #42cb42",
".T c #436e43",
".F c #444444",
"aO c #474747",
".S c #477147",
".Q c #47cc47",
".R c #48cd48",
".P c #49cd49",
".E c #4a4a4a",
"#C c #4acd4a",
"#f c #4bce4b",
"aL c #4d764d",
".O c #4dce4d",
"ar c #505050",
".D c #507850",
".q c #525252",
".0 c #52d052",
"as c #53d053",
"#O c #545454",
".N c #55d055",
".C c #567c56",
"bw c #56d156",
"b4 c #575757",
"ab c #57d157",
".p c #5b5b5b",
".B c #5b805b",
"bV c #5d5d5d",
"bq c #5dd35d",
".A c #60d360",
"#e c #61d461",
".M c #62d462",
".o c #636363",
"#B c #63d463",
"bX c #648764",
"aQ c #64d464",
"b9 c #656565",
"bo c #668966",
".Z c #66d566",
".z c #67d567",
"#4 c #68d668",
"aa c #6a8c6a",
".n c #6d8e6d",
"b1 c #709170",
".y c #70d870",
".e c #717171",
".L c #71d871",
"bZ c #729272",
"b. c #737373",
"#2 c #769576",
"bp c #76d976",
"#1 c #777777",
"b6 c #787878",
".m c #799779",
".Y c #7ada7a",
"#N c #7b997b",
"#w c #7c7c7c",
".x c #7ddb7d",
".d c #7f7f7f",
".K c #81dc81",
"bc c #84dd84",
".l c #86a286",
"ae c #86de86",
"#M c #888888",
"#3 c #88de88",
".w c #8bdf8b",
".c c #8e8e8e",
"b2 c #8f8f8f",
".J c #8fe08f",
"#v c #909090",
"b# c #919191",
".k c #94ac94",
"#A c #94e294",
"b0 c #959595",
"bY c #979797",
".v c #97e297",
"bb c #99e399",
".b c #9c9c9c",
".X c #9ee49e",
"ba c #9fb59f",
".I c #9fe59f",
".j c #a0b6a0",
"#d c #a0e5a0",
"#Q c #a1e5a1",
".u c #a3b8a3",
"#z c #a6e7a6",
".a c #a7a7a7",
".i c #abbeab",
"aP c #acacac",
".t c #acbfac",
"#P c #adc0ad",
"#c c #aec0ae",
".# c #afafaf",
"av c #afc1af",
"#y c #b0c2b0",
".h c #b2b2b2",
".s c #b3c4b3",
"#x c #b4b4b4",
".H c #b4c5b4",
"au c #b5b5b5",
".W c #b5c6b5",
".g c #b6b6b6",
".f c #b8b8b8",
".G c #b9b9b9",
".r c #bbbbbb",
"QtQtQtQtQtQtQtQtQtQtQtQtQtQtQtQtQtQtQtQtQtQtQtQtQtQtQtQtQtQtQtQtQtQtQtQtQtQtQtQtQtQtQtQtQtQtQtQt",
"QtQtQtQtQtQtQtQtQtQtQtQtQtQtQtQtQtQtQtQtQtQtQtQtQtQtQtQtQtQtQtQtQtQtQtQtQtQtQtQtQtQtQtQtQtQtQtQt",
"QtQtQtQtQtQtQtQtQtQtQtQtQtQtQtQtQtQtQtQtQtQtQtQtQtQtQtQtQtQtQtQtQtQtQtQtQtQtQtQtQtQtQtQtQtQtQtQt",
"QtQtQtQtQtQtQtQtQtQtQtQtQtQtQtQtQtQtQtQtQtQtQtQtQtQtQtQtQtQtQtQtQtQtQtQtQtQtQtQtQtQtQtQtQtQtQtQt",
"QtQtQtQtQtQtQtQtQtQtQtQtQtQtQtQtQtQtQtQtQtQtQtQtQtQtQtQtQtQtQtQtQtQtQtQtQtQtQtQtQtQtQtQtQtQtQtQt",
"QtQtQtQtQtQtQtQtQtQtQtQtQtQtQtQtQtQtQtQtQtQtQtQtQtQtQt.#.a.b.c.d.eQtQtQtQtQtQtQtQtQtQtQtQtQtQtQt",
"QtQtQtQtQtQtQtQtQtQtQtQtQtQtQtQtQtQtQtQtQtQtQtQt.f.g.h.i.j.k.l.m.n.o.p.qQtQtQtQtQtQtQtQtQtQtQtQt",
"QtQtQtQtQtQtQtQtQtQtQtQtQtQtQtQtQtQtQtQtQtQt.r.f.s.t.u.v.w.x.y.z.A.B.C.D.E.FQtQtQtQtQtQtQtQtQtQt",
"QtQtQtQtQtQtQtQtQtQtQtQtQtQtQtQtQtQtQtQt.r.G.H.i.I.J.K.L.M.N.O.P.Q.P.P.R.S.T.U.VQtQtQtQtQtQtQtQt",
"QtQtQtQtQtQtQtQtQtQtQtQtQtQtQtQtQtQt.r.G.W.t.X.J.Y.Z.0.1.2.3.4.4.5.6.2.7.8.9#.###a#bQtQtQtQtQtQt",
"QtQt.cQtQtQtQtQtQtQtQtQtQtQtQtQtQt.f.W#c#d.J.Y#e#f#g#h#i#j#k#l#k#m#n#o#p.3#q.2#r#s#t#uQtQtQtQtQt",
"QtQt#v#wQtQtQtQtQtQtQtQtQtQtQtQt#x#y#z#A.x#B#C.2#p#D#l#E#F#G#G#G#F#H#I#m#J#K.4.4#i#E#L#uQtQtQtQt",
"QtQt#M#N#OQtQtQtQtQtQtQtQtQtQt.h#P#Q.w.y.0#g#p#R#I#S#T#U#V#V#V#W#W#T#G#S#X#Y#R#D#m#T#Z#0#uQtQtQt",
"QtQt#1#2.C#aQtQtQtQtQtQtQtQt.h.t.I#3#4.Q.3#D#X#T#5#6#7#8#9#9#8#7#6#5#V#W#G#S#X#I#Ea.a##0#uQtQtQt",
"QtQt.oaaabacadQtQtQtQtQtQt#x.t.Xae.Z.1af#k#Uag#Zahaiajakalalakamaia#an#6a.#W#G#F#Gaoa#apaq#uQtQt",
"QtQtar.Bas.2at#bQtQtQtQtauav.Iae.Zaw#K#SaxahayazaAaBaCaDaEaEaDaFaGaHamaIaJ#6#V#W#Tao#9apaq#uQtQt",
"QtQtaKaL.OaM.4aNaOQtQtaP#P#daeaQaRaSa.aTajaUaVaDaWaXaYaZa0a0a0a1a2a3aVa4aya5axa.#W#5#ZapaVa6#uQt",
"QtQt.Va7.1#ga8a9aLb.b#babbbc#B.9#naxbdaUaFbebfaZbgbhbhbi#u#u#ubhbga0bja3bkapaIax#5#5#8apaCa6#uQt",
"QtQtblbmaMbn.3a9.Pbo#N.Kbpbqbr#jaJapbsaEa1btbhbh#u#u#u#uQtQtQt#u#u#ubga0aWbsapaTaxbu#9akbva0#uQt",
"QtQtbl##a9.3af.5#g#Cbwbw#Ca9#janapaFa2aZbhbi#u#uQtQtQtQtQtQtQtQtQtQt#u#ua0bebkam#9axa#azaDa0#uQt",
"QtQtbxby#r.4aSbz#K.5.6a8bA#m#6amaVa2btbh#u#uQtQtQtQtQtQtQtQtQtQtQtQtQtQt#ua6bBaHbCana5ala3a0#uQt",
"QtQtbxby.6bA#jbDbDbE#mbE#I#VaIaAbebtbh#uQtQtQtQtQtQtQtQtQtQtQtQtQtQtQtQtQt#ubFa4bGaJa#ala3a0#uQt",
"QtQtbxbybHbI#m#S#GbJ#FbJ#Wagbdbsbjbg#uQtQtQtQtQtQtQtQtQtQtQtQtQtQtQtQtQtQtQt#u#0aTax#9ala3a0#uQt",
"QtQtbxbybHbIbE#S#T#T#T#T#UaxayaVa6#uQtQtQtQtQtQtQtQtQtQtQtQtQtQtQtQtQtQtQtQtQt#u#La.aJazaEa0#uQt",
"QtQtbxbybHbIbE#S#T#T#T#T#WaxbKaGa6#uQtQtQtQtQtQtQtQtQtQtQtQtQtQtQtQtQtQtQtQtQt#ubL#E#7albea0#uQt",
"QtQtbMbN.4#J#Ha.bubububu#6anaia4aq#uQtQtQtQtQtQtQtQtQtQtQtQtQtQtQtQtQtQtQtQtQtadbO#manaUaWbg#uQt",
"QtQtbPat#ka.#8ahbCbCbCbCbGbKbQaUaVbF#uQtQtQtQtQtQtQtQtQtQtQtQtQtQtQtQtQtQtQtQtbR#s#j#9bkbfbh#uQt",
"QtQtbS#LaIbQa4bTaGaGaGaGaGbkbsaFbvaDbF#uQtQtQtQtQtQtQtQtQtQtQtQtQtQtQtQtQtQtQtbUac#mbGaCaZbh#uQt",
"QtQt#u#0bsaDaWa2a2a2a2a2a2bjbjbfbfbfa2a6#uQtQtQtQtQtQtQtQtQtQtQtQtQtQtQtQtQtQtaK###XbQaEa0#uQtQt",
"QtQt#ubFa6a0bgbgbhbhbhbhbhbhbhbhbgbga0a0a0#uQtQtQtQtQtQtQtQtQtQtQtQtQtQtQtQtQt.q###VaUbjbh#uQtQt",
"QtQt#u#u#u#u#u#u#u#u#u#u#u#u#u#u#u#u#u#u#u#u#uQtQtQtQtQtQtQtQtQtQtQtQtQtQtQtQtbVbW#8aFa0#uQtQtQt",
"QtQtQtQtQtQtQtQtQtQtQtQtQtQtQtQtQtQtQtQtQtQtQtQtQtQtQtQtQtQtQtQtQtQtQtQtQtQt#w.B#oambebg#uQtQtQt",
"QtQtQtQtQtQtQtQtQtQtQtQtQtQtQtQtQtQtQtQtQtQtQtQtQtQtQtQtQtQtQtQtQtQtQtQtQtQt#w.Sbubka0#uQtQtQtQt",
"QtQtQtQtQtQtQtQtQtQtQtQtQtQtQtQtQtQtQtQtQtQtQtQtQtQtQtQtQtQtQtQtQtQtQtQtQt#vbXaSbQbebg#uQtQtQtQt",
"QtQtQtQtQtQtQtQtQtQtQtQtQtQtQtQtQtQtQtQtQtQtQtQtQtQtQtQtQtQtQtQtQtQtQtQtbYbZ#rahbBa0#uQtQtQtQtQt",
"QtQtQtQtQtQtQtQtQtQtQtQtQtQtQtQtQtQtQtQtQtQtQtQtQtQtQtQtQtQtQtQtQtQtQtb0b1.2#8bsa6#uQtQtQtQtQtQt",
"QtQtQtQtQtQtQtQtQtQtQtQtQtQtQtQtQtQtQtQtQtQtQtQtQtQtQtQtQtQtQtQtQtQtb2bob3a#bsa6#uQtQtQtQtQtQtQt",
"QtQtQtQtQtQtQtQtQtQtQtQtQtQtQtQtQtQtQtQtQtQtQtQtQtQtQtQtQtQtQtQtQtQtb4bObKaqa6#uQtQtQtQtQtQtQtQt",
"QtQtQtQtQtQtQtQtQtQtQtQtQtQtQtQtQtQtQtQtQtQtQtQtQtQtQtQtQtQtQtQt#1aKb5#0bF#u#uQtQtQtQtQtQtQtQtQt",
"QtQtQtQtQtQtQtQtQtQtQtQtQtQtQtQtQtQtQtQtQtQtQtQtQtQtQtQtQtQtb6.qb7b8aq#u#uQtQtQtQtQtQtQtQtQtQtQt",
"QtQtQtQtQtQtQtQtQtQtQtQtQtQtQtQtQtQtQtQtQtQtQtQtQtQtQtQtb9aOb7#L#0#u#uQtQtQtQtQtQtQtQtQtQtQtQtQt",
"QtQtQtQtQtQtQtQtQtQtQtQtQtQtQtQtQtQtQtQtQtQtQtQtQtaO.VbRb5b8#u#u#uQtQtQtQtQtQtQtQtQtQtQtQtQtQtQt",
"QtQtQtQtQtQtQtQtQtQtQtQtQtQtQtQtQtQtQtQtQtQtQtQtbS#u#u#u#u#uQtQtQtQtQtQtQtQtQtQtQtQtQtQtQtQtQtQt",
"QtQtQtQtQtQtQtQtQtQtQtQtQtQtQtQtQtQtQtQtQtQtQtQtQtQtQtQtQtQtQtQtQtQtQtQtQtQtQtQtQtQtQtQtQtQtQtQt",
"QtQtQtQtQtQtQtQtQtQtQtQtQtQtQtQtQtQtQtQtQtQtQtQtQtQtQtQtQtQtQtQtQtQtQtQtQtQtQtQtQtQtQtQtQtQtQtQt",
"QtQtQtQtQtQtQtQtQtQtQtQtQtQtQtQtQtQtQtQtQtQtQtQtQtQtQtQtQtQtQtQtQtQtQtQtQtQtQtQtQtQtQtQtQtQtQtQt",
"QtQtQtQtQtQtQtQtQtQtQtQtQtQtQtQtQtQtQtQtQtQtQtQtQtQtQtQtQtQtQtQtQtQtQtQtQtQtQtQtQtQtQtQtQtQtQtQt",
"QtQtQtQtQtQtQtQtQtQtQtQtQtQtQtQtQtQtQtQtQtQtQtQtQtQtQtQtQtQtQtQtQtQtQtQtQtQtQtQtQtQtQtQtQtQtQtQt"};
