/* XPM */
static const char *xpmUndo16x16[]={
"16 16 97 2",
"Qt c None",
"#k c #103200",
"#l c #11170e",
"#j c #15250e",
"#B c #152c09",
"#s c #152e0a",
"#v c #153008",
".x c #171e13",
"#a c #17340a",
"#y c #183809",
"#o c #19340a",
"#m c #1b360f",
"#n c #1d3612",
".7 c #21331b",
".S c #21480d",
"#d c #223519",
".X c #24301d",
".4 c #26630b",
"#q c #313b2c",
".T c #31830d",
".3 c #324a25",
".2 c #34691c",
".9 c #3fad1a",
".L c #40453d",
"## c #40762a",
"#f c #42aa20",
".H c #42ab19",
"#D c #454546",
"#p c #45543b",
".8 c #45ac25",
"#b c #468d26",
".R c #469223",
"#E c #4a5943",
"#e c #4dad2a",
".s c #4db325",
".G c #4fac27",
".t c #4fb326",
".I c #50b228",
".C c #50c024",
"#t c #515f4a",
".F c #51a62a",
".r c #52b526",
".D c #52bb25",
".Q c #52c324",
".E c #53a72b",
"#A c #54634c",
"#c c #54803f",
".0 c #55b02d",
".N c #596354",
".6 c #59774a",
".1 c #59c628",
"#u c #5b6a55",
"#. c #5cc235",
".a c #5e8849",
".c c #5f884a",
"#x c #63715b",
".P c #63bd3a",
".l c #648e51",
".K c #669052",
".b c #688e55",
".z c #6d6770",
"#r c #6d6d6d",
".n c #6f726d",
".q c #70c14b",
".B c #72c44d",
".U c #75bb56",
"#g c #76c655",
".u c #78c95b",
"#C c #7c8678",
".f c #7e9b70",
".m c #818780",
"#z c #81897d",
".g c #84b06e",
".W c #859e7d",
".d c #89a87b",
".w c #89aa77",
".y c #8ba27f",
".e c #8fa385",
"#i c #90a388",
".# c #91ae83",
".Y c #92c77e",
".V c #99bc87",
".k c #9dc18a",
".Z c #9dd885",
"#w c #9ea19d",
"#h c #a1ba92",
".p c #a3d290",
".h c #a4d28b",
".M c #a5bb97",
".5 c #a5d38f",
".v c #a5dc8d",
".J c #a5dd8c",
".j c #aad891",
".o c #abc59f",
".O c #b0cf9d",
".i c #bbdda6",
".A c #bddbaa",
"QtQtQtQtQtQtQtQtQtQtQtQtQtQtQtQt",
"QtQtQtQtQtQtQt.#.a.b.c.dQtQtQtQt",
"QtQtQtQtQt.e.f.g.h.i.j.k.lQtQtQt",
".mQtQtQt.n.o.p.q.r.s.t.u.v.wQtQt",
".x.yQt.z.A.B.C.D.E.F.G.H.I.J.KQt",
".L.M.N.O.P.Q.RQtQtQtQt.S.T.U.V.W",
".X.Y.Z.0.1.2QtQtQtQtQtQt.3.4.5.6",
".7.8.9#.##QtQtQtQtQtQtQtQt#a#b#c",
"#d#e#f#g#h#iQtQtQtQtQtQtQt#j#k##",
"#l#m#n#o#p#q#rQtQtQtQtQtQt#s#tQt",
"QtQtQtQtQtQtQtQtQtQtQtQt#u#v#wQt",
"QtQtQtQtQtQtQtQtQtQtQt#x#y#zQtQt",
"QtQtQtQtQtQtQtQtQtQt#A#B#CQtQtQt",
"QtQtQtQtQtQtQtQtQt#D#EQtQtQtQtQt",
"QtQtQtQtQtQtQtQtQtQtQtQtQtQtQtQt",
"QtQtQtQtQtQtQtQtQtQtQtQtQtQtQtQt"};

