/* XPM */
static char *Unindent_xpm[]={
"48 48 16 1",
". c None",
"a c #000000",
"c c #00ff00",
"h c #010101",
"# c #4d4d4d",
"k c #b9b9b9",
"b c #d0d0d0",
"i c #d2d2d2",
"e c #d3d3d3",
"f c #d5d5d5",
"n c #d6d6d6",
"m c #d9d9d9",
"l c #dddddd",
"d c #e0e0e0",
"g c #f4f4f4",
"j c #f7f7f7",
"................................................",
"................................................",
"................................................",
"................................................",
"................................................",
"................................................",
".............########...###.....................",
".............########...###.....................",
".............########...###.....................",
"................................................",
".............########...#####################...",
".............########...#####################...",
".............########...#####################...",
"................................................",
"................................................",
".........aab............ccccccccccccccccccccc...",
".......daaae............ccccccccccccccccccccc...",
".......aaaaf............ccccccccccccccccccccc...",
".....gaahaaf....................................",
"....iaaaaaaf............ccccccccccccccccccccc...",
"...jaaaaaaakgllllml.....ccccccccccccccccccccc...",
"...aaaaaaaaaaaaaaaa.....ccccccccccccccccccccc...",
"..aaaaaaaaaaaaaaaaa.............................",
"...aaaaaaaaaaaaaaaa.....ccccccccccccccccccccc...",
"...jaaaaaaakgllllml.....ccccccccccccccccccccc...",
"....iaaaaaaf............ccccccccccccccccccccc...",
".....gaahaaf....................................",
".......aaaaf............ccccccccccccccccccccc...",
".......daaae............ccccccccccccccccccccc...",
".........aan............ccccccccccccccccccccc...",
"................................................",
"................................................",
".............########...#####################...",
".............########...#####################...",
".............########...#####################...",
"................................................",
".............########...#####################...",
".............########...#####################...",
".............########...#####################...",
"................................................",
".............########...####....................",
".............########...####....................",
".............########...####....................",
"................................................",
"................................................",
"................................................",
"................................................",
"................................................"};
