/* XPM */
static const char *xpmUnindent16x16[]={
"16 16 4 1",
". c None",
"a c #000000",
"b c #00ff00",
"# c #4d4d4d",
"................",
".......#........",
"................",
"..####.#########",
"................",
"...a...bbbbbbbbb",
"..aa...bbbbbbbbb",
".aaaaa..........",
"..aa...bbbbbb...",
"...a...bbbbbb...",
"................",
"..####.#########",
"................",
"..####.##.......",
"................",
".......#........"};

