/* XPM */
static char *View_xpm[]={
"48 48 104 2",
"Qt c None",
".I c #000000",
".# c #00ff00",
"#j c #010101",
"#g c #1f1f1f",
".z c #282828",
"#e c #333333",
"#B c #343434",
"#I c #373737",
".y c #3d3d3d",
"#r c #424242",
".U c #464646",
"#o c #474747",
".p c #4c4c4c",
".o c #4f4f4f",
"#A c #525252",
".S c #585858",
"#H c #5a5a5a",
"#J c #5b5b5b",
"#u c #5d5d5d",
"#K c #636363",
".g c #646464",
"#L c #656565",
"#C c #6c6c6c",
".Q c #707070",
"#i c #717171",
".f c #797979",
".O c #7c7c7c",
".L c #828282",
".e c #858585",
"#. c #868686",
".J c #878787",
"#v c #898989",
"#f c #8a8a8a",
".d c #8b8b8b",
"#z c #8f8f8f",
".c c #909090",
"#D c #929292",
"#a c #939393",
".4 c #959595",
".A c #969696",
".b c #9a9a9a",
".V c #9c9c9c",
"#q c #9e9e9e",
"#n c #9f9f9f",
"#w c #a0a0a0",
".i c #a1a1a1",
".T c #a2a2a2",
".r c #a3a3a3",
".a c #a4a4a4",
".q c #a6a6a6",
".h c #a8a8a8",
"#t c #aeaeae",
"#E c #b2b2b2",
".7 c #b3b3b3",
"#G c #b4b4b4",
".N c #b6b6b6",
"#d c #b8b8b8",
"#x c #bcbcbc",
"#y c #c1c1c1",
".9 c #c5c5c5",
"## c #c6c6c6",
"#h c #c7c7c7",
"#p c #c9c9c9",
"#F c #cbcbcb",
"#s c #cccccc",
".Y c #cecece",
".X c #cfcfcf",
".H c #d0d0d0",
".Z c #d1d1d1",
".P c #d2d2d2",
"#c c #d4d4d4",
"#k c #d7d7d7",
".0 c #d8d8d8",
".8 c #dbdbdb",
".W c #dcdcdc",
".6 c #dddddd",
".3 c #e0e0e0",
"#b c #e1e1e1",
".x c #e3e3e3",
"#m c #e4e4e4",
".n c #e5e5e5",
".1 c #e6e6e6",
".R c #e9e9e9",
".B c #eaeaea",
".M c #ebebeb",
".G c #eeeeee",
".j c #efefef",
".m c #f0f0f0",
".w c #f1f1f1",
".2 c #f2f2f2",
".k c #f3f3f3",
".l c #f4f4f4",
".s c #f5f5f5",
".5 c #f6f6f6",
"#l c #f7f7f7",
".F c #f8f8f8",
".v c #f9f9f9",
".t c #fafafa",
".K c #fbfbfb",
".E c #fcfcfc",
".u c #fdfdfd",
".C c #fefefe",
".D c #ffffff",
"QtQtQtQtQtQtQtQtQtQtQtQtQtQtQtQtQtQtQtQtQtQtQtQtQtQtQtQtQtQtQtQtQtQtQtQtQtQtQtQtQtQtQtQtQtQtQtQt",
"QtQtQtQtQtQtQtQtQtQtQtQtQtQtQtQtQtQtQtQtQtQtQtQtQtQtQtQtQtQtQtQtQtQtQtQtQtQtQtQtQtQtQtQtQtQtQtQt",
"QtQtQtQtQtQtQtQtQtQtQt.#.#.#.#.#.#.#.#.#.#.#.#.#.#.#.#.#.#.#.#.#.#.#.#.#.#QtQtQtQtQtQtQtQtQtQtQt",
"QtQtQtQtQtQtQtQtQt.#.#.a.b.c.d.d.d.d.d.d.d.d.d.d.d.d.d.d.d.d.d.d.d.d.e.f.g.#.#QtQtQtQtQtQtQtQtQt",
"QtQtQtQtQtQtQt.#.#.h.i.j.k.l.k.k.k.k.k.k.k.k.k.k.k.k.k.k.k.k.k.k.k.k.k.m.n.o.p.#.#QtQtQtQtQtQtQt",
"QtQtQtQtQtQt.#.q.r.j.s.t.u.u.u.u.u.u.u.u.u.u.u.u.u.u.u.u.u.u.u.u.u.u.u.u.v.w.x.y.z.#QtQtQtQtQtQt",
"QtQtQtQtQt.#.A.B.s.t.u.C.D.D.D.D.D.D.D.D.D.D.D.D.D.D.D.D.D.D.D.D.D.D.D.D.C.E.F.G.H.I.#QtQtQtQtQt",
"QtQtQtQtQt.#.J.l.E.C.D.D.D.D.D.D.D.D.D.D.D.D.D.D.D.D.D.D.D.D.D.D.D.D.D.D.D.D.C.K.n.I.#QtQtQtQtQt",
"QtQtQtQt.#.L.M.v.C.D.D.D.D.D.D.D.D.D.D.D.D.D.D.D.D.D.D.D.D.D.D.D.D.D.D.D.D.D.D.C.M.N.I.#QtQtQtQt",
"QtQtQtQt.#.O.k.u.D.D.D.D.D.D.D.D.D.D.D.D.D.D.D.D.D.D.D.D.D.D.D.D.D.D.D.D.D.D.D.D.v.P.I.#QtQtQtQt",
"QtQtQt.#.Q.R.v.C.D.D.D.D.D.D.D.D.D.D.D.D.D.D.D.D.D.D.D.D.D.D.D.D.D.D.D.D.D.D.D.D.C.x.r.I.#QtQtQt",
"QtQtQt.#.S.G.u.D.D.D.D.D.D.D.D.D.D.D.D.D.D.D.D.D.D.D.D.D.D.D.D.D.D.D.D.D.D.D.D.D.D.n.T.I.#QtQtQt",
"QtQtQt.#.U.m.u.D.D.D.D.D.D.D.D.D.D.D.D.D.D.D.D.D.D.D.D.D.D.D.D.D.D.D.D.D.D.D.D.D.D.x.V.I.#QtQtQt",
"QtQtQt.#.y.j.u.D.D.D.D.u.s.R.W.P.X.Y.Y.Y.Y.Y.Y.Y.Y.Y.Y.Y.Y.Y.Y.Z.0.1.2.K.C.D.D.D.D.3.4.I.#QtQtQt",
"QtQtQt.#.y.j.u.D.D.D.D.5.6.7.I.I.I.I.I.I.I.I.I.I.I.I.I.I.I.I.I.I.I.I.8.s.C.D.D.D.D.3.4.I.#QtQtQt",
"QtQtQt.#.y.j.u.D.D.D.D.j.9#..I.I.I.I.I.I.I.I.I.I.I.I.I.I.I.I.I.I.I.I.6.K.D.D.D.D.D.3.4.I.#QtQtQt",
"QtQtQt.#.y.j.u.D.D.D.D.G###a.I.I.I.I.I.I.I.I.I.I.I.I.I.I.I.I.I.I.I.I.D.D.D.D.D.D.D.3.4.I.#QtQtQt",
"QtQtQt.#.y.j.u.D.D.D.D.s#b#c#d#d#d#d#d#d#d#d#d#d#d#d#d#d#d#d#d#d#d#d.D.D.D.D.D.D.D.3.4.I.#QtQtQt",
"QtQtQt.#.y.j.u.D.D.D.D.u.u.D.D.D.D.D.D.D.D.D.D.D.D.D.D.D.D.D.D.D.D.D.D.D.D.D.D.D.D.3.4.I.#QtQtQt",
"QtQtQt.#.y.j.u.D.D.D.D.D.D.D.D.D.D.D.D.D.D.D.D.D.D.D.D.D.D.D.D.D.D.D.D.D.D.D.D.D.D.3.4.I.#QtQtQt",
"QtQtQt.#.y.j.u.D.D.D.D.D.D.D.D.D.D.D.D.D.D.D.D.D.D.D.D.D.D.D.D.D.D.D.D.D.D.D.D.D.D.3.4.I.#QtQtQt",
"QtQtQt.#.y.j.u.D.D.D.D.D.D.D.D.D.D.D.D.D.D.D.D.D.D.D.D.D.D.D.D.D.D.D.D.D.D.D.D.D.D.3.4.I.#QtQtQt",
"QtQtQt.#.y.j.u.D.D.D.D.D.D.D.D.D.D.D.D.D.D.D.D.D.D.D.D.D.D.D.D.D.D.D.D.D.D.D.D.D.D.3.4.I.#QtQtQt",
"QtQtQt.#.y.j.u.D.D.D.D.D.D.D.D.D.D.D.D.D.D.D.D.D.D.D.D.D.D.D.D.D.D.D.D.D.D.D.D.D.D.3.4.I.#QtQtQt",
"QtQtQt.#.y.j.u.D.D.D.D.D.D.D.D.D.D.D.D.D.D.D.D.D.D.D.D.D.D.D.D.D.D.D.D.D.D.D.D.D.D.3.4.I.#QtQtQt",
"QtQtQt.#.y.j.u.D.D.D.D.D.D.D.D.D.D.D.D.D.D.D.D.D.D.D.D.D.D.D.D.D.D.D.D.D.D.D.D.D.D.3.4.I.#QtQtQt",
"QtQtQt.#.y.j.u.D.D.D.D.D.D.D.D.D.D.D.D.D.D.D.D.D.D.D.D.D.D.D.D.D.D.D.D.D.D.D.D.D.D.3.4.I.#QtQtQt",
"QtQtQt.#.y.j.u.D.D.D.D.D.D.D.D.D.D.D.D.D.D.D.D.D.D.D.D.D.D.D.D.D.D.D.D.D.D.D.D.D.D.3.4.I.#QtQtQt",
"QtQtQt.#.y.j.u.D.D.D.D.D.D.D.D.D.D.D.D.D.D.D.D.D.D.D.D.D.D.D.D.D.D.D.D.D.D.D.D.D.D.3.4.I.#QtQtQt",
"QtQtQt.#.y.j.u.D.D.D.D.D.D.D.D.D.D.D.D.D.D.D.D.D.D.D.D.D.D.D.D.D.D.D.D.D.D.D.D.D.D.3.4.I.#QtQtQt",
"QtQtQt.#.y.j.u.D.D.D.D.D.D.D.D.D.D.D.D.D.D.D.D.D.D.D.D.D.D.D.D.D.D.D.D.D.D.D.D.D.D.3.4.I.#QtQtQt",
"QtQtQt.#.y.j.u.D.D.D.D.D.D.D.D.D.D.D.D.D.D.D.D.D.D.D.D.D.D.D.D.D.D.D.D.D.D.D.D.D.D.3.4.I.#QtQtQt",
"QtQtQt.#.y.j.u.D.D.D.D.D.D.D.D.D.D.D.D.D.D.D.D.D.D.D.D.D.D.D.D.D.D.D.D.D.D.D.D.D.D.3.4.I.#QtQtQt",
"QtQtQt.#.y.j.u.D.D.D.D.D.D.D.D.D.D.D.D.D.D.D.D.D.D.D.D.D.D.D.D.D.D.D.D.D.D.D.D.D.D.3.4.I.#QtQtQt",
"QtQtQt.#.y.j.u.D.D.D.D.D.D.D.D.D.D.D.D.D.D.D.D.D.D.D.D.D.D.D.D.D.D.D.D.D.D.D.D.D.D.3.4.I.#QtQtQt",
"QtQtQt.##e.G.u.C.D.D.D.D.D.D.D.D.D.D.D.D.D.D.D.D.D.D.D.D.D.D.D.D.D.D.D.D.D.D.D.D.u.0#f.I.#QtQtQt",
"QtQtQt.##g.R.E.C.D.D.D.D.D.D.D.D.D.D.D.D.D.D.D.D.D.D.D.D.D.D.D.D.D.D.D.D.D.D.D.D.5#h#i.I.#QtQtQt",
"QtQtQt.##j#k#l.E.C.D.D.D.D.D.D.D.D.D.D.D.D.D.D.D.D.D.D.D.D.D.D.D.D.D.D.D.D.D.D.u#m#n#o.I.#QtQtQt",
"QtQtQtQt.#.I.1.K.C.D.D.D.D.D.D.D.D.D.D.D.D.D.D.D.D.D.D.D.D.D.D.D.D.D.D.D.D.D.D.5#p#i.I.#QtQtQtQt",
"QtQtQtQt.#.I#p.2.E.C.D.D.D.D.D.D.D.D.D.D.D.D.D.D.D.D.D.D.D.D.D.D.D.D.D.D.D.D.u#m#q#r.I.#QtQtQtQt",
"QtQtQtQtQt.#.I#s.x.w.K.C.D.D.D.D.D.D.D.D.D.D.D.D.D.D.D.D.D.D.D.D.D.D.D.D.u.s#b#t#u.I.#QtQtQtQtQt",
"QtQtQtQtQt.#.I#v#w#x.W.w.K.C.D.D.D.D.D.D.D.D.D.D.D.D.D.D.D.D.D.D.D.D.u.s#b#y#z#A#B.I.#QtQtQtQtQt",
"QtQtQtQtQtQt.#.I.I#C#D#E###F#s#s#s#s#s#s#s#s#s#s#s#s#s#s#s#s#s#s#s#s.9#G.d#H#I.I.I.#QtQtQtQtQtQt",
"QtQtQtQtQtQtQt.#.#.I.I#J#K#L#K#K#K#K#K#K#K#K#K#K#K#K#K#K#K#K#K#K#K#K#J.U#I.I.I.#.#QtQtQtQtQtQtQt",
"QtQtQtQtQtQtQtQtQt.#.#.I.I.I.I.I.I.I.I.I.I.I.I.I.I.I.I.I.I.I.I.I.I.I.I.I.I.#.#QtQtQtQtQtQtQtQtQt",
"QtQtQtQtQtQtQtQtQtQtQt.#.#.#.#.#.#.#.#.#.#.#.#.#.#.#.#.#.#.#.#.#.#.#.#.#.#QtQtQtQtQtQtQtQtQtQtQt",
"QtQtQtQtQtQtQtQtQtQtQtQtQtQtQtQtQtQtQtQtQtQtQtQtQtQtQtQtQtQtQtQtQtQtQtQtQtQtQtQtQtQtQtQtQtQtQtQt",
"QtQtQtQtQtQtQtQtQtQtQtQtQtQtQtQtQtQtQtQtQtQtQtQtQtQtQtQtQtQtQtQtQtQtQtQtQtQtQtQtQtQtQtQtQtQtQtQt"};
