/* XPM */
static const char *xpmView16x16[]={
"16 16 5 1",
". c None",
"a c #000000",
"# c #00ff00",
"c c #aaaaaa",
"b c #ffffff",
".....######.....",
"...##aaaaaa##...",
"..#aabbbbbbaa#..",
"..#abbbbbbbba#..",
".#abbaaaaaabba#.",
".#abbccccccbba#.",
".#abbbbbbbbbba#.",
".#abbbbbbbbbba#.",
".#abbbbbbbbbba#.",
".#abbbbbbbbbba#.",
".#abbbbbbbbbba#.",
".#abbbbbbbbbba#.",
"..#abbbbbbbba#..",
"..#aabbbbbbaa#..",
"...##aaaaaa##...",
".....######....."};

