/* XPM */
static const char *xpmWorkspace16x16[] = {
/* width height num_colors chars_per_pixel */
"    16    16      128            2",
/* colors */
".. c #3b3b3b",
".# c #91a9dc",
".a c #9696a2",
".b c #55658c",
".c c #a3a3ab",
".d c #3d445c",
".e c #4a4a4a",
".f c #83838a",
".g c #44455b",
".h c #58688b",
".i c #b2b2b4",
".j c #6d6d6f",
".k c #8d8d9a",
".l c #7e7e86",
".m c #96969a",
".n c #4c597e",
".o c #a1baed",
".p c #7287b6",
".q c #8aa3d9",
".r c #9a9a9a",
".s c #292929",
".t c #323234",
".u c #555555",
".v c #546385",
".w c #5d5d5d",
".x c #020202",
".y c #1d2234",
".z c #0a0b17",
".A c #86ff86",
".B c #131313",
".C c #a8a8a8",
".D c #8ba5da",
".E c #828282",
".F c #6d6d7b",
".G c #747474",
".H c #02021b",
".I c #131621",
".J c #3d4961",
".K c #616161",
".L c #859dd1",
".M c #5b5b5b",
".N c #080808",
".O c #26263b",
".P c #262d3b",
".Q c #232323",
".R c #1a1a1a",
".S c #ffffff",
".T c #94abdd",
".U c #8b8b8b",
".V c #7b91c2",
".W c #a3b3d6",
".X c #292932",
".Y c #96ff96",
".Z c #242636",
".0 c #48485a",
".1 c #7fff7f",
".2 c #bbcef6",
".3 c #78ff78",
".4 c #363a54",
".5 c #2a3151",
".6 c #6f84b0",
".7 c #2a2a3f",
".8 c #3eff3e",
".9 c #34ff34",
"#. c #6bff6b",
"## c #62ff62",
"#a c #28303f",
"#b c #90909b",
"#c c #151721",
"#d c #1a1e2c",
"#e c #171c27",
"#f c #aeaeae",
"#g c #121227",
"#h c #59ff59",
"#i c #54ff54",
"#j c #a2ffa2",
"#k c #010107",
"#l c #0e0e24",
"#m c #d6d6da",
"#n c #505050",
"#o c #888889",
"#p c #09ff09",
"#q c #869fd4",
"#r c #3f4b6d",
"#s c #7f7f7f",
"#t c #676767",
"#u c #6d7591",
"#v c #13ff13",
"#w c #c5d4f4",
"#x c #5b6b90",
"#y c #14182b",
"#z c #c5c5c5",
"#A c #787878",
"#B c #0eff0e",
"#C c #9f9f9f",
"#D c #434352",
"#E c #a7a7a7",
"#F c #343448",
"#G c #2b3344",
"#H c #606b8f",
"#I c #7482a7",
"#J c #6c81ac",
"#K c #424242",
"#L c #1bff1b",
"#M c #b0e7b3",
"#N c #ececee",
"#O c #758ab9",
"#P c #4e4e4e",
"#Q c #888890",
"#R c #2eff2e",
"#S c #b9b9b9",
"#T c #93939e",
"#U c #21ff21",
"#V c #e5e5e5",
"#W c #76ff76",
"#X c #91ace5",
"#Y c #8cf88d",
"#Z c #a6b8de",
"#0 c #ababb2",
"#1 c #798fbf",
"#2 c #71937b",
"#3 c #7489b5",
"#4 c #5c5c6a",
"#5 c #46536f",
"#6 c #a8c3f9",
"#7 c #9ea7c0",
"#8 c #b3bdd7",
"#9 c #48ff48",
/* pixels */
".x.N.N.B.Q.t#K#n.M.K.w.u.e...s.R",
".x#p#v#U.9.e###W.A#Y.l.1#.#i.8.s",
".x#B#L#R#9#t.A#j#M#b.F#2.Y.3#h..",
".N.B.Q...w.E.C#0.c.a#7.g.m#C#A.u",
".N.S.S.S.S.m#T.a.a.k.2#H.7#N.S.j",
".N.S.S.S.S.F.F#w#8.F#u#g.5.l.S.U",
".N.R.t.u.E#4.g#Z.W.0.d.V.p#l.i.C",
".N.S.S.S.S#S#F.4.O#I.o#X.D#r#D#z",
".N.S.S.S.S.i.c.O.##6.T.q.V.p.y.f",
".x.B.s.e.G.C#V.k.#.o.T.D#1#3.n.Z",
".x.S.S.S.S.r.S.7.#.#.##q.6#x.v.z",
".x.S.S.S.S#o.S.H.b.q.L#O#x#5.J#c",
".x.N.B.s.e.G#E.0.n.L#J.h.J#G#a.I",
".x.S.S.S.S.K.S#m#g.v.b.d.P.P#e#k",
".x.S.S.S.S#P.S.S#Q#y.J#a.y.z.t#o",
".x.x.N.B.Q...M#s.r.X#d#c#k.j#f.U"
};

