/* XPM */
static const char *xpmWorkspace48x48[] = {
/* width height num_colors chars_per_pixel */
"    48    48      255            2",
/* colors */
".. c #aab5e5",
".# c #bcbcbe",
".a c #6776cb",
".b c #5563bc",
".c c #2f3782",
".d c #d1d1d2",
".e c #596aca",
".f c #6a75b6",
".g c #7883bd",
".h c #e8e8e8",
".i c #9ca2c4",
".j c #aaaaaa",
".k c #96a5e3",
".l c #abb1ce",
".m c #e2e2e2",
".n c #d2d4dd",
".o c #ececed",
".p c #cbccd3",
".q c #ddddde",
".r c #e5e5e5",
".s c #a1a6c5",
".t c #adb2d1",
".u c #bfc3cf",
".v c #5c64a4",
".w c #a6aacb",
".x c #fbfbfb",
".y c #7886c9",
".z c #7c82ae",
".A c #d2d4e2",
".B c #858ab5",
".C c #002d00",
".D c #5a619c",
".E c #a3acd6",
".F c #fafafa",
".G c #9ba6cb",
".H c #828282",
".I c #697ad1",
".J c #c2c3c4",
".K c #a2a2a3",
".L c #8b92b9",
".M c #939abe",
".N c #e0e0e9",
".O c #f2f3f3",
".P c #d9d9d9",
".Q c #6c72a6",
".R c #bebec2",
".S c #b7b8ba",
".T c #3a418a",
".U c #69696a",
".V c #9ca1be",
".W c #767998",
".X c #434d99",
".Y c #dbdde9",
".Z c #757cb4",
".0 c #4a5095",
".1 c #8589ad",
".2 c #caccdd",
".3 c #414ea6",
".4 c #f7f7f8",
".5 c #888eb5",
".6 c #616389",
".7 c #f6f6f6",
".8 c #9c9c9d",
".9 c #59595a",
"#. c #2d327a",
"## c #656796",
"#a c #8089ba",
"#b c #3e5154",
"#c c #b3b4b5",
"#d c #636aa2",
"#e c #626263",
"#f c #d4d4d4",
"#g c #79797a",
"#h c #818396",
"#i c #515152",
"#j c #787dac",
"#k c #929394",
"#l c #464746",
"#m c #f4f4f4",
"#n c #939dc5",
"#o c #7a7f8c",
"#p c #8a8b8d",
"#q c #8b92b5",
"#r c #a7b0b2",
"#s c #8192dc",
"#t c #b6bcd3",
"#u c #d6d6d7",
"#v c #545a9d",
"#w c #757aa9",
"#x c #b4b9d3",
"#y c #4a57b5",
"#z c #2a2e77",
"#A c #888cb0",
"#B c #c7c9d4",
"#C c #5e5e5f",
"#D c #7d8b82",
"#E c #3a4598",
"#F c #6f80d6",
"#G c #9799ab",
"#H c #0e1b0f",
"#I c #cecece",
"#J c #c2c4d2",
"#K c #a9b4dc",
"#L c #7b8bdc",
"#M c #575a72",
"#N c #c5c6ca",
"#O c #101347",
"#P c #b1b5c8",
"#Q c #c7c9db",
"#R c #b2bcde",
"#S c #232a6f",
"#T c #666eae",
"#U c #8b9adf",
"#V c #c8c8c9",
"#W c #d9dae7",
"#X c #7d83a6",
"#Y c #a9aec5",
"#Z c #e5e5e9",
"#0 c #9599b4",
"#1 c #8186ab",
"#2 c #353a7f",
"#3 c #011701",
"#4 c #314d34",
"#5 c #dddde2",
"#6 c #f1f2f4",
"#7 c #b1b3c2",
"#8 c #a6aac4",
"#9 c #a9aecb",
"a. c #cfd0d5",
"a# c #173b19",
"aa c #aebcda",
"ab c #4d5058",
"ac c #989dc1",
"ad c #999dbd",
"ae c #bdbfcb",
"af c #82848c",
"ag c #41478e",
"ah c #8995d0",
"ai c #555659",
"aj c #99a6d6",
"ak c #cacacc",
"al c #ced0dc",
"am c #dfe0e7",
"an c #8b93c0",
"ao c #76847d",
"ap c #ebebeb",
"aq c #9b9db5",
"ar c #bcbfd8",
"as c #e5e6ed",
"at c #7b7ea4",
"au c #e1e2e7",
"av c #b0b5d0",
"aw c #c1c3d9",
"ax c #898ca6",
"ay c #9da8d2",
"az c #8187b1",
"aA c #a1a4bd",
"aB c #808cc3",
"aC c #002501",
"aD c #dddde5",
"aE c #a5a6a9",
"aF c #a8aab4",
"aG c #8e98c3",
"aH c #97a0cb",
"aI c #91a1dd",
"aJ c #8f95bc",
"aK c #546858",
"aL c #8f9acd",
"aM c #1e2567",
"aN c #8795d5",
"aO c #aebad5",
"aP c #757681",
"aQ c #adaeaf",
"aR c #a3a9be",
"aS c #8d9ddf",
"aT c #a4a6b2",
"aU c #707071",
"aV c #8491cc",
"aW c #7376a0",
"aX c #adb0c0",
"aY c #7378a5",
"aZ c #4e5389",
"a0 c #969698",
"a1 c #9fabcd",
"a2 c #a0a7c9",
"a3 c #e2e3ea",
"a4 c #f0f0f2",
"a5 c #8f939e",
"a6 c #8f95b6",
"a7 c #adafba",
"a8 c #b7bbcc",
"a9 c #eeefef",
"b. c #96a2c6",
"b# c #3a3e57",
"ba c #646678",
"bb c #8e9bd3",
"bc c #8b8fae",
"bd c #0e103c",
"be c #dbdbe1",
"bf c #8d97cc",
"bg c #4d4d4f",
"bh c #191f5c",
"bi c #00ff00",
"bj c #ffffff",
"bk c #fefefe",
"bl c #f1f1f1",
"bm c #686fa9",
"bn c #4a4e79",
"bo c #c7cbdf",
"bp c #7a80aa",
"bq c #6c6f89",
"br c #e2e4e7",
"bs c #7585d7",
"bt c #7b8ad2",
"bu c #9eade5",
"bv c #868fbc",
"bw c #0b2b0d",
"bx c #a4b0e1",
"by c #b8bac6",
"bz c #a6acac",
"bA c #a0a9a1",
"bB c #686ba5",
"bC c #142117",
"bD c #5e6bb3",
"bE c #435b43",
"bF c #dadbe4",
"bG c #e7e8ee",
"bH c #b1b9b2",
"bI c #5f70ca",
"bJ c #98a0b2",
"bK c #9daab4",
"bL c #d2d9e8",
"bM c #d6d7e0",
"bN c #8791c1",
"bO c #878889",
"bP c #525eaa",
"bQ c #8797de",
"bR c #909dda",
"bS c #9ca9de",
"bT c #616861",
"bU c #a7b0cf",
"bV c #6371c1",
"bW c #f5f5f5",
"bX c #4b4f66",
"bY c #dedfe9",
"bZ c #bfc7e9",
"b0 c #8085a2",
"b1 c #053107",
"b2 c #eff0f4",
"b3 c #98a7df",
"b4 c #2b2f67",
"b5 c #627772",
"b6 c #2a3e2a",
"b7 c #d8d9de",
"b8 c none",
/* pixels */
"b8b8b8b8b8b8b8b8b8b8b8b8b8b8b8b8b8b8b8b8b8b8b8b8b8b8b8b8b8b8b8b8b8b8b8b8b8b8b8b8b8b8b8b8b8b8b8b8",
"b8b8b8b8b8b8b8b8b8b8b8b8b8b8b8b8b8b8b8b8b8b8b8b8b8b8b8b8b8b8b8b8b8b8b8b8b8b8b8b8b8b8b8b8b8b8b8b8",
"b8.C.C.C.C.C.C.C.C.C.C.C.C.C.C.C.C.C.C.C.C.C.C.C.C.C.C.C.C.C.C.C.C.C.C.C.C.C.C.C.C.C.C.C.C.Cb8b8",
"b8.Cbibibibibibibibibibi.Cbibibibibibibibibibi.Cbibibibibibibibibibi.Cbibibibibibibibibibi.Cb8b8",
"b8.Cbibibibibibibibibibi.Cbibibibibibibibibibi.Cbibibibibibibibibibi.Cbibibibibibibibibibi.Cb8b8",
"b8.Cbibibibibibibibibibi.Cbibibibibibibibibibi.Cbibibibibibibibibibi.Cbibibibibibibibibibi.Cb8b8",
"b8.Cbibibibibibibibibibi.Cbibibibibibibibibibi.Cbibibibibibibibibibi.Cbibibibibibibibibibi.Cb8b8",
"b8.Cbibibibibibibibibibi.Cbibibibibibibibibibi.Cbibibibibibibibibibi.Cbibibibibibibibibibi.Cb8b8",
"b8.Cbibibibibibibibibibi.Cbibibibibibibibibibi.Cbibibibibibibibibibi.Cbibibibibibibibibibi.Cb8b8",
"b8.Cbibibibibibibibibibi.Cbibibibibibibibibibi.Cbibibibibibibibibibi.Cbibibibibibibibibibi.Cb8b8",
"b8.C.C.C.C.C.C.C.C.C.C.C.C.C.C.C.C.C.C.C.C.C.C.C.C.C.C.C.C.C.C.C.C.C.C.C.C.C.C.C.C.C.C.C.C.Cb8b8",
"b8.Cbjbjbjbjbjbjbjbjbjbj.Cbjbjbjbjbjbjbjbjbjbj.Cbjbjbjbjbjbjbjbjbjbj.Cbjbjbjbjbjbjbjbjbjbj.Cb8b8",
"b8.Cbjbjbjbjbjbjbjbjbjbj.Cbjbjbjbjbjbjbjbjbjbj.Cbjbjbjbjbjbjbjbjbjbj.Cbjbjbjbjbjbjbjbjbjbj.Cb8b8",
"b8.Cbjbjbjbjbjbjbjbjbjbj.Cbjbjbjbjbjbjbjbjbjbj.Cbjbjbjbjbjbjbjbjbjbj.Cbjbjbjbjbjbjbjbjbjbj.Cb8b8",
"b8.Cbjbjbjbjbkbk.x.x.x.x.Cbkbjbjbjbjbjbjbjbjbj.Cbjbjbjbjbjbjbjbjbjbj.Cbjbjbjbjbjbjbjbjbjbj.Cb8b8",
"b8.Cbjbjbjbk.x.4#m.O.O#ma#.7.4bkbjbjbjbjbjbkbk.Cbjbjbjbjbjbjbjbjbjbj.Cbjbjbjbjbjbjbjbjbjbj.Cb8b8",
"b8.Cbjbjbk.F.Oap.r.q#I.R#ra.a.#5#6bkbk.x.4.Oa9.CbW.xbkbjbjbjbjbjbjbj.Cbjbjbjbjbjbjbjbjbjbj.Cb8b8",
"b8.Cbjbk.F.O.h.q#f#caE#GaY.Q.z.B#8al.oap.q.dakaC#u.Pa9.7.xbkbjbjbjbj.Cbjbjbjbjbjbjbjbjbjbj.Cb8b8",
"b8.C.C.C.C.CaCaCaK#pa5aX#Pa8ac.Q.6b0#obwbE#3b6ao#caTaFbzbE.C.C.C.C.C.C.C.C.C.C.C.C.C.C.C.C.Cb8b8",
"b8.Cbk.4ap.q#f.S.HaPaTa.bA.dakaeax#Mbaa0#fa0.#.Sby#Jbyaqbc#G#7.o.4.x.Cbjbjbjbjbjbjbjbjbjbj.Cb8b8",
"b8.C.xbl.m#uak.H.UbO#N.m.C.q#I#caf#Mai.d.qaFby.pamambF.2#Y#P#X#Xae.ma#.4.xbkbjbjbjbjbjbjbj.Cb8b8",
"b8.C.4.o.q#f#c.U#C.8#f.F.C.m#N.K#g.9#e#N.pbya7#7.nambGasbF.n.V#Aatax#oaXa.bl.Fbkbkbjbjbjbj.Cb8b8",
"b8.C.7.h.P#f.jai#C.j.7.F.C#I.j.H#e#k#Zap#5br#Bae#7aA.u.n.A#J#8#1#wbpat#X#Xaqaebe.Fbkbjbjbj.Cb8b8",
"b8.C#m.r#u#f.8#i#e.SbkblaC.j.H#e.#.4#ma9a9ap#ZbFa3.V#0aAaA.V.M.5#A#A.zazaz.zbp#1#0#Ja4bkbj.Cb8b8",
"b8.C.O.m#u#fbO#i#e.J.4.maCbO#e#ea.#5ap.O.O#ZbMa8#0bc#Abc#qa6ad.V.Vad.L#q.L.5.Baz#w####ambj.Cb8b8",
"b8.C.O.m#u#f.H#lai.#a9.d#3.U#i#N.na.#B#BalamaAbcbc#1#1#Aa6.V.i.s#8#9.w.iac.MacaJ.5.Bbp.1#Bb1b8b8",
"b8.C.CaCaCaCbT#lai#ka#aC#3#3#Hb7bM.nbM#BaRaqbcbc.1#1#1#qac.s.s.s.s#9.t#9.w.s.sac.M.Lazbp.D#bb8b8",
"b8.C.7.h.P.d.j.9ai.K.d#I#3.Ubg#5aDaD.NaD#BaRbca6.1#1#1.5.M.s.s.sa2#9avav.t.l.wa2.GaHaGanbN#db8b8",
"b8.C.F.o.q#f.J#eab#pakakaC.H.9bOamau.Na3a3.Aad.1.1#1.zazaJ.i.s.s.w.l.t#x#xavbUa1.GayaHaLbf.g#7b8",
"b8.C.x.O.r.P#f#pab#o#N.paC.KaU#i#cama3a3as.N#x#q#1bpbp.zaJac.i.s.w#9.t#x#xaO#K.EayayajbbahaBbmb8",
"b8.Cbk.4.o.q#f#u.Uba.R#ua#.J#k.Ubg#NbFbY.N.N.A.iaz#j#j.z.5.Mac.i.w.w.laOaOaaaa#Kbxbxb3bRaN.y.f#B",
"b8.Cbj.x.O.r#u#fa0#MaFbe#4.q.SbO#Caial.AbM.Y#War.L#jaY#jaz.L.Mac.ia2bUaa#R#R#R....bu.kaS#s.y.f.W",
"b8.Cbjbk.4ap.q#f.##oat#QbH.h#u.j#g.9.H#Qal.A.A#Qac#j.Q.Q#j.B.L.M.i.Ga1#K#K#Kbxbxbu.kaSbQ#sbs.aaZ",
"b8.Cbjbj.x.O.m#u.daE.WaJ.uau.o#I.8aU#ia7aw#Q.2.2.l#j#d#dbB#w#aaJ#nb.b..GajajbSbSaIaSbQ#s#L#FbVbD",
"b8.C.C.C.C.C.CaCaC#4a5.Qav#r.C.CaC#3#3#3aXaraw#Qar.L.v#v.Dbm.ZbvaGaGaGbfaLbbaIaI#U#s#Lbs#F.IbI.b",
"b8.Cbjbjbj.x.O.r.P.d.J#d.zbLa3.7.m.SbO#C#lav#taraw.i.v.X.0#vbm.Z#a#aaBaBaVaVaNbQ#s#Lbs.I.abI.e.b",
"b8.Cbjbjbjbk.Fa9.q#f.daA.c.tbo.x.O#faEaU#Cafav#tara2#d.T.T.0#v.vbm.Z.Z.g.g.ybtbtbs#F.I.a.e.e#y#y",
"b8.Cbjbjbjbj.x#m.h.P#f.dbp.QbZas.x.h.R#p#C#l#Y.tavbUazag#..Tag.0#v#d.f.f.f.f.a.I.a.abI.e.e#y#EaM",
"b8.Cbjbjbjbjbk.Fa9.q#f#fbJ##ayarb2.O#f.KaUbg#G.w.wa2an#v#.#.#2.Tag.0#v.vbDbDbVbVbIbI.e.b.3#Sbdb8",
"b8.Cbjbjbkbkbk.x.O.r#u.daoat.5..bY.x.r.S.H.9#ia2a2.ibvbmag#z#z#.#2.Tag.0#vbP.b.b.b.b#y#Ebhbdb8b8",
"b8.Cbjbk.F.4.4.4.O.m#u.daK#jaW#K.Ybkbl.d.8aU#i#0aH#nbv.Z.D.T#z#z#z#.#2.T.Tag.X.X.3.3.cbhbd#4b8b8",
"b8.Cbk.F.Oap.rap.jaQ#V#Ib5aHaY..#Wbj.F.r.R#k.U#3#aanbN#a#T#vag#.#z#z#.#.#..c.c.c.c#Sbh#O#G.Cb8b8",
"b8.C.C.C.CaCa##CabbaaE#DbKaLaYbub5.C.C.CaCaC#3#3bC#X#a.g.Z.f.v.T.c#.#S#S#z#SaM#SaMbhb#a#.C.Cb8b8",
"b8b8b8b8b8b8b8#gb#b##haR#K#d.gbx.Yb8b8b8b8b8b8b8#gaPb0#T#T.fbDbP.0.T#2#.aM#SaMbh#S#Mb8b8b8b8b8b8",
"b8b8b8b8b8b8b8b8#gbXb4#2#2b4aN#Rb8b8b8b8b8b8b8b8b8bOaU.W.0#vbDbDbPbP.X#E.T.c.caMbnb8b8b8b8b8b8b8",
"b8b8b8b8b8b8b8b8b8#kbqaZ.T.f.Eb8b8b8b8b8b8b8b8b8b8b8.KbO#g.6.T.Xag#2.T#E.T.c#zbqb8b8b8b8b8b8b8b8",
"b8b8b8b8b8b8b8b8b8b8.J#7avbob8b8b8b8b8b8b8b8b8b8b8b8b8b8aQ.K.8#h.6.6.6##axa7b8b8b8b8b8b8b8b8b8b8",
"b8b8b8b8b8b8b8b8b8b8b8b8b8b8b8b8b8b8b8b8b8b8b8b8b8b8b8b8b8b8b8b8b8b8b8b8b8b8b8b8b8b8b8b8b8b8b8b8"
};
