/* XPM */
static const char *xpmWorkspace32x32[] = {
/* width height num_colors chars_per_pixel */
"    32    32      128            2",
/* colors */
".. c #6274d6",
".# c #7d85b4",
".a c #9499b7",
".b c #9ca2c5",
".c c #b8c6e9",
".d c #ffffff",
".e c #96a8eb",
".f c #848586",
".g c #949497",
".h c #a4a4a4",
".i c #707175",
".j c #e3e4e9",
".k c #959dc3",
".l c #878eb6",
".m c #4e537a",
".n c #dddee2",
".o c #f9f9fa",
".p c #5966b1",
".q c #7c7d86",
".r c #a9b8ee",
".s c #8799e9",
".t c #a7b3d8",
".u c #5b6cce",
".v c #000000",
".w c #d9dade",
".x c #4755ac",
".y c #edecf4",
".z c #a2aed9",
".A c #e3e3e4",
".B c #ececee",
".C c #3c4590",
".D c #9e9ea3",
".E c #bbc5da",
".F c #c4c4c5",
".G c #788be5",
".H c #b9bed6",
".I c #acacaf",
".J c #a1accf",
".K c #313134",
".L c #8f98c4",
".M c #8a8b93",
".N c #6c73a5",
".O c #c9c9c9",
".P c #d3d3db",
".Q c #f6f6f6",
".R c #bebebf",
".S c #6f80ce",
".T c #afb3c2",
".U c #0a0a0a",
".V c #6c78b9",
".W c #9195b4",
".X c #636aa4",
".Y c #cdced0",
".Z c #a8aecc",
".0 c #8286ae",
".1 c #c8cae0",
".2 c #a2a5c3",
".3 c #7579a0",
".4 c #bcbdcc",
".5 c #454a81",
".6 c #939ed4",
".7 c #444c97",
".8 c #d3d3d5",
".9 c #f2f2f3",
"#. c #c3c7de",
"## c #303a88",
"#a c #b4b6c4",
"#b c #d7d8e4",
"#c c #262c74",
"#d c #b6bad1",
"#e c #0d0f42",
"#f c #fdfdfd",
"#g c #caccd7",
"#h c #a6aac2",
"#i c #34387e",
"#j c #787fb1",
"#k c #dfe0e9",
"#l c #c1c3cf",
"#m c #51599d",
"#n c #2c317d",
"#o c #797da6",
"#p c #4d549a",
"#q c #b5b5b6",
"#r c #767caa",
"#s c #aaacc6",
"#t c #b6b6bb",
"#u c #5e649c",
"#v c #777a97",
"#w c #646997",
"#x c #e7e7ec",
"#y c #a3a4b1",
"#z c #a2a6bd",
"#A c #cdcfdf",
"#B c #17182d",
"#C c #212669",
"#D c #f0f0f5",
"#E c #1c2062",
"#F c #b9bbc5",
"#G c #b5b8c6",
"#H c #7177a3",
"#I c #8d91ae",
"#J c #1a1b6f",
"#K c #8495dd",
"#L c #818dc8",
"#M c #b0b6d1",
"#N c #a8aab8",
"#O c #2c3162",
"#P c #151517",
"#Q c #00ff00",
"#R c #5f606c",
"#S c #4f515a",
"#T c #b1bdda",
"#U c #7179ae",
"#V c #7b80a8",
"#W c #1d204b",
"#X c #383c6f",
"#Y c #6a7ddc",
"#Z c #c7c8dc",
"#0 c #616dbb",
"#1 c #d2d8dd",
"#2 c #fbfbfb",
"#3 c #a7a9bc",
"#4 c #a0a8c9",
"#5 c #3d4264",
"#6 c #b7bac9",
"#7 c #b0b2ce",
"#8 c #72758b",
"#9 c none",
/* pixels */
"#9#9#9#9#9#9#9#9#9#9#9#9#9#9#9#9#9#9#9#9#9#9#9#9#9#9#9#9#9#9#9#9",
"#9.v.v.v.v.v.v.v.v.v.v.v.v.v.v.v.v.v.v.v.v.v.v.v.v.v.v.v.v.v#9#9",
"#9.v#Q#Q#Q#Q#Q#Q.v#Q#Q#Q#Q#Q#Q.v#Q#Q#Q#Q#Q#Q.v#Q#Q#Q#Q#Q#Q.v#9#9",
"#9.v#Q#Q#Q#Q#Q#Q.v#Q#Q#Q#Q#Q#Q.v#Q#Q#Q#Q#Q#Q.v#Q#Q#Q#Q#Q#Q.v#9#9",
"#9.v#Q#Q#Q#Q#Q#Q.v#Q#Q#Q#Q#Q#Q.v#Q#Q#Q#Q#Q#Q.v#Q#Q#Q#Q#Q#Q.v#9#9",
"#9.v#Q#Q#Q#Q#Q#Q.v#Q#Q#Q#Q#Q#Q.v#Q#Q#Q#Q#Q#Q.v#Q#Q#Q#Q#Q#Q.v#9#9",
"#9.v.v.v.v.v.v.v.v.v.v.v.v.v.v.v.v.v.v.v.v.v.v.v.v.v.v.v.v.v#9#9",
"#9.v.d.d.d.d.d.d.v.d.d.d.d.d.d.v.d.d.d.d.d.d.v.d.d.d.d.d.d.v#9#9",
"#9.v.d.d.d.d.d.d.v.d.d.d.d.d.d.v.d.d.d.d.d.d.v.d.d.d.d.d.d.v#9#9",
"#9.v.d.d.d.d.Q.Q.U.d.d.d.d.d.d.v.d.d.d.d.d.d.v.d.d.d.d.d.d.v#9#9",
"#9.v.d.d.o.Y.4#l.D#k.d.d#2.9.B.v#2.d.d.d.d.d.v.d.d.d.d.d.d.v#9#9",
"#9.v.v.U.g.I#h.a#j#o.a.K.v.U.K#R.K.U.v.v.v.v.v.v.v.v.v.v.v.v#9#9",
"#9.v.d#t.D#l.w.n#F.J.0#s.I.I#a#G#3.W#y.n.Q#2.v.d.d.d.d.d.d.v#9#9",
"#9.v.A.f.I.w.d.d.U#F.a.4#y#N#b.B.j#l#z.3#N.8#P.Q#f.d.d.d.d.v#9#9",
"#9.v.R.q.F.9#f.B.v.M#t.w.P#a#G#6.n.j.4#V#u#w#5#z#g#x.o.d.d.v#9#9",
"#9.v.I.f.8.d.9.F.K.n.d.Q.9.j#g#I#I.a.a.l.0#o#w.N#H#V#z.n#f.v#9#9",
"#9.U.i.f#q.v.v.U.M.P.w.j.j#s.0.3#o.0.W.b.b.k.l.l.l#r.5#e#B.v#9#9",
"#9.U.D.f.Y.Q.O.f.w.P#A.T.a#o.3#H#V.a.2.2.Z#M#7#s.2.b.a.l.##B#9#9",
"#9.v.O.g.Y.A.8.M.F.j#x.n#s#V#o#H#V.W.2#4.Z#d.H.H#M.J.J.k.L#u#9#9",
"#9.v.9.g#t.w.A#q.K.w.B#D#x.a#H.N#H.l.b#4#7#d.H.E#T.t.t.z.6#L.W#9",
"#9.v.d.F.D#k.n.A.v.g#k#x.y#Z.0.N.N.0.L.b.Z#M.E#..c.c.r.r.e#K#U#9",
"#9.v.v#P.g#d.F.U.v.v.M#b#k#k.b.X.X#r.l.k#4.t.c.c.c.c.r.e.e#K#0#a",
"#9.v.d.d.F#I#..j.v.F.f#a#A#b.H.N#m#u#j.L#4#4.z.t.r.r.e.e.s.G..#z",
"#9.v.d.d.Q#N.##1.U.B#q.f#d.1#A.l.C.7.X.#.L.L.6.6.e.e.s.s.G#Y...J",
"#9.v.d.d.d.P#u.Z#R#2.A.D.M.H.1.k###n.7#u#U.##L#L#K.s.G.G#Y...u.W",
"#9.v.d.d.d#f.T.X.Z.o.Q.O.q#h.H.Z#m#J#n.C#p.X.V.V.S.S#Y.....x#c#y",
"#9.v.v.v.v.v#S#w.b#8.v.v.v#R.Z#4#U#n#J#c#i.C#m.p#0.u...u.C#e.M#9",
"#9#9#9#9#9#9#9.0.l#.#9#9.R.q.b.k.##m#c#E#C#c#i.C.7.x.x#n#e.q#9#9",
"#9#9#9.h.M#9#9.k.L#.#9#9#9.I#8.l#L.V#m#n#C#E#C#c#c#c#C#W.q#9#9#9",
"#9#9#9.i#S.M#F#U.6#.#9#9#9#9.I#8.N.V.V#m.C#n#C#E#E#E#O#t#9#9#9#9",
"#9#9#9#q.i.m#i.5.z#9#9#9#9#9#9.R.q.5#p.p.x.7.C###c#O#F#9#9#9#9#9",
"#9#9#9#9.8#y.W#4#9#9#9#9#9#9#9#9#9#q#8.m#X#X.5.m#v.8#9#9#9#9#9#9"
};
