/* XPM */
static char *ZoomOut_xpm[]={
"48 48 256 2",
"Qt c None",
".2 c #000000",
"b9 c #006800",
"b6 c #008600",
"bp c #00a200",
"bf c #00a700",
"b1 c #00a800",
"bK c #00ab00",
"a7 c #00b200",
"b2 c #00b400",
"bX c #00b600",
"bD c #00b800",
"bh c #00ba00",
"aX c #00bd00",
"bY c #00be00",
"bE c #00bf00",
"a8 c #00c000",
"bi c #00c300",
"bq c #00c500",
"bL c #00c600",
"a9 c #00c800",
"aZ c #00cc00",
"aY c #00cf00",
"b7 c #00d000",
"bz c #00d200",
"b8 c #00e600",
"aL c #00e800",
"a5 c #014001",
"bS c #015001",
"bv c #015501",
"bn c #015b01",
"bd c #016201",
"be c #018a01",
"bw c #018e01",
"bW c #019101",
"aW c #019601",
"bo c #019901",
"a6 c #019d01",
"bx c #01ae01",
"bg c #01b001",
"by c #01bf01",
"bF c #01d501",
"bT c #01d601",
"aM c #01d801",
"b. c #02d402",
"b3 c #02ee02",
"ac c #030808",
"b# c #03e003",
"aN c #03e903",
"bM c #04e304",
"#r c #051414",
"b5 c #058205",
"br c #05df05",
"bG c #05e605",
"#f c #061818",
"ak c #071e1e",
"bA c #07ed07",
"a0 c #08ea08",
"aD c #08ec07",
"bZ c #08f208",
"aH c #092525",
"bj c #09e709",
"b4 c #09ff09",
"aK c #0a2e2e",
"at c #0d3737",
"ai c #0d3838",
"bH c #0def0d",
".9 c #0e3e3e",
"b0 c #0e7a0e",
"a1 c #0ef40e",
"aC c #114b4b",
"bs c #11fb11",
"bU c #12fb12",
"aE c #12ff12",
"ax c #135353",
"ap c #145656",
"au c #147814",
"a4 c #155a5a",
"aO c #15ff15",
"ba c #16ff16",
"ab c #176262",
"bk c #17ff17",
"#l c #186565",
"aq c #196a6a",
"#L c #196c6c",
"bm c #199f19",
"aR c #1a6f6f",
"aA c #1abb1b",
"ay c #1af216",
"bN c #1aff1a",
"bC c #1ba21b",
"bc c #1ba51b",
"bO c #1ba91b",
".1 c #1c5f5f",
"aV c #1c7777",
"aJ c #1c7a7a",
"bQ c #1ca51c",
"bJ c #1da31d",
"bV c #1de81d",
"aF c #1df31e",
"aQ c #1ead1e",
"bP c #1efd1e",
"#7 c #1f1f1f",
"as c #1f8787",
"a3 c #1fab1f",
"a2 c #1ff61f",
"#6 c #208989",
"#Q c #208c8c",
"bB c #21fd21",
"bl c #21ff21",
"aj c #229494",
".V c #232323",
"aU c #239999",
"bR c #23bd23",
"bb c #23f023",
"bt c #23f523",
"az c #23ff21",
"bI c #23ff23",
"#V c #249b9b",
"aG c #24c425",
"aB c #259e9e",
"#2 c #25a1a1",
"#e c #26a6a6",
"bu c #26cc26",
"aP c #27ff27",
"#q c #28acac",
"av c #28b0b0",
"ah c #29b0b0",
"aw c #29b1b1",
"aS c #2ab6b6",
"ao c #2bbbbb",
"ad c #2c9b9b",
"aT c #2ec7c7",
"aa c #2fc9c9",
"al c #2fcdcd",
"#G c #30cece",
"#F c #30cfcf",
".8 c #30d1d1",
"#E c #31d3d3",
"aI c #31d4d4",
"#v c #32d8d8",
"#5 c #32dada",
"#3 c #333333",
"#D c #33dddd",
"#T c #33dede",
"#1 c #34e2e2",
"#K c #35e3e3",
"#U c #35e5e5",
"#H c #35e7e7",
"#O c #36e8e8",
"#C c #36e9e9",
"ag c #37ecec",
"ar c #37eded",
"an c #37efef",
"#I c #38f2f2",
"#B c #39f5f5",
"a# c #39f6f6",
"#k c #39f7f7",
"#Y c #39f8f8",
"#p c #3af9f9",
"#P c #3afafa",
"#J c #3afbfb",
"am c #3afcfc",
"#A c #3bfdfd",
"#d c #3bfefe",
".O c #3bffff",
".G c #3c4c4c",
"#c c #3cffff",
"#W c #3d3d3d",
".N c #3dffff",
".U c #3e6a6a",
".P c #3effff",
"#0 c #40ffff",
"#j c #42ffff",
"#8 c #43cdcd",
".M c #43ffff",
".Q c #44ffff",
"#R c #464646",
".7 c #46ffff",
".Z c #47ffff",
"#z c #49ffff",
"#Z c #4affff",
".r c #4c4c4c",
".0 c #4cd7d7",
".L c #4cffff",
".R c #4dffff",
"#b c #4effff",
".6 c #51ffff",
".T c #53c2c2",
"#u c #53ffff",
".F c #559999",
".S c #55ffff",
"ae c #56ffff",
"#M c #585858",
"#9 c #58ffff",
"#4 c #59eded",
".K c #5affff",
"af c #5bffff",
".A c #5cffff",
".z c #5dffff",
".B c #5effff",
".q c #606f6f",
".y c #61ffff",
"#X c #64fdfd",
".C c #66ffff",
"#S c #68eeee",
"#o c #68ffff",
"#w c #696969",
".E c #6adcdc",
".f c #6b6b6b",
"#y c #6bffff",
".p c #6c9999",
".x c #6cffff",
".5 c #6fffff",
"#N c #71d9d9",
".D c #71ffff",
".o c #73bdbd",
"#a c #75ffff",
"#m c #788484",
"#t c #78ffff",
".e c #797979",
"#s c #79a2a2",
"#x c #79c0c0",
"a. c #79ffff",
".w c #7cffff",
".n c #7edcdc",
"#g c #828282",
"#n c #83e2e2",
"#i c #83ffff",
".d c #858585",
".c c #8b8b8b",
"#h c #8dbbbb",
".4 c #8de6e6",
".l c #8df3f3",
".m c #8efefe",
".J c #8effff",
".v c #8fffff",
".b c #909090",
"## c #90d8d8",
"#. c #919a9a",
".3 c #94acac",
".Y c #95e8e8",
".W c #989898",
".k c #98e3e3",
".a c #9a9a9a",
".u c #9ce8e8",
".X c #9eb9b9",
".j c #a0d2d2",
".I c #a0dddd",
".# c #a2a2a2",
".t c #a5c9c9",
".H c #a6a6a6",
".h c #a6adad",
".i c #a6bebe",
".g c #a8a8a8",
".s c #a8afaf",
"QtQtQtQtQtQtQtQtQtQtQtQtQtQtQtQtQtQtQtQtQtQtQtQtQtQtQtQtQtQtQtQtQtQtQtQtQtQtQtQtQtQtQtQtQtQtQtQt",
"QtQtQtQtQtQtQtQtQtQtQtQtQtQtQtQtQtQtQtQtQtQtQtQtQtQtQtQtQtQtQtQtQtQtQtQtQtQtQtQtQtQtQtQtQtQtQtQt",
"QtQtQtQtQtQtQtQtQtQtQtQtQtQtQtQtQtQtQtQtQtQtQtQtQtQtQtQtQtQtQtQtQtQtQtQtQtQtQtQtQtQtQtQtQtQtQtQt",
"QtQtQtQtQtQtQtQtQtQtQtQtQtQtQtQtQtQtQtQtQtQtQtQtQtQtQtQtQtQtQtQtQtQtQtQtQtQtQtQtQtQtQtQtQtQtQtQt",
"QtQtQtQtQtQtQtQtQtQtQtQtQtQt.#.a.b.c.d.e.fQtQtQtQtQtQtQtQtQtQtQtQtQtQtQtQtQtQtQtQtQtQtQtQtQtQtQt",
"QtQtQtQtQtQtQtQtQtQtQt.g.h.i.j.k.l.m.l.n.o.p.q.rQtQtQtQtQtQtQtQtQtQtQtQtQtQtQtQtQtQtQtQtQtQtQtQt",
"QtQtQtQtQtQtQtQtQtQt.s.t.u.v.w.x.y.z.A.B.C.D.E.F.GQtQtQtQtQtQtQtQtQtQtQtQtQtQtQtQtQtQtQtQtQtQtQt",
"QtQtQtQtQtQtQtQt.H.i.I.J.D.K.L.M.N.O.O.P.Q.R.S.A.T.U.VQtQtQtQtQtQtQtQtQtQtQtQtQtQtQtQtQtQtQtQtQt",
"QtQtQtQtQtQtQt.W.X.Y.w.A.Z.N.O.O.O.O.O.O.O.O.P.Z.S.0.1.2QtQtQtQtQtQtQtQtQtQtQtQtQtQtQtQtQtQtQtQt",
"QtQtQtQtQtQtQt.3.4.5.6.M.N.O.O.O.O.O.O.O.O.O.O.P.Q.7.8.9QtQtQtQtQtQtQtQtQtQtQtQtQtQtQtQtQtQtQtQt",
"QtQtQtQtQtQt#.###a#b.N.O.O.O.O.O.O.O.O.O.O.O.O.O.O#c#d#e#fQtQtQtQtQtQtQtQtQtQtQtQtQtQtQtQtQtQtQt",
"QtQtQtQtQt#g#h#i.K#j.O.O.O.O.O.O.O.O.O.O.O.O.O.O.O#c.P#k#l.2QtQtQtQtQtQtQtQtQtQtQtQtQtQtQtQtQtQt",
"QtQtQtQtQt#m#n#o.Z.N.O.O.O.O.O.O.O.O.O.O.O.O.O.O.O.O.P#p#q#rQtQtQtQtQtQtQtQtQtQtQtQtQtQtQtQtQtQt",
"QtQtQtQtQt#s#t#u.N.O.O.O.O.O.O.O.O.O.O.O.O.O.O.O.O.O.O#p#v.9QtQtQtQtQtQtQtQtQtQtQtQtQtQtQtQtQtQt",
"QtQtQtQt#w#x#y#z.O#A#B#C#D#E#F#G#G#G#G.8#v#H#I#J#d.O.O#d#K#L.2QtQtQtQtQtQtQtQtQtQtQtQtQtQtQtQtQt",
"QtQtQtQt#M#N.B#j.O#p#O.2.2.2.2.2.2.2.2.2.2.2.2#P.O.O.O#c#O#Q.2QtQtQtQtQtQtQtQtQtQtQtQtQtQtQtQtQt",
"QtQtQtQt#R#S#u.N.O#B#T.2.2.2.2.2.2.2.2.2.2.2.2.N.N.O.O.O#U#V.2QtQtQtQtQtQtQtQtQtQtQtQtQtQtQtQtQt",
"QtQtQtQt#W#X.R.O.O#Y#C.2.2.2.2.2.2.2.2.2.2.2.2#Z#0.O.O.O#1#2.2QtQtQtQtQtQtQtQtQtQtQtQtQtQtQtQtQt",
"QtQtQtQt#3#4#Z#d.O#A#P.2.2.2.2.2.2.2.2.2.2.2.2#u#j.O.O#A#5#6.2QtQtQtQtQtQtQtQtQtQtQtQtQtQtQtQtQt",
"QtQtQtQt#7#8.7#d.O.O.P#z#9#y#aa.a.a.a.a.#t.5.B.L#0.O.Oa#aaab.2QtQtQtQtQtQtQtQtQtQtQtQtQtQtQtQtQt",
"QtQtQtQtacad.Q#c.O.O.P.Q.Raeaf.z.z.z.z.Aaf.S.L.M.N.O.Oagahai.2QtQtQtQtQtQtQtQtQtQtQtQtQtQtQtQtQt",
"QtQtQtQtQt.1.M.N#d.O.O.O.O.O.O.O.O.O.O.O.O.O.O.O.O.O#A#Daj#fQtQtQtQtQtQtQtQtQtQtQtQtQtQtQtQtQtQt",
"QtQtQtQtQtakalam#J#d.O.O.O.O.O.O.O.O.O.O.O.O.O.O.O#AanaoapacQtQtQtQtQtQtQtQtQtQtQtQtQtQtQtQtQtQt",
"QtQtQtQtQt.2aqar#Y#d.O.O.O.O.O.O.O.O.O.O.O.O.O.O.Oa##Easak.2QtQtQtQtQtQtQtQtQtQtQtQtQtQtQtQtQtQt",
"QtQtQtQtQtQt#r#V#I#A#d.O.O.O.O.O.O.O.O.O.O.O.O.O#A#U#eatacau.2QtQtQtQtQtQtQtQtQtQtQtQtQtQtQtQtQt",
"QtQtQtQtQtQtQtaiav#H#I#J#d.O.O.O.O.O.O.O.O.O#A#B#1awax#rayazaA.2QtQtQtQtQtQtQtQtQtQtQtQtQtQtQtQt",
"QtQtQtQtQtQtQt.2aiaj#Fag#J#d.O.O.O.O.O.O.O#Aan.8aBaC#r.2aDaEaFaG.2QtQtQtQtQtQtQtQtQtQtQtQtQtQtQt",
"QtQtQtQtQtQtQtQt.2aHaqaoaI#U#I#J#d.O#A#B#CaIahaJaK#r.2aLaMaNaOaPaQ.2QtQtQtQtQtQtQtQtQtQtQtQtQtQt",
"QtQtQtQtQtQtQtQtQtQtacaiaRaBaSaTal#GaTaSaUaV.9akacaWaXaYaZaMa0a1a2a3.2QtQtQtQtQtQtQtQtQtQtQtQtQt",
"QtQtQtQtQtQtQtQtQtQtQt.2acak.9ap#laqa4.9aH#fac.2a5a6a7aXa8a9b.b#babbbc.2QtQtQtQtQtQtQtQtQtQtQtQt",
"QtQtQtQtQtQtQtQtQtQtQtQtQtQt.2.2.2.2.2.2.2QtQtQt.2bdbebfbgbhbiaZbjbkblbm.2QtQtQtQtQtQtQtQtQtQtQt",
"QtQtQtQtQtQtQtQtQtQtQtQtQtQtQtQtQtQtQtQtQtQtQtQtQt.2bnbobpa7a8bqaZbrbsbtbu.2QtQtQtQtQtQtQtQtQtQt",
"QtQtQtQtQtQtQtQtQtQtQtQtQtQtQtQtQtQtQtQtQtQtQtQtQtQt.2bvbwbxbya8bibzbAbkbBbC.2QtQtQtQtQtQtQtQtQt",
"QtQtQtQtQtQtQtQtQtQtQtQtQtQtQtQtQtQtQtQtQtQtQtQtQtQtQt.2bnbwa7bDbEa9bFbGbHbIbJ.2QtQtQtQtQtQtQtQt",
"QtQtQtQtQtQtQtQtQtQtQtQtQtQtQtQtQtQtQtQtQtQtQtQtQtQtQtQt.2bvbobKbDa8bLbzbMbNbbbO.2QtQtQtQtQtQtQt",
"QtQtQtQtQtQtQtQtQtQtQtQtQtQtQtQtQtQtQtQtQtQtQtQtQtQtQtQtQt.2bvbwbKa7bhbqbzbjbabPbQ.2QtQtQtQtQtQt",
"QtQtQtQtQtQtQtQtQtQtQtQtQtQtQtQtQtQtQtQtQtQtQtQtQtQtQtQtQtQt.2bdbebpa7bEbqa9bMaEaPbR.2QtQtQtQtQt",
"QtQtQtQtQtQtQtQtQtQtQtQtQtQtQtQtQtQtQtQtQtQtQtQtQtQtQtQtQtQtQt.2bSaWbxbya8bqbTa0bUbVaQ.2QtQtQtQt",
"QtQtQtQtQtQtQtQtQtQtQtQtQtQtQtQtQtQtQtQtQtQtQtQtQtQtQtQtQtQtQtQt.2bvbebgbhbEa9bzb#bsaPau.2QtQtQt",
"QtQtQtQtQtQtQtQtQtQtQtQtQtQtQtQtQtQtQtQtQtQtQtQtQtQtQtQtQtQtQtQtQt.2bvbWbxbXbYbqbzbZbNb0.2QtQtQt",
"QtQtQtQtQtQtQtQtQtQtQtQtQtQtQtQtQtQtQtQtQtQtQtQtQtQtQtQtQtQtQtQtQtQt.2bvbob1b2aXbib3b4b5.2QtQtQt",
"QtQtQtQtQtQtQtQtQtQtQtQtQtQtQtQtQtQtQtQtQtQtQtQtQtQtQtQtQtQtQtQtQtQtQt.2bdb6b1aXb7bzbh.2QtQtQtQt",
"QtQtQtQtQtQtQtQtQtQtQtQtQtQtQtQtQtQtQtQtQtQtQtQtQtQtQtQtQtQtQtQtQtQtQtQt.2bdbobhb8bf.2QtQtQtQtQt",
"QtQtQtQtQtQtQtQtQtQtQtQtQtQtQtQtQtQtQtQtQtQtQtQtQtQtQtQtQtQtQtQtQtQtQtQtQt.2a5bSb9.2QtQtQtQtQtQt",
"QtQtQtQtQtQtQtQtQtQtQtQtQtQtQtQtQtQtQtQtQtQtQtQtQtQtQtQtQtQtQtQtQtQtQtQtQtQt.2.2.2QtQtQtQtQtQtQt",
"QtQtQtQtQtQtQtQtQtQtQtQtQtQtQtQtQtQtQtQtQtQtQtQtQtQtQtQtQtQtQtQtQtQtQtQtQtQtQtQtQtQtQtQtQtQtQtQt",
"QtQtQtQtQtQtQtQtQtQtQtQtQtQtQtQtQtQtQtQtQtQtQtQtQtQtQtQtQtQtQtQtQtQtQtQtQtQtQtQtQtQtQtQtQtQtQtQt",
"QtQtQtQtQtQtQtQtQtQtQtQtQtQtQtQtQtQtQtQtQtQtQtQtQtQtQtQtQtQtQtQtQtQtQtQtQtQtQtQtQtQtQtQtQtQtQtQt"};
