/* XPM */
static char *ZoomIn_xpm[]={
"48 48 256 2",
"Qt c None",
".2 c #000000",
"b9 c #006800",
"b6 c #008600",
"bs c #00a200",
"bi c #00a700",
"b2 c #00a800",
"bM c #00ab00",
"b. c #00b200",
"bY c #00b500",
"bG c #00b800",
"bk c #00ba00",
"a1 c #00bd00",
"bZ c #00be00",
"bH c #00bf00",
"b# c #00c000",
"bl c #00c300",
"bt c #00c500",
"bN c #00c600",
"ba c #00c800",
"a3 c #00cc00",
"a2 c #00cf00",
"b7 c #00d000",
"bC c #00d200",
"b8 c #00e600",
"aP c #00e800",
"a8 c #014001",
"bU c #015001",
"by c #015501",
"bq c #015b01",
"bg c #016201",
"bh c #018a01",
"bz c #018e01",
"bX c #019101",
"a0 c #019601",
"br c #019901",
"a9 c #019d01",
"bA c #01ae01",
"bj c #01b001",
"bB c #01bf01",
"bb c #01d501",
"aQ c #01d801",
"b3 c #02ee02",
"aj c #030808",
"bc c #03e003",
"aR c #03e903",
"bO c #04e304",
"#D c #051414",
"b5 c #058205",
"bu c #05df05",
"bI c #05e605",
"#p c #061818",
"ar c #071e1e",
"bD c #07ed07",
"a4 c #08ea08",
"aH c #08ec07",
"b0 c #08f208",
"aL c #092525",
"bm c #09e709",
"b4 c #09ff09",
"aO c #0a2e2e",
"ay c #0d3737",
"an c #0d3838",
"bJ c #0def0d",
"#d c #0e3e3e",
"b1 c #0e7a0e",
"a5 c #0ef40e",
"#I c #0f4141",
"aG c #114b4b",
"bv c #11fb11",
"bV c #12fb12",
"aI c #12ff12",
"au c #145656",
"az c #147814",
"aS c #15ff15",
"bd c #16ff16",
"ai c #176262",
"bn c #17ff17",
"#v c #186565",
"ao c #196060",
"#W c #196a6a",
"bp c #199f19",
"aV c #1a6e6e",
"aE c #1abb1b",
"aC c #1af216",
"bP c #1aff1a",
"bF c #1ba21b",
"bf c #1ba51b",
"bQ c #1ba91b",
"aN c #1c7979",
"bS c #1ca51c",
"bL c #1da31d",
"bW c #1de81d",
"aJ c #1df31e",
"aU c #1ead1e",
"bR c #1efd1e",
"ac c #1f1f1f",
".1 c #1f5d5d",
"aw c #1f8787",
"a7 c #1fab1f",
"a6 c #1ff61f",
"ab c #208989",
"#Z c #208c8c",
"bE c #21fd21",
"bo c #21ff21",
"aq c #229494",
".W c #232323",
"aZ c #239999",
"bT c #23bd23",
"be c #23f023",
"bw c #23f523",
"aD c #23ff21",
"bK c #23ff23",
"#4 c #249b9b",
"aK c #24c425",
"aF c #259e9e",
"#9 c #25a1a1",
"#o c #26a6a6",
"bx c #26cc26",
"aT c #27ff27",
"#C c #28acac",
"aA c #28b0b0",
"am c #29b0b0",
"aB c #29b1b1",
"#Q c #2ab4b4",
"aW c #2ab6b6",
"at c #2bbbbb",
"ak c #2c9b9b",
"aX c #2ec7c7",
"ah c #2fc9c9",
"as c #2fcdcd",
"aY c #30cece",
"#c c #30d0d0",
"#P c #31d3d3",
"aM c #31d4d4",
"#k c #32d7d7",
"#l c #32d9d9",
"aa c #32dada",
"a. c #333333",
"#O c #33dddd",
"#2 c #33dede",
"#H c #34e1e1",
"#8 c #34e2e2",
"#V c #35e3e3",
"#z c #35e4e4",
"#3 c #35e5e5",
"#m c #35e6e6",
"#j c #35e7e7",
"#Y c #36e8e8",
"#N c #36e9e9",
"#u c #37ecec",
"av c #37eded",
"#S c #37efef",
"#T c #38f2f2",
".9 c #38f3f3",
"#M c #39f5f5",
"#i c #39f6f6",
"#. c #39f7f7",
".8 c #39f8f8",
"#B c #3af9f9",
"#R c #3afafa",
"#U c #3afbfb",
"## c #3afcfc",
".7 c #3bfdfd",
"#a c #3bfefe",
".O c #3bffff",
".F c #3c4c4c",
"#n c #3cffff",
"#5 c #3d3d3d",
".N c #3dffff",
".V c #3e6a6a",
".P c #3effff",
"#A c #40ffff",
"ax c #41ffff",
"#t c #42ffff",
"ad c #43cdcd",
".M c #43ffff",
".Q c #44ffff",
"#0 c #464646",
"#b c #46ffff",
".Z c #47ffff",
"#L c #49ffff",
"#7 c #4affff",
".s c #4c4c4c",
".0 c #4cd7d7",
".L c #4cffff",
".R c #4dffff",
"#h c #4effff",
".6 c #51ffff",
".U c #53c2c2",
"#G c #53ffff",
".E c #559999",
".S c #55ffff",
"al c #56ffff",
"#X c #585858",
"ae c #58ffff",
"a# c #59eded",
".K c #5affff",
".T c #5cffff",
".z c #5dffff",
".A c #5effff",
".r c #606f6f",
".y c #61ffff",
"#6 c #64fdfd",
"ap c #65ffff",
".B c #66ffff",
"#1 c #68eeee",
"#y c #68ffff",
".f c #6a6a6a",
"#K c #6bffff",
".q c #6c9999",
".x c #6cffff",
".D c #6edbdb",
".5 c #6fffff",
".C c #71ffff",
".p c #73bdbd",
"#g c #75ffff",
"#w c #788484",
"#F c #78ffff",
".e c #797979",
"#E c #79a2a2",
"#J c #79c0c0",
".w c #7cffff",
".o c #7edcdc",
"#q c #828282",
"#x c #83e2e2",
"#s c #83ffff",
".d c #858585",
"ag c #85ffff",
".n c #88f2f2",
".c c #8b8b8b",
"#r c #8dbbbb",
".4 c #8de6e6",
".m c #8efefe",
".J c #8effff",
".v c #8fffff",
".b c #909090",
"#f c #90d8d8",
"af c #90ffff",
"#e c #919a9a",
".l c #91f3f3",
".Y c #95e8e8",
".X c #989898",
".k c #98e3e3",
".a c #9a9a9a",
".u c #9ce8e8",
".3 c #9dadad",
".j c #a0d2d2",
".I c #a0dddd",
".# c #a2a2a2",
".H c #a3baba",
".i c #a4c0c0",
".t c #a5c9c9",
".G c #a6a6a6",
".g c #a8a8a8",
".h c #a8afaf",
"QtQtQtQtQtQtQtQtQtQtQtQtQtQtQtQtQtQtQtQtQtQtQtQtQtQtQtQtQtQtQtQtQtQtQtQtQtQtQtQtQtQtQtQtQtQtQtQt",
"QtQtQtQtQtQtQtQtQtQtQtQtQtQtQtQtQtQtQtQtQtQtQtQtQtQtQtQtQtQtQtQtQtQtQtQtQtQtQtQtQtQtQtQtQtQtQtQt",
"QtQtQtQtQtQtQtQtQtQtQtQtQtQtQtQtQtQtQtQtQtQtQtQtQtQtQtQtQtQtQtQtQtQtQtQtQtQtQtQtQtQtQtQtQtQtQtQt",
"QtQtQtQtQtQtQtQtQtQtQtQtQtQtQtQtQtQtQtQtQtQtQtQtQtQtQtQtQtQtQtQtQtQtQtQtQtQtQtQtQtQtQtQtQtQtQtQt",
"QtQtQtQtQtQtQtQtQtQtQtQtQtQt.#.a.b.c.d.e.fQtQtQtQtQtQtQtQtQtQtQtQtQtQtQtQtQtQtQtQtQtQtQtQtQtQtQt",
"QtQtQtQtQtQtQtQtQtQtQt.g.h.i.j.k.l.m.n.o.p.q.r.sQtQtQtQtQtQtQtQtQtQtQtQtQtQtQtQtQtQtQtQtQtQtQtQt",
"QtQtQtQtQtQtQtQtQtQt.h.t.u.v.w.x.y.z.z.A.B.C.D.E.FQtQtQtQtQtQtQtQtQtQtQtQtQtQtQtQtQtQtQtQtQtQtQt",
"QtQtQtQtQtQtQtQt.G.H.I.J.C.K.L.M.N.O.O.P.Q.R.S.T.U.V.WQtQtQtQtQtQtQtQtQtQtQtQtQtQtQtQtQtQtQtQtQt",
"QtQtQtQtQtQtQt.X.H.Y.w.T.Z.N.O.O.O.O.O.O.O.O.P.Z.S.0.1.2QtQtQtQtQtQtQtQtQtQtQtQtQtQtQtQtQtQtQtQt",
"QtQtQtQtQtQtQt.3.4.5.6.M.N.O.7.8.9.9#.###a.O.O.P.Q#b#c#dQtQtQtQtQtQtQtQtQtQtQtQtQtQtQtQtQtQtQtQt",
"QtQtQtQtQtQt#e#f#g#h.N.O.O.O#i#j#k#l#m.8#a.O.O.O.O#n#a#o#pQtQtQtQtQtQtQtQtQtQtQtQtQtQtQtQtQtQtQt",
"QtQtQtQtQt#q#r#s.K#t.O.O.O.O#u.2.2.2.2#.#n.O.O.O.O#n.P#.#v.2QtQtQtQtQtQtQtQtQtQtQtQtQtQtQtQtQtQt",
"QtQtQtQtQt#w#x#y.Z.N.O.O.O.O#z.2.2.2.2.N#A.O.O.O.O.O.P#B#C#DQtQtQtQtQtQtQtQtQtQtQtQtQtQtQtQtQtQt",
"QtQtQtQtQt#E#F#G.N.O.O.O.O.O#H.2.2.2.2.L.Z.O.O.O.O.O.O#B#l#IQtQtQtQtQtQtQtQtQtQtQtQtQtQtQtQtQtQt",
"QtQtQtQt.f#J#K#L.O.7#M#N#O#P#Q.2.2.2.2#R#S#m#T#U#a.O.O#a#V#W.2QtQtQtQtQtQtQtQtQtQtQtQtQtQtQtQtQt",
"QtQtQtQt#X.D.A#t.O#B#Y.2.2.2.2.2.2.2.2.2.2.2.2#R.O.O.O#n#Y#Z.2QtQtQtQtQtQtQtQtQtQtQtQtQtQtQtQtQt",
"QtQtQtQt#0#1#G.N.O#M#2.2.2.2.2.2.2.2.2.2.2.2.2.N.N.O.O.O#3#4.2QtQtQtQtQtQtQtQtQtQtQtQtQtQtQtQtQt",
"QtQtQtQt#5#6.R.O.O.8#N.2.2.2.2.2.2.2.2.2.2.2.2#7#A.O.O.O#8#9.2QtQtQtQtQtQtQtQtQtQtQtQtQtQtQtQtQt",
"QtQtQtQta.a##7#a.O.7#R.2.2.2.2.2.2.2.2.2.2.2.2#G#t.O.O.7aaab.2QtQtQtQtQtQtQtQtQtQtQtQtQtQtQtQtQt",
"QtQtQtQtacad#b#a.O.O.P#Lae#K.y.2.2.2.2afag.5.A.L#A.O.O#iahai.2QtQtQtQtQtQtQtQtQtQtQtQtQtQtQtQtQt",
"QtQtQtQtajak.Q#n.O.O.P.Q.Ral#7.2.2.2.2.w.x.S.L.M.N.O.O#uaman.2QtQtQtQtQtQtQtQtQtQtQtQtQtQtQtQtQt",
"QtQtQtQtQtao.M.N#a.O.O.O.O.O#i.2.2.2.2ap#h.O.O.O.O.O.7#Oaq#pQtQtQtQtQtQtQtQtQtQtQtQtQtQtQtQtQtQt",
"QtQtQtQtQtaras###U#a.O.O.O.O#a.2.2.2.2.z#L.O.O.O.O.7#SatauajQtQtQtQtQtQtQtQtQtQtQtQtQtQtQtQtQtQt",
"QtQtQtQtQt.2#Wav.8#a.O.O.O.O#n#A.Lalae.R#t.O.O.O.O#i#Pawar.2QtQtQtQtQtQtQtQtQtQtQtQtQtQtQtQtQtQt",
"QtQtQtQtQtQt#D#4#T.7#a.O.O.O.O.Nax.Q.Q#A.N.O.O.O.7#3#oayajaz.2QtQtQtQtQtQtQtQtQtQtQtQtQtQtQtQtQt",
"QtQtQtQtQtQtQtanaA#j#T#U#a.O.O.O.O.O.O.O.O.O.7#M#8aBau#DaCaDaE.2QtQtQtQtQtQtQtQtQtQtQtQtQtQtQtQt",
"QtQtQtQtQtQtQt.2anaq#c#u#U#a.O.O.O.O.O.O.O.7#S#caFaG#D.2aHaIaJaK.2QtQtQtQtQtQtQtQtQtQtQtQtQtQtQt",
"QtQtQtQtQtQtQtQt.2aL#WataM#3#T#U#a.O.7#M#NaMamaNaO#D.2aPaQaRaSaTaU.2QtQtQtQtQtQtQtQtQtQtQtQtQtQt",
"QtQtQtQtQtQtQtQtQtQtajanaVaFaWaXasaYaXaWaZaN#daraja0a1a2a3aQa4a5a6a7.2QtQtQtQtQtQtQtQtQtQtQtQtQt",
"QtQtQtQtQtQtQtQtQtQtQt.2ajar#dau#v#Wau#daL#paj.2a8a9b.a1b#babbbcbdbebf.2QtQtQtQtQtQtQtQtQtQtQtQt",
"QtQtQtQtQtQtQtQtQtQtQtQtQtQt.2.2.2.2.2.2.2QtQtQt.2bgbhbibjbkbla3bmbnbobp.2QtQtQtQtQtQtQtQtQtQtQt",
"QtQtQtQtQtQtQtQtQtQtQtQtQtQtQtQtQtQtQtQtQtQtQtQtQt.2bqbrbsb.b#bta3bubvbwbx.2QtQtQtQtQtQtQtQtQtQt",
"QtQtQtQtQtQtQtQtQtQtQtQtQtQtQtQtQtQtQtQtQtQtQtQtQtQt.2bybzbAbBb#blbCbDbnbEbF.2QtQtQtQtQtQtQtQtQt",
"QtQtQtQtQtQtQtQtQtQtQtQtQtQtQtQtQtQtQtQtQtQtQtQtQtQtQt.2bqbzb.bGbHbabbbIbJbKbL.2QtQtQtQtQtQtQtQt",
"QtQtQtQtQtQtQtQtQtQtQtQtQtQtQtQtQtQtQtQtQtQtQtQtQtQtQtQt.2bybrbMbGb#bNbCbObPbebQ.2QtQtQtQtQtQtQt",
"QtQtQtQtQtQtQtQtQtQtQtQtQtQtQtQtQtQtQtQtQtQtQtQtQtQtQtQtQt.2bybzbMb.bkbtbCbmbdbRbS.2QtQtQtQtQtQt",
"QtQtQtQtQtQtQtQtQtQtQtQtQtQtQtQtQtQtQtQtQtQtQtQtQtQtQtQtQtQt.2bgbhbsb.bHbtbabOaIaTbT.2QtQtQtQtQt",
"QtQtQtQtQtQtQtQtQtQtQtQtQtQtQtQtQtQtQtQtQtQtQtQtQtQtQtQtQtQtQt.2bUa0bAbBb#btbba4bVbWaU.2QtQtQtQt",
"QtQtQtQtQtQtQtQtQtQtQtQtQtQtQtQtQtQtQtQtQtQtQtQtQtQtQtQtQtQtQtQt.2bybhbjbkbHbabCbcbvaTaz.2QtQtQt",
"QtQtQtQtQtQtQtQtQtQtQtQtQtQtQtQtQtQtQtQtQtQtQtQtQtQtQtQtQtQtQtQtQt.2bybXbAbYbZbtbCb0bPb1.2QtQtQt",
"QtQtQtQtQtQtQtQtQtQtQtQtQtQtQtQtQtQtQtQtQtQtQtQtQtQtQtQtQtQtQtQtQtQt.2bybrb2bYa1blb3b4b5.2QtQtQt",
"QtQtQtQtQtQtQtQtQtQtQtQtQtQtQtQtQtQtQtQtQtQtQtQtQtQtQtQtQtQtQtQtQtQtQt.2bgb6b2a1b7bCbk.2QtQtQtQt",
"QtQtQtQtQtQtQtQtQtQtQtQtQtQtQtQtQtQtQtQtQtQtQtQtQtQtQtQtQtQtQtQtQtQtQtQt.2bgbrbkb8bi.2QtQtQtQtQt",
"QtQtQtQtQtQtQtQtQtQtQtQtQtQtQtQtQtQtQtQtQtQtQtQtQtQtQtQtQtQtQtQtQtQtQtQtQt.2a8bUb9.2QtQtQtQtQtQt",
"QtQtQtQtQtQtQtQtQtQtQtQtQtQtQtQtQtQtQtQtQtQtQtQtQtQtQtQtQtQtQtQtQtQtQtQtQtQt.2.2.2QtQtQtQtQtQtQt",
"QtQtQtQtQtQtQtQtQtQtQtQtQtQtQtQtQtQtQtQtQtQtQtQtQtQtQtQtQtQtQtQtQtQtQtQtQtQtQtQtQtQtQtQtQtQtQtQt",
"QtQtQtQtQtQtQtQtQtQtQtQtQtQtQtQtQtQtQtQtQtQtQtQtQtQtQtQtQtQtQtQtQtQtQtQtQtQtQtQtQtQtQtQtQtQtQtQt",
"QtQtQtQtQtQtQtQtQtQtQtQtQtQtQtQtQtQtQtQtQtQtQtQtQtQtQtQtQtQtQtQtQtQtQtQtQtQtQtQtQtQtQtQtQtQtQtQt"};
