/* XPM */
static const char *xpmZoomIn16x16[]={
"16 16 63 1",
". c None",
"# c #000000",
"8 c #00ae00",
"6 c #00af00",
"4 c #00c600",
"7 c #00dd00",
"5 c #00de00",
"a c #121212",
"1 c #198a95",
"m c #19b6c4",
"W c #19b8c6",
"P c #21949e",
"A c #21a8b5",
"2 c #21a9b5",
"e c #21d3e3",
"J c #21d5e5",
"I c #2ca2ac",
"E c #2ca9b4",
"3 c #2ca9b5",
"d c #2deafa",
"F c #2eebfa",
"U c #31959e",
"N c #3197a1",
"T c #3198a1",
"O c #319aa3",
"V c #319ba4",
"H c #319fa9",
"0 c #31a0aa",
"D c #31aab5",
"Z c #31abb6",
"z c #31b7c3",
"Y c #31b8c4",
"y c #31beca",
"S c #31bfcc",
"s c #31c3d1",
"X c #31c5d2",
"r c #31cad8",
"R c #31ccda",
"x c #31cddb",
"M c #31cfdd",
"l c #31d4e3",
"Q c #31d6e5",
"q c #31d8e7",
"L c #31dae9",
"k c #31dfef",
"K c #31e1f1",
"j c #32eeff",
"G c #32efff",
"B c #3afbfc",
"c c #3cfbfd",
"C c #42ffff",
"i c #46ffff",
"t c #50fdff",
"b c #5effff",
"u c #88ffff",
"h c #9fffff",
"f c #a0ffff",
"v c #beffff",
"w c #c2ffff",
"n c #d1ffff",
"p c #d7ffff",
"g c #e5ffff",
"o c #ffffff",
"....####........",
"..#abcdea#......",
".#fghijklm#.....",
".anop##qrsa.....",
"#tuvw##xyzA#....",
"#BC######DE#....",
"#FG######HI#....",
"#JKLM##HNOP#....",
".aQRS##TUVa.....",
".#WXYZ0OV1##....",
"..#a23IPa#45#...",
"....####.#647#..",
"..........#647#.",
"...........#647#",
"............#84#",
".............###"};

