/* XPM */
static const char *xpmZoomOut16x16[]={
"16 16 70 2",
"Qt c None",
".# c #000000",
"#d c #00ae00",
"#b c #00af00",
"## c #00c600",
"#c c #00dd00",
"#a c #00de00",
".a c #121212",
".8 c #198a95",
".m c #19b6c4",
".3 c #19b8c6",
".V c #21949e",
".E c #21a8b5",
".9 c #21a9b5",
".e c #21d3e3",
".N c #21d5e5",
".M c #2ca2ac",
".I c #2ca9b4",
"#. c #2ca9b5",
".d c #2deafa",
".J c #2eebfa",
".1 c #31959e",
".T c #3197a1",
".0 c #3198a1",
".U c #319aa3",
".2 c #319ba4",
".L c #319fa9",
".7 c #31a0aa",
".Z c #31a2ac",
".H c #31aab5",
".6 c #31abb6",
".S c #31aeb9",
".Y c #31b0bc",
".D c #31b7c3",
".5 c #31b8c4",
".C c #31beca",
".R c #31bfcc",
".u c #31c3d1",
".4 c #31c5d2",
".t c #31cad8",
".X c #31ccda",
".B c #31cddb",
".Q c #31cfdd",
".l c #31d4e3",
".W c #31d6e5",
".s c #31d8e7",
".P c #31dae9",
".k c #31dfef",
".O c #31e1f1",
".A c #31e2f2",
".r c #31eafa",
".j c #32eeff",
".K c #32efff",
".F c #3afbfc",
".c c #3cfbfd",
".G c #42ffff",
".i c #46ffff",
".z c #4cffff",
".q c #4fffff",
".v c #50fdff",
".b c #5effff",
".w c #88ffff",
".h c #9fffff",
".f c #a0ffff",
".x c #beffff",
".y c #c2ffff",
".n c #d1ffff",
".p c #d7ffff",
".g c #e5ffff",
".o c #ffffff",
"QtQtQtQt.#.#.#.#QtQtQtQtQtQtQtQt",
"QtQt.#.a.b.c.d.e.a.#QtQtQtQtQtQt",
"Qt.#.f.g.h.i.j.k.l.m.#QtQtQtQtQt",
"Qt.a.n.o.p.q.r.s.t.u.aQtQtQtQtQt",
".#.v.w.x.y.z.A.B.C.D.E.#QtQtQtQt",
".#.F.G.#.#.#.#.#.#.H.I.#QtQtQtQt",
".#.J.K.#.#.#.#.#.#.L.M.#QtQtQtQt",
".#.N.O.P.Q.R.S.L.T.U.V.#QtQtQtQt",
"Qt.a.W.X.R.Y.Z.0.1.2.aQtQtQtQtQt",
"Qt.#.3.4.5.6.7.U.2.8.#.#QtQtQtQt",
"QtQt.#.a.9#..M.V.a.####a.#QtQtQt",
"QtQtQtQt.#.#.#.#Qt.##b###c.#QtQt",
"QtQtQtQtQtQtQtQtQtQt.##b###c.#Qt",
"QtQtQtQtQtQtQtQtQtQtQt.##b###c.#",
"QtQtQtQtQtQtQtQtQtQtQtQt.##d##.#",
"QtQtQtQtQtQtQtQtQtQtQtQtQt.#.#.#"};

